/* XPM */
static char *spawn5[] = {
/* columns rows colors chars-per-pixel */
"64 64 9 1 ",
"  c #213038",
". c #003AFF",
"X c #004FFF",
"o c #40B088",
"O c #6FC79F",
"+ c #70C8A0",
"@ c #88D8B8",
"# c #A0E0C0",
"$ c white",
/* pixels */
"++++++++++++++++++++++++++++++++++++++++++++++++++++++++++++++++",
"++++++++++++++++++++++++++++++++++++++++++++++++++++++++++++++++",
"++++++++++++++++++++++++++++++++++++++++++++++++++++++++++++++++",
"++++++++++++++++++++++++++++++++++++++++++++++++++++++++++++++++",
"++++++++++++++++++++++++++++++++++++++++++++++++++++++++++++++++",
"++++++++++##++++++++++++++++++++++++++++++++++++++++++++++++++++",
"++++++++++##++++++++++++++++++++++++++++++++++++++++++++++++++++",
"++++##++++##++++##++++++++++++++++++++++++++++++++++++++++++++++",
"++++##++++##++++##+++++++++++++++++++OO+++++++++++++++++++++++++",
"++++++##++++++##+++++++++++++++++++++OO+++++++++++++++++++++++++",
"++++++##++++++##++++++++++++++++++++++++++++++++++++++++++++++++",
"++++++++++++++++++++++++++++++++++++++++++++++++++++++++++++++++",
"++++++++++++++++++++++++++++++++++++++++++++++++++++++++++++++++",
"++++++++++++++++++++++++++++++++++++++++++++++++++++++++++++++++",
"++++++++++++++++++++++++++++++++++++++++++++++++++++++++++++++++",
"++++++++++++++++++++++++++++++++++++++++++++++++++++++++++++++++",
"++++++++++++++++++++++++++++++++++++++++++++++++++++++++++++++++",
"++++++++++++++++++++++++++++++++++++++++++++++++++++++++++++++++",
"+++++++++++++++++++++++oo+++++++++++++++++++++++++++++++++++++++",
"+++++++++++++++++++++++oo+++++++++++++++++++++++++++++++++++++++",
"+++++++++++++++++oo++++oo++++oo+++++++++++++++++++++++++++++++++",
"+++++++++++++++++oo++++oo++++oo+++++++++++++++++++++++++++++++++",
"+++++++++++++++++++oo++++++oo     +++++++++++++++++++++++oo+++++",
"+++++++++++++++++++oo++++++o $$$XX ++++++++++++++++++++++oo+++++",
"o++++++++++++++++++++++++++ .$$$$.X +++++++++++++++oo++++oo++++o",
"o++++++++++++++++++++++++++ .$$$$$$ +++++++++++++++oo++++oo++++o",
"++++++++++++++++++++++++++ $$$$$$$$$ ++++++++++++++++oo++++++oo+",
"++++++++++++++++++++++++++ $ $ $ $ $ ++++++++++++++++oo++++++oo+",
"+++++++++++++++++++OO+++++  X X X X  +++++++++++++++++++++++++++",
"+++++++++++++++++++OO++++++X X X X +++++++++++++++++++++++++++++",
"++++++++++++++++++++++++++  $ X . $  +++++++++++++++++++++++++++",
"+++++++++++++++++++++++++ $$$X..XX$$$ ++++++++++++++++++++++++++",
"+++++++++++++++++++++++++ $$$$X.X$$$$ +++##+++++++++++++++++++++",
"+++++++++++++++++++++++++ $$$$$X$$$$$ +++##+++++++++++++++++++++",
"+++++++++++++++++++++++++ X$$$$$$$$$X +##+++++++++++++++++++++++",
"+++++++++++++++++++++++++ XX$$$$$$$$X +##+++++++++++++++++++++++",
"+++++++++++++++++++++++++ .XX$$$$$$$X ++++++++++++++++++++++++++",
"++++++++++++++++++++++++++ ..$$$.$$X +++++++++++++++++++++++++++",
"+++++++++++++++++++++++++++  $$..$  ++++++++++++++++++++++++++++",
"+++++++++++++++++++++++++++++     ++++++++++++++++++++++++++++++",
"+++++OO+++++++++++++++++++++++++++++++++++++++++++++++++++++++++",
"+++++OO+++++++++++++++++++++++++++++++++++++++++++++++++++++++++",
"++++++++++++++++++++++++++++++++++++++++++++++++++++++++++++++++",
"++++++++++++++++++++++++++++++++++++++++++++++++++++++++++++++++",
"++++++++++++++++++++++++++++++++++++++++++++++++++++++++++++++++",
"++++++++++++++++++++++++++++++++++++++++++++++++++++++++++++++++",
"++++++++++++++++++++++++++++++++++++++++++++++++++++++++++++++++",
"++++++++++++++++++++++++++++++++++++++++++++++++++++++++++++++++",
"++++++++++++++++++++++++++++++++++++++++++++++++++++++++++++++++",
"++++++++++++++++++++++++++++++++++++++++++++++++++++++++++++++++",
"+++++++++++++++++++++++++++++++++++++++++++++++++++++++oo+++++++",
"+++++++++++++++++++++++++++++++++++++++++++++++++++++++oo+++++++",
"+++++++++++++++++++++++++++++++++++++++++++++++++oo++++oo++++oo+",
"+++++++++++++++++++++++++++++++++++++++++++++++++oo++++oo++++oo+",
"+++++@@++++++++++++++++++oo++++++++++++++++++++++++oo++++++oo+++",
"+++++@@++++++++++++++++++oo++++++++++++++++++++++++oo++++++oo+++",
"@++++@@++++@@++++++oo++++oo++++oo++++++++++++++++++++++++++++++@",
"@++++@@++++@@++++++oo++++oo++++oo++++++++++++++++++++++++++++++@",
"+@@++++++@@++++++++++oo++++++oo+++++++++++++++++++++++++++++++++",
"+@@++++++@@++++++++++oo++++++oo+++++++++++++++++++++++++++++++++",
"+++++++++++++++++++++++++++++++++++++++++++++++++++OO+++++++++++",
"+++++++++++++++++++++++++++++++++++++++++++++++++++OO+++++++++++",
"++++++++++++++++++++++++++++++++++++++++++++++++++++++++++++++++",
"++++++++++++++++++++++++++++++++++++++++++++++++++++++++++++++++"
};
