/* XPM */
static char *wall_5[] = {
/* columns rows colors chars-per-pixel */
"64 64 176 2 ",
"   c #150606",
".  c #190706",
"X  c #1B0807",
"o  c #1E0908",
"O  c #171410",
"+  c #220B09",
"@  c #2A0E0B",
"#  c #340E0A",
"$  c #2F120F",
"%  c #34120D",
"&  c #3A140E",
"*  c #3D190F",
"=  c #1D241C",
"-  c #38281E",
";  c #272D23",
":  c #372C23",
">  c #28372C",
",  c #3C3427",
"<  c #2F3E34",
"1  c #383F32",
"2  c #461309",
"3  c #541609",
"4  c #691908",
"5  c #7D1C06",
"6  c #701A08",
"7  c #58280B",
"8  c #472A1A",
"9  c #552415",
"0  c #5D2B19",
"q  c #672B10",
"w  c #702912",
"e  c #603017",
"r  c #453729",
"t  c #683B28",
"y  c #2C4939",
"u  c #354738",
"i  c #4D4F3D",
"p  c #7A5822",
"a  c #355343",
"s  c #3C614D",
"d  c #3C6651",
"f  c #3E6D56",
"g  c #485643",
"h  c #42604C",
"j  c #52614C",
"k  c #4C6F58",
"l  c #46755D",
"z  c #6A6E55",
"x  c #467C62",
"c  c #4A7B61",
"v  c #517D62",
"b  c #5C7D62",
"n  c #6A7D62",
"m  c #861D06",
"M  c #891E05",
"N  c #951E03",
"B  c #8B2608",
"V  c #972605",
"C  c #933312",
"Z  c #A92502",
"A  c #BC2B00",
"S  c #A33107",
"D  c #B93202",
"F  c #923A25",
"G  c #C13702",
"H  c #C13903",
"J  c #91490D",
"K  c #A6530E",
"L  c #AA5712",
"P  c #BC6119",
"I  c #904B36",
"U  c #B5573B",
"Y  c #99772B",
"T  c #BC663D",
"R  c #C64106",
"E  c #C34F0B",
"W  c #CB4B08",
"Q  c #CF530A",
"!  c #CB5414",
"~  c #D9640D",
"^  c #CB6512",
"/  c #DA6B12",
"(  c #DC7110",
")  c #DF7917",
"_  c #E0710F",
"`  c #E27411",
"'  c #E27B16",
"]  c #C55F32",
"[  c #C97C21",
"{  c #D27E21",
"}  c #C56034",
"|  c #D27132",
" . c #8D7258",
".. c #BF6F48",
"X. c #B0704F",
"o. c #827E62",
"O. c #3C8365",
"+. c #4B8469",
"@. c #4E8B6E",
"#. c #52856A",
"$. c #5A8971",
"%. c #529274",
"&. c #589879",
"*. c #5A9E7E",
"=. c #658D78",
"-. c #7E8F70",
";. c #B18D33",
":. c #E8851A",
">. c #E99524",
",. c #EC9A26",
"<. c #EA982E",
"1. c #EEA42A",
"2. c #EFA82D",
"3. c #F0A82C",
"4. c #ECA132",
"5. c #F1AF30",
"6. c #F3B232",
"7. c #F1B93A",
"8. c #A78C57",
"9. c #848E70",
"0. c #B8976B",
"q. c #EBAB4D",
"w. c #F3B843",
"e. c #EEB353",
"r. c #EFC449",
"t. c #FEDD4A",
"y. c #FBD353",
"u. c #FFDF52",
"i. c #FFE14C",
"p. c #FFE055",
"a. c #FFE25D",
"s. c #FDDD63",
"d. c #FFE364",
"f. c #FFE46B",
"g. c #FFE673",
"h. c #FFE77D",
"j. c #5CA483",
"k. c #40B088",
"l. c #62A987",
"z. c #65AA88",
"x. c #7EA987",
"c. c #65B38F",
"v. c #7AAE90",
"b. c #69BA95",
"n. c #6ABC96",
"m. c #75BE97",
"M. c #6EC59E",
"N. c #73C59D",
"B. c #7BC19A",
"V. c #70C8A0",
"C. c #7ACBA5",
"Z. c #87AE8A",
"A. c #94AB86",
"S. c #98AA84",
"D. c #87B48F",
"F. c #96B28A",
"G. c #80BE97",
"H. c #88D8B8",
"J. c #9AD5B8",
"K. c #A4D8BE",
"L. c #F8D79E",
"P. c #FFE982",
"I. c #FFEE99",
"U. c #CDC2A0",
"Y. c #FFEEA2",
"T. c #FAE4A9",
"R. c #FFEFAC",
"E. c #FFF1AD",
"W. c #FFF1B5",
"Q. c #FFF3B9",
"!. c #A7D8C0",
"~. c #A0E0C0",
"^. c #BBE0CD",
"/. c #FFF4C5",
"(. c #FFF6CB",
"). c #FFF8CD",
/* pixels */
"V.V.V.V.V.V.V.V.V.V.V.V.V.V.V.V.V.V.V.V.V.V.V.V.V.V.V.V.V.V.V.V.V.V.V.V.V.V.V.V.V.V.V.V.V.V.V.V.V.V.V.V.V.V.V.V.V.V.V.V.V.V.V.V.",
"V.V.V.V.V.V.V.V.V.V.V.V.V.V.V.V.V.V.V.V.V.V.V.V.V.V.V.V.V.V.V.V.V.V.V.V.V.V.V.V.V.V.V.V.V.V.V.V.V.V.V.V.V.V.V.V.V.V.V.V.V.V.V.V.",
"V.V.V.V.V.V.V.V.V.V.V.V.V.V.V.V.V.V.V.V.V.V.V.V.V.V.V.V.V.V.V.V.V.V.V.V.V.V.V.V.V.V.V.V.V.V.V.V.V.V.V.V.V.V.V.V.V.V.V.V.V.V.V.V.",
"V.V.V.V.V.V.V.V.V.V.V.V.V.V.V.V.V.V.V.V.V.V.V.V.V.V.V.V.V.V.V.V.V.V.V.V.V.V.V.V.V.V.V.V.V.V.V.V.V.V.V.V.V.V.V.V.V.V.V.V.V.V.V.V.",
"V.V.V.V.V.V.V.V.V.V.V.V.V.V.V.V.V.V.V.V.V.V.V.V.V.V.V.V.V.V.V.V.V.V.V.V.V.V.V.V.V.V.V.V.V.V.V.V.V.V.V.V.V.V.V.V.V.V.V.V.V.V.V.V.",
"V.V.V.V.V.V.V.V.V.V.~.~.V.V.V.V.V.V.V.V.V.V.V.V.V.V.V.V.V.V.V.V.V.V.V.V.V.V.V.V.V.V.V.V.V.V.V.V.V.V.V.V.V.V.V.V.V.V.V.V.V.V.V.V.",
"V.V.V.V.V.V.V.V.V.V.~.~.V.V.V.V.V.V.V.V.V.V.V.V.V.V.V.V.V.V.V.V.V.V.V.V.V.V.V.V.V.V.V.V.V.V.V.V.V.V.V.V.V.V.V.V.V.V.V.V.V.V.V.V.",
"V.V.V.V.~.~.V.V.V.V.~.~.V.V.V.V.~.~.V.V.V.V.V.V.V.V.V.V.V.V.V.V.V.V.V.V.V.V.V.V.V.V.V.V.V.V.V.V.V.V.V.V.V.V.V.V.V.V.V.V.V.V.V.V.",
"V.V.V.V.~.~.V.V.V.V.~.~.V.V.V.V.~.~.V.V.V.V.V.V.V.V.V.V.V.V.V.V.V.V.V.V.V.V.M.V.V.V.V.V.V.V.V.V.V.V.V.V.V.V.V.V.V.V.V.V.V.V.V.V.",
"V.V.V.V.V.V.~.~.V.V.V.V.V.V.~.~.V.V.V.V.V.V.V.V.V.V.V.V.V.V.V.V.V.V.V.V.V.V.V.V.V.V.V.V.V.V.V.V.V.V.V.V.V.V.V.V.V.V.V.V.V.V.V.V.",
"V.V.V.V.V.V.~.~.V.V.V.V.V.V.~.~.V.V.V.V.V.V.V.V.V.V.V.V.V.V.V.V.V.V.V.V.V.V.V.V.V.V.V.V.V.V.V.V.V.V.V.V.V.V.V.V.V.V.V.V.V.V.V.V.",
"V.V.V.V.V.V.V.V.V.V.V.V.V.V.V.V.V.V.V.V.V.V.V.V.V.V.V.V.V.V.V.V.V.V.V.V.V.V.V.V.V.V.V.V.V.V.V.V.V.V.V.V.V.V.V.V.V.V.V.V.V.V.V.V.",
"V.V.V.V.V.V.V.V.V.V.V.V.V.V.V.V.V.V.V.V.V.V.V.V.V.V.V.V.V.V.V.V.V.V.V.V.V.V.V.V.V.V.V.V.V.V.V.V.V.V.V.V.V.V.V.V.V.V.V.V.V.V.V.V.",
"V.V.V.V.V.V.V.V.V.V.V.V.V.V.V.V.V.V.V.V.V.V.V.V.V.V.V.V.V.V.V.V.V.V.V.V.V.V.V.V.V.V.V.V.V.V.V.V.V.V.V.V.V.V.V.V.V.V.V.V.V.V.V.V.",
"V.V.V.V.V.V.V.V.V.V.V.V.V.V.V.V.V.V.V.V.V.V.V.V.V.V.V.V.V.V.V.V.V.V.V.V.V.V.V.V.V.V.V.V.V.V.V.V.V.V.V.V.V.V.V.V.V.V.V.V.V.V.V.V.",
"V.V.V.V.V.V.V.V.V.V.V.V.V.V.V.V.V.V.V.V.V.V.V.V.V.V.V.V.V.V.V.V.V.V.V.V.V.V.V.V.V.V.V.V.V.V.V.V.V.V.V.V.V.V.V.V.V.V.V.V.V.V.V.V.",
"V.V.V.V.V.V.V.V.V.V.V.V.V.V.V.V.V.V.V.V.V.V.V.V.V.V.V.V.V.V.V.V.V.V.V.V.V.V.V.V.V.V.V.V.V.V.V.V.V.V.V.V.V.V.V.V.V.V.V.V.V.V.V.V.",
"V.V.V.V.V.V.V.V.V.V.V.V.V.V.V.V.V.V.V.V.V.V.V.V.V.V.V.V.V.V.V.V.V.V.V.V.V.V.V.V.V.V.V.V.V.V.V.V.V.V.V.V.V.V.V.V.V.V.V.V.V.V.V.V.",
"V.V.V.V.V.V.V.V.V.V.V.V.V.V.V.V.V.V.V.V.V.V.V.k.k.V.V.V.V.V.V.V.V.V.V.V.n.n.V.V.V.V.V.V.V.V.V.V.V.V.V.V.V.V.V.V.V.V.V.V.V.V.V.V.",
"V.V.V.V.V.V.V.V.V.V.V.V.V.V.V.V.V.V.V.V.V.V.V.k.k.V.V.V.V.V.V.V.V.V.V.M.v k M.V.V.V.V.V.V.V.V.V.V.V.V.V.V.V.V.V.V.V.V.V.V.V.V.V.",
"V.V.V.V.V.V.V.V.V.V.V.V.V.V.V.V.V.k.k.V.V.V.V.k.k.V.V.V.V.k.k.V.V.V.V.V.j.#.M.V.V.V.V.V.V.V.V.V.V.V.V.V.V.V.V.V.V.V.V.V.V.V.V.V.",
"V.V.V.V.V.V.V.V.V.V.V.V.V.V.V.V.V.k.k.V.V.V.V.k.k.V.V.V.V.k.k.V.V.V.V.V.V.V.V.V.V.V.V.V.V.V.V.V.V.V.V.V.V.V.V.V.V.V.V.V.V.V.V.V.",
"V.V.V.V.V.V.V.V.V.V.V.V.V.V.V.V.V.V.V.k.k.V.V.V.V.V.V.k.k.V.V.V.V.V.V.V.V.V.V.V.V.V.V.V.V.V.V.V.V.V.V.V.V.V.V.V.V.k.k.V.V.V.V.V.",
"V.V.V.V.V.V.V.V.V.V.V.V.V.V.V.V.V.V.V.k.k.V.V.V.V.V.V.k.k.V.V.V.V.V.V.V.V.V.V.V.V.V.V.V.V.V.V.V.V.V.V.V.V.V.V.V.V.k.k.V.V.V.V.V.",
"k.V.V.V.V.V.V.V.V.V.V.V.V.V.V.V.V.V.V.V.V.V.V.V.V.V.V.V.V.V.V.V.V.V.V.V.V.V.V.V.V.V.V.V.V.V.V.V.V.V.V.k.k.V.V.V.V.k.k.V.V.V.V.k.",
"k.V.V.V.V.V.V.V.V.V.V.V.V.V.V.V.V.V.V.V.V.V.V.V.V.V.V.V.V.V.V.V.V.V.V.V.V.V.V.V.V.V.V.V.V.V.V.V.V.V.V.k.k.V.V.V.V.k.k.V.V.V.V.k.",
"V.V.V.V.V.V.V.V.V.V.V.V.V.V.V.V.V.V.V.V.V.V.V.V.V.V.V.V.V.V.V.V.V.V.V.V.V.V.V.V.V.V.V.V.V.V.V.V.V.V.V.V.V.k.k.V.V.V.V.V.V.k.k.V.",
"V.V.V.V.V.V.V.V.V.V.V.V.V.V.V.V.V.V.V.V.V.V.V.V.V.V.V.V.V.V.V.V.V.V.V.V.V.V.V.V.V.V.V.V.V.V.V.V.V.V.V.V.V.k.k.V.V.V.V.V.V.k.k.V.",
"V.V.V.V.V.V.V.V.V.V.V.V.V.V.V.V.V.V.V.V.M.V.V.V.V.V.V.V.V.V.V.V.n.n.V.V.V.V.V.V.V.V.V.V.V.V.V.V.V.V.V.V.V.V.V.V.V.V.V.V.V.V.V.V.",
"V.V.V.V.V.V.V.V.V.V.V.V.V.V.V.V.V.V.V.M.V.V.V.V.V.V.M.j.b.M.V.n.f j.V.V.V.V.V.V.V.V.V.V.V.V.V.V.V.V.V.V.V.V.V.V.V.V.V.V.V.V.V.V.",
"V.V.V.V.V.V.V.V.V.V.V.V.V.V.V.V.V.V.V.V.V.V.V.V.V.M.%.= > %.V.*.= y M.J.~.V.V.V.V.V.V.V.V.V.V.V.V.V.V.V.V.V.V.V.V.V.V.V.V.V.V.V.",
"V.V.V.V.V.V.V.V.V.V.V.V.V.V.V.V.V.V.V.V.V.V.V.V.V.M.@.    = j.&.O +.M.~.~.V.V.V.V.V.V.V.V.V.V.V.V.V.V.V.V.V.V.V.V.V.V.V.V.V.V.V.",
"V.V.V.V.V.V.V.V.V.V.V.V.V.V.V.V.V.V.V.V.V.V.V.V.V.V.c.y . ; v.d   x M.~.~.V.V.V.V.~.~.V.V.V.V.V.V.V.V.V.V.V.V.V.V.V.V.V.V.V.V.V.",
"V.V.V.V.V.V.V.V.V.V.V.V.V.V.V.V.V.V.V.V.V.V.V.V.V.V.V.x   < $.X   j.V.~.~.V.V.V.V.~.~.V.V.V.V.V.V.V.V.V.V.V.V.V.V.V.V.V.V.V.V.V.",
"V.V.V.V.V.V.V.V.V.V.V.V.V.V.V.V.V.V.V.V.V.V.V.V.V.V.V.x   O >   a c.n.l.M.V.V.~.~.V.V.V.V.V.V.V.V.V.V.V.V.V.V.V.V.V.V.V.V.V.V.V.",
"V.V.V.V.V.V.V.V.V.V.V.V.V.V.V.V.V.V.V.V.V.V.V.V.V.V.V.x     X X =.j.d 1 b.V.V.~.~.V.V.V.V.V.V.V.V.V.V.V.V.V.V.V.V.V.V.V.V.V.V.V.",
"V.V.V.V.V.V.V.V.V.V.V.V.V.V.V.V.V.V.V.V.V.V.V.V.V.V.V.x       = @.s . . +.M.M.V.V.V.V.V.V.V.V.V.V.V.V.V.V.V.V.V.V.V.V.V.V.V.V.V.",
"V.V.V.V.V.V.V.V.V.V.V.V.V.V.V.V.V.V.V.V.V.V.V.V.V.V.V.x   o + ; g 2 4 # l M.V.V.V.V.V.V.V.V.V.V.V.V.V.V.V.V.V.V.V.V.V.V.V.V.V.V.",
"V.V.V.V.V.V.V.V.V.V.V.V.V.V.V.V.V.V.V.V.V.V.V.V.V.V.V.x   @ $ X 3 B M 5 g c.V.V.V.V.V.V.V.V.V.V.V.V.V.V.V.V.V.V.V.V.V.V.V.V.V.V.",
"V.V.V.V.V.V.V.V.V.V.V.V.V.V.V.V.V.V.V.V.V.V.V.V.V.V.V.x   @ $ + 5 M m M o.V.V.V.V.V.V.V.V.V.V.V.V.V.V.V.V.V.V.V.V.V.V.V.V.V.V.V.",
"V.V.V.V.V.V.M.V.V.V.V.V.V.V.V.V.V.V.V.V.V.V.V.V.V.V.V.x X % @ $ 6 M M m n V.V.V.V.V.V.V.V.V.V.V.V.V.V.V.V.V.V.V.V.V.V.V.V.V.V.V.",
"V.V.V.V.V.M.V.V.V.V.V.V.V.V.V.V.V.V.V.V.V.V.V.V.V.V.b.a > % @ $ * 6 m 2 c V.V.V.V.V.V.V.V.l.n.V.V.V.C.C.V.V.V.V.V.V.V.V.V.V.V.V.",
"V.V.V.V.V.V.V.V.V.V.V.V.V.V.V.V.V.V.V.V.V.V.V.V.V.V.M.&.c % % % % % 2 3 b N.V.V.V.V.V.V.V.N.V.V.V.J.K.J.V.V.V.V.V.V.V.V.V.V.V.V.",
"V.V.V.V.V.V.V.V.V.V.V.V.V.V.V.V.V.V.V.V.V.V.V.V.M.M.M.M.u $ : : % 2 N A U Z.V.V.V.V.V.V.V.V.V.V.!.^.C.V.V.V.V.V.V.V.V.V.V.V.V.V.",
"V.V.V.V.V.V.V.V.V.V.V.V.V.V.V.V.V.V.V.V.V.V.V.V.V.V.V.Z.t 4 z j % B A A A U m.C.V.V.V.V.V.V.V.!.^.C.V.V.V.V.V.V.V.V.V.V.V.V.V.V.",
"V.V.V.V.V.V.V.V.V.V.V.V.V.V.V.V.V.V.V.V.V.V.V.V.V.V.D.U G G G S 3 B A A A U m.V.V.V.N.B.B.B.V.J.C.V.V.V.V.V.V.V.V.V.V.V.V.V.V.V.",
"V.V.V.V.V.V.V.V.V.V.V.V.V.V.V.V.V.V.V.V.V.V.V.V.M.V.A.H D H D H B 6 Z A U Z.V.V.V.V.A.] ] ..B.V.V.V.V.V.V.V.V.V.V.V.V.V.V.V.V.V.",
"V.V.V.V.V.V.V.V.V.V.V.V.V.V.V.V.V.V.V.V.V.V.V.V.M.N.A.G H R R R S 4 5 4 b N.V.V.V.V.S.W W } B.V.V.V.V.V.V.V.V.V.V.V.V.V.V.V.V.V.",
"V.V.V.V.V.V.V.V.V.V.V.V.V.V.V.V.V.V.V.V.V.V.V.V.V.M.-.H ( ,.,.,.[ q 6 N S T F.N.V.V.S.W W } m.V.V.V.V.V.V.V.V.V.V.V.V.V.V.V.V.V.",
"V.V.V.V.V.V.V.V.V.V.V.V.V.V.V.V.V.V.V.V.V.V.V.N.M.&.e Q >.3.2.1.,.[ C E / / | 0.B.V.G.S.S.S.N.V.V.V.V.V.V.V.V.V.V.V.V.V.V.V.V.V.",
"V.V.V.V.V.V.V.V.V.V.V.V.V.V.V.V.V.V.V.V.V.N.V.c.%.8 J _ ` :.>.1.1.,.~ ~ / ~ ~ | F.V.V.V.V.V.V.V.V.V.V.V.V.V.V.k.k.V.V.V.V.V.V.V.",
"V.V.V.V.V.V.V.V.V.V.V.V.V.V.V.V.V.V.V.V.V.M.c.y @ K ` ` _ _ ' 1.3.,./ ~ ' <.>.' } 9.m.V.V.V.V.V.V.V.V.V.V.V.V.k.k.V.V.V.V.V.V.V.",
"V.V.V.V.V.V.V.V.V.V.V.V.V.V.V.V.V.V.V.V.M.@.; o q ( ` ` ` :.w.s.y.4.~ ' 3.6.6.3.^ N  .m.V.V.V.V.V.k.k.V.V.V.V.k.k.V.V.V.V.k.k.V.",
"V.V.V.V.V.V.V.V.V.V.V.V.V.V.V.V.V.V.V.V.c.y @ o q ` ` ` ` r.f.f.f.d.w.7.6.6.5.6.{ N N x.V.V.V.V.V.k.k.V.V.V.V.k.k.V.V.V.V.k.k.V.",
"V.V.V.V.V.H.H.V.V.V.V.V.V.V.V.V.V.V.V.V.c.l h + 7 ^ ` _ ,.d.f.f.a.a.d.p.y.6.5.5.) V I v.V.V.V.V.V.V.V.k.k.V.V.V.V.V.V.k.k.V.V.V.",
"V.V.V.V.V.H.H.V.V.V.V.V.V.V.V.V.V.V.V.V.V.V.n.j.+.K ` _ <.g.f.a.a.d.d.d.p.y.6.5.;.F v.C.V.V.V.V.V.V.V.k.k.V.V.V.V.V.V.k.k.V.V.V.",
"H.V.V.V.V.H.H.V.V.V.V.H.H.V.V.V.V.V.V.k.k.V.V.N.g L ' >.w.g.h.P.P.h.Y.Y.h.d.w.5.P I m.V.V.V.V.V.V.V.V.V.V.V.V.V.V.V.V.V.V.V.V.H.",
"H.V.V.V.V.H.H.V.V.V.V.H.H.V.V.V.V.V.V.k.k.V.M.$.: J 7.t.g.I.Q.(.(.W.R.R.E.I.r.! F 9.N.M.V.V.V.V.V.V.V.V.V.V.V.V.V.V.V.V.V.V.V.H.",
"V.H.H.V.V.V.V.V.V.H.H.V.V.V.V.V.V.V.V.V.V.k.O.- * ;.u.u.R./.(.(.(.(.W.W.W.E.e.D X.z.M.M.V.V.V.V.V.V.V.V.V.V.V.V.V.V.V.V.V.V.V.V.",
"V.H.H.V.V.V.V.V.V.H.H.V.V.V.V.V.V.V.V.V.V.O.- # e r.t.u.Q.(.).).(.(.(.(./.W.q.D Z 0 l c.V.V.V.V.V.V.V.V.V.V.V.V.V.V.V.V.V.V.V.V.",
"V.V.V.V.V.V.V.V.V.V.V.V.V.V.V.V.V.V.V.V.V.v % # p i.i.p.I.(.(././././.(.).T.^ G B & # $.M.V.V.V.V.V.V.V.M.V.V.V.V.V.V.V.V.V.V.V.",
"V.V.V.V.V.V.V.V.V.V.V.V.V.V.V.V.V.V.V.V.V.v & # p i.i.t.d.Y.Q.Q.Q.Q./.).).L.W C w 9 & - j.V.V.V.V.V.V.M.V.V.V.V.V.V.V.V.V.V.V.V.",
"V.V.V.V.V.V.V.V.V.V.V.V.V.V.V.V.V.V.V.V.V.v & % * Y t.t.d.W.Q.W.Q.Q./.).)...B 0 0 0 i #.n.V.V.V.V.V.V.V.V.V.V.V.V.V.V.V.V.V.V.V.",
"V.V.V.V.V.V.V.V.V.V.V.V.V.V.V.V.V.V.V.V.V.l., & % & 8.g.g.).Q.Q.Q.Q.Q./.U.: % 9 9 r z.V.V.V.V.V.V.V.V.V.V.V.V.V.V.V.V.V.V.V.V.V."
};
