/* XPM */
static char *wall_6[] = {
/* columns rows colors chars-per-pixel */
"64 64 178 2 ",
"   c #150606",
".  c #1A0706",
"X  c #1C0807",
"o  c #1E0A08",
"O  c #16120E",
"+  c #191A14",
"@  c #220A07",
"#  c #250C09",
"$  c #2B0E0B",
"%  c #2E100C",
"&  c #34120C",
"*  c #3C130C",
"=  c #2C1F17",
"-  c #1C231B",
";  c #37271D",
":  c #273428",
">  c #303B2C",
",  c #293F31",
"<  c #42130B",
"1  c #4B1A08",
"2  c #571408",
"3  c #5D1609",
"4  c #4A1C10",
"5  c #6C1807",
"6  c #671708",
"7  c #7A1B07",
"8  c #751B08",
"9  c #781A08",
"0  c #532314",
"q  c #5A2414",
"w  c #5D2917",
"e  c #792509",
"r  c #762A17",
"t  c #613E18",
"y  c #422E22",
"u  c #6D3727",
"i  c #2A4334",
"p  c #2C4A39",
"a  c #344737",
"s  c #3A4334",
"d  c #3C4D3C",
"f  c #7E581F",
"g  c #654121",
"h  c #394D41",
"j  c #365444",
"k  c #446852",
"l  c #417159",
"z  c #497259",
"x  c #467C62",
"c  c #4D7C62",
"v  c #517C62",
"b  c #757D62",
"n  c #871D04",
"m  c #941F04",
"M  c #832509",
"N  c #962205",
"B  c #823B1F",
"V  c #A32302",
"C  c #B12400",
"Z  c #A0350E",
"A  c #B93303",
"S  c #C13603",
"D  c #8C400B",
"F  c #B94E0B",
"G  c #A44813",
"H  c #B05616",
"J  c #A86018",
"K  c #875A21",
"L  c #9D533C",
"P  c #BC4E2E",
"I  c #A75431",
"U  c #BB5636",
"Y  c #956D25",
"T  c #A96F27",
"R  c #C04109",
"E  c #CC4D08",
"W  c #CF5206",
"Q  c #CE520C",
"!  c #D2560A",
"~  c #D45A0B",
"^  c #CC5316",
"/  c #D26B14",
"(  c #D86C15",
")  c #D27B28",
"_  c #CD6E33",
"`  c #946F4F",
"'  c #A46942",
"]  c #BB6944",
"[  c #AF795A",
"{  c #C26B41",
"}  c #388062",
"|  c #4B8469",
" . c #4F8C6F",
".. c #4F8D71",
"X. c #548D70",
"o. c #539275",
"O. c #589879",
"+. c #599F7F",
"@. c #688F74",
"#. c #B98E2E",
"$. c #E3831C",
"%. c #E68C1E",
"&. c #E98F1E",
"*. c #CD8C34",
"=. c #E59126",
"-. c #EB9320",
";. c #EC9924",
":. c #DAA03C",
">. c #EEA22B",
",. c #F0AA2D",
"<. c #EEAC33",
"1. c #E2B237",
"2. c #E6B739",
"3. c #F6C53C",
"4. c #F8C73D",
"5. c #FBC93E",
"6. c #8D8E6F",
"7. c #968B6A",
"8. c #B48962",
"9. c #ACA56D",
"0. c #DC8457",
"q. c #EEAE48",
"w. c #F1B64A",
"e. c #E4BB5C",
"r. c #F2CA4F",
"t. c #F9CE4C",
"y. c #FBD344",
"u. c #FDD847",
"i. c #FDD749",
"p. c #FDDB52",
"a. c #FAD35A",
"s. c #FEE056",
"d. c #FFE25B",
"f. c #FBD865",
"g. c #FEE264",
"h. c #FFE56A",
"j. c #FFE572",
"k. c #FFE973",
"l. c #FEE47D",
"z. c #FFE87D",
"x. c #3FA882",
"c. c #40AE87",
"v. c #5CA483",
"b. c #40B088",
"n. c #61A382",
"m. c #6EA784",
"M. c #61A987",
"N. c #62AC8A",
"B. c #73A888",
"V. c #64B38F",
"C. c #7EB38E",
"Z. c #79A990",
"A. c #66B591",
"S. c #6ABB96",
"D. c #6BBF99",
"F. c #7BBD96",
"G. c #6EC59E",
"H. c #73C59D",
"J. c #7BC19A",
"K. c #70C8A0",
"L. c #93A783",
"P. c #88B48F",
"I. c #92B08A",
"U. c #CB9C89",
"Y. c #80C39A",
"T. c #92CCAF",
"R. c #88D8B8",
"E. c #FFE882",
"W. c #FEE88C",
"Q. c #FDE497",
"!. c #FFEC94",
"~. c #FFED9B",
"^. c #F0CDA2",
"/. c #F4D2BB",
"(. c #FFEFA9",
"). c #FFF0AE",
"_. c #A0E0C0",
"`. c #FFF7D1",
/* pixels */
"K.K.K.K.K.K.K.K.K.K.K.K.K.K.K.K.K.K.K.K.K.K.K.K.K.K.K.K.K.K.K.K.K.K.K.K.K.K.K.K.K.K.K.K.K.K.K.K.K.K.K.K.K.K.K.K.K.K.K.K.K.K.K.K.",
"K.K.K.K.K.K.K.K.K.K.K.K.K.K.K.K.K.K.K.K.K.K.K.K.K.K.K.K.K.K.K.K.K.K.K.K.K.K.K.K.K.K.K.K.K.K.K.K.K.K.K.K.K.K.K.K.K.K.K.K.K.K.K.K.",
"K.K.K.K.K.K.K.K.K.K.K.K.K.K.K.K.K.K.K.K.K.K.K.K.K.K.K.K.K.K.K.K.K.K.K.K.K.K.K.K.K.K.K.K.K.K.K.K.K.K.K.K.K.K.K.K.K.K.K.K.K.K.K.K.",
"K.K.K.K.K.K.K.K.K.K.K.K.K.K.K.K.K.K.K.K.K.K.K.K.K.K.K.K.K.K.K.K.K.K.K.K.K.K.K.K.K.K.K.K.K.K.K.K.K.K.K.K.K.K.K.K.K.K.K.K.K.K.K.K.",
"K.K.K.K.K.K.K.K.K.K.K.K.K.K.K.K.K.K.K.K.K.K.K.K.K.K.K.K.K.K.K.K.K.K.K.K.K.K.K.K.K.K.K.K.K.K.K.K.K.K.K.K.K.K.K.K.K.K.K.K.K.K.K.K.",
"K.K.K.K.K.K.K.K.K.K._._.K.K.K.K.K.K.K.K.K.K.K.K.K.K.K.K.K.K.K.K.K.K.K.K.K.K.K.K.K.K.K.K.K.K.K.K.K.K.K.K.K.K.K.K.K.K.K.K.K.K.K.K.",
"K.K.K.K.K.K.K.K.K.K._._.K.K.K.K.K.K.K.K.K.K.K.K.K.K.K.K.K.K.K.K.K.K.K.K.K.K.K.K.K.K.K.K.K.K.K.K.K.K.K.K.K.K.K.K.K.K.K.K.K.K.K.K.",
"K.K.K.K._._.K.K.K.K._._.K.K.K.K._._.K.K.K.K.K.K.K.K.K.K.K.K.K.K.K.K.K.K.K.K.K.K.K.K.K.K.K.K.K.K.K.K.K.K.K.K.K.K.K.K.K.K.K.K.K.K.",
"K.K.K.K._._.K.K.K.K._._.K.K.K.K._._.K.K.K.K.K.K.K.K.K.K.K.K.K.K.K.K.K.K.K.K.K.K.K.K.K.K.K.K.K.K.K.K.K.K.K.K.K.K.K.K.K.K.K.K.K.K.",
"K.K.K.K.K.K._._.K.K.K.K.K.K._._.K.K.K.K.K.K.K.K.K.K.K.K.K.K.K.K.K.K.K.K.K.K.K.K.K.K.K.K.K.K.K.K.K.K.K.K.K.K.K.K.K.K.K.K.K.K.K.K.",
"K.K.K.K.K.K._._.K.K.K.K.K.K._._.K.K.K.K.K.K.K.K.K.K.K.K.K.K.K.K.K.K.K.K.K.K.K.K.K.K.K.K.K.K.K.K.K.K.K.K.K.K.K.K.K.K.K.K.K.K.K.K.",
"K.K.K.K.K.K.K.K.K.K.K.K.K.K.K.K.K.K.K.K.K.K.K.K.K.K.K.K.K.K.K.K.K.K.K.K.K.K.K.K.K.K.K.K.K.K.K.K.K.K.K.K.K.K.K.K.K.K.K.K.K.K.K.K.",
"K.K.K.K.K.K.K.K.K.K.K.K.K.K.K.K.K.K.K.K.K.K.K.K.K.K.K.K.K.K.K.K.K.K.K.K.K.K.K.K.K.K.K.K.K.K.K.K.K.K.K.K.K.K.K.K.K.K.K.K.K.K.K.K.",
"K.K.K.K.K.K.K.K.K.K.K.K.K.K.K.K.K.K.K.K.K.K.K.K.K.K.K.K.K.K.K.K.K.K.K.K.K.K.K.K.K.K.K.K.K.K.K.K.K.K.K.K.K.K.K.K.K.K.K.K.K.K.K.K.",
"K.K.K.K.K.K.K.K.K.K.K.K.K.K.K.K.K.K.K.K.K.K.K.K.K.K.K.K.K.K.K.K.K.K.K.K.K.K.K.K.K.K.K.K.K.K.K.K.K.K.K.K.K.K.K.K.K.K.K.K.K.K.K.K.",
"K.K.K.K.K.K.K.K.K.K.K.K.K.K.K.K.K.K.K.K.K.K.K.K.K.K.K.K.K.K.K.K.K.K.K.K.K.K.K.K.K.K.K.K.K.K.K.K.K.K.K.K.K.K.K.K.K.K.K.K.K.K.K.K.",
"K.K.K.K.K.K.K.K.K.K.K.K.K.K.K.K.K.K.K.K.K.K.K.K.K.K.K.K.K.K.K.K.K.K.K.K.K.K.K.K.K.K.K.K.K.K.K.K.K.K.K.K.K.K.K.K.K.K.K.K.K.K.K.K.",
"K.K.K.K.K.K.K.K.K.K.K.K.K.K.K.K.K.K.K.K.K.K.K.K.K.K.K.K.K.K.K.K.K.K.K.K.G.G.K.K.K.K.K.K.K.K.K.K.K.K.K.K.K.K.K.K.K.K.K.K.K.K.K.K.",
"K.K.K.K.K.K.K.K.K.K.K.K.K.K.K.K.K.K.K.K.K.K.K.b.b.K.K.K.K.K.K.K.K.K.K.K.v.d V.K.K.K.K.K.K.K.K.K.K.K.K.K.K.K.K.K.K.K.K.K.K.K.K.K.",
"K.K.K.K.K.K.K.K.K.K.K.K.K.K.K.K.K.K.K.K.K.K.K.b.b.K.K.K.K.K.K.K.K.K.G.G.G.x V.K.K.K.K.K.K.K.K.K.K.K.K.K.K.K.K.K.K.K.K.K.K.K.K.K.",
"K.K.K.K.K.K.K.K.K.K.K.K.K.K.K.K.K.b.b.K.K.K.K.b.b.K.K.K.K.x.x.K.K.K.K.K.K.K.K.K.K.K.K.K.K.K.K.K.K.K.K.K.K.K.K.K.K.K.K.K.K.K.K.K.",
"K.K.K.K.K.K.K.K.K.K.K.K.K.K.K.K.K.b.b.K.K.K.K.b.b.K.K.K.K.x.x.K.K.K.K.K.K.K.K.K.K.K.K.K.K.K.K.K.K.K.K.K.K.K.K.K.K.K.K.K.K.K.K.K.",
"K.K.K.K.K.K.K.K.K.K.K.K.K.K.K.K.K.K.K.b.b.K.K.K.K.K.K.b.b.K.K.K.K.K.K.K.K.K.K.K.K.K.K.K.K.K.K.K.K.K.K.K.K.K.K.K.K.b.b.K.K.K.K.K.",
"K.K.K.K.K.K.K.K.K.K.K.K.K.K.K.K.K.K.K.b.b.K.K.K.K.K.K.b.b.K.K.K.K.K.K.K.K.K.K.K.K.K.K.K.K.K.K.K.K.K.K.K.K.K.K.K.K.b.b.K.K.K.K.K.",
"b.K.K.K.K.K.K.K.K.K.K.K.K.K.K.K.K.K.K.K.K.K.K.K.K.K.K.K.K.K.K.K.K.A.G.G.K.K.K.K.K.K.K.K.K.K.K.K.K.K.K.b.b.K.K.K.K.b.b.K.K.K.K.b.",
"b.K.K.K.K.K.K.K.K.K.K.K.K.K.K.K.K.K.K.K.K.K.K.K.K.K.K.K.K.K.K.K.K.A.G.K.K.K.K.K.K.K.K.K.K.K.K.K.K.K.K.b.b.K.K.K.K.b.b.K.K.K.K.b.",
"K.K.K.K.K.K.K.K.K.K.K.K.K.K.K.K.K.K.K.K.K.K.K.K.K.K.K.K.K.K.K.K.K.G.G.K.K.K.K.K.K.K.K.K.K.K.K.K.K.K.K.K.K.b.b.K.K.K.K.K.K.b.b.K.",
"K.K.K.K.K.K.K.K.K.K.K.K.K.K.K.K.K.K.K.K.K.K.K.K.K.K.K.K.K.K.K.G.G.G.K.K.K.K.K.K.K.K.K.K.K.K.K.K.K.K.K.K.K.b.b.K.K.K.K.K.K.b.b.K.",
"K.K.K.K.K.K.K.K.K.K.K.K.K.K.K.K.K.K.K.K.G.K.K.K.K.G.A.A.G.G.K.G.j o.K.K.K.K.K.K.K.K.K.K.K.K.K.K.K.K.K.K.K.K.K.K.K.K.K.K.K.K.K.K.",
"K.K.K.K.K.K.K.K.K.K.K.K.K.K.K.K.K.K.K.G.K.K.K.K.K.G.+.j l V.K.A.> | K.K.K.K.K.K.K.K.K.K.K.K.K.K.K.K.K.K.K.K.K.K.K.K.K.K.K.K.K.K.",
"K.K.K.K.K.K.K.K.K.K.K.K.K.K.K.K.K.K.K.K.K.K.K.K.K.K...    ..K.v.- j G.R._.K.K.K.K.K.K.K.K.K.K.K.K.K.K.K.K.K.K.K.K.K.K.K.K.K.K.K.",
"K.K.K.K.K.K.K.K.K.K.K.K.K.K.K.K.K.K.K.K.K.K.K.K.K.G. .    - O.o.+  .G._._.K.K.K.K.K.K.K.K.K.K.K.K.K.K.K.K.K.K.K.K.K.K.K.K.K.K.K.",
"K.K.K.K.K.K.K.K.K.K.K.K.K.K.K.K.K.K.K.K.K.K.K.K.K.K.A.p   h Z.+ p V.K._._.K.K.K.K._._.K.K.K.K.K.K.K.K.K.K.K.K.K.K.K.K.K.K.K.K.K.",
"K.K.K.K.K.K.K.K.K.K.K.K.K.K.K.K.K.K.K.K.K.K.K.K.K.K.K.x   h B.  x G.v.T.R.H.K.K.K._._.K.K.K.K.K.K.K.K.K.K.K.K.K.K.K.K.K.K.K.K.K.",
"K.K.K.K.K.K.K.K.K.K.K.K.K.K.K.K.K.K.K.K.K.K.K.K.K.K.K.x   O :   @.N.p : , X.K._._.K.K.K.K.K.K.K.K.K.K.K.K.K.K.K.K.K.K.K.K.K.K.K.",
"K.K.K.K.K.K.K.K.K.K.K.K.K.K.K.K.K.K.K.K.K.K.K.K.K.K.K.|     # o j p        .K._._.K.K.K.K.K.K.K.K.K.K.K.K.K.K.K.K.K.K.K.K.K.K.K.",
"K.K.K.K.K.K.K.K.K.K.K.K.K.K.K.K.K.K.K.K.K.K.K.K.K.K.K.S.,   # . @ < < X   v.K.K.K.K.K.K.K.K.K.K.K.K.K.K.K.K.K.K.K.K.K.K.K.K.K.K.",
"K.K.K.K.K.K.K.K.K.K.K.K.K.K.K.K.K.K.K.K.K.K.K.K.K.K.K.D.i o $ o 6 9 9 3 . v.K.K.K.K.K.K.K.K.K.K.K.K.K.K.K.K.K.K.K.K.K.K.K.K.K.K.",
"K.K.K.K.K.K.K.K.K.K.K.K.K.K.K.K.K.K.K.K.K.K.K.K.K.K.K.D.i # $ $ 5 8 9 5 a A.K.K.K.K.K.K.K.K.K.K.K.K.K.K.K.K.K.K.K.K.K.K.K.K.K.K.",
"K.K.K.K.K.K.K.K.K.K.K.K.K.K.K.K.K.K.K.K.K.K.K.K.K.K.K.K...$ $ & 5 9 9 u N.K.K.K.K.K.K.K.K.K.K.K.K.K.K.K.K.K.K.K.K.K.K.K.K.K.K.K.",
"K.K.K.K.K.K.G.K.K.K.K.K.K.K.K.K.K.K.K.K.K.K.K.K.K.K.K.K.n.% h d < 6 3 > G.K.K.K.K.K.K.K.K.K.K.K.K.K.K.K.K.K.K.K.K.K.K.K.K.K.K.K.",
"K.K.K.K.K.G.G.K.K.K.K.K.K.K.K.K.K.K.K.K.K.K.K.K.K.K.K.H.z $ c c % $ 2 r ` P.K.K.K.K.K.K.K.K.K.K.K.K.K.K.K.K.K.K.K.K.K.K.K.K.K.K.",
"K.K.K.K.K.K.K.K.K.K.K.K.K.K.K.K.K.K.K.K.K.K.K.K.K.K.K.D.s # k k & * N V V 6.H.K.K.K.K.K.K.K.K.K.K.K.K.K.K.K.K.K.K.K.K.K.K.K.K.K.",
"K.K.K.K.K.K.K.K.K.K.K.K.K.K.K.K.K.K.K.K.K.K.K.K.K.K.K.S.u e 6 * * < N V V L D.K.K.K.K.K.K.F.J.K.K.K.K.K.K.K.K.K.K.K.K.K.K.K.K.K.",
"K.K.K.K.K.K.K.K.K.K.K.K.K.K.K.K.K.K.K.K.K.K.K.K.K.K.K.7.C C C N 4 * 9 N L C.K.K.K.K.K.K.] P [ F.K.K.K.K.K.K.K.K.K.K.K.K.K.K.K.K.",
"K.K.K.K.K.K.K.K.K.K.K.K.K.K.K.K.K.K.K.K.K.K.K.K.K.K.P.I C C C C 8 * % y m.K.K.K.K.K.K.F.U S S L.K.K.K.K.K.K.K.K.K.K.K.K.K.K.K.K.",
"K.K.K.K.K.K.K.K.K.K.K.K.K.K.K.K.K.K.K.K.K.K.K.K.G.Y.] C C C C C M 4 & - v.K.K.K.K.K.K.K.[ S U P.K.K.K.K.K.K.K.K.K.K.K.K.K.K.K.K.",
"K.K.K.K.K.K.K.K.K.K.K.K.K.K.K.K.K.K.K.K.K.K.K.K.G.F._ A R ( ( ( G 2 3 B [ 8.8.I.K.K.K.K.F.L.P.K.K.K.K.K.K.K.K.K.K.K.K.K.K.K.K.K.",
"K.K.K.K.K.K.K.K.K.K.K.K.K.K.K.K.K.K.K.K.K.K.G.G.G.z / W $.-.-.-.%.' r E E W W { Y.K.K.K.K.K.K.K.K.K.K.K.K.K.K.K.K.K.K.K.K.K.K.K.",
"K.K.K.K.K.K.K.K.K.K.K.K.K.K.K.K.K.K.K.K.K.K.G.G.k @ D / $.%.&.&.%.^.U.^ E Q ! ^ 9.K.K.K.K.K.K.K.K.K.K.K.K.K.K.K.K.K.K.K.K.K.K.K.",
"K.K.K.K.K.K.K.K.K.K.K.K.K.K.K.K.K.K.K.K.K.G.+.l # 1 F W ~ / >.<.,.q./.0.W $.-.( 8.K.K.K.K.K.K.K.K.K.K.K.K.K.K.b.b.K.K.K.K.K.K.K.",
"K.K.K.K.K.K.K.K.K.K.K.K.K.K.K.K.K.K.K.K.K.G.i X 1 F W ~ W =.y.u.u.5.w.w.%.;.;.;.q.6.H.K.K.K.K.K.K.K.K.K.K.K.K.b.b.K.K.K.K.K.K.K.",
"K.K.K.K.K.K.K.K.K.K.K.K.K.K.K.K.K.K.K.K.G.| @ @ e ~ W ~ ~ ,.u.u.y.y.y.y.3.,.;.;.;.I m.K.K.K.K.K.K.c.b.K.K.K.K.b.b.K.K.K.K.b.b.K.",
"K.K.K.K.K.K.K.K.K.K.K.K.K.K.K.K.K.K.K.K.K.M.p > Z ~ W ~ ! ,.i.y.y.y.y.s.p.t.>.;.;.G b K.K.K.K.K.K.b.b.K.K.K.K.b.b.K.K.K.K.b.b.K.",
"K.K.K.K.K.R.R.K.K.K.K.K.K.K.K.K.K.K.K.K.K.K.N.+.@.~ ~ ~ Q <.u.y.4.p.d.d.d.d.t.>.;.G b K.K.K.K.K.K.K.K.b.b.K.K.K.K.K.K.b.b.K.K.K.",
"K.K.K.K.K.R.R.K.K.K.K.K.K.K.K.K.K.K.K.K.K.K.K.K.@.F ~ ( q.f.d.l.l.g.s.d.d.d.d.1./ M b K.K.K.K.K.K.K.K.b.b.K.K.K.K.K.K.b.b.K.K.K.",
"R.K.K.K.K.R.R.K.K.K.K.R.R.K.K.K.K.K.K.b.b.K.K.G.X.J >.f.z.W.!.~.~.!.W.!.h.s.d.T 7 r @.K.K.K.K.K.K.K.K.K.K.K.K.K.K.K.K.K.K.K.K.R.",
"R.K.K.K.K.R.R.K.K.K.K.R.R.K.K.K.K.K.K.b.b.K.G.O.g 1.a.z.E.!.~.~.~.~.(.(.!.h.d.9.B.Z.K.K.K.K.K.K.K.K.K.K.K.K.K.K.K.K.K.K.K.K.K.R.",
"K.R.R.K.K.K.K.K.K.R.R.K.K.K.K.K.K.K.K.K.K.x.} ; T 4.t.j.W.~.~.~.!.~.).).~.k.r.' n.v.G.K.K.K.K.K.K.K.K.K.K.K.K.K.K.K.K.K.K.K.K.K.",
"K.R.R.K.K.K.K.K.K.R.R.K.K.K.K.K.K.K.K.K.K.+.i ; 2.4.3.t.z.!.E.z.z.E.!.`.(.k.:.n * = o.K.K.K.K.K.K.K.K.K.K.K.K.K.K.K.K.K.K.K.K.K.",
"K.K.K.K.K.K.K.K.K.K.K.K.K.K.K.K.K.K.K.K.G.G.s ; 2.4.3.4.f.E.k.j.j.j.l.(.`.j.) m 1 * = M.K.K.K.K.K.K.K.K.K.K.K.K.K.K.K.K.K.K.K.K.",
"K.K.K.K.K.K.K.K.K.K.K.K.K.K.K.K.K.K.K.K.G.G.s & Y 3.4.3.a.z.j.k.j.j.j.W.Q.*.C 7 0 0 4 v H.K.K.K.K.K.K.K.K.K.K.K.K.K.K.K.K.K.K.K.",
"K.K.K.K.K.K.K.K.K.K.K.K.K.K.K.K.K.K.G.G.G.G.z & & #.5.4.y.h.j.j.j.j.l.q.H N M q 0 0 4 n.K.K.K.K.K.K.K.K.K.K.K.K.K.K.K.K.K.K.K.K.",
"K.K.K.K.K.K.K.K.K.K.K.K.K.K.K.K.K.K.K.G.G.G.v.% % t f K *.g.j.j.j.k.e.H e w q 0 4 @.n.S.K.K.K.K.K.K.K.K.K.K.K.K.K.K.K.K.K.K.K.K."
};
