/* XPM */
static char *wall_13[] = {
/* columns rows colors chars-per-pixel */
"64 64 181 2 ",
"   c #150506",
".  c #190707",
"X  c #1C1D18",
"o  c #230B09",
"O  c #2A0E0A",
"+  c #2D100D",
"@  c #35130C",
"#  c #3C150D",
"$  c #3D1610",
"%  c #20231D",
"&  c #30251C",
"*  c #303228",
"=  c #40160F",
"-  c #43180E",
";  c #4C1A0C",
":  c #56190B",
">  c #431911",
",  c #641B0B",
"<  c #6C1C09",
"1  c #7D1E08",
"2  c #4F2612",
"3  c #552818",
"4  c #6C270D",
"5  c #7A2708",
"6  c #6B2614",
"7  c #612C14",
"8  c #442D21",
"9  c #5E3628",
"0  c #2D4939",
"q  c #334233",
"w  c #7E4818",
"e  c #434636",
"r  c #614438",
"t  c #61523D",
"y  c #3C5643",
"u  c #37614C",
"i  c #505245",
"p  c #6A5641",
"a  c #53654D",
"s  c #42745A",
"d  c #55735B",
"f  c #7A7258",
"g  c #467C62",
"h  c #527762",
"j  c #831D06",
"k  c #881E05",
"l  c #8B2A0A",
"z  c #9D3A0D",
"x  c #833E12",
"c  c #A62401",
"v  c #AD2501",
"b  c #B52600",
"n  c #B72C01",
"m  c #B53103",
"M  c #BF3302",
"N  c #AE3217",
"B  c #AD3920",
"V  c #C03402",
"C  c #C33B05",
"Z  c #9C420A",
"A  c #894C17",
"S  c #B8570F",
"D  c #A75915",
"F  c #864F39",
"G  c #85553F",
"H  c #985232",
"J  c #AC5528",
"K  c #A94931",
"L  c #AC573B",
"P  c #CC4B07",
"I  c #CA4B08",
"U  c #CB550A",
"Y  c #D35A0B",
"T  c #D55A0B",
"R  c #CE5614",
"E  c #D97C1F",
"W  c #E67C12",
"Q  c #CA6128",
"!  c #D16020",
"~  c #C96938",
"^  c #A85940",
"/  c #8A7257",
"(  c #977B5F",
")  c #A17358",
"_  c #4B856A",
"`  c #4F8C6F",
"'  c #538469",
"]  c #598569",
"[  c #5A9778",
"{  c #5A9C7C",
"}  c #7A8568",
"|  c #619F7F",
" . c #E78A1B",
".. c #E88F1E",
"X. c #E9911F",
"o. c #C58527",
"O. c #DD8334",
"+. c #E38A28",
"@. c #EB9521",
"#. c #E99D28",
"$. c #E69535",
"%. c #EEA42B",
"&. c #EAA52D",
"*. c #F0A72C",
"=. c #EFA73E",
"-. c #ECB139",
";. c #F3B533",
":. c #F3B63A",
">. c #F5BD3A",
",. c #F7C23A",
"<. c #BC865C",
"1. c #8F9272",
"2. c #939676",
"3. c #B08B66",
"4. c #AD906A",
"5. c #A99C75",
"6. c #87A17F",
"7. c #ABAA78",
"8. c #B7A674",
"9. c #E09941",
"0. c #F0AF45",
"q. c #C4AA6C",
"w. c #D0AD7D",
"e. c #E9B56D",
"r. c #F8CA43",
"t. c #FDD746",
"y. c #FEDD4B",
"u. c #F7C856",
"i. c #FBDD55",
"p. c #FFE14D",
"a. c #FFE052",
"s. c #F8CE65",
"d. c #FBD768",
"f. c #FEE265",
"g. c #FFE572",
"h. c #FEE67D",
"j. c #6E9680",
"k. c #719E87",
"l. c #5DA584",
"z. c #5EA886",
"x. c #40B088",
"c. c #62A483",
"v. c #66AC89",
"b. c #78AA87",
"n. c #65B28F",
"m. c #78AF91",
"M. c #67B692",
"N. c #6BBC96",
"B. c #6BBF99",
"V. c #74BB95",
"C. c #74BD97",
"Z. c #7BBD96",
"A. c #6EC59D",
"S. c #74C59D",
"D. c #7BC29A",
"F. c #76C99F",
"G. c #70C8A0",
"H. c #A18B88",
"J. c #84A885",
"K. c #96AB86",
"L. c #82B38F",
"P. c #8EB68F",
"I. c #AEA582",
"U. c #A5B887",
"Y. c #8BC296",
"T. c #88D8B8",
"R. c #9FDEBE",
"E. c #FEEA93",
"W. c #E3D4A6",
"Q. c #F7D7A1",
"!. c #FEEEA6",
"~. c #FBE4AC",
"^. c #FFEFA9",
"/. c #FFF0AC",
"(. c #F8ECB4",
"). c #FFF1B4",
"_. c #FFF3BE",
"`. c #A0E0C0",
"'. c #FFF4C2",
"]. c #FFF6CC",
"[. c #FFF7D1",
/* pixels */
"G.G.G.G.G.G.G.G.G.G.G.G.G.G.G.G.G.G.G.G.G.G.G.G.G.G.G.G.G.G.G.G.G.G.G.G.G.G.G.G.G.G.G.G.G.G.G.G.G.G.G.G.G.G.G.G.G.G.G.G.G.G.G.G.",
"G.G.G.G.G.G.G.G.G.G.G.G.G.G.G.G.G.G.G.G.G.G.G.G.G.G.G.G.G.G.G.G.G.G.G.G.G.G.G.G.G.G.G.G.G.G.G.G.G.G.G.G.G.G.G.G.G.G.G.G.G.G.G.G.",
"G.G.G.G.G.G.G.G.G.G.G.G.G.G.G.G.G.G.G.G.G.G.G.G.G.G.G.G.G.G.G.G.G.G.G.G.G.G.G.G.G.G.G.G.G.G.G.G.G.G.G.G.G.G.G.G.G.G.G.G.G.G.G.G.",
"G.G.G.G.G.G.G.G.G.G.G.G.G.G.G.G.G.G.G.G.G.G.G.G.G.G.G.G.G.G.G.G.G.G.G.G.G.G.G.G.G.G.G.G.G.G.G.G.G.G.G.G.G.G.G.G.G.G.G.G.G.G.G.G.",
"G.G.G.G.G.G.G.G.G.G.G.G.G.G.G.G.G.G.G.G.G.G.G.G.G.G.G.G.G.G.G.G.G.G.G.G.G.G.G.G.G.G.G.G.G.G.G.G.G.G.G.G.G.G.G.G.G.G.G.G.G.G.G.G.",
"G.G.G.G.G.G.G.G.G.G.`.`.G.G.G.G.G.G.G.G.G.G.G.G.G.G.G.G.G.G.G.G.G.G.G.G.G.G.G.G.G.G.G.G.G.G.G.G.G.G.G.G.G.G.G.G.G.G.G.G.G.G.G.G.",
"G.G.G.G.G.G.G.G.G.G.`.`.G.G.G.G.G.G.G.G.G.G.G.G.G.G.G.G.G.G.G.G.G.G.G.G.G.G.G.G.G.G.G.G.G.G.G.G.G.G.G.G.G.G.G.G.G.G.G.G.G.G.G.G.",
"G.G.G.G.`.`.G.G.G.G.`.`.G.G.G.G.`.`.G.G.G.G.G.G.G.G.G.G.G.G.G.G.G.G.G.G.G.G.G.G.G.G.G.G.G.G.G.G.G.G.G.G.G.G.G.G.G.G.G.G.G.G.G.G.",
"G.G.G.G.`.`.G.G.G.G.`.`.G.G.G.G.`.`.G.G.G.G.G.G.G.G.G.G.G.G.G.G.G.G.G.G.G.G.A.G.G.G.G.G.G.G.G.G.G.G.G.G.G.G.G.G.G.G.G.G.G.G.G.G.",
"G.G.G.G.G.G.`.`.G.G.G.G.G.G.`.`.G.G.G.G.G.G.G.G.G.G.G.G.G.G.G.G.G.G.G.G.G.A.G.G.G.G.G.G.G.G.G.G.G.G.G.G.G.G.G.G.G.G.G.G.G.G.G.G.",
"G.G.G.G.G.G.`.`.G.G.G.G.G.G.`.`.G.G.G.G.G.G.G.G.G.G.G.G.G.G.G.G.G.G.G.G.G.G.G.G.G.G.G.G.G.G.G.G.G.G.G.G.G.G.G.G.G.G.G.G.G.G.G.G.",
"G.G.G.G.G.G.G.G.G.G.G.G.G.G.G.G.G.G.G.G.G.G.G.G.G.G.G.G.G.G.G.G.G.G.G.G.G.G.G.G.G.G.G.G.G.G.G.G.G.G.G.G.G.G.G.G.G.G.G.G.G.G.G.G.",
"G.G.G.G.G.G.G.G.G.G.G.G.G.G.G.G.G.G.G.G.G.G.G.G.G.G.G.G.G.G.G.G.G.G.G.G.G.G.G.G.G.G.G.G.G.G.G.G.G.G.G.G.G.G.G.G.G.G.G.G.G.G.G.G.",
"G.G.G.G.G.G.G.G.G.G.G.G.G.G.G.G.G.G.G.G.G.G.G.G.G.G.G.G.G.G.G.G.G.G.G.G.G.G.G.G.G.G.G.G.G.G.G.G.G.G.G.G.G.G.G.G.G.G.G.G.G.G.G.G.",
"G.G.G.G.G.G.G.G.G.G.G.G.G.G.G.G.G.G.G.G.G.G.G.G.G.G.G.G.G.G.G.G.G.G.G.G.G.G.G.G.G.G.G.G.G.G.G.G.G.G.G.G.G.G.G.G.G.G.G.G.G.G.G.G.",
"G.G.G.G.G.G.G.G.G.G.G.G.G.G.G.G.G.G.G.G.G.G.G.G.G.G.G.G.G.G.G.G.G.G.G.G.G.G.G.G.G.G.G.G.G.G.G.G.G.G.G.G.G.G.G.G.G.G.G.G.G.G.G.G.",
"G.G.G.G.G.G.G.G.G.G.G.G.G.G.G.G.G.G.G.G.G.G.G.G.G.G.G.G.G.G.G.G.G.G.G.G.G.G.G.G.G.G.G.G.G.G.G.G.G.G.G.G.G.G.G.G.G.G.G.G.G.G.G.G.",
"G.G.G.G.G.G.G.G.G.G.G.G.G.G.G.G.G.G.G.G.G.G.G.G.G.G.G.G.G.G.G.G.G.G.G.G.G.G.G.G.G.G.G.G.G.G.G.G.G.G.G.G.G.G.G.G.G.G.G.G.G.G.G.G.",
"G.G.G.G.G.G.G.G.G.G.G.G.G.G.G.G.G.G.G.G.G.G.G.x.x.G.G.G.G.G.G.G.G.G.G.G.G.G.G.G.G.G.G.G.G.G.G.G.G.G.G.G.G.G.G.G.G.G.G.G.G.G.G.G.",
"G.G.G.G.G.G.G.G.G.G.G.G.G.G.G.G.G.G.G.G.G.G.G.x.x.G.G.G.G.G.G.G.G.G.G.G.G.G.G.G.G.G.G.G.G.G.G.G.G.G.G.G.G.G.G.G.G.G.G.G.G.G.G.G.",
"G.G.G.G.G.G.G.G.G.G.G.G.G.G.G.G.G.x.x.G.G.G.G.x.x.G.G.G.G.x.x.G.G.G.G.G.G.G.G.G.G.G.G.G.G.G.G.G.G.G.G.G.G.G.G.G.G.G.G.G.G.G.G.G.",
"G.G.G.G.G.G.G.G.G.G.G.G.G.G.G.G.G.x.x.G.G.G.G.x.x.G.G.G.G.x.x.G.G.G.G.G.G.G.G.G.G.G.G.G.G.G.G.G.G.G.G.G.G.G.G.G.G.G.G.G.G.G.G.G.",
"G.G.G.G.G.G.G.G.G.G.G.G.G.G.G.G.G.G.G.x.x.G.G.G.G.G.G.x.x.G.G.G.G.G.G.G.G.G.G.G.G.G.G.G.G.G.G.G.G.G.G.G.G.G.G.G.G.x.x.G.G.G.G.G.",
"G.G.G.G.G.G.G.G.G.G.G.G.G.G.G.G.G.G.G.x.x.G.G.G.G.G.G.x.x.G.G.G.G.G.G.G.G.G.G.G.G.G.G.G.G.G.G.G.G.G.G.G.G.G.G.G.G.x.x.G.G.G.G.G.",
"x.G.G.G.G.G.G.G.G.G.G.G.G.G.G.G.G.G.G.G.G.G.G.G.G.G.G.G.G.G.G.G.G.G.G.G.G.G.G.G.G.G.G.G.G.G.G.G.G.G.G.x.x.G.G.G.G.x.x.G.G.G.G.x.",
"x.G.G.G.G.G.G.G.G.G.G.G.G.G.G.G.G.G.G.G.G.G.G.G.G.G.G.G.G.G.G.G.G.G.G.G.G.G.G.G.G.G.G.G.G.G.G.G.G.G.G.x.x.G.G.G.G.x.x.G.G.G.G.x.",
"G.G.G.G.G.G.G.G.G.G.G.G.G.G.G.G.G.G.G.G.G.G.G.G.G.G.G.G.G.G.G.G.G.G.G.G.G.G.G.G.G.G.G.G.G.G.G.G.G.G.G.G.G.x.x.G.G.G.G.G.G.x.x.G.",
"G.G.G.G.G.G.G.G.G.G.G.G.G.G.G.G.G.G.G.G.G.G.G.G.G.G.G.G.G.B.l.A.G.G.G.G.G.G.G.G.G.G.G.G.G.G.G.G.G.G.G.G.G.x.x.G.G.G.G.G.G.x.x.G.",
"G.G.G.G.G.G.G.G.G.G.G.G.G.G.G.G.G.G.G.G.A.G.G.G.G.G.G.G.G.A.0 z.G.G.G.G.M.G.G.G.G.G.G.G.G.G.G.G.G.G.G.G.G.G.G.G.G.G.G.G.G.G.G.G.",
"G.G.G.G.G.G.G.G.G.G.G.G.G.G.G.G.G.G.G.A.G.G.G.G.G.G.G.G.A.A._ z.G.G.` u g A.G.G.G.G.G.G.G.G.G.G.G.G.G.G.G.G.G.G.G.G.G.G.G.G.G.G.",
"G.G.G.G.G.G.G.G.G.G.G.G.G.G.G.G.G.G.G.G.G.G.G.G.G.G.G.G.G.A.l.A.G.A.*   % z.G.G.G.G.G.G.G.G.G.G.G.G.G.G.G.G.G.G.G.G.G.G.G.G.G.G.",
"G.G.G.G.G.G.G.G.G.G.G.G.G.G.G.G.G.G.G.G.G.G.G.G.G.G.G.G.G.G.A.G.A.{ X   h B.G.G.G.G.G.G.G.G.G.G.G.G.G.G.G.G.G.G.G.G.G.G.G.G.G.G.",
"G.G.G.G.G.G.G.G.G.G.G.G.G.G.G.G.G.G.G.G.G.G.G.A.G.G.G.G.G.`.`.A.G.g   X m.G.G.G.G.`.`.G.G.G.G.G.G.A.A.G.G.G.G.G.G.G.G.G.G.G.G.G.",
"G.G.G.G.G.G.G.G.G.G.G.G.G.G.G.G.G.G.G.G.G.G.G.C.} } B.G.G.`.`.A.z.0   k.R.G.G.G.G.`.`.G.G.G.A.A.] n.G.G.G.G.G.G.G.G.G.G.G.G.G.G.",
"G.G.G.G.G.G.G.G.G.G.G.G.G.G.G.G.G.G.G.G.G.G.Z./ < $ f C.G.G.G.j.* o y n.G.G.G.`.`.G.G.G.G.G.G.A.] M.G.G.G.G.G.G.G.G.G.G.G.G.G.G.",
"G.G.G.G.G.G.G.G.G.G.G.G.G.G.G.G.G.G.G.G.G.G.| l 1 < j b.A.A.M.i o + _ G.G.G.G.`.`.G.G.G.G.G.G.G.A.G.G.G.G.G.G.G.G.G.G.G.G.G.G.G.",
"G.G.G.G.G.G.G.G.G.G.G.G.G.G.G.G.G.G.G.G.G.G.m.F k k F m.M.M.z.O O * 6.K.A.G.G.G.G.G.G.G.G.G.G.G.A.A.G.G.G.G.G.G.G.G.G.G.G.G.G.G.",
"G.G.G.G.G.G.G.G.G.G.G.G.G.G.G.G.G.G.G.G.G.G.G.m.G G m.A._ M.l.. ; Z U ! <.P.G.G.G.G.G.G.G.G.G.G.G.G.G.G.G.G.G.G.G.G.G.G.G.G.G.G.",
"G.G.G.G.G.G.G.G.G.G.G.G.G.G.G.G.G.G.G.G.G.G.G.S.C.B.M.B.y z.y O 5 T Y Y T 5.G.G.G.G.G.G.G.G.G.G.G.G.G.G.G.G.G.G.G.G.G.G.G.G.G.G.",
"G.G.G.G.G.G.G.G.G.G.G.G.G.G.G.G.G.G.G.G.G.G.G.G.G.A.M.N.` A.q # U Y T T T ~ D.G.G.G.G.G.G.G.G.G.G.G.G.G.G.G.G.G.G.G.G.G.G.G.G.G.",
"G.G.G.G.G.G.G.G.G.G.G.G.G.G.G.G.G.G.G.G.G.G.G.G.G.G.G.B.l.B.0 O Z T T Y Y J v.G.G.G.G.G.G.G.G.G.G.G.G.G.G.G.G.G.G.G.G.G.G.G.G.G.",
"G.G.G.G.G.A.A.G.G.G.G.G.G.G.G.G.G.G.G.G.G.G.G.G.G.G.G.G.A.N.* . 2 T Y Y Q 4 ' A.G.G.G.G.G.G.G.G.G.G.G.G.G.G.G.G.G.G.G.G.G.G.G.G.",
"G.G.G.G.G.G.G.G.G.G.G.G.G.G.G.G.G.G.G.G.G.G.G.G.G.G.G.G.G._ + @ 5 C U <.b.] B.S.G.G.G.G.G.G.G.G.G.G.G.G.G.G.G.G.G.G.G.G.G.G.G.G.",
"G.G.G.G.G.G.G.G.G.G.G.G.G.G.G.G.G.G.G.G.G.G.G.G.G.G.G.G.n.e $ 5 M C C 6.G.G.G.Z.L.( 2.S.G.G.G.G.G.G.G.G.G.G.G.G.G.G.G.G.G.G.G.G.",
"G.G.G.G.G.G.G.G.G.G.G.G.G.G.G.G.G.G.G.G.G.G.G.G.G.G.G.B.p c v n V V V K.A.A.S.1.B b N 2.S.G.G.G.G.G.G.G.G.G.G.G.G.G.G.G.G.G.G.G.",
"G.G.G.G.G.G.G.G.G.G.G.G.G.G.G.G.G.G.G.G.G.G.G.G.G.A.G.{ 6 b b b V m M 6.G.G.m.L v b b K Z.G.G.G.G.G.G.G.G.G.G.G.G.G.G.G.G.G.G.G.",
"G.G.G.G.G.G.G.G.G.G.G.G.G.G.G.G.G.G.G.G.G.G.G.S.K.K.P.h , b b b c : @ 0 A.S.J.b v v v K D.A.G.G.G.G.G.G.G.G.G.G.G.G.G.G.G.G.G.G.",
"G.G.G.G.G.G.G.G.G.G.G.G.G.G.G.G.G.G.G.G.G.A.A.7.R U ~ t , v b b l x D D 7.S.Z.) v b v ^ S.A.G.G.G.G.G.G.G.G.G.G.G.G.G.G.G.G.G.G.",
"G.G.G.G.G.G.G.G.G.G.G.G.G.G.G.G.G.G.G.G.G.G.A.<.U P P 4 = ; j , x W W W W 8.A.D.K c v 6.G.G.G.G.G.G.G.G.G.G.G.G.G.G.G.G.G.G.G.G.",
"G.G.G.G.G.G.G.G.G.G.G.G.G.G.G.G.G.G.G.G.G.G.A.3.P P P 4 $ = $ 3 E %.X.e.+.O.D.F.b.J.J.D.G.G.G.G.G.G.G.G.G.G.G.G.G.G.G.G.G.G.G.G.",
"G.G.G.G.G.G.G.G.G.G.G.G.G.G.G.G.G.G.G.G.G.G.G.V.H Z 5 $ $ > A &.&.&.*.Q.$.S ] F.S.A.G.G.G.G.G.G.G.G.G.G.G.G.G.x.x.G.G.G.G.G.G.G.",
"G.G.G.G.G.G.G.G.G.G.G.G.G.G.G.G.G.G.G.G.G.G.G.A.e $ @ # 2 3 o.*.%.%.#.Q.=.A ` G.G.G.G.G.G.G.G.G.G.G.G.G.G.G.G.x.x.G.G.G.G.G.G.G.",
"G.G.G.G.G.G.G.G.G.G.G.G.G.G.G.G.G.G.G.G.G.G.G.| 8 # ; c m z #.%.;.;.%.Q.0.0.7.7.U.U.S.G.G.G.G.G.G.x.x.G.G.G.G.x.x.G.G.G.G.x.x.G.",
"G.G.G.G.G.G.G.G.G.G.G.G.G.G.G.G.G.G.G.G.G.G.G.A.] a < V M M %.r.y.y.r.0.;.>.&...X.$.Y.G.G.G.G.G.G.x.x.G.G.G.G.x.x.G.G.G.G.x.x.G.",
"G.G.G.G.G.T.T.G.G.G.G.G.G.G.G.G.G.G.G.G.G.G.G.G.A.a j n I U >.y.p.y.p.,.;.>.@.....@.q.G.G.G.G.G.G.G.G.x.x.G.G.G.G.G.G.x.x.G.G.G.",
"G.G.G.G.G.T.T.G.G.G.G.G.G.G.G.G.G.G.G.G.G.G.G.A.d 7 4 S #.#.t.y.y.y.p.,.;.;.@.....$.U.G.G.G.G.G.G.G.G.x.x.G.G.G.G.G.G.x.x.G.G.G.",
"T.G.G.G.G.T.T.G.G.G.G.T.T.G.G.G.G.G.G.x.x.G.G.| r 9 w &.;.r.i.a.y.f.g.d.s.s.0. .9.8.F.G.G.G.G.G.G.G.G.G.G.G.G.G.G.G.G.G.G.G.G.T.",
"T.G.G.G.G.T.T.G.G.G.G.T.T.G.G.G.G.G.G.x.x.A.| d 9 H.w.-.:.g././.!.^.)._._.'.~.e.f S.G.G.G.G.G.G.G.G.G.G.G.G.G.G.G.G.G.G.G.G.G.T.",
"G.T.T.G.G.G.G.G.G.T.T.G.G.G.G.G.G.G.G.G.A._ & - $ 9 e.s.u.^.[.[.[.].'._.'._.'.(.i ` M.A.G.G.G.G.G.G.G.G.G.G.G.G.G.G.G.G.G.G.G.G.",
"G.T.T.G.G.G.G.G.G.T.T.G.G.G.G.G.G.G.G.G.G.s ; - 3 x +.f.f./.[.[.[.].'.].'.'.'.].I.  0 M.G.G.G.G.G.G.G.G.G.G.G.G.G.G.G.G.G.G.G.G.",
"G.G.G.G.G.G.G.G.G.G.G.G.G.G.G.G.G.G.G.G.A.A.' # i L +.a.i.!.[.[.[.].'.].]._.'.(.( o . l.G.G.G.G.G.G.G.A.G.G.G.G.G.G.G.G.G.G.G.G.",
"G.G.G.G.G.G.G.G.G.G.G.G.G.G.G.G.G.G.G.G.A.A.A.| m.4.r.a.i.E.].].].[.[.[.'.'.'.W.3 - & z.G.G.G.G.G.G.G.G.G.G.G.G.G.G.G.G.G.G.G.G.",
"G.G.G.G.G.G.G.G.G.G.G.G.G.G.G.G.G.G.G.G.A.A.G.G.A.Y.i.a.y.g.^.^.).].[.[.'._.'./ - 8 [ A.G.G.G.G.G.G.G.G.G.G.G.G.G.G.G.G.G.G.G.G.",
"G.G.G.G.G.G.G.G.G.G.G.G.G.G.G.G.G.G.G.F.A.A.G.A.A.A.W.a.y.y.h.^.^./.).'._._.'.K.c.c.G.G.G.G.G.G.G.G.G.G.G.G.G.G.G.G.G.G.G.G.G.G."
};
