/* XPM */
static char *wall_0[] = {
/* columns rows colors chars-per-pixel */
"64 64 179 2 ",
"   c #150605",
".  c #190706",
"X  c #1E0A08",
"o  c #210807",
"O  c #230C09",
"+  c #290D0A",
"@  c #330D0A",
"#  c #32110C",
"$  c #39140E",
"%  c #281E16",
"&  c #3B1611",
"*  c #27231A",
"=  c #392919",
"-  c #3E3428",
";  c #263F31",
":  c #45120C",
">  c #48140D",
",  c #56160D",
"<  c #451B10",
"1  c #4A1D12",
"2  c #6A1707",
"3  c #761907",
"4  c #5C240B",
"5  c #4D2D1F",
"6  c #582615",
"7  c #79260A",
"8  c #7F340B",
"9  c #7C2C11",
"0  c #6D331A",
"q  c #633522",
"w  c #284233",
"e  c #2E4C3B",
"r  c #354032",
"t  c #384032",
"y  c #4B4636",
"u  c #564934",
"i  c #6B5039",
"p  c #765032",
"a  c #325241",
"s  c #3B5545",
"d  c #3E6E57",
"f  c #405846",
"g  c #425A4A",
"h  c #40614C",
"j  c #416650",
"k  c #46745C",
"l  c #50725A",
"z  c #7F6D54",
"x  c #6C7B5F",
"c  c #467C62",
"v  c #4F7960",
"b  c #577261",
"n  c #861D06",
"m  c #921E04",
"M  c #923108",
"N  c #933A0E",
"B  c #B22701",
"V  c #BB2A00",
"C  c #B33003",
"Z  c #974513",
"A  c #91561E",
"S  c #B94709",
"D  c #B6580F",
"F  c #8E412D",
"G  c #864632",
"H  c #864833",
"J  c #8A4B38",
"K  c #9B593A",
"L  c #947633",
"P  c #CB4606",
"I  c #CE4A07",
"U  c #CC4F0A",
"Y  c #CC520A",
"T  c #C9560B",
"R  c #D35807",
"E  c #D45A0B",
"W  c #D7620B",
"Q  c #DA660D",
"!  c #D56116",
"~  c #D76D17",
"^  c #DC7316",
"/  c #E27E18",
"(  c #CB7422",
")  c #CD6A34",
"_  c #DC7B3B",
"`  c #807258",
"'  c #9E7758",
"]  c #867E62",
"[  c #4A8469",
"{  c #56866A",
"}  c #5E8D70",
"|  c #589073",
" . c #589677",
".. c #5A9E7E",
"X. c #649D7D",
"o. c #7D9374",
"O. c #B08232",
"+. c #E58216",
"@. c #E5861A",
"#. c #E9901C",
"$. c #D3962C",
"%. c #EB9621",
"&. c #EC9A24",
"*. c #E5942A",
"=. c #EB9C29",
"-. c #E79A37",
";. c #D1A43B",
":. c #E7A12A",
">. c #EFA62A",
",. c #EFA82D",
"<. c #F1A92C",
"1. c #E8A334",
"2. c #F0AC35",
"3. c #F3B437",
"4. c #F6C33B",
"5. c #F8C73C",
"6. c #F9CA3F",
"7. c #A4855E",
"8. c #84876A",
"9. c #9A9160",
"0. c #BA9E61",
"q. c #A99A72",
"w. c #BCB276",
"e. c #F1B143",
"r. c #E8A154",
"t. c #EEB156",
"y. c #F1B453",
"u. c #C7AD6C",
"i. c #F0B66E",
"p. c #F8C741",
"a. c #FACE41",
"s. c #FCD545",
"d. c #FCD54D",
"f. c #FFDD4A",
"g. c #FFE153",
"h. c #FBD562",
"j. c #FDDE66",
"k. c #F5C673",
"l. c #FEE677",
"z. c #40AD86",
"x. c #5EA987",
"c. c #40B088",
"v. c #61A684",
"b. c #63AC8A",
"n. c #79A683",
"m. c #68B38F",
"M. c #75B38F",
"N. c #67B692",
"B. c #6CB691",
"V. c #69BC96",
"C. c #6BBF99",
"Z. c #72BD97",
"A. c #73BF99",
"S. c #7FBF98",
"D. c #6EC49D",
"F. c #72C49D",
"G. c #7EC199",
"H. c #70C8A0",
"J. c #94A48B",
"K. c #ECB489",
"L. c #8CC295",
"P. c #8BC3A7",
"I. c #88D8B8",
"U. c #9FDABB",
"Y. c #A0DEBE",
"T. c #FCE288",
"R. c #FFEA8B",
"E. c #FCE493",
"W. c #F8D7A0",
"Q. c #FEEBA9",
"!. c #FFEEA9",
"~. c #FFF0A9",
"^. c #FFF1B4",
"/. c #FFF3BD",
"(. c #A0E0C0",
"). c #FCEDC4",
"_. c #FFF4C3",
"`. c #FFF6CE",
"'. c #FFF6D0",
/* pixels */
"H.H.H.H.H.H.H.H.H.H.H.H.H.H.H.H.H.H.H.H.H.H.H.H.H.H.H.H.H.H.H.H.H.H.H.H.H.H.H.H.H.H.H.H.H.H.H.H.H.H.H.H.H.H.H.H.H.H.H.H.H.H.H.H.",
"H.H.H.H.H.H.H.H.H.H.H.H.H.H.H.H.H.H.H.H.H.H.H.H.H.H.H.H.H.H.H.H.H.H.H.H.H.H.H.H.H.H.H.H.H.H.H.H.H.H.H.H.H.H.H.H.H.H.H.H.H.H.H.H.",
"H.H.H.H.H.H.H.H.H.H.H.H.H.H.H.H.H.H.H.H.H.H.H.H.H.H.H.H.H.H.H.H.H.H.H.H.H.H.H.H.H.H.H.H.H.H.H.H.H.H.H.H.H.H.H.H.H.H.H.H.H.H.H.H.",
"H.H.H.H.H.H.H.H.H.H.H.H.H.H.H.H.H.H.H.H.H.H.H.H.H.H.H.H.H.H.H.H.H.H.H.H.H.H.H.H.H.H.H.H.H.H.H.H.H.H.H.H.H.H.H.H.H.H.H.H.H.H.H.H.",
"H.H.H.H.H.H.H.H.H.H.H.H.H.H.H.H.H.H.H.H.H.H.H.H.H.H.H.H.H.H.H.H.H.H.H.H.H.H.H.H.H.H.H.H.H.H.H.H.H.H.H.H.H.H.H.H.H.H.H.H.H.H.H.H.",
"H.H.H.H.H.H.H.H.H.H.(.(.H.H.H.H.H.H.H.H.H.H.H.H.H.H.H.H.H.H.H.H.H.H.H.H.H.H.H.H.H.H.H.H.H.H.H.H.H.H.H.H.H.H.H.H.H.H.H.H.H.H.H.H.",
"H.H.H.H.H.H.H.H.H.H.(.(.H.H.H.H.H.H.H.H.H.H.H.H.H.H.H.H.H.H.H.H.H.H.H.H.H.H.H.H.H.H.H.H.H.H.H.H.H.H.H.H.H.H.H.H.H.H.H.H.H.H.H.H.",
"H.H.H.H.(.(.H.H.H.H.(.(.H.H.H.H.(.(.H.H.H.H.H.H.H.H.H.H.H.H.H.H.H.H.H.H.H.H.H.H.H.H.H.H.H.H.H.H.H.H.H.H.H.H.H.H.H.H.H.H.H.H.H.H.",
"H.H.H.H.(.(.H.H.H.H.(.(.H.H.H.H.(.(.H.H.H.H.H.H.H.H.H.H.H.H.H.H.H.H.H.H.H.H.D.H.H.H.H.H.H.H.H.H.H.H.H.H.H.H.H.H.H.H.H.H.H.H.H.H.",
"H.H.H.H.H.H.(.(.H.H.H.H.H.H.(.(.H.H.H.H.H.H.H.H.H.H.H.H.H.H.H.H.H.H.H.H.H.H.H.H.H.H.H.H.H.H.H.H.H.H.H.H.H.H.H.H.H.H.H.H.H.H.H.H.",
"H.H.H.H.H.H.(.(.H.H.H.H.H.H.(.(.H.H.H.H.H.H.H.H.H.H.H.H.H.H.H.H.H.H.H.H.H.H.H.H.H.H.H.H.H.H.H.H.H.H.H.H.H.H.H.H.H.H.H.H.H.H.H.H.",
"H.H.H.H.H.H.H.H.H.H.H.H.H.H.H.H.H.H.H.H.H.H.H.H.H.H.H.H.H.H.H.H.H.H.H.H.H.H.H.H.H.H.H.H.H.H.H.H.H.H.H.H.H.H.H.H.H.H.H.H.H.H.H.H.",
"H.H.H.H.H.H.H.H.H.H.H.H.H.H.H.H.H.H.H.H.H.H.H.H.H.H.H.H.H.H.H.H.H.H.H.H.H.H.H.H.H.H.H.H.H.H.H.H.H.H.H.H.H.H.H.H.H.H.H.H.H.H.H.H.",
"H.H.H.H.H.H.H.H.H.H.H.H.H.H.H.H.H.H.H.H.H.H.H.H.H.H.H.H.H.H.H.H.H.H.H.H.H.H.H.H.H.H.H.H.H.H.H.H.H.H.H.H.H.H.H.H.H.H.H.H.H.H.H.H.",
"H.H.H.H.H.H.H.H.H.H.H.H.H.H.H.H.H.H.H.H.H.H.H.H.H.H.H.H.H.H.H.H.H.H.H.H.H.H.H.H.H.H.H.H.H.H.H.H.H.H.H.H.H.H.H.H.H.H.H.H.H.H.H.H.",
"H.H.H.H.H.H.H.H.H.H.H.H.H.H.H.H.H.H.H.H.H.H.H.H.H.H.H.H.H.H.H.H.H.H.H.H.H.H.H.H.H.H.H.H.H.H.H.H.H.H.H.H.H.H.H.H.H.H.H.H.H.H.H.H.",
"H.H.H.H.H.H.H.H.H.H.H.H.H.H.H.H.H.H.H.H.H.H.H.H.H.H.H.H.H.H.H.H.H.H.H.H.H.H.H.H.H.H.H.H.H.H.H.H.H.H.H.H.H.H.H.H.H.H.H.H.H.H.H.H.",
"H.H.H.H.H.H.H.H.H.H.H.H.H.H.H.H.H.H.H.H.H.H.H.H.H.H.H.H.H.H.H.H.H.H.H.H.H.H.H.H.H.H.H.H.H.H.H.H.H.H.H.H.H.H.H.H.H.H.H.H.H.H.H.H.",
"H.H.H.H.H.H.H.H.H.H.H.H.H.H.H.H.H.H.H.H.H.H.H.c.c.H.H.H.H.H.H.H.H.H.H.H.H.H.H.H.H.H.H.H.H.H.H.H.H.H.H.H.H.H.H.H.H.H.H.H.H.H.H.H.",
"H.H.H.H.H.H.H.H.H.H.H.H.H.H.H.H.H.H.H.H.H.H.H.c.c.H.H.H.H.H.H.H.H.H.H.H.H.H.H.H.H.H.H.H.H.H.H.H.H.H.H.H.H.H.H.H.H.H.H.H.H.H.H.H.",
"H.H.H.H.H.H.H.H.H.H.H.H.H.H.H.H.H.c.c.H.H.H.H.c.c.H.H.H.H.c.c.H.H.H.H.H.H.H.H.H.H.H.H.H.H.H.H.H.H.H.H.H.H.H.H.H.H.H.H.H.H.H.H.H.",
"H.H.H.H.H.H.H.H.H.H.H.H.H.H.H.H.H.c.c.H.H.H.H.c.c.H.H.H.H.c.c.H.H.H.H.H.H.H.H.H.H.H.H.H.H.H.H.H.H.H.H.H.H.H.H.H.H.H.H.H.H.H.H.H.",
"H.H.H.H.H.H.H.H.H.H.H.H.H.H.H.H.H.H.H.c.c.H.H.H.H.H.H.c.c.H.H.H.H.H.H.H.H.H.H.H.H.H.H.H.H.H.H.H.H.H.H.H.H.H.H.H.H.c.c.H.H.H.H.H.",
"H.H.H.H.H.H.H.H.H.H.H.H.H.H.H.H.H.H.H.c.c.H.H.H.H.H.H.c.c.H.H.H.H.H.H.H.H.H.H.H.H.H.H.H.H.H.H.H.H.H.H.H.H.H.H.H.H.c.c.H.H.H.H.H.",
"c.H.H.H.H.H.H.H.H.H.H.H.H.H.H.H.H.H.H.H.H.H.H.H.H.H.H.H.H.H.H.H.H.H.H.H.H.H.H.H.H.H.H.H.H.H.H.H.H.H.H.c.c.H.H.H.H.c.c.H.H.H.H.c.",
"c.H.H.H.H.H.H.H.H.H.H.H.H.H.H.H.H.H.m.v ..H.H.H.H.H.H.H.H.H.H.H.H.H.H.H.H.H.H.H.H.H.H.H.H.H.H.H.H.H.H.c.c.H.H.H.H.c.c.H.H.H.H.c.",
"H.H.H.H.H.H.H.H.H.H.H.H.H.H.H.H.H.H.v.&  .H.H.H.H.H.H.H.H.H.H.H.H.H.H.H.H.D.H.H.H.H.H.H.H.H.H.H.H.H.H.H.H.c.c.H.H.H.H.H.H.c.c.H.",
"H.H.H.H.H.H.H.H.H.H.H.H.H.H.H.H.H.H.V.v.D.H.H.H.H.H.H.H.H.H.H.H.H.H.H.H.F.A.F.F.H.H.H.H.H.H.H.H.H.H.H.H.H.c.c.H.H.H.H.H.H.c.c.H.",
"H.H.H.H.H.H.H.H.H.H.H.H.H.H.H.H.H.H.H.H.H.H.H.H.H.H.H.H.H.H.H.H.V.V.H.F.o.G G o.F.D.H.H.H.H.H.H.H.H.H.H.H.H.H.H.H.H.H.H.H.H.H.H.",
"H.H.H.H.H.H.H.H.H.H.H.H.H.H.H.H.H.H.H.H.D.H.H.H.H.H.H.H.H.H.H.V.d ..H.A.H n n H F.H.H.H.H.H.H.H.H.H.H.H.H.H.H.H.H.H.H.H.H.H.H.H.",
"H.H.H.H.H.H.H.H.H.H.H.H.H.H.H.H.H.H.H.H.H.H.H.H.H.H.H.H.H.F.H.[   a D.U.J n n H A.H.H.H.H.H.H.H.H.H.H.H.H.H.H.H.H.H.H.H.H.H.H.H.",
"H.H.H.H.H.H.H.H.H.H.H.H.H.H.H.H.H.H.H.H.H.H.H.H.H.H.H.H.D.D.H.c   [ H.(.J.G H o.H.H.H.H.H.H.H.H.H.H.H.H.H.H.H.H.H.H.H.H.H.H.H.H.",
"H.H.H.H.H.H.H.H.H.H.H.H.H.H.H.H.H.H.H.H.H.H.H.H.H.H.H.H.x.g P.c   c D.(.Y.A.A.F.H.(.(.H.H.H.H.H.H.H.H.H.H.H.H.H.H.H.H.H.H.H.H.H.",
"H.H.H.H.H.H.H.H.H.H.H.H.H.H.H.H.H.H.H.H.H.H.H.H.H.H.H.H.x.. s e + l D.(.(.H.H.H.H.(.(.H.H.H.H.H.H.H.H.H.H.H.H.H.H.H.H.H.H.H.H.H.",
"H.H.H.H.H.H.H.H.H.H.H.H.H.H.H.H.H.H.H.H.H.H.H.H.H.H.H.D.e     . : y D.H.H.H.H.(.(.H.H.H.H.H.H.H.H.H.H.H.H.H.H.H.H.H.H.H.H.H.H.H.",
"H.H.H.H.H.H.H.H.H.H.H.H.H.H.H.H.H.H.H.H.H.H.H.H.H.H.H.V.w       b v C.H.H.H.H.(.(.H.H.H.H.H.H.H.H.H.H.H.H.H.H.H.H.H.H.H.H.H.H.H.",
"H.H.H.H.H.H.H.H.H.H.H.H.H.H.H.H.H.H.H.H.H.H.H.H.H.H.H.V.w     + c D.H.H.H.H.H.H.H.H.H.H.H.H.H.H.H.H.H.H.H.H.H.H.H.H.H.H.H.H.H.H.",
"H.H.H.H.H.H.H.H.H.H.H.H.H.H.H.H.H.H.H.H.H.H.H.H.H.H.H.N.w   o # c H.H.H.H.H.H.H.H.H.H.H.H.H.H.H.H.H.H.H.H.H.H.H.H.H.H.H.H.H.H.H.",
"H.H.H.H.H.H.H.H.H.H.H.H.H.H.H.H.H.H.H.H.H.H.H.H.H.H.H.[     # # c N.H.H.H.H.H.H.H.H.H.H.H.H.H.H.H.H.H.H.H.H.H.H.H.H.H.H.H.H.H.H.",
"H.H.H.H.H.H.H.H.H.H.H.H.H.H.H.H.H.H.H.H.H.H.H.H.H.H.H.c     # # a s N.A.A.H.H.H.H.H.H.H.H.H.H.H.H.H.H.H.H.H.H.H.H.H.H.H.H.H.H.H.",
"H.H.H.H.H.H.H.H.H.H.H.H.H.H.H.H.H.H.H.H.H.H.H.H.H.H.H.[     # #   , J F 8.H.H.H.H.H.H.H.H.H.H.H.H.H.H.H.H.H.H.H.H.H.H.H.H.H.H.H.",
"H.H.H.H.H.H.D.H.H.H.H.H.H.H.H.H.H.H.H.H.H.H.H.H.H.H.D.k     # #   2 m m ] H.H.H.H.H.C.F.H.H.H.H.H.H.H.H.H.H.H.H.H.H.H.H.H.H.H.H.",
"H.H.H.H.H.H.H.H.H.H.H.H.H.H.H.H.H.H.H.H.H.H.H.H.H.H.x.*   O $ # + 2 m m ] H.H.H.H.C.f v.H.H.H.H.H.H.H.H.H.H.H.H.H.H.H.H.H.H.H.H.",
"H.H.H.H.H.H.H.H.H.H.H.H.H.H.H.H.H.H.H.H.H.H.H.H.H.D...    + & $ 4 S S S 7.F.H.H.H.F.b.N.D.H.H.H.H.H.H.H.H.H.H.H.H.H.H.H.H.H.H.H.",
"H.H.H.H.H.H.H.H.H.H.H.H.H.H.H.H.H.H.H.H.H.H.H.H.F.D.a     @ : < S E E E ! q.H.H.H.H.A.` ` Z.H.H.H.H.H.H.H.H.H.H.H.H.H.H.H.H.H.H.",
"H.H.H.H.H.H.H.H.H.H.H.H.H.H.H.H.H.H.H.H.H.H.H.H.F. .%   o : > : T E ! ! E ) S.H.D.D.z n n n.H.H.H.H.H.H.H.H.H.H.H.H.H.H.H.H.H.H.",
"H.H.H.H.H.H.H.H.H.H.H.H.H.H.H.H.H.H.H.H.H.H.H.H.v.* .   + , 2 7 T E _ _ R ) G.H.| { ` n J M.H.H.H.H.H.H.H.H.H.H.H.H.H.H.H.H.H.H.",
"H.H.H.H.H.H.H.H.H.H.H.H.H.H.H.H.H.H.H.H.H.H.H.D.l : @ X + 3 B Y W E ! E E q.H.D.| g M.n.M.H.H.H.H.H.H.H.H.H.H.H.H.H.H.H.H.H.H.H.",
"H.H.H.H.H.H.H.H.H.H.H.H.H.H.H.H.H.H.H.H.H.H.H.b.- , : O + N ~ ,.t.-.K.R 8 x.D.D.D.D.D.H.H.H.H.H.H.H.H.H.H.H.H.H.H.H.H.H.H.H.H.H.",
"H.H.H.H.H.H.H.H.H.H.H.H.H.H.H.H.H.H.H.H.H.H.N.h t 5 M M Z *.<.2.y.e.K.T M ' L.D.D.H.H.H.H.H.H.H.H.H.H.H.H.H.H.H.H.H.H.H.H.H.H.H.",
"H.H.H.H.H.H.H.H.H.H.H.H.H.H.H.H.H.H.H.H.H.H.D.V.C.7.P I / >.<.>.3.k.-.E I P ' D.H.H.H.H.H.H.H.H.H.H.H.H.H.H.H.c.c.H.H.H.H.H.H.H.",
"H.H.H.H.H.H.H.H.H.H.H.H.H.H.H.H.H.H.H.H.H.H.H.H.b.K P Y >.<.&.@.i.W.,./ Q R M ..H.H.H.H.H.H.H.H.H.H.H.H.H.H.H.c.c.H.H.H.H.H.H.H.",
"H.H.H.H.H.H.H.H.H.H.H.H.H.H.H.H.H.H.H.H.H.H.H.A.s M P U =.=.+.+.t.y.#.&.^ Q D p m.D.H.H.H.H.H.H.H.c.c.H.H.H.H.c.c.H.H.H.H.c.c.H.",
"H.H.H.H.H.H.H.H.H.H.H.H.H.H.H.H.H.H.H.H.H.H.H. .% M P ^ &.+.+.>.>.3.4.4.<.&.+./ 9.G.H.H.H.H.H.H.H.c.c.H.H.H.H.c.c.H.H.H.H.c.c.H.",
"H.H.H.H.H.I.I.H.H.H.H.H.H.H.H.H.H.H.H.H.H.F.b.j $ 6 C @.&./ >.a.d.f.f.f.f.2.%.%.=.w.H.H.H.H.H.H.H.H.H.c.c.H.H.H.H.H.H.c.c.H.H.H.",
"H.H.H.H.H.I.I.H.H.H.H.H.H.H.H.H.H.H.H.H.F.V.; < < 7 V / =.>.a.s.f.f.f.f.f.p.&.%.&.1.L.H.H.H.H.H.H.H.H.c.c.H.H.H.H.H.H.c.c.H.H.H.",
"I.H.H.H.H.I.I.H.H.H.H.I.I.H.H.H.H.H.H.z.c.{ 1 1 6 m V @.p.a.a.f.f.f.f.f.f.s.>.<.:.#.u.H.H.H.H.H.H.H.H.H.H.H.H.H.H.H.H.H.H.H.H.I.",
"I.H.H.H.H.I.I.H.H.H.H.I.I.H.H.H.H.H.H.z.c.B.} y y 5 B *.g.d.d.d.j.R.R.R.l.f.p.s.5.,.0.D.H.H.H.H.H.H.H.H.H.H.H.H.H.H.H.H.H.H.H.I.",
"H.I.I.H.H.H.H.H.H.I.I.H.H.H.H.H.H.H.H.H.H.c.z.C.V.c 9 1.l.l.!.!././.^.^.^.h.5.6.6.:.= ..H.H.H.H.H.H.H.H.H.H.H.H.H.H.H.H.H.H.H.H.",
"H.I.I.H.H.H.H.H.H.I.I.H.H.H.H.H.H.H.H.H.H.c.c.H.H.[ 0 ;.R./.^.^./._._././.E.p.4.6.L k D.H.H.H.H.H.H.H.H.H.H.H.H.H.H.H.H.H.H.H.H.",
"H.H.H.H.H.H.H.H.H.H.H.H.H.H.H.H.H.H.H.H.H.H.H.H.H.N.r O.^././.`.`././././.^.h.4.6.L.F.D.H.H.H.H.H.H.H.H.D.H.H.H.H.H.H.H.H.H.H.H.",
"H.H.H.H.H.H.H.H.H.H.H.H.H.H.H.H.H.H.H.H.H.H.H.H.H.C.u ( Q._.`.`.`.`._././.^.T.5.3.9.F.F.H.H.H.H.H.H.H.H.H.H.H.H.H.H.H.H.H.H.H.H.",
"H.H.H.H.H.H.H.H.H.H.H.H.H.H.H.H.H.H.H.H.H.H.H.H.C.X.p Q t._.'.`.`.`.`._./.~.!.h.$.i D.H.H.H.H.H.H.H.H.H.H.H.H.H.H.H.H.H.H.H.H.H.",
"H.H.H.H.H.H.H.H.H.H.H.H.H.H.H.H.H.H.H.H.H.H.H.F.x 0 Z E ^ r.).`.`.`.`.`.`.^.~.t.A q X.H.H.H.H.H.H.H.H.H.H.H.H.H.H.H.H.H.H.H.H.H."
};
