/* XPM */
static char *wall_14[] = {
/* columns rows colors chars-per-pixel */
"64 64 180 2 ",
"   c #150606",
".  c #1C0908",
"X  c #240B0A",
"o  c #2C0F0C",
"O  c #35120D",
"+  c #3B140E",
"@  c #3C1810",
"#  c #3B2B1F",
"$  c #2D2821",
"%  c #302A20",
"&  c #43160D",
"*  c #451808",
"=  c #591909",
"-  c #411810",
";  c #4B1D12",
":  c #521E10",
">  c #6C1A07",
",  c #761B06",
"<  c #7A1B05",
"1  c #771A08",
"2  c #4D2818",
"3  c #562413",
"4  c #6A230B",
"5  c #6C2B12",
"6  c #763917",
"7  c #294536",
"8  c #334435",
"9  c #454838",
"0  c #614D2C",
"q  c #6D4833",
"w  c #764634",
"e  c #3A4F43",
"r  c #3B5443",
"t  c #3C634E",
"y  c #3F6C56",
"u  c #3E765A",
"i  c #465643",
"p  c #7A5F5B",
"a  c #476952",
"s  c #477C62",
"d  c #527B61",
"f  c #6D7F61",
"g  c #861D05",
"h  c #8C1E05",
"j  c #921F05",
"k  c #9D2202",
"l  c #942906",
"z  c #953809",
"x  c #892A16",
"c  c #843513",
"v  c #A52301",
"b  c #AB2402",
"n  c #B42600",
"m  c #BA2F03",
"M  c #AE3104",
"N  c #B53104",
"B  c #B23114",
"V  c #C23602",
"C  c #83441A",
"Z  c #904F17",
"A  c #995217",
"S  c #B84308",
"D  c #AD500E",
"F  c #AD661A",
"G  c #B66C1C",
"H  c #8D532B",
"J  c #8F4833",
"K  c #904531",
"L  c #B95B38",
"P  c #9C6A2F",
"I  c #CC4B07",
"U  c #CB4B08",
"Y  c #C95E0D",
"T  c #C9511B",
"R  c #DB660D",
"E  c #D56813",
"W  c #C3751C",
"Q  c #D07A1C",
"!  c #E17411",
"~  c #E17B16",
"^  c #CA5B2B",
"/  c #DD7420",
"(  c #DE7729",
")  c #C56034",
"_  c #D37335",
"`  c #8E714E",
"'  c #A0694F",
"]  c #A17A5D",
"[  c #4C876C",
"{  c #578569",
"}  c #5A8F72",
"|  c #5F9072",
" . c #5B9B7C",
".. c #70886C",
"X. c #649A7A",
"o. c #749274",
"O. c #7A9777",
"+. c #DA811E",
"@. c #E68A1D",
"#. c #E98D1C",
"$. c #EB9421",
"%. c #EC9B24",
"&. c #E1972E",
"*. c #E58D33",
"=. c #EEA026",
"-. c #EFA52D",
";. c #EFAA2E",
":. c #F0AA2C",
">. c #F1AF30",
",. c #F4B935",
"<. c #F7C53C",
"1. c #F8C73D",
"2. c #F8C93E",
"3. c #848669",
"4. c #A78665",
"5. c #B38762",
"6. c #A49C77",
"7. c #89A57C",
"8. c #BBA772",
"9. c #D68846",
"0. c #C68B57",
"q. c #DAB05A",
"w. c #F0B046",
"e. c #C49762",
"r. c #E89E65",
"t. c #FACC42",
"y. c #F7C94A",
"u. c #FBD149",
"i. c #FEDB4C",
"p. c #FFE04F",
"a. c #D7CA6E",
"s. c #ECD36F",
"d. c #FCDC69",
"f. c #EAD472",
"g. c #FFE366",
"h. c #FFE46A",
"j. c #FFE574",
"k. c #FEE67C",
"l. c #FFE87C",
"z. c #40AD86",
"x. c #5DA684",
"c. c #40B088",
"v. c #65AB88",
"b. c #64AC89",
"n. c #7DA684",
"m. c #7BA987",
"M. c #63B28E",
"N. c #65B591",
"B. c #69B692",
"V. c #6ABC96",
"C. c #6CBF99",
"Z. c #77BB95",
"A. c #72BF99",
"S. c #6FC59E",
"D. c #71C49D",
"F. c #7BC19A",
"G. c #70C8A0",
"H. c #7FCCA8",
"J. c #8BAC88",
"K. c #8EB790",
"L. c #93BB90",
"P. c #A3B184",
"I. c #A2BD85",
"U. c #84C097",
"Y. c #AFD093",
"T. c #88C7A8",
"R. c #8CD0AF",
"E. c #88D8B8",
"W. c #9EDDBE",
"Q. c #B4CABA",
"!. c #F3C89A",
"~. c #F6D39F",
"^. c #E9E188",
"/. c #FDE481",
"(. c #FFE881",
"). c #FFE98A",
"_. c #FFEB94",
"`. c #FFED9B",
"'. c #FFEEA2",
"]. c #A0E0C0",
/* pixels */
"G.G.G.G.G.G.G.G.G.G.G.G.G.G.G.G.G.G.G.G.G.G.G.G.G.G.G.G.G.G.G.G.G.G.G.G.G.G.G.G.G.G.G.G.G.G.G.G.G.G.G.G.G.G.G.G.G.G.G.G.G.G.G.G.",
"G.G.G.G.G.G.G.G.G.G.G.G.G.G.G.G.G.G.G.G.G.G.G.G.G.G.G.G.G.G.G.G.G.G.G.G.G.G.G.G.G.G.G.G.G.G.G.G.G.G.G.G.G.G.G.G.G.G.G.G.G.G.G.G.",
"G.G.G.G.G.G.G.G.G.G.G.G.G.G.G.G.G.G.G.G.G.G.G.G.G.G.G.G.G.G.G.G.G.G.G.G.G.G.G.G.G.G.G.G.G.G.G.G.G.G.G.G.G.G.G.G.G.G.G.G.G.G.G.G.",
"G.G.G.G.G.G.G.G.G.G.G.G.G.G.G.G.G.G.G.G.G.G.G.G.G.G.G.G.G.G.G.G.G.G.G.G.G.G.G.G.G.G.G.G.G.G.G.G.G.G.G.G.G.G.G.G.G.G.G.G.G.G.G.G.",
"G.G.G.G.G.G.G.G.G.G.G.G.G.G.G.G.G.G.G.G.G.G.G.G.G.G.G.G.G.G.G.G.G.G.G.G.G.G.G.G.G.G.G.G.G.G.G.G.G.G.G.G.G.G.G.G.G.G.G.G.G.G.G.G.",
"G.G.G.G.G.G.G.G.G.G.].].G.G.G.G.G.G.G.G.G.G.G.G.G.G.G.G.G.G.G.G.G.G.G.G.G.G.G.G.G.G.G.G.G.G.G.G.G.G.G.G.G.G.G.G.G.G.G.G.G.G.G.G.",
"G.G.G.G.G.G.G.G.G.G.].].G.G.G.G.G.G.G.G.G.G.G.G.G.G.G.G.G.G.G.G.G.G.G.G.G.G.G.G.G.G.G.G.G.G.G.G.G.G.G.G.G.G.G.G.G.G.G.G.G.G.G.G.",
"G.G.G.G.].].G.G.G.G.].].G.G.G.G.].].G.G.G.G.G.G.G.G.G.G.G.G.G.G.G.G.G.G.G.G.G.G.G.G.G.G.G.G.G.G.G.G.G.G.G.G.G.G.G.G.G.G.G.G.G.G.",
"G.G.G.G.].].G.G.G.G.].].G.G.G.G.].].G.G.G.G.G.G.G.G.G.G.G.G.G.G.G.G.G.G.G.G.S.G.G.G.G.G.G.G.G.G.G.G.G.G.G.G.G.G.G.G.G.G.G.G.G.G.",
"G.G.G.G.G.G.].].G.G.G.G.G.G.].].G.G.G.G.G.G.G.G.G.G.G.G.G.G.G.G.G.G.G.G.G.S.G.G.G.G.G.G.G.G.G.G.G.G.G.G.G.G.G.G.G.G.G.G.G.G.G.G.",
"G.G.G.G.G.G.].].G.G.G.G.G.G.].].G.G.G.G.G.G.G.G.G.G.G.G.G.G.G.G.G.G.G.G.G.G.G.G.G.G.G.G.G.G.G.G.G.G.G.G.G.G.G.G.G.G.G.G.G.G.G.G.",
"G.G.G.G.G.G.G.G.G.G.G.G.G.G.G.G.G.G.G.G.G.G.G.G.G.G.G.G.G.G.G.G.G.G.G.G.G.G.G.G.G.G.G.G.G.G.G.G.G.G.G.G.G.G.G.G.G.G.G.G.G.G.G.G.",
"G.G.G.G.G.G.G.G.G.G.G.G.G.G.G.G.G.G.G.G.G.G.G.G.G.G.G.G.G.G.G.G.G.G.G.G.G.G.G.G.G.G.G.G.G.G.G.G.G.G.G.G.G.G.G.G.G.G.G.G.G.G.G.G.",
"G.G.G.G.G.G.G.G.G.G.G.G.G.G.G.G.G.G.G.G.G.G.G.G.G.G.G.G.G.G.G.G.G.G.G.G.G.G.G.G.G.G.G.G.G.G.G.G.G.G.G.G.G.G.G.G.G.G.G.G.G.G.G.G.",
"G.G.G.G.G.G.G.G.G.G.G.G.G.G.G.G.G.G.G.G.G.G.G.G.G.G.G.G.G.G.G.G.G.G.G.G.G.G.G.G.G.G.G.G.G.G.G.G.G.G.G.G.G.G.G.G.G.G.G.G.G.G.G.G.",
"G.G.G.G.G.G.G.G.G.G.G.G.G.G.G.G.G.G.G.G.G.G.G.G.G.G.G.G.G.G.G.G.G.G.G.G.G.G.G.G.G.G.G.G.G.G.G.G.G.G.G.G.G.G.G.G.G.G.G.G.G.G.G.G.",
"G.G.G.G.G.G.G.G.G.G.G.G.G.G.G.G.G.G.G.G.G.G.G.G.G.G.G.G.G.G.G.G.G.G.G.G.G.G.G.G.G.G.G.G.G.G.G.G.G.G.G.G.G.G.G.G.G.G.G.G.G.G.G.G.",
"G.G.G.G.G.G.G.G.G.G.G.G.G.G.G.G.G.G.G.G.G.G.G.G.G.G.G.G.G.G.G.G.G.G.G.G.G.G.G.G.G.G.G.G.G.G.G.G.G.G.G.G.G.G.G.G.G.G.G.G.G.G.G.G.",
"G.G.G.G.G.G.G.G.G.G.G.G.G.G.G.G.G.G.G.G.G.G.G.c.c.G.G.G.G.G.G.G.G.G.G.G.G.G.G.G.G.G.G.G.G.G.G.G.G.G.G.G.G.G.G.G.G.G.G.G.G.G.G.G.",
"G.G.G.G.G.G.G.G.G.G.G.G.G.G.G.G.G.G.G.G.G.G.G.c.c.G.G.G.G.G.G.G.G.G.G.G.G.G.G.G.G.G.G.G.G.G.G.G.G.G.G.G.G.G.G.G.G.G.G.G.G.G.G.G.",
"G.G.G.G.G.G.G.G.G.G.G.G.G.G.G.G.G.c.c.G.G.G.G.c.c.G.G.G.G.c.c.G.G.G.G.G.G.G.G.G.G.G.G.G.G.G.G.G.G.G.G.G.G.G.G.G.G.G.G.G.G.G.G.G.",
"G.G.G.G.G.G.G.G.G.G.G.G.G.G.G.G.G.c.c.G.G.G.G.c.c.G.G.G.G.c.c.G.G.G.G.G.G.G.G.G.G.G.G.G.G.G.G.G.G.G.G.G.G.G.G.G.G.G.G.G.G.G.G.G.",
"G.G.G.G.G.G.G.G.G.G.G.G.G.G.G.G.G.G.G.c.c.G.G.G.G.G.G.c.c.G.G.G.G.G.G.G.G.G.G.G.G.G.G.G.G.G.G.G.G.G.G.G.G.G.G.G.G.c.c.G.G.G.G.G.",
"G.G.G.G.G.G.G.G.G.G.G.G.G.G.G.G.G.G.G.c.c.G.G.G.G.G.G.c.c.G.G.G.G.G.G.G.G.G.G.G.G.G.G.G.G.G.G.G.G.G.G.G.G.G.G.G.G.c.c.G.G.G.G.G.",
"c.G.G.G.G.G.G.G.G.G.G.G.G.G.G.G.G.G.G.G.G.G.G.G.G.G.G.G.G.G.G.G.G.G.G.G.G.G.G.G.G.G.G.G.G.G.G.G.G.G.G.c.c.G.G.G.G.c.c.G.G.G.G.c.",
"c.G.G.G.G.G.G.G.G.G.G.G.G.G.G.G.G.G.G.G.G.G.G.G.G.G.G.G.G.G.G.G.G.G.G.G.G.G.G.G.G.G.G.G.G.G.G.G.G.G.G.c.c.G.G.G.G.c.c.G.G.G.G.c.",
"G.G.G.G.G.G.G.G.G.G.G.G.G.G.G.G.G.G.G.G.G.G.G.G.G.G.G.G.G.G.G.S.G.G.G.G.G.G.G.G.G.G.G.G.G.G.G.G.G.G.G.G.G.c.c.G.G.G.G.G.G.c.c.G.",
"G.G.G.G.G.G.G.G.G.G.G.G.G.G.G.G.G.G.G.G.G.G.G.G.G.G.G.G.G.G.S.S.G.G.G.G.G.G.G.G.G.G.G.G.G.G.G.G.G.G.G.G.G.c.c.G.G.G.G.G.G.c.c.G.",
"G.G.G.G.G.G.G.G.G.G.G.G.G.G.G.G.G.G.G.G.S.G.G.G.G.G.G.G.G.G.N.N.G.G.V.x.x.x.G.G.G.G.G.G.G.G.G.G.G.G.G.G.G.G.G.G.G.G.G.G.G.G.G.G.",
"G.G.G.G.G.G.G.G.G.G.G.G.G.G.G.G.G.G.G.S.G.G.G.G.G.G.G.G.G.G.G.G.G.C.y     [ G.G.G.G.G.G.G.G.G.G.G.G.G.G.G.G.G.G.G.G.G.G.G.G.G.G.",
"G.G.G.G.G.G.G.G.G.G.G.G.G.G.G.G.G.G.G.G.G.G.G.G.G.G.G.G.G.G.G.G.G.[     r N.G.G.G.G.G.G.G.G.G.G.G.G.G.G.G.G.G.G.G.G.G.G.G.G.G.G.",
"G.G.G.G.G.G.G.G.G.G.G.G.G.G.G.G.G.G.G.G.G.G.S.A.A.S.G.G.G.G.G.G.G.s   e T.G.G.G.G.G.G.G.G.G.G.G.G.G.G.G.G.G.G.G.G.G.G.G.G.G.G.G.",
"G.G.G.G.G.G.G.G.G.G.G.G.G.G.G.G.G.G.G.G.G.G.o.w w o.G.G.G.].].G.V.t 7 T.W.G.G.G.G.].].G.G.G.G.G.C.V.G.G.G.G.G.G.G.G.G.G.G.G.G.G.",
"G.G.G.G.G.G.G.G.G.G.G.G.G.G.G.G.G.G.G.G.G.A.w 1 1 w A.G.G.].W.} t   [ ].].G.G.G.G.].].G.G.G.G.G.C.V.G.G.G.G.G.G.G.G.G.G.G.G.G.G.",
"G.G.G.G.G.G.G.G.G.G.G.G.G.G.G.G.G.G.G.G.G.A.w 1 1 w C.G.G.G.v.$ X y x.G.G.G.G.].].G.G.G.G.G.G.G.G.G.G.G.G.G.G.G.G.G.G.G.G.G.G.G.",
"G.G.G.G.G.G.G.G.G.G.G.G.G.G.G.G.G.G.G.G.G.G.o.w w o.G.G.G.S.s X X a O.5.6.D.G.].].G.G.G.G.G.G.G.G.G.G.G.G.G.G.G.G.G.G.G.G.G.G.G.",
"G.G.G.G.G.G.G.G.G.G.G.G.G.G.G.G.G.G.G.G.G.G.S.A.A.D.G.G.G.G. .X X c ^ U T 6.G.G.G.G.G.G.G.G.G.G.G.G.G.G.G.G.G.G.G.G.G.G.G.G.G.G.",
"G.G.G.G.G.G.G.G.G.G.G.G.G.G.G.G.G.G.G.G.G.G.G.G.G.G.G.G.G.G.x.. * S U U I ) K.G.G.G.G.G.G.G.G.G.G.G.G.G.G.G.G.G.G.G.G.G.G.G.G.G.",
"G.G.G.G.G.G.G.G.G.G.G.G.G.G.G.G.G.G.G.G.G.G.G.G.G.G.G.G.G.S.8 X 4 U U U U ) D.G.G.G.G.G.G.G.G.G.G.G.G.G.G.G.G.G.G.G.G.G.G.G.G.G.",
"G.G.G.G.G.G.G.G.G.G.G.G.G.G.G.G.G.G.G.G.G.G.G.G.G.G.G.G.G.D.8 o + z U U U L Z.G.G.G.G.G.G.G.G.G.G.G.G.G.G.G.G.G.G.G.G.G.G.G.G.G.",
"G.G.G.G.G.G.G.G.G.G.G.G.G.G.G.G.G.G.G.G.G.G.G.G.G.G.G.G.G.C.8 O = > L 4.5...D.G.G.G.G.G.G.G.G.G.G.G.G.G.G.G.G.G.G.G.G.G.G.G.G.G.",
"G.G.G.G.G.D.S.G.G.G.G.G.G.G.G.G.G.G.G.G.G.G.G.G.G.G.G.G.b.d % > b n ] S.G.G.G.G.G.G.G.G.G.G.G.G.G.G.G.G.G.G.G.G.G.G.G.G.G.G.G.G.",
"G.G.G.G.G.G.G.G.G.G.G.G.G.G.G.G.G.G.G.G.G.G.G.G.G.G.G.A.i o o j n n B J.G.G.G.D.m.n.n.m.G.G.G.G.G.G.G.G.G.G.G.G.G.G.G.G.G.G.G.G.",
"G.G.G.G.G.G.G.G.G.G.G.G.G.G.G.G.G.G.G.G.G.G.G.G.G.G.G.A.9 > < j b n ' F.G.G.G.Z.J j k K Z.G.G.G.G.G.G.G.G.G.G.G.G.G.G.G.G.G.G.G.",
"G.G.G.G.G.G.G.G.G.G.G.G.G.G.G.G.G.G.G.G.G.G.G.G.G.G.G.{ > v v v , < { S.S.S.D.D.J j h h 3.G.G.G.G.G.G.G.G.G.G.G.G.G.G.G.G.G.G.G.",
"G.G.G.G.G.G.G.G.G.G.G.G.G.G.G.G.G.G.G.G.G.G.G.S.F.Z.v.9 k v v v , O 9 { D.G.D.Z.K j l h 3.G.G.G.G.G.G.G.G.G.G.G.G.G.G.G.G.G.G.G.",
"G.G.G.G.G.G.G.G.G.G.G.G.G.G.G.G.G.G.G.G.G.G.G.J.L L K + g v v v l D Y Y 0.K.G.3.h j j ` Z.G.G.G.G.G.G.G.G.G.G.G.G.G.G.G.G.G.G.G.",
"G.G.G.G.G.G.G.G.G.G.G.G.G.G.G.G.G.G.G.G.G.G.G.4.V V M = @ g k h z R R r./ 0.G...g h x m.G.G.G.G.G.G.G.G.G.G.G.G.G.G.G.G.G.G.G.G.",
"G.G.G.G.G.G.G.G.G.G.G.G.G.G.G.G.G.G.G.G.G.G.G.4.m V N : O ; : O 6 ~ ! !.( _ Z.J.` g 7.D.G.G.G.G.G.G.G.G.G.G.G.G.G.G.G.G.G.G.G.G.",
"G.G.G.G.G.G.G.G.G.G.G.G.G.G.G.G.G.G.G.G.G.G.G.K.4.M = + + 3 5 Z W $.%.~.*.H C.G.B.J.C.D.G.G.G.G.G.G.G.G.G.G.G.G.G.G.G.G.G.G.G.G.",
"G.G.G.G.G.G.G.G.G.G.G.G.G.G.G.G.G.G.G.G.G.G.G.S.} & @ + @ 3 Q @.#.#.@.~.w.P v.L.8.9.P.U.G.G.G.G.G.G.G.G.G.G.G.c.c.G.G.G.G.G.G.G.",
"G.G.G.G.G.G.G.G.G.G.G.G.G.G.G.G.G.G.G.G.G.G.G.V.9 + + - : A @.$.>.>.@.w.-.&.f e.! R ! I.G.G.G.G.G.G.G.G.G.G.G.c.c.G.G.G.G.G.G.G.",
"G.G.G.G.G.G.G.G.G.G.G.G.G.G.G.G.G.G.G.G.G.G.D.v.# + 4 b b E %.<.1.1.,.%.%.;.&.~ ! ! ! P.G.G.G.G.G.z.c.G.G.G.G.c.c.G.G.G.G.c.c.G.",
"G.G.G.G.G.G.G.G.G.G.G.G.G.G.G.G.G.G.G.G.G.G.T.H.| ; , m m E >.t.1.1.t.,.=.:.q.0.! ! ! P.G.G.G.G.G.c.c.G.G.G.G.c.c.G.G.G.G.c.c.G.",
"G.G.G.G.G.E.E.G.G.G.G.G.G.G.G.G.G.G.G.G.G.H.].R.X.C Q #.@.+.t.t.1.y.u.u.w.y.s.8.e.e.e.L.G.G.G.G.G.G.G.c.c.G.G.G.G.G.G.c.c.G.G.G.",
"G.G.G.G.G.E.E.G.G.G.G.G.G.G.G.G.G.G.G.G.G.G.R.Q.q F $.$.:.d././.k.j.h.k.l././.^.Y.H.G.G.G.G.G.G.G.G.G.c.c.G.G.G.G.G.G.c.c.G.G.G.",
"E.G.G.G.G.E.E.G.G.G.G.E.E.G.G.G.G.G.G.c.c.G.G...p G $.%.d.'.'.'.'.`.j.j.(.(.(.l.(.Y.G.G.G.G.G.G.G.G.G.G.G.G.G.G.G.G.G.G.G.G.G.E.",
"E.G.G.G.G.E.E.G.G.G.G.E.E.G.G.G.G.G.G.c.z.D.{ 9 + F $.%.d.'.'.'.'.'.).k.(.k.(.(.(.Y.G.G.G.G.G.G.G.G.G.G.G.G.G.G.G.G.G.G.G.G.G.E.",
"G.E.E.G.G.G.G.G.G.E.E.G.G.G.G.G.G.G.G.G.N.8 2 @ 6 C G :.g.`.'.'.'.'.).).).(./.l.(.7.M.S.G.G.G.G.G.G.G.G.G.G.G.G.G.G.G.G.G.G.G.G.",
"G.E.E.G.G.G.G.G.G.E.E.G.G.G.G.G.G.G.G.G.S.u # @ w q H <.h.`.'.'.'.`./.`._.k.(.(.k.0 7 M.G.G.G.G.G.G.G.G.G.G.G.G.G.G.G.G.G.G.G.G.",
"G.G.G.G.G.G.G.G.G.G.G.G.G.G.G.G.G.G.G.G.S.S.x.[ X.Y.,.<.i.l.`.`.'.'.'.'._./.(.k.' @ 8 M.G.G.G.G.G.G.G.G.G.G.G.G.G.G.G.G.G.G.G.G.",
"G.G.G.G.G.G.G.G.G.G.G.G.G.G.G.G.G.G.G.G.S.S.S.G.S.a.2.2.u.p.g.j.`.'.'.'._.l.k.f.2 & i V.G.G.G.G.G.G.G.S.G.G.G.G.G.G.G.G.G.G.G.G.",
"G.G.G.G.G.G.G.G.G.G.G.G.G.G.G.G.G.G.G.G.G.G.S.G.S.a.t.2.1.t.i.i.g.).).).l.l.l.s.2 a  .S.G.G.G.G.G.G.G.G.G.G.G.G.G.G.G.G.G.G.G.G.",
"G.G.G.G.G.G.G.G.G.G.G.G.G.G.G.G.G.G.G.G.G.G.S.S.S.Y.y.t.1.<.<.i.p.p.g.l.l.l.l.f.X.V.G.G.G.G.G.G.G.G.G.G.G.G.G.G.G.G.G.G.G.G.G.G."
};
