/* XPM */
static char *wall_10[] = {
/* columns rows colors chars-per-pixel */
"64 64 175 2 ",
"   c #140506",
".  c #1A0706",
"X  c #1C0807",
"o  c #1A1E17",
"O  c #270C06",
"+  c #250C09",
"@  c #2C0E0B",
"#  c #340E0B",
"$  c #2E100C",
"%  c #321007",
"&  c #33130C",
"*  c #3B130E",
"=  c #311C13",
"-  c #1B211A",
";  c #2D291F",
":  c #31281E",
">  c #2F2C23",
",  c #2C3429",
"<  c #2F3E30",
"1  c #323F35",
"2  c #43100E",
"3  c #4A1109",
"4  c #551508",
"5  c #721808",
"6  c #452516",
"7  c #562514",
"8  c #64260B",
"9  c #76290B",
"0  c #632716",
"q  c #7A2818",
"w  c #6A3415",
"e  c #7A3A14",
"r  c #4B3F31",
"t  c #5B3730",
"y  c #6B3A2A",
"u  c #244535",
"i  c #2A4335",
"p  c #3B4538",
"a  c #334939",
"s  c #76451D",
"d  c #4B4533",
"f  c #584937",
"g  c #6C4D2C",
"h  c #3A624D",
"j  c #3D6651",
"k  c #43584B",
"l  c #4F694F",
"z  c #516B54",
"x  c #4A785F",
"c  c #467B62",
"v  c #517A63",
"b  c #862A0A",
"n  c #992302",
"m  c #833E0F",
"M  c #AE2802",
"N  c #B92A00",
"B  c #B03005",
"V  c #8A4C14",
"C  c #9A4712",
"Z  c #A6460D",
"A  c #B44509",
"S  c #A64B13",
"D  c #B35111",
"F  c #AE6217",
"G  c #924C21",
"H  c #B24C31",
"J  c #B64D32",
"K  c #8A613C",
"L  c #AB6C3D",
"P  c #A57130",
"I  c #CE5008",
"U  c #C8580D",
"Y  c #D05108",
"T  c #D5630E",
"R  c #D8660F",
"E  c #DC6C0F",
"W  c #C96311",
"Q  c #DD6D10",
"!  c #D56F18",
"~  c #CA751C",
"^  c #DD7514",
"/  c #D9791A",
"(  c #E17512",
")  c #E27B15",
"_  c #E07B1A",
"`  c #D87227",
"'  c #D47A38",
"]  c #B25B40",
"[  c #BF7D4C",
"{  c #A27F77",
"}  c #4D8469",
"|  c #548469",
" . c #4F8C70",
".. c #548D70",
"X. c #569375",
"o. c #5A9D7D",
"O. c #69886B",
"+. c #658C78",
"@. c #6F9379",
"#. c #DB831B",
"$. c #E2811B",
"%. c #E78B1C",
"&. c #E98D1D",
"*. c #D38C24",
"=. c #E78C25",
"-. c #EA9925",
";. c #ED9B38",
":. c #EEA52C",
">. c #F0AB2E",
",. c #EEA731",
"<. c #F3B535",
"1. c #F4BA37",
"2. c #F5BD3A",
"3. c #F7C33B",
"4. c #B98C49",
"5. c #918C67",
"6. c #B89C6D",
"7. c #A09372",
"8. c #DC9645",
"9. c #C2915F",
"0. c #CDA64F",
"q. c #C29664",
"w. c #CDA160",
"e. c #F6C340",
"r. c #F9CB47",
"t. c #E8CC5A",
"y. c #F7C352",
"u. c #F8CC5D",
"i. c #FBD658",
"p. c #FBD767",
"a. c #FBDC75",
"s. c #FFE465",
"d. c #FFE46B",
"f. c #FFE574",
"g. c #FFE77A",
"h. c #FFE87D",
"j. c #3EA983",
"k. c #5CA483",
"l. c #5FA987",
"z. c #40B088",
"x. c #61A483",
"c. c #6EA987",
"v. c #61AD8A",
"b. c #77A986",
"n. c #66B38F",
"m. c #67B490",
"M. c #6ABC96",
"N. c #6BBF99",
"B. c #7FB298",
"V. c #70BF99",
"C. c #6FC69E",
"Z. c #72C59D",
"A. c #7AC29A",
"S. c #70C8A0",
"D. c #7ACBA5",
"F. c #8CAE89",
"G. c #9DB187",
"H. c #93BA8F",
"J. c #83B89E",
"K. c #A1AF84",
"L. c #A8B383",
"P. c #DAB482",
"I. c #83C49A",
"U. c #87C8A9",
"Y. c #9DCDAE",
"T. c #88D8B8",
"R. c #FEE683",
"E. c #FFE882",
"W. c #FFEA8B",
"Q. c #FFEB90",
"!. c #FFEEA1",
"~. c #ABDAC2",
"^. c #BAD9C4",
"/. c #A0E0C0",
"(. c #BAE0CD",
/* pixels */
"S.S.S.S.S.S.S.S.S.S.S.S.S.S.S.S.S.S.S.S.S.S.S.S.S.S.S.S.S.S.S.S.S.S.S.S.S.S.S.S.S.S.S.S.S.S.S.S.S.S.S.S.S.S.S.S.S.S.S.S.S.S.S.S.",
"S.S.S.S.S.S.S.S.S.S.S.S.S.S.S.S.S.S.S.S.S.S.S.S.S.S.S.S.S.S.S.S.S.S.S.S.S.S.S.S.S.S.S.S.S.S.S.S.S.S.S.S.S.S.S.S.S.S.S.S.S.S.S.S.",
"S.S.S.S.S.S.S.S.S.S.S.S.S.S.S.S.S.S.S.S.S.S.S.S.S.S.S.S.S.S.S.S.S.S.S.S.S.S.S.S.S.S.S.S.S.S.S.S.S.S.S.S.S.S.S.S.S.S.S.S.S.S.S.S.",
"S.S.S.S.S.S.S.S.S.S.S.S.S.S.S.S.S.S.S.S.S.S.S.S.S.S.S.S.S.S.S.S.S.S.S.S.S.S.S.S.S.S.S.S.S.S.S.S.S.S.S.S.S.S.S.S.S.S.S.S.S.S.S.S.",
"S.S.S.S.S.S.S.S.S.S.S.S.S.S.S.S.S.S.S.S.S.S.S.S.S.S.S.S.S.S.S.S.S.S.S.S.S.S.S.S.S.S.S.S.S.S.S.S.S.S.S.S.S.S.S.S.S.S.S.S.S.S.S.S.",
"S.S.S.S.S.S.S.S.S.S././.S.S.S.S.S.S.S.S.S.S.S.S.S.S.S.S.S.S.S.S.S.S.S.S.S.S.S.S.S.S.S.S.S.S.S.S.S.S.S.S.S.S.S.S.S.S.S.S.S.S.S.S.",
"S.S.S.S.S.S.S.S.S.S././.S.S.S.S.S.S.S.S.S.S.S.S.S.S.S.S.S.S.S.S.S.S.S.S.S.S.S.S.S.S.S.S.S.S.S.S.S.S.S.S.S.S.S.S.S.S.S.S.S.S.S.S.",
"S.S.S.S././.S.S.S.S././.S.S.S.S././.S.S.S.S.S.S.S.S.S.S.S.S.S.S.S.S.S.S.S.S.S.S.S.S.S.S.S.S.S.S.S.S.S.S.S.S.S.S.S.S.S.S.S.S.S.S.",
"S.S.S.S././.S.S.S.S././.S.S.S.S././.S.S.S.S.S.S.S.S.S.S.S.S.S.S.S.S.S.S.S.S.S.S.S.S.S.S.S.S.S.S.S.S.S.S.S.S.S.S.S.S.S.S.S.S.S.S.",
"S.S.S.S.S.S././.S.S.S.S.S.S././.S.S.S.S.S.S.S.S.S.S.S.S.S.S.S.S.S.S.S.S.S.S.S.S.S.S.S.S.S.S.S.S.S.S.S.S.S.S.S.S.S.S.S.S.S.S.S.S.",
"S.S.S.S.S.S././.S.S.S.S.S.S././.S.S.S.S.S.S.S.S.S.S.S.S.S.S.S.S.S.S.S.S.S.S.S.S.S.S.S.S.S.S.S.S.S.S.S.S.S.S.S.S.S.S.S.S.S.S.S.S.",
"S.S.S.S.S.S.S.S.S.S.S.S.S.S.S.S.S.S.S.S.S.S.S.S.S.S.S.S.S.S.S.S.S.S.S.S.S.S.S.S.S.S.S.S.S.S.S.S.S.S.S.S.S.S.S.S.S.S.S.S.S.S.S.S.",
"S.S.S.S.S.S.S.S.S.S.S.S.S.S.S.S.S.S.S.S.S.S.S.S.S.S.S.S.S.S.S.S.S.S.S.S.S.S.S.S.S.S.S.S.S.S.S.S.S.S.S.S.S.S.S.S.S.S.S.S.S.S.S.S.",
"S.S.S.S.S.S.S.S.S.S.S.S.S.S.S.S.S.S.S.S.S.S.S.S.S.S.S.S.S.S.S.S.S.S.S.S.S.S.S.S.S.S.S.S.S.S.S.S.S.S.S.S.S.S.S.S.S.S.S.S.S.S.S.S.",
"S.S.S.S.S.S.S.S.S.S.S.S.S.S.S.S.S.S.S.S.S.S.S.S.S.S.S.S.S.S.S.S.S.S.S.S.S.S.S.S.S.S.S.S.S.S.S.S.S.S.S.S.S.S.S.S.S.S.S.S.S.S.S.S.",
"S.S.S.S.S.S.S.S.S.S.S.S.S.S.S.S.S.S.S.S.S.S.S.S.S.S.S.S.S.S.S.S.S.S.S.S.S.S.S.S.S.S.S.S.S.S.S.S.S.S.S.S.S.S.S.S.S.S.S.S.S.S.S.S.",
"S.S.S.S.S.S.S.C.S.S.S.S.S.S.S.S.S.S.S.S.S.S.S.S.S.S.S.S.S.S.S.S.S.S.S.S.S.S.S.S.S.S.S.S.S.S.S.S.S.S.S.S.S.S.S.S.S.S.S.S.S.S.S.S.",
"S.S.S.S.S.S.S.S.S.S.S.S.S.S.S.S.S.S.S.S.S.S.S.S.S.S.S.S.S.S.S.S.S.S.S.S.S.S.S.S.S.S.S.S.S.S.S.S.S.S.S.S.S.S.S.S.S.S.S.S.S.S.S.S.",
"S.S.S.S.S.S.S.S.S.S.S.S.S.S.S.S.S.S.S.S.S.S.S.z.z.S.S.S.S.S.S.S.S.S.S.S.S.S.S.S.S.S.S.S.S.S.S.S.S.S.S.S.S.S.S.S.S.S.S.S.S.S.S.S.",
"S.S.S.S.S.S.S.S.S.S.S.S.S.S.S.S.S.S.S.S.S.S.S.z.z.S.S.S.S.S.S.S.S.S.S.S.S.S.S.S.S.S.S.S.S.S.S.S.S.S.S.S.S.S.S.S.S.S.S.S.S.S.S.S.",
"S.S.S.S.S.S.S.S.S.S.S.S.S.S.S.S.S.z.z.S.S.S.S.z.z.S.S.S.S.z.j.S.S.S.S.S.S.S.S.S.S.S.S.S.S.S.S.S.S.S.S.S.S.S.S.S.S.S.S.S.S.S.S.S.",
"S.S.S.S.S.S.S.S.S.S.S.S.S.S.S.S.S.z.z.S.S.S.S.z.z.S.S.S.S.z.z.S.S.S.S.S.S.S.S.S.S.S.S.S.S.S.S.S.S.S.S.S.S.S.S.S.S.S.S.S.S.S.S.S.",
"S.S.S.S.S.S.S.S.S.S.S.S.S.S.S.S.S.S.S.z.z.S.S.S.S.S.S.z.z.S.S.S.S.S.S.S.S.S.S.S.S.S.S.S.S.S.S.S.S.S.S.S.S.S.S.S.S.j.j.S.S.S.S.S.",
"S.S.S.S.S.S.S.S.S.S.S.S.S.S.S.S.S.S.S.z.z.S.S.S.S.S.S.z.z.S.S.S.S.S.S.S.S.S.S.S.S.S.S.S.S.S.S.S.S.S.S.S.S.S.S.S.D.j.j.S.S.S.S.S.",
"z.S.S.S.S.S.S.S.S.S.S.S.S.S.S.S.S.S.S.S.S.S.S.S.S.S.S.S.S.S.S.S.S.S.S.S.S.S.S.S.S.S.S.S.S.S.S.S.S.S.S.z.z.S.S.S.S.z.z.S.S.S.S.z.",
"z.S.S.S.S.S.S.S.S.S.S.S.S.S.S.S.S.S.S.S.S.S.S.S.S.S.S.S.S.S.S.S.S.S.S.S.S.S.S.S.S.S.S.S.S.S.S.S.S.S.S.z.z.S.S.S.S.z.z.S.S.S.S.z.",
"S.S.S.S.S.S.S.S.S.S.S.S.S.S.S.S.S.S.S.S.S.S.S.S.S.C.S.S.S.S.S.S.S.S.S.S.S.S.S.S.S.S.S.S.S.S.S.S.S.S.S.S.S.z.z.S.S.S.S.S.S.z.z.S.",
"S.S.S.S.S.S.S.S.S.S.S.S.S.S.S.S.S.S.S.S.S.S.S.S.S.S.C.C.C.S.S.C.S.S.S.S.S.S.S.S.S.S.S.S.S.S.S.S.S.S.S.S.S.z.z.S.S.S.S.S.S.z.z.S.",
"S.S.S.S.S.S.S.S.S.S.S.S.S.S.S.S.S.S.S.S.C.S.S.S.S.S.S.l.C.C.C.C.S.S.S.C.S.S.S.S.S.S.S.S.S.S.S.S.S.S.S.S.S.S.S.S.S.S.S.S.S.S.S.S.",
"S.S.S.S.S.S.S.S.S.S.S.S.S.S.S.S.S.S.S.C.S.S.S.S.S.S.S.S.S.M.} n.S.S.S.C.S.S.S.S.S.S.S.S.S.S.S.S.S.S.S.S.S.S.S.S.S.S.S.S.S.S.S.S.",
"S.S.S.S.S.S.S.S.S.S.S.S.S.S.S.S.S.S.S.S.S.S.S.S.S.S.S.S.S.o.o  .C.S.M.J.T.S.S.S.S.S.S.S.S.S.S.S.S.S.S.S.S.S.S.S.S.S.S.S.S.S.S.S.",
"S.S.S.S.S.S.S.S.S.S.S.S.S.S.S.S.S.S.S.S.S.S.S.S.S.S.S.S.S.k.- u C.o.h < U.S.S.S.S.S.S.S.S.S.S.S.S.S.S.S.S.S.S.S.S.S.S.S.S.S.S.S.",
"S.S.S.S.S.S.S.S.S.S.S.S.S.S.S.S.S.S.S.S.S.S.S.S.S.S.S.S.S.J., u n.j . 1 J.M.S.S.S././.S.S.S.S.S.S.S.S.S.S.S.S.S.S.S.S.S.S.S.S.S.",
"S.S.S.S.S.S.S.S.S.S.S.S.S.S.S.S.S.S.S.S.S.D.D.S.S.S.S.S.S...  X.o.. . . z M.S.S.S././.S.S.S.S.S.S.S.S.S.S.S.S.S.S.S.S.S.S.S.S.S.",
"S.S.S.S.S.S.S.S.S.S.S.S.S.S.S.S.S.S.S.S.S.D.~.S.S.S.S.S.S.c   +.k X . . c S.S././.C.S.S.S.S.S.S.S.S.S.S.S.S.S.S.S.S.S.S.S.S.S.S.",
"S.S.S.S.S.S.S.S.S.S.S.S.S.S.S.S.S.S.S.S.S.D.Y.~.D.S.S.S.S.c . +.a # # , v.S.S./.~.S.S.S.S.S.S.S.S.S.S.S.S.S.S.S.S.S.S.S.S.S.S.S.",
"S.S.S.S.S.S.S.S.S.S.S.S.S.S.S.S.S.S.S.S.S.S.D.(.~.N.S.S.S.c u x.a # * p m.x.n.S.S.S.S.S.S.S.S.S.S.S.S.S.S.S.S.S.S.S.S.S.S.S.S.S.",
"S.S.S.S.S.S.S.S.S.S.S.S.S.S.S.S.S.S.S.S.S.S.S.D.^.Y.N.N.C.c u c ; # & X.x.* | S.S.S.S.S.S.S.Z.V.C.S.S.S.S.S.S.S.S.S.S.S.S.S.S.S.",
"S.S.S.S.S.S.S.S.S.S.S.S.S.S.S.S.S.S.S.S.S.S.C.Z.7.H f r z l   $ % + + l.m.| V.S.S.S.S.S.S.S.c.y O.C.C.S.S.S.S.S.S.S.S.S.S.S.S.S.",
"S.S.S.S.S.S.S.S.S.S.S.S.S.S.S.S.S.S.S.S.S.S.C.B.H M 4 2 3 O   $ & + k N.Z.S.S.S.S.S.S.S.S.S.c.y O.C.S.S.S.S.S.S.S.S.S.S.S.S.S.S.",
"S.S.S.S.S.C.S.S.S.S.S.S.S.S.S.S.S.S.S.S.S.S.S.S.J N 5 2 b 3 . & @ = o.C.S.S.S.S.S.S.S.S.S.S.Z.V.Z.S.S.S.S.S.S.S.S.S.S.S.S.S.S.S.",
"S.S.S.S.S.C.C.S.S.S.S.S.S.S.S.S.S.S.S.S.S.S.D.V.] B M n n O @ & @ i N.C.S.S.S.S.S.S.S.S.S.S.S.S.C.S.S.S.S.S.S.S.S.S.S.S.S.S.S.S.",
"S.S.S.S.S.S.S.S.S.S.S.S.S.S.S.S.S.S.S.S.S.S.S.S.F.J N n 4   @ & w g G.K.b.b.Z.S.S.S.S.S.S.S.S.S.S.S.S.S.S.S.S.S.S.S.S.S.S.S.S.S.",
"S.S.S.S.S.S.S.S.S.S.S.S.S.S.S.S.S.S.S.S.S.S.S.S.S.H.F.k     * V %.&.%.%.A q @.Z.S.S.S.S.S.S.S.S.S.S.S.S.S.S.S.S.S.S.S.S.S.S.S.S.",
"S.S.S.S.S.S.S.S.S.S.S.S.S.S.S.S.S.S.S.S.S.S.S.S.S.S.M.j # 8 A ^ %.%.%.&./ b q b.S.S.S.S.S.S.S.S.S.S.S.S.S.S.S.S.S.S.S.S.S.S.S.S.",
"S.S.S.S.S.S.S.S.S.S.S.S.S.S.S.S.S.S.S.S.S.S.S.S.S.S.k.. 9 Y I _ &.&.&.%.%.Z 5 b.I.Z.S.S.S.S.S.S.S.S.S.S.S.S.S.S.S.S.S.S.S.S.S.S.",
"S.S.S.S.S.S.S.S.S.S.S.S.S.S.S.S.S.S.S.S.S.S.S.S.S.S. .+ A I I ( &.%.&.&./ Z A ` ' 6.H.S.S.S.S.S.S.S.S.S.S.S.S.S.S.S.S.S.S.S.S.S.",
"S.S.S.S.S.S.S.S.S.S.S.S.S.S.S.S.S.S.S.S.S.S.S.S.Z.M.u , A Y Y R ^ ) $.#.4.[ E E R E 9.Z.S.S.S.S.S.S.S.S.S.S.S.S.S.S.S.S.S.S.S.S.",
"S.S.S.S.S.S.S.S.S.S.S.S.S.S.S.S.S.S.S.S.S.S.S.S.S.A.g X.f I I U Q Q Q C G ! E E Q Q ! G.S.S.S.S.S.S.S.S.S.S.S.S.S.S.S.S.S.S.S.S.",
"S.S.S.S.S.S.S.S.S.S.S.S.S.S.S.S.S.S.S.S.S.S.S.S.I.w.;.t.K 0 b U Q Q Q T A E E E Q Q Q K.S.S.S.S.S.S.S.S.S.S.S.S.S.S.S.S.S.S.S.S.",
"S.S.S.S.S.S.S.S.S.S.S.S.S.S.S.S.S.S.S.S.S.S.S.Z.q.%._ ;.P.t 4 D Q Q E ^ ^ Q E E Q E ' H.S.S.S.S.S.S.Z.S.S.S.S.z.z.S.S.S.S.S.S.S.",
"S.S.S.S.S.S.S.S.S.S.S.S.S.S.S.S.S.S.S.S.S.S.S.A.8.%.=.=.' 7.0 W ) E R ) ) ^ R E E ` 6.S.S.S.S.S.S.S.S.S.S.S.S.z.z.S.S.S.S.S.S.S.",
"S.S.S.S.S.S.S.S.S.S.S.S.S.S.S.S.S.S.S.S.S.S.S.S.L.-.&.&.F S F -.>.>.1.<.$.! K L Z F.A.Z.S.S.S.S.S.z.z.S.S.S.S.z.z.S.S.S.S.z.z.S.",
"S.S.S.S.S.S.S.S.S.S.S.S.S.S.S.S.S.S.S.S.S.S.S.S.F.G C Z Z R ,.<.1.e.3.3.<./ 5.v & x.S.Z.S.S.S.S.S.z.z.S.S.S.S.z.z.S.S.S.S.z.z.S.",
"S.S.S.S.S.T.T.S.S.S.S.S.S.S.S.S.S.S.S.S.S.S.C.S.C.l A W / -.u.R.R.E.a.1.2./ q.v * x.S.S.S.S.S.S.S.S.S.z.z.S.S.S.S.S.S.z.z.S.S.S.",
"S.S.S.S.S.T.T.S.S.S.S.S.S.S.S.S.S.S.S.S.S.S.C.C.} d B / <.2.R.W.E.h.E.p.y.-.q.m.k.M.S.S.S.S.S.S.S.S.S.z.z.S.S.S.S.S.S.z.z.S.S.S.",
"T.S.S.S.S.T.T.S.S.S.S.T.T.S.S.S.S.S.S.j.z.S.C.| 7 8 D <.2.e.R.W.h.h.g.g.g.<.0.I.Z.C.S.S.S.S.S.S.S.S.S.S.S.S.S.S.S.S.S.S.S.S.S.T.",
"T.S.S.S.S.T.T.S.S.S.S.T.T.S.S.S.S.S.S.j.z.S.v.a $ e ~ 1.3.e.R.W.E.R.E.g.g.p.:.{ M.Z.S.S.S.S.S.S.S.S.S.S.S.S.S.S.S.S.S.S.S.S.S.T.",
"S.T.T.S.S.S.S.S.S.T.T.S.S.S.S.S.S.S.S.S.S.j.u X $ F ( :.3.3.f.W.W.W.W.E.g.g.r.g < ..n.C.S.S.S.S.S.S.S.S.S.S.S.S.S.S.S.S.S.S.S.S.",
"S.T.T.S.S.S.S.S.S.T.T.S.S.S.S.S.S.S.S.S.S.j.u : m E Q :.i.d.f.W.W.W.W.E.g.d.i.0.= $ a n.S.S.S.S.S.S.S.S.S.S.S.S.S.S.S.S.S.S.S.S.",
"S.S.S.S.S.S.S.S.S.S.S.S.S.S.S.S.S.S.S.S.S.S.o.7 C E E ,.g.E.g.h.W.W.W.E.d.s.s.t.6 @ $ ..S.S.S.S.S.S.S.S.Z.S.S.S.S.S.S.S.S.S.S.S.",
"S.S.S.S.S.S.S.S.S.S.S.S.S.S.S.S.S.S.S.S.S.S.l.6 w W E =.a.g.d.d.f.f.h.W.d.s.s.t.6 & $ ; o.S.S.S.S.S.S.C.S.S.S.S.S.S.S.S.S.S.S.S.",
"S.S.S.S.S.S.S.S.S.S.S.S.S.S.S.S.S.S.S.S.S.S.Z.o.l s E ^ f.f.d.d.d.d.d.Q.Q.i.t.P 7 > x } C.C.S.S.S.S.S.S.S.S.S.S.S.S.S.S.S.S.S.S.",
"S.S.S.S.S.S.S.S.S.S.S.S.S.S.S.S.S.S.S.S.S.S.Z.Z.M.k.5.e 4.d.d.d.d.d.d.W.!.r.*.s w O.C.S.C.C.S.S.S.S.S.S.S.S.S.S.S.S.S.S.S.S.S.S."
};
