/* XPM */
static char *wall_15[] = {
/* columns rows colors chars-per-pixel */
"64 64 171 2 ",
"   c #1A0807",
".  c #1E0A09",
"X  c #230C09",
"o  c #340F0A",
"O  c #2E100D",
"+  c #33110D",
"@  c #3B120B",
"#  c #3E1710",
"$  c #35241A",
"%  c #232B22",
"&  c #3C2C21",
"*  c #303228",
"=  c #4A170C",
"-  c #551609",
";  c #5F1808",
":  c #471A10",
">  c #501E11",
",  c #6B1806",
"<  c #65170A",
"1  c #751B06",
"2  c #731A08",
"3  c #4F2212",
"4  c #5E2B16",
"5  c #7A2707",
"6  c #702618",
"7  c #793A18",
"8  c #663E2E",
"9  c #723121",
"0  c #284032",
"q  c #394436",
"w  c #54402F",
"e  c #474636",
"r  c #734634",
"t  c #6F533A",
"y  c #3E5B48",
"u  c #6A5A42",
"i  c #735B45",
"p  c #4A6650",
"a  c #44765D",
"s  c #48735B",
"d  c #53745C",
"f  c #5C7C5F",
"g  c #737158",
"h  c #4C7C63",
"j  c #697D62",
"k  c #881E05",
"l  c #931F04",
"z  c #892107",
"x  c #8B2906",
"c  c #932004",
"v  c #9B2603",
"b  c #99360B",
"n  c #A22302",
"m  c #A92D05",
"M  c #B32600",
"N  c #B03605",
"B  c #C43B04",
"V  c #A3430C",
"C  c #A54C12",
"Z  c #AB5412",
"A  c #AF5A14",
"S  c #B45C12",
"D  c #8C4E34",
"F  c #AE4B32",
"G  c #BB5634",
"H  c #967429",
"J  c #CD5109",
"K  c #D35509",
"L  c #D45C0C",
"P  c #C24113",
"I  c #D86C0F",
"U  c #C46714",
"Y  c #D96E10",
"T  c #E17612",
"R  c #E67D13",
"E  c #C34B25",
"W  c #D66826",
"Q  c #C96434",
"!  c #CC703B",
"~  c #D27837",
"^  c #887C5E",
"/  c #A66B51",
"(  c #877E62",
")  c #CA7441",
"_  c #3B8567",
"`  c #53876B",
"'  c #528E71",
"]  c #5B8F72",
"[  c #599678",
"{  c #6B896C",
"}  c #71A07F",
"|  c #E4861B",
" . c #E7891B",
".. c #EA881A",
"X. c #E9901E",
"o. c #DB8F37",
"O. c #EB9824",
"+. c #E89827",
"@. c #EDA32A",
"#. c #F0A329",
"$. c #F1AB2D",
"%. c #E6A33D",
"&. c #F1AF30",
"*. c #F2B332",
"=. c #F2BA39",
"-. c #F7C139",
";. c #A3855F",
":. c #B9875A",
">. c #969272",
",. c #A78D6B",
"<. c #B69768",
"1. c #A4AC6A",
"2. c #E29162",
"3. c #CAB26B",
"4. c #F6C348",
"5. c #F9CA48",
"6. c #FBD244",
"7. c #F9D548",
"8. c #FEDB49",
"9. c #FBD353",
"0. c #FADC56",
"q. c #D8D673",
"w. c #E6D56C",
"e. c #F7DC65",
"r. c #FCDB65",
"t. c #F2D36F",
"y. c #FEE267",
"u. c #FFE673",
"i. c #40AE87",
"p. c #5DA584",
"a. c #5EA886",
"s. c #40B088",
"d. c #67A583",
"f. c #62A987",
"g. c #62AB89",
"h. c #71AA87",
"j. c #74A38B",
"k. c #66B38E",
"l. c #6EB38E",
"z. c #6ABC96",
"x. c #6DBF99",
"c. c #70B993",
"v. c #6FC59E",
"b. c #71C29B",
"n. c #7BC19A",
"m. c #70C8A0",
"M. c #79CAA5",
"N. c #8FAE89",
"B. c #97A883",
"V. c #8FB68E",
"C. c #95B38A",
"Z. c #87BF96",
"A. c #EAB28D",
"S. c #87C89A",
"D. c #ADC287",
"F. c #88D8B8",
"G. c #99D4B7",
"H. c #9EDEBE",
"J. c #A5D7B8",
"K. c #FADB86",
"L. c #FADC8E",
"P. c #FFE782",
"I. c #FFE98B",
"U. c #FEEC9E",
"Y. c #FFEFA8",
"T. c #FFF0AE",
"R. c #FFF2B6",
"E. c #FFF3BB",
"W. c #A0E0C0",
"Q. c #FFF4C3",
"!. c #FFF6D0",
/* pixels */
"m.m.m.m.m.m.m.m.m.m.m.m.m.m.m.m.m.m.m.m.m.m.m.m.m.m.m.m.m.m.m.m.m.m.m.m.m.m.m.m.m.m.m.m.m.m.m.m.m.m.m.m.m.m.m.m.m.m.m.m.m.m.m.m.",
"m.m.m.m.m.m.m.m.m.m.m.m.m.m.m.m.m.m.m.m.m.m.m.m.m.m.m.m.m.m.m.m.m.m.m.m.m.m.m.m.m.m.m.m.m.m.m.m.m.m.m.m.m.m.m.m.m.m.m.m.m.m.m.m.",
"m.m.m.m.m.m.m.m.m.m.m.m.m.m.m.m.m.m.m.m.m.m.m.m.m.m.m.m.m.m.m.m.m.m.m.m.m.m.m.m.m.m.m.m.m.m.m.m.m.m.m.m.m.m.m.m.m.m.m.m.m.m.m.m.",
"m.m.m.m.m.m.m.m.m.m.m.m.m.m.m.m.m.m.m.m.m.m.m.m.m.m.m.m.m.m.m.m.m.m.m.m.m.m.m.m.m.m.m.m.m.m.m.m.m.m.m.m.m.m.m.m.m.m.m.m.m.m.m.m.",
"m.m.m.m.m.m.m.m.m.m.m.m.m.m.m.m.m.m.m.m.m.m.m.m.m.m.m.m.m.m.m.m.m.m.m.m.m.m.m.m.m.m.m.m.m.m.m.m.m.m.m.m.m.m.m.m.m.m.m.m.m.m.m.m.",
"m.m.m.m.m.m.m.m.m.m.W.W.m.m.m.m.m.m.m.m.m.m.m.m.m.m.m.m.m.m.m.m.m.m.m.m.m.m.m.m.m.m.m.m.m.m.m.m.m.m.m.m.m.m.m.m.m.m.m.m.m.m.m.m.",
"m.m.m.m.m.m.m.m.m.m.W.W.m.m.m.m.m.m.m.m.m.m.m.m.m.m.m.m.m.m.m.m.m.m.m.m.m.m.m.m.m.m.m.m.m.m.m.m.m.m.m.m.m.m.m.m.m.m.m.m.m.m.m.m.",
"m.m.m.m.W.W.m.m.m.m.W.W.m.m.m.m.W.W.m.m.m.m.m.m.m.m.m.m.m.m.m.m.m.m.m.m.m.m.m.m.m.m.m.m.m.m.m.m.m.m.m.m.m.m.m.m.m.m.m.m.m.m.m.m.",
"m.m.m.m.W.W.m.m.m.m.W.W.m.m.m.m.W.W.m.m.m.m.m.m.m.m.m.m.m.m.m.m.m.m.m.m.m.v.m.m.m.m.m.m.m.m.m.m.m.m.m.m.m.m.m.m.m.m.m.m.m.m.m.m.",
"m.m.m.m.m.m.W.W.m.m.m.m.m.m.W.W.m.m.m.m.m.m.m.m.m.m.m.m.m.m.m.m.m.m.m.m.m.m.v.m.m.m.m.m.m.m.m.m.m.m.m.m.m.m.m.m.m.m.m.m.m.m.m.m.",
"m.m.m.m.m.m.W.W.m.m.m.m.m.m.W.W.m.m.m.m.m.m.m.m.m.m.m.m.m.m.m.m.m.m.m.m.m.m.m.m.m.m.m.m.m.m.m.m.m.m.m.m.m.m.m.m.m.m.m.m.m.m.m.m.",
"m.m.m.m.m.m.m.m.m.m.m.m.m.m.m.m.m.m.m.m.m.m.m.m.m.m.m.m.m.m.m.m.m.m.m.m.m.m.m.m.m.m.m.m.m.m.m.m.m.m.m.m.m.m.m.m.m.m.m.m.m.m.m.m.",
"m.m.m.m.m.m.m.m.m.m.m.m.m.m.m.m.m.m.m.m.m.m.m.m.m.m.m.m.m.m.m.m.m.m.m.m.m.m.m.m.m.m.m.m.m.m.m.m.m.m.m.m.m.m.m.m.m.m.m.m.m.m.m.m.",
"m.m.m.m.m.m.m.m.m.m.m.m.m.m.m.m.m.m.m.m.m.m.m.m.m.m.m.m.m.m.m.m.m.m.m.m.m.m.m.m.m.m.m.m.m.m.m.m.m.m.m.m.m.m.m.m.m.m.m.m.m.m.m.m.",
"m.m.m.m.m.m.m.m.m.m.m.m.m.m.m.m.m.m.m.m.m.m.m.m.m.m.m.m.m.m.m.m.m.m.m.m.m.m.m.m.m.m.m.m.m.m.m.m.m.m.m.m.m.m.m.m.m.m.m.m.m.m.m.m.",
"m.m.m.m.m.m.m.m.m.m.m.m.m.m.m.m.m.m.m.m.m.m.m.m.m.m.m.m.m.m.m.m.m.m.m.m.m.m.m.m.m.m.m.m.m.m.m.m.m.m.m.m.m.m.m.m.m.m.m.m.m.m.m.m.",
"m.m.m.m.m.m.m.m.m.m.m.m.m.m.m.m.m.m.m.m.m.m.m.m.m.m.m.m.m.m.m.m.m.m.m.m.m.m.m.m.m.m.m.m.m.m.m.m.m.m.m.m.m.m.m.m.m.m.m.m.m.m.m.m.",
"m.m.m.m.m.m.m.m.m.m.m.m.m.m.m.m.m.m.m.m.m.m.m.m.m.m.m.m.m.m.m.m.m.m.m.m.m.m.m.m.m.m.m.m.m.m.m.m.m.m.m.m.m.m.m.m.m.m.m.m.m.m.m.m.",
"m.m.m.m.m.m.m.m.m.m.m.m.m.m.m.m.m.m.m.m.m.m.m.s.s.m.m.m.m.m.m.m.m.m.m.m.m.m.m.m.m.m.m.m.m.m.m.m.m.m.m.m.m.m.m.m.m.m.m.m.m.m.m.m.",
"m.m.m.m.m.m.m.m.m.m.m.m.m.m.m.m.m.m.m.m.m.m.m.s.s.m.m.m.m.m.m.m.m.m.m.m.m.m.m.m.m.m.m.m.m.m.m.m.m.m.m.m.m.m.m.m.m.m.m.m.m.m.m.m.",
"m.m.m.m.m.m.m.m.m.m.m.m.m.m.m.m.m.s.s.m.m.m.m.s.s.m.m.m.m.s.s.m.m.m.m.m.m.m.m.m.m.m.m.m.m.m.m.m.m.m.m.m.m.m.m.m.m.m.m.m.m.m.m.m.",
"m.m.m.m.m.m.m.m.m.m.m.m.m.m.m.m.m.s.s.m.m.m.m.s.s.m.m.m.m.s.s.m.m.m.m.m.m.m.m.m.m.m.m.m.m.m.m.m.m.m.m.m.m.m.m.m.m.m.m.m.m.m.m.m.",
"m.m.m.m.m.m.m.m.m.m.m.m.m.m.m.m.m.m.m.s.s.m.m.m.m.m.m.s.s.m.m.m.m.m.m.m.m.m.m.m.m.m.m.m.m.m.m.m.m.m.m.m.m.m.m.m.m.s.s.m.m.m.m.m.",
"m.m.m.m.m.m.m.m.m.m.m.m.m.m.m.m.m.m.m.s.s.m.m.m.m.m.m.s.s.m.m.m.m.m.m.m.m.m.m.m.m.m.m.m.m.m.m.m.m.m.m.m.m.m.m.m.m.s.s.m.m.m.m.m.",
"s.m.m.m.m.m.m.m.m.m.m.m.m.m.m.m.m.m.m.m.m.m.m.m.m.m.m.m.m.m.m.m.m.m.m.m.m.m.m.m.m.m.m.m.m.m.m.m.m.m.m.s.s.m.m.m.m.s.s.m.m.m.m.s.",
"s.m.m.m.m.m.m.m.m.m.m.m.m.m.m.m.m.m.m.m.m.m.m.m.m.m.m.m.m.m.m.m.m.m.m.m.m.m.m.m.m.m.m.m.m.m.m.m.m.m.m.s.s.m.m.m.m.s.s.m.m.m.m.s.",
"m.m.m.m.m.m.m.m.m.m.m.m.m.m.m.m.m.m.m.m.m.m.m.m.m.m.m.m.m.v.a.z.m.m.m.m.m.m.m.m.m.m.m.m.m.m.m.m.m.m.m.m.m.s.s.m.m.m.m.m.m.s.s.m.",
"m.m.m.m.m.m.m.m.m.m.m.m.m.m.m.m.m.m.m.m.m.m.m.m.m.m.m.m.m.v.' a.m.m.m.v.v.m.m.m.m.m.m.m.m.m.m.m.m.m.m.m.m.s.s.m.m.m.m.m.m.s.s.m.",
"m.m.m.m.m.m.m.m.m.m.m.m.m.m.m.m.m.m.m.m.v.m.m.m.m.m.m.m.m.m.v.v.v.v.z.a a.m.m.m.m.m.m.m.m.m.m.m.m.m.m.m.m.m.m.m.m.m.m.m.m.m.m.m.",
"m.m.m.m.m.m.m.m.m.m.m.m.m.m.m.m.m.m.m.v.m.m.b.v.m.m.m.m.m.m.m.m.v.v.a % a.m.m.m.m.m.m.m.m.m.m.m.m.m.m.m.m.m.m.m.m.m.m.m.m.m.m.m.",
"m.m.m.m.m.m.m.m.m.m.m.m.m.m.m.m.m.m.m.m.m.l.d.h.l.m.m.m.m.m.m.m.v.v.0 y G.m.m.m.m.m.m.m.m.m.m.m.m.m.m.m.m.m.m.m.m.m.m.m.m.m.m.m.",
"m.m.m.m.m.m.m.m.m.m.m.m.m.m.m.m.m.m.m.m.m.j < < j m.m.m.m.m.m.m.v.' % j.W.m.m.m.m.m.m.m.m.m.m.m.m.m.m.m.m.m.m.m.m.m.m.m.m.m.m.m.",
"m.m.m.m.m.m.m.m.m.m.m.m.m.m.m.m.m.m.m.m.m.j < < j m.m.m.m.W.W.g.'   a H.W.m.m.m.m.W.W.m.m.m.m.m.m.m.m.m.m.m.m.m.m.m.m.m.m.m.m.m.",
"m.m.m.m.m.m.m.m.m.m.m.m.m.m.m.m.m.m.m.m.m.{ 8 8 { m.m.m.m.W.H.h   _ f.J.J.b.m.m.m.W.W.m.m.m.m.m.m.m.m.m.m.m.m.m.m.m.m.m.m.m.m.m.",
"m.m.m.m.m.m.m.m.m.m.m.m.m.m.m.m.m.m.m.m.m.x.z.x.v.m.m.m.m.m.a.% . w G Q Q ,.m.W.W.m.m.m.m.m.m.m.m.m.m.m.m.m.m.m.m.m.m.m.m.m.m.m.",
"m.m.m.m.m.m.m.m.m.m.m.m.m.m.m.m.m.m.m.m.m.m.m.m.m.m.m.m.m.m.p.X . x B N B P >.W.W.m.m.m.m.m.m.m.m.m.m.m.m.m.m.m.m.m.m.m.m.m.m.m.",
"m.m.m.m.m.m.m.m.m.m.m.m.m.m.m.m.m.m.m.m.m.m.m.m.m.m.m.m.m.m.p.    x B B B B ,.m.m.m.m.m.m.m.m.m.m.m.m.m.m.m.m.m.m.m.m.m.m.m.m.m.",
"m.m.m.m.m.m.m.m.m.m.m.m.m.m.m.m.m.m.m.m.m.m.m.m.m.a.x.m.v.v.[ X . z B B B E N.m.m.m.m.m.m.m.m.m.m.m.m.m.m.m.m.m.m.m.m.m.m.m.m.m.",
"m.m.m.m.m.m.m.m.m.m.m.m.m.m.m.m.m.m.m.m.m.m.m.m.m.v.m.m.z.s * X . X v B N D x.m.m.m.m.m.m.m.m.m.m.m.m.m.m.m.m.m.m.m.m.m.m.m.m.m.",
"m.m.m.m.m.m.m.m.m.m.m.m.m.m.m.m.m.m.m.m.m.m.m.m.m.m.m.m.d.O X - 1 < p B.{ y x.m.m.m.m.m.m.m.m.m.m.m.m.m.m.m.m.m.m.m.m.m.m.m.m.m.",
"m.m.m.m.m.m.m.m.m.m.m.m.m.m.m.m.m.m.m.m.m.m.m.m.m.m.m.v.' O X 1 n v ( m.v.v.v.m.m.m.m.m.m.m.m.m.m.m.m.m.m.m.m.m.m.m.m.m.m.m.m.m.",
"m.m.m.m.m.m.m.m.m.m.m.m.m.m.m.m.m.m.m.m.m.m.m.m.m.m.m.x.q O X 2 v n >.m.m.m.v.v.m.b.b.m.m.m.m.m.m.m.m.m.m.m.m.m.m.m.m.m.m.m.m.m.",
"m.m.m.m.m.m.m.m.m.m.m.m.m.m.m.m.m.m.m.m.m.m.m.m.m.m.v.f.& O X @ , 9 d.m.G.v.m.m.x.g g h.v.m.m.m.m.m.m.m.m.m.m.m.m.m.m.m.m.m.m.m.",
"m.m.m.m.m.m.m.m.m.m.m.m.m.m.m.m.m.m.m.m.m.m.m.m.m.m.m.h + + + + X X a z.G.m.m.v.g 2 2 r b.m.m.m.m.m.m.m.m.m.m.m.m.m.m.m.m.m.m.m.",
"m.m.m.m.m.m.m.m.m.m.m.m.m.m.m.m.m.m.m.m.m.m.m.m.b.m.z.p @ 1 k k = X 4 u B.S.m.v.g 2 2 r b.M.m.m.m.m.m.m.m.m.m.m.m.m.m.m.m.m.m.m.",
"m.m.m.m.m.m.m.m.m.m.m.m.m.m.m.m.m.m.m.m.m.m.m.m.Z.c.p.o - l l l , 5 J 2.W / n.b.} 2 9 i v.m.m.m.m.m.m.m.m.m.m.m.m.m.m.m.m.m.m.m.",
"m.m.m.m.m.m.m.m.m.m.m.m.m.m.m.m.m.m.m.m.m.m.m.x./ F D @ - c l l 2 b K A.W Q S.b.i 1 i l.b.m.m.m.m.m.m.m.m.m.m.m.m.m.m.m.m.m.m.m.",
"m.m.m.m.m.m.m.m.m.m.m.m.m.m.m.m.m.m.m.m.m.m.m.Z.F M M < @ 1 x l 5 V L A.W Q n.b.r , 6 h.m.m.m.m.m.m.m.m.m.m.m.m.m.m.m.m.m.m.m.m.",
"m.m.m.m.m.m.m.m.m.m.m.m.m.m.m.m.m.m.m.m.m.m.v.b./ M n > O # C Y I Y T O. .~ n.v.^ x ^ v.m.m.m.m.m.m.m.m.m.m.m.m.m.m.m.m.m.m.m.m.",
"m.m.m.m.m.m.m.m.m.m.m.m.m.m.m.m.m.m.m.m.m.m.v.v.d ; = O O b T | O.O.R  .X.%.S.n.:.L ! C.m.m.m.m.m.m.m.m.m.m.m.m.m.m.m.m.m.m.m.m.",
"m.m.m.m.m.m.m.m.m.m.m.m.m.m.m.m.m.m.m.m.m.m.m.` O O + + : Z ..&.&.&.$. . .O.3.<.L L L ) n.m.m.m.m.m.m.m.m.m.m.s.s.m.m.m.m.m.m.m.",
"m.m.m.m.m.m.m.m.m.m.m.m.m.m.m.m.m.m.m.m.m.m.k.e + + @ : > Z #.&.&.&.$.@. .X.3.<.L L I ) n.m.m.m.m.m.m.m.m.m.m.s.s.m.m.m.m.m.m.m.",
"m.m.m.m.m.m.m.m.m.m.m.m.m.m.m.m.m.m.m.m.m.m.k.d & # = k z S *.4.4.=.=.=.@.@.<.n.:.I ! C.m.m.m.m.m.i.s.m.m.m.m.s.s.m.m.m.m.s.s.m.",
"m.m.m.m.m.m.m.m.m.m.m.m.m.m.m.m.m.m.m.m.m.m.m.m.] > x m m o.r.u.u.r.9.6.6.-.;.S.V.B.C.m.m.m.m.m.m.i.s.m.m.m.m.s.s.m.m.m.m.s.s.m.",
"m.m.m.m.m.F.F.m.m.m.m.m.m.m.m.m.m.m.m.m.m.m.m.v.] 7 I | =.r.u.u.u.u.r.6.7.7.5.0.w.S.m.m.m.m.m.m.m.m.m.s.s.m.m.m.m.m.m.s.s.m.m.m.",
"m.m.m.m.m.F.F.m.m.m.m.m.m.m.m.m.m.m.m.m.m.m.v.k.e A R $.9.u.u.u.u.u.u.0.8.8.8.8.8.w.S.m.m.m.m.m.m.m.m.s.s.m.m.m.m.m.m.s.s.m.m.m.",
"F.m.m.m.m.F.F.m.m.m.m.F.F.m.m.m.m.m.m.s.s.b.f.d + Z R $.9.u.u.u.u.u.u.y.8.8.8.8.8.8.q.v.m.m.m.m.m.m.m.m.m.m.m.m.m.m.m.m.m.m.m.F.",
"F.m.m.m.m.F.F.m.m.m.m.F.F.m.m.m.m.m.m.s.s.z.q 3 4 A R @.4.r.u.u.u.u.I.R.I.8.8.8.8.8.q.v.m.m.m.m.m.m.m.m.m.m.m.m.m.m.m.m.m.m.m.F.",
"m.F.F.m.m.m.m.m.m.F.F.m.m.m.m.m.m.m.m.m.m._ $ 4 7 7 U $.-.9.I.I.P.I.Q.!.!.I.8.8.8.7.1.v.m.m.m.m.m.m.m.m.m.m.m.m.m.m.m.m.m.m.m.m.",
"m.F.F.m.m.m.m.m.m.F.F.m.m.m.m.m.m.m.m.m.m.s._ e t r b +.-.t.E.E.R.E.Q.Q.Q.!.u.8.8.H a v.m.m.m.m.m.m.m.m.m.m.m.m.m.m.m.m.m.m.m.m.",
"m.m.m.m.m.m.m.m.m.m.m.m.m.m.m.m.m.m.m.m.m.m.b.x.x.d Z &.*.L.Q.Q.E.R.R.R.E.Q.E.r.H + $ g.m.m.m.m.m.m.m.m.v.m.m.m.m.m.m.m.m.m.m.m.",
"m.m.m.m.m.m.m.m.m.m.m.m.m.m.m.m.m.m.m.m.m.m.m.m.b.` Z =.&.L.Q.Q.Q.E.R.R.R.E.R.w.3 + $ g.m.m.m.m.m.m.m.v.m.m.m.m.m.m.m.m.m.m.m.m.",
"m.m.m.m.m.m.m.m.m.m.m.m.m.m.m.m.m.m.m.m.m.m.m.m.m.x.:.*.*.L.Q.Q.Q.E.Y.R.R.R.R.t.f h [ v.m.m.m.m.m.m.m.m.m.m.m.m.m.m.m.m.m.m.m.m.",
"m.m.m.m.m.m.m.m.m.m.m.m.m.m.m.m.m.m.m.m.m.m.m.m.m.b.D.=.*.K.Q.Q.Q.R.Y.R.R.R.U.e.S.m.m.m.m.m.m.m.m.m.m.m.m.m.m.m.m.m.m.m.m.m.m.m."
};
