/* XPM */
static char *wall_9[] = {
/* columns rows colors chars-per-pixel */
"64 64 178 2 ",
"   c #140505",
".  c #190706",
"X  c #1F0908",
"o  c #1E1612",
"O  c #210708",
"+  c #230B09",
"@  c #2C0D0B",
"#  c #310E0B",
"$  c #3F0F0D",
"%  c #291509",
"&  c #331307",
"*  c #33120C",
"=  c #3B140D",
"-  c #3A190D",
";  c #1C221A",
":  c #23261D",
">  c #342D23",
",  c #28362B",
"<  c #30372E",
"1  c #410F0D",
"2  c #47160D",
"3  c #591207",
"4  c #431C11",
"5  c #6F1B0A",
"6  c #54240E",
"7  c #572714",
"8  c #71260D",
"9  c #70340E",
"0  c #70341A",
"q  c #712E24",
"w  c #7B3C32",
"e  c #2B4536",
"r  c #334B3A",
"t  c #3C4B3B",
"y  c #744316",
"u  c #7A4E1C",
"i  c #78501F",
"p  c #7D572D",
"a  c #3C5F4B",
"s  c #3D644F",
"d  c #2E6D53",
"f  c #30755A",
"g  c #465D4E",
"h  c #7D5E45",
"j  c #4B6654",
"k  c #44735B",
"l  c #4D775E",
"z  c #707655",
"x  c #477C62",
"c  c #4A7C62",
"v  c #697D63",
"b  c #951E03",
"n  c #892706",
"m  c #9B2604",
"M  c #883B0A",
"N  c #963408",
"B  c #B73604",
"V  c #923D26",
"C  c #C33D04",
"Z  c #97400A",
"A  c #864816",
"S  c #924C13",
"D  c #AD4E0D",
"F  c #B65513",
"G  c #95631B",
"H  c #BA6715",
"J  c #915521",
"K  c #934732",
"L  c #80523D",
"P  c #9C5F3D",
"I  c #B44A24",
"U  c #BE7F24",
"Y  c #A96031",
"T  c #C64A0D",
"R  c #D25509",
"E  c #D45E0C",
"W  c #CE610F",
"Q  c #D9610D",
"!  c #D76811",
"~  c #DE7616",
"^  c #D37718",
"/  c #E17511",
"(  c #E37C15",
")  c #CF5724",
"_  c #C96823",
"`  c #885640",
"'  c #86614F",
"]  c #9D7346",
"[  c #877857",
"{  c #9E6F68",
"}  c #A77E78",
"|  c #4D856A",
" . c #50876B",
".. c #5C856A",
"X. c #5F8F72",
"o. c #579475",
"O. c #56997A",
"+. c #648B77",
"@. c #DA831F",
"#. c #E68217",
"$. c #E58519",
"%. c #E88418",
"&. c #E7891B",
"*. c #E88C1C",
"=. c #E9901E",
"-. c #DC9728",
";. c #E08E21",
":. c #E99321",
">. c #ED9D26",
",. c #EC9C29",
"<. c #E08F37",
"1. c #EB9F3C",
"2. c #EEA027",
"3. c #EFA42A",
"4. c #F0A52A",
"5. c #F0AA2E",
"6. c #EBA232",
"7. c #F4B734",
"8. c #F5BB36",
"9. c #F6BD39",
"0. c #F7C23A",
"q. c #F8C43C",
"w. c #FACC3E",
"e. c #BA9054",
"r. c #998465",
"t. c #8EA47F",
"y. c #98AD7E",
"u. c #D6934E",
"i. c #EBA543",
"p. c #C49B64",
"a. c #C5A367",
"s. c #CFB268",
"d. c #F7C443",
"f. c #F9CA49",
"g. c #FBD343",
"h. c #FDD946",
"j. c #FDDA4A",
"k. c #F8C953",
"l. c #FDDA58",
"z. c #FEE26C",
"x. c #FEE476",
"c. c #719D86",
"v. c #5DA483",
"b. c #5EA987",
"n. c #40B088",
"m. c #62A986",
"M. c #62AD8A",
"N. c #74AD8A",
"B. c #7FAC88",
"V. c #64B38F",
"C. c #65B591",
"Z. c #69BB95",
"A. c #6CBE98",
"S. c #73BF99",
"D. c #6FC59E",
"F. c #72C39C",
"G. c #70C8A0",
"H. c #B3908A",
"J. c #91AB86",
"K. c #95B28A",
"L. c #84B394",
"P. c #8BC095",
"I. c #8AC0A5",
"U. c #88D8B8",
"Y. c #9DDBBC",
"T. c #DBC58B",
"R. c #FEE486",
"E. c #FCE497",
"W. c #FDE79C",
"Q. c #FFEC9A",
"!. c #FEEEA4",
"~. c #FFF1AE",
"^. c #FEEEB2",
"/. c #FFF1B5",
"(. c #FFF3BC",
"). c #A0E0C0",
"_. c #FFF4C4",
"`. c #FFF5C8",
/* pixels */
"G.G.G.G.G.G.G.G.G.G.G.G.G.G.G.G.G.G.G.G.G.G.G.G.G.G.G.G.G.G.G.G.G.G.G.G.G.G.G.G.G.G.G.G.G.G.G.G.G.G.G.G.G.G.G.G.G.G.G.G.G.G.G.G.",
"G.G.G.G.G.G.G.G.G.G.G.G.G.G.G.G.G.G.G.G.G.G.G.G.G.G.G.G.G.G.G.G.G.G.G.G.G.G.G.G.G.G.G.G.G.G.G.G.G.G.G.G.G.G.G.G.G.G.G.G.G.G.G.G.",
"G.G.G.G.G.G.G.G.G.G.G.G.G.G.G.G.G.G.G.G.G.G.G.G.G.G.G.G.G.G.G.G.G.G.G.G.G.G.G.G.G.G.G.G.G.G.G.G.G.G.G.G.G.G.G.G.G.G.G.G.G.G.G.G.",
"G.G.G.G.G.G.G.G.G.G.G.G.G.G.G.G.G.G.G.G.G.G.G.G.G.G.G.G.G.G.G.G.G.G.G.G.G.G.G.G.G.G.G.G.G.G.G.G.G.G.G.G.G.G.G.G.G.G.G.G.G.G.G.G.",
"G.G.G.G.G.G.G.G.G.G.G.G.G.G.G.G.G.G.G.G.G.G.G.G.G.G.G.G.G.G.G.G.G.G.G.G.G.G.G.G.G.G.G.G.G.G.G.G.G.G.G.G.G.G.G.G.G.G.G.G.G.G.G.G.",
"G.G.G.G.G.G.G.G.G.G.).).G.G.G.G.G.G.G.G.G.G.G.G.G.G.G.G.G.G.G.G.G.G.G.G.G.G.G.G.G.G.G.G.G.G.G.G.G.G.G.G.G.G.G.G.G.G.G.G.G.G.G.G.",
"G.G.G.G.G.G.G.G.G.G.).).G.G.G.G.G.G.G.G.G.G.G.G.G.G.G.G.G.G.G.G.G.G.G.G.G.G.G.G.G.G.G.G.G.G.G.G.G.G.G.G.G.G.G.G.G.G.G.G.G.G.G.G.",
"G.G.G.G.).).G.G.G.G.).).G.G.G.G.).).G.G.G.G.G.G.G.G.G.G.G.G.G.G.G.G.G.G.G.G.G.G.G.G.G.G.G.G.G.G.G.G.G.G.G.G.G.G.G.G.G.G.G.G.G.G.",
"G.G.G.G.).).G.G.G.G.).).G.G.G.G.).).G.G.G.G.G.G.G.G.G.G.G.G.G.G.G.G.G.G.G.G.D.G.G.G.G.G.G.G.G.G.G.G.G.G.G.G.G.G.G.G.G.G.G.G.G.G.",
"G.G.G.G.G.G.).).G.G.G.G.G.G.).).G.G.G.G.G.G.G.G.G.G.G.G.G.G.G.G.G.G.G.G.G.D.G.G.G.G.G.G.G.G.G.G.G.G.G.G.G.G.G.G.G.G.G.G.G.G.G.G.",
"G.G.G.G.G.G.).).G.G.G.G.G.G.).).G.G.G.G.G.G.G.G.G.G.G.G.G.G.G.G.G.G.G.G.G.G.G.G.G.G.G.G.G.G.G.G.G.G.G.G.G.G.G.G.G.G.G.G.G.G.G.G.",
"G.G.G.G.G.G.G.G.G.G.G.G.G.G.G.G.G.G.G.G.G.G.G.G.G.G.G.G.G.G.G.G.G.G.G.G.G.G.G.G.G.G.G.G.G.G.G.G.G.G.G.G.G.G.G.G.G.G.G.G.G.G.G.G.",
"G.G.G.G.G.G.G.G.G.G.G.G.G.G.G.G.G.G.G.G.G.G.G.G.G.G.G.G.G.G.G.G.G.G.G.G.G.G.G.G.G.G.G.G.G.G.G.G.G.G.G.G.G.G.G.G.G.G.G.G.G.G.G.G.",
"G.G.G.G.G.G.G.G.G.G.G.G.G.G.G.G.G.G.G.G.G.G.G.G.G.G.G.G.G.G.G.G.G.G.G.G.G.G.G.G.G.G.G.G.G.G.G.G.G.G.G.G.G.G.G.G.G.G.G.G.G.G.G.G.",
"G.G.G.G.G.G.G.G.G.G.G.G.G.G.G.G.G.G.G.G.G.G.G.G.G.G.G.G.G.G.G.G.G.G.G.G.G.C.D.G.G.G.G.G.G.G.G.G.G.G.G.G.G.G.G.G.G.G.G.G.G.G.G.G.",
"G.G.G.G.G.G.G.G.G.G.G.G.G.G.G.G.G.G.G.G.G.G.G.G.G.G.G.G.G.G.G.G.G.G.G.G.G.C.D.D.G.G.G.G.G.G.G.G.G.G.G.G.G.G.G.G.G.G.G.G.G.G.G.G.",
"G.G.G.G.G.G.G.G.G.G.G.G.G.G.G.G.G.G.G.G.G.G.G.G.G.G.G.G.G.G.G.G.G.G.G.G.G.G.G.G.G.G.G.G.G.G.G.G.G.G.G.G.G.G.G.G.G.G.G.G.G.G.G.G.",
"G.G.G.G.G.G.G.G.G.G.G.G.G.G.G.G.G.G.G.G.G.G.G.G.G.G.G.G.G.G.G.G.G.G.G.G.G.G.G.G.G.G.G.G.G.G.G.G.G.G.G.G.G.G.G.G.G.G.G.G.G.G.G.G.",
"G.G.G.G.G.G.G.G.G.G.G.G.G.G.G.G.G.G.G.G.G.G.G.n.n.G.G.G.G.G.G.G.G.G.G.G.G.G.G.G.G.G.G.G.G.G.G.G.G.G.G.G.G.G.G.G.G.G.G.G.G.G.G.G.",
"G.G.G.G.G.G.G.G.G.G.G.G.G.G.G.G.G.G.G.G.G.G.G.n.n.G.G.G.G.G.G.G.G.G.G.G.G.G.G.G.G.G.G.G.G.G.G.G.G.G.G.G.G.G.G.G.G.G.G.G.G.G.G.G.",
"G.G.G.G.G.G.G.G.G.G.G.G.G.G.G.G.G.n.n.G.G.G.G.n.n.G.G.G.G.n.n.G.G.G.G.G.G.G.G.G.G.G.G.G.G.G.G.G.G.G.G.G.G.G.G.G.G.G.G.G.G.G.G.G.",
"G.G.G.G.G.G.G.G.G.G.G.G.G.G.G.G.G.n.n.G.G.G.G.n.n.G.G.G.G.n.n.G.G.G.G.G.G.G.G.G.G.G.G.G.G.G.G.G.G.G.G.G.G.G.G.G.G.G.G.G.G.G.G.G.",
"G.G.G.G.G.G.G.G.G.G.G.G.G.G.G.G.G.G.G.n.n.G.G.G.G.G.G.n.n.G.G.G.G.G.G.G.G.G.G.G.G.G.G.G.G.G.G.G.G.G.G.G.G.G.G.G.G.n.n.G.G.G.G.G.",
"G.G.G.G.G.G.G.G.G.G.G.G.G.G.G.G.G.G.G.n.n.G.G.G.G.G.G.n.n.G.G.G.G.G.G.G.G.G.G.G.G.G.G.G.G.G.G.G.G.G.G.G.G.G.G.G.G.n.n.G.G.G.G.G.",
"n.G.G.G.G.G.G.G.G.G.G.G.G.G.G.G.G.G.G.G.G.G.G.G.G.G.G.G.G.G.G.G.G.G.G.G.G.G.G.G.G.G.G.G.G.G.G.G.G.G.G.n.n.G.G.G.G.n.n.G.G.G.G.n.",
"n.G.G.G.G.G.G.G.G.G.G.G.G.G.G.G.G.G.G.G.G.G.G.G.G.G.G.G.G.G.G.G.G.G.G.G.G.G.G.G.G.G.G.G.G.G.G.G.G.G.G.n.n.G.G.G.G.n.n.G.G.G.G.n.",
"G.G.G.G.G.G.G.G.G.G.G.G.G.G.G.G.G.G.G.G.G.G.G.G.G.G.G.G.G.G.D.D.G.G.G.G.G.G.G.G.G.G.G.G.G.G.G.G.G.G.G.G.G.n.n.G.G.G.G.G.G.n.n.G.",
"G.G.G.G.G.G.G.G.G.G.G.G.G.G.G.G.G.G.G.G.G.G.G.G.G.G.G.G.G.G.G.D.G.G.G.G.G.G.G.G.G.G.G.G.G.G.G.G.G.G.G.G.G.n.n.G.G.G.G.G.G.n.n.G.",
"G.G.G.G.G.G.G.G.G.G.G.G.G.G.G.G.G.G.G.G.D.G.G.G.G.G.G.C.D.G.D.D.C.G.G.G.G.G.G.G.G.G.G.G.G.G.G.G.G.G.G.G.G.G.G.G.G.G.G.G.G.G.G.G.",
"G.G.G.G.G.G.G.G.G.G.G.G.G.G.G.G.G.G.G.D.G.G.G.G.G.G.G.C.D.G.D.o.b.G.G.D.G.G.G.G.G.G.G.G.G.G.G.G.G.G.G.G.G.G.G.G.G.G.G.G.G.G.G.G.",
"G.G.G.G.G.G.G.G.G.G.G.G.G.G.G.G.G.G.G.G.G.G.G.G.G.G.G.G.D.G.o., v.D.D.).).G.G.G.G.G.G.G.G.G.G.G.G.G.G.G.G.G.G.G.G.G.G.G.G.G.G.G.",
"G.G.G.G.G.G.G.G.G.G.G.G.G.G.G.G.G.G.G.G.G.G.G.G.G.G.G.G.G.A., e C.D.D.Y.).G.G.G.G.G.G.G.G.G.G.G.G.G.G.G.G.G.G.G.G.G.G.G.G.G.G.G.",
"G.G.G.G.G.G.G.G.G.G.G.G.G.G.G.G.G.G.G.G.G.G.G.G.G.G.G.G.G.I., ; v. .| g S.S.G.G.G.).).G.G.G.G.G.G.G.G.G.G.G.G.G.G.G.G.G.G.G.G.G.",
"G.G.G.G.G.G.G.G.G.G.G.G.G.G.G.G.G.G.G.G.G.G.G.G.G.G.G.G.G.+.. e b.r O O j Z.G.G.G.).).G.G.G.G.G.G.G.G.G.G.G.G.G.G.G.G.G.G.G.G.G.",
"G.G.G.G.G.G.G.G.G.G.G.G.G.G.G.G.G.G.G.G.G.G.G.G.G.G.G.G.G.x . o , O X X : m.G.).).G.G.G.G.G.G.G.G.G.G.G.G.G.G.G.G.G.G.G.G.G.G.G.",
"G.G.G.G.G.G.G.G.G.G.G.G.G.G.G.G.G.G.G.G.G.G.G.G.G.G.G.G.G.x . c.m.# # @ s Z.G.).).G.G.G.G.G.G.G.G.G.G.G.G.G.G.G.G.G.G.G.G.G.G.G.",
"G.G.G.G.G.G.G.G.G.G.G.G.G.G.G.G.G.G.G.G.G.G.G.G.G.G.G.G.G.x . v.o.1 1 @ c A.D.G.G.G.G.G.G.G.G.G.G.G.G.G.G.G.G.G.G.G.G.G.G.G.G.G.",
"G.G.G.G.G.G.G.G.G.G.G.G.G.G.G.G.G.G.G.G.G.G.G.G.G.G.G.G.G.x . O.g 1 1 @ g v A.G.G.G.G.G.G.G.G.G.G.G.G.G.G.G.G.G.G.G.G.G.G.G.G.G.",
"G.G.G.G.G.G.G.G.G.G.G.G.G.G.G.G.G.G.G.G.G.G.G.G.G.G.G.G.G.x . O.< # O + 3 3 ..G.G.G.G.G.G.G.G.G.G.G.G.G.G.G.G.G.G.G.G.G.G.G.G.G.",
"G.G.G.G.G.G.G.G.G.G.G.G.G.G.G.G.G.G.G.G.G.G.G.G.G.G.N.v v t . a > @ O  ...g M.G.G.G.G.G.G.F.v N.G.G.G.G.G.G.G.G.G.G.G.G.G.G.G.G.",
"G.G.G.G.G.G.D.G.G.G.G.G.G.G.G.G.G.G.G.G.G.G.G.G.G.B.' { 5 2 X * * @ a b.G.A.G.G.G.G.G.G.G.v b ` F.G.G.G.G.G.G.G.G.G.G.G.G.G.G.G.",
"G.G.G.G.G.G.G.G.G.G.G.G.G.G.G.G.G.G.G.G.G.G.G.G.G.} 5 H.w 3 1 = # @ | D.G.G.G.G.G.G.G.G.G.N.` h F.G.G.G.G.G.G.G.G.G.G.G.G.G.G.G.",
"G.G.G.G.G.G.G.G.G.G.G.G.G.G.G.G.G.G.G.G.G.G.G.G.J.B n q } V n * @ > v.G.G.G.G.D.G.G.G.G.G.G.S.S.F.G.G.G.G.G.G.G.G.G.G.G.G.G.G.G.",
"G.G.G.G.G.G.G.G.G.G.G.G.G.G.G.G.G.G.G.G.G.G.G.G.J.T B m I ) N $ @ @ c G.S.S.S.D.G.G.G.G.G.G.G.G.G.G.G.G.G.G.G.G.G.G.G.G.G.G.G.G.",
"G.G.G.G.G.G.G.G.G.G.G.G.G.G.G.G.G.G.G.G.G.G.G.G.F.e.C C T R W S y 0 [ t.L K K J.G.G.G.G.G.G.G.G.G.G.G.G.G.G.G.G.G.G.G.G.G.G.G.G.",
"G.G.G.G.G.G.G.G.G.G.G.G.G.G.G.G.G.G.G.G.G.G.G.G.D.L.r.B E Q ! :.2.4.2.@.F m b [ G.G.G.G.G.G.G.G.G.G.G.G.G.G.G.G.G.G.G.G.G.G.G.G.",
"G.G.G.G.G.G.G.G.G.G.G.G.G.G.G.G.G.G.G.G.G.G.G.G.D.V.r Z E E ~ 2.2.2.,.3.^ b b K S.G.G.G.G.G.G.G.G.G.G.G.G.G.G.G.G.G.G.G.G.G.G.G.",
"G.G.G.G.G.G.G.G.G.G.G.G.G.G.G.G.G.G.G.G.G.G.G.G.D.k   M Q E ~ 2.2.>.2.2.^ F W _ e.K.G.G.G.G.G.G.G.G.G.G.G.G.G.G.G.G.G.G.G.G.G.G.",
"G.G.G.G.G.G.G.G.G.G.G.G.G.G.G.G.G.G.G.G.G.G.G.G.b.;   & W W ~ 2.:.=.=.>.=.$.&.&.:._ K.G.G.G.G.G.G.G.G.G.G.G.G.G.G.G.G.G.G.G.G.G.",
"G.G.G.G.G.G.G.G.G.G.G.G.G.G.G.G.G.G.G.G.G.G.D.F.| + % & 9 D W ~ $.#.#.&.&.&.%.&.:.$.p.G.G.G.G.G.G.G.G.G.G.G.G.G.G.G.G.G.G.G.G.G.",
"G.G.G.G.G.G.G.G.G.G.G.G.G.G.G.G.G.G.G.G.G.G.G.D.| G -.-.-.A 8 W %.$.#.$.&.&.&.%.:.( p.G.G.G.G.G.G.G.G.G.G.G.G.n.n.G.G.G.G.G.G.G.",
"G.G.G.G.G.G.G.G.G.G.G.G.G.G.G.G.G.G.G.G.G.G.G.D.b.e.5.5.5.U 8 W #.#.#.$.$.&.&.&.%.:.a.G.G.G.G.G.G.G.G.G.G.G.G.n.n.G.G.G.G.G.G.G.",
"G.G.G.G.G.G.G.G.G.G.G.G.G.G.G.G.G.G.G.G.G.G.G.G.D.s.3.3.5.;.Y 1.=.*./ / ( &.&.&.%.<.P.G.G.G.G.G.G.n.n.G.G.G.G.n.n.G.G.G.G.n.n.G.",
"G.G.G.G.G.G.G.G.G.G.G.G.G.G.G.G.G.G.G.G.G.G.G.G.V.e.2.3.2.#.i.E.f.0.5.*./ %.&.&.~ ] G.G.G.G.G.G.G.n.n.G.G.G.G.n.n.G.G.G.G.n.n.G.",
"G.G.G.G.G.U.U.G.G.G.G.G.G.G.G.G.G.G.G.G.G.G.G.G.F.P #.=.~ *.8.f.W.l.j.g.*./ $.F 6 ..G.G.G.G.G.G.G.G.G.n.n.G.G.G.G.G.G.n.n.G.G.G.",
"G.G.G.G.G.U.U.G.G.G.G.G.G.G.G.G.G.G.G.G.G.G.D.Z.s n R #.5.w.w.w.l.z.j.h.f.;.u.z > X.D.G.G.G.G.G.G.G.G.n.n.G.G.G.G.G.G.n.n.G.G.G.",
"U.G.G.G.G.U.U.G.G.G.G.U.U.G.G.G.G.G.G.n.n.G.D. .+ N ! 7.h.j.z.x.x.k.0.0.q.7.6.y.v.G.G.G.G.G.G.G.G.G.G.G.G.G.G.G.G.G.G.G.G.G.G.U.",
"U.G.G.G.G.U.U.G.G.G.G.U.U.G.G.G.G.G.G.n.n.D.V.r 6 ^ >.g.h.R._.`.`.W.f.d.d.0.0.z c V.G.G.G.G.G.G.G.G.G.G.G.G.G.G.G.G.G.G.G.G.G.U.",
"G.U.U.G.G.G.G.G.G.U.U.G.G.G.G.G.G.G.G.G.G.f : + S #.=.w.h.Q.`._._.(./.^.E.f.q.u O c C.G.G.G.G.G.G.G.G.G.G.G.G.G.G.G.G.G.G.G.G.G.",
"G.U.U.G.G.G.G.G.G.U.U.G.G.G.G.G.G.G.G.G.G.d X % ^ #.#.9.j.!.`._._._._.(.(.E.q.u @ # a C.G.G.G.G.G.G.G.G.G.G.G.G.G.G.G.G.G.G.G.G.",
"G.G.G.G.G.G.G.G.G.G.G.G.G.G.G.G.G.G.G.G.D.l X 4 ^ $.$.8.z.Q._._._._._.(.(./.k.i # # # m.G.G.G.G.G.G.G.G.G.G.G.G.G.G.G.G.G.G.G.G.",
"G.G.G.G.G.G.G.G.G.G.G.G.G.G.G.G.G.G.G.G.D.m., 7 F $.$.,.x.x./.(._._._.(.(.(.E.i # = = c F.G.G.G.G.G.G.G.G.G.G.G.G.G.G.G.G.G.G.G.",
"G.G.G.G.G.G.G.G.G.G.G.G.G.G.G.G.G.G.G.G.G.D.k 4 0 S H $.k.Q././.(.(.(.(././.~.h # > l M.G.G.G.G.G.G.G.G.G.G.G.G.G.G.G.G.G.G.G.G.",
"G.G.G.G.G.G.G.G.G.G.G.G.G.G.G.G.G.G.G.G.G.D.Z.s - % 2 A J T.(./././._.(./.~.Q.p g v.D.G.G.G.G.G.G.G.G.G.G.G.G.G.G.G.G.G.G.G.G.G."
};
