/* XPM */
static char *wall_17[] = {
/* columns rows colors chars-per-pixel */
"64 64 171 2 ",
"   c #160606",
".  c #190707",
"X  c #1A0807",
"o  c #1E0909",
"O  c #181712",
"+  c #240C0A",
"@  c #2B0E0A",
"#  c #2F100C",
"$  c #33110D",
"%  c #3D140C",
"&  c #3C180E",
"*  c #3E1610",
"=  c #37251B",
"-  c #262921",
";  c #253126",
":  c #3F372A",
">  c #41100C",
",  c #48180D",
"<  c #561509",
"1  c #4D1F10",
"2  c #641706",
"3  c #641608",
"4  c #731907",
"5  c #5D210A",
"6  c #552411",
"7  c #5C2A18",
"8  c #692D17",
"9  c #6E3619",
"0  c #453A2E",
"q  c #513222",
"w  c #2A4435",
"e  c #354536",
"r  c #4A4233",
"t  c #54513D",
"y  c #674634",
"u  c #3B5B48",
"i  c #4B5341",
"p  c #4E5C48",
"a  c #48654E",
"s  c #43745C",
"d  c #4D735B",
"f  c #777259",
"g  c #477D63",
"h  c #4A7C62",
"j  c #831C05",
"k  c #882307",
"l  c #922105",
"z  c #94380B",
"x  c #AC2402",
"c  c #BB2B00",
"v  c #B2361A",
"b  c #A4480D",
"n  c #BE4A0A",
"m  c #A45719",
"M  c #B45F13",
"N  c #A5641B",
"B  c #814733",
"V  c #B34C32",
"C  c #B4553A",
"Z  c #B97A38",
"A  c #C24808",
"S  c #D55B0C",
"D  c #CE600F",
"F  c #D9690F",
"G  c #DB6B10",
"H  c #DB7715",
"J  c #E37B13",
"K  c #D87D36",
"L  c #93785D",
"P  c #A2664D",
"I  c #AA765A",
"U  c #398B6B",
"Y  c #4E876B",
"T  c #578469",
"R  c #58866B",
"E  c #568D70",
"W  c #5A9274",
"Q  c #569879",
"!  c #5B9E7E",
"~  c #66886B",
"^  c #729F7E",
"/  c #5DA07F",
"(  c #B6912E",
")  c #E68316",
"_  c #E68519",
"`  c #E78B1B",
"'  c #DF832D",
"]  c #C9952C",
"[  c #DC8336",
"{  c #DF903A",
"}  c #EA9623",
"|  c #EC9A24",
" . c #E9982B",
".. c #EFA42A",
"X. c #F0A62A",
"o. c #F1AB2E",
"O. c #F2AF36",
"+. c #E8B336",
"@. c #F4B838",
"#. c #F8C53C",
"$. c #F9CA3E",
"%. c #958E6F",
"&. c #9C9373",
"*. c #A4996C",
"=. c #A88E77",
"-. c #8CA07F",
";. c #BAB077",
":. c #C6A257",
">. c #E4B04D",
",. c #EFAD50",
"<. c #EDB756",
"1. c #CFA962",
"2. c #D0B669",
"3. c #D3B868",
"4. c #F7C444",
"5. c #F6CB41",
"6. c #FACD41",
"7. c #FBD243",
"8. c #FCD74A",
"9. c #F8CA5B",
"0. c #FDD952",
"q. c #FCD85C",
"w. c #FFE056",
"e. c #FDDC65",
"r. c #FAD569",
"t. c #FBDA76",
"y. c #FEE379",
"u. c #3EA580",
"i. c #5DA584",
"p. c #5EA886",
"a. c #40B088",
"s. c #62AC8A",
"d. c #65B38F",
"f. c #68B692",
"g. c #6BBB95",
"h. c #6CBF99",
"j. c #71BD97",
"k. c #79BD97",
"l. c #6EC49D",
"z. c #73C59D",
"x. c #79C09A",
"c. c #73C89F",
"v. c #70C8A0",
"b. c #8AAA87",
"n. c #90A683",
"m. c #87B28E",
"M. c #A3BA89",
"N. c #A4B99D",
"B. c #82C399",
"V. c #83CDAA",
"C. c #8BCFAE",
"Z. c #97C5A4",
"A. c #88D8B8",
"S. c #9EDDBE",
"D. c #A3C8AB",
"F. c #A2D7BC",
"G. c #FBDC85",
"H. c #FBDF91",
"J. c #FDE38B",
"K. c #FBE097",
"L. c #FFED9D",
"P. c #FCE5A0",
"I. c #FFEFAC",
"U. c #FFF0AE",
"Y. c #FEEFB2",
"T. c #FFF2B5",
"R. c #FFF2BA",
"E. c #B6DEC9",
"W. c #A0E0C0",
"Q. c #CCE7D9",
"!. c #FFF4C2",
/* pixels */
"v.v.v.v.v.v.v.v.v.v.v.v.v.v.v.v.v.v.v.v.v.v.v.v.v.v.v.v.v.v.v.v.v.v.v.v.v.v.v.v.v.v.v.v.v.v.v.v.v.v.v.v.v.v.v.v.v.v.v.v.v.v.v.v.",
"v.v.v.v.v.v.v.v.v.v.v.v.v.v.v.v.v.v.v.v.v.v.v.v.v.v.v.v.v.v.v.v.v.v.v.v.v.v.v.v.v.v.v.v.v.v.v.v.v.v.v.v.v.v.v.v.v.v.v.v.v.v.v.v.",
"v.v.v.v.v.v.v.v.v.v.v.v.v.v.v.v.v.v.v.v.v.v.v.v.v.v.v.v.v.v.v.v.v.v.v.v.v.v.v.v.v.v.v.v.v.v.v.v.v.v.v.v.v.v.v.v.v.v.v.v.v.v.v.v.",
"v.v.v.v.v.v.v.v.v.v.v.v.v.v.v.v.v.v.v.v.v.v.v.v.v.v.v.v.v.v.v.v.v.v.v.v.v.v.v.v.v.v.v.v.v.v.v.v.v.v.v.v.v.v.v.v.v.v.v.v.v.v.v.v.",
"v.v.v.v.v.v.v.v.v.v.v.v.v.v.v.v.v.v.v.v.v.v.v.v.v.v.v.v.v.v.v.v.v.v.v.v.v.v.v.v.v.v.v.v.v.v.v.v.v.v.v.v.v.v.v.v.v.v.v.v.v.v.v.v.",
"v.v.v.v.v.v.v.v.v.v.W.W.v.v.v.v.v.v.v.v.v.v.v.v.v.v.v.v.v.v.v.v.v.v.v.v.v.v.v.v.v.v.v.v.v.v.v.v.v.v.v.v.v.v.v.v.v.v.v.v.v.v.v.v.",
"v.v.v.v.v.v.v.v.v.v.W.W.v.v.v.v.v.v.v.v.v.v.v.v.v.v.v.v.v.v.v.v.v.v.v.v.v.v.v.v.v.v.v.v.v.v.v.v.v.v.v.v.v.v.v.v.v.v.v.v.v.v.v.v.",
"v.v.v.v.W.W.v.v.v.v.W.W.v.v.v.v.W.W.v.v.v.v.v.v.v.v.v.v.v.v.v.v.v.v.v.v.v.v.v.v.v.v.v.v.v.v.v.v.v.v.v.v.v.v.v.v.v.v.v.v.v.v.v.v.",
"v.v.v.v.W.W.v.v.v.v.W.W.v.v.v.v.W.W.v.v.v.v.v.v.v.v.v.v.v.v.v.v.v.v.v.v.v.v.l.v.v.v.v.v.v.v.v.v.v.v.v.v.v.v.v.v.v.v.v.v.v.v.v.v.",
"v.v.v.v.v.v.W.W.v.v.v.v.v.v.W.W.v.v.v.v.v.v.v.v.v.v.v.v.v.v.v.v.v.v.v.v.v.v.v.v.v.v.v.v.v.v.v.v.v.v.v.v.v.v.v.v.v.v.v.v.v.v.v.v.",
"v.v.v.v.v.v.W.W.v.v.v.v.v.v.W.W.v.v.v.v.v.v.v.v.v.v.v.v.v.v.v.v.v.v.v.v.v.v.v.v.v.v.v.v.v.v.v.v.v.v.v.v.v.v.v.v.v.v.v.v.v.v.v.v.",
"v.v.v.v.v.v.v.v.v.v.v.v.v.v.v.v.v.v.v.v.v.v.v.v.v.v.v.v.v.v.v.v.v.v.v.v.v.v.v.v.v.v.v.v.v.v.v.v.v.v.v.v.v.v.v.v.v.v.v.v.v.v.v.v.",
"v.v.v.v.v.v.v.v.v.v.v.v.v.v.v.v.v.v.v.v.v.v.v.v.v.v.v.v.v.v.v.v.v.v.v.v.v.v.v.v.v.v.v.v.v.v.v.v.v.v.v.v.v.v.v.v.v.v.v.v.v.v.v.v.",
"v.v.v.v.v.v.v.v.v.v.v.v.v.v.v.v.v.v.v.v.v.v.v.v.v.v.v.v.v.v.v.v.v.v.v.v.v.v.v.v.v.v.v.v.v.v.v.v.v.v.v.v.v.v.v.v.v.v.v.v.v.v.v.v.",
"v.v.v.v.v.v.v.v.v.v.v.v.v.v.v.v.v.v.v.v.v.v.v.v.v.v.v.v.v.v.v.v.v.v.v.v.v.v.v.v.v.v.v.v.v.v.v.v.v.v.v.v.v.v.v.v.v.v.v.v.v.v.v.v.",
"v.v.v.v.v.v.v.v.v.v.v.v.v.v.v.v.v.v.v.v.v.v.v.v.v.v.v.v.v.v.v.v.v.v.v.v.v.v.v.v.v.v.v.v.v.v.v.v.v.v.v.v.v.v.v.v.v.v.v.v.v.v.v.v.",
"v.v.v.v.v.v.v.v.v.v.v.v.v.v.v.v.v.v.v.v.v.v.v.v.v.v.v.v.v.v.v.v.v.v.v.v.v.v.v.v.v.v.v.v.v.v.v.v.v.v.v.v.v.v.v.v.v.v.v.v.v.v.v.v.",
"v.v.v.v.v.v.v.v.v.v.v.v.v.v.v.v.v.v.v.v.v.v.v.v.v.v.v.v.v.v.v.v.v.v.v.v.v.v.v.v.v.v.v.v.v.v.v.v.v.v.v.v.v.v.v.v.v.v.v.v.v.v.v.v.",
"v.v.v.v.v.v.v.v.v.v.v.v.v.v.v.v.v.v.v.v.v.v.v.a.a.v.v.v.v.v.v.v.v.v.v.v.v.v.v.v.v.v.v.v.v.v.v.v.v.v.v.v.v.v.v.v.v.v.v.v.v.v.v.v.",
"v.v.v.v.v.v.v.v.v.v.v.v.v.v.v.v.v.v.v.v.v.v.v.a.a.v.v.v.v.v.v.v.v.v.v.v.v.v.v.v.v.v.v.v.v.v.v.v.v.v.v.v.v.v.v.v.v.v.v.v.v.v.v.v.",
"v.v.v.v.v.v.v.v.v.v.v.v.v.v.v.v.v.a.a.v.v.v.v.a.a.v.v.v.v.a.a.v.v.v.v.v.v.v.v.v.v.v.v.v.v.v.v.v.v.v.v.v.v.v.v.v.v.v.v.v.v.v.v.v.",
"v.v.v.v.v.v.v.v.v.v.v.v.v.v.v.v.v.a.a.v.v.v.v.a.a.v.v.v.v.a.a.v.v.v.v.v.v.v.v.v.v.v.v.v.v.v.v.v.v.v.v.v.v.v.v.v.v.v.v.v.v.v.v.v.",
"v.v.v.v.v.v.v.v.v.v.v.v.v.v.v.v.v.v.v.a.a.v.v.v.v.v.v.a.a.v.v.v.v.v.v.v.v.v.v.v.v.v.v.v.v.v.v.v.v.v.v.v.v.v.v.v.v.a.a.v.v.v.v.v.",
"v.v.v.v.v.v.v.v.v.v.v.v.v.v.v.v.v.v.v.a.a.v.v.v.v.v.v.a.a.v.v.v.v.v.v.v.v.v.v.v.v.v.v.v.v.v.v.v.v.v.v.v.v.v.v.v.v.a.u.v.v.v.v.v.",
"a.v.v.v.v.v.v.v.v.v.v.v.v.v.v.v.v.v.v.v.v.v.v.v.v.v.v.v.v.v.v.v.v.v.v.v.v.v.v.v.v.v.v.v.v.v.v.v.v.v.v.a.a.v.v.v.v.a.a.v.v.v.v.a.",
"a.v.v.v.v.v.v.v.v.v.v.v.v.v.v.v.v.v.v.v.v.v.v.v.v.v.v.v.v.v.v.v.v.v.v.v.v.v.v.v.v.v.v.v.v.v.v.v.v.v.v.a.a.v.v.v.v.a.a.v.v.v.v.a.",
"v.v.v.v.v.v.v.v.v.v.v.v.v.v.v.v.v.v.v.v.v.v.v.v.v.v.v.v.v.v.v.v.v.v.v.l.f.v.v.v.v.v.v.v.v.v.v.v.v.v.v.v.v.a.a.v.v.v.v.v.v.a.a.v.",
"v.v.v.v.v.v.v.v.v.v.v.v.v.v.v.v.v.v.v.v.l.h.l.v.v.v.v.v.v.v.v.v.v.v.v.! Y v.v.v.v.v.v.v.v.v.v.v.v.v.v.v.v.a.a.v.v.v.v.v.v.a.a.v.",
"v.v.v.v.v.v.v.v.v.v.v.v.v.v.v.v.v.v.l.l.W 0 R v.v.v.v.v.v.v.v.v.v.v.i.i.l.v.v.v.v.v.v.v.v.v.v.v.v.v.v.v.v.v.v.v.v.v.v.v.v.v.v.v.",
"v.v.v.v.v.v.v.v.v.v.v.v.v.v.v.v.v.v.c.h.r > i f.v.v.v.v.v.v.v.v.v.l.g p.v.v.v.v.v.v.v.v.v.v.v.v.v.v.v.v.v.v.v.v.v.v.v.v.v.v.v.v.",
"v.v.v.v.v.v.v.v.v.v.v.v.v.v.v.v.v.v.v.l.R i W l.v.v.v.v.v.v.v.l.p.p.g.Z.N.b.b.j.v.v.v.v.v.v.v.v.v.v.v.v.v.v.v.v.v.v.v.v.v.v.v.v.",
"v.v.v.v.v.v.v.v.v.v.v.v.v.v.v.v.v.v.v.v.v.f.l.v.v.v.v.v.v.v.v.Q O ; h.=.x x x -.v.v.v.v.v.v.v.v.v.v.v.v.v.v.v.v.v.v.v.v.v.v.v.v.",
"v.v.v.v.v.v.v.v.v.v.v.v.v.v.v.v.v.v.v.v.v.v.v.v.v.v.v.v.v.W.W.s   s l.=.x x x P k.W.W.v.v.v.v.v.v.v.v.v.v.v.v.v.v.v.v.v.v.v.v.v.",
"v.v.v.v.v.v.v.v.v.v.v.v.v.v.v.v.v.v.v.v.v.v.v.v.v.v.v.v.v.W.S.s   s l.=.x x x %.v.W.W.v.v.v.v.v.v.v.v.v.v.v.v.v.v.v.v.v.v.v.v.v.",
"v.v.v.v.v.v.v.v.v.v.v.v.v.v.v.v.v.v.v.v.v.v.v.v.v.v.v.v.v.g.i.- X ; s.n.P v L D.W.v.v.v.v.v.v.v.v.v.v.v.v.v.v.v.v.v.v.v.v.v.v.v.",
"v.v.v.v.v.v.v.v.v.v.v.v.v.v.v.v.v.v.v.v.v.v.v.v.v.v.v.l.l.Y E . + ; p.v.k.n.z.F.W.v.v.v.v.v.v.v.v.v.v.v.v.v.v.v.v.v.v.v.v.v.v.v.",
"v.v.v.v.v.v.v.v.v.v.v.v.v.v.v.v.v.v.v.v.v.v.v.v.v.v.v.l.u ; ; # 4 y h.v.l.Q.C.v.v.v.v.v.v.v.v.v.v.v.v.v.v.v.v.v.v.v.v.v.v.v.v.v.",
"v.v.v.v.v.v.v.v.v.v.v.v.v.v.v.v.v.v.v.v.v.v.v.v.v.v.v.g.w o + < 4 8 ^ v.l.Q.C.v.v.v.v.v.v.v.v.v.v.v.v.v.v.v.v.v.v.v.v.v.v.v.v.v.",
"v.v.v.v.v.v.v.v.v.v.v.v.v.v.v.v.v.v.v.v.v.v.v.v.v.v.v.h.: o + % 3 f j.v.v.E.V.v.v.v.v.v.v.v.v.v.v.v.v.v.v.v.v.v.v.v.v.v.v.v.v.v.",
"v.v.v.v.v.v.v.v.v.v.v.v.v.v.v.v.v.v.v.v.v.v.v.v.v.v.v.Q - + + o + i.v.v.F.F.v.v.v.v.v.v.v.v.v.v.v.v.v.v.v.v.v.v.v.v.v.v.v.v.v.v.",
"v.v.v.v.v.v.v.v.v.v.v.v.v.v.v.v.v.v.v.v.v.v.v.v.v.v.v.h + + + o   w s.v.E.E.l.v.v.v.v.v.v.v.v.v.v.v.v.v.v.v.v.v.v.v.v.v.v.v.v.v.",
"v.v.v.v.v.l.l.v.v.v.v.v.v.v.v.v.v.v.v.v.v.v.v.v.v.v.v.g + + $ +     h k.Z.C.v.v.v.h.R R l.v.v.v.v.v.v.v.v.v.v.v.v.v.v.v.v.v.v.v.",
"v.v.v.v.v.v.v.v.v.v.v.v.v.v.v.v.v.v.v.v.v.v.v.v.v.v.v.h + + > @   X 8 V I k.v.v.v.T % r h.v.v.v.v.v.v.v.v.v.v.v.v.v.v.v.v.v.v.v.",
"v.v.v.v.v.v.v.v.v.v.v.v.v.v.v.v.v.v.v.v.v.v.v.v.v.v.d.e + + * @   3 c c c I z.v.v.R 0 p h.v.v.v.v.v.v.v.v.v.v.v.v.v.v.v.v.v.v.v.",
"v.v.v.v.v.v.v.v.v.v.v.v.v.v.v.v.v.v.v.v.v.v.v.v.v.v.i.+ @ , 1 @ + l c c c V x.v.v.l.l.h.v.v.v.v.v.v.v.v.v.v.v.v.v.v.v.v.v.v.v.v.",
"v.v.v.v.v.v.v.v.v.v.v.v.v.v.v.v.v.v.v.v.v.v.v.v.z.h.s + > 4 4 < % b F S S =.l.v.h.h.x.x.v.v.v.v.v.v.v.v.v.v.v.v.v.v.v.v.v.v.v.v.",
"v.v.v.v.v.v.v.v.v.v.v.v.v.v.v.v.v.v.v.v.v.v.v.v.k.^ 0 + > 4 4 k z F J J J ;.z.l.p y V C b.v.v.v.v.v.v.v.v.v.v.v.v.v.v.v.v.v.v.v.",
"v.v.v.v.v.v.v.v.v.v.v.v.v.v.v.v.v.v.v.v.v.v.v.l.f j 3 + @ < k A S G H J J ' m.l.i l c c C m.v.v.v.v.v.v.v.v.v.v.v.v.v.v.v.v.v.v.",
"v.v.v.v.v.v.v.v.v.v.v.v.v.v.v.v.v.v.v.v.v.v.l.l.B j 4 % + 5 n G J ) _ J J [ m.v.s.L n c C m.v.v.v.v.v.v.v.v.v.v.v.v.v.v.v.v.v.v.",
"v.v.v.v.v.v.v.v.v.v.v.v.v.v.v.v.v.v.v.v.v.v.l.l.r 2 > # % z S J ` ) ) J F K V.v.v.v.&.C m.v.v.v.v.v.v.v.v.v.v.v.v.v.v.v.v.v.v.v.",
"v.v.v.v.v.v.v.v.v.v.v.v.v.v.v.v.v.v.v.v.v.v.v./ = @ @ $ * m } #.#.X._ _ H ' M.v.v.v.c.x.c.c.v.v.v.v.v.v.v.v.v.a.a.v.v.v.v.v.v.v.",
"v.v.v.v.v.v.v.v.v.v.v.v.v.v.v.v.v.v.v.v.v.v.v.v.E # & 6 N +.6.6.6.G.O.} | } 1.v.v.v.v.c.l.l.v.v.v.v.v.v.v.v.v.a.a.v.v.v.v.v.v.v.",
"v.v.v.v.v.v.v.v.v.v.v.v.v.v.v.v.v.v.v.v.v.v.l.l./ & 9 ) X.$.5.$.q.K.4...| }  .M.v.v.v.v.v.v.v.v.v.a.a.v.v.v.v.a.a.v.v.v.v.a.a.v.",
"v.v.v.v.v.v.v.v.v.v.v.v.v.v.v.v.v.v.v.v.v.l.c.l.d , M ) $.$.5.$.t.H.6...| X.X.>.2.M.v.v.v.v.v.v.v.a.a.v.v.v.v.a.a.v.v.v.v.a.a.v.",
"v.v.v.v.v.A.A.v.v.v.v.v.v.v.v.v.v.v.v.v.v.v.l.l.e 1 H ) $.$.$.5.t.G.e.@.@.o.o.o.o.,.v.v.v.v.v.v.v.v.v.a.a.v.v.v.v.v.v.a.a.v.v.v.",
"v.v.v.v.v.A.A.v.v.v.v.v.v.v.v.v.v.v.v.v.c.l.l.Q = 6 H ) ..$.$.#.9.t.0.q.8.#.o.o.o.o.M.v.v.v.v.v.v.v.v.a.a.v.v.v.v.v.v.a.a.v.v.v.",
"A.v.v.v.v.A.A.v.v.v.v.A.A.v.v.v.v.v.v.a.a.f.u q 6 8 D ) o.$.@.9.r.G.e.8.0.7.$.$.@.X.3.l.v.v.v.v.v.v.v.v.v.v.v.v.v.v.v.v.v.v.v.A.",
"A.v.v.v.v.A.A.v.v.v.v.A.A.v.v.v.v.v.v.u.u.Y 1 t 7 8 n H $.$.q.T.!.!.Y.e.7.$.7.7.#.o.3.l.v.v.v.v.v.v.v.v.v.v.v.v.v.v.v.v.v.v.v.A.",
"v.A.A.v.v.v.v.v.v.A.A.v.v.v.v.v.v.v.v.v.v.u.U v.~ t 1 m 5.8.y.!.!.!.!.Y.8.$.6.7.$.+.*.v.v.v.v.v.v.v.v.v.v.v.v.v.v.v.v.v.v.v.v.v.",
"v.A.A.v.v.v.v.v.v.A.A.v.v.v.v.v.v.v.v.v.v.u.a.v.c.Y & N 7.w.L.!.!.!.!.R.J.J.t.7.$.] Y v.v.v.v.v.v.v.v.v.v.v.v.v.v.v.v.v.v.v.v.v.",
"v.v.v.v.v.v.v.v.v.v.v.v.v.v.v.v.v.v.v.v.v.v.v.v.l.Q 9 ` 0.P.R.R.R.!.!.R.U.U.U.e.( a ! l.v.v.v.v.v.v.v.v.v.v.v.v.v.v.v.v.v.v.v.v.",
"v.v.v.v.v.v.v.v.v.v.v.v.v.v.v.v.v.v.v.v.v.v.v.v.c.z.Z ` 9.R.T.T.T.T.R.T.U.U.U.9.:.g.l.l.v.v.v.v.v.v.v.l.v.v.v.v.v.v.v.v.v.v.v.v.",
"v.v.v.v.v.v.v.v.v.v.v.v.v.v.v.v.v.v.v.v.v.v.v.v.c.B.{ _ ,.T.T.T.T.T.T.U.U.I.U.9.:.l.v.v.v.v.v.v.v.v.v.v.v.v.v.v.v.v.v.v.v.v.v.v.",
"v.v.v.v.v.v.v.v.v.v.v.v.v.v.v.v.v.v.v.v.v.v.v.c.l.x.{ ) ,.T.T.T.T.R.K.H.U.I.U.<.I j.v.v.v.v.v.v.v.v.v.v.v.v.v.v.v.v.v.v.v.v.v.v."
};
