/* XPM */
static char *wall_11[] = {
/* columns rows colors chars-per-pixel */
"64 64 186 2 ",
"   c #160606",
".  c #1A0707",
"X  c #1E0908",
"o  c #240B09",
"O  c #2C0E0B",
"+  c #2E100B",
"@  c #34110D",
"#  c #3E130E",
"$  c #3D1B0D",
"%  c #3F2210",
"&  c #262B22",
"*  c #4B140D",
"=  c #551409",
"-  c #561B0D",
";  c #431B11",
":  c #781A07",
">  c #4E2114",
",  c #572616",
"<  c #5A2415",
"1  c #5D2B15",
"2  c #64280B",
"3  c #79280A",
"4  c #6E330E",
"5  c #622C15",
"6  c #783714",
"7  c #453728",
"8  c #593121",
"9  c #284132",
"0  c #2B4939",
"q  c #36493C",
"w  c #394B3A",
"e  c #30503F",
"r  c #5E4A35",
"t  c #664C36",
"y  c #764C34",
"u  c #385644",
"i  c #3C6650",
"p  c #555540",
"a  c #476654",
"s  c #45765D",
"d  c #60755B",
"f  c #757051",
"g  c #477C63",
"h  c #4B7C62",
"j  c #547862",
"k  c #6D7E62",
"l  c #881E06",
"z  c #8C2808",
"x  c #902F08",
"c  c #9B3509",
"v  c #983A0B",
"b  c #853912",
"n  c #9A3D12",
"m  c #AB2401",
"M  c #A43808",
"N  c #AC440C",
"B  c #A64F0D",
"V  c #B7490B",
"C  c #B6580E",
"Z  c #A54F15",
"A  c #AE5A13",
"S  c #BA5515",
"D  c #B76A1F",
"F  c #84513A",
"G  c #97593B",
"H  c #BB5324",
"J  c #A84A32",
"K  c #A5652E",
"L  c #C64105",
"P  c #C94305",
"I  c #CA4C08",
"U  c #C5510C",
"Y  c #CF5209",
"T  c #D15309",
"R  c #D45B0A",
"E  c #CE5718",
"W  c #D5620E",
"Q  c #DB6A0E",
"!  c #C46814",
"~  c #D66B11",
"^  c #DB7313",
"/  c #D87716",
"(  c #E1730F",
")  c #E37912",
"_  c #E67B18",
"`  c #C25A33",
"'  c #D17439",
"]  c #9E755A",
"[  c #AB7752",
"{  c #C47D4F",
"}  c #4C866B",
"|  c #578468",
" . c #4F8D70",
".. c #569070",
"X. c #57997A",
"o. c #6A9475",
"O. c #BD8E2C",
"+. c #DE831D",
"@. c #E48419",
"#. c #D6833A",
"$. c #C09731",
"%. c #EB9924",
"&. c #EA9A25",
"*. c #EEA229",
"=. c #EFA82D",
"-. c #F1AB2C",
";. c #EEAB32",
":. c #EDA33A",
">. c #EFB13D",
",. c #F4B533",
"<. c #F8C73E",
"1. c #FACC3F",
"2. c #BB8158",
"3. c #958E6D",
"4. c #889877",
"5. c #B68A62",
"6. c #AD966F",
"7. c #93A36F",
"8. c #ABA377",
"9. c #C68B52",
"0. c #E08540",
"q. c #F0AF44",
"w. c #EEA35E",
"e. c #C29360",
"r. c #C7B06A",
"t. c #FACC41",
"y. c #F3C748",
"u. c #FCD547",
"i. c #FDD946",
"p. c #FEDC4A",
"a. c #F0CB52",
"s. c #FDDB58",
"d. c #FFE157",
"f. c #FAD567",
"g. c #FFE671",
"h. c #3EAC84",
"j. c #5CA382",
"k. c #5FA987",
"l. c #40B088",
"z. c #61A987",
"x. c #67A885",
"c. c #62AD8A",
"v. c #76A887",
"b. c #65B38F",
"n. c #6BB18D",
"m. c #65B490",
"M. c #6AB691",
"N. c #6BBD97",
"B. c #6BBF99",
"V. c #7ABD97",
"C. c #6EC59D",
"Z. c #75C49D",
"A. c #7BC39B",
"S. c #70C8A0",
"D. c #8AA783",
"F. c #97AE87",
"G. c #9BAD86",
"H. c #97B78C",
"J. c #81BE96",
"K. c #83BB9C",
"L. c #A7B184",
"P. c #D1B185",
"I. c #EDB683",
"U. c #F0BC8D",
"Y. c #8FC595",
"T. c #88D8B8",
"R. c #98D5B7",
"E. c #F8D480",
"W. c #FEE582",
"Q. c #FDE48A",
"!. c #FEE98C",
"~. c #FFEB98",
"^. c #C0D6BA",
"/. c #F6D5B7",
"(. c #FEEEA2",
"). c #FFEFA9",
"_. c #FFF0A6",
"`. c #FCEDBD",
"'. c #FFF1B5",
"]. c #FFF3BB",
"[. c #A0E0C0",
"{. c #FFF4C5",
"}. c #FFF5CC",
"|. c #FFF9C9",
" X c #FFF7D8",
".X c #FFFAE6",
/* pixels */
"S.S.S.S.S.S.S.S.S.S.S.S.S.S.S.S.S.S.S.S.S.S.S.S.S.S.S.S.S.S.S.S.S.S.S.S.S.S.S.S.S.S.S.S.S.S.S.S.S.S.S.S.S.S.S.S.S.S.S.S.S.S.S.S.",
"S.S.S.S.S.S.S.S.S.S.S.S.S.S.S.S.S.S.S.S.S.S.S.S.S.S.S.S.S.S.S.S.S.S.S.S.S.S.S.S.S.S.S.S.S.S.S.S.S.S.S.S.S.S.S.S.S.S.S.S.S.S.S.S.",
"S.S.S.S.S.S.S.S.S.S.S.S.S.S.S.S.S.S.S.S.S.S.S.S.S.S.S.S.S.S.S.S.S.S.S.S.S.S.S.S.S.S.S.S.S.S.S.S.S.S.S.S.S.S.S.S.S.S.S.S.S.S.S.S.",
"S.S.S.S.S.S.S.S.S.S.S.S.S.S.S.S.S.S.S.S.S.S.S.S.S.S.S.S.S.S.S.S.S.S.S.S.S.S.S.S.S.S.S.S.S.S.S.S.S.S.S.S.S.S.S.S.S.S.S.S.S.S.S.S.",
"S.S.S.S.S.S.S.S.S.S.S.S.S.S.S.S.S.S.S.S.S.S.S.S.S.S.S.S.S.S.S.S.S.S.S.S.S.S.S.S.S.S.S.S.S.S.S.S.S.S.S.S.S.S.S.S.S.S.S.S.S.S.S.S.",
"S.S.S.S.S.S.S.S.S.S.[.[.S.S.S.S.S.S.S.S.S.S.S.S.S.S.S.S.S.S.S.S.S.S.S.S.S.S.S.S.S.S.S.S.S.S.S.S.S.S.S.S.S.S.S.S.S.S.S.S.S.S.S.S.",
"S.S.S.S.S.S.S.S.S.S.[.[.S.S.S.S.S.S.S.S.S.S.S.S.S.S.S.S.S.S.S.S.S.S.S.S.S.S.S.S.S.S.S.S.S.S.S.S.S.S.S.S.S.S.S.S.S.S.S.S.S.S.S.S.",
"S.S.S.S.[.[.S.S.S.S.[.[.S.S.S.S.[.[.S.S.S.S.S.S.S.S.S.S.S.S.S.S.S.S.S.S.S.S.S.S.S.S.S.S.S.S.S.S.S.S.S.S.S.S.S.S.S.S.S.S.S.S.S.S.",
"S.S.S.S.[.[.S.S.S.S.[.[.S.S.S.S.[.[.S.S.S.S.S.S.S.S.S.S.S.S.S.S.S.S.S.S.S.S.S.S.S.S.S.S.S.S.S.S.S.S.S.S.S.S.S.S.S.S.S.S.S.S.S.S.",
"S.S.S.S.S.S.[.[.S.S.S.S.S.S.[.[.S.S.S.S.S.S.S.S.S.S.S.S.S.S.S.S.S.S.S.S.S.S.S.S.S.S.S.S.S.S.S.S.S.S.S.S.S.S.S.S.S.S.S.S.S.S.S.S.",
"S.S.S.S.S.S.[.[.S.S.S.S.S.S.[.[.S.S.S.S.S.S.S.S.S.S.S.S.S.S.S.S.S.S.S.S.S.S.S.S.S.S.S.S.S.S.S.S.S.S.S.S.S.S.S.S.S.S.S.S.S.S.S.S.",
"S.S.S.S.S.S.S.S.S.S.S.S.S.S.S.S.S.S.S.S.S.S.S.S.S.S.S.S.S.S.S.S.S.S.S.S.S.S.C.S.S.S.S.S.S.S.S.S.S.S.S.S.S.S.S.S.S.S.S.S.S.S.S.S.",
"S.S.S.S.S.S.S.S.S.S.S.S.S.S.S.S.S.S.S.S.S.S.S.S.S.S.S.S.S.S.S.S.S.S.S.S.S.S.b.S.S.S.S.S.S.S.S.S.S.S.S.S.S.S.S.S.S.S.S.S.S.S.S.S.",
"S.S.S.S.S.S.S.S.S.S.S.S.S.S.S.S.S.S.S.S.S.S.S.S.S.S.S.S.S.S.S.S.S.S.S.S.S.S.S.S.S.S.S.S.S.S.S.S.S.S.S.S.S.S.S.S.S.S.S.S.S.S.S.S.",
"S.S.S.S.S.S.S.S.S.S.S.S.S.S.S.S.S.S.S.S.S.S.S.S.S.S.S.S.S.S.S.S.S.S.S.S.S.S.S.S.S.S.S.S.S.S.S.S.S.S.S.S.S.S.S.S.S.S.S.S.S.S.S.S.",
"S.S.S.S.S.S.S.S.S.S.S.S.S.S.S.S.S.S.S.S.S.S.S.S.S.S.S.S.S.S.S.S.S.S.S.S.S.S.S.S.S.S.S.S.S.S.S.S.S.S.S.S.S.S.S.S.S.S.S.S.S.S.S.S.",
"S.S.S.S.S.S.S.S.S.S.S.S.S.S.S.S.S.S.S.S.S.S.S.S.S.S.S.S.S.S.S.S.S.S.S.S.S.S.S.S.S.S.S.S.S.S.S.S.S.S.S.S.S.S.S.S.S.S.S.S.S.S.S.S.",
"S.S.S.S.S.S.S.S.S.S.S.S.S.S.S.S.S.S.S.S.S.S.S.S.S.S.S.S.S.S.S.S.S.S.S.S.S.S.S.S.S.S.S.S.S.S.S.S.S.S.S.S.S.S.S.S.S.S.S.S.S.S.S.S.",
"S.S.S.S.S.S.S.S.S.S.S.S.S.S.S.S.S.S.S.S.S.S.S.l.l.S.S.S.S.S.S.S.S.S.S.S.S.S.S.S.S.S.S.S.S.S.S.S.S.S.S.S.S.S.S.S.S.S.S.S.S.S.S.S.",
"S.S.S.S.S.S.S.S.S.S.S.S.S.S.S.S.S.S.S.S.S.S.S.l.l.S.S.S.S.S.S.S.S.S.S.S.S.S.S.S.S.S.S.S.S.S.S.S.S.S.S.S.S.S.S.S.S.S.S.S.S.S.S.S.",
"S.S.S.S.S.S.S.S.S.S.S.S.S.S.S.S.S.l.l.S.S.S.S.l.l.S.S.S.S.h.h.S.S.S.S.S.S.S.S.S.S.S.S.S.S.S.S.S.S.S.S.S.S.S.S.S.S.S.S.S.S.S.S.S.",
"S.S.S.S.S.S.S.S.S.S.S.S.S.S.S.S.S.l.l.S.S.S.S.l.l.S.S.S.S.h.h.S.S.S.S.S.S.S.S.S.S.S.S.S.S.S.S.S.S.S.S.S.S.S.S.S.S.S.S.S.S.S.S.S.",
"S.S.S.S.S.S.S.S.S.S.S.S.S.S.S.S.S.S.S.l.l.S.S.S.S.S.S.l.h.S.S.S.S.S.S.S.S.S.S.S.S.S.S.S.S.S.S.S.S.S.S.S.S.S.S.S.S.h.h.S.S.S.S.S.",
"S.S.S.S.S.S.S.S.S.S.S.S.S.S.S.S.S.S.S.l.l.S.S.S.S.S.S.l.l.S.S.S.S.S.S.S.S.S.S.S.S.S.S.S.S.S.S.S.S.S.S.S.S.S.S.S.S.h.h.S.S.S.S.S.",
"l.S.S.S.S.S.S.S.S.S.S.S.S.S.S.S.S.S.S.S.S.S.S.S.S.S.S.S.S.S.S.S.S.S.S.S.S.S.S.S.S.S.S.S.S.S.S.S.S.S.S.l.l.S.S.S.S.h.l.S.S.S.S.l.",
"l.S.S.S.S.S.S.S.S.S.S.S.S.S.S.S.S.S.S.S.S.S.S.S.S.S.S.S.S.S.S.S.S.S.S.S.S.S.S.S.S.S.S.S.S.S.S.S.S.S.S.l.l.S.S.S.S.h.h.S.S.S.S.l.",
"S.S.S.S.S.S.S.S.S.S.S.S.S.S.S.S.S.S.S.S.S.S.S.S.S.S.S.S.S.S.S.S.S.S.S.S.S.S.S.S.S.S.S.S.S.S.S.S.S.S.S.S.S.l.l.S.S.S.S.S.S.l.l.S.",
"S.S.S.S.S.S.S.S.S.S.S.S.S.S.S.S.S.S.S.S.S.S.S.S.S.S.S.S.S.S.S.C.S.S.S.S.S.S.S.S.S.S.S.S.S.S.S.S.S.S.S.S.S.l.l.S.S.S.S.S.S.l.l.S.",
"S.S.S.S.S.S.S.S.S.S.S.S.S.S.S.S.S.S.S.S.C.S.S.S.S.S.S.S.S.S.S.j.c.S.S.S.S.S.S.S.S.S.S.S.S.S.S.S.S.S.S.S.S.S.S.S.S.S.S.S.S.S.S.S.",
"S.S.S.S.S.S.S.S.S.S.S.S.S.S.S.S.S.S.S.C.S.S.S.S.S.S.S.S.S.S.k.} c.S.S.S.S.S.S.S.S.S.S.S.S.S.S.S.S.S.S.S.S.S.S.S.S.S.S.S.S.S.S.S.",
"S.S.S.S.S.S.S.S.S.S.S.S.S.S.S.S.S.S.S.S.S.S.S.S.S.S.S.S.S.B.e 9 B.m.k.K.A.C.S.S.S.S.S.S.S.S.S.S.S.S.S.S.S.S.S.S.S.S.S.S.S.S.S.S.",
"S.S.S.S.S.S.S.S.S.S.S.S.S.S.S.S.S.S.S.S.S.S.S.S.S.S.S.S.S.C.& 0 B.g     a S.S.S.S.S.S.S.S.S.S.S.S.S.S.S.S.S.S.S.S.S.S.S.S.S.S.S.",
"S.S.S.S.S.S.S.S.S.S.S.S.S.S.S.S.S.S.S.S.S.S.S.S.S.S.S.S.S.R.u 0 m.i     & k.S.S.S.[.[.S.S.S.S.S.S.S.S.S.S.S.S.S.S.S.S.S.S.S.S.S.",
"S.S.S.S.S.S.S.S.S.S.S.S.S.S.S.S.S.S.S.S.S.S.S.S.S.S.S.S.S.R.q  .j.. X . j M.S.S.S.[.[.S.S.S.S.S.S.S.S.S.S.S.S.S.S.S.S.S.S.S.S.S.",
"S.S.S.S.S.S.S.S.S.S.S.S.S.S.S.S.S.S.S.S.S.S.S.S.S.S.S.S.S.N.& V.a o o . g S.S.[.[.S.S.S.S.S.S.S.S.S.S.S.S.S.S.S.S.S.S.S.S.S.S.S.",
"S.S.S.S.S.S.S.S.S.S.S.S.S.S.S.S.S.S.S.S.S.S.S.S.S.S.S.S.S.N.g R.v.o O 0 X.j N.[.[.S.S.S.S.S.S.S.S.S.S.S.S.S.S.S.S.S.S.S.S.S.S.S.",
"S.S.S.S.S.S.S.S.S.S.S.S.S.S.S.S.S.S.S.S.S.S.S.S.V.D.x.v.S.S.Z.m.h O @ j.b.u j.Z.S.S.S.S.S.S.S.n.n.S.S.S.S.S.S.S.S.S.S.S.S.S.S.S.",
"S.S.S.S.S.S.S.S.S.S.S.S.S.S.S.S.S.S.S.S.S.S.S.Z.] : # < 4.S.c.w O o i N.S.m.Z.C.S.S.S.S.S.S.S.| p M.S.S.S.S.S.S.S.S.S.S.S.S.S.S.",
"S.S.S.S.S.S.S.S.S.S.S.S.S.S.S.S.S.S.S.S.S.S.C.Z.J : # * f n.u @ O o g S.S.S.S.S.S.S.S.S.S.S.S.N.o.S.S.S.S.S.S.S.S.S.S.S.S.S.S.S.",
"S.S.S.S.S.S.S.S.S.S.S.S.S.S.S.S.S.S.S.S.S.S.S.V.J m l l : u & @ O X g S.S.S.S.S.S.S.S.S.S.S.S.S.S.S.S.S.S.S.S.S.S.S.S.S.S.S.S.S.",
"S.S.S.S.S.S.S.S.S.S.S.S.S.S.S.S.S.S.S.S.S.S.S.Z.] m m m =   O O # 5 f L.Y.Z.C.S.S.S.S.S.S.S.S.S.S.S.S.S.S.S.S.S.S.S.S.S.S.S.S.S.",
"S.S.S.S.S.C.C.S.S.S.S.S.S.S.S.S.S.S.S.S.S.S.S.S.V.D.D.v.s u @ @ A _ ) ) #.L.S.S.S.S.S.S.S.S.S.S.S.S.S.S.S.S.S.S.S.S.S.S.S.S.S.S.",
"S.S.S.S.S.S.S.S.S.S.S.S.S.S.S.S.S.S.S.S.S.S.S.S.S.S.C.C. .h O ; ~ ) ) ) ) ' v.S.S.S.S.S.S.S.S.S.S.S.S.S.S.S.S.S.S.S.S.S.S.S.S.S.",
"S.S.S.S.S.S.S.S.S.S.S.S.S.S.S.S.S.S.S.S.S.S.S.S.S.S.S.X.p G z v ^ ) ) ) ( Q o.C.S.S.S.S.S.S.S.S.S.S.S.S.S.S.S.S.S.S.S.S.S.S.S.S.",
"S.S.S.S.S.S.S.S.S.S.S.S.S.S.S.S.S.S.S.S.S.S.S.S.S.S.S.h M P P P ( ( ( ) ) C k C.S.S.C.S.S.S.S.S.S.S.S.S.S.S.S.S.S.S.S.S.S.S.S.S.",
"S.S.S.S.S.S.S.S.S.S.S.S.S.S.S.S.S.S.S.S.S.S.S.S.S.S.S.x.H L P Y W R W ^ 9.v.4.5.5.6.Y.C.S.S.S.S.S.S.S.S.S.S.S.S.S.S.S.S.S.S.S.S.",
"S.S.S.S.S.S.S.S.S.S.S.S.S.S.S.S.S.S.S.S.S.S.S.S.S.S.Z.A.` P P T R R R B | H.' Y T T 2.J.S.S.S.S.S.S.S.S.S.S.S.S.S.S.S.S.S.S.S.S.",
"S.S.S.S.S.S.S.S.S.S.S.S.S.S.S.S.S.S.S.S.S.S.S.S.Z.^.r.7.y L I T R R R 2 s 5.Y Y T T T G.S.S.S.S.S.S.S.S.S.S.S.S.S.S.S.S.S.S.S.S.",
"S.S.S.S.S.S.S.S.S.S.S.S.S.S.S.S.S.S.S.S.S.S.S.Z.8.I./.#., 3 c U R R R 2 a [ T Y Y Y Y G.S.S.S.S.S.S.S.S.S.S.S.S.S.S.S.S.S.S.S.S.",
"S.S.S.S.S.S.S.S.S.S.S.S.S.S.S.S.S.S.S.S.S.S.S.A.#.) U.w.C ; $ 3 c M v - = M T T T Y E H.S.S.S.S.S.S.S.S.S.S.S.S.S.S.S.S.S.S.S.S.",
"S.S.S.S.S.S.S.S.S.S.S.S.S.S.S.S.S.S.S.S.S.S.S.A.9.) ) _ A > * : N ~ / A z l V T Y E 8.Z.S.S.S.S.S.S.S.S.S.S.S.l.l.S.S.S.S.S.S.S.",
"S.S.S.S.S.S.S.S.S.S.S.S.S.S.S.S.S.S.S.S.S.S.S.S.Y.[ ~ W v 6 - N @.&.=.=.+.M l 3.G.F.Z.S.S.S.S.S.S.S.S.S.S.S.S.l.l.S.S.S.S.S.S.S.",
"S.S.S.S.S.S.S.S.S.S.S.S.S.S.S.S.S.S.S.S.S.S.S.S.x.8 - * 3 U D ;.u.p.s.q.-./ F n.c.N.Z.C.S.S.S.S.S.h.l.S.S.S.S.l.l.S.S.S.S.l.l.S.",
"S.S.S.S.S.S.S.S.S.S.S.S.S.S.S.S.S.S.S.S.S.S.S.C.| t n M V R ;.d.s.i.!.E.=.@.F z.s C.S.S.S.S.S.S.S.h.l.S.S.S.S.l.l.S.S.S.S.l.l.S.",
"S.S.S.S.S.T.T.S.S.S.S.S.S.S.S.S.S.S.S.S.S.S.S.S.Z...H Q &.&.u.p.i.i.Q.Q.,.@.K ..s C.S.S.S.S.S.S.S.S.S.l.l.S.S.S.S.S.S.l.l.S.S.S.",
"S.S.S.S.S.T.T.S.S.S.S.S.S.S.S.S.S.S.S.S.S.S.C.B.| r N &.*.=.p.u.i.i.!.Q.t.&.e.x.7 z.S.S.S.S.S.S.S.S.S.h.l.S.S.S.S.S.S.l.l.S.S.S.",
"T.S.S.S.S.T.T.S.S.S.S.T.T.S.S.S.S.S.S.h.l.S.S.} ; < Z *.*.=.t.i.i.p.~.!.i.1.y.y.r.Z.Z.S.S.S.S.S.S.S.S.S.S.S.S.S.S.S.S.S.S.S.S.T.",
"T.S.S.S.S.T.T.S.S.S.S.T.T.S.S.S.S.S.S.h.l.S.c.0 o b S &.<.<.1.s.~.~.g.g.i.t.1.t.a.Y.S.S.S.S.S.S.S.S.S.S.S.S.S.S.S.S.S.S.S.S.S.T.",
"S.T.T.S.S.S.S.S.S.T.T.S.S.S.S.S.S.S.S.S.S.h.0 % 2 V R ;.p.i.s.~.{.]._.~.f.t.1.t.t.7.m.S.S.S.S.S.S.S.S.S.S.S.S.S.S.S.S.S.S.S.S.S.",
"S.T.T.S.S.S.S.S.S.T.T.S.S.S.S.S.S.S.S.S.S.h.g , b R R >.d.d.W.}.'.'._.).W.t.t.t.$.% q x.S.S.S.S.S.S.S.S.S.S.S.S.S.S.S.S.S.S.S.S.",
"S.S.S.S.S.S.S.S.S.S.S.S.S.S.S.S.S.S.S.S.S.S.x., b R R q._.}. X.X.X X].'._.f.,.O.$ o o u C.S.S.S.S.S.S.S.S.S.S.S.S.S.S.S.S.S.S.S.",
"S.S.S.S.S.S.S.S.S.S.S.S.S.S.S.S.S.S.S.S.S.S.N.d t S R +.Q.'.}.}.}.}.|.]._.:./ 4 O o o u C.S.S.S.S.S.S.S.S.S.S.S.S.S.S.S.S.S.S.S.",
"S.S.S.S.S.S.S.S.S.S.S.S.S.S.S.S.S.S.S.S.S.S.S.C.C.8.{ 0.`.{.{.}.}.}.|.].(.,.! 5 , 7 g k.S.S.S.S.S.S.S.S.S.S.S.S.S.S.S.S.S.S.S.S.",
"S.S.S.S.S.S.S.S.S.S.S.S.S.S.S.S.S.S.S.S.S.S.S.S.C.S.v.P.|.].{.}.}.}.~.W.f.K 6 1 1 t B.S.S.S.S.S.S.S.S.S.S.S.S.S.S.S.S.S.S.S.S.S."
};
