/* XPM */
static char *wall_2[] = {
/* columns rows colors chars-per-pixel */
"64 64 174 2 ",
"   c #180706",
".  c #1D0907",
"X  c #1E0A08",
"o  c #200A07",
"O  c #240C09",
"+  c #2B0E0B",
"@  c #2F100C",
"#  c #34140D",
"$  c #3C160E",
"%  c #211510",
"&  c #25241C",
"*  c #272C22",
"=  c #372F25",
"-  c #213126",
";  c #48120B",
":  c #43180E",
">  c #52140A",
",  c #591D0E",
"<  c #441A11",
"1  c #4C1E12",
"2  c #541D10",
"3  c #7F1F05",
"4  c #4F2013",
"5  c #4D241B",
"6  c #572616",
"7  c #7E2109",
"8  c #602711",
"9  c #793C16",
"0  c #502E20",
"q  c #53382A",
"w  c #2C4536",
"e  c #354032",
"r  c #334339",
"t  c #4E4E3C",
"y  c #564837",
"u  c #3E5B4A",
"i  c #3D624E",
"p  c #3F6651",
"a  c #4A5845",
"s  c #585341",
"d  c #436A53",
"f  c #586C55",
"g  c #44755C",
"h  c #57745C",
"j  c #63624B",
"k  c #4B7C63",
"l  c #587560",
"z  c #872205",
"x  c #8B2205",
"c  c #962907",
"v  c #89390D",
"b  c #A42402",
"n  c #AB2502",
"m  c #B42500",
"M  c #B62B01",
"N  c #BC2B01",
"B  c #A23E0A",
"V  c #BA3311",
"C  c #C43D04",
"Z  c #974813",
"A  c #B8490A",
"S  c #B4580E",
"D  c #AD4E1F",
"F  c #AA5411",
"G  c #B44F21",
"H  c #BB5626",
"J  c #AE4A30",
"K  c #B74E33",
"L  c #926226",
"P  c #B16924",
"I  c #A47D2E",
"U  c #BE7922",
"Y  c #C94707",
"T  c #C64B08",
"R  c #CE5209",
"E  c #D35C0D",
"W  c #CC571E",
"Q  c #CE600E",
"!  c #D5600F",
"~  c #D9640D",
"^  c #DD6C0F",
"/  c #D26214",
"(  c #DB6E11",
")  c #DD7314",
"_  c #E27612",
"`  c #E37B13",
"'  c #CF6428",
"]  c #966D4B",
"[  c #4E8469",
"{  c #56886C",
"}  c #568D70",
"|  c #569577",
" . c #5B9073",
".. c #5B9D7D",
"X. c #688063",
"o. c #60866A",
"O. c #659677",
"+. c #5AA07F",
"@. c #69A07E",
"#. c #E48117",
"$. c #E3831B",
"%. c #E88C1D",
"&. c #EA901E",
"*. c #DC853F",
"=. c #E38B22",
"-. c #EB9522",
";. c #EC9A24",
":. c #E8992A",
">. c #E0933A",
",. c #D3AC3C",
"<. c #EEA329",
"1. c #EFAA2F",
"2. c #F1AC2E",
"3. c #E1A239",
"4. c #F1AE38",
"5. c #F2B333",
"6. c #F5BB36",
"7. c #F6C13B",
"8. c #F9C83E",
"9. c #BC9F45",
"0. c #B0835D",
"q. c #8A9470",
"w. c #989373",
"e. c #AA8766",
"r. c #B88E63",
"t. c #D88D41",
"y. c #DE9541",
"u. c #CFA05D",
"i. c #F3B940",
"p. c #C49E60",
"a. c #C3A86C",
"s. c #F3BE63",
"d. c #F7C447",
"f. c #FBCE41",
"g. c #FBD344",
"h. c #FEDC4A",
"j. c #FEDE55",
"k. c #FDDD5C",
"l. c #FEE05A",
"z. c #F9CF62",
"x. c #F7D26F",
"c. c #F5C479",
"v. c #FEE365",
"b. c #FEE46D",
"n. c #FFE572",
"m. c #FEE67D",
"M. c #FFE87F",
"N. c #5DA584",
"B. c #5FAA87",
"V. c #5FAA88",
"C. c #40B088",
"Z. c #64A684",
"A. c #63A987",
"S. c #67AF8B",
"D. c #69B38F",
"F. c #79A991",
"G. c #66B691",
"H. c #6AB591",
"J. c #6ABC96",
"K. c #6DBF99",
"L. c #75B994",
"P. c #6FC59E",
"I. c #70C69E",
"U. c #70C8A0",
"Y. c #8EA984",
"T. c #94B68C",
"R. c #A9B584",
"E. c #84C398",
"W. c #88D8B8",
"Q. c #FFE986",
"!. c #FBE59F",
"~. c #FFEEA3",
"^. c #FFF0AA",
"/. c #A0E0C0",
/* pixels */
"U.U.U.U.U.U.U.U.U.U.U.U.U.U.U.U.U.U.U.U.U.U.U.U.U.U.U.U.U.U.U.U.U.U.U.U.U.U.U.U.U.U.U.U.U.U.U.U.U.U.U.U.U.U.U.U.U.U.U.U.U.U.U.U.",
"U.U.U.U.U.U.U.U.U.U.U.U.U.U.U.U.U.U.U.U.U.U.U.U.U.U.U.U.U.U.U.U.U.U.U.U.U.U.U.U.U.U.U.U.U.U.U.U.U.U.U.U.U.U.U.U.U.U.U.U.U.U.U.U.",
"U.U.U.U.U.U.U.U.U.U.U.U.U.U.U.U.U.U.U.U.U.U.U.U.U.U.U.U.U.U.U.U.U.U.U.U.U.U.U.U.U.U.U.U.U.U.U.U.U.U.U.U.U.U.U.U.U.U.U.U.U.U.U.U.",
"U.U.U.U.U.U.U.U.U.U.U.U.U.U.U.U.U.U.U.U.U.U.U.U.U.U.U.U.U.U.U.U.U.U.U.U.U.U.U.U.U.U.U.U.U.U.U.U.U.U.U.U.U.U.U.U.U.U.U.U.U.U.U.U.",
"U.U.U.U.U.U.U.U.U.U.U.U.U.U.U.U.U.U.U.U.U.U.U.U.U.U.U.U.U.U.U.U.U.U.U.U.U.U.U.U.U.U.U.U.U.U.U.U.U.U.U.U.U.U.U.U.U.U.U.U.U.U.U.U.",
"U.U.U.U.U.U.U.U.U.U././.U.U.U.U.U.U.U.U.U.U.U.U.U.U.U.U.U.U.U.U.U.U.U.U.U.U.U.U.U.U.U.U.U.U.U.U.U.U.U.U.U.U.U.U.U.U.U.U.U.U.U.U.",
"U.U.U.U.U.U.U.U.U.U././.U.U.U.U.U.U.U.U.U.U.U.U.U.U.U.U.U.U.U.U.U.U.U.U.U.U.U.U.U.U.U.U.U.U.U.U.U.U.U.U.U.U.U.U.U.U.U.U.U.U.U.U.",
"U.U.U.U././.U.U.U.U././.U.U.U.U././.U.U.U.U.U.U.U.U.U.U.U.U.U.U.U.U.U.U.U.U.U.U.U.U.U.U.U.U.U.U.U.U.U.U.U.U.U.U.U.U.U.U.U.U.U.U.",
"U.U.U.U././.U.U.U.U././.U.U.U.U././.U.U.U.U.U.U.U.U.U.U.U.U.U.U.U.U.U.U.U.U.P.U.U.U.U.U.U.U.U.U.U.U.U.U.U.U.U.U.U.U.U.U.U.U.U.U.",
"U.U.U.U.U.U././.U.U.U.U.U.U././.U.U.U.U.U.U.U.U.U.U.U.U.U.U.U.U.U.U.U.U.U.U.U.U.U.U.U.U.U.U.U.U.U.U.U.U.U.U.U.U.U.U.U.U.U.U.U.U.",
"U.U.U.U.U.U././.U.U.U.U.U.U././.U.U.U.U.U.U.U.U.U.U.U.U.U.U.U.U.U.U.U.U.U.U.U.U.U.U.U.U.U.U.U.U.U.U.U.U.U.U.U.U.U.U.U.U.U.U.U.U.",
"U.U.U.U.U.U.U.U.U.U.U.U.U.U.U.U.U.U.U.U.U.U.U.U.U.U.U.U.U.U.U.U.U.U.U.U.U.U.U.U.U.U.U.U.U.U.U.U.U.U.U.U.U.U.U.U.U.U.U.U.U.U.U.U.",
"U.U.U.U.U.U.U.U.U.U.U.U.U.U.U.U.U.U.U.U.U.U.U.U.U.U.U.U.U.U.U.U.U.U.U.U.U.U.U.U.U.U.U.U.U.U.U.U.U.U.U.U.U.U.U.U.U.U.U.U.U.U.U.U.",
"U.U.U.U.U.U.U.U.U.U.U.U.U.U.U.U.U.U.U.U.U.U.U.U.U.U.U.U.U.U.U.U.U.U.U.U.U.U.U.U.U.U.U.U.U.U.U.U.U.U.U.U.U.U.U.U.U.U.U.U.U.U.U.U.",
"U.U.U.U.U.U.U.U.U.U.U.U.U.U.U.U.U.U.U.U.U.U.U.U.U.U.U.U.U.U.U.U.U.U.U.U.U.U.U.U.U.U.U.U.U.U.U.U.U.U.U.U.U.U.U.U.U.U.U.U.U.U.U.U.",
"U.U.U.U.U.U.U.U.U.U.U.U.U.U.U.U.U.U.U.U.U.U.U.U.U.U.U.U.U.U.U.U.U.U.U.U.U.U.U.U.U.U.U.U.U.U.U.U.U.U.U.U.U.U.U.U.U.U.U.U.U.U.U.U.",
"U.U.U.U.U.U.U.U.U.U.U.U.U.U.U.U.U.U.U.U.U.U.U.U.U.U.U.U.U.U.U.U.U.U.U.U.U.U.U.U.U.U.U.U.U.U.U.U.U.U.U.U.U.U.U.U.U.U.U.U.U.U.U.U.",
"U.U.U.U.U.U.U.U.U.U.U.U.U.U.U.U.U.U.U.U.U.U.U.U.U.U.U.U.U.U.U.U.U.U.U.U.U.U.U.U.U.U.U.U.U.U.U.U.U.U.U.U.U.U.U.U.U.U.U.U.U.U.U.U.",
"U.U.U.U.U.U.U.U.U.U.U.U.U.U.U.U.U.U.U.U.U.U.U.C.C.U.U.U.U.U.U.U.U.U.U.U.U.U.U.U.U.U.U.U.U.U.U.U.U.U.U.U.U.U.U.U.U.U.U.U.U.U.U.U.",
"U.U.U.U.U.U.U.U.U.U.U.U.U.U.U.U.U.U.U.U.U.U.U.C.C.U.U.U.U.U.U.U.U.U.U.U.U.U.U.U.U.U.U.U.U.U.U.U.U.U.U.U.U.U.U.U.U.U.U.U.U.U.U.U.",
"U.U.U.U.U.U.U.U.U.U.U.U.U.U.U.U.U.C.C.U.U.U.U.C.C.U.U.U.U.C.C.U.U.U.U.U.U.U.U.U.U.U.U.U.U.U.U.U.U.U.U.U.U.U.U.U.U.U.U.U.U.U.U.U.",
"U.U.U.U.U.U.U.U.U.U.U.U.U.U.U.U.U.C.C.U.U.U.U.C.C.U.U.U.U.C.C.U.U.U.U.U.U.U.U.U.U.U.U.U.U.U.U.U.U.U.U.U.U.U.U.U.U.U.U.U.U.U.U.U.",
"U.U.U.U.U.U.U.U.U.U.U.U.U.U.U.U.U.U.U.C.C.U.U.U.U.U.U.C.C.U.U.U.U.U.U.U.H.U.U.U.U.U.U.U.U.U.U.U.U.U.U.U.U.U.U.U.U.C.C.U.U.U.U.U.",
"U.U.U.U.U.U.U.U.U.U.U.U.U.U.U.U.U.U.U.C.C.U.U.U.U.U.U.C.C.U.U.U.U.I.I.O.y { P.U.U.U.U.U.U.U.U.U.U.U.U.U.U.U.U.U.U.C.C.U.U.U.U.U.",
"C.U.U.U.U.U.U.U.U.U.U.U.U.U.U.U.U.U.U.U.U.U.U.U.U.U.U.U.U.U.U.U.U.U.H.s > y K.U.U.U.U.U.U.U.U.U.U.U.U.C.C.U.U.U.U.C.C.U.U.U.U.C.",
"C.U.U.U.U.U.U.U.U.U.U.U.U.U.U.U.U.U.U.U.U.U.U.U.U.U.U.U.U.U.U.U.U.U.I.o.q O.I.U.U.U.U.U.U.U.U.U.U.U.U.C.C.U.U.U.U.C.C.U.U.U.U.C.",
"U.U.U.U.U.U.U.U.U.U.U.U.U.U.U.U.U.U.U.U.U.U.U.U.U.U.U.U.U.U.U.U.U.U.U.P.K.I.U.U.U.U.U.U.U.U.U.U.U.U.U.U.U.C.C.U.U.U.U.U.U.C.C.U.",
"U.U.U.U.U.U.U.U.U.U.U.U.U.U.U.U.U.U.U.U.U.U.U.U.U.U.U.U.U.U.U.U.U.U.U.U.U.U.U.U.U.U.U.U.U.U.U.U.U.U.U.U.U.C.C.U.U.U.U.U.U.C.C.U.",
"U.U.U.U.U.U.U.U.U.U.U.U.U.U.U.U.U.U.U.U.P.U.U.U.U.U.U.U.U.U.U.U.U.U.U.U.U.U.U.U.U.U.U.U.U.U.U.U.U.U.U.U.U.U.U.U.U.U.U.U.U.U.U.U.",
"U.U.U.U.U.U.U.U.U.U.U.U.U.U.U.U.U.U.U.P.U.U.U.U.U.U.U.U.U.U.U.U.G.S.K.U.U.U.U.U.U.U.U.U.U.U.U.U.U.U.U.U.U.U.U.U.U.U.U.U.U.U.U.U.",
"U.U.U.U.U.U.U.U.U.U.U.U.U.U.U.U.U.U.U.U.U.U.U.U.U.U.U.U.U.U.U.P.N.d .././.U.U.U.U.U.U.U.U.U.U.U.U.U.U.U.U.U.U.U.U.U.U.U.U.U.U.U.",
"U.U.U.U.U.U.U.U.U.U.U.U.U.U.U.U.U.U.U.U.U.U.U.U.U.U.P.P.P.J.B.| % } I././.U.U.U.U.U.U.U.U.U.U.U.U.U.U.U.U.U.U.U.U.U.U.U.U.U.U.U.",
"U.U.U.U.U.U.U.U.U.U.U.U.U.U.U.U.U.U.U.U.U.U.U.U.U.U.G...} a F.p O N.U././.U.U.U.U././.U.U.U.U.U.U.U.U.U.U.U.U.U.U.U.U.U.U.U.U.U.",
"U.U.U.U.U.U.U.U.U.U.U.U.U.U.U.U.U.U.U.U.U.U.U.U.U.U.P.k   r O.O u J.U././.U.U.U.U././.U.U.U.U.U.U.U.U.U.U.U.U.U.U.U.U.U.U.U.U.U.",
"U.U.U.U.U.U.U.U.U.U.U.U.U.U.U.U.U.U.U.U.U.U.U.U.U.U.P.k   w +.o * B.U.U.U.U.U././.U.U.U.U.U.U.U.U.U.U.U.U.U.U.U.U.U.U.U.U.U.U.U.",
"U.U.U.U.U.U.U.U.U.U.U.U.U.U.U.U.U.U.U.U.U.U.U.U.U.U.P.[   - p O l J.U.U.U.U.U././.U.U.U.U.U.U.U.U.U.U.U.U.U.U.U.U.U.U.U.U.U.U.U.",
"U.U.U.U.U.U.U.U.U.U.U.U.U.U.U.U.U.U.U.U.U.U.U.U.U.U.U.[   w | + k U.U.U.U.U.U.U.U.U.U.U.U.U.U.U.U.U.U.U.U.U.U.U.U.U.U.U.U.U.U.U.",
"U.U.U.U.U.U.U.U.U.U.U.U.U.U.U.U.U.U.U.U.U.U.U.U.U.U.U.p   & i + [ U.D.l O.U.U.U.U.U.U.U.U.U.U.U.U.U.U.U.U.U.U.U.U.U.U.U.U.U.U.U.",
"U.U.U.U.U.U.U.U.U.U.U.U.U.U.U.U.U.U.U.U.U.U.U.U.U.U.V.& . o + e J.U.Z.; 5 A.U.U.U.U.U.U.U.U.U.U.U.U.U.U.U.U.U.U.U.U.U.U.U.U.U.U.",
"U.U.U.U.U.U.U.U.U.U.U.U.U.U.U.U.U.U.U.U.U.U.U.U.U.U.V.  . O + e J.T.H.f h K.U.U.U.U.U.U.U.U.U.U.U.U.U.U.U.U.U.U.U.U.U.U.U.U.U.U.",
"U.U.U.U.U.P.U.U.U.U.U.U.U.U.U.U.U.U.U.U.U.U.U.U.I.U.B.X X O + 2 J K K w.K.U.U.U.U.U.U.U.U.U.U.U.U.U.U.U.U.U.U.U.U.U.U.U.U.U.U.U.",
"U.U.U.U.U.U.P.U.U.U.U.U.U.U.U.U.U.U.U.U.U.U.U.U.I.I.N.X o + + x N M N V R.U.U.U.U.U.P.U.P.P.U.U.U.U.U.U.U.U.U.U.U.U.U.U.U.U.U.U.",
"U.U.U.U.U.U.U.U.U.U.U.U.U.U.U.U.U.U.U.U.U.U.U.U.P.I.N.. O + + z N N N M ] U.U.U.I.P.A.I. . .I.U.U.U.U.U.U.U.U.U.U.U.U.U.U.U.U.U.",
"U.U.U.U.U.U.U.U.U.U.U.U.U.U.U.U.U.U.U.U.U.U.U.U.P.P.g . O @ + 7 N N N m t G.U.U.U.I.I.I.| a K.U.U.U.U.U.U.U.U.U.U.U.U.U.U.U.U.U.",
"U.U.U.U.U.U.U.U.U.U.U.U.U.U.U.U.U.U.U.U.U.U.U.U.I.P.w . + : + $ c N n 7 + N.U.U.U.U.U.U.I.K.I.U.U.U.U.U.U.U.U.U.U.U.U.U.U.U.U.U.",
"U.U.U.U.U.U.U.U.U.U.U.U.U.U.U.U.U.U.U.U.U.U.U.U.I.+.& . o $ + $ , b b > O | N.U.U.U.U.U.U.U.U.U.U.U.U.U.U.U.U.U.U.U.U.U.U.U.U.U.",
"U.U.U.U.U.U.U.U.U.U.U.U.U.U.U.U.U.U.U.U.U.U.U.U.I.N.& . ; , $ $ 3 n m b > & k U.U.U.U.U.U.U.U.U.U.U.U.U.U.U.U.U.U.U.U.U.U.U.U.U.",
"U.U.U.U.U.U.U.U.U.U.U.U.U.U.U.U.U.U.U.U.U.U.U.U.P.[ d j c A v , n M N N z O k U.U.U.U.U.U.U.U.U.U.U.U.U.U.U.U.U.U.U.U.U.U.U.U.U.",
"U.U.U.U.U.U.U.U.U.U.U.U.U.U.U.U.U.U.U.U.U.U.U.U.U.Z.O.G E ~ ~ Q Y E ^ ^ S # p J.U.U.U.U.U.U.U.U.U.U.U.U.U.U.U.U.U.U.U.U.U.U.U.U.",
"U.U.U.U.U.U.U.U.U.U.U.U.U.U.U.U.U.U.U.U.U.U.U.U.U.U.Y.E ~ _ ` ` ` _ _ _ _ S 0 A.U.U.U.U.U.U.U.U.U.U.U.U.U.U.U.U.U.U.U.U.U.U.U.U.",
"U.U.U.U.U.U.U.U.U.U.U.U.U.U.U.U.U.U.U.U.U.U.U.U.U.U.q.E _ ` #.` ` #.%.-.-.#.] J.U.T.R.T.U.U.U.U.U.U.U.U.U.U.U.C.C.U.U.U.U.U.U.U.",
"U.U.U.U.U.U.U.U.U.U.U.U.U.U.U.U.U.U.U.U.U.U.U.I.Y.0.D ^ ` ` ` ` ` &.;.;.;.;.:.] r.y.-.u.U.U.U.U.U.U.U.U.U.U.U.C.C.U.U.U.U.U.U.U.",
"U.U.U.U.U.U.U.U.U.U.U.U.U.U.U.U.U.U.U.U.U.U.K.h H R R ( -.-.;.;.;.-.;.-.;.;.c.t.=.%.%.>.E.U.U.U.U.C.C.U.U.U.U.C.C.U.U.U.U.C.C.U.",
"U.U.U.U.U.U.U.U.U.U.U.U.U.U.U.U.U.U.U.U.U.P...< T R ) 1.d.f.g.h.g.<.%.%.<.c.s.( $.=.=.>.E.U.U.U.U.C.C.U.U.U.U.C.C.U.U.U.U.C.C.U.",
"U.U.U.U.U.W.W.U.U.U.U.U.U.U.U.U.U.U.U.U.U.[ = $ B E 5.f.h.h.h.h.g.8.6.5.5.i.5.=.! ) *.a.E.U.U.U.U.U.U.C.C.U.U.U.U.U.U.C.C.U.U.U.",
"U.U.U.U.U.W.W.U.U.U.U.U.U.U.U.U.U.U.U.U.U.k # # < U f.h.h.h.h.h.g.7.7.6.6.2.2.2.E R r.U.U.U.U.U.U.U.U.C.C.U.U.U.U.U.U.C.C.U.U.U.",
"W.U.U.U.U.W.W.U.U.U.U.W.W.U.U.U.U.U.U.C.C.O.k k [ 9.h.h.h.h.h.h.h.g.j.k.k.d.2.5.=.Y e.U.U.U.U.U.U.U.U.U.U.U.U.U.U.U.U.U.U.U.U.W.",
"W.U.U.U.U.W.W.U.U.U.U.W.W.U.U.U.U.U.U.C.C.U.U.U.S.9.h.h.h.h.h.h.h.v.Q.Q.Q.n.5.2.=.C e.U.U.U.U.U.U.U.U.U.U.U.U.U.U.U.U.U.U.U.U.W.",
"U.W.W.U.U.U.U.U.U.W.W.U.U.U.U.U.U.U.U.U.U.C.C.I.X.9 ,.h.h.h.h.h.h.b.m.Q.Q.Q.z.;.t.e.L.U.U.U.U.U.U.U.U.U.U.U.U.U.U.U.U.U.U.U.U.U.",
"U.W.W.U.U.U.U.U.U.W.W.U.U.U.U.U.U.U.U.U.U.C.C.U.@.6 L h.h.h.h.h.l.n.n.M.Q.Q.z.;.p.U.U.U.U.U.U.U.U.U.U.U.U.U.U.U.U.U.U.U.U.U.U.U.",
"U.U.U.U.U.U.U.U.U.U.U.U.U.U.U.U.U.U.U.U.U.U.U.o.q 4 6 I h.h.h.l.b.n.b.Q.Q.Q.4.;.P  .H.U.U.U.U.U.U.U.U.I.I.U.U.U.U.U.U.U.U.U.U.U.",
"U.U.U.U.U.U.U.U.U.U.U.U.U.U.U.U.U.U.U.U.U.U.U.h 4 4 1 8 3.v.v.n.b.n.n.m.n.d.;.-.F < s S.U.U.U.U.U.U.U.U.I.U.U.U.U.U.U.U.U.U.U.U.",
"U.U.U.U.U.U.U.U.U.U.U.U.U.U.U.U.U.U.U.U.U.U.A.0 4 4 4 x W x.~.~.~.~.n.j.7.%.$.( Z < < Z.U.U.U.U.U.U.U.U.U.U.U.U.U.U.U.U.U.U.U.U.",
"U.U.U.U.U.U.U.U.U.U.U.U.U.U.U.U.U.U.U.U.U.U.Z.4 4 4 2 c N ' !.^.^.~.n.:./ Y v 9 6 < < N.U.U.U.U.U.U.U.U.U.U.U.U.U.U.U.U.U.U.U.U."
};
