/* XPM */
static char *wall_12[] = {
/* columns rows colors chars-per-pixel */
"64 64 181 2 ",
"   c #150605",
".  c #1B0807",
"X  c #1D0908",
"o  c #1B1B15",
"O  c #210B07",
"+  c #240C09",
"@  c #2A0E0B",
"#  c #2E120A",
"$  c #39160D",
"%  c #39140E",
"&  c #221D16",
"*  c #2E261D",
"=  c #252922",
"-  c #2F3529",
";  c #2B3F31",
":  c #49180D",
">  c #52170B",
",  c #591A0B",
"<  c #451B11",
"1  c #4C1E12",
"2  c #531E10",
"3  c #681D0B",
"4  c #7B1C07",
"5  c #5D220E",
"6  c #472111",
"7  c #4F2013",
"8  c #522213",
"9  c #5A2614",
"0  c #6E2C0E",
"q  c #4C3023",
"w  c #533A2A",
"e  c #2F4A3A",
"r  c #354233",
"t  c #7A4519",
"y  c #4A4D39",
"u  c #544A38",
"i  c #6B4C36",
"p  c #365542",
"a  c #495140",
"s  c #57604A",
"d  c #40715A",
"f  c #58755B",
"g  c #6E785A",
"h  c #477C62",
"j  c #5A7D6B",
"k  c #647E63",
"l  c #8D2706",
"z  c #962004",
"x  c #9A2103",
"c  c #813B0C",
"v  c #9B3609",
"b  c #9F390B",
"n  c #A83D0C",
"m  c #B43204",
"M  c #BA3704",
"N  c #C23503",
"B  c #C23804",
"V  c #884816",
"C  c #974F19",
"Z  c #B84107",
"A  c #B2540E",
"S  c #A94B15",
"D  c #B76717",
"F  c #89513A",
"G  c #93553C",
"H  c #BC5333",
"J  c #B3643B",
"K  c #C94606",
"L  c #CC4906",
"P  c #C8570C",
"I  c #D3590B",
"U  c #D55E0C",
"Y  c #D8650D",
"T  c #DB6A0F",
"R  c #CE6C16",
"E  c #DA7714",
"W  c #C14E20",
"Q  c #C66526",
"!  c #D86E23",
"~  c #D5773C",
"^  c #B55E40",
"/  c #B95F40",
"(  c #83694B",
")  c #A57B59",
"_  c #B07A5A",
"`  c #877E62",
"'  c #8D7E62",
"]  c #D07E42",
"[  c #498166",
"{  c #558365",
"}  c #4F8C70",
"|  c #569677",
" . c #658971",
".. c #7B8E70",
"X. c #669C7C",
"o. c #DA851E",
"O. c #E3831A",
"+. c #E88B1D",
"@. c #D88C2B",
"#. c #CE932F",
"$. c #EA9321",
"%. c #EB9C25",
"&. c #EEA52B",
"*. c #F2A328",
"=. c #F1AD2E",
"-. c #ECA939",
";. c #F1AF30",
":. c #F3B333",
">. c #F5BC36",
",. c #F5BD38",
"<. c #F7C23A",
"1. c #F8C739",
"2. c #FAC83B",
"3. c #96844F",
"4. c #BA8E5E",
"5. c #898D6F",
"6. c #829C7C",
"7. c #B69469",
"8. c #A19673",
"9. c #89A57F",
"0. c #98A27F",
"q. c #D88D4A",
"w. c #C18759",
"e. c #C28F5E",
"r. c #E9B144",
"t. c #EDB258",
"y. c #D6B662",
"u. c #C2BC7C",
"i. c #F9C941",
"p. c #FBD445",
"a. c #FAD04E",
"s. c #FEDB4A",
"d. c #F8CB52",
"f. c #FBD557",
"g. c #FCD95A",
"h. c #FFE051",
"j. c #FFE25B",
"k. c #F7CD68",
"l. c #FBD969",
"z. c #F9D67E",
"x. c #FEE361",
"c. c #FFE56F",
"v. c #FFE674",
"b. c #FFE77C",
"n. c #FFE87F",
"m. c #42A983",
"M. c #5CA583",
"N. c #40B088",
"B. c #65A987",
"V. c #63AC8A",
"C. c #65B28E",
"Z. c #7CB38F",
"A. c #7CAE95",
"S. c #66B691",
"D. c #69B691",
"F. c #69BC96",
"G. c #6BBF99",
"H. c #76B892",
"J. c #7BBB95",
"K. c #6EC59D",
"L. c #73C59D",
"P. c #7BC19A",
"I. c #75C89F",
"U. c #70C8A0",
"Y. c #8CAF8A",
"T. c #98AA83",
"R. c #99B389",
"E. c #82BA99",
"W. c #82C399",
"Q. c #A8C089",
"!. c #8BC2A6",
"~. c #88D8B8",
"^. c #9DDBBC",
"/. c #FADA82",
"(. c #FFE883",
"). c #FFEA8B",
"_. c #FEE893",
"`. c #FFED9E",
"'. c #FFEEA1",
"]. c #FFF3BB",
"[. c #A0E0C0",
/* pixels */
"U.U.U.U.U.U.U.U.U.U.U.U.U.U.U.U.U.U.U.U.U.U.U.U.U.U.U.U.U.U.U.U.U.U.U.U.U.U.U.U.U.U.U.U.U.U.U.U.U.U.U.U.U.U.U.U.U.U.U.U.U.U.U.U.",
"U.U.U.U.U.U.U.U.U.U.U.U.U.U.U.U.U.U.U.U.U.U.U.U.U.U.U.U.U.U.U.U.U.U.U.U.U.U.U.U.U.U.U.U.U.U.U.U.U.U.U.U.U.U.U.U.U.U.U.U.U.U.U.U.",
"U.U.U.U.U.U.U.U.U.U.U.U.U.U.U.U.U.U.U.U.U.U.U.U.U.U.U.U.U.U.U.U.U.U.U.U.U.U.U.U.U.U.U.U.U.U.U.U.U.U.U.U.U.U.U.U.U.U.U.U.U.U.U.U.",
"U.U.U.U.U.U.U.U.U.U.U.U.U.U.U.U.U.U.U.U.U.U.U.U.U.U.U.U.U.U.U.U.U.U.U.U.U.U.U.U.U.U.U.U.U.U.U.U.U.U.U.U.U.U.U.U.U.U.U.U.U.U.U.U.",
"U.U.U.U.U.U.U.U.U.U.U.U.U.U.U.U.U.U.U.U.U.U.U.U.U.U.U.U.U.U.U.U.U.U.U.U.U.U.U.U.U.U.U.U.U.U.U.U.U.U.U.U.U.U.U.U.U.U.U.U.U.U.U.U.",
"U.U.U.U.U.U.U.U.U.U.[.[.U.U.U.U.U.U.U.U.U.U.U.U.U.U.U.U.U.U.U.U.U.U.U.U.U.U.U.U.U.U.U.U.U.U.U.U.U.U.U.U.U.U.U.U.U.U.U.U.U.U.U.U.",
"U.U.U.U.U.U.U.U.U.U.[.[.U.U.U.U.U.U.U.U.U.U.U.U.U.U.U.U.U.U.U.U.U.U.U.U.U.U.U.U.U.U.U.U.U.U.U.U.U.U.U.U.U.U.U.U.U.U.U.U.U.U.U.U.",
"U.U.U.U.[.[.U.U.U.U.[.[.U.U.U.U.[.[.U.U.U.U.U.U.U.U.U.U.U.U.U.U.U.U.U.U.U.U.U.U.U.U.U.U.U.U.U.U.U.U.U.U.U.U.U.U.U.U.U.U.U.U.U.U.",
"U.U.U.U.[.[.U.U.U.U.[.[.U.U.U.U.[.[.U.U.U.U.U.U.U.U.U.U.U.U.U.U.U.U.U.U.U.K.U.U.U.U.U.U.U.U.U.U.U.U.U.U.U.U.U.U.U.U.U.U.U.U.U.U.",
"U.U.U.U.U.U.[.[.U.U.U.U.U.U.[.[.U.U.U.U.U.U.U.U.U.U.U.U.U.U.U.U.U.U.U.U.U.U.U.U.U.U.U.U.U.U.U.U.U.U.U.U.U.U.U.U.U.U.U.U.U.U.U.U.",
"U.U.U.U.U.U.[.[.U.U.U.U.U.U.[.[.U.U.U.U.U.U.U.U.U.U.U.U.U.U.U.U.U.U.U.U.U.U.U.U.U.U.U.U.U.U.U.U.U.U.U.U.U.U.U.U.U.U.U.U.U.U.U.U.",
"U.U.U.U.U.U.U.U.U.U.U.U.U.U.U.U.U.U.U.U.U.U.U.U.U.U.U.U.U.U.U.U.U.U.U.U.U.U.U.U.U.U.U.U.U.U.U.U.U.U.U.U.U.U.U.U.U.U.U.U.U.U.U.U.",
"U.U.U.U.U.U.U.U.U.U.U.U.U.U.U.U.U.U.U.U.U.U.U.U.U.U.U.U.U.U.U.U.U.U.U.U.U.U.U.U.U.U.U.U.U.U.U.U.U.U.U.U.U.U.U.U.U.U.U.U.U.U.U.U.",
"U.U.U.U.U.U.U.U.U.U.U.U.U.U.U.U.U.U.U.U.U.U.U.U.U.U.U.U.U.U.U.U.U.U.U.U.U.U.U.U.U.U.U.U.U.U.U.U.U.U.U.U.U.U.U.U.U.U.U.U.U.U.U.U.",
"U.U.U.U.U.U.U.U.U.U.U.U.U.U.U.U.U.U.U.U.U.U.U.U.U.U.U.U.U.U.U.U.U.U.U.U.U.U.U.U.U.U.U.U.U.U.U.U.U.U.U.U.U.U.U.U.U.U.U.U.U.U.U.U.",
"U.U.U.U.U.U.U.U.U.U.U.U.U.U.U.U.U.U.U.U.U.U.U.U.U.U.U.U.U.U.U.U.U.U.U.U.U.U.U.U.U.U.U.U.U.U.U.U.U.U.U.U.U.U.U.U.U.U.U.U.U.U.U.U.",
"U.U.U.U.U.U.U.U.U.U.U.U.U.U.U.U.U.U.U.U.U.U.U.U.U.U.U.U.U.U.U.U.U.U.U.U.U.U.U.U.U.U.U.U.U.U.U.U.U.U.U.U.U.U.U.U.U.U.U.U.U.U.U.U.",
"U.U.U.U.U.U.U.U.U.U.U.U.U.U.U.U.U.U.U.U.U.U.U.U.U.U.U.U.U.U.U.U.U.U.U.U.U.U.U.U.U.U.U.U.U.U.U.U.U.U.U.U.U.U.U.U.U.U.U.U.U.U.U.U.",
"U.U.U.U.U.U.U.U.U.U.U.U.U.U.U.U.U.U.U.U.U.U.U.N.N.U.U.U.U.U.U.U.U.U.U.U.U.U.U.U.U.U.U.U.U.U.U.U.U.U.U.U.U.U.U.U.U.U.U.U.U.U.U.U.",
"U.U.U.U.U.U.U.U.U.U.U.U.U.U.U.U.U.U.U.U.U.U.U.N.N.U.U.U.U.U.U.U.U.U.U.U.U.U.U.U.U.U.U.U.U.U.U.U.U.U.U.U.U.U.U.U.U.U.U.U.U.U.U.U.",
"U.U.U.U.U.U.U.U.U.U.U.U.U.U.U.U.U.N.N.U.U.U.U.N.N.U.U.U.U.N.N.U.U.U.U.U.U.U.U.U.U.U.U.U.U.U.U.U.U.U.U.U.U.U.U.U.U.U.U.U.U.U.U.U.",
"U.U.U.U.U.U.U.U.U.U.U.U.U.U.U.U.U.N.N.U.U.U.U.N.N.U.U.U.U.N.N.U.U.U.U.U.U.U.U.U.U.U.U.U.U.U.U.U.U.U.U.U.U.U.U.U.U.U.U.U.U.U.U.U.",
"U.U.U.U.U.U.U.U.U.U.U.U.U.U.U.U.U.U.U.N.N.U.U.U.U.U.U.N.N.U.U.U.U.U.U.U.U.U.U.U.U.U.U.U.U.U.U.U.U.U.U.U.U.U.U.U.U.N.N.U.U.U.U.U.",
"U.U.U.U.U.U.U.U.U.U.U.U.U.U.U.U.U.U.U.N.N.U.U.U.U.U.U.N.N.U.U.U.U.U.U.U.U.U.U.U.U.U.U.U.U.U.U.U.U.U.U.U.U.U.U.U.U.N.N.U.U.U.U.U.",
"N.U.U.U.U.U.U.U.U.U.U.U.U.U.U.U.U.U.U.U.U.U.U.U.U.U.U.U.U.U.U.U.U.U.U.U.U.U.U.U.U.U.U.U.U.U.U.U.U.U.U.N.N.U.U.U.U.N.N.U.U.U.U.N.",
"N.U.U.U.U.U.U.U.U.U.U.U.U.U.U.U.U.U.U.U.U.U.U.U.U.U.U.U.U.U.U.U.U.U.U.U.U.U.U.U.U.U.U.U.U.U.U.U.U.U.U.N.N.U.U.U.U.N.N.U.U.U.U.N.",
"U.U.U.U.U.U.U.U.U.U.U.U.U.U.U.U.U.U.U.U.U.U.U.U.U.U.U.U.U.U.U.U.U.U.U.U.U.U.U.U.U.U.U.U.U.U.U.U.U.U.U.U.U.N.N.U.U.U.U.U.U.N.N.U.",
"U.U.U.U.U.U.U.U.U.U.U.U.U.U.U.U.U.U.U.U.U.U.U.U.U.U.U.U.U.K.K.U.U.U.U.U.U.U.U.U.U.U.U.U.U.U.U.U.U.U.U.U.U.N.N.U.U.U.U.U.U.N.N.U.",
"U.U.U.U.U.U.U.U.U.U.U.U.U.U.U.U.U.U.U.U.K.U.U.U.U.U.U.U.U.K.[ F.U.U.K.K.S.U.U.U.U.U.U.U.U.U.U.U.U.U.U.U.U.U.U.U.U.U.U.U.U.U.U.U.",
"U.U.U.U.U.U.U.U.U.U.U.U.U.U.U.U.U.U.U.K.U.U.U.U.U.U.U.U.K.G.; d K.K.V.d h K.U.U.U.U.U.U.U.U.U.U.U.U.U.U.U.U.U.U.U.U.U.U.U.U.U.U.",
"U.U.U.U.U.U.U.U.U.U.U.U.U.U.U.U.U.U.U.U.U.U.U.U.U.U.U.U.U.K.; ; K.K.p   = } K.U.U.U.U.U.U.U.U.U.U.U.U.U.U.U.U.U.U.U.U.U.U.U.U.U.",
"U.U.U.U.U.U.U.U.U.U.U.U.U.U.U.U.U.U.U.U.U.U.U.U.U.U.U.U.U.K.[ } K.| o     } K.U.U.U.U.U.U.U.U.U.U.U.U.U.U.U.U.U.U.U.U.U.U.U.U.U.",
"U.U.U.U.U.U.U.U.U.U.U.U.U.U.U.U.U.U.U.U.U.U.U.U.U.U.U.U.U.^. .M.K.h X     M.U.U.U.[.[.U.U.U.U.U.U.U.U.U.U.U.U.U.U.U.U.U.U.U.U.U.",
"U.U.U.U.U.U.U.U.U.U.U.U.U.U.U.U.U.U.U.U.U.U.U.U.U.U.U.U.U.^.A.G.S.e X   j S.U.U.U.[.[.U.U.U.U.U.U.U.U.U.U.U.U.U.U.U.U.U.U.U.U.U.",
"U.U.U.U.U.U.U.U.U.U.U.U.U.U.U.U.U.U.U.U.U.U.K.K.U.U.U.U.U.U.K.[.P.. X ; G.M.K.[.[.U.U.U.U.U.U.K.D.U.U.U.U.U.U.U.U.U.U.U.U.U.U.U.",
"U.U.U.U.U.U.U.U.U.U.U.U.U.U.U.U.U.U.U.U.U.U.G.Y.' ` ` Z.U.U.S.!.A.+ * | U.U.U.[.[.U.U.U.U.U.U.X.a S.U.U.U.U.U.U.U.U.U.U.U.U.U.U.",
"U.U.U.U.U.U.U.U.U.U.U.U.U.U.U.U.U.U.U.U.U.U.U.' z , > ..L.U.M.- - & | L.U.U.U.U.U.U.U.U.U.U.K.G.{ C.U.U.U.U.U.U.U.U.U.U.U.U.U.U.",
"U.U.U.U.U.U.U.U.U.U.U.U.U.U.U.U.U.U.U.U.U.U.U.' x 4 > F P.K.| # @ ; F.U.U.U.U.U.U.U.U.U.U.U.U.U.U.U.U.U.U.U.U.U.U.U.U.U.U.U.U.U.",
"U.U.U.U.U.U.U.U.U.U.U.U.U.U.U.U.U.U.U.U.U.U.U.' x x z Y.L.K.p @ @ O g R.U.U.U.U.U.U.U.U.U.U.U.U.U.U.U.U.U.U.U.U.U.U.U.U.U.U.U.U.",
"U.U.U.U.U.U.U.U.U.U.U.U.U.U.U.U.U.U.U.U.U.U.U.Z.5.G 6.B.B.G.r @ @ 0 Y ! e.R.U.U.U.U.U.U.U.U.U.U.U.U.U.U.U.U.U.U.U.U.U.U.U.U.U.U.",
"U.U.U.U.U.U.U.U.U.U.U.U.U.U.U.U.U.U.U.U.U.U.U.U.L.P.S.M.} K.r @ c T T T T q.J.L.K.U.U.U.U.U.U.U.U.U.U.U.U.U.U.U.U.U.U.U.U.U.U.U.",
"U.U.U.U.U.U.U.U.U.U.U.U.U.U.U.U.U.U.U.U.U.U.U.U.U.U.U.K.S.F.r $ Y T T T T R X.L.U.U.U.U.U.U.U.U.U.U.U.U.U.U.U.U.U.U.U.U.U.U.U.U.",
"U.U.U.U.U.U.U.U.U.U.U.U.U.U.U.U.U.U.U.U.U.U.U.U.U.U.U.U.U.[ + # A T T T T P k U.U.U.U.U.U.U.U.U.U.U.U.U.U.U.U.U.U.U.U.U.U.U.U.U.",
"U.U.U.U.U.U.U.U.U.U.U.U.U.U.U.U.U.U.U.U.U.U.U.U.U.U.U.U.Y.G l l n P Y T T Q  .L.P.P.U.U.U.U.U.U.U.U.U.U.U.U.U.U.U.U.U.U.U.U.U.U.",
"U.U.U.U.U.U.U.U.U.U.U.U.U.U.U.U.U.U.U.U.U.U.U.U.U.U.U.P.^ N N K K K L D 4.R.H.0./ / 0.P.K.U.U.U.U.U.U.U.U.U.U.U.U.U.U.U.U.U.U.U.",
"U.U.U.U.U.U.U.U.U.U.U.U.U.U.U.U.U.U.U.U.U.U.U.U.U.U.U.E.H N B K K K L u F.K.T.B B B B _ P.U.U.U.U.U.U.U.U.U.U.U.U.U.U.U.U.U.U.U.",
"U.U.U.U.U.U.U.U.U.U.U.U.U.U.U.U.U.U.U.U.U.U.U.U.E.T.Y.J.H m N K K L Z : [ P./ B B B B H P.U.U.U.U.U.U.U.U.U.U.U.U.U.U.U.U.U.U.U.",
"U.U.U.U.U.U.U.U.U.U.U.U.U.U.U.U.U.U.U.U.U.U.U.E.w.I ] T.F m m m Z Z 5 = M.P./ B B B B H P.U.U.U.U.U.U.U.U.U.U.U.U.U.U.U.U.U.U.U.",
"U.U.U.U.U.U.U.U.U.U.U.U.U.U.U.U.U.U.U.U.U.U.U.7.Y Y U Q 9 2 < < 6 $ : t g G.0.N B B B H P.U.U.U.U.U.U.U.U.U.U.U.U.U.U.U.U.U.U.U.",
"U.U.U.U.U.U.U.U.U.U.U.U.U.U.U.U.U.U.U.U.U.U.U.7.U U I P 9 < % > , V R $.o.9.J._ H H H 8.L.U.U.U.U.U.U.U.U.U.U.U.U.U.U.U.U.U.U.U.",
"U.U.U.U.U.U.U.U.U.U.U.U.U.U.U.U.U.U.U.U.U.U.U.E.w.U P 0 1 < : 3 C @.*.$.$.@.g H.P.P.P.L.U.U.U.U.U.U.U.U.U.U.U.N.N.U.U.U.U.U.U.U.",
"U.U.U.U.U.U.U.U.U.U.U.U.U.U.U.U.U.U.U.U.U.U.U.U.Z.( 2 $ 2 9 0 #.2.2.1.:.%.o.0 B.K.L.U.U.U.U.U.U.U.U.U.U.U.U.U.N.N.U.U.U.U.U.U.U.",
"U.U.U.U.U.U.U.U.U.U.U.U.U.U.U.U.U.U.U.U.U.U.U.G.s q > 5 M C #.i.<.<.d.d.;.O.i H.U.U.U.U.U.U.U.U.U.N.N.U.U.U.U.N.N.U.U.U.U.N.N.U.",
"U.U.U.U.U.U.U.U.U.U.U.U.U.U.U.U.U.U.U.U.U.U.U.K.s u n M K I ,.,.<.>./.z.<.@.J R.W.I.U.U.U.U.U.U.U.N.N.U.U.U.U.N.N.U.U.U.U.N.N.U.",
"U.U.U.U.U.~.~.U.U.U.U.U.U.U.U.U.U.U.U.U.U.U.U.U.D.{ W I E +.>.,.<.1././.1.&.&.-.r.Q.U.U.U.U.U.U.U.U.U.N.N.U.U.U.U.U.U.N.N.U.U.U.",
"U.U.U.U.U.~.~.U.U.U.U.U.U.U.U.U.U.U.U.U.U.U.U.U.B.1 S O.+.$.>.f.l.l.b.d.2.>.=.;.:.y.W.U.U.U.U.U.U.U.U.N.N.U.U.U.U.U.U.N.N.U.U.U.",
"~.U.U.U.U.~.~.U.U.U.U.~.~.U.U.U.U.U.U.N.N.U.U.V.u 1 V %.=.>.a.).).).(.f.p.>.=.=.;.r.W.U.U.U.U.U.U.U.U.U.U.U.U.U.U.U.U.U.U.U.U.~.",
"~.U.U.U.U.~.~.U.U.U.U.~.~.U.U.U.U.U.U.N.N.U.V.e 1 9 S -.1.1.g.).n.(.(.x.s.<.;.;.:.u.U.U.U.U.U.U.U.U.U.U.U.U.U.U.U.U.U.U.U.U.U.~.",
"U.~.~.U.U.U.U.U.U.~.~.U.U.U.U.U.U.U.U.U.U.m.y 1 7 v ~ k.k.f.)._.v.v.v.x.h.s.<.%.3.M.S.U.U.U.U.U.U.U.U.U.U.U.U.U.U.U.U.U.U.U.U.U.",
"U.~.~.U.U.U.U.U.U.~.~.U.U.U.U.U.U.U.U.U.U.m.w 7 1 v T i._.'.'.`.`.(.v.c.h.p.$.E # . e V.U.U.U.U.U.U.U.U.U.U.U.U.U.U.U.U.U.U.U.U.",
"U.U.U.U.U.U.U.U.U.U.U.U.U.U.U.U.U.U.U.U.U.G.u 1 7 b L t.).'.].`.`.`.v.c.h.p.o.D # X X p G.U.U.U.U.U.U.L.U.U.U.U.U.U.U.U.U.U.U.U.",
"U.U.U.U.U.U.U.U.U.U.U.U.U.U.U.U.U.U.U.U.U.L.B.f f ) ! z.).).`.`.`.b.j.j.s.p.O.t < $ = p K.U.U.U.U.U.U.U.U.U.U.U.U.U.U.U.U.U.U.U.",
"U.U.U.U.U.U.U.U.U.U.U.U.U.U.U.U.U.U.U.U.U.U.U.K.K.J.q.).).(.)._.n.h.s.p.s.>.T V 7 8 f K.K.U.U.U.U.U.U.U.U.U.U.U.U.U.U.U.U.U.U.U.",
"U.U.U.U.U.U.U.U.U.U.U.U.U.U.U.U.U.U.U.U.U.U.U.U.U.L.u.).).(.n.(.v.a.<.2.s.$.P 5 7 w B.U.U.U.U.U.U.U.U.U.U.U.U.U.U.U.U.U.U.U.U.U."
};
