/* XPM */
static char *wall_4[] = {
/* columns rows colors chars-per-pixel */
"64 64 182 2 ",
"   c #150505",
".  c #180707",
"X  c #1C0807",
"o  c #19130E",
"O  c #250B07",
"+  c #250C0A",
"@  c #2A0E0B",
"#  c #2E100C",
"$  c #2A150F",
"%  c #33120D",
"&  c #3B150E",
"*  c #3E1710",
"=  c #1C231B",
"-  c #28231B",
";  c #35261D",
":  c #1F2B21",
">  c #2A2D24",
",  c #382B21",
"<  c #2B3A2E",
"1  c #4C1409",
"2  c #451A0D",
"3  c #561A09",
"4  c #451910",
"5  c #4C1E12",
"6  c #651907",
"7  c #751B06",
"8  c #482317",
"9  c #4F291A",
"0  c #682A0D",
"q  c #67310F",
"w  c #702C12",
"e  c #6D3E13",
"r  c #703219",
"t  c #4F3A2B",
"y  c #2C4A3A",
"u  c #304437",
"i  c #354A3A",
"p  c #3F4F3E",
"a  c #30503F",
"s  c #444435",
"d  c #494938",
"f  c #4B513E",
"g  c #355846",
"h  c #39644F",
"j  c #475542",
"k  c #664742",
"l  c #526C55",
"z  c #43765E",
"x  c #4C725A",
"c  c #71694F",
"v  c #797459",
"b  c #477D63",
"n  c #4B7C62",
"m  c #547261",
"M  c #8D1E04",
"N  c #901F04",
"B  c #8F2F0E",
"V  c #9B2103",
"C  c #982505",
"Z  c #82310C",
"A  c #A92301",
"S  c #B02400",
"D  c #AC3507",
"F  c #B63906",
"G  c #B03014",
"H  c #AF490C",
"J  c #B3420A",
"K  c #BF4809",
"L  c #AC681D",
"P  c #B96E1C",
"I  c #9E5939",
"U  c #AD4120",
"Y  c #B84F27",
"T  c #C64305",
"R  c #C94506",
"E  c #C54A09",
"W  c #CC4D08",
"Q  c #C9520B",
"!  c #D2550A",
"~  c #D35D0C",
"^  c #CB541B",
"/  c #D8620C",
"(  c #CE6B16",
")  c #D36412",
"_  c #D96A13",
"`  c #E17712",
"'  c #E47B14",
"]  c #D36420",
"[  c #DA7128",
"{  c #CD6F38",
"}  c #CE7039",
"|  c #946F41",
" . c #AC684C",
".. c #A07A5D",
"X. c #9C7E61",
"o. c #CC7540",
"O. c #D47F43",
"+. c #3F9875",
"@. c #4B8469",
"#. c #4F8C6F",
"$. c #54866A",
"%. c #589678",
"&. c #57997A",
"*. c #6D8366",
"=. c #E68419",
"-. c #C2802A",
";. c #E18024",
":. c #E69225",
">. c #EB9521",
",. c #ED9A23",
"<. c #EB9D2C",
"1. c #E58F37",
"2. c #E49837",
"3. c #EEA329",
"4. c #F1AD2E",
"5. c #EFAA3D",
"6. c #F1AF31",
"7. c #EDB035",
"8. c #F3B432",
"9. c #F5BB37",
"0. c #F1B439",
"q. c #F7C53D",
"w. c #F8C73D",
"e. c #B9885E",
"r. c #83926A",
"t. c #8F9E7D",
"y. c #B4966B",
"u. c #A59270",
"i. c #B8A270",
"p. c #C38E44",
"a. c #D0854D",
"s. c #C3905E",
"d. c #E8AC41",
"f. c #C09C6B",
"g. c #C6AB62",
"h. c #E8A577",
"j. c #F9CA44",
"k. c #F8C855",
"l. c #FCD957",
"z. c #F6CA6C",
"x. c #FBD666",
"c. c #E8D178",
"v. c #F9D573",
"b. c #FCDF76",
"n. c #FEE161",
"m. c #FEE474",
"M. c #FEE47B",
"N. c #5CA483",
"B. c #5FA987",
"V. c #40B088",
"C. c #62A987",
"Z. c #62AC8A",
"A. c #65B28E",
"S. c #67B692",
"D. c #6BBC96",
"F. c #6CBF99",
"G. c #77B091",
"H. c #6EC59D",
"J. c #73C79F",
"K. c #70C8A0",
"L. c #86AC88",
"P. c #93AC87",
"I. c #88B38D",
"U. c #93B48C",
"Y. c #92B88F",
"T. c #83B898",
"R. c #A5B98E",
"E. c #B3A4A3",
"W. c #DABE9A",
"Q. c #8DD0B0",
"!. c #88D8B8",
"~. c #FDE586",
"^. c #FFE986",
"/. c #FFEA8C",
"(. c #FCE391",
"). c #FFEC94",
"_. c #FFED9B",
"`. c #CDC0B2",
"'. c #FFEEA3",
"]. c #FFEFAB",
"[. c #FFF0A8",
"{. c #A0E0C0",
/* pixels */
"K.K.K.K.K.K.K.K.K.K.K.K.K.K.K.K.K.K.K.K.K.K.K.K.K.K.K.K.K.K.K.K.K.K.K.K.K.K.K.K.K.K.K.K.K.K.K.K.K.K.K.K.K.K.K.K.K.K.K.K.K.K.K.K.",
"K.K.K.K.K.K.K.K.K.K.K.K.K.K.K.K.K.K.K.K.K.K.K.K.K.K.K.K.K.K.K.K.K.K.K.K.K.K.K.K.K.K.K.K.K.K.K.K.K.K.K.K.K.K.K.K.K.K.K.K.K.K.K.K.",
"K.K.K.K.K.K.K.K.K.K.K.K.K.K.K.K.K.K.K.K.K.K.K.K.K.K.K.K.K.K.K.K.K.K.K.K.K.K.K.K.K.K.K.K.K.K.K.K.K.K.K.K.K.K.K.K.K.K.K.K.K.K.K.K.",
"K.K.K.K.K.K.K.K.K.K.K.K.K.K.K.K.K.K.K.K.K.K.K.K.K.K.K.K.K.K.K.K.K.K.K.K.K.K.K.K.K.K.K.K.K.K.K.K.K.K.K.K.K.K.K.K.K.K.K.K.K.K.K.K.",
"K.K.K.K.K.K.K.K.K.K.K.K.K.K.K.K.K.K.K.K.K.K.K.K.K.K.K.K.K.K.K.K.K.K.K.K.K.K.K.K.K.K.K.K.K.K.K.K.K.K.K.K.K.K.K.K.K.K.K.K.K.K.K.K.",
"K.K.K.K.K.K.K.K.K.K.{.{.K.K.K.K.K.K.K.K.K.K.K.K.K.K.K.K.K.K.K.K.K.K.K.K.K.K.K.K.K.K.K.K.K.K.K.K.K.K.K.K.K.K.K.K.K.K.K.K.K.K.K.K.",
"K.K.K.K.K.K.K.K.K.K.{.{.K.K.K.K.K.K.K.K.K.K.K.K.K.K.K.K.K.K.K.K.K.K.K.K.K.K.K.K.K.K.K.K.K.K.K.K.K.K.K.K.K.K.K.K.K.K.K.K.K.K.K.K.",
"K.K.K.K.{.{.K.K.K.K.{.{.K.K.K.K.{.{.K.K.K.K.K.K.K.K.K.K.K.K.K.K.K.K.K.K.K.K.K.K.K.K.K.K.K.K.K.K.K.K.K.K.K.K.K.K.K.K.K.K.K.K.K.K.",
"K.K.K.K.{.{.K.K.K.K.{.{.K.K.K.K.{.{.K.K.K.K.K.K.K.K.K.K.K.K.K.K.K.K.K.K.K.K.H.K.K.K.K.K.K.K.K.K.K.K.K.K.K.K.K.K.K.K.K.K.K.K.K.K.",
"K.K.K.K.K.K.{.{.K.K.K.K.K.K.{.{.K.K.K.K.K.K.K.K.K.K.K.K.K.K.K.K.K.K.K.K.K.K.H.K.K.K.K.K.K.K.K.K.K.K.K.K.K.K.K.K.K.K.K.K.K.K.K.K.",
"K.K.K.K.K.K.{.{.K.K.K.K.K.K.{.{.K.K.K.K.K.K.K.K.K.K.K.K.K.K.K.K.K.K.K.K.K.K.K.K.K.K.K.K.K.K.K.K.K.K.K.K.K.K.K.K.K.K.K.K.K.K.K.K.",
"K.K.K.K.K.K.K.K.K.K.K.K.K.K.K.K.K.K.K.K.K.K.K.K.K.K.K.K.K.K.K.K.K.K.K.K.K.K.K.K.K.K.K.K.K.K.K.K.K.K.K.K.K.K.K.K.K.K.K.K.K.K.K.K.",
"K.K.K.K.K.K.K.K.K.K.K.K.K.K.K.K.K.K.K.K.K.K.K.K.K.K.K.K.K.K.K.K.K.K.K.K.K.K.K.K.K.K.K.K.K.K.K.K.K.K.K.K.K.K.K.K.K.K.K.K.K.K.K.K.",
"K.K.K.K.K.K.K.K.K.K.K.K.K.K.K.K.K.K.K.K.K.K.K.K.K.K.K.K.K.K.K.K.K.K.K.K.K.K.K.K.K.K.K.K.K.K.K.K.K.K.K.K.K.K.K.K.K.K.K.K.K.K.K.K.",
"K.K.K.K.K.K.K.K.K.K.K.K.K.K.K.K.K.K.K.K.K.K.K.K.K.K.K.K.K.K.K.K.K.K.K.K.K.K.K.K.K.K.K.K.K.K.K.K.K.K.K.K.K.K.K.K.K.K.K.K.K.K.K.K.",
"K.K.K.K.K.K.K.K.K.K.K.K.K.K.K.K.K.K.K.K.K.K.K.K.K.K.K.K.K.K.K.K.K.K.K.K.K.K.K.K.K.K.K.K.K.K.K.K.K.K.K.K.K.K.K.K.K.K.K.K.K.K.K.K.",
"K.K.K.K.K.K.K.K.K.K.K.K.K.K.K.K.K.K.K.K.K.K.K.K.K.K.K.K.K.K.K.K.K.K.K.K.K.K.K.K.K.K.K.K.K.K.K.K.K.K.K.K.K.K.K.K.K.K.K.K.K.K.K.K.",
"K.K.K.K.K.K.K.K.K.K.K.K.K.K.K.K.K.K.K.K.K.K.K.K.K.K.K.K.K.K.K.K.K.K.K.K.K.K.K.K.K.K.K.K.K.K.K.K.K.K.K.K.K.K.K.K.K.K.K.K.K.K.K.K.",
"K.K.K.K.K.K.K.K.K.K.K.K.K.K.K.K.K.K.K.K.K.K.K.V.V.K.K.K.K.K.K.K.K.K.K.K.K.K.K.K.K.K.K.K.K.K.K.K.K.K.K.K.K.K.K.K.K.K.K.K.K.K.K.K.",
"K.K.K.K.K.K.K.K.K.K.K.K.K.K.K.K.K.K.K.K.K.K.K.V.V.K.K.K.K.K.K.K.K.K.K.K.K.K.K.K.K.K.K.K.K.K.K.K.K.K.K.K.K.K.K.K.K.K.K.K.K.K.K.K.",
"K.K.K.K.K.K.K.K.K.K.K.K.K.K.K.K.K.V.V.K.K.K.K.V.V.K.K.K.K.V.V.K.K.K.K.J.C.C.H.K.K.K.K.K.K.K.K.K.K.K.K.K.K.K.K.K.K.K.K.K.K.K.K.K.",
"K.K.K.K.K.K.K.K.K.K.K.K.K.K.K.K.K.V.V.K.K.K.K.V.V.K.K.K.K.V.V.K.K.K.K.F.s s F.K.K.K.K.K.K.K.K.K.K.K.K.K.K.K.K.K.K.K.K.K.K.K.K.K.",
"K.K.K.K.K.K.K.K.K.K.K.K.K.K.K.K.K.K.K.V.V.K.K.K.K.K.K.V.V.K.K.K.K.K.K.H.@.$.H.K.K.K.K.K.K.K.K.K.K.K.K.K.K.K.K.K.K.V.V.K.K.K.K.K.",
"K.K.K.K.K.K.K.K.K.K.K.K.K.K.K.K.K.K.K.V.V.K.K.K.K.K.K.V.V.K.K.K.K.K.K.H.K.K.K.K.K.K.K.K.K.K.K.K.K.K.K.K.K.K.K.K.K.V.V.K.K.K.K.K.",
"V.K.K.K.K.K.K.K.K.K.K.K.K.K.K.K.K.K.K.K.K.K.K.K.K.K.K.K.K.K.K.K.K.K.K.K.K.K.K.K.K.K.K.K.K.K.K.K.K.K.K.V.V.K.K.K.K.V.V.K.K.K.K.V.",
"V.K.K.K.K.K.K.K.K.K.K.K.K.K.K.K.K.K.K.K.K.K.K.K.K.K.K.K.K.K.K.K.K.K.K.K.K.K.K.K.K.K.K.K.K.K.K.K.K.K.K.V.V.K.K.K.K.V.V.K.K.K.K.V.",
"K.K.K.K.K.K.K.K.K.K.K.K.K.K.K.K.K.K.K.K.K.K.K.K.K.K.K.K.K.K.K.K.K.K.K.K.K.K.K.K.K.K.K.K.K.K.K.K.K.K.K.K.K.V.V.K.K.K.K.K.K.V.V.K.",
"K.K.K.K.K.K.K.K.K.K.K.K.K.K.K.K.K.K.K.K.K.K.K.K.K.K.K.K.K.K.K.K.H.N.H.H.K.K.K.K.K.K.K.K.K.K.K.K.K.K.K.K.K.V.V.K.K.K.K.K.K.V.V.K.",
"K.K.K.K.K.K.K.K.K.K.K.K.K.K.K.K.K.K.K.K.H.K.K.K.K.K.K.K.K.K.K.K.G.A.K.K.K.K.K.K.K.K.K.K.K.K.K.K.K.K.K.K.K.K.K.K.K.K.K.K.K.K.K.K.",
"K.K.K.K.K.K.K.K.K.K.K.K.K.K.K.K.K.K.K.H.K.K.K.K.K.K.H.H.@.B.K.H.Z.A.K.K.K.K.K.K.K.K.K.K.K.K.K.K.K.K.K.K.K.K.K.K.K.K.K.K.K.K.K.K.",
"K.K.K.K.K.K.K.K.K.K.K.K.K.K.K.K.K.K.K.K.K.K.K.K.K.H.#.@.< g F.H.a a H.!.{.K.K.K.K.K.K.K.K.K.K.K.K.K.K.K.K.K.K.K.K.K.K.K.K.K.K.K.",
"K.K.K.K.K.K.K.K.K.K.K.K.K.K.K.K.K.K.K.K.K.K.K.K.K.K.#..   = &.&.o @.H.{.{.K.K.K.K.K.K.K.K.K.K.K.K.K.K.K.K.K.K.K.K.K.K.K.K.K.K.K.",
"K.K.K.K.K.K.K.K.K.K.K.K.K.K.K.K.K.K.K.K.K.K.K.K.K.K.A.y   > T.b . b J.{.{.K.K.K.K.{.{.K.K.K.K.K.K.K.K.K.K.K.K.K.K.K.K.K.K.K.K.K.",
"K.K.K.K.K.K.K.K.K.K.K.K.K.K.K.K.K.K.K.K.K.K.K.K.K.K.A.y   < G.i . N.K.{.{.K.K.K.K.{.{.K.K.K.K.K.K.K.K.K.K.K.K.K.K.K.K.K.K.K.K.K.",
"K.K.K.K.K.K.K.K.K.K.K.K.K.K.K.K.K.K.K.K.K.K.K.K.K.K.N.    g &.O . N.K.K.K.K.K.{.{.K.K.K.K.K.K.K.K.K.K.K.K.K.K.K.K.K.K.K.K.K.K.K.",
"K.K.K.K.K.K.K.K.K.K.K.K.K.K.K.K.K.K.K.K.K.K.K.K.K.K.S.h   : g O m S.H.&.D.K.K.{.{.K.K.K.K.K.K.K.K.K.K.K.K.K.K.K.K.K.K.K.K.K.K.K.",
"K.K.K.K.K.K.K.K.K.K.K.K.K.K.K.K.K.K.K.K.K.K.K.K.K.K.K.b     X = &.@.< * $.K.K.K.K.K.K.K.K.K.K.K.K.K.K.K.K.K.K.K.K.K.K.K.K.K.K.K.",
"K.K.K.K.K.K.K.K.K.K.K.K.K.K.K.K.K.K.K.K.K.K.K.K.K.K.K.z   . O u B.g + > N.K.K.K.K.K.K.K.K.K.K.K.K.K.K.K.K.K.K.K.K.K.K.K.K.K.K.K.",
"K.K.K.K.K.K.K.K.K.K.K.K.K.K.K.K.K.K.K.K.K.K.K.K.K.K.B.=   X O < m 7 M 8 N.K.K.K.K.K.K.K.K.K.K.K.K.K.K.K.K.K.K.K.K.K.K.K.K.K.K.K.",
"K.K.K.K.K.K.K.K.K.K.K.K.K.K.K.K.K.K.K.K.K.K.K.K.K.K.N.    @ @ # N A N B %.K.K.K.K.K.K.K.K.K.K.K.K.K.K.K.K.K.K.K.K.K.K.K.K.K.K.K.",
"K.K.K.K.K.H.K.K.K.K.K.K.K.K.K.K.K.K.K.K.K.K.K.K.K.K.B.    $ % 6 C C N N n K.K.K.K.K.K.K.K.K.K.K.K.K.K.K.K.K.K.K.K.K.K.K.K.K.K.K.",
"K.K.K.K.K.H.H.K.K.K.K.K.K.K.K.K.K.K.K.K.K.K.K.K.K.K.N.  X % % 1 C V V N n K.K.K.K.K.K.K.K.H.H.K.K.K.K.K.K.K.K.K.K.K.K.K.K.K.K.K.",
"K.K.K.K.K.K.K.K.K.K.K.K.K.K.K.K.K.K.K.K.K.K.K.K.K.K.N.  + & # % 7 7 7 6 n J.K.K.K.K.K.K.K.C.H.K.K.K.K.K.K.K.K.K.K.K.K.K.K.K.K.K.",
"K.K.K.K.K.K.K.K.K.K.K.K.K.K.K.K.K.K.K.K.K.K.K.K.H.H.N.  O & % % & & @ X b K.K.K.K.K.K.K.K.H.J.K.K.K.K.K.K.K.K.K.K.K.K.K.K.K.K.K.",
"K.K.K.K.K.K.K.K.K.K.K.K.K.K.K.K.K.K.K.K.K.K.K.K.K.K.A.z , & p p & % 4 3 b K.K.K.K.K.K.K.K.K.K.K.K.K.K.K.K.K.K.K.K.K.K.K.K.K.K.K.",
"K.K.K.K.K.K.K.K.K.K.K.K.K.K.K.K.K.K.K.K.K.K.K.K.K.K.K.H.d 2 f f & w D T I I.H.K.K.K.K.J.K.K.K.K.K.K.K.K.K.K.K.K.K.K.K.K.K.K.K.K.",
"K.K.K.K.K.K.K.K.K.K.K.K.K.K.K.K.K.K.K.K.K.K.K.K.K.K.H.P.Y E K Z 6 F R R R t.C.K.K.K.K.J.Q.Q.K.K.K.K.K.K.K.K.K.K.K.K.K.K.K.K.K.K.",
"K.K.K.K.K.K.K.K.K.K.K.K.K.K.K.K.K.K.K.K.K.K.K.K.H.H.H.e.W W W E J R R R R P.K.K.K.K.U.f.W.R.K.K.K.K.K.K.K.K.K.K.K.K.K.K.K.K.K.K.",
"K.K.K.K.K.K.K.K.K.K.K.K.K.K.K.K.K.K.K.K.K.K.K.K.K.H.*.^ W W W W W R R R R u.J.J.K.T.a.h.[ y.K.K.K.K.K.K.K.K.K.K.K.K.K.K.K.K.K.K.",
"K.K.K.K.K.K.K.K.K.K.K.K.K.K.K.K.K.K.K.K.K.K.K.J.H.&.c W _ :.:.:.;.D C Q ~ ( s.Y.K.F.O.] ~ o.F.K.K.K.K.K.K.K.K.K.K.K.K.K.K.K.K.K.",
"K.K.K.K.K.K.K.K.K.K.K.K.K.K.K.K.K.K.K.K.K.K.K.J.%.- 0 _ <.4.8.9.8.P H _ ' ' ` i.K.Q.y.{ } R.K.K.K.K.K.K.K.K.K.V.V.K.K.K.K.K.K.K.",
"K.K.K.K.K.K.K.K.K.K.K.K.K.K.K.K.K.K.K.K.K.H.Z.z ; 2 P ,.,.,.3.8.8.4.' ' ' ' =.[ e...P.Y.U.K.K.K.K.K.K.K.K.K.K.V.V.K.K.K.K.K.K.K.",
"K.K.K.K.K.K.K.K.K.K.K.K.K.K.K.K.K.K.K.K.J.$.> + 3 ( ,.>.>.>.>.4.8.8.=.' >.>.' ' ~ S  .F.K.K.K.K.K.V.V.K.K.K.K.V.V.K.K.K.K.V.V.K.",
"K.K.K.K.K.K.K.K.K.K.K.K.K.K.K.K.K.K.K.K.A.i # O q =.>.>.>.>.>.<.8.3.=.3.q.q.6.>.~ S G L.K.K.K.K.K.V.V.K.K.K.K.V.V.K.K.K.K.V.V.K.",
"K.K.K.K.K.!.!.K.K.K.K.K.K.K.K.K.K.K.K.K.A.i @ O e ,.>.>.>.:.>.5.k.7.4.q.w.w.j.9.) S ..J.K.K.K.K.K.K.K.V.V.K.K.K.K.K.K.V.V.K.K.K.",
"K.K.K.K.K.!.!.K.K.K.K.K.K.K.K.K.K.K.K.H.J.A.N.@.r.<.>.>.>.3.z.(._.M.b.b.x.q.q.9.E A X.J.K.K.K.K.K.K.K.V.V.K.K.K.K.K.K.V.V.K.K.K.",
"!.K.K.K.K.!.!.K.K.K.K.!.!.K.K.K.K.K.K.V.V.K.H.H.D.p.>.>.>.z.[._.).).)._.).l.q.0.D A X.K.K.K.K.K.K.K.K.K.K.K.K.K.K.K.K.K.K.K.K.!.",
"!.K.K.K.K.!.!.K.K.K.K.!.!.K.K.K.K.K.K.V.V.K.H.H.m L ,.>.d.)._.).).).).).).b.j.7.U I L.K.K.K.K.K.K.K.K.K.K.K.K.K.K.K.K.K.K.K.K.!.",
"K.!.!.K.K.K.K.K.K.!.!.K.K.K.K.K.K.K.K.K.K.V.V.Z.t q -.k.^.'.^.M.)./.).).).).v.)  .I.K.K.K.K.K.K.K.K.K.K.K.K.K.K.K.K.K.K.K.K.K.K.",
"K.!.!.K.K.K.K.K.K.!.!.K.K.K.K.K.K.K.K.K.K.V.+.f 2 2 | /./.).n.m./.^./.).).(.1.R F v F.K.K.K.K.K.K.K.K.K.K.K.K.K.K.K.K.K.K.K.K.K.",
"K.K.K.K.K.K.K.K.K.K.K.K.K.K.K.K.K.K.K.K.J.H.j & & 9 c.~.^./.l.m.^.~.~.)./.2./ ! F 3 m D.K.K.K.K.K.K.K.K.H.K.K.K.K.K.K.K.K.K.K.K.",
"K.K.K.K.K.K.K.K.K.K.K.K.K.K.K.K.K.K.K.K.J.H.s & & 9 c.^.^.)./.^.^.^.~.x.5._ ~ W B 9 4 l H.K.K.K.K.K.K.K.K.K.K.K.K.K.K.K.K.K.K.K.",
"K.K.K.K.K.K.K.K.K.K.K.K.K.K.K.K.K.K.K.J.H.H.s & & 8 g.^.^.].[.).^.^.M.2.Q ! Q Z r q * x H.H.K.K.K.K.K.K.K.K.K.K.K.K.K.K.K.K.K.K.",
"K.K.K.K.K.K.K.K.K.K.K.K.K.K.K.K.K.K.K.H.H.D.s & k E.`._.^.].'.'.).m.5.D M w 0 9 5 2 l D.K.K.K.K.K.K.K.K.K.K.K.K.K.K.K.K.K.K.K.K."
};
