/* XPM */
static char *wall_8[] = {
/* columns rows colors chars-per-pixel */
"64 64 180 2 ",
"   c #130506",
".  c #1C0705",
"X  c #1B0807",
"o  c #1F0909",
"O  c #1A1610",
"+  c #280D06",
"@  c #230B09",
"#  c #290D0B",
"$  c #32110D",
"%  c #34130C",
"&  c #3B130E",
"*  c #3B1B0D",
"=  c #1C241C",
"-  c #28251D",
";  c #322018",
":  c #2D342A",
">  c #303027",
",  c #400E04",
"<  c #43100B",
"1  c #4E170B",
"2  c #54130C",
"3  c #441A10",
"4  c #6C1806",
"5  c #7B1A05",
"6  c #771F08",
"7  c #592C14",
"8  c #70310E",
"9  c #673312",
"0  c #6C3324",
"q  c #2E4F3E",
"w  c #374435",
"e  c #344C3C",
"r  c #3A4E3D",
"t  c #7A4515",
"y  c #4F4435",
"u  c #544837",
"i  c #79512E",
"p  c #345845",
"a  c #3C634E",
"s  c #32755A",
"d  c #4A5442",
"f  c #725944",
"g  c #50654F",
"h  c #5F6650",
"j  c #43745C",
"k  c #44785F",
"l  c #54765D",
"z  c #6D6C54",
"x  c #7E7C53",
"c  c #457B62",
"v  c #497C62",
"b  c #567E64",
"n  c #6D7D62",
"m  c #7A7F63",
"M  c #9B2705",
"N  c #8C3512",
"B  c #9B3310",
"V  c #A72300",
"C  c #AE2300",
"Z  c #B12400",
"A  c #B32B03",
"S  c #A73207",
"D  c #B33205",
"F  c #A13915",
"G  c #844715",
"H  c #955919",
"J  c #BE410A",
"K  c #B0530C",
"L  c #B3651B",
"P  c #875923",
"I  c #974D35",
"U  c #B14B30",
"Y  c #AB5139",
"T  c #9D6938",
"R  c #B87723",
"E  c #C24809",
"W  c #CB4C08",
"Q  c #C6500F",
"!  c #D35A0B",
"~  c #DB6D0F",
"^  c #CF6012",
"/  c #DB6E12",
"(  c #DF7312",
")  c #DA7719",
"_  c #E06F10",
"`  c #E17A16",
"'  c #CA5928",
"]  c #D47929",
"[  c #985644",
"{  c #A95940",
"}  c #8D7B5A",
"|  c #A76A4F",
" . c #8E7D61",
".. c #D87D48",
"X. c #4A8368",
"o. c #578468",
"O. c #4F8D70",
"+. c #539274",
"@. c #56997A",
"#. c #599B7C",
"$. c #678E70",
"%. c #75A07F",
"&. c #B88226",
"*. c #DE8621",
"=. c #D98B21",
"-. c #DE8B37",
";. c #C09C3E",
":. c #E28D24",
">. c #EA9522",
",. c #EC9A24",
"<. c #E9972F",
"1. c #C3A13B",
"2. c #E8A22B",
"3. c #EDA42B",
"4. c #F0A72C",
"5. c #F1AA2D",
"6. c #F2B12F",
"7. c #EAA832",
"8. c #EEB134",
"9. c #F3B232",
"0. c #F5BC37",
"q. c #F3B53A",
"w. c #F6C039",
"e. c #F8C93E",
"r. c #879373",
"t. c #B28862",
"y. c #BC9A69",
"u. c #A09E79",
"i. c #C68D59",
"p. c #E7994F",
"a. c #F1AF41",
"s. c #F4BC4B",
"d. c #CF8C6A",
"f. c #F8C845",
"g. c #FBD443",
"h. c #FFDE4F",
"j. c #F7C859",
"k. c #FEDE52",
"l. c #FBD659",
"z. c #FFE04F",
"x. c #FFE151",
"c. c #FFE159",
"v. c #F6C661",
"b. c #FCDD67",
"n. c #FFE363",
"m. c #FEE169",
"M. c #FEE376",
"N. c #FFE67A",
"B. c #FFE97C",
"V. c #729D86",
"C. c #5DA584",
"Z. c #40B088",
"A. c #67AA88",
"S. c #62AC8A",
"D. c #7CA989",
"F. c #63B18D",
"G. c #7BAB92",
"H. c #66B692",
"J. c #6BBC96",
"K. c #6DBF99",
"L. c #78BA95",
"P. c #6EC59D",
"I. c #72C39C",
"U. c #70C8A0",
"Y. c #89AA86",
"T. c #83B38E",
"R. c #99B289",
"E. c #85BC97",
"W. c #F0BE94",
"Q. c #8CC3A7",
"!. c #88D8B8",
"~. c #9CDABB",
"^. c #F8CC80",
"/. c #FBDF83",
"(. c #FFE984",
"). c #FFEA8C",
"_. c #FEEA96",
"`. c #FEEB9C",
"'. c #FFEEA3",
"]. c #A0E0C0",
/* pixels */
"U.U.U.U.U.U.U.U.U.U.U.U.U.U.U.U.U.U.U.U.U.U.U.U.U.U.U.U.U.U.U.U.U.U.U.U.U.U.U.U.U.U.U.U.U.U.U.U.U.U.U.U.U.U.U.U.U.U.U.U.U.U.U.U.",
"U.U.U.U.U.U.U.U.U.U.U.U.U.U.U.U.U.U.U.U.U.U.U.U.U.U.U.U.U.U.U.U.U.U.U.U.U.U.U.U.U.U.U.U.U.U.U.U.U.U.U.U.U.U.U.U.U.U.U.U.U.U.U.U.",
"U.U.U.U.U.U.U.U.U.U.U.U.U.U.U.U.U.U.U.U.U.U.U.U.U.U.U.U.U.U.U.U.U.U.U.U.U.U.U.U.U.U.U.U.U.U.U.U.U.U.U.U.U.U.U.U.U.U.U.U.U.U.U.U.",
"U.U.U.U.U.U.U.U.U.U.U.U.U.U.U.U.U.U.U.U.U.U.U.U.U.U.U.U.U.U.U.U.U.U.U.U.U.U.U.U.U.U.U.U.U.U.U.U.U.U.U.U.U.U.U.U.U.U.U.U.U.U.U.U.",
"U.U.U.U.U.U.U.U.U.U.U.U.U.U.U.U.U.U.U.U.U.U.U.U.U.U.U.U.U.U.U.U.U.U.U.U.U.U.U.U.U.U.U.U.U.U.U.U.U.U.U.U.U.U.U.U.U.U.U.U.U.U.U.U.",
"U.U.U.U.U.U.U.U.U.U.].].U.U.U.U.U.U.U.U.U.U.U.U.U.U.U.U.U.U.U.U.U.U.U.U.U.U.U.U.U.U.U.U.U.U.U.U.U.U.U.U.U.U.U.U.U.U.U.U.U.U.U.U.",
"U.U.U.U.U.U.U.U.U.U.].].U.U.U.U.U.U.U.U.U.U.U.U.U.U.U.U.U.U.U.U.U.U.U.U.U.U.U.U.U.U.U.U.U.U.U.U.U.U.U.U.U.U.U.U.U.U.U.U.U.U.U.U.",
"U.U.U.U.].].U.U.U.U.].].U.U.U.U.].].U.U.U.U.U.U.U.U.U.U.U.U.U.U.U.U.U.U.U.U.U.U.U.U.U.U.U.U.U.U.U.U.U.U.U.U.U.U.U.U.U.U.U.U.U.U.",
"U.U.U.U.].].U.U.U.U.].].U.U.U.U.].].U.U.U.U.U.U.U.U.U.U.U.U.U.U.U.U.U.U.U.P.U.U.U.U.U.U.U.U.U.U.U.U.U.U.U.U.U.U.U.U.U.U.U.U.U.U.",
"U.U.U.U.U.U.].].U.U.U.U.U.U.].].U.U.U.U.U.U.U.U.U.U.U.U.U.U.U.U.U.U.U.U.U.U.P.U.U.U.U.U.U.U.U.U.U.U.U.U.U.U.U.U.U.U.U.U.U.U.U.U.",
"U.U.U.U.U.U.].].U.U.U.U.U.U.].].U.U.U.U.U.U.U.U.U.U.U.U.U.U.U.U.U.U.U.U.U.U.U.U.U.U.U.U.U.U.U.U.U.U.U.U.U.U.U.U.U.U.U.U.U.U.U.U.",
"U.U.U.U.U.U.U.U.U.U.U.U.U.U.U.U.U.U.U.U.U.U.U.U.U.U.U.U.U.U.U.U.U.U.U.U.U.U.U.U.U.U.U.U.U.U.U.U.U.U.U.U.U.U.U.U.U.U.U.U.U.U.U.U.",
"U.U.U.U.U.U.U.U.U.U.U.U.U.U.U.U.U.U.U.U.U.U.U.U.U.U.U.U.U.U.U.U.U.U.U.U.U.U.U.U.U.U.U.U.U.U.U.U.U.U.U.U.U.U.U.U.U.U.U.U.U.U.U.U.",
"U.U.U.U.U.U.U.U.U.U.U.U.U.U.U.U.U.U.U.U.U.U.U.U.U.U.U.U.U.U.U.U.U.U.U.U.U.U.U.U.U.U.U.U.U.U.U.U.U.U.U.U.U.U.U.U.U.U.U.U.U.U.U.U.",
"U.U.U.U.U.U.U.U.U.U.U.U.U.U.U.U.U.U.U.U.U.U.U.U.U.U.U.U.U.U.U.U.U.U.U.U.U.I.U.U.U.U.U.U.U.U.U.U.U.U.U.U.U.U.U.U.U.U.U.U.U.U.U.U.",
"U.U.U.U.U.U.U.U.U.U.U.U.U.U.U.U.U.U.U.U.U.U.U.U.U.U.U.U.U.U.U.U.U.U.U.U.U.P.U.U.U.U.U.U.U.U.U.U.U.U.U.U.U.U.U.U.U.U.U.U.U.U.U.U.",
"U.U.U.U.U.U.U.U.U.U.U.U.U.U.U.U.U.U.U.U.U.U.U.U.U.U.U.U.U.U.U.U.U.U.U.U.U.C.P.U.U.U.U.U.U.U.U.U.U.U.U.U.U.U.U.U.U.U.U.U.U.U.U.U.",
"U.U.U.U.U.U.U.U.U.U.U.U.U.U.U.U.U.U.U.U.U.U.U.U.U.U.U.U.U.U.U.U.U.U.U.U.U.U.U.U.U.U.U.U.U.U.U.U.U.U.U.U.U.U.U.U.U.U.U.U.U.U.U.U.",
"U.U.U.U.U.U.U.U.U.U.U.U.U.U.U.U.U.U.U.U.U.U.U.Z.Z.U.U.U.U.U.U.U.U.U.U.U.U.U.U.U.U.U.U.U.U.U.U.U.U.U.U.U.U.U.U.U.U.U.U.U.U.U.U.U.",
"U.U.U.U.U.U.U.U.U.U.U.U.U.U.U.U.U.U.U.U.U.U.U.Z.Z.U.U.U.U.U.U.U.U.U.U.U.U.U.U.U.U.U.U.U.U.U.U.U.U.U.U.U.U.U.U.U.U.U.U.U.U.U.U.U.",
"U.U.U.U.U.U.U.U.U.U.U.U.U.U.U.U.U.Z.Z.U.U.U.U.Z.Z.U.U.U.U.Z.Z.U.U.U.U.U.U.U.U.U.U.U.U.U.U.U.U.U.U.U.U.U.U.U.U.U.U.U.U.U.U.U.U.U.",
"U.U.U.U.U.U.U.U.U.U.U.U.U.U.U.U.U.Z.Z.U.U.U.U.Z.Z.U.U.U.U.Z.Z.U.U.U.U.U.U.U.U.U.U.U.U.U.U.U.U.U.U.U.U.U.U.U.U.U.U.U.U.U.U.U.U.U.",
"U.U.U.U.U.U.U.U.U.U.U.U.U.U.U.U.U.U.U.Z.Z.U.U.U.U.U.U.Z.Z.U.U.U.U.U.U.U.U.U.U.U.U.U.U.U.U.U.U.U.U.U.U.U.U.U.U.U.U.Z.Z.U.U.U.U.U.",
"U.U.U.U.U.U.U.U.U.U.U.U.U.U.U.U.U.U.U.Z.Z.U.U.U.U.U.U.Z.Z.U.U.U.U.U.U.U.U.U.U.U.U.U.U.U.U.U.U.U.U.U.U.U.U.U.U.U.U.Z.Z.U.U.U.U.U.",
"Z.U.U.U.U.U.U.U.U.U.U.U.U.U.U.U.U.U.U.U.U.U.U.U.U.U.U.U.U.U.U.U.U.U.U.U.U.U.U.U.U.U.U.U.U.U.U.U.U.U.U.Z.Z.U.U.U.U.Z.Z.U.U.U.U.Z.",
"Z.U.U.U.U.U.U.U.U.U.U.U.U.U.U.U.U.U.U.U.U.U.U.U.U.U.U.U.U.U.U.U.U.U.U.U.U.U.U.U.U.U.U.U.U.U.U.U.U.U.U.Z.Z.U.U.U.U.Z.Z.U.U.U.U.Z.",
"U.U.U.U.U.U.U.U.U.U.U.U.U.U.U.U.U.U.U.U.U.U.U.U.U.U.U.U.U.U.U.U.U.U.U.U.U.U.U.U.U.U.U.U.U.U.U.U.U.U.U.U.U.Z.Z.U.U.U.U.U.U.Z.Z.U.",
"U.U.U.U.U.U.U.U.U.U.U.U.U.U.U.U.U.U.U.U.U.U.U.U.U.U.U.P.U.U.U.U.F.O.P.U.U.U.U.U.U.U.U.U.U.U.U.U.U.U.U.U.U.Z.Z.U.U.U.U.U.U.Z.Z.U.",
"U.U.U.U.U.U.U.U.U.U.U.U.U.U.U.U.U.U.U.U.P.U.U.U.U.U.J.c @.J.U.U.F.+.P.U.U.U.U.U.U.U.U.U.U.U.U.U.U.U.U.U.U.U.U.U.U.U.U.U.U.U.U.U.",
"U.U.U.U.U.U.U.U.U.U.U.U.U.U.U.U.U.U.U.P.U.U.U.U.U.U.J.a   C.U.P.P.H.P.U.U.U.U.U.U.U.U.U.U.U.U.U.U.U.U.U.U.U.U.U.U.U.U.U.U.U.U.U.",
"U.U.U.U.U.U.U.U.U.U.U.U.U.U.U.U.U.U.U.U.U.U.U.U.U.U.U.@.O O.H.s X.P.U.].].U.U.U.U.U.U.U.U.U.U.U.U.U.U.U.U.U.U.U.U.U.U.U.U.U.U.U.",
"U.U.U.U.U.U.U.U.U.U.U.U.U.U.U.U.U.U.U.U.U.U.U.U.U.U.U.P.p +.H.p q H.U.].].U.U.U.U.U.U.U.U.U.U.U.U.U.U.U.U.U.U.U.U.U.U.U.U.U.U.U.",
"U.U.U.U.U.U.U.U.U.U.U.U.U.U.U.U.U.U.U.U.U.U.U.U.U.U.U.P.J.~.G.O j P.K.E.Q.U.U.U.U.].].U.U.U.U.U.U.U.U.U.U.U.U.U.U.U.U.U.U.U.U.U.",
"U.U.U.U.U.U.U.U.U.U.U.U.U.U.U.U.U.U.U.U.U.U.U.U.U.U.U.U.P.G.- X k #.a : Q.U.U.U.U.].].U.U.U.U.U.U.U.U.U.U.U.U.U.U.U.U.U.U.U.U.U.",
"U.U.U.U.U.U.U.U.U.U.U.U.U.U.U.U.U.U.U.U.U.U.U.U.U.U.U.U.U.v o X > - @ w K.U.U.].].U.U.U.U.U.U.U.U.U.U.U.U.U.U.U.U.U.U.U.U.U.U.U.",
"U.U.U.U.U.U.U.U.U.U.U.U.U.U.U.U.U.U.U.U.U.U.U.U.U.U.U.U.U.v X V.V.@ < w K.U.U.].].U.U.U.U.U.U.U.U.U.U.U.U.U.U.U.U.U.U.U.U.U.U.U.",
"U.U.U.U.U.U.U.U.U.U.U.U.U.U.U.U.U.U.U.U.U.U.U.U.U.U.U.U.J.a X C.$.< 2 y K.U.U.U.U.U.U.U.U.U.U.U.U.U.U.U.U.U.U.U.U.U.U.U.U.U.U.U.",
"U.U.U.U.U.U.U.U.U.U.U.U.U.U.U.U.U.U.U.U.U.U.U.U.U.U.U.U.C.@ @ +.w 2 2 u K.U.U.U.U.U.U.U.U.U.U.U.U.U.U.U.U.U.U.U.U.U.U.U.U.U.U.U.",
"U.U.U.U.U.U.U.U.U.U.U.U.U.U.U.U.U.U.U.U.U.U.U.U.U.U.U.U.C.X @ : ; < < l L.J.U.U.U.U.U.U.U.U.U.U.U.U.U.U.U.U.U.U.U.U.U.U.U.U.U.U.",
"U.U.U.U.U.U.U.U.U.U.U.U.U.U.U.U.U.U.U.U.U.U.U.U.U.U.U.U.C.@ o @ $ # @ #.z h V.U.U.U.U.U.U.U.U.U.U.U.U.U.U.U.U.U.U.U.U.U.U.U.U.U.",
"U.U.U.U.U.P.U.U.U.U.U.U.U.U.U.U.U.U.U.U.U.U.U.U.U.U.L.%.i 2 : d $ # e b 0 4 n U.U.U.U.U.U.I.L.P.U.U.U.U.U.U.U.U.U.U.U.U.U.U.U.U.",
"U.U.U.U.U.U.P.U.U.U.U.U.U.U.U.U.U.U.U.U.U.U.U.U.U.U.V.5 5 5 d p $ $ v I.f f A.U.U.U.U.U.I.r.I G.U.U.U.U.U.U.U.U.U.U.U.U.U.U.U.U.",
"U.U.U.U.U.U.U.U.U.U.U.U.U.U.U.U.U.U.U.U.U.U.U.U.U.K.f 5 5 5 6 1 $ ; #.I.K.I.U.U.U.U.U.U.G.[ M  .I.U.U.U.U.U.U.U.U.U.U.U.U.U.U.U.",
"U.U.U.U.U.U.U.U.U.U.U.U.U.U.U.U.U.U.U.U.U.U.U.U.U.u.F 5 I [ M 8 $ ; #.U.U.U.U.U.U.U.U.U.U.D. .L.U.U.U.U.U.U.U.U.U.U.U.U.U.U.U.U.",
"U.U.U.U.U.U.U.U.U.U.U.U.U.U.U.U.U.U.U.U.U.U.U.U.U.t.W S S d...8 $ # c U.L.Y.T.U.U.U.U.U.U.U.I.U.U.U.U.U.U.U.U.U.U.U.U.U.U.U.U.U.",
"U.U.U.U.U.U.U.U.U.U.U.U.U.U.U.U.U.U.U.U.U.U.U.U.U.R.' W ! ] W.L G * r m | Z Y Y.U.U.U.U.U.U.U.U.U.U.U.U.U.U.U.U.U.U.U.U.U.U.U.U.",
"U.U.U.U.U.U.U.U.U.U.U.U.U.U.U.U.U.U.U.U.U.U.U.U.I.S.I ! ~ ~ p.^.5.2.&.B Z Z Z { K.U.U.U.U.U.U.U.U.U.U.U.U.U.U.U.U.U.U.U.U.U.U.U.",
"U.U.U.U.U.U.U.U.U.U.U.U.U.U.U.U.U.U.U.U.U.U.U.U.I.j + K _ _ ,.j.q.9.9.*.A Z Z U E.U.U.U.U.U.U.U.U.U.U.U.U.U.U.U.U.U.U.U.U.U.U.U.",
"U.U.U.U.U.U.U.U.U.U.U.U.U.U.U.U.U.U.U.U.U.U.U.U.+.=   8 / ( 5.9.9.9.6.3.J Q ^ ~ i.R.I.U.U.U.U.U.U.U.U.U.U.U.U.U.U.U.U.U.U.U.U.U.",
"U.U.U.U.U.U.U.U.U.U.U.U.U.U.U.U.U.U.U.U.U.U.F.s = . , 5 E ( 6.9.9.9.9.5.:.4.4.,.` ] E.U.U.U.U.U.U.U.U.U.U.U.U.U.U.U.U.U.U.U.U.U.",
"U.U.U.U.U.U.U.U.U.U.U.U.U.U.U.U.U.U.U.U.U.U.O.    4 V C C E =.8.5.5.4.4.5.4.4.4.>._ y.U.U.U.U.U.U.U.U.U.U.U.U.Z.Z.U.U.U.U.U.U.U.",
"U.U.U.U.U.U.U.U.U.U.U.U.U.U.U.U.U.U.U.U.U.P.p   % M D D D D D *.,.,.3.4.4.4.4.4.3.( y.U.U.U.U.U.U.U.U.U.U.U.U.Z.Z.U.U.U.U.U.U.U.",
"U.U.U.U.U.U.U.U.U.U.U.U.U.U.U.U.U.U.U.U.U.U.C.c h A 2.8.8.7.A ) ,.,.,.3.3.4.4.3.4.-.E.I.U.U.U.U.U.Z.Z.U.U.U.U.Z.Z.U.U.U.U.Z.Z.U.",
"U.U.U.U.U.U.U.U.U.U.U.U.U.U.U.U.U.U.U.U.U.U.U.U.D.A 8.w.w.0.=.<.0.w.6.,.3.3.4.4.<.T I.U.U.U.U.U.U.Z.Z.U.U.U.U.Z.Z.U.U.U.U.Z.Z.U.",
"U.U.U.U.U.!.!.U.U.U.U.U.U.U.U.U.U.U.U.U.U.U.P.U.$.N 7.w.0.0.0./.N.g.g.e.,.3.5.5.R u P.I.U.U.U.U.U.U.U.Z.Z.U.U.U.U.U.U.Z.Z.U.U.U.",
"U.U.U.U.U.!.!.U.U.U.U.U.U.U.U.U.U.U.U.U.U.U.P.P.o.7 2.w.w.l.m.m.`.m.e.g.9.3.3.L 8 d P.I.U.U.U.U.U.U.U.Z.Z.U.U.U.U.U.U.Z.Z.U.U.U.",
"!.U.U.U.U.!.!.U.U.U.U.!.!.U.U.U.U.U.U.Z.Z.U.P.o.> t ) 5.l.N.B.M._.'.b.k.f.3.3.} b A.U.U.U.U.U.U.U.U.U.U.U.U.U.U.U.U.U.U.U.U.U.!.",
"!.U.U.U.U.!.!.U.U.U.U.!.!.U.U.U.U.U.U.Z.Z.P.S.e 7 =.,.s.M.B.N.N.N.).`.n.l.f.6.x #.K.U.U.U.U.U.U.U.U.U.U.U.U.U.U.U.U.U.U.U.U.U.!.",
"U.!.!.U.U.U.U.U.U.!.!.U.U.U.U.U.U.U.U.U.P.s - + H ,.,.j.B.N.B.(.n.z.c.h.z.h.0.G - e C.K.U.U.U.U.U.U.U.U.U.U.U.U.U.U.U.U.U.U.U.U.",
"U.!.!.U.U.U.U.U.U.!.!.U.U.U.U.U.U.U.U.U.U.s @ * =.,.>.j.N.).`._.c.h.h.x.h.z.z.P & $ @ s P.U.U.U.U.U.U.U.U.U.U.U.U.U.U.U.U.U.U.U.",
"U.U.U.U.U.U.U.U.U.U.U.U.U.U.U.U.U.U.U.U.I.v + * =.,.>.7.M.`.'.B.x.z.x.z.z.z.z.P & * $ w P.U.U.U.U.U.U.U.P.U.U.U.U.U.U.U.U.U.U.U.",
"U.U.U.U.U.U.U.U.U.U.U.U.U.U.U.U.U.U.U.U.U.S.: # H ,.,.,.v.'.'.M.z.z.x.x.z.z.z.i & 3 & d P.U.U.U.U.U.U.U.U.U.U.U.U.U.U.U.U.U.U.U.",
"U.U.U.U.U.U.U.U.U.U.U.U.U.U.U.U.U.U.U.U.U.P.j + 7 ] ,.,.a._.'.(.x.z.z.z.z.x.1.* * ; l F.P.P.U.U.U.U.U.U.U.U.U.U.U.U.U.U.U.U.U.U.",
"U.U.U.U.U.U.U.U.U.U.U.U.U.U.U.U.U.U.U.U.U.U.J.a + 9 t t R j.`.`.n.x.z.z.z.z.;.3 g A.P.U.U.P.U.U.U.U.U.U.U.U.U.U.U.U.U.U.U.U.U.U."
};
