/* XPM */
static char *wall_7[] = {
/* columns rows colors chars-per-pixel */
"64 64 170 2 ",
"   c #150606",
".  c #1A0807",
"X  c #1C0D0A",
"o  c #181712",
"O  c #250B06",
"+  c #250C09",
"@  c #2B0E0B",
"#  c #300F0A",
"$  c #2D130D",
"%  c #35130D",
"&  c #3E140C",
"*  c #3F1910",
"=  c #1C211A",
"-  c #3C2A1F",
";  c #262F27",
":  c #322A20",
">  c #26362A",
",  c #421D0F",
"<  c #4A1D0B",
"1  c #59180A",
"2  c #441A10",
"3  c #481B10",
"4  c #691807",
"5  c #641709",
"6  c #532211",
"7  c #7D280A",
"8  c #782F17",
"9  c #673D16",
"0  c #533527",
"q  c #453F31",
"w  c #2A4334",
"e  c #2F4F3E",
"r  c #364839",
"t  c #3A4C3C",
"y  c #494837",
"u  c #654433",
"i  c #6E4F3C",
"p  c #3A4F42",
"a  c #315342",
"s  c #386B53",
"d  c #516C5B",
"f  c #43735B",
"g  c #4C735B",
"h  c #66735A",
"j  c #467C62",
"k  c #4C7B62",
"l  c #517D63",
"z  c #7F7E62",
"x  c #871D06",
"c  c #8A1E04",
"v  c #951F03",
"b  c #962003",
"n  c #932C04",
"m  c #9E3107",
"M  c #882F11",
"N  c #B22601",
"B  c #B43906",
"V  c #C13602",
"C  c #C33A03",
"Z  c #C13A0C",
"A  c #944E1A",
"S  c #B8470A",
"D  c #BF510D",
"F  c #BB5317",
"G  c #B66112",
"H  c #83543E",
"J  c #BA4B2A",
"K  c #B95735",
"L  c #996938",
"P  c #AD702B",
"I  c #CA4A09",
"U  c #CC570D",
"Y  c #D65F0D",
"T  c #CF5B12",
"R  c #D9680F",
"E  c #CA6711",
"W  c #D66713",
"Q  c #E57E15",
"!  c #C26F2B",
"~  c #C96734",
"^  c #936D53",
"/  c #B26541",
"(  c #A27257",
")  c #3B9875",
"_  c #4B8469",
"`  c #4D866B",
"'  c #54876B",
"]  c #508D71",
"[  c #589778",
"{  c #63876A",
"}  c #688F72",
"|  c #6A957B",
" . c #7B9979",
".. c #BB8326",
"X. c #BB8135",
"o. c #E68116",
"O. c #E5841B",
"+. c #EA911F",
"@. c #C88929",
"#. c #D99C2C",
"$. c #E58927",
"%. c #EA9825",
"&. c #E59429",
"*. c #E89D30",
"=. c #E8A32C",
"-. c #EDAB34",
";. c #F1AF30",
":. c #ECB738",
">. c #F4B332",
",. c #F5BB36",
"<. c #F5BE39",
"1. c #F7C33A",
"2. c #F8C53C",
"3. c #FACA3E",
"4. c #A88B6A",
"5. c #A09573",
"6. c #83A17F",
"7. c #CB9C5F",
"8. c #DCA540",
"9. c #D7A95C",
"0. c #D5A46C",
"q. c #C1A674",
"w. c #F1B16A",
"e. c #F8C745",
"r. c #FBD545",
"t. c #FDD947",
"y. c #FEDB4A",
"u. c #FACE53",
"i. c #FBD456",
"p. c #FDDD5A",
"a. c #FBD76F",
"s. c #FFE263",
"d. c #FFE46C",
"f. c #FFE673",
"g. c #5EA584",
"h. c #5EA987",
"j. c #40B088",
"k. c #64A684",
"l. c #61AC89",
"z. c #78A788",
"x. c #76AD8A",
"c. c #64B18E",
"v. c #68B18E",
"b. c #66B591",
"n. c #6BBB96",
"m. c #6EBF99",
"M. c #75BD97",
"N. c #7BBE97",
"B. c #6EC59E",
"V. c #72C49D",
"C. c #7DC199",
"Z. c #70C8A0",
"A. c #8CA683",
"S. c #8BBB92",
"D. c #87BDA1",
"F. c #81C299",
"G. c #93CDB0",
"H. c #88D8B8",
"J. c #F6D683",
"K. c #FFE984",
"L. c #FFEEA6",
"P. c #FFEFA9",
"I. c #FFF2AC",
"U. c #FFEFB2",
"Y. c #FFF0B2",
"T. c #FFF3BD",
"R. c #A0E0C0",
"E. c #FFF5C4",
"W. c #FFF6CC",
"Q. c #FFF7D1",
/* pixels */
"Z.Z.Z.Z.Z.Z.Z.Z.Z.Z.Z.Z.Z.Z.Z.Z.Z.Z.Z.Z.Z.Z.Z.Z.Z.Z.Z.Z.Z.Z.Z.Z.Z.Z.Z.Z.Z.Z.Z.Z.Z.Z.Z.Z.Z.Z.Z.Z.Z.Z.Z.Z.Z.Z.Z.Z.Z.Z.Z.Z.Z.Z.Z.Z.",
"Z.Z.Z.Z.Z.Z.Z.Z.Z.Z.Z.Z.Z.Z.Z.Z.Z.Z.Z.Z.Z.Z.Z.Z.Z.Z.Z.Z.Z.Z.Z.Z.Z.Z.Z.Z.Z.Z.Z.Z.Z.Z.Z.Z.Z.Z.Z.Z.Z.Z.Z.Z.Z.Z.Z.Z.Z.Z.Z.Z.Z.Z.Z.Z.",
"Z.Z.Z.Z.Z.Z.Z.Z.Z.Z.Z.Z.Z.Z.Z.Z.Z.Z.Z.Z.Z.Z.Z.Z.Z.Z.Z.Z.Z.Z.Z.Z.Z.Z.Z.Z.Z.Z.Z.Z.Z.Z.Z.Z.Z.Z.Z.Z.Z.Z.Z.Z.Z.Z.Z.Z.Z.Z.Z.Z.Z.Z.Z.Z.",
"Z.Z.Z.Z.Z.Z.Z.Z.Z.Z.Z.Z.Z.Z.Z.Z.Z.Z.Z.Z.Z.Z.Z.Z.Z.Z.Z.Z.Z.Z.Z.Z.Z.Z.Z.Z.Z.Z.Z.Z.Z.Z.Z.Z.Z.Z.Z.Z.Z.Z.Z.Z.Z.Z.Z.Z.Z.Z.Z.Z.Z.Z.Z.Z.",
"Z.Z.Z.Z.Z.Z.Z.Z.Z.Z.Z.Z.Z.Z.Z.Z.Z.Z.Z.Z.Z.Z.Z.Z.Z.Z.Z.Z.Z.Z.Z.Z.Z.Z.Z.Z.Z.Z.Z.Z.Z.Z.Z.Z.Z.Z.Z.Z.Z.Z.Z.Z.Z.Z.Z.Z.Z.Z.Z.Z.Z.Z.Z.Z.",
"Z.Z.Z.Z.Z.Z.Z.Z.Z.Z.R.R.Z.Z.Z.Z.Z.Z.Z.Z.Z.Z.Z.Z.Z.Z.Z.Z.Z.Z.Z.Z.Z.Z.Z.Z.Z.Z.Z.Z.Z.Z.Z.Z.Z.Z.Z.Z.Z.Z.Z.Z.Z.Z.Z.Z.Z.Z.Z.Z.Z.Z.Z.Z.",
"Z.Z.Z.Z.Z.Z.Z.Z.Z.Z.R.R.Z.Z.Z.Z.Z.Z.Z.Z.Z.Z.Z.Z.Z.Z.Z.Z.Z.Z.Z.Z.Z.Z.Z.Z.Z.Z.Z.Z.Z.Z.Z.Z.Z.Z.Z.Z.Z.Z.Z.Z.Z.Z.Z.Z.Z.Z.Z.Z.Z.Z.Z.Z.",
"Z.Z.Z.Z.R.R.Z.Z.Z.Z.R.R.Z.Z.Z.Z.R.R.Z.Z.Z.Z.Z.Z.Z.Z.Z.Z.Z.Z.Z.Z.Z.Z.Z.Z.Z.Z.Z.Z.Z.Z.Z.Z.Z.Z.Z.Z.Z.Z.Z.Z.Z.Z.Z.Z.Z.Z.Z.Z.Z.Z.Z.Z.",
"Z.Z.Z.Z.R.R.Z.Z.Z.Z.R.R.Z.Z.Z.Z.R.R.Z.Z.Z.Z.Z.Z.Z.Z.Z.Z.Z.Z.Z.Z.Z.Z.Z.Z.Z.Z.B.Z.Z.Z.Z.Z.Z.Z.Z.Z.Z.Z.Z.Z.Z.Z.Z.Z.Z.Z.Z.Z.Z.Z.Z.Z.",
"Z.Z.Z.Z.Z.Z.R.R.Z.Z.Z.Z.Z.Z.R.R.Z.Z.Z.Z.Z.Z.Z.Z.Z.Z.Z.Z.Z.Z.Z.Z.Z.Z.Z.Z.Z.B.Z.Z.Z.Z.Z.Z.Z.Z.Z.Z.Z.Z.Z.Z.Z.Z.Z.Z.Z.Z.Z.Z.Z.Z.Z.Z.",
"Z.Z.Z.Z.Z.Z.R.R.Z.Z.Z.Z.Z.Z.R.R.Z.Z.Z.Z.Z.Z.Z.Z.Z.Z.Z.Z.Z.Z.Z.Z.Z.Z.Z.Z.Z.Z.Z.Z.Z.Z.Z.Z.Z.Z.Z.Z.Z.Z.Z.Z.Z.Z.Z.Z.Z.Z.Z.Z.Z.Z.Z.Z.",
"Z.Z.Z.Z.Z.Z.Z.Z.Z.Z.Z.Z.Z.Z.Z.Z.Z.Z.Z.Z.Z.Z.Z.Z.Z.Z.Z.Z.Z.Z.Z.Z.Z.Z.Z.Z.Z.Z.Z.Z.Z.Z.Z.Z.Z.Z.Z.Z.Z.Z.Z.Z.Z.Z.Z.Z.Z.Z.Z.Z.Z.Z.Z.Z.",
"Z.Z.Z.Z.Z.Z.Z.Z.Z.Z.Z.Z.Z.Z.Z.Z.Z.Z.Z.Z.Z.Z.Z.Z.Z.Z.Z.Z.Z.Z.Z.Z.Z.Z.Z.Z.Z.Z.Z.Z.Z.Z.Z.Z.Z.Z.Z.Z.Z.Z.Z.Z.Z.Z.Z.Z.Z.Z.Z.Z.Z.Z.Z.Z.",
"Z.Z.Z.Z.Z.Z.Z.Z.Z.Z.Z.Z.Z.Z.Z.Z.Z.Z.Z.Z.Z.Z.Z.Z.Z.Z.Z.Z.Z.Z.Z.Z.Z.Z.Z.Z.Z.Z.Z.Z.Z.Z.Z.Z.Z.Z.Z.Z.Z.Z.Z.Z.Z.Z.Z.Z.Z.Z.Z.Z.Z.Z.Z.Z.",
"Z.Z.Z.Z.Z.Z.Z.Z.Z.Z.Z.Z.Z.Z.Z.Z.Z.Z.Z.Z.Z.Z.Z.Z.Z.Z.Z.Z.Z.Z.Z.Z.Z.Z.Z.Z.Z.Z.Z.Z.Z.Z.Z.Z.Z.Z.Z.Z.Z.Z.Z.Z.Z.Z.Z.Z.Z.Z.Z.Z.Z.Z.Z.Z.",
"Z.Z.Z.Z.Z.Z.Z.Z.Z.Z.Z.Z.Z.Z.Z.Z.Z.Z.Z.Z.Z.Z.Z.Z.Z.Z.Z.Z.Z.Z.Z.Z.Z.Z.Z.Z.Z.Z.Z.Z.Z.Z.Z.Z.Z.Z.Z.Z.Z.Z.Z.Z.Z.Z.Z.Z.Z.Z.Z.Z.Z.Z.Z.Z.",
"Z.Z.Z.Z.Z.Z.Z.Z.Z.Z.Z.Z.Z.Z.Z.Z.Z.Z.Z.Z.Z.Z.Z.Z.Z.Z.Z.Z.Z.Z.Z.Z.Z.Z.Z.Z.Z.c.c.Z.Z.Z.Z.Z.Z.Z.Z.Z.Z.Z.Z.Z.Z.Z.Z.Z.Z.Z.Z.Z.Z.Z.Z.Z.",
"Z.Z.Z.Z.Z.Z.Z.Z.Z.Z.Z.Z.Z.Z.Z.Z.Z.Z.Z.Z.Z.Z.Z.Z.Z.Z.Z.Z.Z.Z.Z.Z.Z.Z.Z.Z.Z.] h.Z.Z.Z.Z.Z.Z.Z.Z.Z.Z.Z.Z.Z.Z.Z.Z.Z.Z.Z.Z.Z.Z.Z.Z.Z.",
"Z.Z.Z.Z.Z.Z.Z.Z.Z.Z.Z.Z.Z.Z.Z.Z.Z.Z.Z.Z.Z.Z.Z.j.j.Z.Z.Z.Z.Z.Z.Z.Z.Z.Z.Z.Z.B.B.Z.Z.Z.Z.Z.Z.Z.Z.Z.Z.Z.Z.Z.Z.Z.Z.Z.Z.Z.Z.Z.Z.Z.Z.Z.",
"Z.Z.Z.Z.Z.Z.Z.Z.Z.Z.Z.Z.Z.Z.Z.Z.Z.Z.Z.Z.Z.Z.Z.j.j.Z.Z.Z.Z.Z.Z.Z.Z.Z.Z.Z.Z.Z.Z.Z.Z.Z.Z.Z.Z.Z.Z.Z.Z.Z.Z.Z.Z.Z.Z.Z.Z.Z.Z.Z.Z.Z.Z.Z.",
"Z.Z.Z.Z.Z.Z.Z.Z.Z.Z.Z.Z.Z.Z.Z.Z.Z.j.j.Z.Z.Z.Z.j.j.Z.Z.Z.Z.j.j.Z.Z.Z.Z.Z.Z.Z.Z.Z.Z.Z.Z.Z.Z.Z.Z.Z.Z.Z.Z.Z.Z.Z.Z.Z.Z.Z.Z.Z.Z.Z.Z.Z.",
"Z.Z.Z.Z.Z.Z.Z.Z.Z.Z.Z.Z.Z.Z.Z.Z.Z.j.j.Z.Z.Z.Z.j.j.Z.Z.Z.Z.j.j.Z.Z.Z.Z.Z.Z.Z.Z.Z.Z.Z.Z.Z.Z.Z.Z.Z.Z.Z.Z.Z.Z.Z.Z.Z.Z.Z.Z.Z.Z.Z.Z.Z.",
"Z.Z.Z.Z.Z.Z.Z.Z.Z.Z.Z.Z.Z.Z.Z.Z.Z.Z.Z.j.j.Z.Z.Z.Z.Z.Z.j.j.Z.Z.Z.Z.Z.Z.Z.Z.Z.Z.Z.Z.Z.Z.Z.Z.Z.Z.Z.Z.Z.Z.Z.Z.Z.Z.Z.Z.j.j.Z.Z.Z.Z.Z.",
"Z.Z.Z.Z.Z.Z.Z.Z.Z.Z.Z.Z.Z.Z.Z.Z.Z.Z.Z.j.j.Z.Z.Z.Z.Z.Z.j.j.Z.Z.Z.Z.Z.Z.Z.Z.Z.Z.Z.Z.Z.Z.Z.Z.Z.Z.Z.Z.Z.Z.Z.Z.Z.Z.Z.Z.j.j.Z.Z.Z.Z.Z.",
"j.Z.Z.Z.Z.Z.Z.Z.Z.Z.Z.Z.Z.Z.Z.Z.Z.Z.Z.Z.Z.Z.Z.Z.Z.Z.Z.Z.Z.Z.Z.Z.Z.Z.Z.Z.Z.Z.Z.Z.Z.Z.Z.Z.Z.Z.Z.Z.Z.Z.Z.j.j.Z.Z.Z.Z.j.j.Z.Z.Z.Z.j.",
"j.Z.Z.Z.Z.Z.Z.Z.Z.Z.Z.Z.Z.Z.Z.Z.Z.Z.Z.Z.Z.Z.Z.Z.Z.Z.Z.Z.Z.Z.Z.Z.Z.Z.Z.Z.Z.Z.Z.Z.Z.Z.Z.Z.Z.Z.Z.Z.Z.Z.Z.j.j.Z.Z.Z.Z.j.j.Z.Z.Z.Z.j.",
"Z.Z.Z.Z.Z.Z.Z.Z.Z.Z.Z.Z.Z.Z.Z.Z.Z.Z.Z.Z.Z.Z.Z.Z.Z.Z.Z.Z.Z.Z.Z.B.Z.Z.Z.Z.Z.Z.Z.Z.Z.Z.Z.Z.Z.Z.Z.Z.Z.Z.Z.Z.Z.j.j.Z.Z.Z.Z.Z.Z.j.j.Z.",
"Z.Z.Z.Z.Z.Z.Z.Z.Z.Z.Z.Z.Z.Z.Z.Z.Z.Z.Z.Z.Z.Z.Z.Z.Z.Z.Z.Z.Z.Z.Z.B.l.c.Z.Z.Z.Z.Z.Z.Z.Z.Z.Z.Z.Z.Z.Z.Z.Z.Z.Z.Z.j.j.Z.Z.Z.Z.Z.Z.j.j.Z.",
"Z.Z.Z.Z.Z.Z.Z.Z.Z.Z.Z.Z.Z.Z.Z.Z.Z.Z.Z.Z.B.Z.Z.Z.Z.Z.B.b.B.Z.Z.B.e ] B.Z.Z.Z.Z.Z.Z.Z.Z.Z.Z.Z.Z.Z.Z.Z.Z.Z.Z.Z.Z.Z.Z.Z.Z.Z.Z.Z.Z.Z.",
"Z.Z.Z.Z.Z.Z.Z.Z.Z.Z.Z.Z.Z.Z.Z.Z.Z.Z.Z.B.Z.Z.Z.Z.Z.Z.B.j s c.B.B.a ] B.Z.Z.Z.Z.Z.Z.Z.Z.Z.Z.Z.Z.Z.Z.Z.Z.Z.Z.Z.Z.Z.Z.Z.Z.Z.Z.Z.Z.Z.",
"Z.Z.Z.Z.Z.Z.Z.Z.Z.Z.Z.Z.Z.Z.Z.Z.Z.Z.Z.Z.Z.Z.Z.Z.Z.Z.b.a . ] n.g.j g.Z.R.R.Z.Z.Z.Z.Z.Z.Z.Z.Z.Z.Z.Z.Z.Z.Z.Z.Z.Z.Z.Z.Z.Z.Z.Z.Z.Z.Z.",
"Z.Z.Z.Z.Z.Z.Z.Z.Z.Z.Z.Z.Z.Z.Z.Z.Z.Z.Z.Z.Z.Z.Z.Z.Z.Z.Z.j . ; s   = h.Z.R.R.Z.Z.Z.Z.Z.Z.Z.Z.Z.Z.Z.Z.Z.Z.Z.Z.Z.Z.Z.Z.Z.Z.Z.Z.Z.Z.Z.",
"Z.Z.Z.Z.Z.Z.Z.Z.Z.Z.Z.Z.Z.Z.Z.Z.Z.Z.Z.Z.Z.Z.Z.Z.Z.Z.Z.[ o p z.  f B.m.D.R.B.Z.Z.Z.R.R.Z.Z.Z.Z.Z.Z.Z.Z.Z.Z.Z.Z.Z.Z.Z.Z.Z.Z.Z.Z.Z.",
"Z.Z.Z.Z.Z.Z.Z.Z.Z.Z.Z.Z.Z.Z.Z.Z.Z.Z.Z.Z.Z.Z.Z.Z.Z.Z.Z.m.> ; d . _ B.s r G.B.Z.Z.Z.R.R.Z.Z.Z.Z.Z.Z.Z.Z.Z.Z.Z.Z.Z.Z.Z.Z.Z.Z.Z.Z.Z.",
"Z.Z.Z.Z.Z.Z.Z.Z.Z.Z.Z.Z.Z.Z.Z.Z.Z.Z.Z.Z.Z.Z.Z.Z.Z.Z.Z.m.w X + t G.l.; X > h.Z.R.R.Z.Z.Z.Z.Z.Z.Z.Z.Z.Z.Z.Z.Z.Z.Z.Z.Z.Z.Z.Z.Z.Z.Z.",
"Z.Z.Z.Z.Z.Z.Z.Z.Z.Z.Z.Z.Z.Z.Z.Z.Z.Z.Z.Z.Z.Z.Z.Z.Z.Z.Z.B.` X @ ; k.r + + s n.Z.R.R.Z.Z.Z.Z.Z.Z.Z.Z.Z.Z.Z.Z.Z.Z.Z.Z.Z.Z.Z.Z.Z.Z.Z.",
"Z.Z.Z.Z.Z.Z.Z.Z.Z.Z.Z.Z.Z.Z.Z.Z.Z.Z.Z.Z.Z.Z.Z.Z.Z.Z.Z.m.a X + > g & & + j Z.Z.Z.Z.Z.Z.Z.Z.Z.Z.Z.Z.Z.Z.Z.Z.Z.Z.Z.Z.Z.Z.Z.Z.Z.Z.Z.",
"Z.Z.Z.Z.Z.Z.Z.Z.Z.Z.Z.Z.Z.Z.Z.Z.Z.Z.Z.Z.Z.Z.Z.Z.Z.Z.B.B.] + @ _ q 5 5 0 h.Z.Z.Z.Z.Z.Z.Z.Z.Z.Z.Z.Z.Z.Z.Z.Z.Z.Z.Z.Z.Z.Z.Z.Z.Z.Z.Z.",
"Z.Z.Z.Z.Z.Z.Z.Z.Z.Z.Z.Z.Z.Z.Z.Z.Z.Z.Z.Z.Z.Z.Z.Z.Z.Z.Z.Z.g.+ + _ q 5 5 u m.Z.Z.Z.Z.Z.Z.Z.Z.Z.Z.Z.Z.Z.Z.Z.Z.Z.Z.Z.Z.Z.Z.Z.Z.Z.Z.Z.",
"Z.Z.Z.Z.Z.Z.Z.Z.Z.Z.Z.Z.Z.Z.Z.Z.Z.Z.Z.Z.Z.Z.Z.Z.Z.Z.Z.Z.g.+ + @ # 1 5 } Z.Z.Z.Z.Z.Z.Z.Z.Z.Z.Z.Z.Z.Z.Z.Z.Z.Z.Z.Z.Z.Z.Z.Z.Z.Z.Z.Z.",
"Z.Z.Z.Z.Z.Z.Z.Z.Z.Z.Z.Z.Z.Z.Z.Z.Z.Z.Z.Z.Z.Z.Z.Z.Z.Z.Z.Z.g.+ t t % # # { z.z.Z.Z.Z.Z.Z.Z.B.Z.Z.B.Z.Z.Z.Z.Z.Z.Z.Z.Z.Z.Z.Z.Z.Z.Z.Z.",
"Z.Z.Z.Z.Z.B.B.Z.Z.Z.Z.Z.Z.Z.Z.Z.Z.Z.Z.Z.Z.Z.Z.Z.Z.Z.Z.m.g # g l % % @ 5 x M  .Z.Z.Z.Z.Z.V.M.k.B.Z.Z.Z.Z.Z.Z.Z.Z.Z.Z.Z.Z.Z.Z.Z.Z.",
"Z.Z.Z.Z.Z.Z.Z.Z.Z.Z.Z.Z.Z.Z.Z.Z.Z.Z.Z.Z.Z.Z.Z.Z.Z.Z.B.^ c c 8 : % % p i x x z Z.Z.Z.Z.Z.N.( ^ N.Z.Z.Z.Z.Z.Z.Z.Z.Z.Z.Z.Z.Z.Z.Z.Z.",
"Z.Z.Z.Z.Z.Z.Z.Z.Z.Z.Z.Z.Z.Z.Z.Z.Z.Z.Z.Z.Z.Z.Z.Z.Z.B.6.b v b b 1 % % l x.H H x.Z.Z.Z.Z.M.( N N A.Z.Z.Z.Z.Z.Z.Z.Z.Z.Z.Z.Z.Z.Z.Z.Z.",
"Z.Z.Z.Z.Z.Z.Z.Z.Z.Z.Z.Z.Z.Z.Z.Z.Z.Z.Z.Z.Z.Z.Z.Z.Z.F./ b v v b 7 * % l B.V.m.B.Z.Z.Z.Z.Z.( N N A.Z.Z.Z.Z.Z.Z.Z.Z.Z.Z.Z.Z.Z.Z.Z.Z.",
"Z.Z.Z.Z.Z.Z.Z.Z.Z.Z.Z.Z.Z.Z.Z.Z.Z.Z.Z.Z.Z.Z.Z.Z.B.F.K b b D T W 6 % y k.4.4.S.Z.Z.Z.Z.Z.D.A.A.N.Z.Z.Z.Z.Z.Z.Z.Z.Z.Z.Z.Z.Z.Z.Z.Z.",
"Z.Z.Z.Z.Z.Z.Z.Z.Z.Z.Z.Z.Z.Z.Z.Z.Z.Z.Z.Z.Z.Z.Z.Z.V.C.~ S D Q o.o.G 3 1 J Z Z J 5.Z.Z.Z.Z.V.Z.Z.Z.Z.Z.Z.Z.Z.Z.Z.Z.Z.Z.Z.Z.Z.Z.Z.Z.",
"Z.Z.Z.Z.Z.Z.Z.Z.Z.Z.Z.Z.Z.Z.Z.Z.Z.Z.Z.Z.Z.Z.Z.Z.B.[ F R Q Q o.$.w.A m V V V V K N.Z.Z.Z.B.Z.Z.Z.Z.Z.Z.Z.Z.Z.Z.Z.Z.Z.Z.Z.Z.Z.Z.Z.",
"Z.Z.Z.Z.Z.Z.Z.Z.Z.Z.Z.Z.Z.Z.Z.Z.Z.Z.Z.Z.Z.Z.B.B.h.= < E Q Q =.<.a.J.*.W C B I ~ F.V.Z.Z.Z.Z.Z.Z.Z.Z.Z.Z.Z.Z.Z.Z.Z.Z.Z.Z.Z.Z.Z.Z.",
"Z.Z.Z.Z.Z.Z.Z.Z.Z.Z.Z.Z.Z.Z.Z.Z.Z.Z.Z.Z.Z.Z.B.B.s $ 7 S Y O.<.2.<.a.J.>.U R o.$.7.S.Z.Z.Z.Z.Z.Z.Z.Z.Z.Z.Z.Z.Z.Z.Z.Z.Z.Z.Z.Z.Z.Z.",
"Z.Z.Z.Z.Z.Z.Z.Z.Z.Z.Z.Z.Z.Z.Z.Z.Z.Z.Z.Z.Z.V.] > $ n C C C Y <.2.1.2.e.<.o.%.+.o.o.q.Z.Z.Z.Z.Z.Z.Z.Z.Z.Z.Z.Z.Z.j.j.Z.Z.Z.Z.Z.Z.Z.",
"Z.Z.Z.Z.Z.Z.Z.Z.Z.Z.Z.Z.Z.Z.Z.Z.Z.Z.Z.Z.Z.B.a + n C C C V I ,.1.1.<.1.2.2.2.<.+.O.&.F.Z.Z.Z.Z.Z.Z.Z.Z.Z.Z.Z.Z.j.j.Z.Z.Z.Z.Z.Z.Z.",
"Z.Z.Z.Z.Z.Z.Z.Z.Z.Z.Z.Z.Z.Z.Z.Z.Z.Z.Z.Z.B.B._ O B C V C W U &.1.,.,.2.2.2.1.2.,.O.! x.V.Z.Z.Z.Z.Z.j.j.Z.Z.Z.Z.j.j.Z.Z.Z.Z.j.j.Z.",
"Z.Z.Z.Z.Z.Z.Z.Z.Z.Z.Z.Z.Z.Z.Z.Z.Z.Z.Z.Z.B.B.h.k.K V T -.r.:.&.,.>.>.<.<.1.2.2.2.*.M { V.Z.Z.Z.Z.Z.j.j.Z.Z.Z.Z.j.j.Z.Z.Z.Z.j.j.Z.",
"Z.Z.Z.Z.Z.H.H.Z.Z.Z.Z.Z.Z.Z.Z.Z.Z.Z.Z.Z.Z.Z.Z.Z.6.B &.y.t.t.e.1.e.3.e.e.<.2.2.2.@.u V.V.Z.Z.Z.Z.Z.Z.Z.j.j.Z.Z.Z.Z.Z.Z.j.j.Z.Z.Z.",
"Z.Z.Z.Z.Z.H.H.Z.Z.Z.Z.Z.Z.Z.Z.Z.Z.Z.Z.Z.Z.Z.Z.B.b.L e.t.t.y.p.p.s.s.s.a.1.1.2.2...u B.V.Z.Z.Z.Z.Z.Z.Z.j.j.Z.Z.Z.Z.Z.Z.j.j.Z.Z.Z.",
"H.Z.Z.Z.Z.H.H.Z.Z.Z.Z.H.H.Z.Z.Z.Z.Z.Z.j.j.Z.B.l.t P >.r.t.p.f.K.K.d.s.s.i.2.2.:.8 h V.B.B.Z.Z.Z.Z.Z.Z.Z.Z.Z.Z.Z.Z.Z.Z.Z.Z.Z.Z.H.",
"H.Z.Z.Z.Z.H.H.Z.Z.Z.Z.H.H.Z.Z.Z.Z.Z.Z.j.j.B.B.k 9 #.>.<.p.d.L.T.T.I.L.s.y.1.3.X.| m.V.B.Z.Z.Z.Z.Z.Z.Z.Z.Z.Z.Z.Z.Z.Z.Z.Z.Z.Z.Z.H.",
"Z.H.H.Z.Z.Z.Z.Z.Z.H.H.Z.Z.Z.Z.Z.Z.Z.Z.Z.Z.) w - #.;.;.u.f.L.T.T.T.T.Q.L.d.i.e.A f l.B.Z.Z.Z.Z.Z.Z.Z.Z.Z.Z.Z.Z.Z.Z.Z.Z.Z.Z.Z.Z.Z.",
"Z.H.H.Z.Z.Z.Z.Z.Z.H.H.Z.Z.Z.Z.Z.Z.Z.Z.Z.Z.s $ 2 =.;.;.i.K.T.T.E.T.Y.Y.Q.I.L.8.M 2 : f v.Z.Z.Z.Z.Z.Z.Z.Z.Z.Z.Z.Z.Z.Z.Z.Z.Z.Z.Z.Z.",
"Z.Z.Z.Z.Z.Z.Z.Z.Z.Z.Z.Z.Z.Z.Z.Z.Z.Z.Z.Z.B.k # % ..>.>.e.K.E.E.W.Y.P.P.P.P.I.0.4 3 * @ g.Z.Z.Z.Z.Z.Z.Z.B.Z.Z.Z.Z.Z.Z.Z.Z.Z.Z.Z.Z.",
"Z.Z.Z.Z.Z.Z.Z.Z.Z.Z.Z.Z.Z.Z.Z.Z.Z.Z.Z.Z.Z.' $ @ * ..>.>.u.U.Q.W.Y.L.P.L.L.I.0.1 3 3 2 g B.Z.Z.Z.Z.Z.Z.Z.B.Z.Z.Z.Z.Z.Z.Z.Z.Z.Z.Z.",
"Z.Z.Z.Z.Z.Z.Z.Z.Z.Z.Z.Z.Z.Z.Z.Z.Z.Z.Z.Z.Z.n.w # @ , P @.9.W.Q.T.I.P.I.L.L.I.q., 3 3 y ' B.B.Z.Z.Z.Z.Z.Z.Z.Z.Z.Z.Z.Z.Z.Z.Z.Z.Z.Z.",
"Z.Z.Z.Z.Z.Z.Z.Z.Z.Z.Z.Z.Z.Z.Z.Z.Z.Z.Z.Z.Z.B.' @ * , % < L U.Q.T.P.P.L.I.L.I.q.3 3 ' b.Z.Z.B.Z.Z.Z.Z.Z.Z.Z.Z.Z.Z.Z.Z.Z.Z.Z.Z.Z.Z."
};
