/* XPM */
static char *wall_16[] = {
/* columns rows colors chars-per-pixel */
"64 64 178 2 ",
"   c #1B0807",
".  c #1C0908",
"X  c #1B1410",
"o  c #250C0A",
"O  c #2A0E0B",
"+  c #300E09",
"@  c #2B140E",
"#  c #34110C",
"$  c #3E1008",
"%  c #2F2A20",
"&  c #3B2C21",
"*  c #313326",
"=  c #2A3F31",
"-  c #43140B",
";  c #491309",
":  c #55140B",
">  c #441A10",
",  c #491B11",
"<  c #551E16",
"1  c #631A07",
"2  c #761A07",
"3  c #7E1B07",
"4  c #542316",
"5  c #66210B",
"6  c #672B17",
"7  c #6B3616",
"8  c #733514",
"9  c #753D15",
"0  c #46372A",
"q  c #5A3629",
"w  c #563F30",
"e  c #7A3C27",
"r  c #2D4A3A",
"t  c #374434",
"y  c #32503F",
"u  c #5A4636",
"i  c #714F27",
"p  c #624231",
"a  c #3C5240",
"s  c #3A614C",
"d  c #595944",
"f  c #4E644F",
"g  c #44735B",
"h  c #4D775E",
"j  c #59735A",
"k  c #467A61",
"l  c #4C7C63",
"z  c #617D63",
"x  c #821C06",
"c  c #8A1D05",
"v  c #882508",
"b  c #9D2103",
"n  c #95390A",
"m  c #9A2910",
"M  c #AD2C0A",
"N  c #BB2B01",
"B  c #A13305",
"V  c #A83E25",
"C  c #C33D04",
"Z  c #9F440C",
"A  c #A3460D",
"S  c #B4450A",
"D  c #A44F10",
"F  c #AB5614",
"G  c #B05C16",
"H  c #BC6E1C",
"J  c #91432E",
"K  c #A7593A",
"L  c #B8553A",
"P  c #BE7824",
"I  c #C74406",
"U  c #C94405",
"Y  c #C8550C",
"T  c #D2590D",
"R  c #C94D18",
"E  c #DA620C",
"W  c #DC6C11",
"Q  c #DB7816",
"!  c #E37C15",
"~  c #CC5521",
"^  c #C25B33",
"/  c #BD6641",
"(  c #B47D5A",
")  c #A67F61",
"_  c #3B8A6A",
"`  c #4E8368",
"'  c #538F72",
"]  c #589677",
"[  c #63876B",
"{  c #7C8F71",
"}  c #649778",
"|  c #E5841A",
" . c #E78A1C",
".. c #E98D1D",
"X. c #E9901F",
"o. c #DC9426",
"O. c #DF943D",
"+. c #EB9623",
"@. c #ED9B24",
"#. c #EFA42B",
"$. c #F0A92C",
"%. c #EBA430",
"&. c #F3B534",
"*. c #F5BB35",
"=. c #F5BE38",
"-. c #F7C33B",
";. c #84845C",
":. c #B69C4C",
">. c #8C8E6D",
",. c #908668",
"<. c #869676",
"1. c #A38768",
"2. c #D9845F",
"3. c #CEB050",
"4. c #F3BC4B",
"5. c #E0BE5D",
"6. c #F1B358",
"7. c #C9A465",
"8. c #CFB368",
"9. c #F1C347",
"0. c #FACD44",
"q. c #F9CD4A",
"w. c #F7D145",
"e. c #FBD445",
"r. c #FDDB46",
"t. c #FEDE4B",
"y. c #FDDA56",
"u. c #FFE051",
"i. c #FFE15B",
"p. c #DBC466",
"a. c #D3C36B",
"s. c #F8CD67",
"d. c #FBD968",
"f. c #FCDD72",
"g. c #FFE365",
"h. c #FFE56C",
"j. c #FFE96E",
"k. c #FFE673",
"l. c #FEE67C",
"z. c #47A780",
"x. c #5DA383",
"c. c #40B088",
"v. c #67A784",
"b. c #6AA886",
"n. c #63AC89",
"m. c #6BAC8A",
"M. c #7DA381",
"N. c #67B792",
"B. c #6CBC96",
"V. c #6DBF99",
"C. c #70BB95",
"Z. c #7DBE97",
"A. c #6EC49D",
"S. c #72C69E",
"D. c #7AC09A",
"F. c #7DC89C",
"G. c #70C8A0",
"H. c #7DCBA7",
"J. c #95A884",
"K. c #8AB18D",
"L. c #97B58B",
"P. c #AABB85",
"I. c #DFBAA2",
"U. c #88C89A",
"Y. c #A7C78C",
"T. c #AFC788",
"R. c #8DC5A9",
"E. c #88D8B8",
"W. c #A4D8B8",
"Q. c #FFE986",
"!. c #FEEA8B",
"~. c #FEEC98",
"^. c #FFEFAA",
"/. c #FEF0B2",
"(. c #A0E0C0",
"). c #CCE4D3",
"_. c #FEF5CC",
"`. c #FEFCEF",
/* pixels */
"G.G.G.G.G.G.G.G.G.G.G.G.G.G.G.G.G.G.G.G.G.G.G.G.G.G.G.G.G.G.G.G.G.G.G.G.G.G.G.G.G.G.G.G.G.G.G.G.G.G.G.G.G.G.G.G.G.G.G.G.G.G.G.G.",
"G.G.G.G.G.G.G.G.G.G.G.G.G.G.G.G.G.G.G.G.G.G.G.G.G.G.G.G.G.G.G.G.G.G.G.G.G.G.G.G.G.G.G.G.G.G.G.G.G.G.G.G.G.G.G.G.G.G.G.G.G.G.G.G.",
"G.G.G.G.G.G.G.G.G.G.G.G.G.G.G.G.G.G.G.G.G.G.G.G.G.G.G.G.G.G.G.G.G.G.G.G.G.G.G.G.G.G.G.G.G.G.G.G.G.G.G.G.G.G.G.G.G.G.G.G.G.G.G.G.",
"G.G.G.G.G.G.G.G.G.G.G.G.G.G.G.G.G.G.G.G.G.G.G.G.G.G.G.G.G.G.G.G.G.G.G.G.G.G.G.G.G.G.G.G.G.G.G.G.G.G.G.G.G.G.G.G.G.G.G.G.G.G.G.G.",
"G.G.G.G.G.G.G.G.G.G.G.G.G.G.G.G.G.G.G.G.G.G.G.G.G.G.G.G.G.G.G.G.G.G.G.G.G.G.G.G.G.G.G.G.G.G.G.G.G.G.G.G.G.G.G.G.G.G.G.G.G.G.G.G.",
"G.G.G.G.G.G.G.G.G.G.(.(.G.G.G.G.G.G.G.G.G.G.G.G.G.G.G.G.G.G.G.G.G.G.G.G.G.G.G.G.G.G.G.G.G.G.G.G.G.G.G.G.G.G.G.G.G.G.G.G.G.G.G.G.",
"G.G.G.G.G.G.G.G.G.G.(.(.G.G.G.G.G.G.G.G.G.G.G.G.G.G.G.G.G.G.G.G.G.G.G.G.G.G.G.G.G.G.G.G.G.G.G.G.G.G.G.G.G.G.G.G.G.G.G.G.G.G.G.G.",
"G.G.G.G.(.(.G.G.G.G.(.(.G.G.G.G.(.(.G.G.G.G.G.G.G.G.G.G.G.G.G.G.G.G.G.G.G.G.G.G.G.G.G.G.G.G.G.G.G.G.G.G.G.G.G.G.G.G.G.G.G.G.G.G.",
"G.G.G.G.(.(.G.G.G.G.(.(.G.G.G.G.(.(.G.G.G.G.G.G.G.G.G.G.G.G.G.G.G.G.G.G.G.G.G.G.G.G.G.G.G.G.G.G.G.G.G.G.G.G.G.G.G.G.G.G.G.G.G.G.",
"G.G.G.G.G.G.(.(.G.G.G.G.G.G.(.(.G.G.G.G.G.G.G.G.G.G.G.G.G.G.G.G.G.G.G.G.G.G.G.G.G.G.G.G.G.G.G.G.G.G.G.G.G.G.G.G.G.G.G.G.G.G.G.G.",
"G.G.G.G.G.G.(.(.G.G.G.G.G.G.(.(.G.G.G.G.G.G.G.G.G.G.G.G.G.G.G.G.G.G.G.G.G.G.G.G.G.G.G.G.G.G.G.G.G.G.G.G.G.G.G.G.G.G.G.G.G.G.G.G.",
"G.G.G.G.G.G.G.G.G.G.G.G.G.G.G.G.G.G.G.G.G.G.G.G.G.G.G.G.G.G.G.G.G.G.G.G.G.G.G.G.G.G.G.G.G.G.G.G.G.G.G.G.G.G.G.G.G.G.G.G.G.G.G.G.",
"G.G.G.G.G.G.G.G.G.G.G.G.G.G.G.G.G.G.G.G.G.G.G.G.G.G.G.G.G.G.G.G.G.G.G.G.G.G.G.G.G.G.G.G.G.G.G.G.G.G.G.G.G.G.G.G.G.G.G.G.G.G.G.G.",
"G.G.G.G.G.G.G.G.G.G.G.G.G.G.G.G.G.G.G.G.G.G.G.G.G.G.G.G.G.G.G.G.G.G.G.G.G.G.G.G.G.G.G.G.G.G.G.G.G.G.G.G.G.G.G.G.G.G.G.G.G.G.G.G.",
"G.G.G.G.G.G.G.G.G.G.G.G.G.G.G.G.G.G.G.G.G.G.G.G.G.G.G.G.G.G.G.G.G.G.G.G.G.G.G.G.G.G.G.G.G.G.G.G.G.G.G.G.G.G.G.G.G.G.G.G.G.G.G.G.",
"G.G.G.G.G.G.G.G.G.G.G.G.G.G.G.G.G.G.G.G.G.G.G.G.G.G.G.G.G.G.G.G.G.G.G.G.G.G.G.G.G.G.G.G.G.G.G.G.G.G.G.G.G.G.G.G.G.G.G.G.G.G.G.G.",
"G.G.G.G.G.G.G.G.G.G.G.G.G.G.G.G.G.G.G.G.G.G.G.G.G.G.G.G.G.G.G.G.G.G.G.G.G.G.G.G.G.G.G.G.G.G.G.G.G.G.G.G.G.G.G.G.G.G.G.G.G.G.G.G.",
"G.G.G.G.G.G.G.G.G.G.G.G.G.G.G.G.G.G.G.G.G.G.G.G.G.G.G.G.G.G.G.G.G.G.G.G.G.G.G.G.G.G.G.G.G.G.G.G.G.G.G.G.G.G.G.G.G.G.G.G.G.G.G.G.",
"G.G.G.G.G.G.G.G.G.G.G.G.G.G.G.G.G.G.G.G.G.G.G.c.c.G.G.G.G.G.G.G.G.G.G.G.G.G.G.G.G.G.G.G.G.G.G.G.G.G.G.G.G.G.G.G.G.G.G.G.G.G.G.G.",
"G.G.G.G.G.G.G.G.G.G.G.G.G.G.G.G.G.G.G.G.G.G.G.c.c.G.G.G.G.G.G.G.G.G.G.G.G.G.G.G.G.G.G.G.G.G.G.G.G.G.G.G.G.G.G.G.G.G.G.G.G.G.G.G.",
"G.G.G.G.G.G.G.G.G.G.G.G.G.G.G.G.G.c.c.G.G.G.G.c.c.G.G.G.G.c.c.G.G.G.G.G.G.G.G.G.G.G.G.G.G.G.G.G.G.G.G.G.G.G.G.G.G.G.G.G.G.G.G.G.",
"G.G.G.G.G.G.G.G.G.G.G.G.G.G.G.G.G.c.c.G.G.G.G.c.c.G.G.G.G.c.c.G.G.G.G.G.G.G.G.G.G.G.G.G.G.G.G.G.G.G.G.G.G.G.G.G.G.G.G.G.G.G.G.G.",
"G.G.G.G.G.G.G.G.G.G.G.G.G.G.G.G.G.G.G.c.c.G.G.G.G.G.G.c.c.G.G.G.G.G.G.G.G.G.G.G.G.G.G.G.G.G.G.G.G.G.G.G.G.G.G.G.G.c.c.G.G.G.G.G.",
"G.G.G.G.G.G.G.G.G.G.G.G.G.G.G.G.G.G.G.c.c.G.G.G.G.G.G.c.c.G.G.G.G.G.G.G.G.G.G.G.G.G.G.G.G.G.G.G.G.G.G.G.G.G.G.G.G.c.c.G.G.G.G.G.",
"c.G.G.G.G.G.G.G.G.G.G.G.G.G.G.G.G.G.G.G.G.G.G.G.G.G.G.G.G.G.G.G.G.G.G.G.G.G.G.G.G.G.G.G.G.G.G.G.G.G.G.c.c.G.G.G.G.c.c.G.G.G.G.c.",
"c.G.G.G.G.G.G.G.G.G.G.G.G.G.G.G.G.G.G.G.G.G.G.G.G.G.G.G.G.G.G.G.G.G.G.G.G.G.G.G.G.G.G.G.G.G.G.G.G.G.G.c.c.G.G.G.G.c.c.G.G.G.G.c.",
"G.G.G.G.G.G.G.G.G.G.G.G.G.G.G.G.G.G.G.G.G.G.G.G.G.G.G.G.G.G.G.G.G.G.G.G.G.G.G.G.G.G.G.G.G.G.G.G.G.G.G.G.G.c.c.G.G.G.G.G.G.c.c.G.",
"G.G.G.G.G.G.G.G.G.G.G.G.G.G.G.G.G.G.G.G.G.G.G.G.G.G.G.G.G.G.G.G.G.G.G.A.V.G.G.G.G.G.G.G.G.G.G.G.G.G.G.G.G.c.c.G.G.G.G.G.G.c.c.G.",
"G.G.G.G.G.G.G.G.G.G.G.G.G.G.G.G.G.G.G.G.G.A.b.V.G.G.G.G.G.G.G.G.G.G.A.s x.A.G.G.G.G.G.G.G.G.G.G.G.G.G.G.G.G.G.G.G.G.G.G.G.G.G.G.",
"G.G.G.G.G.G.G.G.G.G.G.G.G.G.G.G.G.G.G.A.A.} < j A.G.G.G.G.G.G.G.G.A.k r B.A.G.G.G.G.G.G.G.G.G.G.G.A.A.G.G.G.G.G.G.G.G.G.G.G.G.G.",
"G.G.G.G.G.G.G.G.G.G.G.G.G.G.G.G.G.G.G.G.v.4 : u V.G.G.G.G.G.G.A.N.V.s R.(.G.G.G.G.G.G.G.G.G.G.G.G.A.x.G.G.G.G.G.G.G.G.G.G.G.G.G.",
"G.G.G.G.G.G.G.G.G.G.G.G.G.G.G.G.G.G.G.G.V.j w d V.G.G.G.G.G.G.] a x.' W.W.S.G.G.G.G.G.G.G.G.G.G.G.G.G.G.G.G.G.G.G.G.G.G.G.G.G.G.",
"G.G.G.G.G.G.G.G.G.G.G.G.G.G.G.G.G.G.G.G.S.A.B.A.G.G.G.G.G.(.(.`   s ,.L L L K.G.G.(.(.G.G.G.G.G.G.G.G.G.G.G.G.G.G.G.G.G.G.G.G.G.",
"G.G.G.G.G.G.G.G.G.G.G.G.G.G.G.G.G.G.G.G.G.G.S.G.G.G.G.G.G.(.R.r X ] L N N N ) G.G.(.(.G.G.G.G.G.G.G.G.G.G.G.G.G.G.G.G.G.G.G.G.G.",
"G.G.G.G.G.G.G.G.G.G.G.G.G.G.G.G.G.G.G.G.G.G.G.G.G.G.G.G.G.G.x.. . * M N N N ) (.(.G.G.G.G.G.G.G.G.G.G.G.G.G.G.G.G.G.G.G.G.G.G.G.",
"G.G.G.G.G.G.G.G.G.G.G.G.G.G.G.G.G.G.G.G.G.G.G.G.G.G.G.G.A.A.k . . X V N N N 1.(.(.G.G.G.G.G.G.G.G.G.G.G.G.G.G.G.G.G.G.G.G.G.G.G.",
"G.G.G.G.G.G.G.G.G.G.G.G.G.G.G.G.G.G.G.G.G.G.G.G.G.G.G.G.C.l ] . o = K.) ) 1.Z.G.G.G.G.G.G.G.G.G.G.G.G.G.G.G.G.G.G.G.G.G.G.G.G.G.",
"G.G.G.G.G.G.G.G.G.G.G.G.G.G.G.G.G.G.G.G.G.G.G.G.G.G.G.A.g % a o - w C.G.G.G.G.G.G.G.G.G.G.G.G.G.G.G.G.G.G.G.G.G.G.G.G.G.G.G.G.G.",
"G.G.G.G.G.G.G.G.G.G.G.G.G.G.G.G.G.G.G.G.G.G.G.G.G.G.G.A.t + o - 3 c ,.G.G.G.G.G.G.G.G.G.G.G.G.G.G.G.G.G.G.G.G.G.G.G.G.G.G.G.G.G.",
"G.G.G.G.G.G.G.G.G.G.G.G.G.G.G.G.G.G.G.G.G.G.G.G.G.G.G.N.= O o 1 c c z G.G.G.G.G.G.G.G.G.G.G.G.G.G.G.G.G.G.G.G.G.G.G.G.G.G.G.G.G.",
"G.G.G.G.G.G.G.G.G.G.G.G.G.G.G.G.G.G.G.G.G.G.G.G.G.G.G.` O @ o + : 5 { G.G.G.G.G.G.G.G.G.G.G.G.G.G.G.G.G.G.G.G.G.G.G.G.G.G.G.G.G.",
"G.G.G.G.G.G.G.G.G.G.G.G.G.G.G.G.G.G.G.G.G.G.G.G.G.G.G.l O O o o   = N.G.H.G.G.G.G.V.V.A.G.G.G.G.G.G.G.G.G.G.G.G.G.G.G.G.G.G.G.G.",
"G.G.G.G.G.G.G.G.G.G.G.G.G.G.G.G.G.G.G.G.G.G.G.G.G.G.G.l O O O o . X = >.).G.G.G.G.[ q d m.G.G.G.G.G.G.G.G.G.G.G.G.G.G.G.G.G.G.G.",
"G.G.G.G.G.G.G.G.G.G.G.G.G.G.G.G.G.G.G.G.G.G.G.G.G.S.N.t O # > # . 5 M ~ I.K.G.G.G.z : : z G.G.G.G.G.G.G.G.G.G.G.G.G.G.G.G.G.G.G.",
"G.G.G.G.G.G.G.G.G.G.G.G.G.G.G.G.G.G.G.G.G.G.G.G.S.A.x.O # 1 3 2 - n C R 2.J.G.G.G.} < < x.D.G.G.G.G.G.G.G.G.G.G.G.G.G.G.G.G.G.G.",
"G.G.G.G.G.G.G.G.G.G.G.G.G.G.G.G.G.G.G.G.G.G.G.G.S.C.g O ; x 3 3 v C C C C J.G.G.m.b.v.b.A.S.G.G.G.G.G.G.G.G.G.G.G.G.G.G.G.G.G.G.",
"G.G.G.G.G.G.G.G.G.G.G.G.G.G.G.G.G.G.G.G.G.G.G.A.<.J , O ; x x 3 1 n T T T J.A.m.p q [ G.G.G.G.G.G.G.G.G.G.G.G.G.G.G.G.G.G.G.G.G.",
"G.G.G.G.G.G.G.G.G.G.G.G.G.G.G.G.G.G.G.G.G.G.G.<.m b 2 O # 5 S S A Y |  .! P.G.b.e B K L.G.G.G.G.G.G.G.G.G.G.G.G.G.G.G.G.G.G.G.G.",
"G.G.G.G.G.G.G.G.G.G.G.G.G.G.G.G.G.G.G.G.G.G.S.<.n b 2 o o n E W | X.X.|  .O.L.D.L I U / Z.G.G.G.G.G.G.G.G.G.G.G.G.G.G.G.G.G.G.G.",
"G.G.G.G.G.G.G.G.G.G.G.G.G.G.G.G.G.G.G.G.G.G.A.A.d : - O # Z E  .X.#.X.X.| ..7.D.^ I U ^ D.G.G.G.G.G.G.G.G.G.G.G.G.G.G.G.G.G.G.G.",
"G.G.G.G.G.G.G.G.G.G.G.G.G.G.G.G.G.G.G.G.G.G.G.A.` o o @ > A Q +.@.@.X.X. .| 7.S.( U U ( S.G.G.G.G.G.G.G.G.G.G.c.c.G.G.G.G.G.G.G.",
"G.G.G.G.G.G.G.G.G.G.G.G.G.G.G.G.G.G.G.G.G.G.G.A.f & # > 4 G &.-.s.6.#.$.#.#.8.G.U.J.J.Z.G.G.G.G.G.G.G.G.G.G.G.c.c.G.G.G.G.G.G.G.",
"G.G.G.G.G.G.G.G.G.G.G.G.G.G.G.G.G.G.G.G.S.S.A.A.' f > 8 P w.t.r.Q.Q.*.&.&.*.5.T.T.U.S.A.G.G.G.G.G.c.c.G.G.G.G.c.c.G.G.G.G.c.c.G.",
"G.G.G.G.G.G.G.G.G.G.G.G.G.G.G.G.G.G.G.G.G.S.A.A.h $ 9 o.-.t.r.u._.!.e.=.-.-.-.-.-.p.F.S.G.G.G.G.G.c.c.G.G.G.G.c.c.G.G.G.G.c.c.G.",
"G.G.G.G.G.E.E.G.G.G.G.G.G.G.G.G.G.G.G.G.G.G.A.n.0 8 Q #.r.t.t.i.`.!.r.-.-.-.-.-.-.9.Y.S.G.G.G.G.G.G.G.c.c.G.G.G.G.G.G.c.c.G.G.G.",
"G.G.G.G.G.E.E.G.G.G.G.G.G.G.G.G.G.G.G.G.G.A.A.h # D @.#.e.t.r.i./.^.l.l.w.-.-.-.-.-.a.S.G.G.G.G.G.G.G.c.c.G.G.G.G.G.G.c.c.G.G.G.",
"E.G.G.G.G.E.E.G.G.G.G.E.E.G.G.G.G.G.G.c.c.n.y 0 > D @.@.*.t.i.!.~.^.!.!.l.0.-.-.-.-.a.G.G.G.G.G.G.G.G.G.G.G.G.G.G.G.G.G.G.G.G.E.",
"E.G.G.G.G.E.E.G.G.G.G.E.E.G.G.G.G.G.G.c.c.` # 4 7 F | #.#.q.k.g.i.j.k.k.l.h.q.-.-.9.Y.G.G.G.G.G.G.G.G.G.G.G.G.G.G.G.G.G.G.G.G.E.",
"G.E.E.G.G.G.G.G.G.E.E.G.G.G.G.G.G.G.G.G.A._ d 6 6 8 D H %.d.h.g.i.g.k.k.k.h.j.g.0.9.R.G.G.G.G.G.G.G.G.G.G.G.G.G.G.G.G.G.G.G.G.G.",
"G.E.E.G.G.G.G.G.G.E.E.G.G.G.G.G.G.G.G.G.G.c.z.b.M.f , G 4.Q.Q.Q.l.k.k.k.k.j.h.k.3.i ] G.G.G.G.G.G.G.G.G.G.G.G.G.G.G.G.G.G.G.G.G.",
"G.G.G.G.G.G.G.G.G.G.G.G.G.G.G.G.G.G.G.G.G.G.G.G.G.` 7 #.f.Q.Q.Q.Q.h.g.h.h.h.h.j.:.o l G.G.G.G.G.G.G.G.G.G.G.G.G.G.G.G.G.G.G.G.G.",
"G.G.G.G.G.G.G.G.G.G.G.G.G.G.G.G.G.G.G.G.G.G.G.G.G.n.i $.f.Q.Q.Q.Q.i.u.u.h.h.h.j.:.` ' G.G.G.G.G.G.G.G.G.A.G.G.G.G.G.G.G.G.G.G.G.",
"G.G.G.G.G.G.G.G.G.G.G.G.G.G.G.G.G.G.G.G.G.G.G.G.S.A.;.#.4.Q.Q.Q.l.i.t.u.h.h.h.y.a.G.V.G.G.G.G.G.G.G.G.G.G.G.G.G.G.G.G.G.G.G.G.G.",
"G.G.G.G.G.G.G.G.G.G.G.G.G.G.G.G.G.G.G.G.G.G.G.G.G.S.P.@.%.d.k.g.i.u.u.q.q.q.q.9.8.G.G.G.G.G.G.G.G.G.G.G.G.G.G.G.G.G.G.G.G.G.G.G."
};
