/* XPM */
static char *wall_1[] = {
/* columns rows colors chars-per-pixel */
"64 64 174 2 ",
"   c #150606",
".  c #180706",
"X  c #1C0907",
"o  c #1D0908",
"O  c #210A08",
"+  c #2C0E0B",
"@  c #2F100C",
"#  c #3D1206",
"$  c #31110D",
"%  c #39140E",
"&  c #2B1914",
"*  c #1D231B",
"=  c #22241D",
"-  c #39291E",
";  c #2F2920",
":  c #38392C",
">  c #293F31",
",  c #470F05",
"<  c #44180E",
"1  c #49190C",
"2  c #54150A",
"3  c #5B1908",
"4  c #601606",
"5  c #65170A",
"6  c #741A06",
"7  c #4F2013",
"8  c #552414",
"9  c #582615",
"0  c #532D1F",
"q  c #582F1E",
"w  c #6D2F09",
"e  c #6F2B10",
"r  c #7E3712",
"t  c #573423",
"y  c #632E21",
"u  c #2E4B3A",
"i  c #314133",
"p  c #3B4737",
"a  c #424838",
"s  c #554534",
"d  c #614837",
"f  c #365846",
"g  c #3D614C",
"h  c #3C6A54",
"j  c #59664F",
"k  c #45745C",
"l  c #48755D",
"z  c #5B785D",
"x  c #6B624A",
"c  c #676B52",
"v  c #687158",
"b  c #6E795E",
"n  c #707A57",
"m  c #467D63",
"M  c #4A7C63",
"N  c #527C62",
"B  c #697B60",
"V  c #842707",
"C  c #962906",
"Z  c #9F3309",
"A  c #A32202",
"S  c #A72B04",
"D  c #AE3305",
"F  c #B23304",
"G  c #BE3904",
"H  c #C03502",
"J  c #C33B03",
"K  c #934C15",
"L  c #9F5B19",
"P  c #A9460B",
"I  c #A9490D",
"U  c #BC5A11",
"Y  c #9B6728",
"T  c #AE6535",
"R  c #C84607",
"E  c #CA570C",
"W  c #D45F0C",
"Q  c #D6620E",
"!  c #D9650E",
"~  c #D66912",
"^  c #DB6E12",
"/  c #C77319",
"(  c #DF7211",
")  c #DA7518",
"_  c #D8781C",
"`  c #E27B16",
"'  c #E37C16",
"]  c #CD6221",
"[  c #D76D2F",
"{  c #D6743F",
"}  c #856241",
"|  c #B17A59",
" . c #4C8469",
".. c #54876B",
"X. c #5E866A",
"o. c #518E71",
"O. c #549375",
"+. c #5B9E7E",
"@. c #778565",
"#. c #638B77",
"$. c #669878",
"%. c #759172",
"&. c #E4881D",
"*. c #E9901E",
"=. c #CB8B2D",
"-. c #E59326",
";. c #EB9521",
":. c #EC9A24",
">. c #D3AA3B",
",. c #EEA42A",
"<. c #F1A529",
"1. c #F0AA2D",
"2. c #EDA631",
"3. c #EEAC30",
"4. c #F1AC31",
"5. c #F2B132",
"6. c #F5BA39",
"7. c #F7C43B",
"8. c #F8C73D",
"9. c #F9CC3F",
"0. c #AB8564",
"q. c #B39169",
"w. c #C8975B",
"e. c #E08F48",
"r. c #CAA361",
"t. c #CFB274",
"y. c #EECD45",
"u. c #FACE41",
"i. c #F8C945",
"p. c #FCD345",
"a. c #FDD847",
"s. c #FDD94C",
"d. c #FCD856",
"f. c #FCDC68",
"g. c #F6C870",
"h. c #F9D477",
"j. c #FFE46C",
"k. c #FEE274",
"l. c #FEE67D",
"z. c #5DA483",
"x. c #5FA987",
"c. c #40B088",
"v. c #6BA684",
"b. c #67A987",
"n. c #69AA87",
"m. c #67AA88",
"M. c #63AD8A",
"N. c #66B28E",
"B. c #66B692",
"V. c #6DBC96",
"C. c #6CBF99",
"Z. c #76BD97",
"A. c #6FC59D",
"S. c #74C79E",
"D. c #70C8A0",
"F. c #A7B584",
"G. c #A6BE88",
"H. c #88D8B8",
"J. c #F6CE82",
"K. c #FADC94",
"L. c #FCE383",
"P. c #FFE983",
"I. c #FEE889",
"U. c #FBE395",
"Y. c #FFEEA2",
"T. c #FFF1A4",
"R. c #FFF1AD",
"E. c #FCEAB5",
"W. c #FFF1B2",
"Q. c #FFF3BA",
"!. c #A0E0C0",
"~. c #FFF4C1",
"^. c #FFF8D5",
"/. c #FFFAE5",
/* pixels */
"D.D.D.D.D.D.D.D.D.D.D.D.D.D.D.D.D.D.D.D.D.D.D.D.D.D.D.D.D.D.D.D.D.D.D.D.D.D.D.D.D.D.D.D.D.D.D.D.D.D.D.D.D.D.D.D.D.D.D.D.D.D.D.D.",
"D.D.D.D.D.D.D.D.D.D.D.D.D.D.D.D.D.D.D.D.D.D.D.D.D.D.D.D.D.D.D.D.D.D.D.D.D.D.D.D.D.D.D.D.D.D.D.D.D.D.D.D.D.D.D.D.D.D.D.D.D.D.D.D.",
"D.D.D.D.D.D.D.D.D.D.D.D.D.D.D.D.D.D.D.D.D.D.D.D.D.D.D.D.D.D.D.D.D.D.D.D.D.D.D.D.D.D.D.D.D.D.D.D.D.D.D.D.D.D.D.D.D.D.D.D.D.D.D.D.",
"D.D.D.D.D.D.D.D.D.D.D.D.D.D.D.D.D.D.D.D.D.D.D.D.D.D.D.D.D.D.D.D.D.D.D.D.D.D.D.D.D.D.D.D.D.D.D.D.D.D.D.D.D.D.D.D.D.D.D.D.D.D.D.D.",
"D.D.D.D.D.D.D.D.D.D.D.D.D.D.D.D.D.D.D.D.D.D.D.D.D.D.D.D.D.D.D.D.D.D.D.D.D.D.D.D.D.D.D.D.D.D.D.D.D.D.D.D.D.D.D.D.D.D.D.D.D.D.D.D.",
"D.D.D.D.D.D.D.D.D.D.!.!.D.D.D.D.D.D.D.D.D.D.D.D.D.D.D.D.D.D.D.D.D.D.D.D.D.D.D.D.D.D.D.D.D.D.D.D.D.D.D.D.D.D.D.D.D.D.D.D.D.D.D.D.",
"D.D.D.D.D.D.D.D.D.D.!.!.D.D.D.D.D.D.D.D.D.D.D.D.D.D.D.D.D.D.D.D.D.D.D.D.D.D.D.D.D.D.D.D.D.D.D.D.D.D.D.D.D.D.D.D.D.D.D.D.D.D.D.D.",
"D.D.D.D.!.!.D.D.D.D.!.!.D.D.D.D.!.!.D.D.D.D.D.D.D.D.D.D.D.D.D.D.D.D.D.D.D.D.D.D.D.D.D.D.D.D.D.D.D.D.D.D.D.D.D.D.D.D.D.D.D.D.D.D.",
"D.D.D.D.!.!.D.D.D.D.!.!.D.D.D.D.!.!.D.D.D.D.D.D.D.D.D.D.D.D.D.D.D.D.D.D.D.D.A.D.D.D.D.D.D.D.D.D.D.D.D.D.D.D.D.D.D.D.D.D.D.D.D.D.",
"D.D.D.D.D.D.!.!.D.D.D.D.D.D.!.!.D.D.D.D.D.D.D.D.D.D.D.D.D.D.D.D.D.D.D.D.D.A.A.D.D.D.D.D.D.D.D.D.D.D.D.D.D.D.D.D.D.D.D.D.D.D.D.D.",
"D.D.D.D.D.D.!.!.D.D.D.D.D.D.!.!.D.D.D.D.D.D.D.D.D.D.D.D.D.D.D.D.D.D.D.D.D.D.D.D.D.D.D.D.D.D.D.D.D.D.D.D.D.D.D.D.D.D.D.D.D.D.D.D.",
"D.D.D.D.D.D.D.D.D.D.D.D.D.D.D.D.D.D.D.D.D.D.D.D.D.D.D.D.D.D.D.D.D.D.D.D.D.D.D.D.D.D.D.D.D.D.D.D.D.D.D.D.D.D.D.D.D.D.D.D.D.D.D.D.",
"D.D.D.D.D.D.D.D.D.D.D.D.D.D.D.D.D.D.D.D.D.D.D.D.D.D.D.D.D.D.D.D.D.D.D.D.D.D.D.D.D.D.D.D.D.D.D.D.D.D.D.D.D.D.D.D.D.D.D.D.D.D.D.D.",
"D.D.D.D.D.D.D.D.D.D.D.D.D.D.D.D.D.D.D.D.D.D.D.D.D.D.D.D.D.D.D.D.D.D.D.D.D.D.D.D.D.D.D.D.D.D.D.D.D.D.D.D.D.D.D.D.D.D.D.D.D.D.D.D.",
"D.D.D.D.D.D.D.D.D.D.D.D.D.D.D.D.D.D.D.D.D.D.D.D.D.D.D.D.D.D.D.D.D.D.D.D.D.D.D.D.D.D.D.D.D.D.D.D.D.D.D.D.D.D.D.D.D.D.D.D.D.D.D.D.",
"D.D.D.D.D.D.D.D.D.D.D.D.D.D.D.D.D.D.D.D.D.D.D.D.D.D.D.D.D.D.D.D.D.D.D.D.D.D.D.D.D.D.D.D.D.D.D.D.D.D.D.D.D.D.D.D.D.D.D.D.D.D.D.D.",
"D.D.D.D.D.D.D.D.D.D.D.D.D.D.D.D.D.D.D.D.D.D.D.D.D.D.D.D.D.D.D.D.D.D.D.D.D.D.D.D.D.D.D.D.D.D.D.D.D.D.D.D.D.D.D.D.D.D.D.D.D.D.D.D.",
"D.D.D.D.D.D.D.D.D.D.D.D.D.D.D.D.D.D.D.D.D.D.D.D.D.D.D.D.D.D.D.D.D.D.D.D.D.D.D.D.D.D.D.D.D.D.D.D.D.D.D.D.D.D.D.D.D.D.D.D.D.D.D.D.",
"D.D.D.D.D.D.D.D.D.D.D.D.D.D.D.D.D.D.D.D.D.D.D.c.c.D.D.D.D.D.D.D.D.D.D.D.D.D.D.D.D.D.D.D.D.D.D.D.D.D.D.D.D.D.D.D.D.D.D.D.D.D.D.D.",
"D.D.D.D.D.D.D.D.D.D.D.D.D.D.D.D.D.D.D.D.D.D.D.c.c.D.D.D.D.D.D.D.D.D.D.D.D.D.D.D.D.D.D.D.D.D.D.D.D.D.D.D.D.D.D.D.D.D.D.D.D.D.D.D.",
"D.D.D.D.D.D.D.D.D.D.D.D.D.D.D.D.D.c.c.D.D.D.D.c.c.D.D.D.D.c.c.D.D.D.D.D.D.D.D.D.D.D.D.D.D.D.D.D.D.D.D.D.D.D.D.D.D.D.D.D.D.D.D.D.",
"D.D.D.D.D.D.D.D.D.D.D.D.D.D.D.D.D.c.c.D.D.D.D.c.c.D.D.D.D.c.c.D.D.D.D.D.D.D.D.D.D.D.D.D.D.D.D.D.D.D.D.D.D.D.D.D.D.D.D.D.D.D.D.D.",
"D.D.D.D.D.D.D.D.D.D.D.D.D.D.D.D.D.D.D.c.c.D.D.D.D.D.D.c.c.D.D.D.D.D.D.D.D.D.D.D.D.D.D.D.D.D.D.D.D.D.D.D.D.D.D.D.D.c.c.D.D.D.D.D.",
"D.D.D.D.D.D.D.D.D.D.D.D.D.D.D.D.D.D.D.c.c.D.D.D.D.D.D.c.c.D.D.D.D.D.D.D.D.D.D.D.D.D.D.D.D.D.D.D.D.D.D.D.D.D.D.D.D.c.c.D.D.D.D.D.",
"c.D.D.D.D.D.D.D.D.D.D.D.D.D.D.D.D.D.D.D.D.D.D.D.D.D.D.D.D.D.D.D.D.D.V.v.v.Z.D.D.D.D.D.D.D.D.D.D.D.D.D.c.c.D.D.D.D.c.c.D.D.D.D.c.",
"c.D.D.D.D.D.D.D.D.D.D.D.D.D.D.D.D.D.D.D.D.D.D.D.D.D.D.D.D.D.D.D.D.D.v.5 5 v A.D.D.D.D.D.D.D.D.D.D.D.D.c.c.D.D.D.D.c.c.D.D.D.D.c.",
"D.D.D.D.D.D.D.D.D.D.D.D.D.D.D.D.D.D.D.D.D.D.D.D.D.D.D.D.D.D.D.D.D.D.n.5 5 v A.S.D.D.D.D.D.D.D.D.D.D.D.D.D.c.c.D.D.D.D.D.D.c.c.D.",
"D.D.D.D.D.D.D.D.D.D.D.D.D.D.D.D.D.D.D.D.D.D.D.D.D.D.D.D.D.D.D.D.D.D.C.v v V.D.A.D.D.D.D.D.D.D.D.D.D.D.D.D.c.c.D.D.D.D.D.D.c.c.D.",
"D.D.D.D.D.D.D.D.D.D.D.D.D.D.D.D.D.D.D.D.A.D.D.D.D.D.D.D.D.D.D.D.D.D.A.A.A.D.D.D.D.D.D.D.D.D.D.D.D.D.D.D.D.D.D.D.D.D.D.D.D.D.D.D.",
"D.D.D.D.D.D.D.D.D.D.D.D.D.D.D.D.D.D.D.A.D.D.D.D.D.D.D.D.D.D.A.A.D.D.D.D.S.D.D.D.D.D.D.D.D.D.D.D.D.D.D.D.D.D.D.D.D.D.D.D.D.D.D.D.",
"D.D.D.D.D.D.D.D.D.D.D.D.D.D.D.D.D.D.D.D.D.D.D.D.D.D.D.A.B.D.D.A.x.z.N.!.!.D.D.D.D.D.D.D.D.D.D.D.D.D.D.D.D.D.D.D.D.D.D.D.D.D.D.D.",
"D.D.D.D.D.D.D.D.D.D.D.D.D.D.D.D.D.D.D.D.D.D.D.D.D.D.D.A.O.z.z.z.* ; ..!.!.D.D.D.D.D.D.D.D.D.D.D.D.D.D.D.D.D.D.D.D.D.D.D.D.D.D.D.",
"D.D.D.D.D.D.D.D.D.D.D.D.D.D.D.D.D.D.D.D.D.D.D.D.D.D.D.A.m = $.m.* +.S.H.!.D.D.D.D.!.!.D.D.D.D.D.D.D.D.D.D.D.D.D.D.D.D.D.D.D.D.D.",
"D.D.D.D.D.D.D.D.D.D.D.D.D.D.D.D.D.D.D.D.D.D.D.D.D.D.D.D.z.  X.l g V.D.!.!.D.D.D.D.!.!.D.D.D.D.D.D.D.D.D.D.D.D.D.D.D.D.D.D.D.D.D.",
"D.D.D.D.D.D.D.D.D.D.D.D.D.D.D.D.D.D.D.D.D.D.D.D.D.D.D.C.f   = & #.D.D.D.D.D.D.!.!.D.D.D.D.D.D.D.D.D.D.D.D.D.D.D.D.D.D.D.D.D.D.D.",
"D.D.D.D.D.D.D.D.D.D.D.D.D.D.D.D.D.D.D.D.D.D.D.D.D.D.A.B.>   O O #.D.D.D.D.D.D.!.!.D.D.D.D.D.D.D.D.D.D.D.D.D.D.D.D.D.D.D.D.D.D.D.",
"D.D.D.D.D.D.D.D.D.D.D.D.D.D.D.D.D.D.D.D.D.D.D.D.D.D.D. .    o + M D.D.D.D.D.D.D.D.D.D.D.D.D.D.D.D.D.D.D.D.D.D.D.D.D.D.D.D.D.D.D.",
"D.D.D.D.D.D.D.D.D.D.D.D.D.D.D.D.D.D.D.D.D.D.D.D.D.D.A.m     o @ M D.n.B v.D.D.D.D.D.D.D.D.D.D.D.D.D.D.D.D.D.D.D.D.D.D.D.D.D.D.D.",
"D.D.D.D.D.D.D.D.D.D.D.D.D.D.D.D.D.D.D.D.D.D.D.D.D.D.D.m     + @ M N.d 5 x Z.D.D.D.D.D.D.D.D.D.D.D.D.D.D.D.D.D.D.D.D.D.D.D.D.D.D.",
"D.D.D.D.D.D.D.D.D.D.D.D.D.D.D.D.D.D.D.D.D.D.D.D.D.A.A.m     + & f u 0 y v Z.D.D.D.D.D.D.D.D.D.D.D.D.D.D.D.D.D.D.D.D.D.D.D.D.D.D.",
"D.D.D.D.D.D.A.D.D.D.D.D.D.D.D.D.D.D.D.D.D.D.D.D.D.D.x.*     @ : M # x %.C.D.D.D.D.D.D.D.D.D.D.D.D.D.D.D.D.D.D.D.D.D.D.D.D.D.D.D.",
"D.D.D.D.D.A.A.D.D.D.D.D.D.D.D.D.D.D.D.D.D.D.D.D.D.D.z.o . o @ % V F J | Z.D.D.D.D.D.D.D.D.D.D.D.D.D.D.D.D.D.D.D.D.D.D.D.D.D.D.D.",
"D.D.D.D.D.D.D.D.D.D.D.D.D.D.D.D.D.D.D.D.D.D.D.D.D.D.x.o o @ $ 3 J J J J 0.D.D.D.D.D.D.D.D.D.D.D.D.D.D.D.D.D.D.D.D.D.D.D.D.D.D.D.",
"D.D.D.D.D.D.D.D.D.D.D.D.D.D.D.D.D.D.D.D.D.D.D.D.D.A.k o O $ $ C J J J J 0.D.D.D.D.D.D.A.X.X.A.D.D.D.D.D.D.D.D.D.D.D.D.D.D.D.D.D.",
"D.D.D.D.D.D.D.D.D.D.D.D.D.D.D.D.D.D.D.D.D.D.D.D.D.C.i o O $ $ w J J J J 0.D.D.D.D.D.D.C.s t C.D.D.D.D.D.D.D.D.D.D.D.D.D.D.D.D.D.",
"D.D.D.D.D.D.D.D.D.D.D.D.D.D.D.D.D.D.D.D.D.D.D.D.D.O.& o X + $ $ C J H F b D.C.D.D.D.D.D.M.N.A.D.D.D.D.D.D.D.D.D.D.D.D.D.D.D.D.D.",
"D.D.D.D.D.D.D.D.D.D.D.D.D.D.D.D.D.D.D.D.D.D.D.D.b.& O O O $ @ < D G G V -  .x.D.D.D.D.D.D.D.D.D.D.D.D.D.D.D.D.D.D.D.D.D.D.D.D.D.",
"D.D.D.D.D.D.D.D.D.D.D.D.D.D.D.D.D.D.D.D.D.D.D.A.l + + 2 6 V 6 V G G H F < : V.D.D.D.D.D.D.D.D.D.D.D.D.D.D.D.D.D.D.D.D.D.D.D.D.D.",
"D.D.D.D.D.D.D.D.D.D.D.D.D.D.D.D.D.D.D.D.D.D.D.D.M.p 2 C A A G ~ ' Q R F 2 2 k V.D.D.D.D.D.D.D.D.D.D.D.D.D.D.D.D.D.D.D.D.D.D.D.D.",
"D.D.D.D.D.D.D.D.D.D.D.D.D.D.D.D.D.D.D.D.D.D.D.D.B.o.t S E E ~ Q ( ( ! E C A 4 z.D.D.D.D.D.D.D.D.D.D.D.D.D.D.D.D.D.D.D.D.D.D.D.D.",
"D.D.D.D.D.D.D.D.D.D.D.D.D.D.D.D.D.D.D.D.D.D.D.D.B.h , E ` ` ! ^ ' ' *.;.) F 6 o.D.D.D.D.D.D.D.D.D.D.D.D.D.D.D.c.c.D.D.D.D.D.D.D.",
"D.D.D.D.D.D.D.D.D.D.D.D.D.D.D.D.D.D.D.D.D.D.D.D.z.w P ! ' ;.:.:.;.,.1.5.1.-.L p Z.D.D.D.D.D.D.D.D.D.D.D.D.D.D.c.c.D.D.D.D.D.D.D.",
"D.D.D.D.D.D.D.D.D.D.D.D.D.D.D.D.D.D.D.D.D.D.A.S.} W Q ( ;.;.;.;.:.1.5.5.5.5.3._ w.G.D.D.D.D.D.D.D.c.c.D.D.D.D.c.c.D.D.D.D.c.c.D.",
"D.D.D.D.D.D.D.D.D.D.D.D.D.D.D.D.D.D.D.D.D.D.M.z ] W Q ^ ;.,.,.:.,.5.4.5.5.g.6.:.:.2.t.D.D.D.D.D.D.c.c.D.D.D.D.c.c.D.D.D.D.c.c.D.",
"D.D.D.D.D.H.H.D.D.D.D.D.D.D.D.D.D.D.D.D.D.M.a < I Q W ' 6.u.p.d.s.p.1.4.J.g.4.1.,.,.2.G.D.D.D.D.D.D.D.c.c.D.D.D.D.D.D.c.c.D.D.D.",
"D.D.D.D.D.H.H.D.D.D.D.D.D.D.D.D.D.D.D.D.D.N % % 1 I _ u.p.d.f.j.j.d.7.h.h.6.5.4.,.2.2.G.D.D.D.D.D.D.D.c.c.D.D.D.D.D.D.c.c.D.D.D.",
"H.D.D.D.D.H.H.D.D.D.D.H.H.D.D.D.D.D.D.c.c.+.M N ..s =.s.d.k.P.l.f.a.a.s.s.u.8.6.,.:.r.D.D.D.D.D.D.D.D.D.D.D.D.D.D.D.D.D.D.D.D.H.",
"H.D.D.D.D.H.H.D.D.D.D.H.H.D.D.D.D.D.D.c.c.S.D.D.S.n y.k.Y.Y.Y.Y.k.a.s.s.s.9.8.9.2.~ q.D.D.D.D.D.D.D.D.D.D.D.D.D.D.D.D.D.D.D.D.H.",
"D.H.H.D.D.D.D.D.D.H.H.D.D.D.D.D.D.D.D.D.D.c.c.D.A.@.>.I.Y.Y.Y.Y.Y.l.L.Y.I.i.7.p.4.w.Z.D.D.D.D.D.D.D.D.D.D.D.D.D.D.D.D.D.D.D.D.D.",
"D.H.H.D.D.D.D.D.D.H.H.D.D.D.D.D.D.D.D.D.D.c.c.D.A.b Y L.Y.Y.Y.Y.Y.R.Q.~.Q.L.8.9.5.F.D.D.D.D.D.D.D.D.D.D.D.D.D.D.D.D.D.D.D.D.D.D.",
"D.D.D.D.D.D.D.D.D.D.D.D.D.D.D.D.D.D.D.D.D.D.A.A.$.q e t.T.Y.Y.Y.Y.W.Q.~.~.Y.i.5.*.F.D.D.D.D.D.D.D.D.D.D.A.D.D.D.D.D.D.D.D.D.D.D.",
"D.D.D.D.D.D.D.D.D.D.D.D.D.D.D.D.D.D.D.D.D.D.A.$.q 8 9 T K.Y.Y.Y.W.Q.Q.Q.~.L.7.<./ c $.D.D.D.D.D.D.D.D.D.A.D.D.D.D.D.D.D.D.D.D.D.",
"D.D.D.D.D.D.D.D.D.D.D.D.D.D.D.D.D.D.D.D.D.D.m.t 9 9 9 Z [ K.R.W.Q.Q.Q.Q.Q.f.4.&.K 7 0 b.D.D.D.D.D.D.D.D.D.D.D.D.D.D.D.D.D.D.D.D.",
"D.D.D.D.D.D.D.D.D.D.D.D.D.D.D.D.D.D.D.D.D.D.m.9 9 9 9 Z J { E.^././.^.U.e._ U r 8 7 j V.D.D.D.D.D.D.D.D.D.D.D.D.D.D.D.D.D.D.D.D."
};
