/* XPM */
static char *wall_3[] = {
/* columns rows colors chars-per-pixel */
"64 64 169 2 ",
"   c #170606",
".  c #180707",
"X  c #1C0907",
"o  c #1E0908",
"O  c #1B130F",
"+  c #250C09",
"@  c #2A0D0B",
"#  c #320F09",
"$  c #35120D",
"%  c #3C130D",
"&  c #2B1612",
"*  c #321C14",
"=  c #3A1A14",
"-  c #1E231B",
";  c #29261D",
":  c #2B2A23",
">  c #332A20",
",  c #2B382C",
"<  c #3A3126",
"1  c #45140B",
"2  c #42150E",
"3  c #4A1A0C",
"4  c #451A11",
"5  c #681C09",
"6  c #7B1C05",
"7  c #5D210E",
"8  c #49291D",
"9  c #572614",
"0  c #6A260B",
"q  c #6B2D0F",
"w  c #73300C",
"e  c #772D17",
"r  c #69351A",
"t  c #783111",
"y  c #5F392A",
"u  c #2A4334",
"i  c #2D4A3A",
"p  c #35483A",
"a  c #494535",
"s  c #454D3C",
"d  c #564937",
"f  c #7D4430",
"g  c #755030",
"h  c #325341",
"j  c #3A644F",
"k  c #445846",
"l  c #4B634E",
"z  c #44735B",
"x  c #49755D",
"c  c #52725A",
"v  c #467C62",
"b  c #487D63",
"n  c #547762",
"m  c #831E06",
"M  c #9C2103",
"N  c #9B3408",
"B  c #A12203",
"V  c #AD2401",
"C  c #A12E06",
"Z  c #B52804",
"A  c #BC2D01",
"S  c #B03907",
"D  c #9D3B25",
"F  c #C03502",
"G  c #934117",
"H  c #8A541F",
"J  c #AD400D",
"K  c #AD4813",
"L  c #B95839",
"P  c #A36530",
"I  c #BF603A",
"U  c #C84706",
"Y  c #C9570C",
"T  c #D45C0C",
"R  c #CB5B13",
"E  c #D25F10",
"W  c #D9640D",
"Q  c #DA690E",
"!  c #DC6C10",
"~  c #DB7518",
"^  c #E1720E",
"/  c #E17411",
"(  c #E27B17",
")  c #DE7E22",
"_  c #907A5E",
"`  c #4C866A",
"'  c #588166",
"]  c #53866A",
"[  c #588469",
"{  c #538E71",
"}  c #549375",
"|  c #5A9577",
" . c #5A9D7D",
".. c #729576",
"X. c #5AA07F",
"o. c #E68217",
"O. c #E4841B",
"+. c #E98E1C",
"@. c #EA901F",
"#. c #C9902D",
"$. c #E48728",
"%. c #E79223",
"&. c #EB9522",
"*. c #EC9A24",
"=. c #EEA42B",
"-. c #F1AC2F",
";. c #E9AE33",
":. c #F3B433",
">. c #F5B936",
",. c #F5BD3A",
"<. c #F8C63C",
"1. c #988668",
"2. c #A58465",
"3. c #BF9C69",
"4. c #AF9970",
"5. c #B49C7B",
"6. c #9FB27C",
"7. c #D39B58",
"8. c #ECA14B",
"9. c #C49863",
"0. c #DE996E",
"q. c #FACE41",
"w. c #FCD343",
"e. c #FFDD4A",
"r. c #F7C859",
"t. c #FEDD56",
"y. c #FDDB59",
"u. c #FFE04C",
"i. c #EDCD67",
"p. c #F7CA62",
"a. c #FCDE75",
"s. c #FFE571",
"d. c #40AE86",
"f. c #5DA584",
"g. c #5FA987",
"h. c #40B088",
"j. c #62A987",
"k. c #66A886",
"l. c #62AD8A",
"z. c #66B591",
"x. c #6BBD97",
"c. c #6CBF99",
"v. c #79BD96",
"b. c #6EC49D",
"n. c #73C79F",
"m. c #70C8A0",
"M. c #87B48F",
"N. c #9FB689",
"B. c #85BA9F",
"V. c #BAAE85",
"C. c #D0BD8F",
"Z. c #A2C195",
"A. c #88D8B8",
"S. c #DBC39B",
"D. c #FADC8F",
"F. c #F8D697",
"G. c #FDE79A",
"H. c #FFEEA5",
"J. c #FEECA8",
"K. c #FFF1A6",
"L. c #EFE2B4",
"P. c #FDEFBE",
"I. c #FFF1B6",
"U. c #FFF3BC",
"Y. c #A0E0C0",
"T. c #FFF4C4",
"R. c #FFF9C6",
"E. c #FFF5CA",
"W. c #FFF7D1",
/* pixels */
"m.m.m.m.m.m.m.m.m.m.m.m.m.m.m.m.m.m.m.m.m.m.m.m.m.m.m.m.m.m.m.m.m.m.m.m.m.m.m.m.m.m.m.m.m.m.m.m.m.m.m.m.m.m.m.m.m.m.m.m.m.m.m.m.",
"m.m.m.m.m.m.m.m.m.m.m.m.m.m.m.m.m.m.m.m.m.m.m.m.m.m.m.m.m.m.m.m.m.m.m.m.m.m.m.m.m.m.m.m.m.m.m.m.m.m.m.m.m.m.m.m.m.m.m.m.m.m.m.m.",
"m.m.m.m.m.m.m.m.m.m.m.m.m.m.m.m.m.m.m.m.m.m.m.m.m.m.m.m.m.m.m.m.m.m.m.m.m.m.m.m.m.m.m.m.m.m.m.m.m.m.m.m.m.m.m.m.m.m.m.m.m.m.m.m.",
"m.m.m.m.m.m.m.m.m.m.m.m.m.m.m.m.m.m.m.m.m.m.m.m.m.m.m.m.m.m.m.m.m.m.m.m.m.m.m.m.m.m.m.m.m.m.m.m.m.m.m.m.m.m.m.m.m.m.m.m.m.m.m.m.",
"m.m.m.m.m.m.m.m.m.m.m.m.m.m.m.m.m.m.m.m.m.m.m.m.m.m.m.m.m.m.m.m.m.m.m.m.m.m.m.m.m.m.m.m.m.m.m.m.m.m.m.m.m.m.m.m.m.m.m.m.m.m.m.m.",
"m.m.m.m.m.m.m.m.m.m.Y.Y.m.m.m.m.m.m.m.m.m.m.m.m.m.m.m.m.m.m.m.m.m.m.m.m.m.m.m.m.m.m.m.m.m.m.m.m.m.m.m.m.m.m.m.m.m.m.m.m.m.m.m.m.",
"m.m.m.m.m.m.m.m.m.m.Y.Y.m.m.m.m.m.m.m.m.m.m.m.m.m.m.m.m.m.m.m.m.m.m.m.m.m.m.m.m.m.m.m.m.m.m.m.m.m.m.m.m.m.m.m.m.m.m.m.m.m.m.m.m.",
"m.m.m.m.Y.Y.m.m.m.m.Y.Y.m.m.m.m.Y.Y.m.m.m.m.m.m.m.m.m.m.m.m.m.m.m.m.m.m.m.m.m.m.m.m.m.m.m.m.m.m.m.m.m.m.m.m.m.m.m.m.m.m.m.m.m.m.",
"m.m.m.m.Y.Y.m.m.m.m.Y.Y.m.m.m.m.Y.Y.m.m.m.m.m.m.m.m.m.m.m.m.m.m.m.m.m.m.m.m.m.m.m.m.m.m.m.m.m.m.m.m.m.m.m.m.m.m.m.m.m.m.m.m.m.m.",
"m.m.m.m.m.m.Y.Y.m.m.m.m.m.m.Y.Y.m.m.m.m.m.m.m.m.m.m.m.m.m.m.m.m.m.m.m.m.m.b.b.m.m.m.m.m.m.m.m.m.m.m.m.m.m.m.m.m.m.m.m.m.m.m.m.m.",
"m.m.m.m.m.m.Y.Y.m.m.m.m.m.m.Y.Y.m.m.m.m.m.m.m.m.m.m.m.m.m.m.m.m.m.m.m.m.m.m.m.m.m.m.m.m.m.m.m.m.m.m.m.m.m.m.m.m.m.m.m.m.m.m.m.m.",
"m.m.m.m.m.m.m.m.m.m.m.m.m.m.m.m.m.m.m.m.m.m.m.m.m.m.m.m.m.m.m.m.m.m.m.m.m.m.m.m.m.m.m.m.m.m.m.m.m.m.m.m.m.m.m.m.m.m.m.m.m.m.m.m.",
"m.m.m.m.m.m.m.m.m.m.m.m.m.m.m.m.m.m.m.m.m.m.m.m.m.m.m.m.m.m.m.m.m.m.m.m.m.m.m.m.m.m.m.m.m.m.m.m.m.m.m.m.m.m.m.m.m.m.m.m.m.m.m.m.",
"m.m.m.m.m.m.m.m.m.m.m.m.m.m.m.m.m.m.m.m.m.m.m.m.m.m.m.m.m.m.m.m.m.m.m.m.m.m.m.m.m.m.m.m.m.m.m.m.m.m.m.m.m.m.m.m.m.m.m.m.m.m.m.m.",
"m.m.m.m.m.m.m.m.m.m.m.m.m.m.m.m.m.m.m.m.m.m.m.m.m.m.m.m.m.m.m.m.m.m.m.m.m.m.m.m.m.m.m.m.m.m.m.m.m.m.m.m.m.m.m.m.m.m.m.m.m.m.m.m.",
"m.m.m.m.m.m.m.m.m.m.m.m.m.m.m.m.m.m.m.m.m.m.m.m.m.m.m.m.m.m.m.m.m.m.m.m.m.m.m.m.m.m.m.m.m.m.m.m.m.m.m.m.m.m.m.m.m.m.m.m.m.m.m.m.",
"m.m.m.m.m.m.m.m.m.m.m.m.m.m.m.m.m.m.m.m.m.m.m.m.m.m.m.m.m.m.m.m.m.m.m.m.m.m.m.m.m.m.m.m.m.m.m.m.m.m.m.m.m.m.m.m.m.m.m.m.m.m.m.m.",
"m.m.m.m.m.m.m.m.m.m.m.m.m.m.m.m.m.m.m.m.m.m.m.m.m.m.m.m.m.m.m.m.m.m.m.m.m.m.m.m.m.m.m.m.m.m.m.m.m.m.m.m.m.m.m.m.m.m.m.m.m.m.m.m.",
"m.m.m.m.m.m.m.m.m.m.m.m.m.m.m.m.m.m.m.m.m.m.m.h.h.m.m.m.m.m.m.m.m.m.m.m.m.m.m.m.m.m.m.m.m.m.m.m.m.m.m.m.m.m.m.m.m.m.m.m.m.m.m.m.",
"m.m.m.m.m.m.m.m.m.m.m.m.m.m.m.m.m.m.m.m.m.m.m.h.h.m.m.m.m.m.m.m.m.m.m.m.m.m.m.m.m.m.m.m.m.m.m.m.m.m.m.m.m.m.m.m.m.m.m.m.m.m.m.m.",
"m.m.m.m.m.m.m.m.m.m.m.m.m.m.m.m.m.h.h.m.m.m.m.h.h.m.m.m.m.h.h.m.m.m.m.m.m.m.m.m.m.m.m.m.m.m.m.m.m.m.m.m.m.m.m.m.m.m.m.m.m.m.m.m.",
"m.m.m.m.m.m.m.m.m.m.m.m.m.m.m.m.m.h.h.m.m.m.m.h.h.m.m.m.m.h.h.m.m.m.b.n.x.n.m.m.m.m.m.m.m.m.m.m.m.m.m.m.m.m.m.m.m.m.m.m.m.m.m.m.",
"m.m.m.m.m.m.m.m.m.m.m.m.m.m.m.m.m.m.m.h.h.m.m.m.m.m.m.h.h.m.m.m.m.m.m.l.s | m.m.m.m.m.m.m.m.m.m.m.m.m.m.m.m.m.m.m.h.h.m.m.m.m.m.",
"m.m.m.m.m.m.m.m.m.m.m.m.m.m.m.m.m.m.m.h.h.m.m.m.m.m.m.h.h.m.m.m.m.m.m.[ % a b.m.m.m.m.m.m.m.m.m.m.m.m.m.m.m.m.m.m.h.h.m.m.m.m.m.",
"h.m.m.m.m.m.m.m.m.m.m.m.m.m.m.m.m.m.m.m.m.m.m.m.m.m.m.m.m.m.m.m.m.m.m.c.[ [ n.m.m.m.m.m.m.m.m.m.m.m.m.h.h.m.m.m.m.h.h.m.m.m.m.h.",
"h.m.m.m.m.m.m.m.m.m.m.m.m.m.m.m.m.m.m.m.m.m.m.m.m.m.m.m.m.m.m.m.m.m.m.m.m.m.m.m.m.m.m.m.m.m.m.m.m.m.m.h.h.m.m.m.m.h.h.m.m.m.m.h.",
"m.m.m.m.m.m.m.m.m.m.m.m.m.m.m.m.m.m.m.m.m.m.m.m.m.m.m.m.m.m.m.m.m.m.m.m.m.m.m.m.m.m.m.m.m.m.m.m.m.m.m.m.m.h.h.m.m.m.m.m.m.h.h.m.",
"m.m.m.m.m.m.m.m.m.m.m.m.m.m.m.m.m.m.m.m.m.m.m.m.m.m.m.m.m.m.m.m.m.m.m.m.m.m.m.m.m.m.m.m.m.m.m.m.m.m.m.m.m.h.h.m.m.m.m.m.m.h.h.m.",
"m.m.m.m.m.m.m.m.m.m.m.m.m.m.m.m.m.m.m.m.m.m.m.m.m.m.m.m.m.m.m.m.m.b.z.m.m.m.m.m.m.m.m.m.m.m.m.m.m.m.m.m.m.m.m.m.m.m.m.m.m.m.m.m.",
"m.m.m.m.m.m.m.m.m.m.m.m.m.m.m.m.m.m.m.b.b.m.m.m.m.m.b.m.m.m.m.b.z.l.z.b.m.m.m.m.m.m.m.m.m.m.m.m.m.m.m.m.m.m.m.m.m.m.m.m.m.m.m.m.",
"m.m.m.m.m.m.m.m.m.m.m.m.m.m.m.m.m.m.m.m.m.m.m.m.m.b.{ ` z.m.m.b.z.l.b.Y.Y.m.m.m.m.m.m.m.m.m.m.m.m.m.m.m.m.m.m.m.m.m.m.m.m.m.m.m.",
"m.m.m.m.m.m.m.m.m.m.m.m.m.m.m.m.m.m.m.m.m.m.m.m.m.b.u   i f.g. .h } b.Y.Y.m.m.m.m.m.m.m.m.m.m.m.m.m.m.m.m.m.m.m.m.m.m.m.m.m.m.m.",
"m.m.m.m.m.m.m.m.m.m.m.m.m.m.m.m.m.m.m.m.m.m.m.m.m.b.j . . p B.` o b b.Y.Y.m.m.m.m.Y.Y.m.m.m.m.m.m.m.m.m.m.m.m.m.m.m.m.m.m.m.m.m.",
"m.m.m.m.m.m.m.m.m.m.m.m.m.m.m.m.m.m.m.m.m.m.m.m.m.m.g.. . , B.x o f.m.Y.Y.m.m.m.m.Y.Y.m.m.m.m.m.m.m.m.m.m.m.m.m.m.m.m.m.m.m.m.m.",
"m.m.m.m.m.m.m.m.m.m.m.m.m.m.m.m.m.m.m.m.m.m.m.m.m.m.X.. . i X.: o f.m.m.m.m.m.Y.Y.m.m.m.m.m.m.m.m.m.m.m.m.m.m.m.m.m.m.m.m.m.m.m.",
"m.m.m.m.m.m.m.m.m.m.m.m.m.m.m.m.m.m.m.m.m.m.m.m.m.m.b.j . u | + n x.m.m.m.m.m.Y.Y.m.m.m.m.m.m.m.m.m.m.m.m.m.m.m.m.m.m.m.m.m.m.m.",
"m.m.m.m.m.m.m.m.m.m.m.m.m.m.m.m.m.m.m.m.m.m.m.m.m.m.m.`   O : + b b.j.j.l.m.m.m.m.m.m.m.m.m.m.m.m.m.m.m.m.m.m.m.m.m.m.m.m.m.m.m.",
"m.m.m.m.m.m.m.m.m.m.m.m.m.m.m.m.m.m.m.m.m.m.m.m.m.m.b.z   X @ + ` } * % n m.m.m.m.m.m.m.m.m.m.m.m.m.m.m.m.m.m.m.m.m.m.m.m.m.m.m.",
"m.m.m.m.m.m.m.m.m.m.m.m.m.m.m.m.m.m.m.m.m.m.m.m.b.n.g.-   o + p } ; @ =  .m.m.m.m.m.m.m.m.m.m.m.m.m.m.m.m.m.m.m.m.m.m.m.m.m.m.m.",
"m.m.m.m.m.m.m.m.m.m.m.m.m.m.m.m.m.m.m.m.m.m.m.m.m.n.f..   + + p ..6 6 f v.m.m.m.m.m.m.m.m.m.m.m.m.m.m.m.m.m.m.m.m.m.m.m.m.m.m.m.",
"m.m.m.m.m.b.m.m.m.m.m.m.m.m.m.m.m.m.m.m.m.m.m.m.m.m.g.    o + * D V V V 1.m.m.m.m.m.m.m.m.m.m.m.m.m.m.m.m.m.m.m.m.m.m.m.m.m.m.m.",
"m.m.m.m.m.m.m.m.m.m.m.m.m.m.m.m.m.m.m.m.m.m.m.m.m.m.g.  . + + $ B V V V _ b.m.m.m.m.m.m.m.x.m.m.m.m.m.m.m.m.m.m.m.m.m.m.m.m.m.m.",
"m.m.m.m.m.m.m.m.m.m.m.m.m.m.m.m.m.m.m.m.m.m.m.m.m.m.f.  o @ @ % B V V V e g.m.m.m.m.m.m.j.k c.m.m.m.m.m.m.m.m.m.m.m.m.m.m.m.m.m.",
"m.m.m.m.m.m.m.m.m.m.m.m.m.m.m.m.m.m.m.m.m.m.m.m.m.m.j   + $ $ % 6 B B M 1 f.m.m.m.m.m.m.x.k.m.m.m.m.m.m.m.m.m.m.m.m.m.m.m.m.m.m.",
"m.m.m.m.m.m.m.m.m.m.m.m.m.m.m.m.m.m.m.m.m.m.m.m.m.b.u - x s $ $ 2 4 1 # + f.m.m.m.m.m.m.m.m.m.m.m.m.m.m.m.m.m.m.m.m.m.m.m.m.m.m.",
"m.m.m.m.m.m.m.m.m.m.m.m.m.m.m.m.m.m.m.m.m.m.m.m.m.X., ` } s $ $ 2 4 1 + X  .m.m.m.m.m.m.m.m.m.m.m.m.m.m.m.m.m.m.m.m.m.m.m.m.m.m.",
"m.m.m.m.m.m.m.m.m.m.m.m.m.m.m.m.m.m.m.m.m.m.m.m.m.b.g.g.` 7 0 3 5 C S t 1 h x.m.m.m.m.m.m.m.m.m.m.m.m.m.m.m.m.m.m.m.m.m.m.m.m.m.",
"m.m.m.m.m.m.m.m.m.m.m.m.m.m.m.m.m.m.m.m.m.m.m.m.m.b.b...G Y W J S T T T Y a x.b.m.m.m.m.m.m.m.m.m.m.m.m.m.m.m.m.m.m.m.m.m.m.m.m.",
"m.m.m.m.m.m.m.m.m.m.m.m.m.m.m.m.m.m.m.m.m.m.m.m.m.n.n K W Q W W W T T T T f k.n.m.m.m.m.m.m.m.m.m.m.m.m.m.m.m.m.m.m.m.m.m.m.m.m.",
"m.m.m.m.m.m.m.m.m.m.m.m.m.m.m.m.m.m.m.m.m.m.m.m.m.m.M.R W W W W W W T ! ^ R _ n.m.V.C.3.B.m.m.m.m.m.m.m.m.m.m.m.m.m.m.m.m.m.m.m.",
"m.m.m.m.m.m.m.m.m.m.m.m.m.m.m.m.m.m.m.m.m.m.m.m.x.f.g W W E W W W W ( o.o.o.) N.Z.C.$./ 9.m.m.m.m.m.m.m.m.m.m.h.h.m.m.m.m.m.m.m.",
"m.m.m.m.m.m.m.m.m.m.m.m.m.m.m.m.m.m.m.m.m.m.m.x.z # w Q O.=.=.-.%.^ o.o.@.+.+.7.S.$.^ ( 9.m.m.m.m.m.m.m.m.m.m.h.h.m.m.m.m.m.m.m.",
"m.m.m.m.m.m.m.m.m.m.m.m.m.m.m.m.m.m.m.m.b.n.j.z % N ~ -.:.>.<.<.<.=.O.&.*.*.&.$.T ^ ^ ( 5.m.m.m.m.d.h.m.m.m.m.h.h.m.m.m.m.h.h.m.",
"m.m.m.m.m.m.m.m.m.m.m.m.m.m.m.m.m.m.m.m.l.v > @ 5 ~ >.,.>.>.>.<.<.<.=.&.&.&.*.%.F U U 5.n.m.m.m.m.h.h.m.m.m.m.h.h.m.m.m.m.h.h.m.",
"m.m.m.m.m.A.A.m.m.m.m.m.m.m.m.m.m.m.m.m.j.@ @ @ q =.,.:.>.>.>.>.<.<.-.-.-.*.*.*./ F L M.m.m.m.m.m.m.m.h.h.m.m.m.m.m.m.h.h.m.m.m.",
"m.m.m.m.m.A.A.m.m.m.m.m.m.m.m.m.m.m.m.m.x.x < & g ,.:.>.>.>.>.:.:.<.<.e.e.q.:.*.( F _ m.m.m.m.m.m.m.m.h.h.m.m.m.m.m.m.h.h.m.m.m.",
"A.m.m.m.m.A.A.m.m.m.m.A.A.m.m.m.m.m.m.h.h.b.j.] 6.>.>.>.>.>.:.r.a.t.e.e.e.u.q.*.E A _ m.m.m.m.m.m.m.m.m.m.m.m.m.m.m.m.m.m.m.m.A.",
"A.m.m.m.m.A.A.m.m.m.m.A.A.m.m.m.m.m.m.h.h.m.n.n.' #.>.>.>.,.D.P.E.H.y.t.t.e.u.%.A A 4.m.m.m.m.m.m.m.m.m.m.m.m.m.m.m.m.m.m.m.m.A.",
"m.A.A.m.m.m.m.m.m.A.A.m.m.m.m.m.m.m.m.m.m.h.h.c.d t ;.>.:.p.E.W.E.E.U.U.U.s.w.~ I 2.n.m.m.m.m.m.m.m.m.m.m.m.m.m.m.m.m.m.m.m.m.m.",
"m.A.A.m.m.m.m.m.m.A.A.m.m.m.m.m.m.m.m.m.m.h.d.| 8 r H P ,.G.I.I.E.E.E.E.E.K.,.! P k.n.m.m.m.m.m.m.m.m.m.m.m.m.m.m.m.m.m.m.m.m.m.",
"m.m.m.m.m.m.m.m.m.m.m.m.m.m.m.m.m.m.m.m.m.m.k.8 3 4 3 r i.J.H.I.E.E.E.E.E.F.$.^ N 8 { m.m.m.m.m.m.m.m.b.m.m.m.m.m.m.m.m.m.m.m.m.",
"m.m.m.m.m.m.m.m.m.m.m.m.m.m.m.m.m.m.m.m.m.b.c 4 4 4 4 y L.U.H.I.T.T.T.E.E.8.^ Q q = s ] b.m.m.m.m.m.m.b.m.m.m.m.m.m.m.m.m.m.m.m.",
"m.m.m.m.m.m.m.m.m.m.m.m.m.m.m.m.m.m.m.m.m.c.a 4 4 4 % 5.R.T.I.T.T.T.U.T.0.T Y J e 9 % c c.m.m.m.m.m.m.m.m.m.m.m.m.m.m.m.m.m.m.m.",
"m.m.m.m.m.m.m.m.m.m.m.m.m.m.m.m.m.m.m.m.m.b.a 4 4 4 4 V.R.T.E.E.T.T.T.0.Z m 5 t r 4 l x.m.m.m.m.m.m.m.m.m.m.m.m.m.m.m.m.m.m.m.m."
};
