/* XPM */
static char *collect[] = {
/* columns rows colors chars-per-pixel */
"64 64 196 2 ",
"   c #1D1039",
".  c #2C0C3D",
"X  c #3D063B",
"o  c #330938",
"O  c #381C3B",
"+  c #2C213A",
"@  c #392839",
"#  c #3E2C3F",
"$  c #59172E",
"%  c #4A053D",
"&  c #5A053C",
"*  c #481B31",
"=  c #421C3C",
"-  c #681F2C",
";  c #7B1E2A",
":  c #7D063C",
">  c #671230",
",  c #4F2434",
"<  c #5E2933",
"1  c #4B3437",
"2  c #5C3A34",
"3  c #6F3231",
"4  c #633F36",
"5  c #574135",
"6  c #664D2C",
"7  c #6B4533",
"8  c #784C32",
"9  c #7A5A32",
"0  c #7E6A3F",
"q  c #201A42",
"w  c #2A2549",
"e  c #372A49",
"r  c #25354A",
"t  c #333842",
"y  c #3A3450",
"u  c #3B3E53",
"i  c #6D0841",
"p  c #442542",
"a  c #482B4E",
"s  c #523E41",
"d  c #433A56",
"f  c #4A3F52",
"g  c #693F55",
"h  c #732562",
"j  c #2F494D",
"k  c #2D5152",
"l  c #3A5E57",
"z  c #256B5A",
"x  c #3A6A5F",
"c  c #5C514E",
"v  c #4B4A5B",
"b  c #524154",
"n  c #584A58",
"m  c #6B5C47",
"M  c #63545C",
"N  c #6E5C5F",
"B  c #5D596B",
"V  c #596D67",
"C  c #427A66",
"Z  c #6D6760",
"A  c #776A67",
"S  c #8F083E",
"D  c #95063D",
"F  c #B5053F",
"G  c #8C2B26",
"H  c #9A2524",
"J  c #833B28",
"K  c #9F3622",
"L  c #AF2E25",
"P  c #DD2F1B",
"I  c #C6043F",
"U  c #B44E1C",
"Y  c #9F4621",
"T  c #845230",
"R  c #965433",
"E  c #A6532C",
"W  c #85652D",
"Q  c #906F2B",
"!  c #9B7725",
"~  c #9A6531",
"^  c #A56D2D",
"/  c #B76220",
"(  c #B4742F",
")  c #AD7B3A",
"_  c #CD4E1F",
"`  c #D94316",
"'  c #DC5D19",
"]  c #E74B14",
"[  c #DC761A",
"{  c #EB6014",
"}  c #F36E11",
"|  c #F67D18",
" . c #C7722C",
".. c #841F5D",
"X. c #A80740",
"o. c #BB0A46",
"O. c #AF2C6B",
"+. c #C90F4F",
"@. c #D70340",
"#. c #E40142",
"$. c #C52253",
"%. c #8D7957",
"&. c #86736C",
"*. c #837B6F",
"=. c #8E7971",
"-. c #C06B5C",
";. c #E36847",
":. c #339071",
">. c #4A826A",
",. c #4E8E73",
"<. c #52957A",
"1. c #75937F",
"2. c #64B775",
"3. c #AA8223",
"4. c #B98723",
"5. c #CC9E1D",
"6. c #D89A1A",
"7. c #E9841B",
"8. c #FA8715",
"9. c #EF991A",
"0. c #F9921A",
"q. c #D5A61B",
"w. c #F4AD19",
"e. c #EAB419",
"r. c #F6BD12",
"t. c #CB8126",
"y. c #D4882D",
"u. c #C09423",
"i. c #E7952A",
"p. c #FC9D22",
"a. c #F29C2B",
"s. c #DDAD20",
"d. c #C9A837",
"f. c #FBA22A",
"g. c #F8AD34",
"h. c #FDC00E",
"j. c #FDC313",
"k. c #FCC61C",
"l. c #F9C829",
"z. c #FAD039",
"x. c #A88E54",
"c. c #BCA558",
"v. c #8D8671",
"b. c #9C8772",
"n. c #999279",
"m. c #AF9969",
"M. c #A8967A",
"N. c #B29779",
"B. c #B99E7D",
"V. c #B3A571",
"C. c #C89147",
"Z. c #D4B655",
"A. c #FAB448",
"S. c #E9B052",
"D. c #F8BF5B",
"F. c #C6AD77",
"G. c #F8D149",
"H. c #FBD84E",
"J. c #F8C968",
"K. c #FADD60",
"L. c #FBCF73",
"P. c #E5D179",
"I. c #FAE579",
"U. c #706E82",
"Y. c #579D80",
"T. c #5CA686",
"R. c #40B088",
"E. c #61AE8C",
"W. c #63B28F",
"Q. c #67B894",
"!. c #6ABE98",
"~. c #6EC59E",
"^. c #70C8A0",
"/. c #93968D",
"(. c #8CB58B",
"). c #B7A585",
"_. c #BAB284",
"`. c #CAAE86",
"'. c #C5BD88",
"]. c #D5B789",
"[. c #ACCC9A",
"{. c #88D8B8",
"}. c #CAC28D",
"|. c #D5CD8E",
" X c #E0C08B",
".X c #FBDA8A",
"XX c #E9C790",
"oX c #F5CF91",
"OX c #E4DC98",
"+X c #F9DB95",
"@X c #FBED8A",
"#X c #F3EA9D",
"$X c #FCF49D",
"%X c #D0E0B0",
"&X c #FDF6A4",
"*X c #A0E0C0",
/* pixels */
"^.^.^.^.^.^.^.^.^.^.^.^.^.^.^.^.^.^.^.^.^.^.^.^.^.^.^.^.^.^.^.^.^.^.^.^.^.^.^.^.^.^.^.^.^.^.^.^.^.^.^.^.^.^.^.^.^.^.^.^.^.^.^.^.",
"^.^.^.^.^.^.^.^.^.^.^.^.^.^.^.^.^.^.^.^.^.^.^.^.^.^.^.^.^.^.^.^.^.^.^.^.^.^.^.^.^.^.^.^.^.^.^.^.^.^.^.^.^.^.^.^.^.^.^.^.^.^.^.^.",
"^.^.^.^.^.^.^.^.^.^.^.^.^.^.^.^.^.^.^.^.^.^.^.^.^.^.^.^.^.^.^.^.^.^.^.^.^.^.^.^.^.^.^.^.^.^.^.^.^.^.^.^.^.^.^.^.^.^.^.^.^.^.^.^.",
"^.^.^.^.^.^.^.^.^.^.^.^.^.^.^.^.^.^.^.^.^.^.^.^.^.^.^.^.^.^.^.^.^.^.^.^.^.^.^.^.^.^.^.^.^.^.^.^.^.^.^.^.^.^.^.^.^.^.^.^.^.^.^.^.",
"^.^.^.^.^.^.^.^.^.^.^.^.^.^.^.^.^.^.^.^.^.^.^.^.^.^.^.^.^.^.^.^.^.^.^.^.^.^.^.^.^.^.^.^.^.^.^.^.^.^.^.^.^.^.^.^.^.^.^.^.^.^.^.^.",
"^.^.^.^.^.^.^.^.^.^.*X*X^.^.^.^.^.^.^.^.^.^.^.^.^.^.^.^.^.^.^.^.^.^.^.^.^.^.^.^.^.^.^.^.^.^.^.^.^.^.^.^.^.^.^.^.^.^.^.^.^.^.^.^.",
"^.^.^.^.^.^.^.^.^.^.*X*X^.^.^.^.^.^.^.^.^.^.^.^.^.^.^.^.^.^.^.^.^.^.^.^.^.^.^.^.^.^.^.^.^.^.^.^.^.^.^.^.^.^.^.^.^.^.^.^.^.^.^.^.",
"^.^.^.^.*X*X^.^.^.^.*X*X^.^.^.^.*X*X^.^.^.^.^.^.^.^.^.^.^.^.^.^.^.^.^.^.^.^.^.^.^.^.^.^.^.^.^.^.^.^.^.^.^.^.^.^.^.^.^.^.^.^.^.^.",
"^.^.^.^.*X*X^.^.^.^.*X*X^.^.^.^.*X*X^.^.^.^.^.^.^.^.^.^.~.Q.E.E.T.E.W.~.~.~.^.^.^.^.^.^.^.^.^.^.^.^.^.^.^.^.^.^.^.^.^.^.^.^.^.^.",
"^.^.^.^.^.^.*X*X^.^.^.^.^.^.*X*X^.^.^.^.^.^.^.^.~.<.C j f N A &.&.A N f j x <.Q.^.^.^.^.^.^.^.^.^.^.^.^.^.^.^.^.^.^.^.^.^.^.^.^.",
"^.^.^.^.^.^.*X*X^.^.^.^.^.^.*X*X^.^.^.^.^.~.T.x b b. X+X+X+X+X.X.X+X.X+X+X Xn.b l E.~.^.^.^.^.^.^.^.^.^.^.^.^.^.^.^.^.^.^.^.^.^.",
"^.^.^.^.^.^.^.^.^.^.^.^.^.^.^.^.^.^.^.^.T.j A  X+X.XL.D.A.f.i.a.f.f.g.A.J.L..X.XXX&.j <.^.^.^.^.^.^.^.^.^.^.^.^.^.^.^.^.^.^.^.^.",
"^.^.^.^.^.^.^.^.^.^.^.^.^.^.^.^.^.^.Q.x Z XX+XL.Z.i. .R A.m.b f f a 1 2  .f.a.A.L.+XoX&.l Q.^.^.^.^.^.^.^.^.^.^.^.^.^.^.^.^.^.^.",
"^.^.^.^.^.^.^.^.^.^.^.^.^.^.^.^.^.T.t F..XL.C.1 n n M N.m.F.N.N.F.|.+X].x.b b a T g.L.+X].y Y.^.^.^.^.^.^.^.^.^.^.^.^.^.^.^.^.^.",
"^.^.^.^.^.^.^.^.^.^.^.^.^.^.^.^.,.2 P..XA.( y ].oX].f   l l l b < * * * > e  XoX=.1 7.A..XoXM C ^.^.^.^.^.^.^.^.^.^.^.^.^.^.^.^.",
"^.^.^.^.^.^.^.^.^.^.^.^.^.^.^.,.8 .XL.f.T f XXb.y O L @ 2.2.+ 6 u.^ * * ; Y 1 f =.).1 ( p.J.#X&.C ^.^.^.^.^.^.^.^.^.^.^.^.^.^.^.",
"^.^.^.^.^.^.^.^.^.^.^.^.^.^.,.8 L.J.i.1 &.`.d - ' i.a.+ r 1 T 3.! % I $...b e.[ 3 e ).N 4 y.A..X=.>.^.^.^.^.^.^.^.^.^.^.^.^.^.^.",
"^.^.^.^.^.^.^.^.^.^.^.^.^.T.1 x.%.t.# `.=.O K / T h a E [ 3 A 4.@ I #.#.o.h Z.j.7 ^ , &.`.f 8 g.+XA <.^.^.^.^.^.^.^.^.^.^.^.^.^.",
"^.^.^.^.^.^.^.^.^.^.^.^.Q.t i.^ ) f  XM 3 L 3 ; = E ;.a s v.K.k.. @.#.#.+.i V.l.Q ( w.W y ].n.4 g..Xf W.^.^.^.^.^.^.^.^.^.^.^.^.",
"^.^.^.^.^.^.^.^.^.^.^.^.l ~ i.9.1  Xn G | 7.7.L K 3 g 8 Z.G.K.@Xb X.@.F o.% OX$XA 6 4.4.( e  X=.~ A. Xj !.^.^.^.^.^.^.^.^.^.^.^.",
"^.^.^.^.^.^.^.^.^.^.^.Y.8 7 f./ &.M G t.4.6 j.1 _ 3  .3 5.H.OX#X|.e : X.= v.#XA %.3.5 2 R 8 b XX1 p.D.b.,.^.^.^.^.^.^.^.^.^.^.^.",
"^.^.^.^.^.^.^.^.^.^.~.j 7.t.0.3 N - 7.4.4.1 K.}.f , p , Z $XA Z.H.P.M.v.F.$XZ V v.Q j.5.^ > o N.f i.a..Xy !.^.^.^.^.^.^.^.^.^.^.",
"^.^.^.^.^.^.^.^.^.^.Y.J 8.7 0.V.+ K r j 5 Z.'.|.$X$X&Xn.A &X$Xr.q.j.k.z.H.$Xt (.+ 5 ! h.l.9.L e B.4 p.A.N.,.^.^.^.R.R.^.^.^.^.^.",
"^.^.^.^.^.^.^.^.^.^.l } p.( J.A J + %X[.@ q   x._.$X&X@XI.&X'.e v + e.j.h.H.A v ~./.y #XA I.0.S &.=.T p..Xj ^.^.^.R.R.^.^.^.^.^.",
"R.^.^.^.^.^.^.^.^.Q.- 8.i.f XX  L   l N v.1 s.v )./.v.V.j.H.f v U.l 9 h.5.d.#XA /.A }.H.k.z.r.' % N.`.f.J.*.E.^.^.R.R.^.^.^.^.R.",
"R.^.^.^.^.^.^.^.^.<.U 8.R b.b.  E E q f e.k.c.Z d : D h 6 r.1 e u u 6 r.6 b _.$X&X&XZ.5 O 5 5.r.L n oXJ.g.F.>.~.^.R.R.^.^.^.^.R.",
"^.^.^.^.^.^.^.^.^.x } 0.1  Xn * w.h.5.e.j.W x.A & I #.+.a 6.c.w w q u.W u B u '.&XOX+ D o.O.a q.| + oXS.f..Xr ~.^.^.^.^.^.R.R.^.",
"^.^.^.^.^.^.^.^.~.@ }  .M oXq - 6.q.j.z.$X$X@XZ : #.#.I ..3.K.OX_.P.j.1 d r V v.@X%.> F #.@.O.Z w.> N.e i.J.c ~.^.^.^.^.^.R.R.^.",
"^.^.^.^.^.^.^.^.Q.- | 8 V.N.> $ w r 6 H.|.U._.*.> D @.#.X.5.I.&X&XK.h.0 q y w F.j.9 : F #.#.+.M z.K A b.E J.A W.^.^.^.^.^.^.^.^.",
"^.^.^.^.^.^.^.^.T.T 8.1 oXA H e u B r d.}.v n.OXw i X.F T z.V.B v.l.h.G./.&.}.l.h.x.% D I F : v.k._ n `.J A.b.<.^.^.^.^.^.^.^.^.",
"^.^.^.^.^.^.^.^.<.Y 8.e oXM L q w y r 4.&X$X&X&XOX*.M Z Z.'.y B x 9 e.s.@X$X$Xs.e.G.B X D : a z.e.' e }.3 A.m.<.^.^.^.^.^.^.^.^.",
"^.^.^.^.^.^.^.^.<.U 0.@ oXf ] 1 w y 1 r.$Xv.j a Z #Xz.H.@Xv.V >.2.@ q.u.K.$X$X}.m h.H._.v.m.z.r.c , O  X4 A.V.<.^.^.^.^.^.^.^.^.",
"^.^.^.^.^.^.^.^.<.U 8.1  X@ ] w.c.V.l.z.).r /.(.q F.P.M._.}.+ >.l Z K.W o a n S.@X@XH.l.l.j.j.K.|.x.q  X3 A.V.<.^.^.^.^.^.^.^.^.",
"^.^.^.^.^.^.^.^.<.U 8.7 N.* ` E k.e.3.V.OXA b *.OXH.q   r v.}.Z *.@Xn.& D I O.a r.P.A #Xj.j.Q '.}.Z.q `.3 A.m.<.^.^.^.^.^.^.^.^.",
"^.^.^.^.^.^.^.^.E.Y 8.^ A A H G 8 o h ..u OX$X&X$Xz.e.c <.w @X$X$X$Xv D #.#.@.h 5.l.v.N 7.9.e.W 9 ( a N.T G.%.T.^.^.^.^.^.^.^.^.",
"^.^.^.^.^.^.^.^.W.J | i.f  XX P X D +.o.O.n &X&X#XI.h.! r + j.j.G.@Xn D @.@.X.i q.j.$Xp : X o 3 ^ 3 M A / A.M Q.^.^.^.^.^.^.^.^.",
"^.^.^.^.^.^.^.^.~.< } 0.w oXf K % o.#.#.o.p &XOXr n.l.j.s.5.h.h.h.l._.o D o.F a k.z.$Xw & F F h L ; M.a 7.D.d ~.^.^.^.^.^.^.^.^.",
"^.^.^.^.^.^.^.^.~.l } 0.4 F.=.3 % D #.#.+.n &Xn.V Z z.h.h.h.9 s.Q q.v n.e w n P.k.@X#Xo F #.I $.* , `.$ 0.J.x ^.^.^.^.^.^.^.^.^.",
"^.^.^.^.^.^.^.^.^.,.Y / ( M  X, + i D F $.I.&XA e M.H.h.j.s.5 j.5 q.Q n.@X$XI.G.@X&X|.% I #.I +.q N.n / f.m.<.^.^.^.^.^.^.^.^.^.",
"^.^.^.^.^.^.^.^.^.W.< 3 p.O  Xf U o % % w n OXc.b.l.G.j.5.e.4.j.W 5.4.A I.j.k.#Xv.Z.l.o I #.F F f ].= p.A.M W.^.^.^.^.^.^.^.^.^.",
"^.^.^.^.^.^.~.^.^.^.j T 8.~ A ).$ ] u.q.z.k.H.! 1 1 4.r.s.3.5.1 e.1 c.P.K.h.k.'.V v e.Q % F I % ].n / p.D.l ^.^.^.^.^.^.^.^.^.^.",
"^.^.^.^.^.^.^.^.^.^.<.K } a.1 ].&.* ' 6.W j.Q % D I O.p r.j.# |.@ 0 1 h.h.h.e.u.3.3.j.j.5.3 o N F., f.f.%.Y.^.^.^.^.^.^.^.^.^.^.",
"^.^.^.^.^.^.^.^.^.^.^.j { 8.y.e =.).* P [ h.w D #.#.F h 3.h.+ [.j V @ h.9 @ 1 3 n 1 1 ! w.P $ ].d y.a.S.j ~.^.^.^.^.^.^.^.^.^.^.",
"^.^.^.^.^.^.^.^.^.^.^.<.3 } p.a.e XXA H 9.j.. D #.#.I ..! h.6 k >.w 3.6 v /./.@ ;.;.-.- L p M ].8 p.9 s Y.^.^.^.^.^.^.^.^.^.^.^.",
"^.^.^.^.^.^.^.^.^.^.^.^.x U } f.( n XXe ' h.1 : D X.I o q.s.q.! 8 4.h.+ U.+ v C 3 G , ; w XXoXC.a.~ 2 x ^.^.^.^.^.^.^.^.^.^.^.^.",
"^.^.^.^.^.^.^.^.^.^.^.^.!.j ] | f.8 N `.= ' 6.+ & : o Q 5 f v ( h.l.l.1 V 1.(.x G L < f ].N.7 p.^ 7 t !.^.^.^.^.^.^.^.^.^.^.^.^.",
"^.^.^.^.^.^.^.^.^.^.^.^.^.W., ] | f.7 N `.p K 7.4.( 6.! R 3 ).s H.V.x.5.q k k O L = &.oXM.@ i.f.i.1 T.^.^.^.^.^.^.^.^.^.^.^.^.^.",
"^.^.^.^.^.^.^.^.^.^.^.^.^.^.<.$ -  .f.T f ].A = G ' 8.~ < < ~ B F.@XH.h.s.U G $ b ].].b 3 i.f.f.7 Y.^.^.^.^.^.^.^.^.^.^.^.^.^.^.",
"^.^.^.^.^.^.^.^.^.^.^.^.^.^.^.<.* * ' a.( # Z `.M.n = ; > $ L L O 9 t.E G O n `.XX&.e ( ^ f.f.4 <.^.^.^.^.^.^.^.^.^.^.^.^.^.^.^.",
"^.^.^.^.^.^.^.^.^.^.^.^.^.^.^.^.T.O $ Y 0.f.( 2 e A B.&.&.&.N M n c N &.M.XX].N e ~ 3.7 i.i.1 Y.^.^.^.^.^.^.^.^.^.^.^.^.^.^.^.^.",
"^.^.^.^.^.^.^.^.^.^.^.^.^.^.^.^.^.W.j ; _ 0.f.p.a.( 4 n B.|.`.`.F.B.N.=.M e 1 ) ) ~  .( ( j E.^.^.^.^.^.^.^.^.R.R.^.^.^.^.^.^.^.",
"^.^.^.^.^.^.^.^.^.^.^.^.^.^.^.^.^.^.~.>.- ` } 0.p.p.p. .8 2 2 7 4 8 T ~ y. .9 c s 2  .2 C ~.^.^.^.^.^.^.^.^.^.R.R.^.^.^.^.^.^.^.",
"^.^.^.^.^.^.^.^.^.^.^.^.^.^.^.^.^.^.^.^.W.x - _ { 8.0.p.f.0.f.p.p.p.p.f.a.( c 4 9 2 l E.^.^.^.^.^.R.R.^.^.^.^.R.R.^.^.^.^.R.R.^.",
"^.^.^.^.^.^.^.^.^.^.^.^.^.^.^.^.^.^.^.^.^.^.E.C * G _ ] { } | 8.| | T 4 2 8 8 @ C W.^.^.^.^.^.^.^.R.R.^.^.^.^.R.R.^.^.^.^.R.R.^.",
"^.^.^.^.^.{.{.^.^.^.^.^.^.^.^.^.^.^.^.^.^.^.^.^.~.:.z j * - G G G ; 3 * j C T.!.^.^.^.^.^.^.^.^.^.^.^.R.R.^.^.^.^.^.^.R.R.^.^.^.",
"^.^.^.^.^.{.{.^.^.^.^.^.^.^.^.^.^.^.^.^.^.^.^.^.~.R.R.~.~.Q.E.T.E.E.Q.!.^.^.~.^.^.^.^.^.^.^.^.^.^.^.^.R.R.^.^.^.^.^.^.R.R.^.^.^.",
"{.^.^.^.^.{.{.^.^.^.^.{.{.^.^.^.^.^.^.R.R.^.^.^.^.R.R.^.^.^.^.R.R.^.^.^.^.^.^.^.^.^.^.^.^.^.^.^.^.^.^.^.^.^.^.^.^.^.^.^.^.^.^.{.",
"{.^.^.^.^.{.{.^.^.^.^.{.{.^.^.^.^.^.^.R.R.^.^.^.^.R.R.^.^.^.^.R.R.^.^.^.^.^.^.^.^.^.^.^.^.^.^.^.^.^.^.^.^.^.^.^.^.^.^.^.^.^.^.{.",
"^.{.{.^.^.^.^.^.^.{.{.^.^.^.^.^.^.^.^.^.^.R.R.^.^.^.^.^.^.R.R.^.^.^.^.^.^.^.^.^.^.^.^.^.^.^.^.^.^.^.^.^.^.^.^.^.^.^.^.^.^.^.^.^.",
"^.{.{.^.^.^.^.^.^.{.{.^.^.^.^.^.^.^.^.^.^.R.R.^.^.^.^.^.^.R.R.^.^.^.^.^.^.^.^.^.^.^.^.^.^.^.^.^.^.^.^.^.^.^.^.^.^.^.^.^.^.^.^.^.",
"^.^.^.^.^.^.^.^.^.^.^.^.^.^.^.^.^.^.^.^.^.^.^.^.^.^.^.^.^.^.^.^.^.^.^.^.^.^.^.^.^.^.^.^.^.^.^.^.^.^.^.~.^.^.^.^.^.^.^.^.^.^.^.^.",
"^.^.^.^.^.^.^.^.^.^.^.^.^.^.^.^.^.^.^.^.^.^.^.^.^.^.^.^.^.^.^.^.^.^.^.^.^.^.^.^.^.^.^.^.^.^.^.^.^.^.^.^.^.^.^.^.^.^.^.^.^.^.^.^.",
"^.^.^.^.^.^.^.^.^.^.^.^.^.^.^.^.^.^.^.^.^.^.^.^.^.^.^.^.^.^.^.^.^.^.^.^.^.^.^.^.^.^.^.^.^.^.^.^.^.^.^.^.^.^.^.^.^.^.^.^.^.^.^.^.",
"^.^.^.^.^.^.^.^.^.^.^.^.^.^.^.^.^.^.^.^.^.^.^.^.^.^.^.^.^.^.^.^.^.^.^.^.^.^.^.^.^.^.^.^.^.^.^.^.^.^.^.^.^.^.^.^.^.^.^.^.^.^.^.^."
};
