/* XPM */
static char *exit19[] = {
/* columns rows colors chars-per-pixel */
"64 64 59 1 ",
"  c #1E182C",
". c #201930",
"X c #211930",
"o c #221A33",
"O c #251B38",
"+ c #261B39",
"@ c #261B3A",
"# c #291C3E",
"$ c #291D3F",
"% c #2B1D42",
"& c #2D1E45",
"* c #2E1F48",
"= c #2F1F49",
"- c #30204A",
"; c #30204B",
": c #32204D",
"> c #32214E",
", c #332150",
"< c #352253",
"1 c #362255",
"2 c #372356",
"3 c #3A245B",
"4 c #412561",
"5 c #492564",
"6 c #4B2465",
"7 c #4D2466",
"8 c #502467",
"9 c #512468",
"0 c #552469",
"q c #5C246C",
"w c #60246E",
"e c #692372",
"r c #6D2374",
"t c #6F2375",
"y c #702375",
"u c #742377",
"i c #772378",
"p c #7A257C",
"a c #7D267F",
"s c #7E2781",
"d c #802883",
"f c #822985",
"g c #872C8C",
"h c #8C2E93",
"j c #8D2F94",
"k c #8E2F95",
"l c #903097",
"z c #93329C",
"x c #96339F",
"c c #9835A2",
"v c #9C36A6",
"b c #9E38A9",
"n c #A23AAE",
"m c #A43BB1",
"M c #A63CB3",
"N c #A73DB3",
"B c #EEB7D2",
"V c #F0BDD6",
"C c None",
/* pixels */
"CCCCCCCCCCCCCCCCCCCCCCCCCCCCCCCCCCCCCCCCCCCCCCCCCCCCCCCCCCCCCCCC",
"CCCCCCCCCCCCCCCCCCCCCCCCCCCCCCCCCCCCCCCCCCCCCCCCCCCCCCCCCCCCCCCC",
"CCCCCCCCCCCCCCCCCCCCCCCCCCCCCCCCCCCCCCCCCCCCCCCCCCCCCCCCCCCCCCCC",
"CCCCCCCCCCCCCCCCCCCCCCCCCCCCCCCCCCCCCCCCCCCCCCCCCCCCCCCCCCCCCCCC",
"CCCCCCCCCCCCCCCCCCCCCCCCCCCCCCCCCCCCCCCCCCCCCCCCCCCCCCCCCCCCCCCC",
"CCCCCCCCCCCCCCCCCCCCCCCCCCCCCCCCCCCCCCCCCCCCCCCCCCCCCCCCCCCCCCCC",
"CCCCCCCCCCCCCCCCCCCCCCCCCCCCCCCCCCCCCCCCCCCCCCCCCCCCCCCCCCCCCCCC",
"CCCCCCCCCCCCCCCCCCCCCCCCCCCCCCCCCCCCCCCCCCCCCCCCCCCCCCCCCCCCCCCC",
"CCCCCCCCCCCCCCCCCCCCCCCCCCCCCCCCCCCCCCCCCCCCCCCCCCCCCCCCCCCCCCCC",
"CCCCCCCCCCCCCCCCCCCCCCCCCCCCCCCCCCCCCCCCCCCCCCCCCCCCCCCCCCCCCCCC",
"CCCCCCCCCCCCCCCCCCCCCCCCCCCCCCCCCCCCCCCCCCCCCCCCCCCCCCCCCCCCCCCC",
"CCCCCCCCCCCCCCCCCCCCCCCBBBBBBCCCCCCCCCCCCCCCCCCCCCCCCCCCCCCCCCCC",
"CCCCCCCCCCCCCCCCVCCCCBBBBCCCCCCCCCCCCCCCCCCCCCCCCCCCCCCCCCCCCCCC",
"CCCCCCCCCCCCCCVVVBBBBBBBBBBBBCCCCCCCCCCCCCCCCCCCCCCCCCCCCCCCCCCC",
"CCCCCCCCCCCCCVVBBBBBCCCCCCCCCCCCCCCCCCCCCCCCCCCCCCCCCCCCCCCCCCCC",
"CCCCCCCCCCCCVVVBBBBCCCCCCCCCCCCCCCCCCCCCCCCCCCCCCCCCCCCCCCCCCCCC",
"CCCCCCCCCCCVVVBBBCCCCCCCCCCCCCCCCCCCCCCCCCCCCCCCCCCCCCCCCCCCCCCC",
"CCCCCCCCCCCVVBBBCCCCCCCCCCCCCCCCCCCCCCCCCCCCCCCCCCCCCCCCCCCCCCCC",
"CCCCCCCCCCVVBBCCCCCCCCCCNNNNNNNNCCCCCCCCCCCCCCCCCCCCCCCCCCCCCCCC",
"CCCCCCCCCVVBBCCCCCCCCCCNNNNNbNNNNNCCCCCCCCCCCCCCCCCCCCCCCCCCCCCC",
"CCCCCCCCCVVBBCCCCCCCCNNNmbvvvvbmNNNCCCCCCCCCCCCCCCCCCCCCCCCCCCCC",
"CCCCCCCCVVBBCCCCCCCCNNnnvvCCCCCvbmNCCCCCCCCCCCCCCCCCCCCCCCCCCCCC",
"CCCCCCCCVBBBCCCCCCCCNNvCCCCCCCCCvbnNCCCCCCCCCCCCCCCCCCCCCCCCCCCC",
"CCCCCCCVVBBCCCCCCCCNnvCCCCCCCCCCCCbNNCCCCCCCCCCCCCCCCCCCCCCCCCCC",
"CCCCCCCVVBCCCCCCCCCNnCCCCCCCCCCCCCccNCCCCCCCCCCCCCCCCCCCCCCCCCCC",
"CCCCCCVVBBCCCCCCCCNmCCCCCCCCCCCCCCC$NCCCCCCCCCCCCCCCCCCCCCCCCCCC",
"CCCCCCVBBCCCCCCCCCNfCCCCCCCCCCCCCCC;sgCCCCCCCCCCCCCCCCCCCCCCCCCC",
"CCCCCCCBBCCCCCCCCNnCCCCCCCCCCgOXOCC<%CCCCCCCCCCCCCCCCCCCCCCCCCCC",
"CCCCCCCBBCCCCCCCCNfCCCCCCsa4ggi tCC:6sCCCCCCCCCCCCCCCCCCCCCCCCCC",
"CCCCCCCBCCCCCCCCCNgCCCCCsst3pgCCssf<qi0CCCCCCCCCCCCCCCCCCCCCCCCC",
"CCCCCCCBCCCCCCCCCCkCCCCsss6<CCCtudgyswCC00CCCCCCCCCCCCCCkCCCCCCC",
"CCCCCCCCCCCCCCCCCkkCCCsssC8:CCCCCg0sp0C000CCCCCCCCCCCCCCkCCCCCCC",
"CCCCCCCCCCCCCCCCCkCCCCssaC0CC1guCCCsC0C000CCCVVCCCCCCCCCkCCCCCCC",
"CCCCCCCCCCCCCCCCCCkCCsstqC9CeqCtCCsCCCC600CCBVCCCCCCCCCCkCCCCCCC",
"CCCCCCCCCCCCCCCCCCCCCsu;$CsssssCCCCCCC-:7CCCBVCCCCCCCCCCkCCCCCCC",
"CCCCCCCCCCCCCCCCCCCCCsth:CsssssCCCCCC::6$CCBBCCCCCCCCCCkkCCCCCCC",
"CCCCCCCCCCCCCCCCCCCCCs%c,CsCCssCCCCCgg<@XCCBVCCCCCCCCCCkzCCCCCCC",
"CCCCCCCCCCCCCCCCCCCCsCOf,CCCCCCCCCgggge&CCBVVCCCCCCCCCCkkCCCCCCC",
"CCCCCCCCCCCCCCCCCCCCsCs=,CCCCCXX pggggwCCBBVCCCCCCCCCCCkbCCCCCCC",
"CCCCCCCCCCCCCCCCCCCCCCc=,CCCCCCXX-0g::@CBBVCCCCCCCCCCCqlNCCCCCCC",
"CCCCCCCCCCCCCCCCCCCCCNx=,CCCCCCCCXX@CCCBBVVCCCCCCCCCCChbNCCCCCCC",
"CCCCCCCCCCCCCCCCCCCCCNv1<CCCCCCCCCCCBBBCCCCCCCCCCCCCCeknNCCCCCCC",
"CCCCCCCCCCCCCCCCCCCCCCNz:CCCCCCCCCCCCBCCCCCCCCCCCCCCCzxNNCCCCCCC",
"CCCCCCCCCCCCCCCCCCCCCCNNgCCCCCCCCCCCCCCCCCCCCCCCCCCCwzNNNCCCCCCC",
"CCCCCCCCCCCCCCCCCCCCCCNNvvCCCCCCCCCCCCCCCCCCCCCCCCCCcnNNCCCCCCCC",
"CCCCCCCCCCCCCCCCCCCCCCNNmvCCCCCCCCCCCCCCCCCCCCCCCCCvxnNCCCCCCCCC",
"CCCCCCCCCCCCCCCCCCCCCCNNmbvCCCCCCCCCCCCCCCCCCCCCCCvxbNNCCCCCCCCC",
"CCCCCCCCCCCCCCCCCCCCCCCNNNvvCCCCCCCCCCCCCCCCCCCCCvcbNNNCCCCCCCCC",
"CCCCCCCCCCCCCCCCCCCCCCCNNNmvvCCCCCCCCCCCCCCCCCCCvccNNNCCCCCCCCCC",
"CCCCCCCCCCCCCCCCCCCCCCCCNNNnvvCCCCCCCCCCCCCCCCCvvvNNNCCCCCCCCCCC",
"CCCCCCCCCCCCCCCCCCCCCCCCNNNNnbvvCCCCCCCCCCCCCvvvNNNNCCCCCCCCCCCC",
"CCCCCCCCCCCCCCCCCCCCCCCCCNNNNNvvvvCCCCCCCCCvvvbmNNNCCCCCCCCCCCCC",
"CCCCCCCCCCCCCCCCCCCCCCCCCNNNNNNbbvvvCCCvvvvvbmNNNNNCCCCCCCCCCCCC",
"CCCCCCCCCCCCCCCCCCCCCCCCCCNNNNNNNnbvvvvvvbbbNNNNNNCCCCCCCCCCCCCC",
"CCCCCCCCCCCCCCCCCCCCCCCCCCCCNNNNNNNmnnnnnNNNNNNNCCCCCCCCCCCCCCCC",
"CCCCCCCCCCCCCCCCCCCCCCCCCCCCCNNNNNNNNNNNNNNNNNNCCCCCCCCCCCCCCCCC",
"CCCCCCCCCCCCCCCCCCCCCCCCCCCCCCNNNNNNNNNNNNNNNCCCCCCCCCCCCCCCCCCC",
"CCCCCCCCCCCCCCCCCCCCCCCCCCCCCCCCNNNNNNNNNNNCCCCCCCCCCCCCCCCCCCCC",
"CCCCCCCCCCCCCCCCCCCCCCCCCCCCCCCCCCCCCCCCCCCCCCCCCCCCCCCCCCCCCCCC",
"CCCCCCCCCCCCCCCCCCCCCCCCCCCCCCCCCCCCCCCCCCCCCCCCCCCCCCCCCCCCCCCC",
"CCCCCCCCCCCCCCCCCCCCCCCCCCCCCCCCCCCCCCCCCCCCCCCCCCCCCCCCCCCCCCCC",
"CCCCCCCCCCCCCCCCCCCCCCCCCCCCCCCCCCCCCCCCCCCCCCCCCCCCCCCCCCCCCCCC",
"CCCCCCCCCCCCCCCCCCCCCCCCCCCCCCCCCCCCCCCCCCCCCCCCCCCCCCCCCCCCCCCC",
"CCCCCCCCCCCCCCCCCCCCCCCCCCCCCCCCCCCCCCCCCCCCCCCCCCCCCCCCCCCCCCCC"
};
