/* XPM */
static char *exit1[] = {
/* columns rows colors chars-per-pixel */
"64 64 56 1 ",
"  c #1A1625",
". c #1C1729",
"X c #1E182C",
"o c #20192F",
"O c #201930",
"+ c #221A33",
"@ c #231A34",
"# c #231A35",
"$ c #241B37",
"% c #251B38",
"& c #261B39",
"* c #281C3D",
"= c #291C3E",
"- c #2B1D41",
"; c #2B1D42",
": c #2D1E45",
"> c #2E1F47",
", c #2F1F49",
"< c #32204D",
"1 c #342252",
"2 c #362255",
"3 c #382358",
"4 c #3A245B",
"5 c #3B245D",
"6 c #3F2560",
"7 c #412561",
"8 c #492564",
"9 c #4A2465",
"0 c #502467",
"q c #552469",
"w c #5C246C",
"e c #5E246D",
"r c #60246E",
"t c #672371",
"y c #642470",
"u c #692372",
"i c #6D2374",
"p c #6F2375",
"a c #702375",
"s c #742377",
"d c #772378",
"f c #7A257C",
"g c #7B257D",
"h c #7C257E",
"j c #7D267F",
"k c #7E2781",
"l c #802883",
"z c #822985",
"x c #872C8C",
"c c #C55BAA",
"v c #DF86B4",
"b c #E290BA",
"n c #E497BE",
"m c #E59AC0",
"M c #E8A3C6",
"N c None",
/* pixels */
"NNNNNNNNNNNNNNNNNNNNNNNNNNNNNNNNNNNNNNNNNNNNNNNNNNNNNNNNNNNNNNNN",
"NNNNNNNNNNNNNNNNNNNNNNNNNNNNNNNNNNNNNNNNNNNNNNNNNNNNNNNNNNNNNNNN",
"NNNNNNNNNNNNNNNNNNNNNNNNNNNNNNNNNNNNNNNNNNNNNNNNNNNNNNNNNNNNNNNN",
"NNNNNNNNNNNNNNNNNNNNNNNNNNNNNNNNNNNNNNNNNNNNNNNNNNNNNNNNNNNNNNNN",
"NNNNNNNNNNNNNNNNNNNNNNNNNNNNNNNNNNNNNNNNNNNNNNNNNNNNNNNNNNNNNNNN",
"NNNNNNNNNNNNNNNNNNNNNNNNNNNNNNNNNNNNNNNNNNNNNNNNNNNNNNNNNNNNNNNN",
"NNNNNNNNNNNNNNNNNNNNNNNNNNNNNNNNNNNNNNNNNNNNNNNNNNNNNNNNNNNNNNNN",
"NNNNNNNNNNNNNNNNNNNNNNNNNNNNNNNNNNNNNNNNNNNNNNNNNNNNNNNNNNNNNNNN",
"NNNNNNNNNNNNNNNNNNNNNNNNNNNNNNNNNNNNNNNNNNNNNNNNNNNNNNNNNNNNNNNN",
"NNNNNNNNNNNNNNNNNNNNNNMMMMNNNNNNNNNNNNNNNNNNNNNNNNNNNNNNNNNNNNNN",
"NNNNNNNNNNNNNNNNNNNMMMMMMMMMmNNNNNNNNNNNNNNNNNNNNNNNNNNNNNNNNNNN",
"NNNNNNNNNNNNNNNNNMMMMMMmmmmmmmmmNNNNNNNNNNNNNNNNNNNNNNNNNNNNNNNN",
"NNNNNNNNNNNNNNNNMMMMMmmmmmmmmmmmmmNNNNNNNNNNNNNNNNNNNNNNNNNNNNNN",
"NNNNNNNNNNNNNNMMMMmmmmmmmmmmmmmmmmmNNNNNNNNNNNNNNNNNNNNNNNNNNNNN",
"NNNNNNNNNNNNNMMMmmNNNNNNNNNNNNNmmmmmNNNNNNNNNNNNNNNNNNNNNNNNNNNN",
"NNNNNNNNNNNNMMMmNNNNNNNNNNNNNNNNNmmmmNNNNNNNNNNNNNNNNNNNNNNNNNNN",
"NNNNNNNNNNNMMMmNNNNNNNNNNNNNNNNNNNmmmmNNNNNNNNNNNNNNNNNNNNNNNNNN",
"NNNNNNNNNNNMMNNNNNNNNNNNNNNNNNNNNNNNmmNNNNNNNNNNNNNNNNNNNNNNNNNN",
"NNNNNNNNNNMMNNNNNNNNNNNNNzzzzzzzNNNNmmmNNNNNNNNNNNNNNNNNNNNNNNNN",
"NNNNNNNNNMMNNNNNNNNNNNNzzzzzazzzzzNNNmmNNNNNNNNNNNNNNNNNNNNNNNNN",
"NNNNNNNNNMNNNNNNNNNNNNzlfteyusaflzzNNNmNNNNNNNNNNNNNNNNNNNNNNNNN",
"NNNNNNNNMMNNNNNNNNNNNzfu0aONNNd0dzzzNNNNNNNNNNNNNNNNNNNNNNNNNNNN",
"NNNNNNNNMNNNNNNNNNNNNsyNNNNNNNNNsfzzNNNNNNNNNNNNNNNNNNNNNNNNNNNN",
"NNNNNNNMNNNNNNNNNNNNttNNNNNNNNNNNsfzzNNNNNNNNNNNNNNNNNNNNNNNNNNN",
"NNNNNNNNNNNNNNNNNNNNrNNNNNNNNNNNNNdzzNNNNNNNNNNNNNNNNNNNNNNNNNNN",
"NNNNNNNNNNNNNNNNNNNy8NNNNNNNNNNNNNskzNNNNNNNNNNNNNNNNNNNNNNNNNNN",
"NNNNNNNNNNNNNNNNNNNyNNNNNNNNrr0NNNNlzNNNNNNNNNNNNNNNNNNNNNNNNNNN",
"NNNNNNNNNNNNNNNNNNNNNNNNNNNeydr<@NNfzNNNNNNNNNNNNNNNNNNNNNNNNNNN",
"NNNNNNNNNNNNNNNNNNyNNNNNNNq<%idui<zzzNNNNNNNNNNNNNNNNNNNNNNNNNNN",
"NNNNNNNNNNNNNNNNNNyNNNNNNN$15irrfhNzuNNNNNNNNNNNNNNNNNNNNNNNNNNN",
"NNNNNNNNNNNNNNNNNNyNNNNN@@:;NNNNNN8qONNNNNNNNNNNNNNNNNNNNNNNNNNN",
"NNNNNNNNNNNNNNNNNyNNNNN@@@%NNN8NNN;ONNNNNNNNNNNNNNNNNNNNNNNNNNNN",
"NNNNNNNNNNNNNNNNNyNNNNN@O@%NN=8NNN:NNNNNNNNNNNNNNNNNNNNNyNNNNNNN",
"NNNNNNNNNNNNNNNNNNNNNN:qqqNNNNNfrrrNNNNNNNNNNNNNNNNNNNNNyNNNNNNN",
"NNNNNNNNNNNNNNNNNNNNNNazzzNNNNNNNNNNNNNNNNNNNNNNNNNNNNNNyNNNNNNN",
"NNNNNNNNNNNNNNNNNNNNNNzzzzzNNNNNNNNNN4N77NNNNNNNNNNNNNNNyNNNNNNN",
"NNNNNNNNNNNNNNNNNNNNNNzzzzzNNNNNNNNf,775oNNNMNNNNNNNNNNyyNNNNNNN",
"NNNNNNNNNNNNNNNNNNNNNzzzkzu%c <ehfhh275$NNNMMNNNNNNNNNNyyNNNNNNN",
"NNNNNNNNNNNNNNNNNNNNNzzzafNNve.qafhf::=3NNmMNNNNNNNNNNNyyNNNNNNN",
"NNNNNNNNNNNNNNNNNNNNNzzzddNNNb--ryih:qoNNMMNNNNNNNNNNNyyNNNNNNNN",
"NNNNNNNNNNNNNNNNNNNNNzzzssNNNmnNrllrxNNmmMMNNNNNNNNNNNyyNNNNNNNN",
"NNNNNNNNNNNNNNNNNNNNNzzzfsNNNNmmmmmNmmmMMMNNNNNNNNNNNeyNNNNNNNNN",
"NNNNNNNNNNNNNNNNNNNNNzzzlsNNNNNNmmmmMMMMNNNNNNNNNNNNNryNNNNNNNNN",
"NNNNNNNNNNNNNNNNNNNNNzzzlssNNNNNNNNNNMNNNNNNNNNNNNNNyyyNNNNNNNNN",
"NNNNNNNNNNNNNNNNNNNNNzzzlssNNNNNNNNNNNNNNNNNNNNNNNN:yyNNNNNNNNNN",
"NNNNNNNNNNNNNNNNNNNNNNzzzfsNNNNNNNNNNNNNNNNNNNNNNN:eyNNNNNNNNNNN",
"NNNNNNNNNNNNNNNNNNNNNNzzzlssNNNNNNNNNNNNNNNNNNNNNNqryNNNNNNNNNNN",
"NNNNNNNNNNNNNNNNNNNNNNNzzzhssNNNNNNNNNNNNNNNNNNNN0yyNNNNNNNNNNNN",
"NNNNNNNNNNNNNNNNNNNNNNNzzzsesNNNNNNNNNNNNNNNNNNN3yyNNNNNNNNNNNNN",
"NNNNNNNNNNNNNNNNNNNNNNNzzzzrrssNNNNNNNNNNNNNNNNyyaNNNNNNNNNNNNNN",
"NNNNNNNNNNNNNNNNNNNNNNNNzzzziqssNNNNNNNNNNNNNqqyukNNNNNNNNNNNNNN",
"NNNNNNNNNNNNNNNNNNNNNNNNNzzzzkuasssNNN$NNNNqrryfzNNNNNNNNNNNNNNN",
"NNNNNNNNNNNNNNNNNNNNNNNNNzzzzzzaisaaaaa<auyyyuzzzNNNNNNNNNNNNNNN",
"NNNNNNNNNNNNNNNNNNNNNNNNNNzzzzzzzfatyyyyyytsfzzzNNNNNNNNNNNNNNNN",
"NNNNNNNNNNNNNNNNNNNNNNNNNNNNzzzzzzzhffffffhzzzzNNNNNNNNNNNNNNNNN",
"NNNNNNNNNNNNNNNNNNNNNNNNNNNNNzzzzzzzzzzzzzzzzNNNNNNNNNNNNNNNNNNN",
"NNNNNNNNNNNNNNNNNNNNNNNNNNNNNNNzzzzzzzzzzzzzNNNNNNNNNNNNNNNNNNNN",
"NNNNNNNNNNNNNNNNNNNNNNNNNNNNNNNNNzzzzzzzzNNNNNNNNNNNNNNNNNNNNNNN",
"NNNNNNNNNNNNNNNNNNNNNNNNNNNNNNNNNNNNNNNNNNNNNNNNNNNNNNNNNNNNNNNN",
"NNNNNNNNNNNNNNNNNNNNNNNNNNNNNNNNNNNNNNNNNNNNNNNNNNNNNNNNNNNNNNNN",
"NNNNNNNNNNNNNNNNNNNNNNNNNNNNNNNNNNNNNNNNNNNNNNNNNNNNNNNNNNNNNNNN",
"NNNNNNNNNNNNNNNNNNNNNNNNNNNNNNNNNNNNNNNNNNNNNNNNNNNNNNNNNNNNNNNN",
"NNNNNNNNNNNNNNNNNNNNNNNNNNNNNNNNNNNNNNNNNNNNNNNNNNNNNNNNNNNNNNNN",
"NNNNNNNNNNNNNNNNNNNNNNNNNNNNNNNNNNNNNNNNNNNNNNNNNNNNNNNNNNNNNNNN"
};
