/* XPM */
static char *exit6[] = {
/* columns rows colors chars-per-pixel */
"64 64 79 1 ",
"  c black",
". c #1A1625",
"X c #1C1729",
"o c #1E182C",
"O c #201930",
"+ c #211931",
"@ c #221A33",
"# c #231A34",
"$ c #231A35",
"% c #241B37",
"& c #261B39",
"* c #271C3B",
"= c #291C3E",
"- c #2B1D42",
"; c #2D1E45",
": c #2E1F48",
"> c #2F1F49",
", c #30204A",
"< c #30204B",
"1 c #32204D",
"2 c #32214E",
"3 c #332150",
"4 c #352253",
"5 c #352254",
"6 c #362255",
"7 c #372356",
"8 c #382358",
"9 c #39245B",
"0 c #3A245B",
"q c #3A245C",
"w c #3B245D",
"e c #3F2560",
"r c #412561",
"t c #492564",
"y c #4B2465",
"u c #502467",
"i c #552469",
"p c #5C246C",
"a c #5E246D",
"s c #60246E",
"d c #672371",
"f c #642470",
"g c #692372",
"h c #6F2375",
"j c #702375",
"k c #742377",
"l c #7A257C",
"z c #7B257D",
"x c #7D267F",
"c c #7E2781",
"v c #802883",
"b c #822985",
"n c #872C8C",
"m c #8B2E92",
"M c #8C2E93",
"N c #8D2F94",
"B c #8E2F95",
"V c #903097",
"C c #93329C",
"Z c #96339F",
"A c #9835A2",
"S c #9C36A6",
"D c #A23AAE",
"F c #A63CB3",
"G c #B248AF",
"H c #B54BAF",
"J c #B84EAE",
"K c #BD53AD",
"L c #BF55AC",
"P c #AC42B1",
"I c #B147B0",
"U c #C056AC",
"Y c #C55BAA",
"T c #CB61A9",
"R c #CC62A8",
"E c #D167A7",
"W c #D269A6",
"Q c #D76DA5",
"! c None",
/* pixels */
"!!!!!!!!!!!!!!!!!!!!!!!!!!!!!!!!!!!!!!!!!!!!!!!!!!!!!!!!!!!!!!!!",
"!!!!!!!!!!!!!!!!!!!!!!!!!!!!!!!!!!!!!!!!!!!!!!!!!!!!!!!!!!!!!!!!",
"!!!!!!!!!!!!!!!!!!!!!!!!!!!!!!!!!!!!!!!!!!!!!!!!!!!!!!!!!!!!!!!!",
"!!!!!!!!!!!!!!!!!!!!!!!!!!!!!!!!!!!!!!!!!!!!!!!!!!!!!!!!!!!!!!!!",
"!!!!!!!!!!!!!!!!!!!!!!!!!!!!!!!!!!!!!!!!!!!!!!!!!!!!!!!!!!!!!!!!",
"!!!!!!!!!!!!!!!!!!!!!!!!!!!!!!!!!!!!!!!!!!!!!!!!!!!!!!!!!!!!!!!!",
"!!!!!!!!!!!!!!!!!!!!!!!!!!!!!!!!!!!!!!!!!!!!!!!!!!!!!!!!!!!!!!!!",
"!!!!!!!!!!!!!!!!!!!!!!!!!!!!!!!!!!!!!!!!!!!!!!!!!!!!!!!!!!!!!!!!",
"!!!!!!!!!!!!!!!!!!!!!!!!!!!!!!!!!!!!!!!!!!!!!!!!!!!!!!!!!!!!!!!!",
"!!!!!!!!!!!!!!!!!!!!!!!!KK!!!!!!!!!!!!!!!!!!!!!!!!!!!!!!!!!!!!!!",
"!!!!!!!!!!!!!!!!!!!KKKKKKKKKKKKK!!!!!!!!!!!!!!!!!!!!!!!!!!!!!!!!",
"!!!!!!!!!!!!!!!!!KKKKKKKKKKKKKKKKK!!!!!!!!!!!!!!!!!!!!!!!!!!!!!!",
"!!!!!!!!!!!!!!!!KKKKKKKKKKKKJGKKKKK!!!!!!!!!!!!!!!!!!!!!!!!!!!!!",
"!!!!!!!!!!!!!!KKKKKKJJJGGGGGDlHCKKKK!!!!!!!!!!!!!!!!!!!!!!!!!!!!",
"!!!!!!!!!!!!!!KKKKKHGGG!!!!!!!AbGGKKK!!!!!!!!!!!!!!!!!!!!!!!!!!!",
"!!!!!!!!!!!!!KKKKHGGG!!!!!!!!!!IyAcKK!!!!!!!!!!!!!!!!!!!!!!!!!!!",
"!!!!!!!!!!!!KKKKGGG!!!!!!!!!!!!!!415HK!!!!!!!!!!!!!!!!!!!!!!!!!!",
"!!!!!!!!!!!KKKJHGG!!!!!!!!!!!!!!!!1<-n!!!!!!!!!!!!!!!!!!!!!!!!!!",
"!!!!!!!!!!KKKJGG!!!!!!!!!JJUTQQQ!!!!<:!!m!!!!!!!!!!!!!!!!!!!!!!!",
"!!!!!!!!!KKKKGG!!!!!!!!JJJWWGQQQQ!!!!<<!!m!!!!!!!!!!!!!!!!!!!!!!",
"!!!!!!!!!KKKGG!!!!!!!!JHGV!!!*!RWQ!!!q9!!mm!!!!!!!!!!!!!!!!!!!!!",
"!!!!!!!!KKKHG!!!!!!!!JGA!!!!!!! uWQ!!!92!mm!!!!!!!!!!!!!!!!!!!!!",
"!!!!!!!!KKJG!!!!!!!!JD!!!!!!!!!!.jQQ!!q5!mm!!!!!!!!!!!!!!!!!!!!!",
"!!!!!!!KKKGG!!!!!!!JG!!!!!!!!!!!!.bQQ!!9:Mm!!!!!!!!!!!!!!!!!!!!!",
"!!!!!!!KKHG!!!!!!!!JJ!!!!!!!!!!!!!sWW!!8<Mm!!!!!!!!!!!!!!!!!!!!!",
"!!!!!!!KKHG!!!!!!!JJ!!!!!!!!!!!!!!.YR!!qq!m!!!!!!!!!!!!!!!!!!!!!",
"!!!!!!!KJG!!!!!!!!J!!!!!!!!!yy!<!!!YQ!!q9lmm!!!!!!!!!!!!!!!!!!!!",
"!!!!!!!KGG!!!!!!!JJ!!!!!!!!!8885l!!uY!!w9bmm!!!!!!!!!!!!!!!!!!!!",
"!!!!!!!JG!!!!!!!!JV!!!!!!!!;5hky8!!Lr!!p9cMm!!!!!!!!!!!!!!!!!!!!",
"!!!!!!!PG!!!!!!!!!!!!!!!...c<p;35pf78hmkfnmm!J!!!!!!!!!!!!!!!!!!",
"!!!!!!!HG!!!!!!!!!!!!!!!..jn@$!!!:y7rnmMNmm!!J!!!!!!!!!!!!!!!!!!",
"!!!!!!!IG!!!!!!!!!!!!!!...mm1x<!<-X.ymmmmmm!!!!!!!!!!!!!!!!!!!!!",
"!!!!!!!IG!!!!!!!!!!!!!!@.;mMni4!@O$1clmmmmm!HK!!!!!!!!!!!!!!!!!!",
"!!!!!!!G!!!!!!!!!!!!!!88.xnlg!!s4uyNd:mmmm!!HK!!!!!!!!!!!!!!!!!!",
"!!!!!!!G!!!!!!!!!!!!!!84.xv9!!!!!!!!<!!mmm!GJK!!!!!!!!!!!!!!!!!!",
"!!!!!!!P!!!!!!!!!!!!!84LUlb9!!!!!!!!!!!mm!!GK!!!!!!!!!!!!!!!!!!!",
"!!!!!!!P!!!!!!!!!!!!!9rRQkm41!!!!!!x!!mpm!GKK!!!!!!!!!!!!!!!!!!!",
"!!!!!!!!!!!!!!!!!!!!!5lQLpMpq!75xxxx!!MN!GJK!!!!!!!!!!!!!!!!!!!!",
"!!!!!!!!!!!!!!!!!!!!!AYQ.%!!8155xxxx!!!!GJKK!!!!!!!!!!!!!!!!!!!!",
"!!!!!!!!!!!!!!!!!!!!!YQQ.!!c!55!!!!!!!hGHKK!!!!!!!!!!!!VJ!!!!!!!",
"!!!!!!!F!!!!!!!!!!!!!YQQ.!!!!JGigvppp!GJKKK!!!!!!!!!!!!HJ!!!!!!!",
"!!!!!!!F!!!!!!!!!!!!!YQQ..!!!!KKNJJJJHKKKK!!!!!!!!!!!!!GJ!!!!!!!",
"!!!!!!!!!!!!!!!!!!!!!WQQn.!!!!!!KKKKKKKK!!!!!!!!!!!!!!SJJ!!!!!!!",
"!!!!!!!!!!!!!!!!!!!!!!QQY.!!!!!!!!K!!!!!!!!!!!!!!!!!!!HJ!!!!!!!!",
"!!!!!!!!!!!!!!!!!!!!!!QQR*.!!!!!!!!!!!!!!!!!!!!!!!!!!JJJ!!!!!!!!",
"!!!!!!!!!!!!!!!!!!!!!!QQQg.!!!!!!!!!!!!!!!!!!!!!!!!!ZGJ!!!!!!!!!",
"!!!!!!!!!!!!!!!!!!!!!!QQQY..!!!!!!!!!!!!!!!!!!!!!!!!GJJ!!!!!!!!!",
"!!!!!!!!!!!!!!!!!!!!!!!QQQK.!!!!!!!!!!!!!!!!!!!!!!!PJJ!!!!!!!!!!",
"!!!!!!!!!!!!!!!!!!!!!!!QQQR&.!!!!!!!!!!!!!!!!!!!!!SJJ!!!!!!!!!!!",
"!!!!!!!!!!!!!!!!!!!!!!!!QQQV..!!!!!!!!!!!!!!!!!!!SJJ!!!!!!!!!!!!",
"!!!!!!!!!!!!!!!!!!!!!!!!QQQQUu..!!!!!!!!!!!!!!!!ZHJJ!!!!!!!!!!!!",
"!!!!!!!!!!!!!!!!!!!!!!!!!QQQQW!o..!!!!!!!!!!!!VGHJJ!!!!!!!!!!!!!",
"!!!!!!!!!!!!!!!!!!!!!!!!!!QQQQQ!!=.!!!!!!!!!!ZJJJJ!!!!!!!!!!!!!!",
"!!!!!!!!!!!!!!!!!!!!!!!!!!!QQQQQQQ!!!!!!!!ZSDJJJJ!!!!!!!!!!!!!!!",
"!!!!!!!!!!!!!!!!!!!!!!!!!!!!QQQQQQQRYYYGPPGJJJJJ!!!!!!!!!!!!!!!!",
"!!!!!!!!!!!!!!!!!!!!!!!!!!!!!!QQQQWKKKKJJJJJJ!!!!!!!!!!!!!!!!!!!",
"!!!!!!!!!!!!!!!!!!!!!!!!!!!!!!!!QQQQKJJJJJJJ!!!!!!!!!!!!!!!!!!!!",
"!!!!!!!!!!!!!!!!!!!!!!!!!!!!!!!!!!QQEJJJJ!!!!!!!!!!!!!!!!!!!!!!!",
"!!!!!!!!!!!!!!!!!!!!!!!!!!!!!!!!!!!!!!!!!!!!!!!!!!!!!!!!!!!!!!!!",
"!!!!!!!!!!!!!!!!!!!!!!!!!!!!!!!!!!!!!!!!!!!!!!!!!!!!!!!!!!!!!!!!",
"!!!!!!!!!!!!!!!!!!!!!!!!!!!!!!!!!!!!!!!!!!!!!!!!!!!!!!!!!!!!!!!!",
"!!!!!!!!!!!!!!!!!!!!!!!!!!!!!!!!!!!!!!!!!!!!!!!!!!!!!!!!!!!!!!!!",
"!!!!!!!!!!!!!!!!!!!!!!!!!!!!!!!!!!!!!!!!!!!!!!!!!!!!!!!!!!!!!!!!",
"!!!!!!!!!!!!!!!!!!!!!!!!!!!!!!!!!!!!!!!!!!!!!!!!!!!!!!!!!!!!!!!!"
};
