/* XPM */
static char *exit13[] = {
/* columns rows colors chars-per-pixel */
"64 64 79 1 ",
"  c black",
". c #1A1625",
"X c #1C1729",
"o c #1E182C",
"O c #20192F",
"+ c #201930",
"@ c #211931",
"# c #231A34",
"$ c #231A35",
"% c #241B37",
"& c #251B38",
"* c #261B39",
"= c #261B3A",
"- c #271C3B",
"; c #281C3D",
": c #291C3E",
"> c #291D3F",
", c #2B1D41",
"< c #2B1D42",
"1 c #2D1E45",
"2 c #2D1F46",
"3 c #2E1F47",
"4 c #2E1F48",
"5 c #2F1F49",
"6 c #30204B",
"7 c #32204D",
"8 c #32214E",
"9 c #332150",
"0 c #342252",
"q c #352253",
"w c #352254",
"e c #362255",
"r c #372356",
"t c #382358",
"y c #39245B",
"u c #3A245B",
"i c #3A245C",
"p c #3B245D",
"a c #3B255E",
"s c #3F2560",
"d c #412561",
"f c #492564",
"g c #4D2466",
"h c #502467",
"j c #5C246C",
"k c #5E246D",
"l c #60246E",
"z c #642470",
"x c #692372",
"c c #6D2374",
"v c #6F2375",
"b c #702375",
"n c #7A257C",
"m c #7B257D",
"M c #7C257E",
"N c #8B2E92",
"B c #8D2F94",
"V c #9E38A9",
"C c #A73DB3",
"Z c #B248AF",
"A c #B54BAF",
"S c #B84EAE",
"D c #BD53AD",
"F c #BF55AC",
"G c #AC42B1",
"H c #B147B0",
"J c #C056AC",
"K c #C55BAA",
"L c #CB61A9",
"P c #CF65A8",
"I c #D167A7",
"U c #D269A6",
"Y c #D76DA5",
"T c #DF86B4",
"R c #E18CB8",
"E c #E290BA",
"W c #E59AC0",
"Q c #E8A3C6",
"! c None",
/* pixels */
"!!!!!!!!!!!!!!!!!!!!!!!!!!!!!!!!!!!!!!!!!!!!!!!!!!!!!!!!!!!!!!!!",
"!!!!!!!!!!!!!!!!!!!!!!!!!!!!!!!!!!!!!!!!!!!!!!!!!!!!!!!!!!!!!!!!",
"!!!!!!!!!!!!!!!!!!!!!!!!!!!!!!!!!!!!!!!!!!!!!!!!!!!!!!!!!!!!!!!!",
"!!!!!!!!!!!!!!!!!!!!!!!!!!!!!!!!!!!!!!!!!!!!!!!!!!!!!!!!!!!!!!!!",
"!!!!!!!!!!!!!!!!!!!!!!!!!!!!!!!!!!!!!!!!!!!!!!!!!!!!!!!!!!!!!!!!",
"!!!!!!!!!!!!!!!!!!!!!!!!!!!!!!!!!!!!!!!!!!!!!!!!!!!!!!!!!!!!!!!!",
"!!!!!!!!!!!!!!!!!!!!!!!!!!!!!!!!!!!!!!!!!!!!!!!!!!!!!!!!!!!!!!!!",
"!!!!!!!!!!!!!!!!!!!!!!!!!!!!!!!!!!!!!!!!!!!!!!!!!!!!!!!!!!!!!!!!",
"!!!!!!!!!!!!!!!!!!!!!!!!!!!!!!!!!!!!!!!!!!!!!!!!!!!!!!!!!!!!!!!!",
"!!!!!!!!!!!!!!!!!!!!!!!!!!!!!!!!!!!!!!!!!!!!!!!!!!!!!!!!!!!!!!!!",
"!!!!!!!!!!!!!!!!!!!!EEEEEEEEEEEE!!!!!!!!!!!!!!!!!!!!!!!!!!!!!!!!",
"!!!!!!!!!!!!!!!!!!ITEEEEEEEEEEEREEE!!!!!!!!!!!!!!!!!!!!!!!!!!!!!",
"!!!!!!!!!!!!!!!!!TEEERTTRTTTRTRREEE!!!!!!!!!!!!!!!!!!!!!!!!!!!!!",
"!!!!!!!!!!!!!!!PYRETTDCCNNNNNVRREEEEE!!!!!!!!!!!!!!!!!!!!!!!!!!!",
"!!!!!!!!!!!!!!PTEELA!!!!!.....8b!EEEEE!!!!!!!!!!!!!!!!!!!!!!!!!!",
"!!!!!!!!!!!!!PYRTSG!!!!!!O!!!!...!!EEEE!!!!!!!!!!!!!!!!!!!!!!!!!",
"!!!!!!!!!!!!PURJH!!!!!!!!!!!!!!!..O!EEE!!!!!!!!!!!!!!!!!!!!!!!!!",
"!!!!!!!!!!!PITPG!!!!!!!!!!!!!!!!!!..!EEE!!!!!!!!!!!!!!!!!!!!!!!!",
"!!!!!!!!!!PPTZ!!!!!!!!!!QQQWWW!!!!.. TEE!!!!!!!!!!!!!!!!!!!!!!!!",
"!!!!!!!!!PPTA!!!!!!!!!!QQWWWWWWWW!!..fREE!!!!!!!!!!!!!!!!!!!!!!!",
"!!!!!!!!!PYJG!!!!!!!!QQWWW!!!!WWW!!!<.bRE!!!!!!!!!!!!!!!!!!!!!!!",
"!!!!!!!!!PRS!!!!!!!!QQWW!!!!!!!!!W!!!*.FU!!!!!!!!!!!!!!!!!!!!!!!",
"!!!!!!!!PPJG!!!!!!!!QW!!!!!!!!!!!!!!!4..<p!!!!!!!!!!!!!!!!!!!!!!",
"!!!!!!!PPSG!!!!!!!!Q!!!!!!!!!!!!!!!!!!;.-s!!!!!!!!!!!!!!!!!!!!!!",
"!!!!!!!PPA!!!!!!!!!!!!!!!!!!!!!!!!!!!!<.-ad!!!!!!!!!!!!!!!!!!!!!",
"!!!!!!!PKG!!!!!!!!!!!!!!!!!!!!!!!!!!!!3@$pd!!!!!!!!!!!!!!!!!!!!!",
"!!!!!!!PS!!!!!!!!!!!!!!!!!!!.X;;w!!!!24;.;s!!!!!!!!!!!!!!!!!!!!!",
"!!!!!!!PG!!!!!!!!!!!!!!!!ooolt8l*O0!!555..s!!!!!!!!!!!!!!!!!!!!!",
"!!!!!!!GG!!!!!!!!!!!!!!!!$*Opprcz%;!!334..s!!!!!!!!!!!!!!!!!!!!!",
"!!!!!!!G!!!!!!!!!!!!!!!!@ps%prgMpu<4!844..s!!!!!!!!!!!!!!!!!!!!!",
"!!!!!!!G!!!!!!!!!!!!!!!!td;o<9!!!p8pp94*..!!!!!!!!!!!!!!!!!!!!!!",
"!!!!!!!!!!!!!!!!!!!!!!!pd!.;%!!!!s8s<!4+..!!!!!!!!!!!!!!!!!!!!!!",
"!!!!!!!!!!!!!!!!!!!!!!!d!!.<5uu!mm3;0!4@..!!!K!!!!!!!!!!!!!!!!!!",
"!!!!!!!!!!!!!!!!!!!!!!!!!!.<5w%5xx@;9@;X..!!AP!!!!!!!!!!!!!!!!!!",
"!!!!!!!!!!!!!!!!!!!!!!!!!!2<2!!!w08w$.....!!AP!!!!!!!!!!!!!!!!!!",
"!!!!!!!!!!!!!!!!!!!!!!!!!!ro2u!!!w0;%uXX.!!GT!!!!!!!!!!!!!!!!!!!",
"!!!!!!!!!!!!!!!!!!!!!!!!!!s-@p!!!85wppXX.!!ZU!!!!!!!!!!!!!!!!!!!",
"!!!!!!!!!!!!!!!!!!!!!!!!!!!<.;MM.=5app-.!!YL!!!!!!!!!!!!!!!!!!!!",
"!!!!!!!!!!!!!!!!!!!!!!!!!!!UUjjM.rsapp!!!CTP!!!!!!!!!!!!!!!!!!!!",
"!!!!!!!!!!!!!!!!!!!!!!!!!!!!E!;c.9sp!!!!JTU!!!!!!!!!!!!!!!!!!!!!",
"!!!!!!!!!!!!!!!!!!!!!!!!!!!!EERz..c8h!!DEY!!!!!!!!!!!!!!!!!!!!!!",
"!!!!!!!!!!!!!!!!!!!!!!!!!!!!!!EEUUBBLLUEE!!!!!!!!!!!!!!!!!!!!!!!",
"!!!!!!!!!!!!!!!!!!!!!!!!!!!!!!!EEEEEEEE!!!!!!!!!!!!!!!!!!!!!!!!!",
"!!!!!!!!!!!!!!!!!!!!!!!!!!!!!!!!!!E!!!!!!!!!!!!!!!!!!!!!!!!!!!!!",
"!!!!!!!!!!!!!!!!!!!!!!!!!!!!!!!!!!!!!!!!!!!!!!!!!!!!!!!!!!!!!!!!",
"!!!!!!!!!!!!!!!!!!!!!!!!W!!!!!!!!!!!!!!!!!!!!!!!!!!!!!!!!!!!!!!!",
"!!!!!!!!!!!!!!!!!!!!!!!!!W!!!!!!!!!!!!!!!!!!!!!!!!!!!!QQ!!!!!!!!",
"!!!!!!!!!!!!!!!!!!!!!!!!!WW!!!!!!!!!!!!!!!!!!!!!!!!!!QQ!!!!!!!!!",
"!!!!!!!!!!!!!!!!!!!!!!!!!WW!!!!!!!!!!!!!!!!!!!!!!!!!QQ!!!!!!!!!!",
"!!!!!!!!!!!!!!!!!!!!!!!!!!WW!!!!!!!!!!!!!!!!!!!!!!WQQ!!!!!!!!!!!",
"!!!!!!!!!!!!!!!!!!!!!!!!!!WWWW!!!!!!!!!!!!!!!!!!!WQQQ!!!!!!!!!!!",
"!!!!!!!!!!!!!!!!!!!!!!!!!!!WWWW!!!!!!!!!!!!!!!!WWQQQ!!!!!!!!!!!!",
"!!!!!!!!!!!!!!!!!!!!!!!!!!!WWWWWW!!!!!!!!!!!!WWWQQQ!!!!!!!!!!!!!",
"!!!!!!!!!!!!!!!!!!!!!!!!!!!!WWWWWWWW!!!!!WWWWWQQQQ!!!!!!!!!!!!!!",
"!!!!!!!!!!!!!!!!!!!!!!!!!!!!!!WWWWWWWWWWWWWWQQQQ!!!!!!!!!!!!!!!!",
"!!!!!!!!!!!!!!!!!!!!!!!!!!!!!!!!WWWWWWWWWQQQQQQ!!!!!!!!!!!!!!!!!",
"!!!!!!!!!!!!!!!!!!!!!!!!!!!!!!!!!!!WQQQQQQQQQ!!!!!!!!!!!!!!!!!!!",
"!!!!!!!!!!!!!!!!!!!!!!!!!!!!!!!!!!!!!QQQQQQQ!!!!!!!!!!!!!!!!!!!!",
"!!!!!!!!!!!!!!!!!!!!!!!!!!!!!!!!!!!!!!!!!!!!!!!!!!!!!!!!!!!!!!!!",
"!!!!!!!!!!!!!!!!!!!!!!!!!!!!!!!!!!!!!!!!!!!!!!!!!!!!!!!!!!!!!!!!",
"!!!!!!!!!!!!!!!!!!!!!!!!!!!!!!!!!!!!!!!!!!!!!!!!!!!!!!!!!!!!!!!!",
"!!!!!!!!!!!!!!!!!!!!!!!!!!!!!!!!!!!!!!!!!!!!!!!!!!!!!!!!!!!!!!!!",
"!!!!!!!!!!!!!!!!!!!!!!!!!!!!!!!!!!!!!!!!!!!!!!!!!!!!!!!!!!!!!!!!",
"!!!!!!!!!!!!!!!!!!!!!!!!!!!!!!!!!!!!!!!!!!!!!!!!!!!!!!!!!!!!!!!!"
};
