/* XPM */
static char *exit16[] = {
/* columns rows colors chars-per-pixel */
"64 64 63 1 ",
"  c #1A1625",
". c #1C1729",
"X c #20192F",
"o c #231A34",
"O c #261B39",
"+ c #281C3D",
"@ c #291C3E",
"# c #291D3F",
"$ c #2B1D41",
"% c #2D1E45",
"& c #2E1F47",
"* c #32204D",
"= c #332150",
"- c #352253",
"; c #3A245B",
": c #3B245D",
"> c #492564",
", c #4D2466",
"< c #502467",
"1 c #552469",
"2 c #5C246C",
"3 c #5D246D",
"4 c #5E246D",
"5 c #60246E",
"6 c #672371",
"7 c #642470",
"8 c #692372",
"9 c #6D2374",
"0 c #742377",
"q c #7A257C",
"w c #7E2781",
"e c #802883",
"r c #822985",
"t c #872C8C",
"y c #8B2E92",
"u c #8C2E93",
"i c #8D2F94",
"p c #8E2F95",
"a c #903097",
"s c #93329C",
"d c #9835A2",
"f c #9C36A6",
"g c #9E38A9",
"h c #A23AAE",
"j c #A43BB1",
"k c #A73DB3",
"l c #B248AF",
"z c #B54BAF",
"x c #B84EAE",
"c c #BD53AD",
"v c #BF55AC",
"b c #AC42B1",
"n c #B147B0",
"m c #C056AC",
"M c #C55BAA",
"N c #CC62A8",
"B c #D269A6",
"V c #D76DA5",
"C c #DF86B4",
"Z c #E18CB8",
"A c #E290BA",
"S c #E393BC",
"D c None",
/* pixels */
"DDDDDDDDDDDDDDDDDDDDDDDDDDDDDDDDDDDDDDDDDDDDDDDDDDDDDDDDDDDDDDDD",
"DDDDDDDDDDDDDDDDDDDDDDDDDDDDDDDDDDDDDDDDDDDDDDDDDDDDDDDDDDDDDDDD",
"DDDDDDDDDDDDDDDDDDDDDDDDDDDDDDDDDDDDDDDDDDDDDDDDDDDDDDDDDDDDDDDD",
"DDDDDDDDDDDDDDDDDDDDDDDDDDDDDDDDDDDDDDDDDDDDDDDDDDDDDDDDDDDDDDDD",
"DDDDDDDDDDDDDDDDDDDDDDDDDDDDDDDDDDDDDDDDDDDDDDDDDDDDDDDDDDDDDDDD",
"DDDDDDDDDDDDDDDDDDDDDDDDDDDDDDDDDDDDDDDDDDDDDDDDDDDDDDDDDDDDDDDD",
"DDDDDDDDDDDDDDDDDDDDDDDDDDDDDDDDDDDDDDDDDDDDDDDDDDDDDDDDDDDDDDDD",
"DDDDDDDDDDDDDDDDDDDDDDDDDDDDDDDDDDDDDDDDDDDDDDDDDDDDDDDDDDDDDDDD",
"DDDDDDDDDDDDDDDDDDDDDDDDDDDDDDDDDDDDDDDDDDDDDDDDDDDDDDDDDDDDDDDD",
"DDDDDDDDDDDDDDDDDDDDDDDDDDDDDDDDDDDDDDDDDDDDDDDDDDDDDDDDDDDDDDDD",
"DDDDDDDDDDDDDDDDDDDDiiiiiiiiiiiiDDDDDDDDDDDDDDDDDDDDDDDDDDDDDDDD",
"DDDDDDDDDDDDDDDDDDDiiiiiiiiiiiiiiiDDDDDDDDDDDDDDDDDDDDDDDDDDDDDD",
"DDDDDDDDDDDDDDDDDiiiiiytttttttiiiiiDDDDDDDDDDDDDDDDDDDDDDDDDDDDD",
"DDDDDDDDDDDDDDDDiiiiiDD2222222rriiiiiDDDDDDDDDDDDDDDDDDDDDDDDDDD",
"DDDDDDDDDDDDDDiiiiDDDDDDDDDDDDDD0tiiiiDDDDDDDDDDDDDDDDDDDDDDDDDD",
"DDDDDDDDDDDDDiiiiDDDDDDDDDDDDDDDD80yiiiDDDDDDDDDDDDDDDDDDDDDDDDD",
"DDDDDDDDDDDDDiiDDDDDDDDDDDDDDDDDDD25yiiDDDDDDDDDDDDDDDDDDDDDDDDD",
"DDDDDDDDDDDDiiDDDDDDDDDDDDDDDDDDDDDD6yiiDDDDDDDDDDDDDDDDDDDDDDDD",
"DDDDDDDDDDDiiDDDDDDDDDDDmCCCCcbbDDDD2tiiDDDDDDDDDDDDDDDDDDDDDDDD",
"DDDDDDDDDDDiDDDDDDDDDDDSZSDDVDDbbbbDD6uiiDDDDDDDDDDDDDDDDDDDDDDD",
"DDDDDDDDDDiDDDDDDDDDDSSCVB;;>D:DDbbDD2<wiDDDDDDDDDDDDDDDDDDDDDDD",
"DDDDDDDDDDiDDDDDDDDDSSAMBDDDDDDDDDbbDD1iiDDDDDDDDDDDDDDDDDDDDDDD",
"DDDDDDDDDDDDDDDDDDDDSNCDDDDDDDDDDDbbDD2rgiDDDDDDDDDDDDDDDDDDDDDD",
"DDDDDDDDDDDDDDDDDDDSACDDDDDDDDDDDDDbbDD5biDDDDDDDDDDDDDDDDDDDDDD",
"DDDDDDDDDDDDDDDDDDDSADDDDDDDDDDDDDDDbDDlbilDDDDDDDDDDDDDDDDDDDDD",
"DDDDDDDDDDDDDDDDDDSADDDDDDDDDDDDDDDDbDDzlddDDDDDDDDDDDDDDDDDDDDD",
"DDDDDDDDDDDDDDDDDDSCDDDDDDDDDDDDDDDDbDDzzzdDDDDDDDDDDDDDDDDDDDDD",
"DDDDDDDDDDDDDDDDDSADDDDDDDDDD   DofDDDDzzzdDDDDDDDDDDDDDDDDDDDDD",
"DDDDDDDDDDDDDDDDDSZDDDDDDDDD$X  1f2bbbDzzzgDDDDDDDDDDDDDDDDDDDDD",
"DDDDDDDDDDDDDDDDDSCDDDDDDDdw  DD5DtbiDzzzzzDDDDDDDDDDDDDDDDDDDDD",
"DDDDDDDDDDDDDDDDDDCDDDDDDDql  DDDDbh<zzzgzqDDDDDDDDDDDDDCDDDDDDD",
"DDDDDDDDDDDDDDDDDSCDDDDDDglzD-DDDDgq9zDzlz%DDDDDDDDDDDDDCDDDDDDD",
"DDDDDDDDDDDDDDDDDADDDDD#ggllD8DDDDg7.dDgzz%DDDDDDDDDDDDDCDDDDDDD",
"DDDDDDDDDDDDDDDDDDCDDDDejbllDD DDDD-  dzzdDDDDDDDDDDDDDDCDDDDDDD",
"DDDDDDDDDDDDDDDDDDDDDDDbbtzzDDDDDDDD  2zb<DDDDDDDDDDDDDDCDDDDDDD",
"DDDDDDDDDDDDDDDDDDDDDDbbbhzzg2DDDDDD  2l<DDDiDDDDDDDDDDCZDDDDDDD",
"DDDDDDDDDDDDDDDDDDDD7bbbbbbbd2$DDDD   %*%DDDDDDDDDDDDDDCZDDDDDDD",
"DDDDDDDDDDDDDDDDDDDDDbbbDDdg5<      .o%%DDDiDDDDDDDDDDDCSDDDDDDD",
"DDDDDDDDDDDDDDDDDDDDDbbDDDgsq2      #ODDDDiDDDDDDDDDDDZCSDDDDDDD",
"DDDDDDDDDDDDDDDDDDDDDbbDDDDDi0DD-   DDDDDiiDDDDDDDDDDDZZSDDDDDDD",
"DDDDDDDDDDDDDDDDDDDDDbbDDDDDiutDDDDDDDDDiDDDDDDDDDDDDDCASDDDDDDD",
"DDDDDDDDDDDDDDDDDDDDDbbDDDDDDDiiqqDD00iiiDDDDDDDDDDDDCCSSDDDDDDD",
"DDDDDDDDDDDDDDDDDDDDDbbDDDDDDDDDiiiiiiiDDDDDDDDDDDDDDCASSDDDDDDD",
"DDDDDDDDDDDDDDDDDDDDDbbDDDDDDDDDDDiDDDDDDDDDDDDDDDDDCCSSSDDDDDDD",
"DDDDDDDDDDDDDDDDDDDDDbbDDDDDDDDDDDDDDDDDDDDDDDDDDDDDCASSSDDDDDDD",
"DDDDDDDDDDDDDDDDDDDDDbbbDDDDDDDDDDDDDDDDDDDDDDDDDDDCCASSDDDDDDDD",
"DDDDDDDDDDDDDDDDDDDDDbbbDDDDDDDDDDDDDDDDDDDDDDDDDDCCASSDDDDDDDDD",
"DDDDDDDDDDDDDDDDDDDDDDbbbDDDDDDDDDDDDDDDDDDDDDDDDCCASSSDDDDDDDDD",
"DDDDDDDDDDDDDDDDDDDDDDbbbDDDDDDDDDDDDDDDDDDDDDDDCCZSSSDDDDDDDDDD",
"DDDDDDDDDDDDDDDDDDDDDDDbbbDDDDDDDDDDDDDDDDDDDDDCCCSSSDDDDDDDDDDD",
"DDDDDDDDDDDDDDDDDDDDDDDbbbbDDDDDDDDDDDDDDDDDDDCCvZSSDDDDDDDDDDDD",
"DDDDDDDDDDDDDDDDDDDDDDDDbbbbDDDDDDDDDDDDDDDDCCVCCSSDDDDDDDDDDDDD",
"DDDDDDDDDDDDDDDDDDDDDDDDDbbbbDDD>DDDDDDDDwsCCvSSSSSDDDDDDDDDDDDD",
"DDDDDDDDDDDDDDDDDDDDDDDDDDbbbbDD8>,tsssaCBBZNSSSSSDDDDDDDDDDDDDD",
"DDDDDDDDDDDDDDDDDDDDDDDDDDDbbbbbDDDDDDDAAVVSSSSSDDDDDDDDDDDDDDDD",
"DDDDDDDDDDDDDDDDDDDDDDDDDDDDbbbbbbAASSSSSSSSSScDDDDDDDDDDDDDDDDD",
"DDDDDDDDDDDDDDDDDDDDDDDDDDDDDbbbbbnnZSSSSSZASDDDDDDDDDDDDDDDDDDD",
"DDDDDDDDDDDDDDDDDDDDDDDDDDDDDDDbbbbbxCCCSSkDDDDDDDDDDDDDDDDDDDDD",
"DDDDDDDDDDDDDDDDDDDDDDDDDDDDDDDDDDDDDDDDDDDDDDDDDDDDDDDDDDDDDDDD",
"DDDDDDDDDDDDDDDDDDDDDDDDDDDDDDDDDDDDDDDDDDDDDDDDDDDDDDDDDDDDDDDD",
"DDDDDDDDDDDDDDDDDDDDDDDDDDDDDDDDDDDDDDDDDDDDDDDDDDDDDDDDDDDDDDDD",
"DDDDDDDDDDDDDDDDDDDDDDDDDDDDDDDDDDDDDDDDDDDDDDDDDDDDDDDDDDDDDDDD",
"DDDDDDDDDDDDDDDDDDDDDDDDDDDDDDDDDDDDDDDDDDDDDDDDDDDDDDDDDDDDDDDD",
"DDDDDDDDDDDDDDDDDDDDDDDDDDDDDDDDDDDDDDDDDDDDDDDDDDDDDDDDDDDDDDDD"
};
