/* XPM */
static char *exit17[] = {
/* columns rows colors chars-per-pixel */
"64 64 63 1 ",
"  c #1A1625",
". c #1C1729",
"X c #1E182C",
"o c #201930",
"O c #221A33",
"+ c #231A34",
"@ c #231A35",
"# c #261B39",
"$ c #261B3A",
"% c #271C3B",
"& c #2B1D41",
"* c #2B1D42",
"= c #2D1E45",
"- c #2E1F47",
"; c #332150",
": c #342252",
"> c #382358",
", c #3A245B",
"< c #3F2560",
"1 c #412561",
"2 c #492564",
"3 c #4B2465",
"4 c #502467",
"5 c #552469",
"6 c #5C246C",
"7 c #672371",
"8 c #692372",
"9 c #6D2374",
"0 c #6F2375",
"q c #742377",
"w c #7A257C",
"e c #7B257D",
"r c #7C257E",
"t c #7E2781",
"y c #802883",
"u c #822985",
"i c #872C8C",
"p c #8B2E92",
"a c #8C2E93",
"s c #8D2F94",
"d c #903097",
"f c #93329C",
"g c #96339F",
"h c #9835A2",
"j c #9C36A6",
"k c #9E38A9",
"l c #A23AAE",
"z c #A43BB1",
"x c #A63CB3",
"c c #B248AF",
"v c #B54BAF",
"b c #B84EAE",
"n c #BD53AD",
"m c #BF55AC",
"M c #AC42B1",
"N c #C056AC",
"B c #C55BAA",
"V c #CB61A9",
"C c #CC62A8",
"Z c #CF65A8",
"A c #D167A7",
"S c #D269A6",
"D c None",
/* pixels */
"DDDDDDDDDDDDDDDDDDDDDDDDDDDDDDDDDDDDDDDDDDDDDDDDDDDDDDDDDDDDDDDD",
"DDDDDDDDDDDDDDDDDDDDDDDDDDDDDDDDDDDDDDDDDDDDDDDDDDDDDDDDDDDDDDDD",
"DDDDDDDDDDDDDDDDDDDDDDDDDDDDDDDDDDDDDDDDDDDDDDDDDDDDDDDDDDDDDDDD",
"DDDDDDDDDDDDDDDDDDDDDDDDDDDDDDDDDDDDDDDDDDDDDDDDDDDDDDDDDDDDDDDD",
"DDDDDDDDDDDDDDDDDDDDDDDDDDDDDDDDDDDDDDDDDDDDDDDDDDDDDDDDDDDDDDDD",
"DDDDDDDDDDDDDDDDDDDDDDDDDDDDDDDDDDDDDDDDDDDDDDDDDDDDDDDDDDDDDDDD",
"DDDDDDDDDDDDDDDDDDDDDDDDDDDDDDDDDDDDDDDDDDDDDDDDDDDDDDDDDDDDDDDD",
"DDDDDDDDDDDDDDDDDDDDDDDDDDDDDDDDDDDDDDDDDDDDDDDDDDDDDDDDDDDDDDDD",
"DDDDDDDDDDDDDDDDDDDDDDDDDDDDDDDDDDDDDDDDDDDDDDDDDDDDDDDDDDDDDDDD",
"DDDDDDDDDDDDDDDDDDDDDDDDDDDDDDDDDDDDDDDDDDDDDDDDDDDDDDDDDDDDDDDD",
"DDDDDDDDDDDDDDDDDDDDDDDDDDDDrrrrDDDDDDDDDDDDDDDDDDDDDDDDDDDDDDDD",
"DDDDDDDDDDDDDDDDDDDDDDDDDDDDDDrrrrDDDDDDDDDDDDDDDDDDDDDDDDDDDDDD",
"DDDDDDDDDDDDDDDDDDDDDDDDDDDDDDDDrrrDDDDDDDDDDDDDDDDDDDDDDDDDDDDD",
"DDDDDDDDDDDDDDDDDDDDDDDDDDDDDDDDDrrrrDDDDDDDDDDDDDDDDDDDDDDDDDDD",
"DDDDDDDDDDDDDDDDDDDDDDDDDDDDDDDDDDDrrrDDDDDDDDDDDDDDDDDDDDDDDDDD",
"DDDDDDDDDDDDDDDDDDDDDDDDDDDDDDDDDDDDrrrDDDDDDDDDDDDDDDDDDDDDDDDD",
"DDDDDDDDDDDDDDDDDDDDDDDDDDDDDDDDDDDDDrrrDDDDDDDDDDDDDDDDDDDDDDDD",
"DDDDDDDDDDDDDDDDDDDDDDDDDDDDDDDDDDDDDrrrDDDDDDDDDDDDDDDDDDDDDDDD",
"DDDDDDDDDDDDDDDDDDDDDDDDSSSSSSZCDDDDDrrrrDDDDDDDDDDDDDDDDDDDDDDD",
"DDDDDDDDDDDDDDDDDDDDDDDSSSSSmBASBjDDDDrrrDDDDDDDDDDDDDDDDDDDDDDD",
"DDDDDDDDDDDDDDDDDDDDDSSSACVVV,mmCcjDDDDrrDDDDDDDDDDDDDDDDDDDDDDD",
"DDDDDDDDDDDDDDDDDDDDSSZZVDDDDDDD;BjjDDDrrrDDDDDDDDDDDDDDDDDDDDDD",
"DDDDDDDDDDDDDDDDDDDDSSVDDDDDDDDDDDjjDDDDrrDDDDDDDDDDDDDDDDDDDDDD",
"DDDDDDDDDDDDDDDDDDDSSZDDDDDDDDDDDDDjjDDDrrDDDDDDDDDDDDDDDDDDDDDD",
"DDDDDDDDDDDDDDDDDDDSADDDDDDDDDDDDDDdjDD2rrrDDDDDDDDDDDDDDDDDDDDD",
"DDDDDDDDDDDDDDDDDDSADDDDDDDDDDDDDDDjjDD0rrrDDDDDDDDDDDDDNDDDDDDD",
"DDDDDDDDDDDDDDDDDDSCDDDDDDDDDDDDDDDjjDD<rrrDDDDDDDDDDDDDNDDDDDDD",
"DDDDDDDDDDDDDDDDDSADDDDDDDDDD%@ DDDDjDD1rrrDDDDDDDDDDDDDDDDDDDDD",
"DDDDDDDDDDDDDDDDDSZDDDDDDDD2%X= DDjjjjD0ruuDDDDDDDDDDDDDDDDDDDDD",
"DDDDDDDDDDDDDDDDDSVDDDDDDDDh@2DDDDjjjllqejxDDDDDDDDDDDDDDDDDDDDD",
"DDDDDDDDDDDDDDDDDDVDDDDDDDzz80DDDDf0tzfeej0DDDDDDDDDDDDDVDDDDDDD",
"DDDDDDDDDDDDDDDDDSVDDDDDDDzzD*DDDDs =hDiiz$DDDDDDDDDDDDDVDDDDDDD",
"DDDDDDDDDDDDDDDDDADDDDDDDDkfD=DDDaso>fDzzz%DDDDDDDDDDDDDVDDDDDDD",
"DDDDDDDDDDDDDDDDDDVDDDjjDjj0p5DDDaDD>DDzzfDDDDDDDDDDDDDDVDDDDDDD",
"DDDDDDDDDDDDDDDDDDDDDDjjjji5DDDDDDDD$ zzx6DDDDDDDDDDDDDDCDDDDDDD",
"DDDDDDDDDDDDDDDDDDDDDjjjjjr5DDDDDDDD @zzfDDDDDDDDDDDDDDVCDDDDDDD",
"DDDDDDDDDDDDDDDDDDDDDjjjjjyr8DDDDDD %%zj=DDDDDDDDDDDDDDVZDDDDDDD",
"DDDDDDDDDDDDDDDDDDDDDjjjjjfrsDDDDD X%%p2DDDDDDDDDDDDDDDVSDDDDDDD",
"DDDDDDDDDDDDDDDDDDDDDjjjDDDreDw*  .$%%oDDDDDDDDDDDDDDDDVSDDDDDDD",
"DDDDDDDDDDDDDDDDDDDDDjjjDDDrrDDD @%%%DDDDDDDDDDDDDDDDDVZSDDDDDDD",
"DDDDDDDDDDDDDDDDDDDDDjjjDDDDrrDDDDDDDDDDDDDDDDDDDDDDDDVASDDDDDDD",
"DDDDDDDDDDDDDDDDDDDDDjjjDDDDDrrDDDDDDDDDDDDDDDDDDDDDDVCSSDDDDDDD",
"DDDDDDDDDDDDDDDDDDDDDjjj0DDDDDDDrrDDDDDDDDDDDDDDDDDDDVASSDDDDDDD",
"DDDDDDDDDDDDDDDDDDDDDjjj:DDDDDDDDDrDDDDDDDDDDDDDDDDDVVSSSDDDDDDD",
"DDDDDDDDDDDDDDDDDDDDDjjj4DDDDDDDDDDDDDDDDDDDDDDDDDDDVASSSDDDDDDD",
"DDDDDDDDDDDDDDDDDDDDDjjjfDDDDDDDDDDDDDDDDDDDDDDDDDDVZSSSDDDDDDDD",
"DDDDDDDDDDDDDDDDDDDDDjjjjDDDDDDDDDDDDDDDDDDDDDDDDDVZSSSDDDDDDDDD",
"DDDDDDDDDDDDDDDDDDDDDDjjjDDDDDDDDDDDDDDDDDDDDDDDDVCSSSSDDDDDDDDD",
"DDDDDDDDDDDDDDDDDDDDDDjjjDDDDDDDDDDDDDDDDDDDDDDDVCSSSSDDDDDDDDDD",
"DDDDDDDDDDDDDDDDDDDDDDDjjjD,DDDDDDDDDDDDDDDDDDDVCASSSDDDDDDDDDDD",
"DDDDDDDDDDDDDDDDDDDDDDDDjjSm<>DDDDDDDDDDDDDDDVVVASSSDDDDDDDDDDDD",
"DDDDDDDDDDDDDDDDDDDDDDDDDjbSCtBeVDDDDDDDDDDVVVCASSSDDDDDDDDDDDDD",
"DDDDDDDDDDDDDDDDDDDDDDDDDjMASABmcnDDDDDDDVVVCASSSSSDDDDDDDDDDDDD",
"DDDDDDDDDDDDDDDDDDDDDDDDDDjmSSSSpBcBVVVVVCZZSSSSSSDDDDDDDDDDDDDD",
"DDDDDDDDDDDDDDDDDDDDDDDDDDDjvCSSSSbCZZZZZASSSSSSDDDDDDDDDDDDDDDD",
"DDDDDDDDDDDDDDDDDDDDDDDDDDDDDlASSSSSSSSSSSSSSSSDDDDDDDDDDDDDDDDD",
"DDDDDDDDDDDDDDDDDDDDDDDDDDDDDDkSCSSSSSSSSSSSSDDDDDDDDDDDDDDDDDDD",
"DDDDDDDDDDDDDDDDDDDDDDDDDDDDDDDDDDSSSSSSSSSDDDDDDDDDDDDDDDDDDDDD",
"DDDDDDDDDDDDDDDDDDDDDDDDDDDDDDDDDDDDDDDDDDDDDDDDDDDDDDDDDDDDDDDD",
"DDDDDDDDDDDDDDDDDDDDDDDDDDDDDDDDDDDDDDDDDDDDDDDDDDDDDDDDDDDDDDDD",
"DDDDDDDDDDDDDDDDDDDDDDDDDDDDDDDDDDDDDDDDDDDDDDDDDDDDDDDDDDDDDDDD",
"DDDDDDDDDDDDDDDDDDDDDDDDDDDDDDDDDDDDDDDDDDDDDDDDDDDDDDDDDDDDDDDD",
"DDDDDDDDDDDDDDDDDDDDDDDDDDDDDDDDDDDDDDDDDDDDDDDDDDDDDDDDDDDDDDDD",
"DDDDDDDDDDDDDDDDDDDDDDDDDDDDDDDDDDDDDDDDDDDDDDDDDDDDDDDDDDDDDDDD"
};
