/* XPM */
static char *exit4[] = {
/* columns rows colors chars-per-pixel */
"64 64 84 1 ",
"  c black",
". c #1A1625",
"X c #1C1729",
"o c #1E182C",
"O c #20192F",
"+ c #201930",
"@ c #211930",
"# c #211931",
"$ c #221A33",
"% c #231A35",
"& c #241B37",
"* c #251B38",
"= c #261B39",
"- c #271C3B",
"; c #281C3D",
": c #291C3E",
"> c #2B1D41",
", c #2B1D42",
"< c #2D1E45",
"1 c #2E1F48",
"2 c #2F1F49",
"3 c #30204A",
"4 c #32204D",
"5 c #32214E",
"6 c #332150",
"7 c #342252",
"8 c #352253",
"9 c #352254",
"0 c #362255",
"q c #372356",
"w c #382358",
"e c #39245B",
"r c #3A245C",
"t c #3B245D",
"y c #3B255E",
"u c #412561",
"i c #492564",
"p c #4A2465",
"a c #4B2465",
"s c #4D2466",
"d c #502467",
"f c #512468",
"g c #552469",
"h c #5C246C",
"j c #5D246D",
"k c #642470",
"l c #692372",
"z c #6D2374",
"x c #6F2375",
"c c #702375",
"v c #7A257C",
"b c #822985",
"n c #8B2E92",
"m c #8D2F94",
"M c #93329C",
"N c #9835A2",
"B c #9C36A6",
"V c #9E38A9",
"C c #A23AAE",
"Z c #A43BB1",
"A c #A73DB3",
"S c #B54BAF",
"D c #B84EAE",
"F c #BD53AD",
"G c #BF55AC",
"H c #AC42B1",
"J c #B147B0",
"K c #C55BAA",
"L c #CB61A9",
"P c #CC62A8",
"I c #CF65A8",
"U c #D167A7",
"Y c #D269A6",
"T c #D76DA5",
"R c #DF86B4",
"E c #E18CB8",
"W c #E290BA",
"Q c #E393BC",
"! c #E497BE",
"~ c #E59AC0",
"^ c #E8A3C6",
"/ c #E9A9C9",
"( c #EAACCB",
") c None",
/* pixels */
"))))))))))))))))))))))))))))))))))))))))))))))))))))))))))))))))",
"))))))))))))))))))))))))))))))))))))))))))))))))))))))))))))))))",
"))))))))))))))))))))))))))))))))))))))))))))))))))))))))))))))))",
"))))))))))))))))))))))))))))))))))))))))))))))))))))))))))))))))",
"))))))))))))))))))))))))))))))))))))))))))))))))))))))))))))))))",
"))))))))))))))))))))))))))))))))))))))))))))))))))))))))))))))))",
"))))))))))))))))))))))))))))))))))))))))))))))))))))))))))))))))",
"))))))))))))))))))))))))))))))))))))))))))))))))))))))))))))))))",
"))))))))))))))))))))))))))))))))))))))))))))))))))))))))))))))))",
"))))))))))))))))))))))))LLLSHHH)))))))))))))))))))))))))))))))))",
")))))))))))))))))))QERQQQQQRHHHHHH))))))))))))))))))))))))))))))",
")))))))))))))))))JQQQQQQQQQQEEHHHHHH))))))))))))))))))))))))))))",
"))))))))))))))))QQQQQRRWW)))))))HHHHH)))))))))))))))))))))))))))",
"))))))))))))))QQQQQTWKKRPPPPGg)))HHHHH))))))))))))))))))))))))))",
"))))))))))))))QQQQPYRKD))))))))d)))HHHH)))))))))))))))))))))))))",
")))))))))))))QQWRTRR))))))))))))))))HHHH))))))))))))))))))))))))",
"))))))))))))QQWDRRR))))))))))))))))))HHHH)))))))))))))))))))))))",
")))))))))))QQQRTRR)))))))))GGkM1))))))HHH)))))))))))))))))))))))",
"))))))))))QQQERR)))))))))///((/())))))HHHH))))))))))))))))))))))",
")))))))))QQQWRR))))))))///))c))//))))))HHH))))))))))))))))))))))",
")))))))))QQQRR))))))))/^EkXXXX@))G)))))HHHH)))))))))))))))))))))",
"))))))))QQQRR)))))))//!K..))))XX%R))))))HHH)))))))))))))))))))))",
"))))))))QQWR))))))))/E))))))))))8X))))))HHH)))))))))))))))))))))",
")))))))QQQRR)))))))^Y))))))))))))4o))))))HH)))))))))))))))))))))",
")))))))QQQR))))))))~P)))))))))))))3o)))))HH)))))))))))))))))))))",
")))))))QQRR)))))))!T))))))))))))))q*X))))HH)))))))))))))))))))))",
")))))))QWR))))))))RT)))))))))))))yt%X))))HH)))))))))))))))))))))",
")))))))QWR)))))))E^)))))))))X))).994o))))HH)))))))))))))))))))))",
")))))))QRR)))))))WI))))))))iw=XX)tu;d))))HH)))))))))))))))))))))",
")))))))QR))))))))QP)))))iiizBuXXuuu*un)))HH))E))))))))))))))))))",
")))))))ER)))))))))))))))iiiMM.)))>twj)HHHHH)RE))))))))))))))))))",
")))))))ER))))))))P)))))iiizHH9)))X3if)HHHH))R)))))))))))))))))))",
")))))))RR))))))))P)))))iijbHVu)))Xii))HHH)))RQ))))))))))))))))))",
")))))))R))))))))))))))8iqNZmjv))XX)))HHAH)))EQ))))))))))))))))))",
")))))))R))))))))))))))iq.NN@s)))))))gCCV)))RQQ))))))))))))))))))",
")))))))R))))))))))))))to$dBuiii))))4jVV))))RQ)))))))))))))))))))",
")))))))R))))))))))))))oX*tHxuui)))))VVV)))RWQ)))))))))))P)))))))",
")))))))))))))))))))))XXX8tNm.$))))))VV)))REQ))))))))))))P)))))))",
")))))))))))))))))))))XXX77kHm.))))))))))RGQQ)))))))))))PL)))))))",
"))))))))))))))))))))))XX77lHH).)eet))))RRRQ))))))))))))P^)))))))",
")))))))))))))))))))))XXX67tNHH))))))))RDQQQ))))))))))))Y^)))))))",
")))))))))))))))))))))XXX37t)HHH))966REPQQQ))))))))))))L~E)))))))",
"))))))))))))))))))))))XX&7t)))HHHHRRQQER))))))))))))))Y!E)))))))",
")))))))))))))))))))))))X&q)))))HHHDDG))))))))))))))))PRQE)))))))",
")))))))))))))))))))))))XX<8))))))))))))))))))))))))))Y~E))))))))",
"))))))))))))))))))))))))XX6)))))))))))))))))))))))))U^E)))))))))",
")))))))))))))))))))))))))X>8))))))))))))))))))))))))T/E)))))))))",
"))))))))))))))))))))))))))&68))))))))))))))))))))))I^!E)))))))))",
")))))))))))))))))))))))))))<8)))))))))))))))))))))I~^E))))))))))",
"))))))))))))))))))))))))))).<4X))))))))))))))))))RE/~)))))))))))",
")))))))))))))))))))))))))G()X&X6))))))))))))))))Y^/~))))))))))))",
"))))))))))))))))))))))))))G/)XX@%&X))))))))X@)IQ^/^)))))))))))))",
")))))))))))))))))))))))))))//))XXXXXXXXXXX:g)Y/////)))))))))))))",
"))))))))))))))))))))))))))))//))))XXXXX. lNRE////)))))))))))))))",
")))))))))))))))))))))))))))))///)))))))YRW~/////))))))))))))))))",
"))))))))))))))))))))))))))))))////////////////))))))))))))))))))",
")))))))))))))))))))))))))))))))/////////////))))))))))))))))))))",
"))))))))))))))))))))))))))))))))))////////))))))))))))))))))))))",
"))))))))))))))))))))))))))))))))))))))))))))))))))))))))))))))))",
"))))))))))))))))))))))))))))))))))))))))))))))))))))))))))))))))",
"))))))))))))))))))))))))))))))))))))))))))))))))))))))))))))))))",
"))))))))))))))))))))))))))))))))))))))))))))))))))))))))))))))))",
"))))))))))))))))))))))))))))))))))))))))))))))))))))))))))))))))",
"))))))))))))))))))))))))))))))))))))))))))))))))))))))))))))))))"
};
