/* XPM */
static char *exit15[] = {
/* columns rows colors chars-per-pixel */
"64 64 71 1 ",
"  c #1A1625",
". c #1C1729",
"X c #1E182C",
"o c #20192F",
"O c #221A33",
"+ c #231A34",
"@ c #231A35",
"# c #241B37",
"$ c #251B38",
"% c #261B39",
"& c #271C3B",
"* c #2B1D42",
"= c #2D1E45",
"- c #2D1F46",
"; c #2E1F47",
": c #2E1F48",
"> c #2F1F49",
", c #30204A",
"< c #30204B",
"1 c #32204D",
"2 c #32214E",
"3 c #332150",
"4 c #342252",
"5 c #372356",
"6 c #382358",
"7 c #412561",
"8 c #492564",
"9 c #4E2467",
"0 c #502467",
"q c #5C246C",
"w c #5E246D",
"e c #642470",
"r c #692372",
"t c #742377",
"y c #772378",
"u c #7A257C",
"i c #822985",
"p c #872C8C",
"a c #8B2E92",
"s c #8C2E93",
"d c #8D2F94",
"f c #93329C",
"g c #96339F",
"h c #9835A2",
"j c #9C36A6",
"k c #9E38A9",
"l c #A23AAE",
"z c #A43BB1",
"x c #B248AF",
"c c #B54BAF",
"v c #B84EAE",
"b c #BD53AD",
"n c #BF55AC",
"m c #AC42B1",
"M c #B147B0",
"N c #C056AC",
"B c #C55BAA",
"V c #CB61A9",
"C c #CF65A8",
"Z c #D269A6",
"A c #DF86B4",
"S c #E18CB8",
"D c #E290BA",
"F c #E497BE",
"G c #E59AC0",
"H c #E8A3C6",
"J c #E9A9C9",
"K c #EAACCB",
"L c #EBAFCD",
"P c #ECB2CF",
"I c None",
/* pixels */
"IIIIIIIIIIIIIIIIIIIIIIIIIIIIIIIIIIIIIIIIIIIIIIIIIIIIIIIIIIIIIIII",
"IIIIIIIIIIIIIIIIIIIIIIIIIIIIIIIIIIIIIIIIIIIIIIIIIIIIIIIIIIIIIIII",
"IIIIIIIIIIIIIIIIIIIIIIIIIIIIIIIIIIIIIIIIIIIIIIIIIIIIIIIIIIIIIIII",
"IIIIIIIIIIIIIIIIIIIIIIIIIIIIIIIIIIIIIIIIIIIIIIIIIIIIIIIIIIIIIIII",
"IIIIIIIIIIIIIIIIIIIIIIIIIIIIIIIIIIIIIIIIIIIIIIIIIIIIIIIIIIIIIIII",
"IIIIIIIIIIIIIIIIIIIIIIIIIIIIIIIIIIIIIIIIIIIIIIIIIIIIIIIIIIIIIIII",
"IIIIIIIIIIIIIIIIIIIIIIIIIIIIIIIIIIIIIIIIIIIIIIIIIIIIIIIIIIIIIIII",
"IIIIIIIIIIIIIIIIIIIIIIIIIIIIIIIIIIIIIIIIIIIIIIIIIIIIIIIIIIIIIIII",
"IIIIIIIIIIIIIIIIIIIIIIIIIIIIIIIIIIIIIIIIIIIIIIIIIIIIIIIIIIIIIIII",
"IIIIIIIIIIIIIIIIIIIIIIIIIIIIIIIIIIIIIIIIIIIIIIIIIIIIIIIIIIIIIIII",
"IIIIIIIIIIIIIIIIIIIIllllllllllllIIIIIIIIIIIIIIIIIIIIIIIIIIIIIIII",
"IIIIIIIIIIIIIIIIIIIlllllllllllllllIIIIIIIIIIIIIIIIIIIIIIIIIIIIII",
"IIIIIIIIIIIIIIIIIlllllljjjjjjjllllmIIIIIIIIIIIIIIIIIIIIIIIIIIIII",
"IIIIIIIIIIIIIIIIllllfkhttttttyffllllnIIIIIIIIIIIIIIIIIIIIIIIIIII",
"IIIIIIIIIIIIIIlllljgIIIIIIIIIIIIfmllznIIIIIIIIIIIIIIIIIIIIIIIIII",
"IIIIIIIIIIIIIllllaIIIIIIIIIIIIIIIivllbBIIIIIIIIIIIIIIIIIIIIIIIII",
"IIIIIIIIIIIIIllkuIIIIIIIIIIIIIIIIIIBmlBIIIIIIIIIIIIIIIIIIIIIIIII",
"IIIIIIIIIIIIllliIIIIIIIIIIIdpppeIIIIBvBBIIIIIIIIIIIIIIIIIIIIIIII",
"IIIIIIIIIIIlllIIIIIIIIIInnnnNNNNIIIIIBBBIIIIIIIIIIIIIIIIIIIIIIII",
"IIIIIIIIIIlllIIIIIIIIIInnnnnInnnnnIIIBBBBIIIIIIIIIIIIIIIIIIIIIII",
"IIIIIIIIIlllIIIIIIIIInnbxIIIIIInnnnI +nBBIIIIIIIIIIIIIIIIIIIIIII",
"IIIIIIIIIllIIIIIIIIInnAxIIIIIIIIInnnI eBBBIIIIIIIIIIIIIIIIIIIIII",
"IIIIIIIIllIIIIIIIIIInjIIIIIIIIIIIInnI 1nBBIIIIIIIIIIIIIIIIIIIIII",
"IIIIIIIIllIIIIIIIIICbGIIIIIIIIIIIIInnI vBBIIIIIIIIIIIIIIIIIIIIII",
"IIIIIIIIlIIIIIIIIIICBIIIIIIIIIIIIIIInI vBBNIIIIIIIIIIIIIIIIIIIII",
"IIIIIIIllIIIIIIIIIHBIIIIIIIIIIIIIIIInI pBBvIIIIIIIIIIIIIIIIIIIII",
"IIIIIIIlIIIIIIIIIIJJIIIII1IIIIIIIIIMnII BBvIIIIIIIIIIIIIIIIIIIII",
"IIIIIIIIIIIIIIIIIPLIIII*=IIII  -= MMIIIXBBvIIIIIIIIIIIIIIIIIIIII",
"IIIIIIIIIIIIIIIIIPKIIII1IIII   :,8kxvIIeBBvIIIIIIIIIIIIIIIIIIIII",
"IIIIIIIIIIIIIIIIILKIII*,III1 .I1:idxh*edBBBIIIIIIIIIIIIILIIIIIII",
"IIIIIIIIIIIIIIIIIIKIII,III11 .III#wMmIeBBBiIIIIIIIIIIIIIJIIIIIII",
"IIIIIIIIIIIIIIIIIKKIIIIIMM4= . IIIep7IeBBi1IIIIIIIIIIIIILIIIIIII",
"IIIIIIIIIIIIIIIIIKIIIIIMMMiB 9&IIIXX:I.%532IIIIIIIIIIIIIKIIIIIII",
"IIIIIIIIIIIIIIIIIIKII,XMMcBxII8&III+#  O31IIIlIIIIIIIIIIKIIIIIII",
"IIIIIIIIIIIIIIIIIILII10MbsBeIIIIIII&  o,31IIIIIIIIIIIIIIKIIIIIII",
"IIIIIIIIIIIIIIIIIIIIIIMbbIBr II*IIIX  +11IIIlIIIIIIIIIIKKIIIIIII",
"IIIIIIIIIIIIIIIIIIIIIIInnIBB 111III   111IIllIIIIIIIIIIKFIIIIIII",
"IIIIIIIIIIIIIIIIIIIIIInncMcBe&11      *,IIllIIIIIIIIIIIKKIIIIIII",
"IIIIIIIIIIIIIIIIIIIIIINMMMMBNr11      IIIIlIIIIIIIIIIIIKKIIIIIII",
"IIIIIIIIIIIIIIIIIIIIInNMMIIIBBII886 IIIIIllIIIIIIIIIIILKPIIIIIII",
"IIIIIIIIIIIIIIIIIIIIInnMMIIIBxmIIIIIIIIjlIIIIIIIIIIIIIJLPIIIIIII",
"IIIIIIIIIIIIIIIIIIIIInnIMIIIIIllvdIIpplllIIIIIIIIIIIIJLPPIIIIIII",
"IIIIIIIIIIIIIIIIIIIIInnIIIIIIIIIllllllIIIIIIIIIIIIIIILJPPIIIIIII",
"IIIIIIIIIIIIIIIIIIIIIInIIIIIIIIIIIlIIIIIIIIIIIIIIIIILJLPPIIIIIII",
"IIIIIIIIIIIIIIIIIIIIIInIIIIIIIIIIIIIIIIIIIIIIIIIIIIILHPPPIIIIIII",
"IIIIIIIIIIIIIIIIIIIIIInnIIIIIIIIIIIIIIIIIIIIIIIIIIIKJVPPIIIIIIII",
"IIIIIIIIIIIIIIIIIIIIIInnnIIIIIIIIIIIIIIIIIIIIIIIIIKKBbPIIIIIIIII",
"IIIIIIIIIIIIIIIIIIIIIIInnnIIIIIIIIIIIIIIIIIIIIIIIKKBnFPIIIIIIIII",
"IIIIIIIIIIIIIIIIIIIIIIInnnnIIIIIIIIIIIIIIIIIIIIIIKAcZPIIIIIIIIII",
"IIIIIIIIIIIIIIIIIIIIIIInnnnIIIIIIIIIIIIIIIIIIIIIHDjnSIIIIIIIIIII",
"IIIIIIIIIIIIIIIIIIIIIIIInnnnIIIIIIIIIIIIIIIIIIKKNvnSIIIIIIIIIIII",
"IIIIIIIIIIIIIIIIIIIIIIIIInnnnIIIIIIIIIIIIIIIIJFBbnCIIIIIIIIIIIII",
"IIIIIIIIIIIIIIIIIIIIIIIIInnnnnnIIIIIIIIIIIIpGnNnnnNIIIIIIIIIIIII",
"IIIIIIIIIIIIIIIIIIIIIIIIIInnnnnnIIIIIIIIIwdFjnnnnnIIIIIIIIIIIIII",
"IIIIIIIIIIIIIIIIIIIIIIIIIIIInnnnnnnnnnnnnxxbnnnnIIIIIIIIIIIIIIII",
"IIIIIIIIIIIIIIIIIIIIIIIIIIIIInnnnnnnnnnnnnnnnnnIIIIIIIIIIIIIIIII",
"IIIIIIIIIIIIIIIIIIIIIIIIIIIIIInnnnnnnnnnnnnnnIIIIIIIIIIIIIIIIIII",
"IIIIIIIIIIIIIIIIIIIIIIIIIIIIIIIInnnnnnnnnnnnIIIIIIIIIIIIIIIIIIII",
"IIIIIIIIIIIIIIIIIIIIIIIIIIIIIIIIIIIIIIIIIIIIIIIIIIIIIIIIIIIIIIII",
"IIIIIIIIIIIIIIIIIIIIIIIIIIIIIIIIIIIIIIIIIIIIIIIIIIIIIIIIIIIIIIII",
"IIIIIIIIIIIIIIIIIIIIIIIIIIIIIIIIIIIIIIIIIIIIIIIIIIIIIIIIIIIIIIII",
"IIIIIIIIIIIIIIIIIIIIIIIIIIIIIIIIIIIIIIIIIIIIIIIIIIIIIIIIIIIIIIII",
"IIIIIIIIIIIIIIIIIIIIIIIIIIIIIIIIIIIIIIIIIIIIIIIIIIIIIIIIIIIIIIII",
"IIIIIIIIIIIIIIIIIIIIIIIIIIIIIIIIIIIIIIIIIIIIIIIIIIIIIIIIIIIIIIII"
};
