/* XPM */
static char *exit11[] = {
/* columns rows colors chars-per-pixel */
"64 64 67 1 ",
"  c #1C1729",
". c #1E182C",
"X c #20192F",
"o c #211930",
"O c #211931",
"+ c #221A33",
"@ c #231A34",
"# c #231A35",
"$ c #241B37",
"% c #261B39",
"& c #261B3A",
"* c #291C3E",
"= c #2B1D41",
"- c #2B1D42",
"; c #2D1E45",
": c #2D1F46",
"> c #2E1F48",
", c #30204A",
"< c #32204D",
"1 c #332150",
"2 c #342252",
"3 c #352253",
"4 c #352254",
"5 c #362255",
"6 c #372356",
"7 c #382358",
"8 c #39245B",
"9 c #3A245B",
"0 c #3B245D",
"q c #3F2560",
"w c #412561",
"e c #492564",
"r c #4A2465",
"t c #4B2465",
"y c #4C2466",
"u c #4D2466",
"i c #4E2467",
"p c #502467",
"a c #512468",
"s c #552469",
"d c #5C246C",
"f c #5D246D",
"g c #5E246D",
"h c #60246E",
"j c #642470",
"k c #6D2374",
"l c #7A257C",
"z c #7E2781",
"x c #802883",
"c c #822985",
"v c #872C8C",
"b c #B84EAE",
"n c #BF55AC",
"m c #D76DA5",
"M c #DF86B4",
"N c #E393BC",
"B c #E497BE",
"V c #E59AC0",
"C c #E8A3C6",
"Z c #E9A9C9",
"A c #EAACCB",
"S c #EBAFCD",
"D c #ECB2CF",
"F c #EEB7D2",
"G c #F0BDD6",
"H c #F0C0D8",
"J c None",
/* pixels */
"JJJJJJJJJJJJJJJJJJJJJJJJJJJJJJJJJJJJJJJJJJJJJJJJJJJJJJJJJJJJJJJJ",
"JJJJJJJJJJJJJJJJJJJJJJJJJJJJJJJJJJJJJJJJJJJJJJJJJJJJJJJJJJJJJJJJ",
"JJJJJJJJJJJJJJJJJJJJJJJJJJJJJJJJJJJJJJJJJJJJJJJJJJJJJJJJJJJJJJJJ",
"JJJJJJJJJJJJJJJJJJJJJJJJJJJJJJJJJJJJJJJJJJJJJJJJJJJJJJJJJJJJJJJJ",
"JJJJJJJJJJJJJJJJJJJJJJJJJJJJJJJJJJJJJJJJJJJJJJJJJJJJJJJJJJJJJJJJ",
"JJJJJJJJJJJJJJJJJJJJJJJJJJJJJJJJJJJJJJJJJJJJJJJJJJJJJJJJJJJJJJJJ",
"JJJJJJJJJJJJJJJJJJJJJJJJJJJJJJJJJJJJJJJJJJJJJJJJJJJJJJJJJJJJJJJJ",
"JJJJJJJJJJJJJJJJJJJJJJJJJJJJJJJJJJJJJJJJJJJJJJJJJJJJJJJJJJJJJJJJ",
"JJJJJJJJJJJJJJJJJJJJJJJJJJJJJJJJJJJJJJJJJJJJJJJJJJJJJJJJJJJJJJJJ",
"JJJJJJJJJJJJJJJJJJJJJJJJJJJJJJJJJJJJJJJJJJJJJJJJJJJJJJJJJJJJJJJJ",
"JJJJJJJJJJJJJJJJJJJJHHHHHHHHJJJJJJJJJJJJJJJJJJJJJJJJJJJJJJJJJJJJ",
"JJJJJJJJJJJJJJJJJJHHHHFVCCCCBJJJJJJJJJJJJJJJJJJJJJJJJJJJJJJJJJJJ",
"JJJJJJJJJJJJJJJJJHHFDBNMMJJJJJJJJJJJJJJJJJJJJJJJJJJJJJJJJJJJJJJJ",
"JJJJJJJJJJJJJJJHHFABVmn270000JJJJJJJJJJJJJJJJJJJJJJJJJJJJJJJJJJJ",
"JJJJJJJJJJJJJJHHZVBJ1690:;--00000JJJJJJJJJJJJJJJJJJJJJJJJJJJJJJJ",
"JJJJJJJJJJJJJHHZBJJ90JJJJJJJJJ00000JJJJJJJJJJJJJJJJJJJJJJJJJJJJJ",
"JJJJJJJJJJJJHHDBJJJJJJJJJJJJJJJJ0000JJJJJJJJJJJJJJJJJJJJJJJJJJJJ",
"JJJJJJJJJJJHHFBJJJJJJJJJJJJJJJJJJJ600JJJJJJJJJJJJJJJJJJJJJJJJJJJ",
"JJJJJJJJJJHHGVJJJJJJJJJJJJJJJJJJJJ@70JJJJJJJJJJJJJJJJJJJJJJJJJJJ",
"JJJJJJJJJHHHVJJJJJJJJJJJJFFJFJJJJJJ%00JJJJJJJJJJJJJJJJJJJJJJJJJJ",
"JJJJJJJJJHHCBJJJJJJJJGJFFFJJJJJJJJJJ000JJJJJJJJJJJJJJJJJJJJJJJJJ",
"JJJJJJJJJHGVJJJJJJJJGFFFJJJJ@JJJJJJJJ00>JJJJJJJJJJJJJJJJJJJJJJJJ",
"JJJJJJJJHHCBJJJJJJJJGFJJJJJJJJJJJJJJJ-02.JJJJJJJJJJJJJJJJJJJJJJJ",
"JJJJJJJSHZBJJJJJJJJGFJJJJJJJJJJJJJJJJJ00.JJJJJJJJJJJJJJJJJJJJJJJ",
"JJJJJJJDHCJJJJJJJJJFFJJJJJJJJJJJJJJJJye0..JJJJJJJJJJJJJJJJJJJJJJ",
"JJJJJJJGFBJJJJJJJJGFJJJJJJJJJJJJJJJJJye0...JJJJJJJJJJJJJJJJJJJJJ",
"JJJJJJJGCJJJJJJJJGGFJJJJJJJJ.ooJJJJJJte0;..JJJJJJJJJJJJJJJJJJJJJ",
"JJJJJJJHBJJJJJJJJGFJJJJJJo%%k oo0JJJeeyq6..JJJJJJJJJJJJJJJJJJJJJ",
"JJJJJJJVBJJJJJJJJGFJJJJJJ6vc;o;ovssJatse2%*JJJJJJJJJJJJJJJJJJJJJ",
"JJJJJJJBJJJJJJJJJFFJJJJJ<lvjg;l.vjJsssfweshJJJJJJJJJJJJJJJJJJJJJ",
"JJJJJJJBJJJJJJJJJJJJJJJJ*pkgyJJJJJsisfapgggJJJJJJJJJJJJJJJJJJJJJ",
"JJJJJJJJJJJJJJJJJFJJJJJ@p9ggaJJJJJsh6fafgggJJJJJJJJJJJJJJJJJJJJJ",
"JJJJJJJJJJJJJJJJJFJJJJJes6fdsggJJvvvggaggggJJFJJJJJJJJJJJJJJJJJJ",
"JJJJJJJJJJJJJJJJJJJJJJsss6fwsaJo<kvJJysgggJJCGJJJJJJJJJJJJJJJJJJ",
"JJJJJJJJJJJJJJJJJJJJJJsssJ,2etJJJJJJJsggggJJCFJJJJJJJJJJJJJJJJJJ",
"JJJJJJJJJJJJJJJJJJJJJwsssJ 6wzvJJJJJopgggJJBGJJJJJJJJJJJJJJJJJJJ",
"JJJJJJJJJJJJJJJJJJJJJwssJJ%X0zvJJJJ.-sgggJJVHJJJJJJJJJJJFJJJJJJJ",
"JJJJJJJJJJJJJJJJJJJJJwsJJsJ.6jlJJJ..hgggJJVFJJJJJJJJJJJJFJJJJJJJ",
"JJJJJJJJJJJJJJJJJJJJJwJJJJJJJ96JJ...6yJJJJFHJJJJJJJJJJJFFJJJJJJJ",
"JJJJJJJJJJJJJJJJJJJJJwJJJJJJJ07qJJJ.JJJeJDHJJJJJJJJJJJJFFJJJJJJJ",
"JJJJJJJJJJJJJJJJJJJJJJJJJJJJJJJ000J%$6zVZHJJJJJJJJJJJJJFFGJJJJJJ",
"JJJJJJJJJJJJJJJJJJJJJJJJJJJJJJJJ0006jbZFHJJJJJJJJJJJJJFFGGJJJJJJ",
"JJJJJJJJJJJJJJJJJJJJJJJJJJJJJJJJJJJJGDHJJJJJJJJJJJJJJJFFGJJJJJJJ",
"JJJJJJJJJJJJJJJJJJJJJJJJJJJJJJJJJJJJJJJJJJJJJJJJJJJJJFFGGJJJJJJJ",
"JJJJJJJJJJJJJJJJJJJJJJJJJJJJJJJJJJJJJJJJJJJJJJJJJJJJJFFGGJJJJJJJ",
"JJJJJJJJJJJJJJJJJJJJJJJJJJJJJJJJJJJJJJJJJJJJJJJJJJJJFFGGJJJJJJJJ",
"JJJJJJJJJJJJJJJJJJJJJJJJJJJJJJJJJJJJJJJJJJJJJJJJJJJJFFGGJJJJJJJJ",
"JJJJJJJJJJJJJJJJJJJJJJJJJJJJJJJJJJJJJJJJJJJJJJJJJJJFFGGJJJJJJJJJ",
"JJJJJJJJJJJJJJJJJJJJJJJJJJJJJJJJJJJJJJJJJJJJJJJJJJFFGGJJJJJJJJJJ",
"JJJJJJJJJJJJJJJJJJJJJJJJJJJJJJJJJJJJJJJJJJJJJJJJFFFGGJJJJJJJJJJJ",
"JJJJJJJJJJJJJJJJJJJJJJJJJJJJJJJJJJJJJJJJJJJJJJJFFFGGGJJJJJJJJJJJ",
"JJJJJJJJJJJJJJJJJJJJJJJJJJJJJJJJJ@@@@JJJJJJJJFFFFGGGJJJJJJJJJJJJ",
"JJJJJJJJJJJJJJJJJJJJJJJJJJJJJJJJJJJJJJJJJJJJFFFFFGGJJJJJJJJJJJJJ",
"JJJJJJJJJJJJJJJJJJJJJJJJJJJJJJJJJJJJJJJJJJFFFFFFGGJJJJJJJJJJJJJJ",
"JJJJJJJJJJJJJJJJJJJJJJJJJJJJJJJJJJJJJJFFFFFFJJJGJJJJJJJJJJJJJJJJ",
"JJJJJJJJJJJJJJJJJJJJJJJJJJJJJJJJJJJFFFFFFJJJJJJJJJJJJJJJJJJJJJJJ",
"JJJJJJJJJJJJJJJJJJJJJJJJJJJJJJJJJJJJJJJJJJJJJJJJJJJJJJJJJJJJJJJJ",
"JJJJJJJJJJJJJJJJJJJJJJJJJJJJJJJJJJJJJJGGGJJJJJJJJJJJJJJJJJJJJJJJ",
"JJJJJJJJJJJJJJJJJJJJJJJJJJJJJJJJJJJJJJJJJJJJJJJJJJJJJJJJJJJJJJJJ",
"JJJJJJJJJJJJJJJJJJJJJJJJJJJJJJJJJJJJJJJJJJJJJJJJJJJJJJJJJJJJJJJJ",
"JJJJJJJJJJJJJJJJJJJJJJJJJJJJJJJJJJJJJJJJJJJJJJJJJJJJJJJJJJJJJJJJ",
"JJJJJJJJJJJJJJJJJJJJJJJJJJJJJJJJJJJJJJJJJJJJJJJJJJJJJJJJJJJJJJJJ",
"JJJJJJJJJJJJJJJJJJJJJJJJJJJJJJJJJJJJJJJJJJJJJJJJJJJJJJJJJJJJJJJJ",
"JJJJJJJJJJJJJJJJJJJJJJJJJJJJJJJJJJJJJJJJJJJJJJJJJJJJJJJJJJJJJJJJ"
};
