/* XPM */
static char *exit3[] = {
/* columns rows colors chars-per-pixel */
"64 64 83 1 ",
"  c #1A1625",
". c #1C1729",
"X c #1E182C",
"o c #20192F",
"O c #201930",
"+ c #211931",
"@ c #231A34",
"# c #231A35",
"$ c #241B37",
"% c #251B38",
"& c #261B39",
"* c #261B3A",
"= c #271C3B",
"- c #281C3D",
"; c #291C3E",
": c #291D3F",
"> c #2B1D41",
", c #2B1D42",
"< c #2D1E45",
"1 c #2E1F47",
"2 c #30204A",
"3 c #30204B",
"4 c #32214E",
"5 c #342252",
"6 c #352253",
"7 c #352254",
"8 c #362255",
"9 c #382358",
"0 c #39245B",
"q c #3A245C",
"w c #3B245D",
"e c #412561",
"r c #492564",
"t c #4A2465",
"y c #4B2465",
"u c #4C2466",
"i c #4D2466",
"p c #4E2467",
"a c #502467",
"s c #512468",
"d c #552469",
"f c #5C246C",
"g c #5E246D",
"h c #60246E",
"j c #642470",
"k c #6D2374",
"l c #702375",
"z c #742377",
"x c #7E2781",
"c c #802883",
"v c #822985",
"b c #872C8C",
"n c #8D2F94",
"m c #903097",
"M c #9835A2",
"N c #9E38A9",
"B c #B248AF",
"V c #B54BAF",
"C c #B84EAE",
"Z c #BD53AD",
"A c #BF55AC",
"S c #AC42B1",
"D c #B147B0",
"F c #C056AC",
"G c #C55BAA",
"H c #CB61A9",
"J c #CC62A8",
"K c #D167A7",
"L c #D269A6",
"P c #DF86B4",
"I c #E18CB8",
"U c #E290BA",
"Y c #E497BE",
"T c #E59AC0",
"R c #E8A3C6",
"E c #E9A9C9",
"W c #EAACCB",
"Q c #EBAFCD",
"! c #ECB2CF",
"~ c #EEB7D2",
"^ c #F0BDD6",
"/ c #F0C0D8",
"( c None",
/* pixels */
"((((((((((((((((((((((((((((((((((((((((((((((((((((((((((((((((",
"((((((((((((((((((((((((((((((((((((((((((((((((((((((((((((((((",
"((((((((((((((((((((((((((((((((((((((((((((((((((((((((((((((((",
"((((((((((((((((((((((((((((((((((((((((((((((((((((((((((((((((",
"((((((((((((((((((((((((((((((((((((((((((((((((((((((((((((((((",
"((((((((((((((((((((((((((((((((((((((((((((((((((((((((((((((((",
"((((((((((((((((((((((((((((((((((((((((((((((((((((((((((((((((",
"((((((((((((((((((((((((((((((((((((((((((((((((((((((((((((((((",
"((((((((((((((((((((((((((((((((((((((((((((((((((((((((((((((((",
"((((((((((((((((((((((AAAAAAAA((((((((((((((((((((((((((((((((((",
"(((((((((((((((((((AAAAAAAAAAAAAAA((((((((((((((((((((((((((((((",
"(((((((((((((((((AAAAAAAAAAAAAAAAAA(((((((((((((((((((((((((((((",
"((((((((((((((((AAAAAZAAAAAAAAAAAAAA((((((((((((((((((((((((((((",
"((((((((((((((AAAAABPmk(((((((AAAAAAA(((((((((((((((((((((((((((",
"((((((((((((((AAAAZIH((((((((((((AAAAA((((((((((((((((((((((((((",
"(((((((((((((KAACIT((((((((@@@@((((AAAA(((((((((((((((((((((((((",
"((((((((((((YAZBEW((((((((((((((((((AAAA((((((((((((((((((((((((",
"(((((((((((TABLT(((((((((((((((((((((AAAA(((((((((((((((((((((((",
"((((((((((!LCLWW(((((((((//R(((((((((AAAA(((((((((((((((((((((((",
"(((((((((!RFAEW((((((((//E((l(((((((((AAA(((((((((((((((((((((((",
"(((((((((!FBEW((((((((~RPb9wwww((((((((AA(((((((((((((((((((((((",
"((((((((!!GRW(((((((/~YL6w(((((ww(((((((AA((((((((((((((((((((((",
"((((((((!!TW((((((((^T((((((((((ww((((((AA((((((((((((((((((((((",
"(((((((!!QWW(((((((/T((((((((((((w8((((((A((((((((((((((((((((((",
"(((((((!!WW((((((((^Y(((((((((((((w-(((((AA(((((((((((((((((((((",
"(((((((!!WW(((((((/R((((((((((((((r=X((((AA(((((((((((((((((((((",
"(((((((!QW((((((((~R((((((((((((((y8X((D(AF(((((((((((((((((((((",
"(((((((!WW(((((((!^(((((((((X((;6psy<((DDAj(((((((((((((((((((((",
"(((((((WW((((((((/T((((((((;XXX>5fffgNBSDAe(((((((((((((((((((((",
"(((((((WW((((((((!Y((((((ggcj.((<yfffNDCCAe((L((((((((((((((((((",
"(((((((TW(((((((((((((((ggzSk(((( dgzSCAAAe(WL((((((((((((((((((",
"(((((((EW((((((((Y(((((gggcD((((((8gxD(ZAVe(((((((((((((((((((((",
"(((((((QQ((((((((Y(((((gggvC((e((Xd((D(CD(((W!((((((((((((((((((",
"(((((((E((((((((((((((ggggnCS((e(X((((CDD(((Q!((((((((((((((((((",
"(((((((Q((((((((((((((gggsxNg ((((((((DDD((QQ!((((((((((((((((((",
"(((((((E(((((((((((((ggggsMNdd(((((((DDD(((EP(((((((((((((((((((",
"(((((((Q(((((((((((((gggdpCvgs$((((((D((((EAQ(((((((((((Y(((((((",
"(((((((((((((((((((((hgpefxMy;<1((((((((((PL((((((((((((Y(((((((",
"(((((((((((((((((((((525ydgCCs11(((((((((LHE(((((((((((YY(((((((",
"(((((((((((((((((((((XX5epyDA(%X (((((((TAG((((((((((((Y~(((((((",
"(((((((((((((((((((((XX3wry(AAA((OO(((mAFAA((((((((((((T/(((((((",
"(((((((((((((((((((((XXXwry((AAA((((((NAAA((((((((((((Y~^(((((((",
"((((((((((((((((((((((XXwyp(((AAAAFAAAAA((((((((((((((T^~(((((((",
"(((((((((((((((((((((((Xww(((((((AAAAA(((((((((((((((YR/Q(((((((",
"(((((((((((((((((((((((X9w%((((((((((((((((((((((((((T//((((((((",
"((((((((((((((((((((((((>ww(((((((((((((((((((((((((T^/(((((((((",
"(((((((((((((((((((((((((www((((((((((((((((((((((((R//(((((((((",
"((((((((((((((((((((((((((wwO((((((((((((((((((((((Y^//(((((((((",
"(((((((((((((((((((((((((((w8(((((((((((((((((((((T~//((((((((((",
"(((((((((((((((((((((((((((ww3(((((((((((((((((((YQ//(((((((((((",
"((((((((((((((((((((((((((((wwwe((((((((((((((((YW//((((((((((((",
"(((((((((((((((((((((((((((((wwwww(((((((((ww((YR//(((((((((((((",
"(((((((((((((((((((((((((((((((wwwww%%%%w000(YTR///(((((((((((((",
"((((((((((((((((((((((((((((((((((wwwww98bA(YRQ//(((((((((((((((",
"(((((((((((((((((((((((((((((((((((((((JLUYW!^//((((((((((((((((",
"(((((((((((((((((((((((((((((((((((TTTTTY!~///((((((((((((((((((",
"((((((((((((((((((((((((((((((((((((////////((((((((((((((((((((",
"(((((((((((((((((((((((((((((((((((((/////((((((((((((((((((((((",
"((((((((((((((((((((((((((((((((((((((((((((((((((((((((((((((((",
"((((((((((((((((((((((((((((((((((((((((((((((((((((((((((((((((",
"((((((((((((((((((((((((((((((((((((((((((((((((((((((((((((((((",
"((((((((((((((((((((((((((((((((((((((((((((((((((((((((((((((((",
"((((((((((((((((((((((((((((((((((((((((((((((((((((((((((((((((",
"(((((((((((((((((((((((((((((((((((((((((((((((((((((((((((((((("
};
