/* XPM */
static char *exit8[] = {
/* columns rows colors chars-per-pixel */
"64 64 57 1 ",
"  c #1A1625",
". c #1C1729",
"X c #1E182C",
"o c #201930",
"O c #221A33",
"+ c #231A35",
"@ c #241B37",
"# c #251B38",
"$ c #261B39",
"% c #271C3B",
"& c #281C3D",
"* c #291C3E",
"= c #291D3F",
"- c #2B1D41",
"; c #2B1D42",
": c #2D1E45",
"> c #2F1F49",
", c #30204A",
"< c #32204D",
"1 c #352253",
"2 c #372356",
"3 c #412561",
"4 c #492564",
"5 c #502467",
"6 c #552469",
"7 c #5C246C",
"8 c #5D246D",
"9 c #5E246D",
"0 c #60246E",
"q c #672371",
"w c #642470",
"e c #692372",
"r c #6D2374",
"t c #6F2375",
"y c #702375",
"u c #742377",
"i c #7A257C",
"p c #7B257D",
"a c #7D267F",
"s c #7E2781",
"d c #802883",
"f c #822985",
"g c #872C8C",
"h c #8B2E92",
"j c #8C2E93",
"k c #8D2F94",
"l c #8E2F95",
"z c #903097",
"x c #93329C",
"c c #96339F",
"v c #9835A2",
"b c #9C36A6",
"n c #9E38A9",
"m c #B248AF",
"M c #B54BAF",
"N c #AC42B1",
"B c None",
/* pixels */
"BBBBBBBBBBBBBBBBBBBBBBBBBBBBBBBBBBBBBBBBBBBBBBBBBBBBBBBBBBBBBBBB",
"BBBBBBBBBBBBBBBBBBBBBBBBBBBBBBBBBBBBBBBBBBBBBBBBBBBBBBBBBBBBBBBB",
"BBBBBBBBBBBBBBBBBBBBBBBBBBBBBBBBBBBBBBBBBBBBBBBBBBBBBBBBBBBBBBBB",
"BBBBBBBBBBBBBBBBBBBBBBBBBBBBBBBBBBBBBBBBBBBBBBBBBBBBBBBBBBBBBBBB",
"BBBBBBBBBBBBBBBBBBBBBBBBBBBBBBBBBBBBBBBBBBBBBBBBBBBBBBBBBBBBBBBB",
"BBBBBBBBBBBBBBBBBBBBBBBBBBBBBBBBBBBBBBBBBBBBBBBBBBBBBBBBBBBBBBBB",
"BBBBBBBBBBBBBBBBBBBBBBBBBBBBBBBBBBBBBBBBBBBBBBBBBBBBBBBBBBBBBBBB",
"BBBBBBBBBBBBBBBBBBBBBBBBBBBBBBBBBBBBBBBBBBBBBBBBBBBBBBBBBBBBBBBB",
"BBBBBBBBBBBBBBBBBBBBBBBBBBBBBBBBBBBBBBBBBBBBBBBBBBBBBBBBBBBBBBBB",
"BBBBBBBBBBBBBBBBBBBBBBBBBBBBBBBBBBBBBBBBBBBBBBBBBBBBBBBBBBBBBBBB",
"BBBBBBBBBBBBBBBBBBBBxxxxxxxxxxxxBBBBBBBBBBBBBBBBBBBBBBBBBBBBBBBB",
"BBBBBBBBBBBBBBBBBBxxxxxxxxxxxxxxxxxBBBBBBBBBBBBBBBBBBBBBBBBBBBBB",
"BBBBBBBBBBBBBBBBBxxxxxxxxxxxxxxxxxxBBBBBBBBBBBBBBBBBBBBBBBBBBBBB",
"BBBBBBBBBBBBBBBxxxxxhkzzzzzzzxxxxxxxxBBBBBBBBBBBBBBBBBBBBBBBBBBB",
"BBBBBBBBBBBBBBxxxxzffgggggggghhjxxxxxxBBBBBBBBBBBBBBBBBBBBBBBBBB",
"BBBBBBBBBBBBBxxxxfdggBBBBBBBBggggzxxxxxBBBBBBBBBBBBBBBBBBBBBBBBB",
"BBBBBBBBBBBBBxzzpsgBBBBBBBBBBBBBgghxxxxxBBBBBBBBBBBBBBBBBBBBBBBB",
"BBBBBBBBBBBBxxhsfgBBBBBBBBBBBBBBBBggzxxxBBBBBBBBBBBBBBBBBBBBBBBB",
"BBBBBBBBBBBxxgifBBBBBBBBBkjlkkkkBBBggxxxxBBBBBBBBBBBBBBBBBBBBBBB",
"BBBBBBBBBBxxlirBBBBBBBBlkjklegkkkBBBgzxxxBBBBBBBBBBBBBBBBBBBBBBB",
"BBBBBBBBBBxzpu*BBBBBBBljl7BBBBBfhhBBggxxxxBBBBBBBBBBBBBBBBBBBBBB",
"BBBBBBBBBxxsi2BBBBBBBlkBBBBBBBBBBgkBBghxxxBBBBBBBBBBBBBBBBBBBBBB",
"BBBBBBBBBxfiBBBBBBBBkkBBBBBBBBBBBuskBBgxxxBBBBBBBBBBBBBBBBBBBBBB",
"BBBBBBBBBxiiBBBBBBBkBBBBBBBBBBBBBBsvBBigxxxBBBBBBBBBBBBBBBBBBBBB",
"BBBBBBBBBiiBBBBBBBBkBBBBBBBBBBBBBBBnhB*gxxxBBBBBBBBBBBBBBBBBBBBB",
"BBBBBBBBBiiBBBBBBBBBBBBBBBBBBBBBBBBMxB*exxxBBBBBBBBBBBBBBBBBBBBB",
"BBBBBBBBiiBBBBBBBBBBBBBBBBBBBBBBBBBMMBB+xx7BBBBBBBBBBBBBBBBBBBBB",
"BBBBBBBBiiBBBBBBBBBBBBBBBBBB<r  BBBMMBB*xx:BBBBBBBBBBBBBBBBBBBBB",
"BBBBBBBiiBBBBBBBBBBBBBBBBB#7w<  5Bmmn1B#xkzBBBBBBBBBBBBBBBBBBBBB",
"BBBBBBBiiBBBBBBBBBBBBBBB::22O   4#kNmBBex5BBBiBBBBBBBBBBBBBBBBBB",
"BBBBBBBiiBBBBBBBBBBBBBBB*;6;X BO<,<NmBBxj<B#BiBBBBBBBBBBBBBBBBBB",
"BBBBBBBiiBBBBBBBBBBBBBB<N7,sBBBB1e 46BBxf#BBBBBBBBBBBBBBBBBBBBBB",
"BBBBBBBiiBBBBBBBBBBBBBBnM06xBB:B.X.*BBB6;$BBiBBBBBBBBBBBBBBBBBBB",
"BBBBBBBiBBBBBBBBBBBBBBhMMl5gBB*   *BBBs3*$BBsBBBBBBBBBBBBBBBBBBB",
"BBBBBBBiBBBBBBBBBBBBB:MMNi64BBBBBBBBBB@*<BBipBBBBBBBBBBBBBBBBBBB",
"BBBBBBBiBBBBBBBBBBBBB:MMmBl6<77BBBBBB##&eBBpzBBBBBBBBBBBBBBBBBBB",
"BBBBBBBiBBBBBBBBBBBBB6MbMMxx377BBBBBB#*0rBplxBBBBBBBBBBBBBBBBBBB",
"BBBBBBBBBBBBBBBBBBBBBMMMMMxxluBBBBBB746yBfgxBBBBBBBBBBBBBBBBBBBB",
"BBBBBBBBBBBBBBBBBBBBBNMMMMBxxgBBBBByyyyrfgxBBBBBBBBBBBBBBBBBBBBB",
"BBBBBBBBBBBBBBBBBBBBBvMMMBBxxxgBBBryyBBgfxxBBBBBBBBBBBBBBBBBBBBB",
"BBBBBBBBBBBBBBBBBBBBBvMMMBBBxxxjggBgggglxxBBBBBBBBBBBBBBBBBBBBBB",
"BBBBBBBBBBBBBBBBBBBBBvNmMBBBBxxxxxhlxxxxxBBBBBBBBBBBBBBBBBBBBBBB",
"BBBBBBBBBBBBBBBBBBBBBmjNMBBBBBBxxxxxxxxBBBBBBBBBBBBBBBBBBBBBBBBB",
"BBBBBBBBBBBBBBBBBBBBBBlNuBBBBBBBBBxBBBBBBBBBBBBBBBBBBBBBBBBBBBBB",
"BBBBBBBBBBBBBBBBBBBBBBlNyBBBBBBBBBBBBBBBBBBBBBBBBBBBBBBBBBBBBBBB",
"BBBBBBBBBBBBBBBBBBBBBBBjv7BBBBBBBBBBBBBBBBBBBBBBBBBBBBBBBBBBBBBB",
"BBBBBBBBBBBBBBBBBBBBBBBkhwBBBBBBBBBBBBBBBBBBBBBBBBBBBkBBBBBBBBBB",
"BBBBBBBBBBBBBBBBBBBBBBBkkh0BBBBBBBBBBBBBBBBBBBBBBBBBkBBBBBBBBBBB",
"BBBBBBBBBBBBBBBBBBBBBBBBkkgBBBBBBBBBBBBBBBBBBBBBBBBkkBBBBBBBBBBB",
"BBBBBBBBBBBBBBBBBBBBBBBBkkgwBBBBBBBBBBBBBBBBBBBBBBkkBBBBBBBBBBBB",
"BBBBBBBBBBBBBBBBBBBBBBBBkkkg77BBBBBBBBBBBBBBBBBBBkkkBBBBBBBBBBBB",
"BBBBBBBBBBBBBBBBBBBBBBBBBkkkgr0BBBBBBBBBBBBBBBBkkkkBBBBBBBBBBBBB",
"BBBBBBBBBBBBBBBBBBBBBBBBBBkkkjgeBBBBBBBBBBBBBBkkkkBBBBBBBBBBBBBB",
"BBBBBBBBBBBBBBBBBBBBBBBBBBBkkkkkuu7BBBBBBBBBkkkkkBBBBBBBBBBBBBBB",
"BBBBBBBBBBBBBBBBBBBBBBBBBBBBkkkkzkfffffffgkkkkkkBBBBBBBBBBBBBBBB",
"BBBBBBBBBBBBBBBBBBBBBBBBBBBBBBkklkkkkkkkkkkkkBBBBBBBBBBBBBBBBBBB",
"BBBBBBBBBBBBBBBBBBBBBBBBBBBBBBBkljkkkkkkkkkkBBBBBBBBBBBBBBBBBBBB",
"BBBBBBBBBBBBBBBBBBBBBBBBBBBBBBBBBBkkkkkkkkBBBBBBBBBBBBBBBBBBBBBB",
"BBBBBBBBBBBBBBBBBBBBBBBBBBBBBBBBBBBBBBBBBBBBBBBBBBBBBBBBBBBBBBBB",
"BBBBBBBBBBBBBBBBBBBBBBBBBBBBBBBBBBBBBBBBBBBBBBBBBBBBBBBBBBBBBBBB",
"BBBBBBBBBBBBBBBBBBBBBBBBBBBBBBBBBBBBBBBBBBBBBBBBBBBBBBBBBBBBBBBB",
"BBBBBBBBBBBBBBBBBBBBBBBBBBBBBBBBBBBBBBBBBBBBBBBBBBBBBBBBBBBBBBBB",
"BBBBBBBBBBBBBBBBBBBBBBBBBBBBBBBBBBBBBBBBBBBBBBBBBBBBBBBBBBBBBBBB",
"BBBBBBBBBBBBBBBBBBBBBBBBBBBBBBBBBBBBBBBBBBBBBBBBBBBBBBBBBBBBBBBB"
};
