/* XPM */
static char *exit14[] = {
/* columns rows colors chars-per-pixel */
"64 64 77 1 ",
"  c black",
". c #1A1625",
"X c #1C1729",
"o c #1E182C",
"O c #20192F",
"+ c #201930",
"@ c #211931",
"# c #231A34",
"$ c #251B38",
"% c #261B39",
"& c #271C3B",
"* c #281C3D",
"= c #291C3E",
"- c #2B1D41",
"; c #2D1E45",
": c #2E1F47",
"> c #2E1F48",
", c #2F1F49",
"< c #30204A",
"1 c #30204B",
"2 c #32204D",
"3 c #332150",
"4 c #352253",
"5 c #352254",
"6 c #362255",
"7 c #372356",
"8 c #382358",
"9 c #3A245B",
"0 c #3F2560",
"q c #492564",
"w c #4B2465",
"e c #502467",
"r c #552469",
"t c #5C246C",
"y c #642470",
"u c #692372",
"i c #702375",
"p c #742377",
"a c #7A257C",
"s c #7D267F",
"d c #7E2781",
"f c #822985",
"g c #8D2F94",
"h c #8E2F95",
"j c #903097",
"k c #96339F",
"l c #9835A2",
"z c #9C36A6",
"x c #9E38A9",
"c c #A23AAE",
"v c #B248AF",
"b c #B54BAF",
"n c #B84EAE",
"m c #BD53AD",
"M c #BF55AC",
"N c #AC42B1",
"B c #C056AC",
"V c #C55BAA",
"C c #CB61A9",
"Z c #CC62A8",
"A c #CF65A8",
"S c #D167A7",
"D c #D269A6",
"F c #D76DA5",
"G c #DF86B4",
"H c #E18CB8",
"J c #E59AC0",
"K c #E9A9C9",
"L c #ECB2CF",
"P c #EEB7D2",
"I c #F0BDD6",
"U c #F0C0D8",
"Y c #F1C3DA",
"T c #F5CFE1",
"R c #F6D1E2",
"E c #F6D4E4",
"W c None",
/* pixels */
"WWWWWWWWWWWWWWWWWWWWWWWWWWWWWWWWWWWWWWWWWWWWWWWWWWWWWWWWWWWWWWWW",
"WWWWWWWWWWWWWWWWWWWWWWWWWWWWWWWWWWWWWWWWWWWWWWWWWWWWWWWWWWWWWWWW",
"WWWWWWWWWWWWWWWWWWWWWWWWWWWWWWWWWWWWWWWWWWWWWWWWWWWWWWWWWWWWWWWW",
"WWWWWWWWWWWWWWWWWWWWWWWWWWWWWWWWWWWWWWWWWWWWWWWWWWWWWWWWWWWWWWWW",
"WWWWWWWWWWWWWWWWWWWWWWWWWWWWWWWWWWWWWWWWWWWWWWWWWWWWWWWWWWWWWWWW",
"WWWWWWWWWWWWWWWWWWWWWWWWWWWWWWWWWWWWWWWWWWWWWWWWWWWWWWWWWWWWWWWW",
"WWWWWWWWWWWWWWWWWWWWWWWWWWWWWWWWWWWWWWWWWWWWWWWWWWWWWWWWWWWWWWWW",
"WWWWWWWWWWWWWWWWWWWWWWWWWWWWWWWWWWWWWWWWWWWWWWWWWWWWWWWWWWWWWWWW",
"WWWWWWWWWWWWWWWWWWWWWWWWWWWWWWWWWWWWWWWWWWWWWWWWWWWWWWWWWWWWWWWW",
"WWWWWWWWWWWWWWWWWWWWWWWWWWWWWWWWWWWWWWWWWWWWWWWWWWWWWWWWWWWWWWWW",
"WWWWWWWWWWWWWWWWWWWWnnnnnnnBFFFFWWWWWWWWWWWWWWWWWWWWWWWWWWWWWWWW",
"WWWWWWWWWWWWWWWWWWWnnnnnnnnnMSFFFFWWWWWWWWWWWWWWWWWWWWWWWWWWWWWW",
"WWWWWWWWWWWWWWWWWnnnnbvvmAAASFFFFFFWWWWWWWWWWWWWWWWWWWWWWWWWWWWW",
"WWWWWWWWWWWWWWWWnnnvNlhhhhhhxFFFFFFFFWWWWWWWWWWWWWWWWWWWWWWWWWWW",
"WWWWWWWWWWWWWWnnnnzkWWWWWWWWW qVFFFFFFWWWWWWWWWWWWWWWWWWWWWWWWWW",
"WWWWWWWWWWWWWnnnvkWWWWWWWWWWWW..-WFFFFFWWWWWWWWWWWWWWWWWWWWWWWWW",
"WWWWWWWWWWWWWnnljWWWWWWWWWWWWWWW..yZFFFWWWWWWWWWWWWWWWWWWWWWWWWW",
"WWWWWWWWWWWWnnxjWWWWWWWWWWWWWWWWWW..VFFFWWWWWWWWWWWWWWWWWWWWWWWW",
"WWWWWWWWWWWnncWWWWWWWWWWSSSSSSSSWWW.2ZFFWWWWWWWWWWWWWWWWWWWWWWWW",
"WWWWWWWWWWnnvWWWWWWWWWWSSSWWWWWSSSWW.VFFFWWWWWWWWWWWWWWWWWWWWWWW",
"WWWWWWWWWnnbjWWWWWWWWSSSSWWWWWWWWSWW.#DFFWWWWWWWWWWWWWWWWWWWWWWW",
"WWWWWWWWWnbkWWWWWWWWSSSWWWWWWWWWWWSWW.uFFFWWWWWWWWWWWWWWWWWWWWWW",
"WWWWWWWWnnbWWWWWWWWWSSWWWWWWWWWWWWZSW.2ZFFWWWWWWWWWWWWWWWWWWWWWW",
"WWWWWWWWnnWWWWWWWWWSCWWWWWWWWWWWWWVWWW.VFFWWWWWWWWWWWWWWWWWWWWWW",
"WWWWWWWnnzWWWWWWWWWNMWWWWWWWWWWWWWWVWW.MFFDWWWWWWWWWWWWWWWWWWWWW",
"WWWWWWWnbWWWWWWWWWVAWWWWWWWWWWWWWWWVVW..FFVWWWWWWWWWWWWWWWWWWWWW",
"WWWWWWWnbWWWWWWWWAVJWWWWWWW362W<1WWVnWW.FFVWWWWWWWWWWWWWWWWWWWWW",
"WWWWWWWnkWWWWWWWWUAWWWWW26WW3664:tWVnWW.FFiWWWWWWWWWWWWWWWWWWWWW",
"WWWWWWWWWWWWWWWWWDTWWWWWWWWW.136.eenVW$.FDMWWWWWWWWWWWWWWWWWWWWW",
"WWWWWWWWWWWWWWWWWBTWWWWWWWW.X:&>+r9nWWqfFa4WWWWWWWWWWWWWWWWWWWWW",
"WWWWWWWWWWWWWWWWWWTWWWWWWW..o:W+W96iWWpFZr8WWWWWWWWWWWWWTWWWWWWW",
"WWWWWWWWWWWWWWWWWTTWWWWWWW6&&OoWWW+o.=:VV68WWWWWWWWWWWWWTWWWWWWW",
"WWWWWWWWWWWWWWWWWTWWWWWWWWdf*.qWWW..O*e+998WWnWWWWWWWWWWTWWWWWWW",
"WWWWWWWWWWWWWWWWWWTWWWWWWWdV*W::3WW$:$h.88WWxnWWWWWWWWWWTWWWWWWW",
"WWWWWWWWWWWWWWWWWWWWWWWVVffuWWWW222:=o..=2WWvWWWWWWWWWWWTWWWWWWW",
"WWWWWWWWWWWWWWWWWWWWWWWVVWDi.WWWW1<=$....WWjnWWWWWWWWWWTTWWWWWWW",
"WWWWWWWWWWWWWWWWWWWWWWVVVWFF.WWWWWWX.....WWnnWWWWWWWWWWTPWWWWWWW",
"WWWWWWWWWWWWWWWWWWWWWWVVVVWFi.WW<$::....WWnnWWWWWWWWWWWTRWWWWWWW",
"WWWWWWWWWWWWWWWWWWWWWWVVVVWFDeW66666..WWWWnWWWWWWWWWWWWTHWWWWWWW",
"WWWWWWWWWWWWWWWWWWWWWWVVVWWWFD=W4666WWWWWbnWWWWWWWWWWWWTlWWWWWWW",
"WWWWWWWWWWWWWWWWWWWWWWVVVWWWFFFfq.33q9WlnWWWWWWWWWWWWWRAnIWWWWWW",
"WWWWWWWWWWWWWWWWWWWWWSVVVWWWWWFFFWWWvxcnnWWWWWWWWWWWWWUmHEWWWWWW",
"WWWWWWWWWWWWWWWWWWWWWWVVVWWWWWWWFFFCBnWWWWWWWWWWWWWWWTPbIWWWWWWW",
"WWWWWWWWWWWWWWWWWWWWWWWVVWWWWWWWWWFWWWWWWWWWWWWWWWWWWTnVRWWWWWWW",
"WWWWWWWWWWWWWWWWWWWWWWWVVWWWWWWWWWWWWWWWWWWWWWWWWWWWEAvSRWWWWWWW",
"WWWWWWWWWWWWWWWWWWWWWWWZVVWWWWWWWWWWWWWWWWWWWWWWWWWTUMSSWWWWWWWW",
"WWWWWWWWWWWWWWWWWWWWWWSSAVWWWWWWWWWWWWWWWWWWWWWWWWWRCnSSWWWWWWWW",
"WWWWWWWWWWWWWWWWWWWWWWWSSWWWWWWWWWWWWWWWWWWWWWWWWWYHNSSWWWWWWWWW",
"WWWWWWWWWWWWWWWWWWWWWWWSSWWWWWWWWWWWWWWWWWWWWWWWWTKxSSWWWWWWWWWW",
"WWWWWWWWWWWWWWWWWWWWWWWWSSWWWWWWWWWWWWWWWWWWWWWWWIvZSWWWWWWWWWWW",
"WWWWWWWWWWWWWWWWWWWWWWWWSSSWWWWWWWWWWWWWWWWWWWWWWSSSSWWWWWWWWWWW",
"WWWWWWWWWWWWWWWWWWWWWWWWWSSSWWWWWWWWWWWWWWWWWWWSSSSSWWWWWWWWWWWW",
"WWWWWWWWWWWWWWWWWWWWWWWWWWSSSWWWWWWWWWWWWWWWWWSSSSSWWWWWWWWWWWWW",
"WWWWWWWWWWWWWWWWWWWWWWWWWWSSSSWWWWWWWWWWWWWWSSSSSSWWWWWWWWWWWWWW",
"WWWWWWWWWWWWWWWWWWWWWWWWWWWWSSSSWWWWWWWWSSSSSSSSWWWWWWWWWWWWWWWW",
"WWWWWWWWWWWWWWWWWWWWWWWWWWWWWSSSSSSSSSSSSSSSSSSWWWWWWWWWWWWWWWWW",
"WWWWWWWWWWWWWWWWWWWWWWWWWWWWWWSSSSSSSSSSSSSSSWWWWWWWWWWWWWWWWWWW",
"WWWWWWWWWWWWWWWWWWWWWWWWWWWWWWWWSSSSSSSSSSSSWWWWWWWWWWWWWWWWWWWW",
"WWWWWWWWWWWWWWWWWWWWWWWWWWWWWWWWWWWWWWWWWWWWWWWWWWWWWWWWWWWWWWWW",
"WWWWWWWWWWWWWWWWWWWWWWWWWWWWWWWWWWWWWWWWWWWWWWWWWWWWWWWWWWWWWWWW",
"WWWWWWWWWWWWWWWWWWWWWWWWWWWWWWWWWWWWWWWWWWWWWWWWWWWWWWWWWWWWWWWW",
"WWWWWWWWWWWWWWWWWWWWWWWWWWWWWWWWWWWWWWWWWWWWWWWWWWWWWWWWWWWWWWWW",
"WWWWWWWWWWWWWWWWWWWWWWWWWWWWWWWWWWWWWWWWWWWWWWWWWWWWWWWWWWWWWWWW",
"WWWWWWWWWWWWWWWWWWWWWWWWWWWWWWWWWWWWWWWWWWWWWWWWWWWWWWWWWWWWWWWW"
};
