/* XPM */
static char *exit7[] = {
/* columns rows colors chars-per-pixel */
"64 64 70 1 ",
"  c #1A1625",
". c #1C1729",
"X c #201930",
"o c #211930",
"O c #221A33",
"+ c #251B38",
"@ c #261B39",
"# c #261B3A",
"$ c #271C3B",
"% c #281C3D",
"& c #291C3E",
"* c #2B1D41",
"= c #2B1D42",
"- c #2D1E45",
"; c #2D1F46",
": c #2E1F47",
"> c #2E1F48",
", c #2F1F49",
"< c #30204B",
"1 c #32204D",
"2 c #32214E",
"3 c #332150",
"4 c #342252",
"5 c #352253",
"6 c #362255",
"7 c #372356",
"8 c #382358",
"9 c #3A245B",
"0 c #412561",
"q c #492564",
"w c #4B2465",
"e c #502467",
"r c #552469",
"t c #5C246C",
"y c #5E246D",
"u c #60246E",
"i c #642470",
"p c #692372",
"a c #6D2374",
"s c #702375",
"d c #772378",
"f c #7A257C",
"g c #7B257D",
"h c #7D267F",
"j c #7E2781",
"k c #802883",
"l c #822985",
"z c #872C8C",
"x c #8D2F94",
"c c #8E2F95",
"v c #903097",
"b c #93329C",
"n c #96339F",
"m c #9835A2",
"M c #9C36A6",
"N c #9E38A9",
"B c #A23AAE",
"V c #A43BB1",
"C c #A63CB3",
"Z c #A73DB3",
"A c #B248AF",
"S c #B54BAF",
"D c #B84EAE",
"F c #BD53AD",
"G c #BF55AC",
"H c #AC42B1",
"J c #B147B0",
"K c #C056AC",
"L c #C55BAA",
"P c None",
/* pixels */
"PPPPPPPPPPPPPPPPPPPPPPPPPPPPPPPPPPPPPPPPPPPPPPPPPPPPPPPPPPPPPPPP",
"PPPPPPPPPPPPPPPPPPPPPPPPPPPPPPPPPPPPPPPPPPPPPPPPPPPPPPPPPPPPPPPP",
"PPPPPPPPPPPPPPPPPPPPPPPPPPPPPPPPPPPPPPPPPPPPPPPPPPPPPPPPPPPPPPPP",
"PPPPPPPPPPPPPPPPPPPPPPPPPPPPPPPPPPPPPPPPPPPPPPPPPPPPPPPPPPPPPPPP",
"PPPPPPPPPPPPPPPPPPPPPPPPPPPPPPPPPPPPPPPPPPPPPPPPPPPPPPPPPPPPPPPP",
"PPPPPPPPPPPPPPPPPPPPPPPPPPPPPPPPPPPPPPPPPPPPPPPPPPPPPPPPPPPPPPPP",
"PPPPPPPPPPPPPPPPPPPPPPPPPPPPPPPPPPPPPPPPPPPPPPPPPPPPPPPPPPPPPPPP",
"PPPPPPPPPPPPPPPPPPPPPPPPPPPPPPPPPPPPPPPPPPPPPPPPPPPPPPPPPPPPPPPP",
"PPPPPPPPPPPPPPPPPPPPPPPPPPPPPPPPPPPPPPPPPPPPPPPPPPPPPPPPPPPPPPPP",
"PPPPPPPPPPPPPPPPPPPPPPPPZZZZZPPPPPPPPPPPPPPPPPPPPPPPPPPPPPPPPPPP",
"PPPPPPPPPPPPPPPPPPPZZZZZZZZZZZZZZZPPPPPPPPPPPPPPPPPPPPPPPPPPPPPP",
"PPPPPPPPPPPPPPPPPZZZZZZZZZZZZZZZZZZPPPPPPPPPPPPPPPPPPPPPPPPPPPPP",
"PPPPPPPPPPPPPPPPZZZZZZZVVVVVZZZZZZZZPPPPPPPPPPPPPPPPPPPPPPPPPPPP",
"PPPPPPPPPPPPPPZZZZZZBBBMMMMMNBVZZZZZZPPPPPPPPPPPPPPPPPPPPPPPPPPP",
"PPPPPPPPPPPPPPZZZZVNMMMMMPPPMMMNBZZZZZPPPPPPPPPPPPPPPPPPPPPPPPPP",
"PPPPPPPPPPPPPZZZZNNMMPPPPPPPPPMMMNZZZZZPPPPPPPPPPPPPPPPPPPPPPPPP",
"PPPPPPPPPPPPZZZZMMMPPPPPPPPPPPPPMMNVZZZZPPPPPPPPPPPPPPPPPPPPPPPP",
"PPPPPPPPPPPZZZNNMMPPPPPPPPPPPPPPPPMMVZZZPPPPPPPPPPPPPPPPPPPPPPPP",
"PPPPPPPPPPZZZMmMPPPPPPPPPBBBBBBBPPPMMVZZZPPPPPPPPPPPPPPPPPPPPPPP",
"PPPPPPPPPZZZBmMPPPPPPPPBBBBBkMBBHPPPMNZZZPPPPPPPPPPPPPPPPPPPPPPP",
"PPPPPPPPPZZVnMPPPPPPPPBBBzPPPPPHBFPPPMNZZPPPPPPPPPPPPPPPPPPPPPPP",
"PPPPPPPPPZVnMPPPPPPPPBnBPPPPPPPPPSLPPPMVZZPPPPPPPPPPPPPPPPPPPPPP",
"PPPPPPPPZZBMPPPPPPPPBBPPPPPPPPPPPfLLPPMNZZPPPPPPPPPPPPPPPPPPPPPP",
"PPPPPPPZZZnaPPPPPPPBBPPPPPPPPPPPP hLLPPxZZPPPPPPPPPPPPPPPPPPPPPP",
"PPPPPPPZZnvPPPPPPPPBBPPPPPPPPPPPPPtLKPP6NZPPPPPPPPPPPPPPPPPPPPPP",
"PPPPPPPZVblPPPPPPPBBPPPPPPPPPPPPPP AFPP3wBZPPPPPPPPPPPPPPPPPPPPP",
"PPPPPPPZBxPPPPPPPPBPPPPPPPPPPPPPPPPDLPP3-nZPPPPPPPPPPPPPPPPPPPPP",
"PPPPPPPZvuPPPPPPPPBPPPPPPPP4o. tPPPfLPP3<nrPPPPPPPPPPPPPPPPPPPPP",
"PPPPPPPBxPPPPPPPPBPPPPPPPPosf2 tt2PvmPP3>xPjPPPPPPPPPPPPPPPPPPPP",
"PPPPPPPxxPPPPPPPPPPPPPPP-+ujr  r22% <PP3i%PjPMPPPPPPPPPPPPPPPPPP",
"PPPPPPPbvPPPPPPPPPPPPPPP22lj% PP2=o%<dP3n%jPPMPPPPPPPPPPPPPPPPPP",
"PPPPPPPvxPPPPPPPPPPPPPP22-494jhP=o -wjP3bisPPPPPPPPPPPPPPPPPPPPP",
"PPPPPPPxxPPPPPPPPPPPPPP2<7yt7P44   =hjP=2-2PmZPPPPPPPPPPPPPPPPPP",
"PPPPPPPxPPPPPPPPPPPPPP22$serPPP2   sPP-wu0<anZPPPPPPPPPPPPPPPPPP",
"PPPPPPPvPPPPPPPPPPPPPP<> 6=2PPPPPPPPP;8fjaPvBZPPPPPPPPPPPPPPPPPP",
"PPPPPPPxPPPPPPPPPPPPP2aKGyx4PPPPPPPPP,wjjhPbZPPPPPPPPPPPPPPPPPPP",
"PPPPPPPxPPPPPPPPPPPPPtLLLiVVePPaaPPPPhhjhtMVZPPPPPPPPPPPPPPPPPPP",
"PPPPPPPPPPPPPPPPPPPPPLLLAiPZMPaaPPPPjjjjrxBZPPPPPPPPPPPPPPPPPPPP",
"PPPPPPPPPPPPPPPPPPPPPFLLizPZBNpaPPPPjjjPzMZZPPPPPPPPPPPPPPPPPPPP",
"PPPPPPPPPPPPPPPPPPPPPDLL%PPZZCMPPPPPPPPMNZZPPPPPPPPPPPPPPPPPPPPP",
"PPPPPPPPPPPPPPPPPPPPPDLL PPPZZZNNMPPPMNVZZZPPPPPPPPPPPPPBPPPPPPP",
"PPPPPPPPPPPPPPPPPPPPPDLLp PPPZZZZNNNNNZZZZPPPPPPPPPPPPPBBPPPPPPP",
"PPPPPPPPPPPPPPPPPPPPPGLLD PPPPZZZZZZZZZZPPPPPPPPPPPPPPPBPPPPPPPP",
"PPPPPPPPPPPPPPPPPPPPPPLLD PPPPPPPZZZZPPPPPPPPPPPPPPPPPBBPPPPPPPP",
"PPPPPPPPPPPPPPPPPPPPPPLLD+ PPPPPPPPPPPPPPPPPPPPPPPPPPPBBPPPPPPPP",
"PPPPPPPPPPPPPPPPPPPPPPLLLi PPPPPPPPPPPPPPPPPPPPPPPPPPBBPPPPPPPPP",
"PPPPPPPPPPPPPPPPPPPPPPLLLA  PPPPPPPPPPPPPPPPPPPPPPPPBBBPPPPPPPPP",
"PPPPPPPPPPPPPPPPPPPPPPPLLLDPPPPPPPPPPPPPPPPPPPPPPPPBBBPPPPPPPPPP",
"PPPPPPPPPPPPPPPPPPPPPPPLLLLPPPPPPPPPPPPPPPPPPPPPPPPBBPPPPPPPPPPP",
"PPPPPPPPPPPPPPPPPPPPPPPPLLFLPPPPPPPPPPPPPPPPPPPPPPBBPPPPPPPPPPPP",
"PPPPPPPPPPPPPPPPPPPPPPPPLLVALPPPPPPPPPPPPPPPPPPPmBBBPPPPPPPPPPPP",
"PPPPPPPPPPPPPPPPPPPPPPPPPLDBHFfPPPPPPPPPPPPPPPzNBBBPPPPPPPPPPPPP",
"PPPPPPPPPPPPPPPPPPPPPPPPPPFBBBHvPPPPPPPPPPPPPMBBBBPPPPPPPPPPPPPP",
"PPPPPPPPPPPPPPPPPPPPPPPPPPPSBBBBzzdPPPPPPPnzBBBBBPPPPPPPPPPPPPPP",
"PPPPPPPPPPPPPPPPPPPPPPPPPPPPJHBBBBbbbbbbbNBBBBBBPPPPPPPPPPPPPPPP",
"PPPPPPPPPPPPPPPPPPPPPPPPPPPPPPBBBBBBBBBBBBBBBPPPPPPPPPPPPPPPPPPP",
"PPPPPPPPPPPPPPPPPPPPPPPPPPPPPPPPBBBBBBBBBBBBPPPPPPPPPPPPPPPPPPPP",
"PPPPPPPPPPPPPPPPPPPPPPPPPPPPPPPPPPBBBBBBBPPPPPPPPPPPPPPPPPPPPPPP",
"PPPPPPPPPPPPPPPPPPPPPPPPPPPPPPPPPPPPPPPPPPPPPPPPPPPPPPPPPPPPPPPP",
"PPPPPPPPPPPPPPPPPPPPPPPPPPPPPPPPPPPPPPPPPPPPPPPPPPPPPPPPPPPPPPPP",
"PPPPPPPPPPPPPPPPPPPPPPPPPPPPPPPPPPPPPPPPPPPPPPPPPPPPPPPPPPPPPPPP",
"PPPPPPPPPPPPPPPPPPPPPPPPPPPPPPPPPPPPPPPPPPPPPPPPPPPPPPPPPPPPPPPP",
"PPPPPPPPPPPPPPPPPPPPPPPPPPPPPPPPPPPPPPPPPPPPPPPPPPPPPPPPPPPPPPPP",
"PPPPPPPPPPPPPPPPPPPPPPPPPPPPPPPPPPPPPPPPPPPPPPPPPPPPPPPPPPPPPPPP"
};
