/* XPM */
static char *exit5[] = {
/* columns rows colors chars-per-pixel */
"64 64 80 1 ",
"  c black",
". c #1A1625",
"X c #1C1729",
"o c #1E182C",
"O c #20192F",
"+ c #201930",
"@ c #211930",
"# c #211931",
"$ c #231A35",
"% c #241B37",
"& c #251B38",
"* c #261B39",
"= c #261B3A",
"- c #271C3B",
"; c #281C3D",
": c #291C3E",
"> c #291D3F",
", c #2B1D41",
"< c #2B1D42",
"1 c #2D1E45",
"2 c #2E1F48",
"3 c #30204A",
"4 c #30204B",
"5 c #32204D",
"6 c #332150",
"7 c #342252",
"8 c #352254",
"9 c #372356",
"0 c #382358",
"q c #39245B",
"w c #3A245B",
"e c #3B245D",
"r c #3B255E",
"t c #3F2560",
"y c #412561",
"u c #492564",
"i c #4B2465",
"p c #502467",
"a c #512468",
"s c #552469",
"d c #5C246C",
"f c #5D246D",
"g c #642470",
"h c #692372",
"j c #6D2374",
"k c #6F2375",
"l c #742377",
"z c #7A257C",
"x c #7D267F",
"c c #7E2781",
"v c #802883",
"b c #822985",
"n c #872C8C",
"m c #8B2E92",
"M c #8C2E93",
"N c #8D2F94",
"B c #93329C",
"V c #96339F",
"C c #9835A2",
"Z c #9C36A6",
"A c #A23AAE",
"S c #B248AF",
"D c #B54BAF",
"F c #B84EAE",
"G c #BD53AD",
"H c #AC42B1",
"J c #B147B0",
"K c #C056AC",
"L c #C55BAA",
"P c #CB61A9",
"I c #CC62A8",
"U c #CF65A8",
"Y c #D167A7",
"T c #D269A6",
"R c #D76DA5",
"E c #DF86B4",
"W c #E18CB8",
"Q c #E290BA",
"! c #E393BC",
"~ c None",
/* pixels */
"~~~~~~~~~~~~~~~~~~~~~~~~~~~~~~~~~~~~~~~~~~~~~~~~~~~~~~~~~~~~~~~~",
"~~~~~~~~~~~~~~~~~~~~~~~~~~~~~~~~~~~~~~~~~~~~~~~~~~~~~~~~~~~~~~~~",
"~~~~~~~~~~~~~~~~~~~~~~~~~~~~~~~~~~~~~~~~~~~~~~~~~~~~~~~~~~~~~~~~",
"~~~~~~~~~~~~~~~~~~~~~~~~~~~~~~~~~~~~~~~~~~~~~~~~~~~~~~~~~~~~~~~~",
"~~~~~~~~~~~~~~~~~~~~~~~~~~~~~~~~~~~~~~~~~~~~~~~~~~~~~~~~~~~~~~~~",
"~~~~~~~~~~~~~~~~~~~~~~~~~~~~~~~~~~~~~~~~~~~~~~~~~~~~~~~~~~~~~~~~",
"~~~~~~~~~~~~~~~~~~~~~~~~~~~~~~~~~~~~~~~~~~~~~~~~~~~~~~~~~~~~~~~~",
"~~~~~~~~~~~~~~~~~~~~~~~~~~~~~~~~~~~~~~~~~~~~~~~~~~~~~~~~~~~~~~~~",
"~~~~~~~~~~~~~~~~~~~~~~~~~~~~~~~~~~~~~~~~~~~~~~~~~~~~~~~~~~~~~~~~",
"~~~~~~~~~~~~~~~~~~~~~~~~TT~~~~~~~~~~~~~~~~~~~~~~~~~~~~~~~~~~~~~~",
"~~~~~~~~~~~~~~~~~~~TTTTTTTTTTTTL~~~~~~~~~~~~~~~~~~~~~~~~~~~~~~~~",
"~~~~~~~~~~~~~~~~~TTTTTTTTTTTTTTTTIZ~~~~~~~~~~~~~~~~~~~~~~~~~~~~~",
"~~~~~~~~~~~~~~~~TTTTTTTYYYYYUITTTTPAZ~~~~~~~~~~~~~~~~~~~~~~~~~~~",
"~~~~~~~~~~~~~~TTTTTTUUUPPPPPKnIFTTTTS~~~~~~~~~~~~~~~~~~~~~~~~~~~",
"~~~~~~~~~~~~~~TTTTYUPPP~~~~~~~GNLITTUA~~~~~~~~~~~~~~~~~~~~~~~~~~",
"~~~~~~~~~~~~~TTTTUIPP~~~~~~~~~~LbPNYTSZ~~~~~~~~~~~~~~~~~~~~~~~~~",
"~~~~~~~~~~~~TTTYPPP~~~~~~~~~~~~~~ytsIYZZ~~~~~~~~~~~~~~~~~~~~~~~~",
"~~~~~~~~~~~TTTYIPP~~~~~~~~~~~~~~~~~7rIZZZ~~~~~~~~~~~~~~~~~~~~~~~",
"~~~~~~~~~~TTTTIP~~~~~~~~~QQQQQQQ~~~~~~ZZZZ~~~~~~~~~~~~~~~~~~~~~~",
"~~~~~~~~~TTTTUP~~~~~~~~EQQWWFEWQQ~~~~~~ZZZ~~~~~~~~~~~~~~~~~~~~~~",
"~~~~~~~~~TTTUP~~~~~~~~QWEJ<<*>>EEQ~~~~~ZZZZ~~~~~~~~~~~~~~~~~~~~~",
"~~~~~~~~TTTYP~~~~~~~IEEG~~~~~~~  EQ~~~~VZZZ~~~~~~~~~~~~~~~~~~~~~",
"~~~~~~~~TTYI~~~~~~~~TU~~~~~~~~~~.cL!~~~hZZZ~~~~~~~~~~~~~~~~~~~~~",
"~~~~~~~TTTIP~~~~~~~YD~~~~~~~~~~~~><g~~~7ZZZ~~~~~~~~~~~~~~~~~~~~~",
"~~~~~~~TTYP~~~~~~~~EH~~~~~~~~~~~~~o.t~~aZZZ~~~~~~~~~~~~~~~~~~~~~",
"~~~~~~~TTIP~~~~~~~RK~~~~~~~~~~~~~~1X8~~~ZZZ~~~~~~~~~~~~~~~~~~~~~",
"~~~~~~~TYI~~~~~~~~UG~~~~~~~~~~88~~2+>~~~ZZZ~~~~~~~~~~~~~~~~~~~~~",
"~~~~~~~TYP~~~~~~~UI~~~~~~~~~ry878~21-~~~ZZZ~~~~~~~~~~~~~~~~~~~~~",
"~~~~~~~TP~~~~~~~~UH~~~~~~~~rqvl4r~7+.~~~ZZZ~~~~~~~~~~~~~~~~~~~~~",
"~~~~~~~TP~~~~~~~~KH~~~~~.1rryk<.r*7o.zZZZZZ~~U~~~~~~~~~~~~~~~~~~",
"~~~~~~~UP~~~~~~~~~~~~~~~..qqv5<~~4*XoNZZZZZ~~U~~~~~~~~~~~~~~~~~~",
"~~~~~~~IP~~~~~~~~H~~~~~...BBCd8~~-0%%NZZZZZ~~~~~~~~~~~~~~~~~~~~~",
"~~~~~~~IP~~~~~~~~H~~~~~..5ZZNv~~X8r*gZZZZZZ~IT~~~~~~~~~~~~~~~~~~",
"~~~~~~~P~~~~~~~~~~~~~~...NZNxv~i*r~~~ZZZZZ~~UT~~~~~~~~~~~~~~~~~~",
"~~~~~~~P~~~~~~~~~~~~~~..oNZdo~~~~~~~~C~~~~~PTT~~~~~~~~~~~~~~~~~~",
"~~~~~~~P~~~~~~~~~~~~~~..+yZdqrr~~~~~M~~~~~~YT~~~~~~~~~~~~~~~~~~~",
"~~~~~~~P~~~~~~~~~~~~~~..%2ZCrrr~~~~nn~~~~~PYT~~~~~~~~~~~H~~~~~~~",
"~~~~~~~~~~~~~~~~~~~~~t..12MZqqrr~~Mks~~~~PUT~~~~~~~~~~~~H~~~~~~~",
"~~~~~~~~~~~~~~~~~~~~~t..22dZn7qr~MMN~~~~PUTT~~~~~~~~~~~HH~~~~~~~",
"~~~~~~~~~~~~~~~~~~~~~y..22dZCpq~~~~~~~~PITT~~~~~~~~~~~~HP~~~~~~~",
"~~~~~~~~~~~~~~~~~~~~~t+.124~ZKLgz~~~~~IYTTT~~~~~~~~~~~~JU~~~~~~~",
"~~~~~~~~~~~~~~~~~~~~~tqO+2~~~ZTTCUUUUUTTTT~~~~~~~~~~~~HLU~~~~~~~",
"~~~~~~~~~~~~~~~~~~~~~yy>X<~~~~DDTTTTTTTT~~~~~~~~~~~~~~SIU~~~~~~~",
"~~~~~~~~~~~~~~~~~~~~~~r*.>~~~~~~~~T~~~~~~~~~~~~~~~~~~HFUU~~~~~~~",
"~~~~~~~~~~~~~~~~~~~~~~y<..2~~~~~~~~~~~~~~~~~~~~~~~~~~DUU~~~~~~~~",
"~~~~~~~~~~~~~~~~~~~~~~~Cc.>~~~~~~~~~~~~~~~~~~~~~~~~~DEU~~~~~~~~~",
"~~~~~~~~~~~~~~~~~~~~~~~QEsX<~~~~~~~~~~~~~~~~~~~~~~~~KEU~~~~~~~~~",
"~~~~~~~~~~~~~~~~~~~~~~~QQE*o.~~~~~~~~~~~~~~~~~~~~~~HEYU~~~~~~~~~",
"~~~~~~~~~~~~~~~~~~~~~~~~QQR..~~~~~~~~~~~~~~~~~~~~~JEUU~~~~~~~~~~",
"~~~~~~~~~~~~~~~~~~~~~~~~QQQs..~~~~~~~~~~~~~~~~~~HKUTU~~~~~~~~~~~",
"~~~~~~~~~~~~~~~~~~~~~~~~QQQQ~...~~~~~~~~~~~~~~~HFWRU~~~~~~~~~~~~",
"~~~~~~~~~~~~~~~~~~~~~~~~~QQQQ~~...~~~~~~~~~~~HJEWRU~~~~~~~~~~~~~",
"~~~~~~~~~~~~~~~~~~~~~~~~~~QQQQQ~u*.....~~~~~JFQQEUU~~~~~~~~~~~~~",
"~~~~~~~~~~~~~~~~~~~~~~~~~~~QQQQQPEBkjkjj~~FPTQWEU~~~~~~~~~~~~~~~",
"~~~~~~~~~~~~~~~~~~~~~~~~~~~~QQQQQQEEEEEEEEEQQQEI~~~~~~~~~~~~~~~~",
"~~~~~~~~~~~~~~~~~~~~~~~~~~~~~QQQQQQQQQQQQQQQET~~~~~~~~~~~~~~~~~~",
"~~~~~~~~~~~~~~~~~~~~~~~~~~~~~~~QQQQQQQQQQQQQ~~~~~~~~~~~~~~~~~~~~",
"~~~~~~~~~~~~~~~~~~~~~~~~~~~~~~~~~~QQQQQQQQ~~~~~~~~~~~~~~~~~~~~~~",
"~~~~~~~~~~~~~~~~~~~~~~~~~~~~~~~~~~~~~~~~~~~~~~~~~~~~~~~~~~~~~~~~",
"~~~~~~~~~~~~~~~~~~~~~~~~~~~~~~~~~~~~~~~~~~~~~~~~~~~~~~~~~~~~~~~~",
"~~~~~~~~~~~~~~~~~~~~~~~~~~~~~~~~~~~~~~~~~~~~~~~~~~~~~~~~~~~~~~~~",
"~~~~~~~~~~~~~~~~~~~~~~~~~~~~~~~~~~~~~~~~~~~~~~~~~~~~~~~~~~~~~~~~",
"~~~~~~~~~~~~~~~~~~~~~~~~~~~~~~~~~~~~~~~~~~~~~~~~~~~~~~~~~~~~~~~~",
"~~~~~~~~~~~~~~~~~~~~~~~~~~~~~~~~~~~~~~~~~~~~~~~~~~~~~~~~~~~~~~~~"
};
