/* XPM */
static char *exit12[] = {
/* columns rows colors chars-per-pixel */
"64 64 70 1 ",
"  c black",
". c #1A1625",
"X c #1C1729",
"o c #1E182C",
"O c #20192F",
"+ c #201930",
"@ c #211931",
"# c #221A33",
"$ c #231A35",
"% c #241B37",
"& c #261B39",
"* c #271C3B",
"= c #291C3E",
"- c #291D3F",
"; c #2B1D41",
": c #2B1D42",
"> c #2D1E45",
", c #2E1F47",
"< c #2E1F48",
"1 c #2F1F49",
"2 c #30204B",
"3 c #32204D",
"4 c #32214E",
"5 c #332150",
"6 c #342252",
"7 c #362255",
"8 c #372356",
"9 c #382358",
"0 c #39245B",
"q c #3A245B",
"w c #3B245D",
"e c #3B255E",
"r c #3F2560",
"t c #412561",
"y c #492564",
"u c #4B2465",
"i c #4D2466",
"p c #552469",
"a c #5E246D",
"s c #60246E",
"d c #672371",
"f c #692372",
"g c #6D2374",
"h c #702375",
"j c #772378",
"k c #7A257C",
"l c #7B257D",
"z c #7C257E",
"x c #7D267F",
"c c #822985",
"v c #872C8C",
"b c #B84EAE",
"n c #BF55AC",
"m c #C55BAA",
"M c #CB61A9",
"N c #CC62A8",
"B c #CF65A8",
"V c #D167A7",
"C c #D269A6",
"Z c #D76DA5",
"A c #DF86B4",
"S c #E18CB8",
"D c #E290BA",
"F c #E393BC",
"G c #E497BE",
"H c #E59AC0",
"J c #E8A3C6",
"K c #E9A9C9",
"L c #EAACCB",
"P c None",
/* pixels */
"PPPPPPPPPPPPPPPPPPPPPPPPPPPPPPPPPPPPPPPPPPPPPPPPPPPPPPPPPPPPPPPP",
"PPPPPPPPPPPPPPPPPPPPPPPPPPPPPPPPPPPPPPPPPPPPPPPPPPPPPPPPPPPPPPPP",
"PPPPPPPPPPPPPPPPPPPPPPPPPPPPPPPPPPPPPPPPPPPPPPPPPPPPPPPPPPPPPPPP",
"PPPPPPPPPPPPPPPPPPPPPPPPPPPPPPPPPPPPPPPPPPPPPPPPPPPPPPPPPPPPPPPP",
"PPPPPPPPPPPPPPPPPPPPPPPPPPPPPPPPPPPPPPPPPPPPPPPPPPPPPPPPPPPPPPPP",
"PPPPPPPPPPPPPPPPPPPPPPPPPPPPPPPPPPPPPPPPPPPPPPPPPPPPPPPPPPPPPPPP",
"PPPPPPPPPPPPPPPPPPPPPPPPPPPPPPPPPPPPPPPPPPPPPPPPPPPPPPPPPPPPPPPP",
"PPPPPPPPPPPPPPPPPPPPPPPPPPPPPPPPPPPPPPPPPPPPPPPPPPPPPPPPPPPPPPPP",
"PPPPPPPPPPPPPPPPPPPPPPPPPPPPPPPPPPPPPPPPPPPPPPPPPPPPPPPPPPPPPPPP",
"PPPPPPPPPPPPPPPPPPPPPPPPPPPPPPPPPPPPPPPPPPPPPPPPPPPPPPPPPPPPPPPP",
"PPPPPPPPPPPPPPPPPPPPKKKKKKKKKKKKPPPPPPPPPPPPPPPPPPPPPPPPPPPPPPPP",
"PPPPPPPPPPPPPPPPPPKKKKKKKKKKKKKKKKPPPPPPPPPPPPPPPPPPPPPPPPPPPPPP",
"PPPPPPPPPPPPPPPPPKKKKJHGDPPPPPPPKKKPPPPPPPPPPPPPPPPPPPPPPPPPPPPP",
"PPPPPPPPPPPPPPPKKKKGFmv .XXXXPPPPKKKPPPPPPPPPPPPPPPPPPPPPPPPPPPP",
"PPPPPPPPPPPPPPKKKKSZz4.XXXXXXXXX.PPKKPPPPPPPPPPPPPPPPPPPPPPPPPPP",
"PPPPPPPPPPPPPJKKGCP;.PPPPOPPPX$$XX.PKbPPPPPPPPPPPPPPPPPPPPPPPPPP",
"PPPPPPPPPPPPGKKZBPPPPPPPPPPPPPPX,X@XPKcPPPPPPPPPPPPPPPPPPPPPPPPP",
"PPPPPPPPPPPGKHSMPPPPPPPPPPPPPPPPPX4*.GPPPPPPPPPPPPPPPPPPPPPPPPPP",
"PPPPPPPPPPSJJVPPPPPPPPPPJJJHHHPPPP57-PPPPPPPPPPPPPPPPPPPPPPPPPPP",
"PPPPPPPPPSFKCPPPPPPPPPPJJHHHHHHHHPP55$PPPPPPPPPPPPPPPPPPPPPPPPPP",
"PPPPPPPPPSKANPPPPPPPPJJHHHPPPPHHHPPP7-XPPPPPPPPPPPPPPPPPPPPPPPPP",
"PPPPPPPPPSJCPPPPPPPPJJHHPPPPPPPPPHPPP5XXPPPPPPPPPPPPPPPPPPPPPPPP",
"PPPPPPPPSHAMPPPPPPPPJHPPPPPPPPPPPPPPP5-XXPPPPPPPPPPPPPPPPPPPPPPP",
"PPPPPPPSFANPPPPPPPPJHPPPPPPPPPPPPPPPPP5$XPPPPPPPPPPPPPPPPPPPPPPP",
"PPPPPPPSGZPPPPPPPPPHHPPPPPPPPPPPPPPPPw6&XPPPPPPPPPPPPPPPPPPPPPPP",
"PPPPPPPSHMPPPPPPPPJHPPPPPPPPPPPPPPPPPw6;XXXPPPPPPPPPPPPPPPPPPPPP",
"PPPPPPPHAPPPPPPPPJJPPPPPPPPPXoXXPPPPee66XXXPPPPPPPPPPPPPPPPPPPPP",
"PPPPPPPJNPPPPPPPPJJPPPPPPooosXas@oPPew66XXPPPPPPPPPPPPPPPPPPPPPP",
"PPPPPPPBNPPPPPPPPJPPPPPPP$&&y=1gd#oPe766XXXPPPPPPPPPPPPPPPPPPPPP",
"PPPPPPPNPPPPPPPPPJPPPPPP@wtwyuzzP;XPtw96XXXPPPPPPPPPPPPPPPPPPPPP",
"PPPPPPPNPPPPPPPPPPPPPPPP9ty;ujPPPP7tyyw:XXPPPPPPPPPPPPPPPPPPPPPP",
"PPPPPPPPPPPPPPPPPPPPPPPwtPy;tPPPP95r2y9%X8PPPPPPPPPPPPPPPPPPPPPP",
"PPPPPPPPPPPPPPPPPPPPPPPtPP7<tytPll,-Py6X2yPPPAPPPPPPPPPPPPPPPPPP",
"PPPPPPPPPPPPPPPPPPPPPPPPPPX,trXoffooPw7,i9PPAGPPPPPPPPPPPPPPPPPP",
"PPPPPPPPPPPPPPPPPPPPPPPPPPX27wPPPPPP;ttty4PPZFPPPPPPPPPPPPPPPPPP",
"PPPPPPPPPPPPPPPPPPPPPPPPPPX27rPPPPPX5rwwyPPNHPPPPPPPPPPPPPPPPPPP",
"PPPPPPPPPPPPPPPPPPPPPPPPPPXo5tPPPPPXyyrryPPCSPPPPPPPPPPPPPPPPPPP",
"PPPPPPPPPPPPPPPPPPPPPPPPPPPX@2llPPXXyyyyPPGGPPPPPPPPPPPPPPPPPPPP",
"PPPPPPPPPPPPPPPPPPPPPPPPPPPPP4szXXXXyyPPPPJDPPPPPPPPPPPPPPPPPPPP",
"PPPPPPPPPPPPPPPPPPPPPPPPPPPPP474PPPoPPP-PJKPPPPPPPPPPPPPPPPPPPPP",
"PPPPPPPPPPPPPPPPPPPPPPPPPPPPPHP.;Xh4X.cCKKPPPPPPPPPPPPPPJJPPPPPP",
"PPPPPPPPPPPPPPPPPPPPPPPPPPPPPPKPv   pnDLKPPPPPPPPPPPPPPJJJPPPPPP",
"PPPPPPPPPPPPPPPPPPPPPPPPPPPPPPPPLLLLLKKPPPPPPPPPPPPPPPPJJPPPPPPP",
"PPPPPPPPPPPPPPPPPPPPPPPPPPPPPPPPPPKPPPPPPPPPPPPPPPPPPPHJJPPPPPPP",
"PPPPPPPPPPPPPPPPPPPPPPPPPPPPPPPPPPPPPPPPPPPPPPPPPPPPPPJJJPPPPPPP",
"PPPPPPPPPPPPPPPPPPPPPPPPHPPPPPPPPPPPPPPPPPPPPPPPPPPPHHJJPPPPPPPP",
"PPPPPPPPPPPPPPPPPPPPPPPPPHPPPPPPPPPPPPPPPPPPPPPPPPPPHHJJPPPPPPPP",
"PPPPPPPPPPPPPPPPPPPPPPPPPHHPPPPPPPPPPPPPPPPPPPPPPPPHHJJPPPPPPPPP",
"PPPPPPPPPPPPPPPPPPPPPPPPPHHPPPPPPPPPPPPPPPPPPPPPPPHHJJPPPPPPPPPP",
"PPPPPPPPPPPPPPPPPPPPPPPPPPHHPPPPPPPPPPPPPPPPPPPPHHHJJPPPPPPPPPPP",
"PPPPPPPPPPPPPPPPPPPPPPPPPPHHHHPPPPPPPPPPPPPPPPPHHHJJJPPPPPPPPPPP",
"PPPPPPPPPPPPPPPPPPPPPPPPPPPHHHHPPPPPPPPPPPPPPHHHHJJJPPPPPPPPPPPP",
"PPPPPPPPPPPPPPPPPPPPPPPPPPPHHHHHHPPPPPPPPPPHHHHHJJJPPPPPPPPPPPPP",
"PPPPPPPPPPPPPPPPPPPPPPPPPPPPHHHHHHHHPPPPPHHHHHJJJJPPPPPPPPPPPPPP",
"PPPPPPPPPPPPPPPPPPPPPPPPPPPPPPHHHHHHHHHHHHHHJJJJPPPPPPPPPPPPPPPP",
"PPPPPPPPPPPPPPPPPPPPPPPPPPPPPPPPHHHHHHHHHJJJJJJPPPPPPPPPPPPPPPPP",
"PPPPPPPPPPPPPPPPPPPPPPPPPPPPPPPPPPPHJJJJJJJJJPPPPPPPPPPPPPPPPPPP",
"PPPPPPPPPPPPPPPPPPPPPPPPPPPPPPPPPPPPPJJJJJJJPPPPPPPPPPPPPPPPPPPP",
"PPPPPPPPPPPPPPPPPPPPPPPPPPPPPPPPPPPPPPPPPPPPPPPPPPPPPPPPPPPPPPPP",
"PPPPPPPPPPPPPPPPPPPPPPPPPPPPPPPPPPPPPPPPPPPPPPPPPPPPPPPPPPPPPPPP",
"PPPPPPPPPPPPPPPPPPPPPPPPPPPPPPPPPPPPPPPPPPPPPPPPPPPPPPPPPPPPPPPP",
"PPPPPPPPPPPPPPPPPPPPPPPPPPPPPPPPPPPPPPPPPPPPPPPPPPPPPPPPPPPPPPPP",
"PPPPPPPPPPPPPPPPPPPPPPPPPPPPPPPPPPPPPPPPPPPPPPPPPPPPPPPPPPPPPPPP",
"PPPPPPPPPPPPPPPPPPPPPPPPPPPPPPPPPPPPPPPPPPPPPPPPPPPPPPPPPPPPPPPP"
};
