/* XPM */
static char *exit18[] = {
/* columns rows colors chars-per-pixel */
"64 64 66 1 ",
"  c #1A1625",
". c #20192F",
"X c #201930",
"o c #211930",
"O c #221A33",
"+ c #231A35",
"@ c #261B39",
"# c #291C3E",
"$ c #2B1D41",
"% c #2B1D42",
"& c #2D1E45",
"* c #2D1F46",
"= c #2E1F48",
"- c #2F1F49",
"; c #30204B",
": c #32204D",
"> c #32214E",
", c #332150",
"< c #352253",
"1 c #362255",
"2 c #372356",
"3 c #382358",
"4 c #39245B",
"5 c #3A245C",
"6 c #3F2560",
"7 c #412561",
"8 c #4D2466",
"9 c #552469",
"0 c #5C246C",
"q c #5D246D",
"w c #5E246D",
"e c #60246E",
"r c #672371",
"t c #692372",
"y c #6D2374",
"u c #6F2375",
"i c #702375",
"p c #742377",
"a c #7A257C",
"s c #7B257D",
"d c #7C257E",
"f c #7D267F",
"g c #7E2781",
"h c #802883",
"j c #822985",
"k c #872C8C",
"l c #8B2E92",
"z c #8C2E93",
"x c #8D2F94",
"c c #8E2F95",
"v c #903097",
"b c #93329C",
"n c #96339F",
"m c #9835A2",
"M c #9C36A6",
"N c #9E38A9",
"B c #A63CB3",
"V c #A73DB3",
"C c #B248AF",
"Z c #B54BAF",
"A c #B84EAE",
"S c #BD53AD",
"D c #AC42B1",
"F c #B147B0",
"G c #F6D4E4",
"H c None",
/* pixels */
"HHHHHHHHHHHHHHHHHHHHHHHHHHHHHHHHHHHHHHHHHHHHHHHHHHHHHHHHHHHHHHHH",
"HHHHHHHHHHHHHHHHHHHHHHHHHHHHHHHHHHHHHHHHHHHHHHHHHHHHHHHHHHHHHHHH",
"HHHHHHHHHHHHHHHHHHHHHHHHHHHHHHHHHHHHHHHHHHHHHHHHHHHHHHHHHHHHHHHH",
"HHHHHHHHHHHHHHHHHHHHHHHHHHHHHHHHHHHHHHHHHHHHHHHHHHHHHHHHHHHHHHHH",
"HHHHHHHHHHHHHHHHHHHHHHHHHHHHHHHHHHHHHHHHHHHHHHHHHHHHHHHHHHHHHHHH",
"HHHHHHHHHHHHHHHHHHHHHHHHHHHHHHHHHHHHHHHHHHHHHHHHHHHHHHHHHHHHHHHH",
"HHHHHHHHHHHHHHHHHHHHHHHHHHHHHHHHHHHHHHHHHHHHHHHHHHHHHHHHHHHHHHHH",
"HHHHHHHHHHHHHHHHHHHHHHHHHHHHHHHHHHHHHHHHHHHHHHHHHHHHHHHHHHHHHHHH",
"HHHHHHHHHHHHHHHHHHHHHHHHHHHHHHHHHHHHHHHHHHHHHHHHHHHHHHHHHHHHHHHH",
"HHHHHHHHHHHHHHHHHHHHHHHHHHHHHHHHHHHHHHHHHHHHHHHHHHHHHHHHHHHHHHHH",
"HHHHHHHHHHHHHHHHHHHHHHHHHHHHHHHHHHHHHHHHHHHHHHHHHHHHHHHHHHHHHHHH",
"HHHHHHHHHHHHHHHHHHHHHHHHHHHHHHHHHHHHHHHHHHHHHHHHHHHHHHHHHHHHHHHH",
"HHHHHHHHHHHHHHHHHHHHHHHHHHHHHHHHHHHHHHHHHHHHHHHHHHHHHHHHHHHHHHHH",
"HHHHHHHHHHHHHHHHHHHHHHHHHHHHHHHHHHHHHHHHHHHHHHHHHHHHHHHHHHHHHHHH",
"HHHHHHHHHHHHHHHHHHHHHHHHHHHHHHHHHHHHHHHHHHHHHHHHHHHHHHHHHHHHHHHH",
"HHHHHHHHHHHHHHHHHHHHHHHHHHHHHHHHHHHHHHHHHHHHHHHHHHHHHHHHHHHHHHHH",
"HHHHHHHHHHHHHHHHHHHHHHHHHHHHHHHHHHHHHHHHHHHHHHHHHHHHHHHHHHHHHHHH",
"HHHHHHHHHHHHHHHHHHHHHHHHHHHHHHHHHHHHHHHHHHHHHHHHHHHHHHHHHHHHHHHH",
"HHHHHHHHHHGHHGHHHHHHHHHHSSSSSSSSHHHHHHHHHHHHHHHHHHHHHHHHHHHHHHHH",
"HHHHHHHHHGGHGHHHHHHHHHHSSSSSNCSSSHHHHHHHHHHHHHHHHHHHHHHHHHHHHHHH",
"HHHHHHHHHGHGGHHHHHHHHSSSSZCCC<mmCHHHHHHHHHHHHHHHHHHHHHHHHHHHHHHH",
"HHHHHHHHGGHHHHHHHHHHSSAACHHHHHH=%kHHHHHHHHHHHHHHHHHHHHHHHHHHHHHH",
"HHHHHHHHGGHHHHHHHHHHSSCHHHHHHHHHH,HHHHHHttHHHHHHHHHHHHHHHHHHHHHH",
"HHHHHHHGGGGHHHHHHHHSSZHHHHHHHHHHHH3HlHHHttHHHHHHHHHHHHHHHHHHHHHH",
"HHHHHHHGGGHHHHHHHHHSAHHHHHHHHHHHHHH,lHHHtttHHHHHHHHHHHHHHHHHHHHH",
"HHHHHHGGGGHHHHHHHHSAHHHHHHHHHHHHHHH3zlHHtttHHHHHHHHHHHHHHHHHHHHH",
"HHHHHHGGGHHHHHHHHHSZHHHHHHHHHHHHHHH4plH2tttHHHHHHHHHHHHHHHHHHHHH",
"HHHHHHHGGHHHHHHHHSAHHHHHHHHHH+oyHHH00HH2tttHHHHHHHHHHHHHHHHHHHHH",
"HHHHHHHGGHHHHHHHHSCHHHHHHHH37#$iHHllzl63tttHHHHHHHHHHHHHHHHHHHHH",
"HHHHHHHGHHHHHHHHHSCHHHHHHHHcj0fgHllllgt9tttHHHHHHHHHHHHHHHHHHHHH",
"HHHHHHHGHHHHHHHHHHCHHHHHllnn;0t&HHbzcattttHHHHHHHHHHHHHHDHHHHHHH",
"HHHHHHHHHHHHHHHHHBCHHHHllHc0HHHo@HnccaHtttHHHHHHHHHHHHHHDHHHHHHH",
"HHHHHHHHHHHHHHHHHBHHHHlllHttHnnHffHHHtH0ti+HHGGHHHHHHHHHCHHHHHHH",
"HHHHHHHHHHHHHHHHHHDHHHllllt0eHHHffHH H0grfHHGGHHHHHHHHHHCHHHHHHH",
"HHHHHHHHHHHHHHHHHHHHHlllllt7hHHHHHHH.20mz7HHGGHHHHHHHHHHFHHHHHHH",
"HHHHHHHHHHHHHHHHHHHHHllllltgzHHHHHHH,3vnlHHHHHHHHHHHHHHCFHHHHHHH",
"HHHHHHHHHHHHHHHHHHHHHlllllytHHHHHHHH8znnmHHGGHHHHHHHHHHCZHHHHHHH",
"HHHHHHHHHHHHHHHHHHHHllkahljtHHHHHH 9mnvgHHHHHHHHHHHHHHHCDHHHHHHH",
"HHHHHHHHHHHHHHHHHHHHllh30zHHHHffoXo9ee0HHHHHHHHHHHHHHHHCZHHHHHHH",
"HHHHHHHHHHHHHHHHHHHHzzh47HHHHHHg++@@oHHHHHHHHHHHHHHHHHCCSHHHHHHH",
"HHHHHHHHHHHHHHHHHHHHzlg44HHHHHHHHHaaHHHHHHHHHHHHHHHHHHCASHHHHHHH",
"HHHHHHHHHHHHHHHHHHHHHlH44HHHHHHHHHHHHHHHHHHHHHHHHHHHHCCSSHHHHHHH",
"HHHHHHHHHHHHHHHHHHHHHlH<3HHHHHHHHHHHHHHHHHHHHHHHHHHHHCZSSHHHHHHH",
"HHHHHHHHHHHHHHHHHHHHHzg%3HHHHHHHHHHHHHHHHHHHHHHHHHHHCCSSSHHHHHHH",
"HHHHHHHHHHHHHHHHHHHHHll=4HHHHHHHHHHHHHHHHHHHHHHHHHHHCASSSHHHHHHH",
"HHHHHHHHHHHHHHHHHHHHHllH<4HHHHHHHHHHHHHHHHHHHHHHHHHCCSSSHHHHHHHH",
"HHHHHHHHHHHHHHHHHHHHHllH:4HHHHHHHHHHHHHHHHHHHHHHHHCCASSHHHHHHHHH",
"HHHHHHHHHHHHHHHHHHHHHHlHH::HHHHHHHHHHHHHHHHHHHHHHCCASSSHHHHHHHHH",
"HHHHHHHHHHHHHHHHHHHHHHHlH;;;HHHHHHHHHHHHHHHHHHHHCCZSSSHHHHHHHHHH",
"HHHHHHHHHHHHHHHHHHHHHHHHHHi%;;HHHHHHHHHHHHHHHHHCCZSSSHHHHHHHHHHH",
"HHHHHHHHHHHHHHHHHHHHHHHHHHAn&=&HHHHHHHHHHHHHHHCCASSSHHHHHHHHHHHH",
"HHHHHHHHHHHHHHHHHHHHHHHHHHHSZrb,CHHHHHHHHHHCCCZSSSSHHHHHHHHHHHHH",
"HHHHHHHHHHHHHHHHHHHHHHHHHHHSSSCMvmHHHHHHHCCCZASSSSSHHHHHHHHHHHHH",
"HHHHHHHHHHHHHHHHHHHHHHHHHHHHSSSSgCvDCCCCCZZZSSSSSSHHHHHHHHHHHHHH",
"HHHHHHHHHHHHHHHHHHHHHHHHHHHHHSSSSSbCAAAAASSSSSSSHHHHHHHHHHHHHHHH",
"HHHHHHHHHHHHHHHHHHHHHHHHHHHHHHSSSSSSSSSSSSSSSSSHHHHHHHHHHHHHHHHH",
"HHHHHHHHHHHHHHHHHHHHHHHHHHHHHHHSSSSSSSSSSSSSSHHHHHHHHHHHHHHHHHHH",
"HHHHHHHHHHHHHHHHHHHHHHHHHHHHHHHHHHSSSSSSSSSHHHHHHHHHHHHHHHHHHHHH",
"HHHHHHHHHHHHHHHHHHHHHHHHHHHHHHHHHHHHHHHHHHHHHHHHHHHHHHHHHHHHHHHH",
"HHHHHHHHHHHHHHHHHHHHHHHHHHHHHHHHHHHHHHHHHHHHHHHHHHHHHHHHHHHHHHHH",
"HHHHHHHHHHHHHHHHHHHHHHHHHHHHHHHHHHHHHHHHHHHHHHHHHHHHHHHHHHHHHHHH",
"HHHHHHHHHHHHHHHHHHHHHHHHHHHHHHHHHHHHHHHHHHHHHHHHHHHHHHHHHHHHHHHH",
"HHHHHHHHHHHHHHHHHHHHHHHHHHHHHHHHHHHHHHHHHHHHHHHHHHHHHHHHHHHHHHHH",
"HHHHHHHHHHHHHHHHHHHHHHHHHHHHHHHHHHHHHHHHHHHHHHHHHHHHHHHHHHHHHHHH"
};
