/* XPM */
static char *exit9[] = {
/* columns rows colors chars-per-pixel */
"64 64 56 1 ",
"  c #1A1625",
". c #1C1729",
"X c #201930",
"o c #211931",
"O c #221A33",
"+ c #231A34",
"@ c #231A35",
"# c #251B38",
"$ c #261B39",
"% c #261B3A",
"& c #271C3B",
"* c #291C3E",
"= c #2B1D41",
"- c #2D1E45",
"; c #30204A",
": c #32204D",
"> c #332150",
", c #352253",
"< c #372356",
"1 c #382358",
"2 c #3A245B",
"3 c #412561",
"4 c #4A2465",
"5 c #4B2465",
"6 c #4C2466",
"7 c #4D2466",
"8 c #502467",
"9 c #552469",
"0 c #5C246C",
"q c #5D246D",
"w c #5E246D",
"e c #60246E",
"r c #672371",
"t c #642470",
"y c #692372",
"u c #6D2374",
"i c #6F2375",
"p c #702375",
"a c #742377",
"s c #772378",
"d c #7A257C",
"f c #7B257D",
"g c #7C257E",
"h c #7D267F",
"j c #7E2781",
"k c #802883",
"l c #822985",
"z c #872C8C",
"x c #8D2F94",
"c c #903097",
"v c #93329C",
"b c #9C36A6",
"n c #9E38A9",
"m c #A43BB1",
"M c #A63CB3",
"N c None",
/* pixels */
"NNNNNNNNNNNNNNNNNNNNNNNNNNNNNNNNNNNNNNNNNNNNNNNNNNNNNNNNNNNNNNNN",
"NNNNNNNNNNNNNNNNNNNNNNNNNNNNNNNNNNNNNNNNNNNNNNNNNNNNNNNNNNNNNNNN",
"NNNNNNNNNNNNNNNNNNNNNNNNNNNNNNNNNNNNNNNNNNNNNNNNNNNNNNNNNNNNNNNN",
"NNNNNNNNNNNNNNNNNNNNNNNNNNNNNNNNNNNNNNNNNNNNNNNNNNNNNNNNNNNNNNNN",
"NNNNNNNNNNNNNNNNNNNNNNNNNNNNNNNNNNNNNNNNNNNNNNNNNNNNNNNNNNNNNNNN",
"NNNNNNNNNNNNNNNNNNNNNNNNNNNNNNNNNNNNNNNNNNNNNNNNNNNNNNNNNNNNNNNN",
"NNNNNNNNNNNNNNNNNNNNNNNNNNNNNNNNNNNNNNNNNNNNNNNNNNNNNNNNNNNNNNNN",
"NNNNNNNNNNNNNNNNNNNNNNNNNNNNNNNNNNNNNNNNNNNNNNNNNNNNNNNNNNNNNNNN",
"NNNNNNNNNNNNNNNNNNNNNNNNNNNNNNNNNNNNNNNNNNNNNNNNNNNNNNNNNNNNNNNN",
"NNNNNNNNNNNNNNNNNNNNNNNNNNNNNNNNNNNNNNNNNNNNNNNNNNNNNNNNNNNNNNNN",
"NNNNNNNNNNNNNNNNNNNNlllllllllllllNNNNNNNNNNNNNNNNNNNNNNNNNNNNNNN",
"NNNNNNNNNNNNNNNNNNNllllllllllllllllNNNNNNNNNNNNNNNNNNNNNNNNNNNNN",
"NNNNNNNNNNNNNNNNNllllljjjjjjklllllllNNNNNNNNNNNNNNNNNNNNNNNNNNNN",
"NNNNNNNNNNNNNNNNNlljdrttttttyfgllllllNNNNNNNNNNNNNNNNNNNNNNNNNNN",
"NNNNNNNNNNNNNNNNllayetrp3uuuuupaflllllNNNNNNNNNNNNNNNNNNNNNNNNNN",
"NNNNNNNNNNNNNNNlgytt9NNNNNNNNaappylllllNNNNNNNNNNNNNNNNNNNNNNNNN",
"NNNNNNNNNNNNNNNut09NNNNNNNNNNNNaaa8gllllNNNNNNNNNNNNNNNNNNNNNNNN",
"NNNNNNNNNNNNNNatt:NNNNNNNNNNNNNNNaa9pllllNNNNNNNNNNNNNNNNNNNNNNN",
"NNNNNNNNNNNNNtt6NNNNNNNNNNNNNNggNNaa9dlllNNNNNNNNNNNNNNNNNNNNNNN",
"NNNNNNNNNNNNtt9NNNNNNNNNNNNNNNNggNNapglllNNNNNNNNNNNNNNNNNNNNNNN",
"NNNNNNNNNNNtt0$NNNNNNNNNNNNNNNNNNggNaaklllNNNNNNNNNNNNNNNNNNNNNN",
"NNNNNNNNNNNte;NNNNNNNNNNNNNNNNNNNggNNaflllNNNNNNNNNNNNNNNNNNNNNN",
"NNNNNNNNNNtt,NNNNNNNNNNNNNNNNNNNNNggNaakllNNNNNNNNNNNNNNNNNNNNNN",
"NNNNNNNNNtttNNNNNNNNNNNNNNNNNNNNNNNggaaklllNNNNNNNNNNNNNNNNNNNNN",
"NNNNNNNNNteNNNNNNNNNNNNNNNNNNNNNNNNfgNaklllNNNNNNNNNNNNNNNNNNNNN",
"NNNNNNNNNt0NNNNNNNNNNNNNNNNNNNNNNNNagNaglllNNNNNNNNNNNNNNNNNNNNN",
"NNNNNNNNttNNNNNNNNNNNNNNNNNeeeNNNNNggNaalllNNNNNNNNNNNNNNNNNNNNN",
"NNNNNNNNttNNNNNNNNNNNNNNNNe12ee-NNNuzNaalllNNNNNNNNNNNNNNNNNNNNN",
"NNNNNNNttNNNNNNNNNNNNNNN9$*&999=.NmlfNaaljlNNNNNNNNNNNNNNNNNNNNN",
"NNNNNNNttNNNNNNNNNNNNNNN,u&@X   2vNmnzlgl3lNNtNNNNNNNNNNNNNNNNNN",
"NNNNNNNttNNNNNNNNNNNNNNNvM@X@NNN0NNMnglll3NNNtNNNNNNNNNNNNNNNNNN",
"NNNNNNNtNNNNNNNNNNNNNNNxmm2fNNNNNN*v6llllgNNNNNNNNNNNNNNNNNNNNNN",
"NNNNNNNtNNNNNNNNNNNNNN0mmmdlkNNNN.&=NllllkNNtNNNNNNNNNNNNNNNNNNN",
"NNNNNNNtNNNNNNNNNNNNNNlmmN3kaNNN.>,$NNyyr:NNtNNNNNNNNNNNNNNNNNNN",
"NNNNNNNtNNNNNNNNNNNNN&mmmcpdu4NNNNNNN$ooXoN0tNNNNNNNNNNNNNNNNNNN",
"NNNNNNNNNNNNNNNNNNNNN&mxxNlfy4NNNNNNN@@@@NNeNNNNNNNNNNNNNNNNNNNN",
"NNNNNNNNNNNNNNNNNNNNN4bggNllaNNNNNNN@o@@NNttNNNNNNNNNNNNNNNNNNNN",
"NNNNNNNNNNNNNNNNNNNNNnbgfnllfaNNNNNNoo@NN<pNNNNNNNNNNNNNNNNNNNNN",
"NNNNNNNNNNNNNNNNNNNNNzzguMNllsNNeee866NNttNNNNNNNNNNNNNNNNNNNNNN",
"NNNNNNNNNNNNNNNNNNNNNggg6NNllkaaeeeeeNNtujNNNNNNNNNNNNNNNNNNNNNN",
"NNNNNNNNNNNNNNNNNNNNNggg3NNNlllgapeutttrlNNNNNNNNNNNNNNNNNNNNNNN",
"NNNNNNNNNNNNNNNNNNNNNggg0NNNNllljpppppfllNNNNNNNNNNNNNNNNNNNNNNN",
"NNNNNNNNNNNNNNNNNNNNNggg0NNNNNllllllllNNNNNNNNNNNNNNNNNNNNNNNNNN",
"NNNNNNNNNNNNNNNNNNNNNNggNNNNNNNNNllNNNNNNNNNNNNNNNNNNNNNNNNNNNNN",
"NNNNNNNNNNNNNNNNNNNNNNggNNNNNNNNNNNNNNNNNNNNNNNNNNNNNNNNNNNNNNNN",
"NNNNNNNNNNNNNNNNNNNNNNgggNNNNNNNNNNNNNNNNNNNNNNNNNNNNNNNNNNNNNNN",
"NNNNNNNNNNNNNNNNNNNNNNgggNNNNNNNNNNNNNNNNNNNNNNNNNNNNNNNNNNNNNNN",
"NNNNNNNNNNNNNNNNNNNNNNNgggNNNNNNNNNNNNNNNNNNNNNNNNNNNNNNNNNNNNNN",
"NNNNNNNNNNNNNNNNNNNNNNNggggNNNNNNNNNNNNNNNNNNNNNNNNNNNNNNNNNNNNN",
"NNNNNNNNNNNNNNNNNNNNNNNNgggNNNNNNNNNNNNNNNNNNNNNNNNNNNNNNNNNNNNN",
"NNNNNNNNNNNNNNNNNNNNNNNNgggNNNNNNNNNNNNNNNNNNNNNNNNNNNNNNNNNNNNN",
"NNNNNNNNNNNNNNNNNNNNNNNNNgggNNNNNNNNNNNNNNNNNNNNNNNNNNNNNNNNNNNN",
"NNNNNNNNNNNNNNNNNNNNNNNNNggggNNNNNNNNNNNNNNNNNNNNNNNNNNNNNNNNNNN",
"NNNNNNNNNNNNNNNNNNNNNNNNNNNgggNNNNNNNNNNNNNNNNNNNNNNNNNNNNNNNNNN",
"NNNNNNNNNNNNNNNNNNNNNNNNNNNNggggNNNNNNNNNNNNNNNNNNNNNNNNNNNNNNNN",
"NNNNNNNNNNNNNNNNNNNNNNNNNNNNNNggggNNNNNNNNNNNNNNNNNNNNNNNNNNNNNN",
"NNNNNNNNNNNNNNNNNNNNNNNNNNNNNNNNggggNNNNNNNNNNNNNNNNNNNNNNNNNNNN",
"NNNNNNNNNNNNNNNNNNNNNNNNNNNNNNNNNNggNNNNNNNNNNNNNNNNNNNNNNNNNNNN",
"NNNNNNNNNNNNNNNNNNNNNNNNNNNNNNNNNNNNNNNNNNNNNNNNNNNNNNNNNNNNNNNN",
"NNNNNNNNNNNNNNNNNNNNNNNNNNNNNNNNNNNNNNNNNNNNNNNNNNNNNNNNNNNNNNNN",
"NNNNNNNNNNNNNNNNNNNNNNNNNNNNNNNNNNNNNNNNNNNNNNNNNNNNNNNNNNNNNNNN",
"NNNNNNNNNNNNNNNNNNNNNNNNNNNNNNNNNNNNNNNNNNNNNNNNNNNNNNNNNNNNNNNN",
"NNNNNNNNNNNNNNNNNNNNNNNNNNNNNNNNNNNNNNNNNNNNNNNNNNNNNNNNNNNNNNNN",
"NNNNNNNNNNNNNNNNNNNNNNNNNNNNNNNNNNNNNNNNNNNNNNNNNNNNNNNNNNNNNNNN"
};
