/* XPM */
static char *exit10[] = {
/* columns rows colors chars-per-pixel */
"64 64 70 1 ",
"  c #1A1625",
". c #1C1729",
"X c #1E182C",
"o c #20192F",
"O c #211930",
"+ c #211931",
"@ c #221A33",
"# c #231A34",
"$ c #231A35",
"% c #291C3E",
"& c #2B1D41",
"* c #2D1E45",
"= c #2E1F47",
"- c #2F1F49",
"; c #30204A",
": c #32204D",
"> c #352253",
", c #362255",
"< c #372356",
"1 c #382358",
"2 c #3A245B",
"3 c #3B245D",
"4 c #3F2560",
"5 c #412561",
"6 c #492564",
"7 c #4A2465",
"8 c #4B2465",
"9 c #4D2466",
"0 c #4E2467",
"q c #502467",
"w c #512468",
"e c #552469",
"r c #5C246C",
"t c #5D246D",
"y c #5E246D",
"u c #60246E",
"i c #672371",
"p c #642470",
"a c #692372",
"s c #6D2374",
"d c #6F2375",
"f c #702375",
"g c #742377",
"h c #7A257C",
"j c #7E2781",
"k c #802883",
"l c #872C8C",
"z c #8B2E92",
"x c #8D2F94",
"c c #903097",
"v c #93329C",
"b c #96339F",
"n c #9835A2",
"m c #B84EAE",
"M c #BF55AC",
"N c #C55BAA",
"B c #CC62A8",
"V c #DF86B4",
"C c #E393BC",
"Z c #E497BE",
"A c #E59AC0",
"S c #E8A3C6",
"D c #E9A9C9",
"F c #ECB2CF",
"G c #F0BDD6",
"H c #F1C3DA",
"J c #F5CFE1",
"K c #F6D4E4",
"L c #F8D9E7",
"P c None",
/* pixels */
"PPPPPPPPPPPPPPPPPPPPPPPPPPPPPPPPPPPPPPPPPPPPPPPPPPPPPPPPPPPPPPPP",
"PPPPPPPPPPPPPPPPPPPPPPPPPPPPPPPPPPPPPPPPPPPPPPPPPPPPPPPPPPPPPPPP",
"PPPPPPPPPPPPPPPPPPPPPPPPPPPPPPPPPPPPPPPPPPPPPPPPPPPPPPPPPPPPPPPP",
"PPPPPPPPPPPPPPPPPPPPPPPPPPPPPPPPPPPPPPPPPPPPPPPPPPPPPPPPPPPPPPPP",
"PPPPPPPPPPPPPPPPPPPPPPPPPPPPPPPPPPPPPPPPPPPPPPPPPPPPPPPPPPPPPPPP",
"PPPPPPPPPPPPPPPPPPPPPPPPPPPPPPPPPPPPPPPPPPPPPPPPPPPPPPPPPPPPPPPP",
"PPPPPPPPPPPPPPPPPPPPPPPPPPPPPPPPPPPPPPPPPPPPPPPPPPPPPPPPPPPPPPPP",
"PPPPPPPPPPPPPPPPPPPPPPPPPPPPPPPPPPPPPPPPPPPPPPPPPPPPPPPPPPPPPPPP",
"PPPPPPPPPPPPPPPPPPPPPPPPPPPPPPPPPPPPPPPPPPPPPPPPPPPPPPPPPPPPPPPP",
"PPPPPPPPPPPPPPPPPPPPPPPPPPPPPPPPPPPPPPPPPPPPPPPPPPPPPPPPPPPPPPPP",
"PPPPPPPPPPPPPPPPPPPPPPPPPPPPPPPPPPPPPPPPPPPPPPPPPPPPPPPPPPPPPPPP",
"PPPPPPPPPPPPPPPPPPPPPPPPPPPPPPPPPPPPPPPPPPPPPPPPPPPPPPPPPPPPPPPP",
"PPPPPPPPPPPPPPPPPPPPPPPPP%%%%%@@PPPPPPPPPPPPPPPPPPPPPPPPPPPPPPPP",
"PPPPPPPPPPPPPPPPPPPPP000000000;:oPPPPPPPPPPPPPPPPPPPPPPPPPPPPPPP",
"PPPPPPPPPPPPPPPPPP990000:::::6002%XPPPPPPPPPPPPPPPPPPPPPPPPPPPPP",
"PPPPPPPPPPPPPPPPP9960PPPPPPPP&:0063@PffPPPPPPPPPPPPPPPPPPPPPPPPP",
"PPPPPPPPPPPPPHG7006-PPPPPPPPPPPPyq96%PffPPPPPPPPPPPPPPPPPPPPPPPP",
"PPPPPPPPPPPPHHD766PPPPPPPPPPPPPPPPq06%ffPPPPPPPPPPPPPPPPPPPPPPPP",
"PPPPPPPPPPLJHHN7PPPPPPPPPPPPPPPPPPyy0*effPPPPPPPPPPPPPPPPPPPPPPP",
"PPPPPPPPPLKHHN4PPPPPPPPPPPPPPPPPPPPur*$pffPPPPPPPPPPPPPPPPPPPPPP",
"PPPPPPPPPLHHZ6#PPPPPPPPPPPPPPPPPPPPPu,ouffPPPPPPPPPPPPPPPPPPPPPP",
"PPPPPPPPLKHS5&PPPPPPPPPPPPPPPPPPPPPPPuX6ffPPPPPPPPPPPPPPPPPPPPPP",
"PPPPPPPPKHFp-PPPPPPPPPPPPPPPPPPPPPPPPu2XfffPPPPPPPPPPPPPPPPPPPPP",
"PPPPPPPLKHS6PPPPPPPPKPPPPPPPPPPPPPPaauy;pufPPPPPPPPPPPPPPPPPPPPP",
"PPPPPPPLHHePPPPPPPPPKPPPPPPPPPPPPPPaauuaf6fPPPPPPPPPPPPPPPPPPPPP",
"PPPPPPPKHS>PPPPPPPKPPPPPPPPPPPPPPPPaauudfffPPPPPPPPPPPPPPPPPPPPP",
"PPPPPPPHHmPPPPPPPPKPPPPPPPPP##PPPPPuauudfffPPPPPPPPPPPPPPPPPPPPP",
"PPPPPPPHD5PPPPPPPKKPPPPPPwP###;wqPP6auysfffPPPPPPPPPPPPPPPPPPPPP",
"PPPPPPPHDPPPPPPPPKKPPPPP665:oO@46PfapypffffPPPPPPPPPPPPPPPPPPPPP",
"PPPPPPPHCPPPPPPPPKKPPPPPuxvho.. qncpuufffffPPPPPPPPPPPPPPPPPPPPP",
"PPPPPPPHPPPPPPPPPPPPPPPPnbjfPPPPPPPlkafffffPPAPPPPPPPPPPPPPPPPPP",
"PPPPPPPPPPPPPPPPPKPPPPPlbbfffPPPPPPnxffffffPPPPPPPPPPPPPPPPPPPPP",
"PPPPPPPPPPPPPPPPPKPPPP6vbvfffPPPP.xefffffffPBKPPPPPPPPPPPPPPPPPP",
"PPPPPPPPPPPPPPPPPPPPP5palgffp5PPo$.6PfyfffPPHKPPPPPPPPPPPPPPPPPP",
"PPPPPPPPPPPPPPPPPPPPP@jaruffy5PPPPPPPP:fffP3HKPPPPPPPPPPPPPPPPPP",
"PPPPPPPPPPPPPPPPPPPPP7aaaPfdyzPP@PPPP@>ffPPCHPPPPPPPPPPPPPPPPPPP",
"PPPPPPPPPPPPPPPPPPPPPeaaaafftzPP@PPP@offPPyDLPPPPPPPPPPPKPPPPPPP",
"PPPPPPPPPPPPPPPPPPPPPaaayaff&ewwPPPooofPP6VHPPPPPPPPPPPPKPPPPPPP",
"PPPPPPPPPPPPPPPPPPPPPaaa20Pf66yqqPP@o@PP66HPPPPPPPPPPPPKKPPPPPPP",
"PPPPPPPPPPPPPPPPPPPPPaaa,PPfy50qwPPPPPP00PPPPPPPPPPPPPPKKPPPPPPP",
"PPPPPPPPPPPPPPPPPPPPPaaa,PPPfP*6y:P&%500PPPPPPPPPPPPPPPKKKPPPPPP",
"PPPPPPPPPPPPPPPPPPPPPaaaPPPPPfP@6,1330PPPPPPPPPPPPPPPPKKKKPPPPPP",
"PPPPPPPPPPPPPPPPPPPPPaaaPPPPPPPPPPPPPPPPPPPPPPPPPPPPPPKKKPPPPPPP",
"PPPPPPPPPPPPPPPPPPPPPPaaPPPPPPPPPPPPPPPPPPPPPPPPPPPPPKKKKPPPPPPP",
"PPPPPPPPPPPPPPPPPPPPPPaaPPPPPPPPPPPPPPPPPPPPPPPPPPPPPKKKKPPPPPPP",
"PPPPPPPPPPPPPPPPPPPPPPaaPPPPPPPPPPPPPPPPPPPPPPPPPPPPPPKKPPPPPPPP",
"PPPPPPPPPPPPPPPPPPPPPPPPPPPPPPPPPPPPPPPPPPPPPPPPPPPPPPKPPPPPPPPP",
"PPPPPPPPPPPPPPPPPPPPPPPPPPPPPPPPPPPPPPPPPPPPPPPPPPPKPKKPPPPPPPPP",
"PPPPPPPPPPPPPPPPPPPPPPPPPPPPPPPPPPPPPPPPPPPPPPPPPPKPPKPPPPPPPPPP",
"PPPPPPPPPPPPPPPPPPPPPPPPPPPPPPPPPPPPPPPPPPPPPPPPPPPPPPPPPPPPPPPP",
"PPPPPPPPPPPPPPPPPPPPPPPPPPPPPPPPPPPPPPPPPPPPPPPPPPPPPPPPPPPPPPPP",
"PPPPPPPPPPPPPPPPPPPPPPPPPPPPPPPPPPPPPPPPPPPPPPPPPPPPPPPPPPPPPPPP",
"PPPPPPPPPPPPPPPPPPPPPPPPPPPPPPPPPPPPPPPPPPPPPPPPPPPPPPPPPPPPPPPP",
"PPPPPPPPPPPPPPPPPPPPPPPPPPPPPPPPPPPPPPPPPPPPPPPPPPPPPPPPPPPPPPPP",
"PPPPPPPPPPPPPPPPPPPPPPPPPPPPPPPPPPPPPPPPPPPPPPPPPPPPPPPPPPPPPPPP",
"PPPPPPPPPPPPPPPPPPPPPPPPPPPPPPPPPPPPPPPPPPPPPPPPPPPPPPPPPPPPPPPP",
"PPPPPPPPPPPPPPPPPPPPPPPPPPPPPPPPPPPPPPPPPPPPPPPPPPPPPPPPPPPPPPPP",
"PPPPPPPPPPPPPPPPPPPPPPPPPPPPPPPPPPPPPPPPPPPPPPPPPPPPPPPPPPPPPPPP",
"PPPPPPPPPPPPPPPPPPPPPPPPPPPPPPPPPPPPPPPPPPPPPPPPPPPPPPPPPPPPPPPP",
"PPPPPPPPPPPPPPPPPPPPPPPPPPPPPPPPPPPPPPPPPPPPPPPPPPPPPPPPPPPPPPPP",
"PPPPPPPPPPPPPPPPPPPPPPPPPPPPPPPPPPPPPPPPPPPPPPPPPPPPPPPPPPPPPPPP",
"PPPPPPPPPPPPPPPPPPPPPPPPPPPPPPPPPPPPPPPPPPPPPPPPPPPPPPPPPPPPPPPP",
"PPPPPPPPPPPPPPPPPPPPPPPPPPPPPPPPPPPPPPPPPPPPPPPPPPPPPPPPPPPPPPPP",
"PPPPPPPPPPPPPPPPPPPPPPPPPPPPPPPPPPPPPPPPPPPPPPPPPPPPPPPPPPPPPPPP"
};
