/* XPM */
static char *hole2[] = {
/* columns rows colors chars-per-pixel */
"64 64 103 2 ",
"   c #26180F",
".  c #271910",
"X  c #2D1C12",
"o  c #311F14",
"O  c #342115",
"+  c #3A2316",
"@  c #3D2619",
"#  c #3F281B",
"$  c #40271A",
"%  c #43291B",
"&  c #4A2D1E",
"*  c #4D301F",
"=  c #442D21",
"-  c #4A2F21",
";  c #4D3122",
":  c #533423",
">  c #593725",
",  c #5D3A27",
"<  c #553728",
"1  c #573929",
"2  c #5C3B2A",
"3  c #623D29",
"4  c #66412C",
"5  c #6C442E",
"6  c #6C4631",
"7  c #664831",
"8  c #6E4834",
"9  c #704730",
"0  c #744B34",
"q  c #7A4E35",
"w  c #7B4F38",
"e  c #7F5036",
"r  c #7E5239",
"t  c #726C38",
"y  c #805136",
"u  c #83553B",
"i  c #87583D",
"p  c #8C5A3E",
"a  c #905C3F",
"s  c #8F5C40",
"d  c #925E40",
"f  c #966142",
"g  c #996243",
"h  c #A16747",
"j  c #A06748",
"k  c #A56A49",
"l  c #AB6E4B",
"z  c #AF704D",
"x  c #B2724E",
"c  c #A87251",
"v  c #B67450",
"b  c #B97752",
"n  c #BD7953",
"m  c #C27C55",
"M  c #88813F",
"N  c #A48C4B",
"B  c #A39F4D",
"V  c #BA9454",
"C  c #B69953",
"Z  c #8AA646",
"A  c #82AC44",
"S  c #99A44A",
"D  c #93A949",
"F  c #84B546",
"G  c #96B14A",
"H  c #ABA250",
"J  c #929D76",
"K  c #BD8F68",
"L  c #A4956E",
"P  c #BA936C",
"I  c #AF9F78",
"U  c #B79770",
"Y  c #B39B75",
"T  c #85A17A",
"R  c #ABA37C",
"E  c #C68357",
"W  c #C18A56",
"Q  c #C5845C",
"!  c #C88058",
"~  c #D1875D",
"^  c #D4895E",
"/  c #C38760",
"(  c #C18962",
")  c #D78B60",
"_  c #40B088",
"`  c #6CA981",
"'  c #6FC79F",
"]  c #75C69E",
"[  c #7DC29A",
"{  c #70C8A0",
"}  c #9FAD86",
"|  c #9DAE88",
" . c #95B48D",
".. c #9AB089",
"X. c #85BE96",
"o. c #8BBA93",
"O. c #91B790",
"+. c #90B890",
"@. c #A6A781",
"#. c #A4A982",
"$. c #80C199",
"%. c #88D8B8",
"&. c #A0E0C0",
/* pixels */
"{ { { { { { { { { { { { { { { { { { { { { { { { { { { { { { { { { { { { { { { { { { { { { { { { { { { { { { { { { { { { { { { { ",
"{ { { { { { { { { { { { { { { { { { { { { { { { { { { { { { { { { { { { { { { { { { { { { { { { { { { { { { { { { { { { { { { { ",
"{ { { { { { { { { { { { { { { { { { { { { { { { { { { { { { { { { { { { { { { { { { { { { { { { { { { { { { { { { { { { { { { { ",
"{ { { { { { { { { { { { { { { { { { { { { { { { { { { { { { { { { { { { { { { { { { { { { { { { { { { { { { { { { { { { { { { { ",
"{ { { { { { { { { { { { { { { { { { { { { { { { { { { { { { { { { { { { { { { { { { { { { { { { { { { { { { { { { { { { { { { { ",
"{ { { { { { { { { { &.&.{ { { { { { { { { { { { { { { { { { { { { { { { { { { { { { { { { { { { { { { { { { { { { { { { { { { { ",
"{ { { { { { { { { { &.&.{ { { { { { { { { { { { { { { { { { { { { { { { { { { { { { { { { { { { { { { { { { { { { { { { { { { { ",
"{ { { { &.&.{ { { { &.&.{ { { { &.&.{ { { { { { { { { { { { { { { { { { { { { { { { { { { { { { { { { { { { { { { { { { { { { { ",
"{ { { { &.&.{ { { { &.&.{ { { { &.&.{ { { { { { { { { { { { { { { { { { { ' ' { { { { { { { { { { { { { { { { { { { { { { { { { ",
"{ { { { { { &.&.{ { { { { { &.&.{ { { { { { { { { { { { { { { { { { { { { ' ' { { { { { { { { { { { { { { { { { { { { { { { { { ",
"{ { { { { { &.&.{ { { { { { &.&.{ { { { { { { { { { { { { { { { { { { { { { { { { { { { { { { { { { { { { { { { { { { { { { { { ",
"{ { { { { { { { { { { { { { { { { { { { { { { { { { { { { { { { { { { { { { { { { { { { { { { { { { { { { { { { { { { { { { { { ",
"{ { { { { { { { { { { { { { { { { { { { { { { { { { { { { { { { { { { { { { { { { { { { { { { { { { { { { { { { { { { { { { { { ",
"{ { { { { { { { { { { { { { { { { { { { { { { { { { { { { { { { { { { { { { { { { { { { { { { { { { { { { { { { { { { { { { { { ",
"{ { { { { { { { { { { { { { { { { { { { { { { { { { { { { { { { { { { { { { { { { { { { { { { { { { { { { { { { { { { { { { { { ",
"{ { { { { { { { { { { { { { { { { { { { { { { { { { { { { { { { { { { { { { { { { { { { { { { { { { { { { { { { { { { { { { { { ",
"{ { { { { { { { { { { { { { { { { { { { { { { { { { { { { { { { { { { { { { { { { { { { { { { { { { { { { { { { { { { { { { { { ",
"{ { { { { { { { { { { { { { { { { { { { { { { { ' ' { { { { { { { { { { { { { { { { { { { { { { { { { { { { { { { { { { { { { { ",
"{ { { { { { { { { { { { { { { { { { { { { { { _ _ ' ' ' { { { { { { { { { { { { { { { { { { { { { { { { { { { { { { { { { { { { ",
"{ { { { { { { { { { { { { { { { { { { { { { { _ _ ' ' ' { { { { { { { { { { { { { { { { { { { { { { { { { { { { { { { { { { { { ",
"{ { { { { { { { { { { { { { { { { _ _ { { { { _ _ ' ' ' ' _ _ { { { { { { { { { { $.+...#...o.$.{ { { { { { { { { { { { { { { { ",
"{ { { { { { { { { { { { { { { { { _ _ { { { { `  .| | } @.J } #.o.X.{ { { { { #.( / ! ! m ) / m K | { { { { { { { { { { { { { { ",
"{ { { { { { { { { { $.#.Y P ! ! P Y #.T L ( ! ! m m m m m m m ~ ! ! ! ( I #.( m ! m ) ) ) ) ) ) ! ! / +.{ { { { { _ _ { { { { { ",
"{ { { { { { { { $.I ! m ! ! ! m ! ! ! ! Q ! ! ! ~ m ~ ~ m m m m ! ! ! / ! m ) ) ) ) ~ m m m ~ m Q ! E !  .{ { { { _ _ { { { { { ",
"_ { { { { { { [ ( ! ! ! ! ! ! E m v g d y q a h m m m m b x z x v b m m ! m ! ! ! ! E ! m E C V V H W m / { { { { _ _ { { { { _ ",
"_ { { { { { { U ! ! ! ! ! n z i 2 - , , * % 9 y 9 0 u d d g d d g g g g b n x l g g g g g h N B G D H W ! o.{ { { _ _ { { { { _ ",
"{ { { { { { ' E ! ! ! ! v p 4 > + $ , , & % q q 0 $ % : 3 i d g g g g g g f f f g g g a g d M A F Z S V ! J ` { { { { { { _ _ { ",
"{ { { { { { ' Q ! ! m n u 2 , > + & , , : & 9 y 9 o $ % & 3 3 * < 4 w 6 2 1 ; < 2 , : > , 4 7 t f g ! ! ! ! m / Y  .{ { { _ _ { ",
"{ { { { { { ] #.! m g 0 2 2 3 & + & , , > & q y 9 $ + & : 3 : + % 3 u q 4 : # : , , $ & % % 4 > ; 0 g v m ! ! ! ! ! ( #.{ { { { ",
"{ { { { { { $.} c s r < < 2 4 % o & , , , & q y 3 $ o % * 3 > + % 3 y e 0 < ; , , > + & % % 4 > # o < r j b ! ! ! ! ! m Y { { { ",
"{ { { ] ..P m u 2 g s % % : 3 % $ & , , , * q y 3 & o % > > & $ % 3 e e q , > , , > + % & % 2 2 & + # # 9 g k m ! ! m ~ ~ R { { ",
"{ { [ P ! ! g @ $ % r % % : 4 $ $ & , , 3 3 q y > $ + % > 3 & + % 3 e e e , , , , > + % & % > 2 ; + # # = r f g b ! m ~ m m $.{ ",
"{ ] ( ! ! ! l q 9 8 0 ; $ > > % % % > 3 3 3 y y & % $ $ > , % $ % 3 y q y 3 3 3 , : + % % % > , : $ + $ + ; f f f Q ! ! ! ! X.{ ",
"{ | ! ! m p e 0 g g r % $ , > % & & , , 3 3 q y & % @ $ , , & % % 5 y y y 3 3 > , : @ % * % , , : $ + $ + # s f g n ! ! ! ! [ { ",
"{ @.! ! ! a g d g f s = + ; - $ $ % 3 > , 3 3 y % % $ $ , , % % % 9 y y y 3 > 3 , > $ % % & 3 , > % @ % + + u f g ! ! ! ! @.{ { ",
"{ $.E ! ! ! ! ! n g f 6 @ & $ o o $ * 3 3 3 3 q % % + & 3 , $ % % 9 y y 9 : 3 > , : $ $ % % , , : $ % @ O % s g v Q ! ! U { { { ",
"{ { ( ! ! ! ! ! v f s i 9 - + X o o % & : > 3 5 % % $ % , , $ % & 3 y q 3 : 3 3 , * $ % % % , , : % # + o 2 g g m ! ! ! Q { { { ",
"{ { ( ! ! ! ! m n d p p a u 9 1 % o $ $ % * , 3 $ % % * , > @ $ % , 0 6 : % : * : # $ $ $ @ ; , & + + o = i g g ! m ! ! Q { { { ",
"{ { { O.R / ! ! E m k g g g d a w 6 $ + % & : * O % % & < & O o o & : - @ o $ & ; + O o O + $ $ O X X ; u g g x ! ! Q Y O.{ { { ",
"{ { { { { ] U ! m ! ! m x k h h f d s : o & * * X o o $ # + o X X o + = = % % & = + + O X + # # O $ 5 p g x m ! ! ! K [ { { { { ",
"{ { { { { ] [ ( ! ! ! ~ m ! m m ! l g f 2 + + # X X X O + O X # < 0 w u a g g g a s i u w 0 0 w i g k m Q ! ) ) ) ~ ! Q #.{ { { ",
"{ { { { { { ' o.Y ( U @.P ! ~ m ! n g g f w ; # . X   X = 1 r d h y % > f g g g g g g f g f v ! m ! ! ) ) ) Y ( ! m ! ! ! U { { ",
"{ { { { { { ] { { { { { @.! ! m ! ! n h g g s r 0 0 u i u u u g m + o + u ! m n x l k k x m ! ! ! ! m ! /  .{ { [  .Y / ! ( { { ",
"{ { { { { { { { { { { { $./ ! ~ ~ ~ ! ! v k g g g g g g g v n Q ! m x j v ! ! ! / ! ! ! m ! ! ! ! / Y  .] ' { { { { { { X.{ { { ",
"{ { { { { { { { { { { { { $.( E ^ ) ) ) / ~ ! ! m m n m ! ! ! ! ! ! ! ! ! m ! U $.{ X.+.......X.$.{ { { { { { { { { { { { { { { ",
"{ { { { { { { { { { { { { { { } ( ! ! ! ^ ^ ^ ^ ~ ! m ! ! ! ! m m ! ! ! Q ( ..{ { { { { { { { { { { { { { { { { { { { { { { { { ",
"{ { { { { { { { { { { { { { { { { o.@.P ! ! ! ! m ! ! ! ! ! ! ! ! ! Y #.$.{ { { { { { { { { { { { { { { { { { { { { { { { { { { ",
"{ { { { { { { { { { { { { { { { { { { { { X. ...@.R R R R #.|  .X.{ { { { { { { { { { { { { { { { { { { { { { { { { { { { { { { ",
"{ { { { { { { { { { { { { { { { { { { { { { { { { { { { { { { { { { { { { { { { { { { { { { { { { { { { { { { { { { { { { { { { ",
"{ { { { { { { { { { { { { { { { { { { { { { { { { { { { { { { { { { { { { { { { { { { { { { { { { { { { { { { { { { { { { { { { ",
"{ { { { { { { { { { { { { { { { { { { { { { { { { { { { { { { { { { { { { { { { { { { { { { { { { { { { { { { _ _ { { { { { { { ",
"{ { { { { { { { { { { { { { { { { { { { { { { { { { { { { { { { { { { { { { { { { { { { { { { { { { { { { { { _ _ { { { { { { { ",
"{ { { { { { { { { { { { { { { { { { { { { { { { { { { { { { { { { { { { { { { { { { { { { { { { { _ _ { { { { _ _ { { { { _ _ { ",
"{ { { { { { { { { { { { { { { { { { { { { { { { { { { { { { { { { { { { { { { { { { { { { { { { { _ _ { { { { _ _ { { { { _ _ { ",
"{ { { { { %.%.{ { { { { { { { { { { { { { { { { { _ _ { { { { { { { { { { { { { { { { { { { { { { { { _ _ { { { { { { _ _ { { { ",
"{ { { { { %.%.{ { { { { { { { { { { { { { { { { { _ _ { { { { { { { { { { { { { { { { { { { { { { { { _ _ { { { { { { _ _ { { { ",
"%.{ { { { %.%.{ { { { %.%.{ { { { { { _ _ { { { { _ _ { { { { _ _ { { { { { { { { { { { { { { { { { { { { { { { { { { { { { { %.",
"%.{ { { { %.%.{ { { { %.%.{ { { { { { _ _ { { { { _ _ { { { { _ _ { { { { { { { { { { { { { { { { { { { { { { { { { { { { { { %.",
"{ %.%.{ { { { { { %.%.{ { { { { { { { { { _ _ { { { { { { _ _ { { { { { { { { { { { { { { { { { { { { { { { { { { { { { { { { { ",
"{ %.%.{ { { { { { %.%.{ { { { { { { { { { _ _ { { { { { { _ _ { { { { { { { { { { { { { { { { { { { { { { { { { { { { { { { { { ",
"{ { { { { { { { { { { { { { { { { { { { { { { { { { { { { { { { { { { { { { { { { { { { { { { { { { { { { { { { { { { { { { { { ",
"{ { { { { { { { { { { { { { { { { { { { { { { { { { { { { { { { { { { { { { { { { { { { { { { { { { { { { { { { { { { { { { { { ",
"{ { { { { { { { { { { { { { { { { { { { { { { { { { { { { { { { { { { { { { { { { { { { { { { { { { { { { { { { { { { { { { { { ",
"{ { { { { { { { { { { { { { { { { { { { { { { { { { { { { { { { { { { { { { { { { { { { { { { { { { { { { { { { { { { { { { { { "
};
