/* XPM */
static char *hole[] = {
/* columns rows colors chars-per-pixel */
"64 64 247 2 ",
"   c gray13",
".  c #212322",
"X  c #232323",
"o  c #222423",
"O  c #252525",
"+  c #242625",
"@  c #262726",
"#  c #272827",
"$  c #282928",
"%  c gray16",
"&  c #2A2B2A",
"*  c #2C2C2C",
"=  c #2F2F2F",
"-  c #2E302F",
";  c #2F3130",
":  c #323232",
">  c #323433",
",  c #333534",
"<  c #343434",
"1  c #353535",
"2  c #353736",
"3  c #363837",
"4  c gray22",
"5  c #383A39",
"6  c gray23",
"7  c #3B3C3C",
"8  c #3E3E3E",
"9  c #3E3F3F",
"0  c #3F403F",
"q  c #414141",
"w  c #414242",
"e  c gray26",
"r  c #424342",
"t  c #444444",
"y  c #444545",
"u  c #454645",
"i  c #464747",
"p  c gray28",
"a  c #474848",
"s  c #484848",
"d  c gray29",
"f  c #4A4B4B",
"g  c #4B4B4B",
"h  c #484C4A",
"j  c gray30",
"k  c #4D4E4E",
"l  c #4E4E4E",
"z  c #4E4F4F",
"x  c #4B504D",
"c  c #4B5851",
"v  c #505050",
"b  c #505151",
"n  c #515252",
"m  c #535353",
"M  c #505552",
"N  c #535453",
"B  c gray33",
"V  c #565656",
"C  c gray35",
"Z  c #595A59",
"A  c #5B5B5B",
"S  c #5B5C5B",
"D  c #5C5D5C",
"F  c gray37",
"G  c #4E6358",
"H  c #59625D",
"J  c #536B5F",
"K  c #585F61",
"L  c #5F6364",
"P  c #5E696E",
"I  c #567E6B",
"U  c #567F6B",
"Y  c #606060",
"T  c gray38",
"R  c #626364",
"E  c #60676A",
"W  c #656A6B",
"Q  c #676B6B",
"!  c #6C6F70",
"~  c #6D7072",
"^  c #6F7374",
"/  c #72787A",
"(  c #737B7F",
")  c #767B7D",
"_  c #598A73",
"`  c #5A8B73",
"'  c #5B8F76",
"]  c #5C9279",
"[  c #5C947A",
"{  c #5D957B",
"}  c #5F987D",
"|  c #5E9A7E",
" . c #61977E",
".. c #63997F",
"X. c #6C7980",
"o. c #787E81",
"O. c #7A8185",
"+. c #76848B",
"@. c #7F878A",
"#. c #79868C",
"$. c #7B888F",
"%. c #7C8E97",
"&. c #7A919C",
"*. c #7B929D",
"=. c #7E939D",
"-. c #7C939F",
";. c #5FA58D",
":. c #5FA58E",
">. c #40B088",
",. c #61A083",
"<. c #64A386",
"1. c #63A888",
"2. c #64AA89",
"3. c #64AA8A",
"4. c #68AA8B",
"5. c #66B18E",
"6. c #7AAC9B",
"7. c #7BAC9C",
"8. c #7CAE9D",
"9. c #7EAF9E",
"0. c #69B693",
"q. c #6ABB96",
"w. c #6BBD98",
"e. c #79B39D",
"r. c #72BF9C",
"t. c #74BD9E",
"y. c #7BB99F",
"u. c #78BC9E",
"i. c #7E95A0",
"p. c #7F96A1",
"a. c #7EBAA1",
"s. c #6DC39C",
"d. c #6FC59E",
"f. c #6FC79F",
"g. c #71C19D",
"h. c #72C19E",
"j. c #70C49E",
"k. c #70C69F",
"l. c #70C8A0",
"z. c #848D92",
"x. c #819097",
"c. c #869196",
"v. c #819199",
"b. c #84929A",
"n. c #819499",
"m. c #87949B",
"M. c #87969B",
"N. c #83949C",
"B. c #85959C",
"V. c #87969D",
"C. c #8C959A",
"Z. c #88979F",
"A. c #8A979E",
"S. c #849D9D",
"D. c #88989E",
"F. c #81AA9E",
"G. c #80AF9F",
"H. c #8197A2",
"J. c #8298A3",
"K. c #869AA3",
"L. c #8499A4",
"P. c #859BA5",
"I. c #859BA6",
"U. c #879CA7",
"Y. c #8B9AA0",
"T. c #899AA3",
"R. c #8F9BA2",
"E. c #8C9EA1",
"W. c #8E9CA2",
"Q. c #8D9DA5",
"!. c #889DA8",
"~. c #8A9EA8",
"^. c #8A9EA9",
"/. c #919EA3",
"(. c #909DA5",
"). c #8EA3A3",
"_. c #87A9A1",
"`. c #88AFA3",
"'. c #8FAEA6",
"]. c #8BA0AA",
"[. c #8CA1AB",
"{. c #8DA1AB",
"}. c #8FA3AD",
"|. c #92A0A5",
" X c #94A0A6",
".X c #96A2A7",
"XX c #97A2A7",
"oX c #93A7A6",
"OX c #90A1AA",
"+X c #93A2AA",
"@X c #94A3AB",
"#X c #91A4AE",
"$X c #92A6AF",
"%X c #93A6AF",
"&X c #97A6AE",
"*X c #98A4AA",
"=X c #9AA5AA",
"-X c #99A6AD",
";X c #9CA7AC",
":X c #99AAAA",
">X c #9BA9AF",
",X c #9EA8AE",
"<X c #85B3A2",
"1X c #87B7A5",
"2X c #89B5A5",
"3X c #8DB5A7",
"4X c #82BBA3",
"5X c #84B9A3",
"6X c #8BB9A7",
"7X c #88BBA6",
"8X c #8DB6A8",
"9X c #8EB7A8",
"0X c #94A7B0",
"qX c #95A7B1",
"wX c #95A8B1",
"eX c #97A9B2",
"rX c #98AAB3",
"tX c #9DABB2",
"yX c #98AAB4",
"uX c #9AACB5",
"iX c #9FADB4",
"pX c #9CAEB6",
"aX c #9DAEB7",
"sX c #9EAFB8",
"dX c #A0AAAE",
"fX c #A2ABB0",
"gX c #A3ADB2",
"hX c #A4B0B7",
"jX c #A0B1B9",
"kX c #A1B2BA",
"lX c #A2B2BB",
"zX c #A2B3BB",
"xX c #A7B3B9",
"cX c #A4B4BC",
"vX c #A6B5BD",
"bX c #A7B6BE",
"nX c #A8B7BF",
"mX c #AAB7BE",
"MX c #A8B8BF",
"NX c #88D8B8",
"BX c #AAB9C0",
"VX c #ABBAC2",
"CX c #ACB9C0",
"ZX c #ADBBC3",
"AX c #AEBCC4",
"SX c #AFBDC4",
"DX c #A0E0C0",
/* pixels */
"l.l.l.l.l.l.l.l.l.l.l.l.l.l.l.l.l.l.l.l.l.l.l.l.l.l.l.l.l.l.l.l.l.l.l.l.l.l.l.l.l.l.l.l.l.l.l.l.l.l.l.l.l.l.l.l.l.l.l.l.l.l.l.l.",
"l.l.l.l.l.l.l.l.l.l.l.l.l.l.l.l.l.l.l.l.l.l.l.l.l.l.l.l.l.l.l.l.l.l.l.l.l.l.l.l.l.l.l.l.l.l.l.l.l.l.l.l.l.l.l.l.l.l.l.l.l.l.l.l.",
"l.l.l.l.l.l.l.l.l.l.l.l.l.l.l.l.l.l.l.l.l.l.l.l.l.l.l.l.l.l.l.l.l.l.l.l.l.l.l.l.l.l.l.l.l.l.l.l.l.l.l.l.l.l.l.l.l.l.l.l.l.l.l.l.",
"l.l.l.l.l.l.l.l.l.l.l.l.l.l.l.l.l.l.l.l.l.l.l.l.l.l.l.l.l.l.l.l.l.l.l.l.l.l.l.l.l.l.l.l.l.l.l.l.l.l.l.l.l.l.l.l.l.l.l.l.l.l.l.l.",
"l.l.l.l.l.l.l.l.l.l.l.l.l.l.l.l.l.l.l.l.l.l.l.l.l.l.l.l.l.l.l.l.l.l.l.l.l.l.l.l.l.l.l.l.l.l.l.l.l.l.l.l.l.l.l.l.l.l.l.l.l.l.l.l.",
"l.l.l.l.l.l.l.l.l.l.DXDXl.l.l.l.l.l.l.l.l.l.l.l.l.l.l.l.l.l.l.l.l.l.l.l.l.l.l.l.l.l.l.l.l.l.l.l.l.l.l.l.l.l.l.l.l.l.l.l.l.l.l.l.",
"l.l.l.l.l.l.l.l.l.l.DXDXl.l.l.l.l.l.l.l.l.l.l.l.l.l.l.l.l.l.l.l.l.l.l.l.l.l.l.l.l.l.l.l.l.l.l.l.l.l.l.l.l.l.l.l.l.l.l.l.l.l.l.l.",
"l.l.l.l.DXDXl.l.l.l.DXDXl.l.l.l.DXDXl.l.l.l.l.l.l.l.l.l.l.l.l.l.l.l.l.l.l.l.l.l.l.l.l.l.l.l.l.l.l.l.l.l.l.l.l.l.l.l.l.l.l.l.l.l.",
"l.l.l.l.DXDXl.l.l.l.DXDXl.l.l.l.DXDXl.l.l.l.l.l.l.l.l.l.l.l.l.l.l.l.l.l.l.f.f.l.l.l.l.l.l.l.l.l.l.l.l.l.l.l.l.l.l.l.l.l.l.l.l.l.",
"l.l.l.l.l.l.DXDXl.l.l.l.l.l.DXDXl.l.l.l.l.l.l.l.l.l.l.l.l.l.l.l.l.l.l.l.l.f.f.l.l.l.l.l.l.l.l.l.l.l.l.l.l.l.l.l.l.l.l.l.l.l.l.l.",
"l.l.l.l.l.l.DXDXl.l.l.l.l.l.DXDXl.l.l.l.l.l.l.l.l.l.l.l.l.l.l.l.l.l.l.l.l.l.l.l.l.l.l.l.l.l.l.l.l.l.l.l.l.l.l.l.l.l.l.l.l.l.l.l.",
"l.l.l.l.l.l.l.l.l.l.l.l.l.l.l.l.l.l.l.l.l.l.l.l.l.l.l.l.l.l.l.l.l.l.l.l.l.l.l.l.l.l.l.l.l.l.l.l.l.l.l.l.l.l.l.l.l.l.l.l.l.l.l.l.",
"l.l.l.l.l.l.l.l.l.l.l.l.l.l.l.l.l.l.l.l.l.l.l.l.l.l.l.l.f.l.l.l.l.l.l.l.l.l.l.l.l.l.l.l.l.l.l.l.l.l.l.l.l.l.l.l.l.l.l.l.l.l.l.l.",
"l.l.l.l.l.l.l.l.l.l.l.l.l.l.l.l.l.l.l.l.l.l.l.f.l.l.l.l.f.f.l.l.l.l.l.l.l.l.f.f.l.l.l.l.l.l.l.l.l.l.l.l.l.l.l.l.l.l.l.l.l.l.l.l.",
"l.l.l.l.l.l.l.l.l.l.l.l.l.l.l.l.l.l.f.f.l.l.f.k.g.u.4X5X1X2X3X3X3X9X9X6X7X5Xu.h.f.l.l.l.l.k.l.l.l.l.l.l.l.l.l.l.l.l.l.l.l.l.l.l.",
"l.l.l.l.l.l.l.l.l.l.l.l.l.l.l.l.l.f.g.y.2X'.oX X=X=X=X,X;X;X,XdXdXdXgXdXgXgXdXdXdX:X'.2X4Xg.l.l.l.l.l.l.l.l.l.l.l.l.l.l.l.l.l.l.",
"l.l.l.l.l.l.l.l.l.l.l.l.l.l.d.y.`.)./. X X X=X-X:XtXaXaXkXcXvXnXmXnXnXZXmXnXxXhXgXdX;X=X=X=XoX<Xa.k.k.l.l.l.l.l.l.l.l.l.l.l.l.l.",
"l.l.l.l.l.l.l.l.l.l.l.k.y._.R.R.(./.OX-XrXuXaXaXjXjXkXkXcXvXvXnXmXZXZXSXSXZXZXMXnXcXcXkXaX,X=X X X|._.a.k.l.l.l.l.l.l.l.l.l.l.l.",
"l.l.l.l.l.l.l.l.f.g.<XE./.R.(.OX#X%XwXrXwXuXaXaXaXjXkXzXcXvXnXnXmXZXZXZXSXSXVXMXnXvXcXkXjXaXuXrX-XOX X/.E.G.h.l.l.l.l.l.l.l.l.l.",
"l.l.l.l.l.l.l.g.F.Z.B.Y.Q.[.}.#X%XwXwXrXrXuXpXaXjXjXkXzXcXvXnXnXMXZXZXSXSXZXZXnXnXvXvXkXkXaXaXuXuXrX%X@X(././.F.g.l.l.l.l.l.l.l.",
"l.l.l.l.l.k.8.D.Z.A.Q.].[.[.}.#X#X0XwXwXrXpXaXaXaXjXjXzXvXvXnXMXMXZXZXZXSXZXVXVXnXvXvXlXjXaXaXuXwXrXqX%X#XOXQ.A.D.G.k.f.l.l.l.l.",
"l.l.l.l.t.S.m.Z.K.!.].].[.[.}.#X0X0XwXrXrXrX@XD.z.z.O.) / ^ ~ ! ~ ~ ^ / o.@.z.C./.fXlXlXkXaXaXuXuXrXqX#X#X#X[.!.A.D.S.t.l.l.l.l.",
"l.l.l.e.m.B.K.P.!.!.^.^.[.[.}.#X#XQ.z.o.~ R T T T T T T Y Y T T T T Y T T T T T T T R ^ O.c.@XpXwXrXqXqX#X}.[.[.!.T.Z.m.e.l.l.l.",
"l.l.7.b.B.H.P.P.!.!.^.[.[.[.x.( Q T Y Y Y Y Y T Y Y Y Y Y Y Y Y Y Y Y Y Y Y Y Y Y T F L Y Y Y W o.m.0X#X#X}.[.^.!.!.K.Z.m.7.l.l.",
">.6.b.N.H.P.L.P.P.!.!.v./ R F F H F F F F F F F F F F F F F F F F F F F F F F F F F F F F F F F F F R ( m.OX[.}.[.!.P.P.B.b.7.>.",
";.v.N.p.H.H.L.P.P.#.W F S S S S D D D D D D C D D S D C D D S C D D D D S S S S S D S S D C S D S S S S D E %.!.!.P.P.J.J.N.b.:.",
"n.b.p.p.H.H.L.#.R C C C S C C S C C V D S C C C C S C C S C C C V S V S V S V S S C C C C C S S C C C S C C C R #.!.P.K.L.p.N.v.",
"v.-.-.p.H.%.P B B V V B B C B B V V V B V V V B V V V B V V V B V V V V V V V B V V V B B V B V V V V V V B V B V E %.K.H.p.=.v.",
"v.-.i.p.X.n n B B B N N N N N N m m m N N N N N N N N m N N N m N N N N N N N N N m N N N B N N N N N N n N n B N N N X.L.-.-.v.",
"N.-.*.P z b b b b b b b b b b b b b v b b b v b b b b v b b b v b b b b b b b b b b b b b x b b b b b b b b b b b n n b P =.p.N.",
"*.&.S k k k k k k k k k k k k k k k k k k k k k x k k k k k k k k k k k k k x l k k k k k k k k k k k k z z g k z k k g g L *.*.",
"&.L h h d f f f g d f f d d d d g g d d d f d d g f f d d f f d f g d g d g g g g d d d d g f f f f d d f f f f f f g a h d K *.",
"P i i i i i i i i i i i s i s i s i s i i s i i y s p p p s s y s p y s p p p p y s s p p p y s s p p p i i i i s i i i s i s P ",
"s e i y t y y y y t t i t t y y t t t y y y t e y y t t y y y r y y y y y y y y y r y y y y y t y y t y y y t y y y t t t t t i ",
"f e e e r r q w e r e e e r r 9 e e e e r r q r r r q q r r r r r r r r q r r r r q q r r q r q r q r q q q q r r r q q q r e f ",
"B 9 9 9 6 9 9 9 9 8 9 9 9 6 9 9 9 9 6 9 9 9 9 9 9 9 9 9 9 9 9 9 0 9 9 9 9 9 9 9 9 9 9 9 9 9 9 9 9 9 9 9 9 9 9 9 9 9 9 9 9 9 9 B ",
"C t 6 6 6 6 6 6 6 6 6 6 6 6 6 6 6 6 6 6 6 6 6 6 6 6 6 6 6 6 6 6 6 6 6 6 6 6 6 6 6 6 6 6 6 6 6 6 6 6 6 6 6 6 6 6 6 6 6 6 6 6 e C ",
"H B 6 6 4 4 5 5 4 4 5 6 5 4 5 5 5 5 4 5 5 5 4 5 6 4 5 4 5 6 5 2 5 5 3 6 4 6 6 2 6 2 5 5 5 3 5 6 6 4 4 5 5 5 4 5 5 6 4 4 6 6 n H ",
"4.B z 4 2 4 4 , 4 , , 4 2 2 2 2 , 4 2 4 4 2 2 2 2 4 2 2 2 2 2 2 2 2 2 2 2 2 , 2 2 2 2 2 2 2 2 2 , 2 2 2 2 2 2 2 2 2 2 < 4 l V 4.",
"l.,.n h , , ; > > > , ; > : > > > > > ; > > = > > > > = > > , : > > > : : > > > > : > > : : > : > > : : > > : : > > > < f B ,.l.",
"l.l. .n j 2 = : ; = ; ; ; = ; ; = ; = ; ; ; = ; : * : * : ; ; * ; ; ; ; * : ; ; ; = ; ; = = : ; ; ; * = ; ; = ; = ; 2 x b ..l.l.",
"l.l.l.<.b z 9 * * * * * * * * * * * * * * * * * * * * * * * * * * * * * * & * * * * * * * * * * * * * * * * * * * 9 g c <.l.l.l.",
"l.l.l.l.0.J k i , $ & & & $ & * * * $ * & * $ * & & & % & & & & & & & & & & & & & & & & & % & * * & & & & & $ , i b L q.l.l.l.l.",
"l.l.l.l.l.d.| k d r , $ $ + @ @ @ @ + @ @ @ + @ # % + + # # # + # # # # + # # # + + # $ # + # + # $ + # # , r f g | s.f.l.l.l.l.",
"l.l.l.l.l.l.l.w.` g g y < + + + + + X X + X X + + + +   + + +   + + o +   + + + + X + + +   + + + + + > y f x _ w.l.l.l.l.l.l.l.",
"l.l.l.l.l.l.l.l.l.w.[ c s i 9 : +     . .       . . .               . .                       + : 9 y s c ] w.l.l.l.l.l.l.l.l.l.",
"l.l.l.l.l.l.l.l.l.l.l.d.1.I f a i e 5 ; $ +   X   o     o         . . .     o o       & ; 4 r i a d U 1.d.l.l.l.l.l.l.l.l.l.l.l.",
"l.l.l.l.l.l.l.l.l.l.l.l.l.l.d.1.` G a i i i q 6 3 > ; & & & + + # # # $ * ; > 3 9 q i a a d G _ 1.d.l.l.l.l.l.l.l.l.l.l.l.l.l.l.",
"l.l.l.l.l.l.l.l.l.l.l.l.l.l.l.l.l.l.w.3.{ U G d y a a d i a a d a a a a d y a a h G U { 3.w.l.l.l.l.l.l.l.l.l.l.l.l.l.l.l.l.l.l.",
"l.l.l.l.l.l.l.l.l.l.l.l.l.l.l.l.l.l.l.l.l.f.l.d.q.5.1.,.| { ] ' ' ] [ | ,.3.5.q.d.l.l.l.l.l.l.l.l.l.l.l.l.l.l.l.l.l.l.l.l.l.l.l.",
"l.l.l.l.l.l.l.l.l.l.l.l.l.l.l.l.l.l.l.l.l.l.l.l.l.l.f.l.l.l.l.l.l.l.l.l.l.l.l.l.l.l.l.l.l.l.l.l.l.l.l.l.l.l.l.>.>.l.l.l.l.l.l.l.",
"l.l.l.l.l.l.l.l.l.l.l.l.l.l.l.l.l.l.l.l.l.l.l.l.l.l.l.l.l.l.l.l.l.l.l.l.l.l.l.l.l.l.l.l.l.l.l.l.l.l.l.l.l.l.l.>.>.l.l.l.l.l.l.l.",
"l.l.l.l.l.l.l.l.l.l.l.l.l.l.l.l.l.l.l.l.l.l.l.l.l.l.l.l.l.l.l.l.l.l.l.l.l.l.l.l.l.l.l.l.l.l.l.l.l.>.>.l.l.l.l.>.>.l.l.l.l.>.>.l.",
"l.l.l.l.l.l.l.l.l.l.l.l.l.l.l.l.l.l.l.l.l.l.l.l.l.l.l.l.l.l.l.l.l.l.l.l.l.l.l.l.l.l.l.l.l.l.l.l.l.>.>.l.l.l.l.>.>.l.l.l.l.>.>.l.",
"l.l.l.l.l.NXNXl.l.l.l.l.l.l.l.l.l.l.l.l.l.l.l.l.l.>.>.l.l.l.l.l.l.l.l.l.l.l.l.l.l.l.l.l.l.l.l.l.l.l.l.>.>.l.l.l.l.l.l.>.>.l.l.l.",
"l.l.l.l.l.NXNXl.l.l.l.l.l.l.l.l.l.l.l.l.l.l.l.l.l.>.>.l.l.l.l.l.l.l.l.l.l.l.l.l.l.l.l.l.l.l.l.l.l.l.l.>.>.l.l.l.l.l.l.>.>.l.l.l.",
"NXl.l.l.l.NXNXl.l.l.l.NXNXl.l.l.l.l.l.>.>.l.l.l.l.>.>.l.l.l.l.>.>.l.l.l.l.l.l.l.l.l.l.l.l.l.l.l.l.l.l.l.l.l.l.l.l.l.l.l.l.l.l.NX",
"NXl.l.l.l.NXNXl.l.l.l.NXNXl.l.l.l.l.l.>.>.l.l.l.l.>.>.l.l.l.l.>.>.l.l.l.l.l.l.l.l.l.l.l.l.l.l.l.l.l.l.l.l.l.l.l.l.l.l.l.l.l.l.NX",
"l.NXNXl.l.l.l.l.l.NXNXl.l.l.l.l.l.l.l.l.l.>.>.l.l.l.l.l.l.>.>.l.l.l.l.l.l.l.l.l.l.l.l.l.l.l.l.l.l.l.l.l.l.l.l.l.l.l.l.l.l.l.l.l.",
"l.NXNXl.l.l.l.l.l.NXNXl.l.l.l.l.l.l.l.l.l.>.>.l.l.l.l.l.l.>.>.l.l.l.l.l.l.l.l.l.l.l.l.l.l.l.l.l.l.l.l.l.l.l.l.l.l.l.l.l.l.l.l.l.",
"l.l.l.l.l.l.l.l.l.l.l.l.l.l.l.l.l.l.l.l.l.l.l.l.l.l.l.l.l.l.l.l.l.l.l.l.l.l.l.l.l.l.l.l.l.l.l.l.l.l.l.l.d.l.l.l.l.l.l.l.l.l.l.l.",
"l.l.l.l.l.l.l.l.l.l.l.l.l.l.l.l.l.l.l.l.l.l.l.l.l.l.l.l.l.l.l.l.l.l.l.l.l.l.l.l.l.l.l.l.l.l.l.l.l.l.l.f.l.l.l.l.l.l.l.l.l.l.l.l.",
"l.l.l.l.l.l.l.l.l.l.l.l.l.l.l.l.l.l.l.l.l.l.l.l.l.l.l.l.l.l.l.l.l.l.l.l.l.l.l.l.l.l.l.l.l.l.l.l.l.l.l.l.l.l.l.l.l.l.l.l.l.l.l.l.",
"l.l.l.l.l.l.l.l.l.l.l.l.l.l.l.l.l.l.l.l.l.l.l.l.l.l.l.l.l.l.l.l.l.l.l.l.l.l.l.l.l.l.l.l.l.l.l.l.l.l.l.l.l.l.l.l.l.l.l.l.l.l.l.l."
};
