/* XPM */
static char *hole3[] = {
/* columns rows colors chars-per-pixel */
"64 64 111 2 ",
"   c black",
".  c #020705",
"X  c #040E09",
"o  c #06140D",
"O  c #051C14",
"+  c #0A1C14",
"@  c #0C1F16",
"#  c #062117",
"$  c #0E2219",
"%  c #10251B",
"&  c #11271D",
"*  c #13291F",
"=  c #142C21",
"-  c #152E23",
";  c #163024",
":  c #1B372A",
">  c #1C392C",
",  c #1D3B2D",
"<  c #1F3E2F",
"1  c #1F3F31",
"2  c #1A533F",
"3  c #214233",
"4  c #244737",
"5  c #254838",
"6  c #264B3A",
"7  c #284D3C",
"8  c #2B5341",
"9  c #2C5442",
"0  c #2D5643",
"q  c #2D5744",
"w  c #2F5A46",
"e  c #315D49",
"r  c #33604C",
"t  c #34634E",
"y  c #35644F",
"u  c #366651",
"i  c #376852",
"p  c #386A53",
"a  c #396A54",
"s  c #3B6E57",
"d  c #3C6F58",
"f  c #3C7058",
"g  c #3E735A",
"h  c #3E745C",
"j  c #3F755C",
"k  c #2B7D60",
"l  c #2C7E61",
"z  c #40765D",
"x  c #41785F",
"c  c #427B61",
"v  c #437B62",
"b  c #447D63",
"n  c #33906F",
"m  c #389C78",
"M  c #399F7A",
"N  c #468066",
"B  c #478267",
"V  c #478368",
"C  c #488368",
"Z  c #488469",
"A  c #4A876B",
"S  c #4B8A6D",
"D  c #4C8C6F",
"F  c #4F8F72",
"G  c #4F9072",
"H  c #509173",
"J  c #509274",
"K  c #519476",
"L  c #539677",
"P  c #549879",
"I  c #54997A",
"U  c #569B7C",
"Y  c #579E7D",
"T  c #579E7E",
"R  c #589F7F",
"E  c #3DAA83",
"W  c #3FAD86",
"Q  c #59A180",
"!  c #5AA281",
"~  c #5AA482",
"^  c #5CA685",
"/  c #5EAA87",
"(  c #5EAA88",
")  c #5FAC89",
"_  c #40B088",
"`  c #60AD8A",
"'  c #61AE8B",
"]  c #62B08C",
"[  c #63B18E",
"{  c #64B38F",
"}  c #64B490",
"|  c #65B591",
" . c #67B893",
".. c #67B993",
"X. c #67B994",
"o. c #68BA94",
"O. c #68BA95",
"+. c #69BC96",
"@. c #6ABF98",
"#. c #6BBF99",
"$. c #6BC099",
"%. c #6CC09A",
"&. c #6CC29B",
"*. c #6DC49D",
"=. c #6EC49D",
"-. c #6FC69F",
";. c #6FC79F",
":. c #70C79F",
">. c #70C8A0",
",. c #88D8B8",
"<. c #A0E0C0",
/* pixels */
">.>.>.>.>.>.>.>.>.>.>.>.>.>.>.>.>.>.>.>.>.>.>.>.>.>.>.>.>.>.>.>.>.>.>.>.>.>.>.>.>.>.>.>.>.>.>.>.>.>.>.>.>.>.>.>.>.>.>.>.>.>.>.>.",
">.>.>.>.>.>.>.>.>.>.>.>.>.>.>.>.>.>.>.>.>.>.>.>.>.>.>.>.>.>.>.>.>.>.>.>.>.>.>.>.>.>.>.>.>.>.>.>.>.>.>.>.>.>.>.>.>.>.>.>.>.>.>.>.",
">.>.>.>.>.>.>.>.>.>.>.>.>.>.>.>.>.>.>.>.>.>.>.>.>.>.>.>.>.>.>.>.>.>.>.>.>.>.>.>.>.>.>.>.>.>.>.>.>.>.>.>.>.>.>.>.>.>.>.>.>.>.>.>.",
">.>.>.>.>.>.>.>.>.>.>.>.>.>.>.>.>.>.>.>.>.>.>.>.>.>.>.>.>.>.>.>.>.>.>.>.>.>.>.>.>.>.>.>.>.>.>.>.>.>.>.>.>.>.>.>.>.>.>.>.>.>.>.>.",
">.>.>.>.>.>.>.>.>.>.>.>.>.>.>.>.>.>.>.>.>.>.>.>.>.>.>.>.>.>.>.>.>.>.>.>.>.>.>.>.>.>.>.>.>.>.>.>.>.>.>.>.>.>.>.>.>.>.>.>.>.>.>.>.",
">.>.>.>.>.>.>.>.>.>.<.<.>.>.>.>.>.>.>.>.>.>.>.>.>.>.>.>.>.>.>.>.>.>.>.>.>.>.>.>.>.>.>.>.>.>.>.>.>.>.>.>.>.>.>.>.>.>.>.>.>.>.>.>.",
">.>.>.>.>.>.>.>.>.>.<.<.>.>.>.>.>.>.>.>.>.>.>.>.>.>.>.>.>.>.>.>.>.>.>.>.>.>.>.>.>.>.>.>.>.>.>.>.>.>.>.>.>.>.>.>.>.>.>.>.>.>.>.>.",
">.>.>.>.<.<.>.>.>.>.<.<.>.>.>.>.<.<.>.>.>.>.>.>.>.>.>.>.>.>.>.>.>.>.>.>.>.>.>.>.>.>.>.>.>.>.>.>.>.>.>.>.>.>.>.>.>.>.>.>.>.>.>.>.",
">.>.>.>.<.<.>.>.>.>.<.<.>.>.>.>.<.<.>.>.>.>.>.>.>.>.>.>.>.>.>.>.>.>.>.>.>.:.:.>.>.>.>.>.>.>.>.>.>.>.>.>.>.>.>.>.>.>.>.>.>.>.>.>.",
">.>.>.>.>.>.<.<.>.>.>.>.>.>.<.<.>.>.>.>.>.>.>.>.>.>.>.>.>.>.>.>.#.*.*.>.>.:.*.>.>.>.>.>.>.>.>.>.>.>.>.>.>.>.>.>.>.>.>.>.>.>.>.>.",
">.>.>.>.>.>.<.<.>.>.>.>.>.>.<.<.>.>.>.>.>.>.>.>.>.>.>.>.>.*.| +.| o.>.>.>.>.>.>.>.>.>.>.:.:.>.>.>.>.>.>.>.>.>.>.>.>.>.>.>.>.>.>.",
">.>.>.>.>.>.>.>.>.>.>.@.>.*.>.>.>.>.>.>.>.>.>.+.>.>.>.:.%./ >.:.z v } :.>.>.>.>.>.>.>.>.[ >.>.>.>.>.>.>.>.>.>.>.>.>.>.>.>.>.>.>.",
">.>.>.>.>.>.>.>.>.>.>.*.*.>.` | >.>.>.>.| o.#.*.>.:.>.$.*.:.*.+.| | >.K ` >.>.>.>.>.>.>.>.>.>.>.>.>.>.>.>.>.>.>.>.>.>.>.>.>.>.>.",
">.>.>.>.>.>.>.>.>.>.>.( Z >.*.| >.#.| #.#.` +.*.%.%.:.*.%.o.o.| I [ *.o.:.>.:.:.>.>.>.>.` | %.>.>.%.K >.>.>.>.>.>.>.>.>.>.>.>.>.",
">.>.>.>.>.>.>.>.>.>.>.*.#.>.o.>.>.| #.^ *.o.` >.@.@.$.;.*.| ! >.a   J %.+.:.>.:.>.I K r   , >.>.*.+.D :.>.>.>.>.>.>.>.>.>.>.>.>.",
">.>.>.>.>.>.>.>.>.>.>.@.>.>.>.>.>.>.S C U ` *.B ~ *.| o.+.A     >   a >.*.F Z s ) | s     w >.+...+.{ %.>.>.>.>.>.>.>.>.>.>.>.>.",
">.>.>.>.>.>.>.>.>.>.>.o.` >.>.>.~ o.@.#.6   e     F s * K e       S ^ ` o.K g     / %   K %.%.[ :.*.%.+.%.>.>.>.>.>.>.>.>.>.>.>.",
">.>.>.>.>.>.>.>.>.>.>.>.o.>.*.R   L >.` }               . >       - [ S / I I b ..I     Y *.%.| >.>.*.` >.>.>.>.>.>.>.>.>.>.>.>.",
">.>.>.>.>.>.>.>.>.>.>.>.| >.`   c ` `                               o S   * 0 4 X       F B X.` [ +.` +.+.>.:.*.>.>.>.>.>.>.>.>.",
">.>.>.>.>.>.>.>.>.>.>.>.>.>.Z r >.*.o.b                                                     - e   v Y %.$.$.$...>.>.>.>.>.>.>.>.",
">.>.>.>.>.>.>.>.>.>.>.>.F e * r *.W M >.*.F X                                                       Z %.>.>.>.>...>.>.>.>.>.>.>.",
">.>.>.>.>.>.>.:.*.>.>.o.o       o._ l S ~ g                                                           +.*.| %.*.;.[ >.>.>.>.>.>.",
">.>.>.>.>.>.>.>.>.>.>.a         u }     O                                                             B *.:.>.[ +.W M :.>.>.>.>.",
">.>.>.>.>.>.:.>.*.*.c             * >                                                                   g ..>.[ v E M >.>.>.>.>.",
"_ >.>.>.>.>.( :.o.F                                                                                       0 *.:.G m W *.>.>.>._ ",
"_ >.>.+.>.>.:.*.w                                                                                       2 S ^ ..*.E E *.>.>.>._ ",
">.>.>.g *.>.>.o.D *                                                                                     r n 2 I %.[ { >.>._ _ >.",
">.:.[ >.} o.e H Z c                                                                                       # l I { $.>.>.>._ _ >.",
">.>...` @.z v                                                                                             ` +.*.$.>.;.Y >.>.>.>.",
">.>.| | >.>.>.v                                                                                         . ~ ~ >.>.>.;.>.>.>.>.>.",
">.>.+.>.>.>.>.#.D .                                                                                       i [ >.>.+.>.>.>.>.>.>.",
"*.>.>.>.>.>.>.>.:.F                                                                                     S +.[ >.*.%.>.>.>.>.>.>.",
":.>.>.>.%.>.>.o.>.D                                                                                     [ >.o.>.>.>.>.>.>.>.>.>.",
":.>.>.*.@.>.>.o.F -                                                                                     h @.>.>.>.>.*.*.>.>.>.>.",
">.>.>.*.>.>.*.Z :                                                                                         3 } >.>.>.*.*.>.>.>.>.",
">.>.>.>.>.+.*./ /                                                                                           e @.^ >.~ ' >.>.>.>.",
">.>.>.>.:.:.:./ b                                                                                     X : q = 8 P >.o.*.>.>.>.>.",
">.>.>.o.[ R . i b                                                                                       J / @.` } @.} o.>.>.>.>.",
">.>.>.| +.*.| z S a                                                                                       g o.>.>.#.C >.>.>.>.>.",
">.>.>.*.%.@.*.| 6                                                                                       e ~ *.*.>.>.>.>.>.>.>.>.",
">.>.>.>.P u :.*.d                                                                                     1 #.>.*.} >.>.>.>.>.>.>.>.",
">.>.>.>.:.^ ~ *.>.~ *                                                                 w Z           8 #.>.>.*.>.>.>.>.>.>.>.>.>.",
">.>.>.*.@.>.>.>.>.*.J                                                           e r X 6 >.S         [ >.>.>.>.>.>.>.>.>.>.>.>.*.",
">.>.>.>.#.>.>.#.o.>.o.X                                                       > R %.+.*.*...      N >.>.*.*.>.>.>.>.>.>.>.>.>.>.",
">.>.>.>.>.>.>.*.+.*.+.J .                                                     @ u D #.[ *.:.3 v ` #.>.| #. .>.>.>.>.>.>.>.>.>.>.",
">.>.>.>.>.>.>.*.:.o...| H B ` g 7 q                 0                               6 o...R   [ :.:.>.*.#.#.>.>.>.>.>.>.>.>.>.>.",
">.>.>.>.>.>.>.>.>.*.R >.:.*.I %.+.s     i S h I A w [ g                         ; x g >.I   Z *.@...>.>.@.#.( >.>.>.>.>.>.>.>.>.",
">.>.>.>.>.>.>.>.>.>.*.>.>.>.>.>.*.H   > [ g r / Z *.a | 8       i 6   6 $         / :.>.C b %.>.>.} >.*. .>.*.>.>.>.>.>.>.>.>.>.",
">.>.>.>.>.>.>.>.>.+.| %.o.%.R >.K 6   r ( >   4 H +.*.g 6     + B +.x ~ | > r L a s J ' *.*.>.>.>.` #.%.:.*.:.>.>.>.>.>.>.>.>.>.",
">.>.>.>.>.>.>.>.>.>.>.^ >.#.*...      B K *.{ *.+.%.*.*   b Z g / %.:.+.%.| %.%.#.*.v ` >.>.>.o.>.>.*.>.*.>.:.>.>.>.>.>.>.>.>.>.",
">.>.>.>.>.>.>.>.>.>.>.1 *.>.%.>.s h X.:.%.>.>.>.>.%.$.` r B *.` / $.:.:.:.%.#.%.#.*.o.*.} *.#.>.>.>.>.>.>.>.>._ _ >.>.>.>.>.>.>.",
">.>.>.>.>.>.>.>.>.>.>.o.>.>.>.:.>.>.>.>.:.>.>.>.>.( ` >.:.^ [ *.*.>...:.%.:.>.>.:.:.>.>.>.>.>.>.>.>.>.>.>.>.>._ _ >.>.>.>.>.>.>.",
">.>.>.>.>.>.>.>.>.>.>.>.>.>.>.%.>.*.>.>.>.>.>.>.>.| +.*.>.*.>.>.>.>.$.>.>.>.>.>.>.>.>.>.>.>.>.>.>._ _ >.>.>.>._ _ >.>.>.>._ _ >.",
">.>.>.>.>.>.>.>.>.>.>.>.>.>.>.>.>.X.>.>.>.>.>.>.>.:.>.>.>.>.>.>.>.>.>.>.>.>.>.>.>.>.>.>.>.>.>.>.>._ _ >.>.>.>._ _ >.>.>.>._ _ >.",
">.>.>.>.>.,.,.>.>.>.>.>.>.>.>.>.>.>.>.>.>.>.>.>.>._ _ >.>.>.>.>.>.>.>.>.>.>.>.>.>.>.>.>.>.>.>.>.>.>.>._ _ >.>.>.>.>.>._ _ >.>.>.",
">.>.>.>.>.,.,.>.>.>.>.>.>.>.>.>.>.>.>.>.>.>.>.>.>._ _ >.>.>.>.>.>.>.>.>.>.>.>.>.>.>.>.>.>.>.>.>.>.>.>._ _ >.>.>.>.>.>._ _ >.>.>.",
",.>.>.>.>.,.,.>.>.>.>.,.,.>.>.>.>.>.>._ _ >.>.>.>._ _ >.>.>.>._ _ >.>.>.>.>.>.>.>.>.>.>.>.>.>.>.>.>.>.>.>.>.>.>.>.>.>.>.>.>.>.,.",
",.>.>.>.>.,.,.>.>.>.>.,.,.>.>.>.>.>.>._ _ >.>.>.>._ _ >.>.>.>._ _ >.>.>.>.>.>.>.>.>.>.>.>.>.>.>.>.>.>.>.>.>.>.>.>.>.>.>.>.>.>.,.",
">.,.,.>.>.>.>.>.>.,.,.>.>.>.>.>.>.>.>.>.>._ _ >.>.>.>.>.>._ _ >.>.>.>.>.>.>.>.>.>.>.>.>.>.>.>.>.>.>.>.>.>.>.>.>.>.>.>.>.>.>.>.>.",
">.,.,.>.>.>.>.>.>.,.,.>.>.>.>.>.>.>.>.>.>._ _ >.>.>.>.>.>._ _ >.>.>.>.>.>.>.>.>.>.>.>.>.>.>.>.>.>.>.>.>.>.>.>.>.>.>.>.>.>.>.>.>.",
">.>.>.>.>.>.>.>.>.>.>.>.>.>.>.>.>.>.>.>.>.>.>.>.>.>.>.>.>.>.>.>.>.>.>.>.>.>.>.>.>.>.>.>.>.>.>.>.>.>.>.>.>.>.>.>.>.>.>.>.>.>.>.>.",
">.>.>.>.>.>.>.>.>.>.>.>.>.>.>.>.>.>.>.>.>.>.>.>.>.>.>.>.>.>.>.>.>.>.>.>.>.>.>.>.>.>.>.>.>.>.>.>.>.>.>.:.*.>.>.>.>.>.>.>.>.>.>.>.",
">.>.>.>.>.>.>.>.>.>.>.>.>.>.>.>.>.>.>.>.>.>.>.>.>.>.>.>.>.>.>.>.>.>.>.>.>.>.>.>.>.>.>.>.>.>.>.>.>.>.>.>.>.>.>.>.>.>.>.>.>.>.>.>.",
">.>.>.>.>.>.>.>.>.>.>.>.>.>.>.>.>.>.>.>.>.>.>.>.>.>.>.>.>.>.>.>.>.>.>.>.>.>.>.>.>.>.>.>.>.>.>.>.>.>.>.>.>.>.>.>.>.>.>.>.>.>.>.>."
};
