/* XPM */
static char *pedro[] = {
/* columns rows colors chars-per-pixel */
"64 64 237 2 ",
"   c #0A0707",
".  c #0C0807",
"X  c #0A0708",
"o  c #0D0909",
"O  c #140C0C",
"+  c #190F0D",
"@  c #17100F",
"#  c #1B110E",
"$  c #170E10",
"%  c #1D1311",
"&  c #1A1416",
"*  c #22130F",
"=  c #231514",
"-  c #251916",
";  c #281B19",
":  c #2B1B1A",
">  c #331D19",
",  c #2C201E",
"<  c #36231B",
"1  c #3B231D",
"2  c #211F21",
"3  c #391F21",
"4  c #1C3026",
"5  c #2D2524",
"6  c #342523",
"7  c #3B2622",
"8  c #3D2A25",
"9  c #3B262A",
"0  c #3D2D2A",
"q  c #2D3030",
"w  c #39393B",
"e  c #47291D",
"r  c #452A27",
"t  c #442C2C",
"y  c #562E2E",
"u  c #46322B",
"i  c #4B332D",
"p  c #54332F",
"a  c #492E31",
"s  c #532D32",
"d  c #4C3332",
"f  c #493736",
"g  c #4D3A34",
"h  c #533433",
"j  c #543A35",
"k  c #5A3B35",
"l  c #5A3538",
"z  c #553C3A",
"x  c #5B3C3B",
"c  c #613C3B",
"v  c #65393C",
"b  c #70363F",
"n  c #264637",
"m  c #45423D",
"M  c #504737",
"N  c #54413A",
"B  c #5D423D",
"V  c #63423D",
"C  c #68463F",
"Z  c #4C3E45",
"A  c #5C3D42",
"S  c #643E41",
"D  c #7B3E48",
"F  c #315845",
"G  c #4E494B",
"H  c #5D4442",
"J  c #5D4A43",
"K  c #5A494A",
"L  c #654443",
"P  c #6B4544",
"I  c #634A45",
"U  c #6C4945",
"Y  c #654349",
"T  c #6B4549",
"R  c #654D49",
"E  c #6D4C4B",
"W  c #734648",
"Q  c #734B4C",
"!  c #794C4D",
"~  c #65544D",
"^  c #6A524A",
"/  c #73514D",
"(  c #77574F",
")  c #694B52",
"_  c #744D52",
"`  c #7B4D51",
"'  c #665555",
"]  c #6A5553",
"[  c #6C5B55",
"{  c #755254",
"}  c #7B5353",
"|  c #785B57",
" . c #7C545B",
".. c #745D5C",
"X. c #5D6559",
"o. c #6A6059",
"O. c #77625B",
"+. c #6E5965",
"@. c #775D64",
"#. c #527A64",
"$. c #6E6E68",
"%. c #766062",
"&. c #7A6463",
"*. c #7C6C65",
"=. c #7B6669",
"-. c #7E696C",
";. c #747366",
":. c #7D777B",
">. c #874A54",
",. c #8A4F52",
"<. c #815355",
"1. c #845956",
"2. c #83565A",
"3. c #8A555A",
"4. c #845B5C",
"5. c #8A5A5E",
"6. c #92545C",
"7. c #925A5E",
"8. c #AC5F5F",
"9. c #89625D",
"0. c #92605F",
"q. c #954F60",
"w. c #855B62",
"e. c #8B5C63",
"r. c #8A5E69",
"t. c #945C63",
"y. c #955C66",
"u. c #9B5D64",
"i. c #8C6264",
"p. c #886A66",
"a. c #836C6C",
"s. c #936464",
"d. c #9C6365",
"f. c #976A65",
"g. c #94636A",
"h. c #9B656C",
"j. c #946A6C",
"k. c #9C6B6C",
"l. c #86716B",
"z. c #8A746D",
"x. c #94736E",
"c. c #9B736E",
"v. c #836D72",
"b. c #886F75",
"n. c #9B6671",
"m. c #966973",
"M. c #9D6C73",
"N. c #877175",
"B. c #8B7473",
"V. c #8B7579",
"C. c #8D7978",
"Z. c #9A7775",
"A. c #937B74",
"S. c #927B7D",
"D. c #9B7C7C",
"F. c #A3646C",
"G. c #A56968",
"H. c #A26C6D",
"J. c #A5726D",
"K. c #AD766D",
"L. c #A56671",
"P. c #A36C73",
"I. c #A96875",
"U. c #A46E7A",
"Y. c #A27175",
"T. c #A57877",
"R. c #AD7A74",
"E. c #A5717C",
"W. c #B47B76",
"Q. c #568C70",
"!. c #718979",
"~. c #68977C",
"^. c #998274",
"/. c #9C837B",
"(. c #A6857C",
"). c #B1837D",
"_. c #827E81",
"`. c #9A7F81",
"'. c #A57481",
"]. c #A97583",
"[. c #AB7A87",
"{. c #759384",
"}. c #4BA883",
"|. c #40B088",
" X c #68A787",
".X c #75AA8B",
"XX c #68B28E",
"oX c #6BB994",
"OX c #75B494",
"+X c #75B996",
"@X c #7BB897",
"#X c #76BC99",
"$X c #6FC59E",
"%X c #72C49D",
"&X c #7CC19E",
"*X c #5DCEAF",
"=X c #6DCFAF",
"-X c #76C6A0",
";X c #70C8A0",
":X c #878A89",
">X c #9A8485",
",X c #989684",
"<X c #A38484",
"1X c #A58B81",
"2X c #A98E83",
"3X c #A58B8A",
"4X c #B68A84",
"5X c #AD9185",
"6X c #A7938C",
"7X c #B29689",
"8X c #B8978C",
"9X c #AA9995",
"0X c #B79C96",
"qX c #86A68C",
"wX c #96AC94",
"eX c #88B99B",
"rX c #ABA49B",
"tX c #BAA19A",
"yX c #A8B49E",
"uX c #93B4A3",
"iX c #B5A6A2",
"pX c #BBA6A2",
"aX c #AAB7A3",
"sX c #C0938E",
"dX c #C3A595",
"fX c #C4A89B",
"gX c #CAAC9C",
"hX c #C6ADA5",
"jX c #C3B4A7",
"kX c #CEB0A3",
"lX c #D3B6AC",
"zX c #8AC39F",
"xX c #8BCDAD",
"cX c #A7C6A3",
"vX c #C6C4B8",
"bX c #9AF1DE",
"nX c #A0E0C0",
/* pixels */
";X;X;X;X;X;X;X;X;X;X;X;X;X;X;X;X;X;X;X;X;X;X;X;X;X;X;X;X;X;X;X;X;X;X;X;X;X;X;X;X;X;X;X;X;X;X;X;X;X;X;X;X;X;X;X;X;X;X;X;X;X;X;X;X",
";X;X;X;X;X;X;X;X;X;X;X;X;X;X;X;X;X;X;X;X;X;X;X;X;X;X;X;X$X$X;X;X;X;X;X;X;X;X;X;X;X;X;X;X;X;X;X;X;X;X;X;X;X;X;X;X;X;X;X;X;X;X;X;X",
";X;X;X;X;X;X;X;X;X;X;X;X;X;X;X;X;X;X;X;X;X;X;X;X;X;XeXeXzXzXzX&X%XoX$X;X$X$X;X;X$X;X;X;X;X;X;X;X;X;X;X;X;X;X;X;X;X;X;X;X;X;X;X;X",
";X;X;X;X;X;X;X;X;X;X;X;X;X;X;X;X;X;X;X;X;X;X;X;X-XrX9X6X*.o.o.M m - % 6 M X.;.:XeX;X;X;X;X;X;X;X;X;X;X;X;X;X;X;X;X;X;X;X;X;X;X;X",
";X;X;X;X;X;X;X;X;X;X;X;X;X;X;X;X;X;X;X;X$X$X$XzXrX>X[ - o O O O O 5 & % 0 5 6 , [ @X;X;X;X;X;X;X;X;X;X;X;X;X;X;X;X;X;X;X;X;X;X;X",
";X;X;X;X;X;X;X;X;X;XnXnX;X;X;X;X;X;X;X;X;X%XeXrX~ # O O + O O O @ @ % o ; 5 @ O + F OX$X;X;X;X;X;X;X;X;X;X;X;X;X;X;X;X;X;X;X;X;X",
";X;X;X;X;X;X;X;X;X;XnXnX;X;X;X;X;X;X;X-X-XyX6XJ # + # O + + O O o O O @ @ ; @ O o o 4 XX;X;X;X;X;X;X;X;X;X;X;X;X;X;X;X;X;X;X;X;X",
";X;X;X;XnXnX;X;X;X;XnXnX;X;X;X;XnXnX;X-XrX,XM % # # # # + O O O O O O @ @ @ @ o o X X 4 XX;X;X;X;X;X;X;X;X;X;X;X;X;X;X;X;X;X;X;X",
";X;X;X;XnXnX;X;X;X;XnXnX;X;X;X;XnXnXzXrX6X0 % , % % # % # * + O # O @ # O O O X X X X X n oX;X;X;X;X;X;X;X;X;X;X;X;X;X;X;X;X;X;X",
";X;X;X;X;X;XnXnX;X;X;X;X;X;XnXnX;X;X/./.M , & , , % - - : # # # # % O O + o o X o o X X X n oX;X;X;X;X;X;X;X;X;X;X;X;X;X;X;X;X;X",
";X;X;X;X;X;XnXnX;X;X;X;X;X;XnXnX$X$X( ~ , , , 5 < % 7 - 7 # * = = = % O O o O X     X X     F #X;X;X;X;X;X;X;X;X;X;X;X;X;X;X;X;X",
";X;X;X;X;X;X;X;X;X;X;X;X;X;X;X;X$X%X*.u < 0 g u u , 1 : < : > + : : = + + O O X     o o       F $X;X;X;X;X;X;X;X;X;X;X;X;X;X;X;X",
";X;X;X;X;X;X;X;X;X;X;X;X;X;X;X;X$XXX~ 8 8 f 0 g M 6 i 7 : 1 * = 3 3 > = : * + O       . . o o o #.;X;X;X;X;X;X;X;X;X;X;X;X;X;X;X",
";X;X;X;X;X;X;X;X;X;X;X;X;X;X;X;X$X XN N M i , d i u 8 7 8 1 = t a l r 3 r 3 + O o o o o     X X w $X;X;X;X;X;X;X;X;X;X;X;X;X;X;X",
";X;X;X;X;X;X;X;X;X;X;X;X;X;X;X;X;X~.J ^ N 8 < g i r u 8 d 7 t l T T a l s s : $ o o O o       X q oX;X;X;X;X;X;X;X;X;X;X;X;X;X;X",
";X;X;X;X;X;X;X;X;X;X;X;X;X;X;X;X-X~.^ / i g g g j i j j s S { 3.w.` s S _ S 3 $ O O + + O o X O 2 oX;X;X;X;X;X;X;X;X;X;X;X;X;X;X",
";X;X;X;X;X;X;X;X;X;X;X;X;X;X;X;X;X!.^ I N B ^ ^ ! } <.<.<.g.g.g.n.` ` w.3._ s = = = > t ; O O O & {.;X;X;X;X;X;X;X;X;X;X;X;X;X;X",
";X;X;X;X;X;X;X;X;X;X;X;X;X;X;X;X;X;.B J B I 9.k.k.d.k.h.H.P.P.P.M.n.y.t.t.w.S : r s l L d ; = O 2 {.;X;X;X;X;X;X;X;X;X;X;X;X;X;X",
";X;X;X;X;X;X;X;X;X;X;X;X;X;X;X;X;XB u M I ^ 9.J.H.H.P.P.E.[.].E.U.U.L.n.h.g.` l S W W P A 7 - % q _.$X$X;X;X;X;X;X;X;X;X;X;X;X;X",
";X;X;X;X;X;X;X;X;X;X;X;X;X;X;X;X#Xu 8 f B ( 9.J.H.H.H.I.I.E.[.].'.'.U.m.h.g.` ` <.` W W P t - = q _.XX;X;X;X;X;X;X;X;X;X;X;X;X;X",
";X;X;X;X;X;X;X;X;X;X;X;X;X;X;X;XXX< 6 0 J 4.f.H.k.F.H.H.U.I.'.'.].'.U.P.n.g.3.3.<.` ` W v i > = w _.{.;X;X;X;X;X;X;X;X;X;X;X;X;X",
";X;X;X;X;X;X;X;X;X;X;X;X;X;X;X;X X< 8 u B p.c.H.H.H.H.H.I.'.I.'.].].U.n.h.y.e.5.3.<.` W V j , - Z _.Q.;X;X;X;X;X;X;X;X;X;X;X;X;X",
";X;X;X;X;X;X;X;X;X;X;X;X;X;X;X;X~.~ p g ~ T.R.Y.G.H.P.P.U.I.I.U.'.'.U.U.n.g.t.t.3.<.! U V z 8 = Z :.X.;X;X;X;X;X;X|.|.;X;X;X;X;X",
";X;X;X;X;X;X;X;X;X;X;X;X;X;X;X;X~.).,.H p.4X).R.Y.P.h.P.U.'.'.'.I.'.'.I.M.n.y.e.w. .Q U V B i = 5 a K oX;X;X;X;X;X|.|.;X;X;X;X;X",
"|.;X;X;X;X;X;X;X;X;X;X;X;X;X;X;X@X8.G./ x.4X4XT.9.}  .r.m.'.[.].[.'.].'.'.n.m.w. .) s a a A j - 7 y N Q.|.;X;X;X;X|.|.;X;X;X;X|.",
"|.;X;X;X;X;X;X;X;X;X;X;X;X;X;X;X%X8.K.1.T.4X).4._ L A t a A @.n.'.M.'.n.n.r.S Z 3 t a a t z j : p p K Q.|.;X;X;X;X|.|.;X;X;X;X|.",
";X;X;X;X;X;X;X;X;X;X;X;X;X;X;X;X;X).W.0.(.sXT.f.h.h.r.w.) A A _ g.m.n.y.q.Z 9 9 A ) _ _ S z x 6 p k K ~.;X|.|.;X;X;X;X;X;X|.|.;X",
";X;X;X;X;X;X;X;X;X;X;X;X;X;X;X;X;X,XK.f.4X8Xc.0.3.2.T Y _ ` w. .r.g.r.w.S A A S A x A x x z B 0 h c K  X;X|.|.;X;X;X;X;X;X|.|.;X",
";X;X;X;X;X;X;X;X;X;X;X;X;X;X;X;X;XzXK.K.4X).f.,.x ) Z q Z S _ 2.r.n.n.D A S A Z q Z Z 9 j B I i k c R XX;X;X;X;X;X;X;X;X;X;X;X;X",
";X;X;X;X;X;X;X;X;X;X;X;X;X;X;X;X;X&XK.).sXsXJ.0.<.{ ) 9 +.+.` g.y.n.y.S S S -.+.3 Z l s k V V j k v R +X;X;X;X;X;X;X;X;X;X;X;X;X",
";X;X;X;X;X;X;X;X;X;X;X;X;X;X;X;X;X;X(.).sX).).f.d.s.g.w.>.>.w.m.u.h.y.S D  .r.r.2._ Q V C C C z p p J $X;X;X;X;X;X;X;X;X;X;X;X;X",
";X;X;X;X;X;X;X;X;X;X;X;X;X;X;X;X;X;X/.(.).).K.G.h.d.g.y.r.r.y.u.u.F.r.A D  .r.r.w.} Q Q U P L x p V X.$X;X;X;X;X;X;X;X;X;X;X;X;X",
";X;X;X;X;X;X;X;X;X;X;X;X;X;X;X;X;X;XqXJ.T.).H.G.F.L.L.L.n.F.H.u.u.u.6.S W >.e.g.e.e.5.<.! U B z k ' #.;X;X;X;X;X;X;X;X;X;X;X;X;X",
";X;X;X;X;X;X;X;X;X;X;X;X;X;X;X;X;X;XqXH.D.).J.H.P.I.L.L.I.I.F.8.u.u.u.W C >.t.y.y.t.5.3.` W V z ) :.Q.;X;X;X;X;X;X;X;X;X;X;X;X;X",
";X;X;X;X;X;X;X;X;X;X;X;X;X;X;X;X;X;X!.E x.).J.H.F.I.I.L.F.I.G.u.u.u.u.W S ! 6.u.u.u.6.<.! C ~ !.wX{. X%X;X;X;X;X;X;X;X;X;X;X;X;X",
";X;X;X;X;X;X;X;X;X;X;X;X;X;X;X;X%X%X' u &.).k.k.F.I.I.F.F.F.u.6.6.u.u.W v T y.u.y.t.t.<.Q V  X$X%X;X%X-X;X;X;X;X;X;X;X;X;X;X;X;X",
";X;X;X;X;X;X;X;X;X;X;X;X;X;X;X;X;X Xh 1 [ ).c.k.h.H.I.F.d.F.6.6.u.F.y.>.D l 5.u.0.7.3.} L j  X;X;X;X;X;X;X;X;X;X;X;X;X;X;X;X;X;X",
";X;X;X;X;X;X;X;X;X;X;X;X;X;X;X;X;XQ.r 1 R R.k.k.h.h.F.u.G.F.6.d.L.].n.t.W c W t.7.3.<.Q x j oX;X;X;X;X;X;X;X;X;X;X;X;X;X;X;X;X;X",
";X;X;X;X;X;X;X;X;X;X;X;X;X;X;X$X;XM e B a.Z.f.f.s.d.d.G.G.F.u.3.g.I.n.3.S c W 3.3.<.! L z j oX;X;X;X;X;X;X;X;X;X;X;X;X;X;X;X;X;X",
";X;X;X;X;X;X;X;X;X;X;X;X;X;X;X$XoXe I -.:Xx.j.9.s.s.s.s.y.s.s.`  .s.2.h s T T } <.Q P z B j oX;X;X;X;X;X;X;X;X;X;X;X;X;X;X;X;X;X",
";X;X;X;X;X;X;X;X;X;X;X;X;X;X$X$X~.[ C.3X6XA.f.i.9.f.1._ U E P L S L s 0 a t a h z L x z B g -X;X;X;X;X;X;X;X;X;X;X;X;X;X;X;X;X;X",
";X;X;X;X;X$X$X;X;X;X;X;X;X;X$X X~ l.fXdX<Xx.p.9.9.s.( C P ` ! ! ! S S S x l h d f z j j k $.;X;X;X;X;X;X;X;X;X;X;X;X;X;X;X;X;X;X",
";X;X;X;X;X;X;X;X;X;X;X;X;X$XXXn m pXlXtXZ.c.f.9.1.p.4.V c P <.,.3.q.3.! S v a d I E h z j :X;X;X;X;X;X;X;X;X;X;X;X;X;X;X;X;X;X;X",
";X;X;X;X;X;X;X;X;X;X;X;X;X=X*X=XpXlXtX(.f.x.J.O.} | 9.1.5.D D D D D D S b y r L } E d j M ;.;X;X;X;X;X;X;X;X;X;X;X;X;X;X;X;X;X;X",
";X;X;X;X;X;X;X;X;X;X;X;X;X=XbXvXlXdX(.p.9.f.R.1./ / | 0.7.3.>.q.q.>.>.D D s x E } j i i ^ ;.%X%X;X;X;X;X;X;X;X;X;X;X;X;X;X;X;X;X",
";X;X;X;X;X;X;X;X;X;X;X$XQ.xXvXlXkX5XD.9.^ z.R.G.C U | s.k.s.6.6.q.>.>.D S S U Q R r u j ^ O.^.~.%X;X;X;X;X;X;X;X;X;X;X;X;X;X;X;X",
";X;X;X;X;X;X;X;X;X;X%XyXA.pXhXkX8X<X(.1.k 9.K.J.9.V I  .0.f.i.4.` _ T T W P P E j 8 j k ( p.p.O.[  X%X;X;X;X;X;X;X;X;X;X;X;X;X;X",
";X;X;X;X;X;X;X;X;X;XyXfX^.(.kXhX5X].D.9.r ( K.J.J./ B ^ } 0.7.5. .T S _ ! T L z r r k B ( O.( [ ' [ %.qX;X;X;X;X;X;X;X;X;X;X;X;X",
";X;X;X;X;X;X;X;X;XcXjXgX).z.gX8X<X<XD.i.i } K.J.J.f.V I I } 5.4.5.` } Q Q L z 0 1 k k V H R ..@.=.@.' ] qX;X;X;X;X;X;X;X;X;X;X;X",
";X;X;X;X;X;X;X;XzXgXgXgXtX^.tX8X'.`.<Xp.i <.K.G.J.k.1.B H R Q 4.2.} { T z d t 7 i k V V u z ] v.N.=.O.K l.wX;X;X;X;X;X;X;X;X;X;X",
";X;X;X;X;X;X;XzXgXgXkXgXdX7X^.7X<X`.Z.b.u <.K.J.J.k.f.{ z A E { _ _ Q Y z a 8 u B V V V R N Z +.=.V.b.%...(.qX|.|.;X;X;X;X;X;X;X",
";X;X;X;X;X;X&XjXgXgXkXgXdX8X/.l.3X>Xx.p.> 1.f.G.H.H.k.s.} x x L Y I L z a 0 t k c V U P N %.-.-.=.@.N.N...<X(.~.|.;X;X;X;X;X;X;X",
";X;X;X;X;X$XrXkXgXgXgXgXdX8X7X^.a.<X`. .> ( k.c.Y.Y.k.f.w.4.E K Z z a t d d j k C Q Q C f =.=.-.a.-.@.=.N.D./.a.~.;X;X;X;X|.|.;X",
";X;X;X$X;XyXgXkXgXgXgXgXdX8X5X5Xz.&.>XD.1 ! f.J.P.J.H.k.i.4.5.9.4. .{ { E L c U } 1./ V G -.-.=.-.-.v.' +.A./.l.A.cX;X-X;X|.|.;X",
";X;X;X$XcXgXgXgXgXdXdXdXdX8X7X5X(.O.Z.D./ x s.H.Y.Y.Y.P.s.5.5.w.i.r.p. .Q E C / 1.<./ V K v.v.-.=.=.-.-.K B.^.l.O.^.zX|.|.;X;X;X",
";X;X;XcXfXtXtX8XdXdXtXdX8X8X7X7X2XA.&.x.| r i.M.P.Y.T.E.M.s.i.p.r.i.w.{ } Q P } 1.1.! c +.b.b.-.=.=.-.-.O.l.A.l.[ ~ ;.}.|.;X;X;X",
"xX=XuXpX6X_.3X3X7X8X7X7X7X7X7X7X5X/.O.O.) 1  .f.M.Y.Y.E.P.k.j.j.g.p.w. .| _ Q 1.5.1./ k @.b.V.v.-.=.-.&.O.A.z.p.o.~ ] ;.$X$X$XxX",
"xX&XiXpXpX3XiX`./.(.1X1X1X1X5X5X5X/.A.| j 1 L i.M.Y.Y.Y.Y.M.M.j.m.g.g.i.5.} } w.5.<.Q h a.V.V.V.v.-.=.=...z.l.a.o.~ ] [ ~.$X;XnX",
"xXiXpXpX9XtX3XiXrX/.C.>X/./.(.1X2X1X^.l.f 1 d { j.M.U.Y.Y.M.M.M.m.m.j.i.i.}  .i.i.<.U x b.V.`.V.N.N.-.%.&.B.l.*.O.[ ~ o.[ eX;X;X",
"aXpXpX0X9X0X3X0X0XtX9X>X>X>X/./.1X1X^.z.&.t i x | m.Z.M.T.Y.M.M.m.j.j.g.5.4.5.i.5.} U ] `.`.V.b.C.S.V...l.z.*.*.O.[ ~ o.[ o.oX;X",
"aXrXrX9XiX,X9XrXrXiXhXjXiX9X>X>X/.1X/.A.A.[ i j L w.j.M.M.M.M.k.j.j.h.i.4.9.i.i.5.` C =.`.>XV.N.C.V._.@.B.l.*.*.[ [ [ @.~ K X.;X",
"=X$X;X;X;X;X$X;X;X;X;X;X;X;X;X;X;X;X;X;X$X;X;X;X%X%X%X%X&X%X&X%X#X#X#X+X+X+X#X@X+X+XOX+X@X#X#X+X#X+X@XOX@XOX.X.X X X.X X X XOXoX",
";X;X;X;X;X;X;X;X;X;X;X;X;X;X;X;X;X;X;X;X$X;X;X;X;X;X;X;X;X;X;X;X;X;X;X;X;X;X;X;X;X;X;X;X;X;X;X;X;X;X-X-X;X;X;X;X;X;X;X;X;X;X;X;X",
";X;X;X;X;X;X;X;X;X;X;X;X;X;X;X;X;X;X;X;X;X;X;X;X;X;X;X;X;X;X;X;X;X;X;X;X;X;X;X;X;X;X;X;X;X;X;X;X;X;X;X;X;X;X;X;X;X;X;X;X;X;X;X;X"
};
