/* XPM */
static char *exit3[] = {
/* columns rows colors chars-per-pixel */
"64 64 75 1 ",
"  c #1A1625",
". c #1C1729",
"X c #1E182C",
"o c #201930",
"O c #231A34",
"+ c #231A35",
"@ c #241B37",
"# c #261B39",
"$ c #261B3A",
"% c #291C3E",
"& c #2B1D41",
"* c #2D1E45",
"= c #2E1F47",
"- c #30204A",
"; c #30204B",
": c #32214E",
"> c #342252",
", c #352254",
"< c #362255",
"1 c #382358",
"2 c #39245B",
"3 c #3B245D",
"4 c #412561",
"5 c #492564",
"6 c #4B2465",
"7 c #4C2466",
"8 c #4D2466",
"9 c #4E2467",
"0 c #502467",
"q c #512468",
"w c #552469",
"e c #5C246C",
"r c #5E246D",
"t c #60246E",
"y c #642470",
"u c #6D2374",
"i c #742377",
"p c #7E2781",
"a c #802883",
"s c #822985",
"d c #872C8C",
"f c #8D2F94",
"g c #903097",
"h c #9835A2",
"j c #9E38A9",
"k c #B248AF",
"l c #B54BAF",
"z c #B84EAE",
"x c #BD53AD",
"c c #BF55AC",
"v c #AC42B1",
"b c #B147B0",
"n c #C056AC",
"m c #C55BAA",
"M c #CB61A9",
"N c #D167A7",
"B c #D269A6",
"V c #40B088",
"C c #6FC79F",
"Z c #70C8A0",
"A c #DF86B4",
"S c #E18CB8",
"D c #E290BA",
"F c #E497BE",
"G c #88D8B8",
"H c #E59AC0",
"J c #E8A3C6",
"K c #E9A9C9",
"L c #EAACCB",
"P c #EBAFCD",
"I c #ECB2CF",
"U c #EEB7D2",
"Y c #F0BDD6",
"T c #A0E0C0",
"R c #F0C0D8",
/* pixels */
"ZZZZZZZZZZZZZZZZZZZZZZZZZZZZZZZZZZZZZZZZZZZZZZZZZZZZZZZZZZZZZZZZ",
"ZZZZZZZZZZZZZZZZZZZZZZZZZZZZZZZZZZZZZZZZZZZZZZZZZZZZZZZZZZZZZZZZ",
"ZZZZZZZZZZZZZZZZZZZZZZZZZZZZZZZZZZZZZZZZZZZZZZZZZZZZZZZZZZZZZZZZ",
"ZZZZZZZZZZZZZZZZZZZZZZZZZZZZZZZZZZZZZZZZZZZZZZZZZZZZZZZZZZZZZZZZ",
"ZZZZZZZZZZZZZZZZZZZZZZZZZZZZZZZZZZZZZZZZZZZZZZZZZZZZZZZZZZZZZZZZ",
"ZZZZZZZZZZTTZZZZZZZZZZZZZZZZZZZZZZZZZZZZZZZZZZZZZZZZZZZZZZZZZZZZ",
"ZZZZZZZZZZTTZZZZZZZZZZZZZZZZZZZZZZZZZZZZZZZZZZZZZZZZZZZZZZZZZZZZ",
"ZZZZTTZZZZTTZZZZTTZZZZZZZZZZZZZZZZZZZZZZZZZZZZZZZZZZZZZZZZZZZZZZ",
"ZZZZTTZZZZTTZZZZTTZZZZZZZZZZZZZZZZZZZCCZZZZZZZZZZZZZZZZZZZZZZZZZ",
"ZZZZZZTTZZZZZZTTZZZZZZccccccccZZZZZZZZCZZZZZZZZZZZZZZZZZZZZZZZZZ",
"ZZZZZZTTZZZZZZTTZZZnccccccccccccccZZZZZZZZZZZZZZZZZZZZZZZZZZZZZZ",
"ZZZZZZZZZZZZZZZZZccncccccccccccccccZZZZZZZZZZZZZZZZZZZZZZZZZZZZZ",
"ZZZZZZZZZZZZZZZZcccnnxccccccncccccccZZZZZZZZZZZZZZZZZZZZZZZZZZZZ",
"ZZZZZZZZZZZZZZcccccvAfuZZZZZZZcccccccZZZZZZZZZZZZZZZZZZZZZZZZZZZ",
"ZZZZZZZZZZZZZZccccxSMZZZZZZZZZZZZcccccZZZZZZZZZZZZZZZZZZZZZZZZZZ",
"ZZZZZZZZZZZZZNccxSFZZZZZZZZ++++ZZZZccccZZZZZZZZZZZZZZZZZZZZZZZZZ",
"ZZZZZZZZZZZZFcxkKLZZZZZZZZZZZZZZZZZZccccZZZZZZZZZZZZZZZZZZZZZZZZ",
"ZZZZZZZZZZZHckBHZZZZZZZZZZZZZZZZZZZZZccccZZZZZZZZZZZZZZZZZZZZZZZ",
"ZZZZZZZZZZIBzBLLZZZZZZZVVRRJZZZZZZZZZccccZZZZZZZZZZZZZZZZZZZZZZZ",
"ZZZZZZZZZIJncKLZZZZZZZZRRKZZuZZZZZZZZZcccZZZZZZZZZZZZZZZZZZZZZZZ",
"ZZZZZZZZZInkKLZZZVVZZZUJAd13333ZZZZZZZZccZZZZZZZZZZZZZZZZZZZZZZZ",
"ZZZZZZZZIImJLZZZZVVZRUFB>3ZZZVV33ZZZZZZZccZZZZZZZZZZZZZZZZZZZZZZ",
"ZZZZZZZZIIHLZZZZZZZVYHZZZZZVVZZZ33ZZZZZZccZZZZZZZZZZZZZZZVVZZZZZ",
"ZZZZZZZIIPLLZZZZZZZRHZZZZZZVVZZZZ3<ZZZZZZcZZZZZZZZZZZZZZZVVZZZZZ",
"VZZZZZZIILLZZZZZZZZYFZZZZZZZZZZZZZ3%CZZZZccZZZZZZZZVVZZZZVVZZZZV",
"VZZZZZZIILLZZZZZZZRJZZZZZZZZZZZZZZ6$XZZZZccZZZZZZZZVVZZZZVVZZZZV",
"ZZZZZZZIPLZZZZZZZZUJZZZZZZZZZZZZZZ6,XZZbZcnZZZZZZZZZZVVZZZZZZVVZ",
"ZZZZZZZILLZZZZZZZIYZZZZZZZZZXZZ%<8q6*ZZbbcyZZZZZZZZZZVVZZZZZZVVZ",
"ZZZZZZZLLZZZZZZZZRHCCZZZZZC%XXX&>reerjbbkn4ZZZZZZZZZZZZZZZZZZZZZ",
"ZZZZZZZLLZZZZZZZZIFCCZZZZrray.ZZ*6erejbllc4ZZBZZZZZZZZZZZZZZZZZZ",
"ZZZZZZZHLZZZZZZZZZZZZZZZrrivuZZZZ qrivlccc4ZLBZZZZZZZZZZZZZZZZZZ",
"ZZZZZZZKLZZZZZZZZFZZZZZrrrabZZZZZZ<epbZccl4ZZZZZZZZZZZZZZZZZZZZZ",
"ZZZZZZZLPZZZZZZZZFZZZZZrresxZT4ZZXqTTbZxbTTZLIZZZZZZZZZZZZZZZZZZ",
"ZZZZZZZLCZZZZZZZZZZZZZrreeflvTT4ZXZTTZxvkTTZIIZZZZZZZZZZZZZZZZZZ",
"ZZZZZZZLZZZZZZZZZZZZZZrrrqpje ZTTZZZZZvbkZZKPICZZZZZZZZZZZZZZZZZ",
"ZZZZZZZLZZZZZZZZZZZZZrrrrqhjwwZTTZZZZbbbTZZKACZZZZZZZZZZZZZZZZZZ",
"ZZZZZZZLZZZZZZZZZZZZZrrrwqlsew+CZZZZZbZZZZKcIZZZZZZZZZZZFZZZZZZZ",
"ZZZZZZZZZZZZZZZZZZZZZrr04eah6&==ZZZZZZZZZZSBCZZZZZZZZZZZFZZZZZZZ",
"ZZZZZZZZZZZZZZZZZZZZZ>->6wrzz9==ZZZZZZZZZBMKZZZZZZZZZZZFFZZZZZZZ",
"ZZZZZZZZZZZZZZZZZZZZZXX<486kcZ#X ZZZZZZZFcmZZZZZZZZZZZZFUZZZZZZZ",
"ZZZZZCCZZZZZZZZZZZZZZXX:358ZnccZZo+ZZZgcnccZZZZZZZZZZZZHRZZZZZZZ",
"ZZZZZCCZZZZZZZZZZZZZZXXX358ZZcccZZCCZZjcccZZZZZZZZZZZZFUYZZZZZZZ",
"ZZZZZZZZZZZZZZZZZZZZZZXX355ZZZccccccccccZZZZZZZZZZZZZZHYUZZZZZZZ",
"ZZZZZZZZZZZZZZZZZZZZZZZX33ZZZZZZZcccccZZZZZZZZZZZZZZZFJRPZZZZZZZ",
"ZZZZZZZZZZZZZZZZZZZZZZZX22@ZZZZZZZZZZZZZZZZZZZZZZZZZZHRRZZZZZZZZ",
"ZZZZZZZZZZZZZZZZZZZZZZZZ&33ZZZZZZZZZZZZZZZZZZZZZZZZZHYRZZZZZZZZZ",
"ZZZZZZZZZZZZZZZZZZZZZZZZZ333ZZZZZZZZZZZZZZZZZZZZZZZZJRRZZZZZZZZZ",
"ZZZZZZZZZZZZZZZZZZZZZZZZZZ33oZZZZZZZZZZZZZZZZZZZZZZFYRRZZZZZZZZZ",
"ZZZZZZZZZZZZZZZZZZZZZZZZZZZ3<CZZZZZZZZZZZZZZZZZZZZHURRZZZZZZZZZZ",
"ZZZZZZZZZZZZZZZZZZZZZZZZZZZ33;ZZZZZZZZZZZZZZZZZZZFPRRZZZZZZZZZZZ",
"ZZZZZZZZZZZZZZZZZZZZZZZZZZZZ3334ZZZZZZZZZZZZZZZZFLRRZZZVVZZZZZZZ",
"ZZZZZZZZZZZZZZZZZZZZZZZZZZZZZ33333ZZZZZZZZZ33ZZFJRRZZZZVVZZZZZZZ",
"ZZZZZZZZZZZZZZZZZZZZZZZZZZZZZZZ33333####3222ZFHJRRRZZZZVVZZZZVVZ",
"ZZZZZZZZZZZZZZZZZZZZZZZZZZZZZZZZZZ333331<dcZFJPRRVVZZZZVVZZZZVVZ",
"ZZZZZGGZZZZZZZZZZZZZZZZZZVVZZZZZZZZZZZZMBDFLIYRRZZZVVZZZZZZVVZZZ",
"ZZZZZGGZZZZZZZZZZZZZZZZZZVVZZZZZZZZFHHFHFIURRRZZZZZVVZZZZZZVVZZZ",
"GZZZZGGZZZZGGZZZZZZVVZZZZVVZZZZVVZZZRRRRRRRRZZZZZZZZZZZZZZZZZZZG",
"GZZZZGGZZZZGGZZZZZZVVZZZZVVZZZZVVZZZZRRRRRZZZZZZZZZZZZZZZZZZZZZG",
"ZGGZZZZZZGGZZZZZZZZZZVVZZZZZZVVZZZZZZZZZZZZZZZZZZZZZZZZZZZZZZZZZ",
"ZGGZZZZZZGGZZZZZZZZZZVVZZZZZZVVZZZZZZZZZZZZZZZZZZZZZZZZZZZZZZZZZ",
"ZZZZZZZZZZZZZZZZZZZZZZZZZZZZZZZZZZZZZZZZZZZZZZZZZZZCCZZZZZZZZZZZ",
"ZZZZZZZZZZZZZZZZZZZZZZZZZZZZZZZZZZZZZZZZZZZZZZZZZZZCCZZZZZZZZZZZ",
"ZZZZZZZZZZZZZZZZZZZZZZZZZZZZZZZZZZZZZZZZZZZZZZZZZZZZZZZZZZZZZZZZ",
"ZZZZZZZZZZZZZZZZZZZZZZZZZZZZZZZZZZZZZZZZZZZZZZZZZZZZZZZZZZZZZZZZ"
};
