/* XPM */
static char *exit16[] = {
/* columns rows colors chars-per-pixel */
"64 64 60 1 ",
"  c #1A1625",
". c #1C1729",
"X c #20192F",
"o c #231A34",
"O c #261B39",
"+ c #291C3E",
"@ c #2B1D41",
"# c #2D1E45",
"$ c #32204D",
"% c #352253",
"& c #3A245B",
"* c #3B245D",
"= c #492564",
"- c #4D2466",
"; c #502467",
": c #552469",
"> c #5C246C",
", c #5E246D",
"< c #60246E",
"1 c #672371",
"2 c #642470",
"3 c #692372",
"4 c #6D2374",
"5 c #742377",
"6 c #7A257C",
"7 c #7E2781",
"8 c #802883",
"9 c #822985",
"0 c #872C8C",
"q c #8B2E92",
"w c #8D2F94",
"e c #8E2F95",
"r c #903097",
"t c #93329C",
"y c #9835A2",
"u c #9C36A6",
"i c #9E38A9",
"p c #A23AAE",
"a c #A43BB1",
"s c #A73DB3",
"d c #B248AF",
"f c #B54BAF",
"g c #B84EAE",
"h c #BD53AD",
"j c #AC42B1",
"k c #B147B0",
"l c #C056AC",
"z c #C55BAA",
"x c #CC62A8",
"c c #D269A6",
"v c #D76DA5",
"b c #40B088",
"n c #6FC79F",
"m c #70C8A0",
"M c #DF86B4",
"N c #E18CB8",
"B c #E290BA",
"V c #E393BC",
"C c #88D8B8",
"Z c #A0E0C0",
/* pixels */
"mmmmmmmmmmmmmmmmmmmmmmmmmmmmmmmmmmmmmmmmmmmmmmmmmmmmmmmmmmmmmmmm",
"mmmmmmmmmmmmmmmmmmmmmmmmmmmmmmmmmmmmmmmmmmmmmmmmmmmmmmmmmmmmmmmm",
"mmmmmmmmmmmmmmmmmmmmmmmmmmmmmmmmmmmmmmmmmmmmmmmmmmmmmmmmmmmmmmmm",
"mmmmmmmmmmmmmmmmmmmmmmmmmmmmmmmmmmmmmmmmmmmmmmmmmmmmmmmmmmmmmmmm",
"mmmmmmmmmmmmmmmmmmmmmmmmmmmmmmmmmmmmmmmmmmmmmmmmmmmmmmmmmmmmmmmm",
"mmmmmmmmmmZZmmmmmmmmmmmmmmmmmmmmmmmmmmmmmmmmmmmmmmmmmmmmmmmmmmmm",
"mmmmmmmmmmZZmmmmmmmmmmmmmmmmmmmmmmmmmmmmmmmmmmmmmmmmmmmmmmmmmmmm",
"mmmmZZmmmmZZmmmmZZmmmmmmmmmmmmmmmmmmmmmmmmmmmmmmmmmmmmmmmmmmmmmm",
"mmmmZZmmmmZZmmmmZZmmmmmmmmmmmmmmmmmmmnnmmmmmmmmmmmmmmmmmmmmmmmmm",
"mmmmmmZZmmmmmmZZmmmmmmmmmmmmmmmmmmmmmnnmmmmmmmmmmmmmmmmmmmmmmmmm",
"mmmmmmZZmmmmmmZZmmmmwwwwwwwwwwwwmmmmmmmmmmmmmmmmmmmmmmmmmmmmmmmm",
"mmmmmmmmmmmmmmmmmmmwwwwwwwwwwwwwwwmmmmmmmmmmmmmmmmmmmmmmmmmmmmmm",
"mmmmmmmmmmmmmmmmmwwwwwq0000000wwwwwmmmmmmmmmmmmmmmmmmmmmmmmmmmmm",
"mmmmmmmmmmmmmmmmwwwwwmm>>>>>>>99wwwwwmmmmmmmmmmmmmmmmmmmmmmmmmmm",
"mmmmmmmmmmmmmmwwwwmmmmmmmmmmmmmm50wwwwmmmmmmmmmmmmmmmmmmmmmmmmmm",
"mmmmmmmmmmmmmwwwwmmmmmmmmmmmmmmmm35qwwwmmmmmmmmmmmmmmmmmmmmmmmmm",
"mmmmmmmmmmmmmwwmmmmmmmmmmmmmmmmmmm><qwwnmmmmmmmmmmmmmmmmmmmmmmmm",
"mmmmmmmmmmmmwwmmmmmmmmmmmmmmmmmmmmmm1qwwmmmmmmmmmmmmmmmmmmmmmmmm",
"mmmmmmmmmmmwwmmmmmmmmmmblMMMMhjjmmmm>0wwmmmmmmmmmmmmmmmmmmmmmmmm",
"mmmmmmmmmmmwmmmmmmmmmmmVNVmmvmmjjjjmm1wwwmmmmmmmmmmmmmmmmmmmmmmm",
"mmmmmmmmmmwmmmmmmbbmmVVMvc&&=b*mmjjmm>;7wmmmmmmmmmmmmmmmmmmmmmmm",
"mmmmmmmmmmwmmmmmmbbmVVBzcmmmmbbmmmjjmm:wwmmmmmmmmmmmmmmmmmmmmmmm",
"mmmmmmmmmmmmmmmmmmmbVxMmmmmbbmmmmmjjmm>9iwmmmmmmmmmmmmmmmbbmmmmm",
"mmmmmmmmmmmmmmmmmmmVBMmmmmmbbmmmmmmjjmm<jwmmmmmmmmmmmmmmmbbmmmmm",
"bmmmmmmmmmmmmmmmmmmVBmmmmmmmmmmmmmmmjmmkjwdmmmmmmmmbbmmmmbbmmmmb",
"bmmmmmmmmmmmmmmmmmVBmmmmmmmmmmmmmmmmjmmfdyynmmmmmmmbbmmmmbbmmmmb",
"mmmmmmmmmmmmmmmmmmVMmmmmmmmmmmmmmmmmjmmfffymmmmmmmmmmbbmmmmmmbbm",
"mmmmmmmmmmmmmmmmmVBmmmmmmmmmm   moummmmfffymmmmmmmmmmbbmmmmmmbbm",
"mmmmmmmmmmmmmmmmmVNnnmmmmmmm@X  :u>jjjmfffimmmmmmmmmmmmmmmmmmmmm",
"mmmmmmmmmmmmmmmmmVMnnmmmmmy7  mm>n0jwmfffffmmmmmmmmmmmmmmmmmmmmm",
"mmmmmmmmmmmmmmmmmmMmmmmmmm6d  mmnmjp;fffif6mmmmmmmmmmmmmMmmmmmmm",
"mmmmmmmmmmmmmmmmmVMmmmmmmidfm%mmmmp64fmfdf#mmmmmmmmmmmmmMmmmmmmm",
"mmmmmmmmmmmmmmmmmBmmmmn+iiddm3Zmmmp<.tmpff#mmmmmmmmmmmmmNmmmmmmm",
"mmmmmmmmmmmmmmmmmmMmmmm8sjddmZ mmmn%  yffyZmmmmmmmmmmmmmNmmmmmmm",
"mmmmmmmmmmmmmmmmmmmmmmmjj0ffmmmZZmmm  >fj;mmmmmmmmmmmmnnNnnnmmmm",
"mmmmmmmmmmmmmmmmmmmmmmjjjpfgi>mZZmmm  <d;mmmwmmmmmmmmmnvNnnnmmmm",
"mmmmmmmmmmmmmmmmmmmm2jjjjjjjt<+mmmm   #$#mmmmmmmmmmmmmnNNmmmmmmm",
"mmmmmmmmmmmmmmmmmmmmmjjjnnyi<;      .o##mmmwmmmmmmmmmmnMVmmmmmmm",
"mmmmmmmmmmmmmmmmmmmmmjjmmmit6<      +OmmmmwmmmmmmmmmmmNNVmmmmmmm",
"mmmmmmmmmmmmmmmmmmmmmjjmmmmme5mm$   mmmmmwwmmmmmmmmmmmNNVmmmmmmm",
"mmmmmnnmmmmmmmmmmmmmmjjmmmmmee0nmmmmmmmmwmmmmmmmmmmmnnNVVmmmmmmm",
"mmmmmnnmmmmmmmmmmmmmmjjmmmmmnnee66mm55wwwmmmmmmmmmmmnMNVVmmmmmmm",
"mmmmmmmmmmmmmmmmmmmmmjjmmmmmnmmmwwrwwwwmmmmmmmmmmmmmnNNVVmmmmmmm",
"mmmmmmmmmmmmmmmmmmmmmjjmmmmmmmmmmmwmmmmmmmmmmmmmmmmmvNVVVmmmmmmm",
"mmmmmmmmmmmmmmmmmmmmmjjmmmmmmmmmmmmmmmmmmmmmmmmmmmmmNNNVVmmmmmmm",
"mmmmmmmmmmmmmmmmmmmmmjjjmmmmmmmmmmmmmmmmmmmmmmmmmmmBNVVVmmmmmmmm",
"mmmmmmmmmmmmmmmmmmmmmjjjmmmmmmmmmmmmmmmmmmmmmmmmmmvNNVVmmmmmmmmm",
"mmmmmmmmmmmmmmmmmmmmmmjjjmmmmmmmmmmmmmmmmmmmmmmmmNNVVVVmmmmmmmmm",
"mmmmmmmmmmmmmmmmmmmmmmjjjmmmmmmmmmmmmmmmmmmmmmmmNNNVVVmmmmmmmmmm",
"mmmmmmmmmmmmmmmmmmmmmmmjjjmmmmmmmmmmmmmmmmmmmmmNvNVVVmmmmmmmmmmm",
"mmmmmmmmmmmmmmmmmmmmmmmjjjjmmmmmmmmmmmmmmmnnmmNvlNVVmmmbbmmmmmmm",
"mmmmmmmmmmmmmmmmmmmmmmmmjjjjmmmmmmmmmmmmmmnnNNvNNVVmmmmbbmmmmmmm",
"mmmmmmmmmmmmmmmmmmmmmmmmmjjjjmmm-mmmmmmmm6tNNlNVNVVmmmmbbmmmmbbm",
"mmmmmmmmmmmmmmmmmmmmmmmmmmjjjjmm3=-0ttttNccNxVVVVVbmmmmbbmmmmbbm",
"mmmmmCCmmmmmmmmmmmmmmmmmmbbjjjjjmmmmmmmNNvvNVVVVmmmbbmmmmmmbbmmm",
"mmmmmCCmmmmmmmmmmmmmmmmmmbbmjjjjjjBBVVVVVVVVVVlmmmmbbmmmmmmbbmmm",
"CmmmmCCmmmmCCmmmmmmbbmmmmbbmmjjjjjddNBVVVVNNVmmmmmmmmmmmmmmmmmmC",
"CmmmmCCmmmmCCmmmmmmbbmmmmbbmmmmjjjjjgNMNVVsmmmmmmmmmmmmmmmmmmmmC",
"mCCmmmmmmCCmmmmmmmmmmbbmmmmmmbbmmmmmnnnnmmmmmmmmmmmmmmmmmmmmmmmm",
"mCCmmmmmmCCmmmmmmmmmmbbmmmmmmbbmmmmmnnnnmmmmmmmmmmmmmmmmmmmmmmmm",
"mmmmmmmmmmmmmmmmmmmmmmmmmmmmmmmmmmmmmmmmmmmmmmmmmmmmmmmmmmmmmmmm",
"mmmmmmmmmmmmmmmmmmmmmmmmmmmmmmmmmmmmmmmmmmmmmmmmmmmnmmmmmmmmmmmm",
"mmmmmmmmmmmmmmmmmmmmmmmmmmmmmmmmmmmmmmmmmmmmmmmmmmmmmmmmmmmmmmmm",
"mmmmmmmmmmmmmmmmmmmmmmmmmmmmmmmmmmmmmmmmmmmmmmmmmmmmmmmmmmmmmmmm"
};
