/* XPM */
static char *exit18[] = {
/* columns rows colors chars-per-pixel */
"64 64 55 1 ",
"  c #1A1625",
". c #20192F",
"X c #211930",
"o c #231A35",
"O c #261B39",
"+ c #291C3E",
"@ c #2B1D41",
"# c #2D1F46",
"$ c #2E1F48",
"% c #2F1F49",
"& c #30204B",
"* c #332150",
"= c #352253",
"- c #372356",
"; c #382358",
": c #3A245C",
"> c #412561",
", c #4D2466",
"< c #552469",
"1 c #5C246C",
"2 c #5E246D",
"3 c #60246E",
"4 c #672371",
"5 c #692372",
"6 c #6D2374",
"7 c #702375",
"8 c #742377",
"9 c #7A257C",
"0 c #7D267F",
"q c #7E2781",
"w c #802883",
"e c #822985",
"r c #872C8C",
"t c #8B2E92",
"y c #8E2F95",
"u c #903097",
"i c #93329C",
"p c #96339F",
"a c #9835A2",
"s c #9C36A6",
"d c #9E38A9",
"f c #A63CB3",
"g c #A73DB3",
"h c #B248AF",
"j c #B54BAF",
"k c #B84EAE",
"l c #BD53AD",
"z c #AC42B1",
"x c #B147B0",
"c c #40B088",
"v c #6FC79F",
"b c #70C8A0",
"n c #88D8B8",
"m c #A0E0C0",
"M c #F6D4E4",
/* pixels */
"bbbbbbbbbbbbbbbbbbbbbbbbbbbbbbbbbbbbbbbbbbbbbbbbbbbbbbbbbbbbbbbb",
"bbbbbbbbbbbbbbbbbbbbbbbbbbbbbbbbbbbbbbbbbbbbbbbbbbbbbbbbbbbbbbbb",
"bbbbbbbbbbbbbbbbbbbbbbbbbbbbbbbbbbbbbbbbbbbbbbbbbbbbbbbbbbbbbbbb",
"bbbbbbbbbbbbbbbbbbbbbbbbbbbbbbbbbbbbbbbbbbbbbbbbbbbbbbbbbbbbbbbb",
"bbbbbbbbbbbbbbbbbbbbbbbbbbbbbbbbbbbbbbbbbbbbbbbbbbbbbbbbbbbbbbbb",
"bbbbbbbbbbmmbbbbbbbbbbbbbbbbbbbbbbbbbbbbbbbbbbbbbbbbbbbbbbbbbbbb",
"bbbbbbbbbbmmbbbbbbbbbbbbbbbbbbbbbbbbbbbbbbbbbbbbbbbbbbbbbbbbbbbb",
"bbbbmmbbbbmmbbbbmmbbbbbbbbbbbbbbbbbbbbbbbbbbbbbbbbbbbbbbbbbbbbbb",
"bbbbmmbbbbmmbbbbmmbbbbbbbbbbbbbbbbbbbvvbbbbbbbbbbbbbbbbbbbbbbbbb",
"bbbbbbmmbbbbbbmmbbbbbbbbbbbbbbbbbbbbbvvbbbbbbbbbbbbbbbbbbbbbbbbb",
"bbbbbbmmbbbbbbmmbbbbbbbbbbbbbbbbbbbbbbbbbbbbbbbbbbbbbbbbbbbbbbbb",
"bbbbbbbbbbbbbbbbbbbbbbbbbbbbbbbbbbbbbbbbbbbbbbbbbbbbbbbbbbbbbbbb",
"bbbbbbbbbbbbbbbbbbbbbbbbbbbbbbbbbbbbbbbbbbbbbbbbbbbbbbbbbbbbbbbb",
"bbbbbbbbbbbbbbbbbbbbbbbbbbbbbbbbbbbbbbbbbbbbbbbbbbbbbbbbbbbbbbbb",
"bbbbbbbbbbbbbbbbbbbbbbbbbbbbbbbbbbbbbbbbbbbbbbbbbbbbbbbbbbbbbbbb",
"bbbbbbbbbbbbbbbbbbbbbbbbbbbbbbbbbbbbbbbbbbbbbbbbbbbbbbbbbbbbbbbb",
"bbbbbbbbbbbbbbbbbbbbbbbbbbbbbbbbbbbbbbbbbbbbbbbbbbbbbbbbbbbbbbbb",
"bbbbbbbbbbbbbbbbbbbbbbbbbbbbbbbbbbbbbbbbbbbbbbbbbbbbbbbbbbbbbbbb",
"bbbbbbbbbbMbbMbbbbbbbbbcllllllllbbbbbbbbbbbbbbbbbbbbbbbbbbbbbbbb",
"bbbbbbbbbMMbMbbbbbbbbbbllllldhlllbbbbbbbbbbbbbbbbbbbbbbbbbbbbbbb",
"bbbbbbbbbMbMMbbbbccbblllljhhh=aahbbbbbbbbbbbbbbbbbbbbbbbbbbbbbbb",
"bbbbbbbbMMbbbbbbbccbllkkhbbbvcc$@rbbbbbbbbbbbbbbbbbbbbbbbbbbbbbb",
"bbbbbbbbMMbbbbbbbbbcllhbbbbccbbbv=bbbbbb55bbbbbbbbbbbbbbbccbbbbb",
"bbbbbbbMMMMbbbbbbbblljbbbbbccbbbbb;btbbb55bbbbbbbbbbbbbbbccbbbbb",
"cbbbbbbMMMbbbbbbbbblkbbbbbbbbbbbbbb=tbbb555bbbbbbbbccbbbbccbbbbc",
"cbbbbbMMMMbbbbbbbblkbbbbbbbbbbbbbbb;ttbb555bbbbbbbbccbbbbccbbbbc",
"bbbbbbMMMbbbbbbbbbljbbbbbbbbbbbbbbb;8tb-555bbbbbbbbbbccbbbbbbccb",
"bbbbbbbMMbbbbbbbblkbbbbbbbbbboX6bbb11bb-555bbbbbbbbbbccbbbbbbccb",
"bbbbbbbMMbbbbbbbblhvvbbbbbb;>+@7bvtttt>-555bbbbbbbbbbbbbbbbbbbbb",
"bbbbbbbMbbbbbbbbblhvvbbbbbvye10qbttttq5<555bbbbbbbbbbbbbbbbbbbbb",
"bbbbbbbMbbbbbbbbbbhbbbbbttpp&15#bbiyy95555bbbbbbbbbbbbbbzbbbbbbb",
"bbbbbbbbbbbbbbbbbfhbbbbttby1bbbXObpyy9b555bbbbbbbbbbbbbbzbbbbbbb",
"bbbbbbbbbbbbbbbbbfbbbbtttb54bppb9qbmm5b157obbMMbbbbbbbbbhbbbbbbb",
"bbbbbbbbbbbbbbbbbbzbbbtttt523mmb00bm b1q4qmvMMbbbbbbbbbbhbbbbbbb",
"bbbbbbbbbbbbbbbbbbbbbttttt5>wbbmmbbb.-1at>bbMMbbbbbbbbbbxbbbbbbb",
"bbbbbbbbbbbbbbbbbbbbbttttt5qtbbmmbbb*;uptbbbbbbbbbbbbbbhxbbbbbbb",
"bbbbbbbbbbbbbbbbbbbbbttttt65bbbbbbbb,tppavvMMbbbbbbbbbbhjbbbbbbb",
"bbbbbbbbbbbbbbbbbbbbttr9wte5bbbbbb <apuqbbbbbbbbbbbbbbbhzbbbbbbb",
"bbbbbbbbbbbbbbbbbbbbttq;2ybbbb00XXX<331vbbbbbbbbbbbbbbbhjbbbbbbb",
"bbbbbbbbbbbbbbbbbbbbtte->bbbbbbqooOOXbbbbbbbbbbbbbbbbbhhlbbbbbbb",
"bbbbbvvbbbbbbbbbbbbbttq::bbbbbbbbb90bbbbbbbbbbbbbbbbbbhklbbbbbbb",
"bbbbbvvbbbbbbbbbbbbbbtb::bbbbbbbbbbvbbbbbbbbbbbbbbbbbhhllbbbbbbb",
"bbbbbbbbbbbbbbbbbbbbvtb*;bbbbbbbbbbbbbbbbbbbbbbbbbbbbhjllbbbbbbb",
"bbbbbbbbbbbbbbbbbbbbbte@;bbbbbbbbbbbbbbbbbbbbbbbbbbbhhlllbbbbbbb",
"bbbbbbbbbbbbbbbbbbbbbtt$;bbbbbbbbbbbbbbbbbbbbbbbbbbbhklllbbbbbbb",
"bbbbbbbbbbbbbbbbbbbbbttb=:bbbbbbbbbbbbbbbbbbbbbbbbbhhlllbbbbbbbb",
"bbbbbbbbbbbbbbbbbbbbbttb--bbbbbbbbbbbbbbbbbbbbbbbbhhkllbbbbbbbbb",
"bbbbbbbbbbbbbbbbbbbbbbtbb&&bbbbbbbbbbbbbbbbbbbbbbhhklllbbbbbbbbb",
"bbbbbbbbbbbbbbbbbbbbbbbtb&&&bbbbbbbbbbbbbbbbbbbbhhjlllbbbbbbbbbb",
"bbbbbbbbbbbbbbbbbbbbbbbbbb7@&&bbbbbbbbbbbbbbbbbhhjlllbbbbbbbbbbb",
"bbbbbbbbbbbbbbbbbbbbbbbbbbkp#$#bbbbbbbbbbbbbbbhhklllbbbccbbbbbbb",
"bbbbbbbbbbbbbbbbbbbbbbbbbbblj5u*hbbbbbbbbbbhhhjllllbbbbccbbbbbbb",
"bbbbbbbbbbbbbbbbbbbbbbbbbbblllhsuabbbbbbbhhhjklllllbbbbccbbbbccb",
"bbbbbbbbbbbbbbbbbbbbbbbbbbbbllllqhuzhhhhhjjjllllllcbbbbccbbbbccb",
"bbbbbnnbbbbbbbbbbbbbbbbbbccbblllllphkkkkklllllllbbbccbbbbbbccbbb",
"bbbbbnnbbbbbbbbbbbbbbbbbbccbbblllllllllllllllllbbbbccbbbbbbccbbb",
"nbbbbnnbbbbnnbbbbbbccbbbbccbbbbllllllllllllllbbbbbbbbbbbbbbbbbbn",
"nbbbbnnbbbbnnbbbbbbccbbbbccbbbbccvlllllllllbbbbbbbbbbbbbbbbbbbbn",
"bnnbbbbbbnnbbbbbbbbbbccbbbbbbccbvbbbbbbbbbbbbbbbbbbbbbbbbbbbbbbb",
"bnnbbbbbbnnbbbbbbbbbbccbbbbbbccbbbbbbbbbbbbbbbbbbbbbbbbbbbbbbbbb",
"bbbbbbbbbbbbbbbbbbbbbbbbbbbbbbbbbbbbbbbbbbbbbbbbbbbvvbbbbbbbbbbb",
"bbbbbbbbbbbbbbbbbbbbbbbbbbbbbbbbbbbbbbbbbbbbbbbbbbbvvbbbbbbbbbbb",
"bbbbbbbbbbbbbbbbbbbbbbbbbbbbbbbbbbbbbbbbbbbbbbbbbbbbbbbbbbbbbbbb",
"bbbbbbbbbbbbbbbbbbbbbbbbbbbbbbbbbbbbbbbbbbbbbbbbbbbbbbbbbbbbbbbb"
};
