/* XPM */
static char *exit12[] = {
/* columns rows colors chars-per-pixel */
"64 64 65 1 ",
"  c black",
". c #1A1625",
"X c #1C1729",
"o c #1E182C",
"O c #20192F",
"+ c #211931",
"@ c #221A33",
"# c #231A35",
"$ c #241B37",
"% c #261B39",
"& c #271C3B",
"* c #291C3E",
"= c #291D3F",
"- c #2B1D41",
"; c #2B1D42",
": c #2E1F47",
"> c #2E1F48",
", c #2F1F49",
"< c #30204B",
"1 c #32214E",
"2 c #332150",
"3 c #342252",
"4 c #362255",
"5 c #372356",
"6 c #382358",
"7 c #39245B",
"8 c #3B245D",
"9 c #3B255E",
"0 c #3F2560",
"q c #412561",
"w c #492564",
"e c #4B2465",
"r c #552469",
"t c #5E246D",
"y c #60246E",
"u c #672371",
"i c #692372",
"p c #6D2374",
"a c #772378",
"s c #7A257C",
"d c #7C257E",
"f c #7D267F",
"g c #822985",
"h c #872C8C",
"j c #BF55AC",
"k c #C55BAA",
"l c #CB61A9",
"z c #CC62A8",
"x c #CF65A8",
"c c #D167A7",
"v c #D269A6",
"b c #D76DA5",
"n c #40B088",
"m c #6FC79F",
"M c #70C8A0",
"N c #DF86B4",
"B c #E18CB8",
"V c #E393BC",
"C c #E497BE",
"Z c #88D8B8",
"A c #E59AC0",
"S c #E8A3C6",
"D c #E9A9C9",
"F c #EAACCB",
"G c #A0E0C0",
/* pixels */
"MMMMMMMMMMMMMMMMMMMMMMMMMMMMMMMMMMMMMMMMMMMMMMMMMMMMMMMMMMMMMMMM",
"MMMMMMMMMMMMMMMMMMMMMMMMMMMMMMMMMMMMMMMMMMMMMMMMMMMMMMMMMMMMMMMM",
"MMMMMMMMMMMMMMMMMMMMMMMMMMMMMMMMMMMMMMMMMMMMMMMMMMMMMMMMMMMMMMMM",
"MMMMMMMMMMMMMMMMMMMMMMMMMMMMMMMMMMMMMMMMMMMMMMMMMMMMMMMMMMMMMMMM",
"MMMMMMMMMMMMMMMMMMMMMMMMMMMMMMMMMMMMMMMMMMMMMMMMMMMMMMMMMMMMMMMM",
"MMMMMMMMMMGGMMMMMMMMMMMMMMMMMMMMMMMMMMMMMMMMMMMMMMMMMMMMMMMMMMMM",
"MMMMMMMMMMGGMMMMMMMMMMMMMMMMMMMMMMMMMMMMMMMMMMMMMMMMMMMMMMMMMMMM",
"MMMMGGMMMMGGMMMMGGMMMMMMMMMMMMMMMMMMMMMMMMMMMMMMMMMMMMMMMMMMMMMM",
"MMMMGGMMMMGGMMMMGGMMMMMMMMMMMMMMMMMMMmmMMMMMMMMMMMMMMMMMMMMMMMMM",
"MMMMMMGGMMMMMMGGMMMMMMMMMMMMMMMMMMMMMmmMMMMMMMMMMMMMMMMMMMMMMMMM",
"MMMMMMGGMMMMMMGGMMMMDDDDDDDDDDDDMMMMMMMMMMMMMMMMMMMMMMMMMMMMMMMM",
"MMMMMMMMMMMMMMMMMMDDDDDDDDDDDDDDDDMMMMMMMMMMMMMMMMMMMMMMMMMMMMMM",
"MMMMMMMMMMMMMMMMMDDDDSCCBMMMMMMMDDDMMMMMMMMMMMMMMMMMMMMMMMMMMMMM",
"MMMMMMMMMMMMMMMDDDDCVkh .oXoXMMMMDDDMMmmMMMMMMMMMMMMMMMMMMMMMMMM",
"MMMMMMMMMMMMMMDDDDNbd1.oo.XXXXXXXmMDDmmmMMMMMMMMMMMMMMMMMMMMMMMM",
"MMMMMMMMMMMMMSDDCvM-XMMMMOMMMX##XX.MDjmmMMMMMMMMMMMMMMMMMMMMMMMM",
"MMMMMMMMMMMMCDDbxMMMMMMMMMMMMMMX:XooMDgMMMMMMMMMMMMMMMMMMMMMMMMM",
"MMMMMMMMMMMCDABlMMMMMMMMMMMMMMMMmo1&oCMMMMMMMMMMMMMMMMMMMMMMMMMM",
"MMMMMMMMMMBSScMMMMMMMMMnSSSAAAMMmm33&mMMMMMMMMMMMMMMMMMMMMMMMMMM",
"MMMMMMMMMBVDvMMMMMMMMMMSSAAAAAAACMm31$mmMMMMMMMMMMMMMMMMMMMMMMMM",
"MMMMMMMMMBDNzMMMMnnMMSSAAAMMMnAAAMMM3&omMMMMMMMMMMMMMMMMMMMMMMMM",
"MMMMMMMMMBSvMMMMMnnMSSAAnMMMMnnMMAMMM3oXMMMMMMMMMMMMMMMMMMMMMMMM",
"MMMMMMMMBANlMMMMMMMnSAMMMMMnnMMMMMMMM3*oXMMMMMMMMMMMMMMMMnnMMMMM",
"MMMMMMMBVNzMMMMMMMMSAMMMMMMnnMMMMMMMmm1#XMMMMMMMMMMMMMMMMnnMMMMM",
"nMMMMMMBCbMMMMMMMMMAAMMMMMMMMMMMMMMMM93$XmMMMMMMMMMnnMMMMnnMMMMn",
"nMMMMMMBAlMMMMMMMMSAMMMMMMMMMMMMMMMMM93-XXomMMMMMMMnnMMMMnnMMMMn",
"MMMMMMMANMMMMMMMMSSMMMMMMMMMXoXXMMMM9933XXoMMMMMMMMMMnnMMMMMMnnM",
"MMMMMMMSzMMMMMMMMSSMMMMMMoooyXty@oMM9933XXmMMMMMMMMMMnnMMMMMMnnM",
"MMMMMMMxzMMMMMMMMSMmmMMMM#%%w*,pu@oM9533XXXMMMMMMMMMMMMMMMMMMMMM",
"MMMMMMMzMMMMMMMMMSMmmMMM+8q8wwddm=omq953XXXmMMMMMMMMMMMMMMMMMMMM",
"MMMMMMMzMMMMMMMMMMMMMMMM6qw-eaMMMM5qww8-XXMMMMMMMMMMMMMMMMMMMMMM",
"MMMMMMMMMMMMMMMMMMMMMMM8qMw-qMMMM510:w7&X6MMMMMMMMMMMMMMMMMMMMMM",
"MMMMMMMMMMMMMMMMMMMMMMMqMM5>qwqMfs:=Gw3o>wGMMNMMMMMMMMMMMMMMMMMM",
"MMMMMMMMMMMMMMMMMMMMMMMMMmo>q8ooiiooG73:w8GMNCMMMMMMMMMMMMMMMMMM",
"MMMMMMMMMMMMMMMMMMMMMMMMMMX:58MGGMMm-qqqw2mmbVMMMMMMMMMMMMMMMMMM",
"MMMMMMMMMMMMMMMMMMMMMMMMMMo:4qMGGmMo1988wmmxAMMMMMMMMMMMMMMMMMMM",
"MMMMMMMMMMMMMMMMMMMMMMMMMMoo20MmMmM.wwq0wMMvNMMMMMMMMMMMMMMMMMMM",
"MMMMMMMMMMMMMMMMMMMMMMMMMMM.+<ddMmoowwwwMMCVMMMMMMMMMMMMMMMMMMMM",
"MMMMMMMMMMMMMMMMMMMMMMMMMMMMM1tdoXoXwwMMMMSVMMMMMMMMMMMMMMMMMMMM",
"MMMMMMMMMMMMMMMMMMMMMMMMMMMMM151mmMoMMM=MSFMMMMMMMMMMMMMMMMMMMMM",
"MMMMMmmMMMMMMMMMMMMMMMMMMMMMMAM.=op1o.gvFDMMMMMMMMMMMMMMSSMMMMMM",
"MMMMMmmMMMMMMMMMMMMMMMMMMMMMMMDMh   rkBFDmMMMMMMMMMMMMMSSSMMMMMM",
"MMMMMMMMMMMMMMMMMMMMMMMMMMMMMMMMFFFFFDDMMMMMMMMMMMMMMMMSSMMMMMMM",
"MMMMMMMMMMMMMMMMMMMMMMMMMMMMMMMMMMDMMMMMMMMMMMMMMMMMMMASSMMMMMMM",
"MMMMMMMMMMMMMMMMMMMMMMMMMMMMMMMMMMMMMMMMMMMMMMMMMMMMMMSSSMMMMMMM",
"MMMMMMMMMMMMMMMMMMMMMMMMAMMMMMMMMMMMMMMMMMMMMMMMMMMMAASSMMMMMMMM",
"MMMMMMMMMMMMMMMMMMMMMMMMMAMMMMMMMMMMMMMMMMMMMMMMMMMMAASSMMMMMMMM",
"MMMMMMMMMMMMMMMMMMMMMMMMMAAMMMMMMMMMMMMMMMMMMMMMMMMAASSMMMMMMMMM",
"MMMMMMMMMMMMMMMMMMMMMMMMMAAMMMMMMMMMMMMMMMMMMMMMMMAASSMMMMMMMMMM",
"MMMMMMMMMMMMMMMMMMMMMMMMMMAAMMMMMMMMMMMMMMMMMMMMAAASSMMMMMMMMMMM",
"MMMMMMMMMMMMMMMMMMMMMMMMMMAAAAMMMMMMMMMMMMMMMMMAAASSSMMnnMMMMMMM",
"MMMMMMMMMMMMMMMMMMMMMMMMMMMAAAAMMMMMMMMMMMMMMAAAASSSMMMnnMMMMMMM",
"MMMMMMMMMMMMMMMMMMMMMMMMMMMAAAAAAMMMMMMMMMMAAAAASSSMMMMnnMMMMnnM",
"MMMMMMMMMMMMMMMMMMMMMMMMMMMMAAAAAAAAMMMMMAAAAASSSSnMMMMnnMMMMnnM",
"MMMMMZZMMMMMMMMMMMMMMMMMMnnMMMAAAAAAAAAAAAAASSSSMMMnnMMMMMMnnMMM",
"MMMMMZZMMMMMMMMMMMMMMMMMMnnMMMMMAAAAAAAAASSSSSSMMMMnnMMMMMMnnMMM",
"ZMMMMZZMMMMZZMMMMMMnnMMMMnnMMMMnnMMASSSSSSSSSMMMMMMMMMMMMMMMMMMZ",
"ZMMMMZZMMMMZZMMMMMMnnMMMMnnMMMMnnMMMMSSSSSSSMMMMMMMMMMMMMMMMMMMZ",
"MZZMMMMMMZZMMMMMMMMMMnnMMMMMMnnMMMMMMMMMMMMMMMMMMMMMMMMMMMMMMMMM",
"MZZMMMMMMZZMMMMMMMMMMnnMMMMMMnnMMMMMMMMMMMMMMMMMMMMMMMMMMMMMMMMM",
"MMMMMMMMMMMMMMMMMMMMMMMMMMMMMMMMMMMMMMMMMMMMMMMMMMMmmMMMMMMMMMMM",
"MMMMMMMMMMMMMMMMMMMMMMMMMMMMMMMMMMMMMMMMMMMMMMMMMMMmmMMMMMMMMMMM",
"MMMMMMMMMMMMMMMMMMMMMMMMMMMMMMMMMMMMMMMMMMMMMMMMMMMMMMMMMMMMMMMM",
"MMMMMMMMMMMMMMMMMMMMMMMMMMMMMMMMMMMMMMMMMMMMMMMMMMMMMMMMMMMMMMMM"
};
