/* XPM */
static char *exit15[] = {
/* columns rows colors chars-per-pixel */
"64 64 69 1 ",
"  c #1A1625",
". c #1C1729",
"X c #1E182C",
"o c #20192F",
"O c #221A33",
"+ c #231A34",
"@ c #231A35",
"# c #241B37",
"$ c #251B38",
"% c #271C3B",
"& c #2B1D42",
"* c #2D1E45",
"= c #2D1F46",
"- c #2E1F48",
"; c #30204A",
": c #30204B",
"> c #32204D",
", c #32214E",
"< c #332150",
"1 c #342252",
"2 c #372356",
"3 c #382358",
"4 c #412561",
"5 c #492564",
"6 c #502467",
"7 c #5E246D",
"8 c #642470",
"9 c #692372",
"0 c #742377",
"q c #772378",
"w c #7A257C",
"e c #822985",
"r c #872C8C",
"t c #8B2E92",
"y c #8D2F94",
"u c #93329C",
"i c #96339F",
"p c #9835A2",
"a c #9C36A6",
"s c #9E38A9",
"d c #A23AAE",
"f c #A43BB1",
"g c #B248AF",
"h c #B54BAF",
"j c #B84EAE",
"k c #BD53AD",
"l c #BF55AC",
"z c #AC42B1",
"x c #B147B0",
"c c #C056AC",
"v c #C55BAA",
"b c #CB61A9",
"n c #CF65A8",
"m c #D269A6",
"M c #40B088",
"N c #6FC79F",
"B c #70C8A0",
"V c #DF86B4",
"C c #E18CB8",
"Z c #E290BA",
"A c #E497BE",
"S c #88D8B8",
"D c #E59AC0",
"F c #E8A3C6",
"G c #E9A9C9",
"H c #EAACCB",
"J c #EBAFCD",
"K c #ECB2CF",
"L c #A0E0C0",
/* pixels */
"BBBBBBBBBBBBBBBBBBBBBBBBBBBBBBBBBBBBBBBBBBBBBBBBBBBBBBBBBBBBBBBB",
"BBBBBBBBBBBBBBBBBBBBBBBBBBBBBBBBBBBBBBBBBBBBBBBBBBBBBBBBBBBBBBBB",
"BBBBBBBBBBBBBBBBBBBBBBBBBBBBBBBBBBBBBBBBBBBBBBBBBBBBBBBBBBBBBBBB",
"BBBBBBBBBBBBBBBBBBBBBBBBBBBBBBBBBBBBBBBBBBBBBBBBBBBBBBBBBBBBBBBB",
"BBBBBBBBBBBBBBBBBBBBBBBBBBBBBBBBBBBBBBBBBBBBBBBBBBBBBBBBBBBBBBBB",
"BBBBBBBBBBLLBBBBBBBBBBBBBBBBBBBBBBBBBBBBBBBBBBBBBBBBBBBBBBBBBBBB",
"BBBBBBBBBBLLBBBBBBBBBBBBBBBBBBBBBBBBBBBBBBBBBBBBBBBBBBBBBBBBBBBB",
"BBBBLLBBBBLLBBBBLLBBBBBBBBBBBBBBBBBBBBBBBBBBBBBBBBBBBBBBBBBBBBBB",
"BBBBLLBBBBLLBBBBLLBBBBBBBBBBBBBBBBBBBNNBBBBBBBBBBBBBBBBBBBBBBBBB",
"BBBBBBLLBBBBBBLLBBBBBBBBBBBBBBBBBBBBBNNBBBBBBBBBBBBBBBBBBBBBBBBB",
"BBBBBBLLBBBBBBLLBBBBddddddddddddBBBBBBBBBBBBBBBBBBBBBBBBBBBBBBBB",
"BBBBBBBBBBBBBBBBBBBdddddddddddddddBBBBBBBBBBBBBBBBBBBBBBBBBBBBBB",
"BBBBBBBBBBBBBBBBNddddddaaaaaaaddddzBBBBBBBBBBBBBBBBBBBBBBBBBBBBB",
"BBBBBBBBBBBBBBBBddddusp00000qquuddsfkBBBBBBBBBBBBBBBBBBBBBBBBBBB",
"BBBBBBBBBBBBBBddddapBBBBBBBBBBBBuzdfflBBBBBBBBBBBBBBBBBBBBBBBBBB",
"BBBBBBBBBBBBBddddtNBBBBBBBBBBBBBBeksfkvBBBBBBBBBBBBBBBBBBBBBBBBB",
"BBBBBBBBBBBBBddswBBBBBBBBBBBBBBBBBBvzdvBBBBBBBBBBBBBBBBBBBBBBBBB",
"BBBBBBBBBBBBdddeBBBBBBBBBBByrrr8BBBBvjvvBBBBBBBBBBBBBBBBBBBBBBBB",
"BBBBBBBBBBBdddBBBBBBBBBMllllccccBBBBBvvvBBBBBBBBBBBBBBBBBBBBBBBB",
"BBBBBBBBBBdddBBBBBBBBBBlllllBlllllBBBvvvvBBBBBBBBBBBBBBBBBBBBBBB",
"BBBBBBBBBdddBBBBBMMBBllkxBBBBMMllllB @lvvBBBBBBBBBBBBBBBBBBBBBBB",
"BBBBBBBBBddBBBBBBMMBllVgMBBBBMMBBlllB 8vvvBBBBBBBBBBBBBBBBBBBBBB",
"BBBBBBBBddBBBBBBBBBMlaBBBBBMMBBBBBllB >lvvBBBBBBBBBBBBBBBMMBBBBB",
"BBBBBBBBddBBBBBBBBBnkDBBBBBMMBBBBBBllB jvvBBBBBBBBBBBBBBBMMBBBBB",
"MBBBBBBBdBBBBBBBBBBnvBBBBBBBBBBBBBBBlB jvvlBBBBBBBBMMBBBBMMBBBBM",
"MBBBBBBddBBBBBBBBBFvBBBBBBBBBBBBBBBBlB rvvjBBBBBBBBMMBBBBMMBBBBM",
"BBBBBBBdBBBBBBBBBBGGBBBBN>BBBBBBBBBxlBB vvjBBBBBBBBBBMMBBBBBBMMB",
"BBBBBBBBBBBBBBBBBKJBBBB&*BBBB  ** xxBBBXvvjBBBBBBBBBBMMBBBBBBMMB",
"BBBBBBBBBBBBBBBBBKHNNBB>BBBB   -;5sxjBB8vvjBBBBBBBBBBBBBBBBBBBBB",
"BBBBBBBBBBBBBBBBBJHNNB&;BBB> .B;;eyxp&8yvvvBBBBBBBBBBBBBKBBBBBBB",
"BBBBBBBBBBBBBBBBBBHBBB;BBB>> .BBN#7xzB8vvveBBBBBBBBBBBNNGNBBBBBB",
"BBBBBBBBBBBBBBBBBHHBBBBBxx1* . BBN8r4B8vve>BBBBBBBBBBBBNJNBBBBBB",
"BBBBBBBBBBBBBBBBBGBBBBBxggev.5#NBBXX;NX#21>BBBBBBBBBBBBBJNBBBBBB",
"BBBBBBBBBBBBBBBBBNJBB:XxgjvgBL5%BBN##  O>>LBBdBBBBBBBBBBHNBBBBBB",
"BBBBBBBBBBBBBBBBBBJBB>6xhyv8BBBLLBB%  X;>1BBBBBBBBBBBBNNHBBBBBBB",
"BBBBBBBBBBBBBBBBBBBBBBxkcNv9.BB&LBBX  O>>BBBdBBBBBBBBBBJHNBBBBBB",
"BBBBBBBBBBBBBBBBBBBBBBBllNvv >>>BBB   >>>BBddBBBBBBBBBNGDBBBBBBB",
"BBBBBBBBBBBBBBBBBBBBBBlkjghv8$1>      &;BBddBBBBBBBBBBNJGBBBBBBB",
"BBBBBBBBBBBBBBBBBBBBBBlxxxxvc9>>      BBBBdBBBBBBBBBBBBGJNBBBBBB",
"BBBBBBBBBBBBBBBBBBBBBllxxBBBvvBB553 BBBBBddBBBBBBBBBBBJJKBBBBBBB",
"BBBBBNNBBBBBBBBBBBBBBllzgBBBvgzBBNBBBBBadBBBBBBBBBBBBBGJKBBBBBBB",
"BBBBBNNBBBBBBBBBBBBBBcvBzBBBBBddkyBBrrdddBBBBBBBBBBBBGJKKBBBBBBB",
"BBBBBBBBBBBBBBBBBBBBBllNBBBBBBBBddddddBBBBBBBBBBBBBBBJGKKBBBBBBB",
"BBBBBBBBBBBBBBBBBBBBBBlBBBBBBBBBBBdBBBBBBBBBBBBBBBNNJGJKKBBBBBBB",
"BBBBBBBBBBBBBBBBBBBBBBlBBBBBBBBBBBBBBBBBBBBBBBBBBBBBJFKKKBBBBBBB",
"BBBBBBBBBBBBBBBBBBBBBBllBBBBBBBBBBBBBBBBBBBBBBBBBBNJGbKKBBBBBBBB",
"BBBBBBBBBBBBBBBBBBBBBBlllBBBBBBBBBBBBBBBBBBBBBBBNNGJvkKBBBBBBBBB",
"BBBBBBBBBBBBBBBBBBBBBBBlllBBBBBBBBBBBBBBBBBBBBBBBJGvlAKBBBBBBBBB",
"BBBBBBBBBBBBBBBBBBBBBBBllllBBBBBBBBBBBBBBBBBBBBBBKVhmKBBBBBBBBBB",
"BBBBBBBBBBBBBBBBBBBBBBBllllBBBBBBBBBBBBBBBBBBBBBFCakCBBBBBBBBBBB",
"BBBBBBBBBBBBBBBBBBBBBBBBllllBBBBBBBBBBBBBBBBBBJGcjlCBBBMMBBBBBBB",
"BBBBBBBBBBBBBBBBBBBBBBBBBllllBBBBBBBBBBBBBBBBGAvklnBBBBMMBBBBBBB",
"BBBBBBBBBBBBBBBBBBBBBBBBBllllllBBBBBBBBBBBBrAcclllcBBBBMMBBBBMMB",
"BBBBBBBBBBBBBBBBBBBBBBBBBBllllllBBBBBBBBB7yAalllllMBBBBMMBBBBMMB",
"BBBBBSSBBBBBBBBBBBBBBBBBBMMBlllllllllllllxxcllllBBBMMBBBBBBMMBBB",
"BBBBBSSBBBBBBBBBBBBBBBBBBMMBBllllllllllllllllllBBBBMMBBBBBBMMBBB",
"SBBBBSSBBBBSSBBBBBBMMBBBBMMBBBlllllllllllllllBBBBBBBBBBBBBBBBBBS",
"SBBBBSSBBBBSSBBBBBBMMBBBBMMBBBBMllllllllllllBBBBBBBBBBBBBBBBBBBS",
"BSSBBBBBBSSBBBBBBBBBBMMBBBBBBMMBBBBBBBBBBBBBBBBBBBBBBBBBBBBBBBBB",
"BSSBBBBBBSSBBBBBBBBBBMMBBBBBBMMBBBBBBBBBBBBBBBBBBBBBBBBBBBBBBBBB",
"BBBBBBBBBBBBBBBBBBBBBBBBBBBBBBBBBBBBBBBBBBBBBBBBBBBNNBBBBBBBBBBB",
"BBBBBBBBBBBBBBBBBBBBBBBBBBBBBBBBBBBBBBBBBBBBBBBBBBBNNBBBBBBBBBBB",
"BBBBBBBBBBBBBBBBBBBBBBBBBBBBBBBBBBBBBBBBBBBBBBBBBBBBBBBBBBBBBBBB",
"BBBBBBBBBBBBBBBBBBBBBBBBBBBBBBBBBBBBBBBBBBBBBBBBBBBBBBBBBBBBBBBB"
};
