/* XPM */
static char *exit5[] = {
/* columns rows colors chars-per-pixel */
"64 64 71 1 ",
"  c black",
". c #1A1625",
"X c #1C1729",
"o c #1E182C",
"O c #20192F",
"+ c #201930",
"@ c #241B37",
"# c #261B39",
"$ c #271C3B",
"% c #291D3F",
"& c #2B1D41",
"* c #2B1D42",
"= c #2D1E45",
"- c #2E1F48",
"; c #30204B",
": c #32204D",
"> c #342252",
", c #352254",
"< c #372356",
"1 c #39245B",
"2 c #3A245B",
"3 c #3B245D",
"4 c #3B255E",
"5 c #3F2560",
"6 c #412561",
"7 c #492564",
"8 c #4B2465",
"9 c #502467",
"0 c #512468",
"q c #552469",
"w c #5C246C",
"e c #642470",
"r c #692372",
"t c #6F2375",
"y c #742377",
"u c #7A257C",
"i c #7D267F",
"p c #7E2781",
"a c #802883",
"s c #822985",
"d c #872C8C",
"f c #8B2E92",
"g c #8C2E93",
"h c #8D2F94",
"j c #93329C",
"k c #9835A2",
"l c #9C36A6",
"z c #A23AAE",
"x c #B248AF",
"c c #B54BAF",
"v c #B84EAE",
"b c #BD53AD",
"n c #AC42B1",
"m c #B147B0",
"M c #C056AC",
"N c #C55BAA",
"B c #CB61A9",
"V c #CC62A8",
"C c #CF65A8",
"Z c #D167A7",
"A c #D269A6",
"S c #D76DA5",
"D c #40B088",
"F c #6FC79F",
"G c #70C8A0",
"H c #DF86B4",
"J c #E18CB8",
"K c #E290BA",
"L c #E393BC",
"P c #88D8B8",
"I c #A0E0C0",
/* pixels */
"GGGGGGGGGGGGGGGGGGGGGGGGGGGGGGGGGGGGGGGGGGGGGGGGGGGGGGGGGGGGGGGG",
"GGGGGGGGGGGGGGGGGGGGGGGGGGGGGGGGGGGGGGGGGGGGGGGGGGGGGGGGGGGGGGGG",
"GGGGGGGGGGGGGGGGGGGGGGGGGGGGGGGGGGGGGGGGGGGGGGGGGGGGGGGGGGGGGGGG",
"GGGGGGGGGGGGGGGGGGGGGGGGGGGGGGGGGGGGGGGGGGGGGGGGGGGGGGGGGGGGGGGG",
"GGGGGGGGGGGGGGGGGGGGGGGGGGGGGGGGGGGGGGGGGGGGGGGGGGGGGGGGGGGGGGGG",
"GGGGGGGGGGIIGGGGGGGGGGGGGGGGGGGGGGGGGGGGGGGGGGGGGGGGGGGGGGGGGGGG",
"GGGGGGGGGGIIGGGGGGGGGGGGGGGGGGGGGGGGGGGGGGGGGGGGGGGGGGGGGGGGGGGG",
"GGGGIIGGGGIIGGGGIIGGGGGGGGGGGGGGGGGGGGGGGGGGGGGGGGGGGGGGGGGGGGGG",
"GGGGIIGGGGIIGGGGIIGGGGGGGGGGGGGGGGGGGGFGGGGGGGGGGGGGGGGGGGGGGGGG",
"GGGGGGIIGGGGGGIIGGGGGGGGAAGGGGGGGGGGGGFGGGGGGGGGGGGGGGGGGGGGGGGG",
"GGGGGGIIGGGGGGIIGGGAAAAAAAAAAAANGGGGGGGGGGGGGGGGGGGGGGGGGGGGGGGG",
"GGGGGGGGGGGGGGGGGAAAAAAAAAAAAAAAAVlGGGGGGGGGGGGGGGGGGGGGGGGGGGGG",
"GGGGGGGGGGGGGGGGAAAAAAAZZZZZZVAAAABzlGGGGGGGGGGGGGGGGGGGGGGGGGGG",
"GGGGGGGGGGGGGGAAAAAACCCBBBBBbdVvAAAAxGGGGGGGGGGGGGGGGGGGGGGGGGGG",
"GGGGGGGGGGGGGGAAAAZCBBBGGGGGGGbhNVAACzGGGGGGGGGGGGGGGGGGGGGGGGGG",
"GGGGGGGGGGGGGAAAACVBBGGGGGGGGGGNsBhZAxlGGGGGGGGGGGGGGGGGGGGGGGGG",
"GGGGGGGGGGGGAAAZBBBGGGGGGGGGGGGGG64qVZllGGGGGGGGGGGGGGGGGGGGGGGG",
"GGGGGGGGGGGAAAZVBBGGGGGGGGGGGGGGGGG>4VlllGGGGGGGGGGGGGGGGGGGGGGG",
"GGGGGGGGGGAAAAVBGGGGGGGDDKKJKJKLGGGGGGllllGGGGGGGGGGGGGGGGGGGGGG",
"GGGGGGGGGAAAACBGGGGGGGGHKKJJbHHLJGGGGGFlllGGGGGGGGGGGGGGGGGGGGGG",
"GGGGGGGGGAAACBGGGDDGGGKJHm**#%%HJJGGGGGllllGGGGGGGGGGGGGGGGGGGGG",
"GGGGGGGGAAAZBGGGGDDGVHHbDGGGGDD  JJGGGGklllGGGGGGGGGGGGGGGGGGGGG",
"GGGGGGGGAAZVGGGGGGGDACGGGGGDDGGG.aNLGGGelllGGGGGGGGGGGGGGDDGGGGG",
"GGGGGGGAAAVBGGGGGGGZcGGGGGGDDGGGG%&eGGG>lllGGGGGGGGGGGGGGDDGGGGG",
"DGGGGGGAAZBGGGGGGGGHnGGGGGGGGGGGGGo.6GG0lllGGGGGGGGDDGGGGDDGGGGD",
"DGGGGGGAAVBGGGGGGGSMGGGGGGGGGGGGGG=X,GGGlllGGGGGGGGDDGGGGDDGGGGD",
"GGGGGGGAZVGGGGGGGGCbGGGGGGGGGG,,GG-+$GGGlllGGGGGGGGGGDDGGGGGGDDG",
"GGGGGGGAZBGGGGGGGCVGGGGGGGGG46,>>G-=$GGGlllGGGGGGGGGGDDGGGGGGDDG",
"GGGGGGGABGGGGGGGGCnFFGGGGGG41ay;4G>O.GGGlllGGGGGGGGGGGGGGGGGGGGG",
"GGGGGGGABGGGGGGGGMnFFGGG.=446t*.4@>O.ulllllGGCGGGGGGGGGGGGGGGGGG",
"GGGGGGGCBGGGGGGGGGGGGGGG..11a:*GG;@XohlllllGGCGGGGGGGGGGGGGGGGGG",
"GGGGGGGVBGGGGGGGGnGGGGG...jjkw,GG#1@#hlllllGGGGGGGGGGGGGGGGGGGGG",
"GGGGGGGVVGGGGGGGGnGGGGG..:llgaIGX>4#ellllllGVAGGGGGGGGGGGGGGGGGG",
"GGGGGGGBGGGGGGGGGGGGGG...hlgisI7#4GIIlllllIGCAGGGGGGGGGGGGGGGGGG",
"GGGGGGGBGGGGGGGGGGGGGG..OglwXGGIIGGGGkGIIGGBAAGGGGGGGGGGGGGGGGGG",
"GGGGGGGVGGGGGGGGGGGGGG..O6lw444IIGGGhGGIIGGZAGGGGGGGGGGGGGGGGGGG",
"GGGGGGGVGGGGGGGGGGGGGG..@-lk444GGGFddGGGGGBZAGGGGGGGGGGGnGGGGGGG",
"GGGGGGGGGGGGGGGGGGGGG6..=-gl1144GFftqGGGGBCAGGGGGGGGGGGGnGGGGGGG",
"GGGGGGGGGGGGGGGGGGGGG4..--wld>14GhhhGGGGBCAAGGGGGGGGGGGnnGGGGGGG",
"GGGGGGGGGGGGGGGGGGGGG6..--wlk91GGFGGGGGBVAAGGGGGGGGGGGGnBGGGGGGG",
"GGGGGFFGGGGGGGGGGGGGG4+.=-;GlMNeuGGGGGVZAAAGGGGGGGGGGGGmCGGGGGGG",
"GGGGGFFGGGGGGGGGGGGGG61O+-GGGlAAkCCCCCAAAAGGGGGGGGGGGGnNCGGGGGGG",
"GGGGGGGGGGGGGGGGGGGGG46%X*GGGGccAAAAAAAAGGGGGGGGGGGGGGmVCGGGGGGG",
"GGGGGGGGGGGGGGGGGGGGGG6$.%GGGGGGGGAGGGGGGGGGGGGGGGGGGnvCCGGGGGGG",
"GGGGGGGGGGGGGGGGGGGGGG6&..-GGGGGGGGGGGGGGGGGGGGGGGGGGcCCGGGGGGGG",
"GGGGGGGGGGGGGGGGGGGGGGGkp.%GGGGGGGGGGGGGGGGGGGGGGGGGcHCGGGGGGGGG",
"GGGGGGGGGGGGGGGGGGGGGGGKHqX*GGGGGGGGGGGGGGGGGGGGGGGGMHCGGGGGGGGG",
"GGGGGGGGGGGGGGGGGGGGGGGKKH#o.GGGGGGGGGGGGGGGGGGGGGGnHZCGGGGGGGGG",
"GGGGGGGGGGGGGGGGGGGGGGGGKKS..GGGGGGGGGGGGGGGGGGGGGmJCCGGGGGGGGGG",
"GGGGGGGGGGGGGGGGGGGGGGGGKKK0..GGGGGGGGGGGGGGGGGGnMCZCGGGGGGGGGGG",
"GGGGGGGGGGGGGGGGGGGGGGGGKKKKG...GGGGGGGGGGGGGGGnvJSCGGGDDGGGGGGG",
"GGGGGGGGGGGGGGGGGGGGGGGGGKKKKGG...GGGGGGGGGGGnmHJSCGGGGDDGGGGGGG",
"GGGGGGGGGGGGGGGGGGGGGGGGGGKKKKKG7#.....GGGGGmvKKHCCGGGGDDGGGGDDG",
"GGGGGGGGGGGGGGGGGGGGGGGGGGGKKKKKBHjtttrtGGvBAKJHCDDGGGGDDGGGGDDG",
"GGGGGPPGGGGGGGGGGGGGGGGGGDDGKKKKKKHHHHHHHHHKKKHCGGGDDGGGGGGDDGGG",
"GGGGGPPGGGGGGGGGGGGGGGGGGDDGGKKKKKKKKKKKKKKKHAFGGGGDDGGGGGGDDGGG",
"PGGGGPPGGGGPPGGGGGGDDGGGGDDGGGGKKKKKKKKKKKKKGGGGGGGGGGGGGGGGGGGP",
"PGGGGPPGGGGPPGGGGGGDDGGGGDDGGGGDDFKKKKKKJJGGGGGGGGGGGGGGGGGGGGGP",
"GPPGGGGGGPPGGGGGGGGGGDDGGGGGGDDGGGGGGGGGGGGGGGGGGGGGGGGGGGGGGGGG",
"GPPGGGGGGPPGGGGGGGGGGDDGGGGGGDDGGGGGGGGGGGGGGGGGGGGGGGGGGGGGGGGG",
"GGGGGGGGGGGGGGGGGGGGGGGGGGGGGGGGGGGGGGGGGGGGGGGGGGGFFGGGGGGGGGGG",
"GGGGGGGGGGGGGGGGGGGGGGGGGGGGGGGGGGGGGGGGGGGGGGGGGGGFFGGGGGGGGGGG",
"GGGGGGGGGGGGGGGGGGGGGGGGGGGGGGGGGGGGGGGGGGGGGGGGGGGGGGGGGGGGGGGG",
"GGGGGGGGGGGGGGGGGGGGGGGGGGGGGGGGGGGGGGGGGGGGGGGGGGGGGGGGGGGGGGGG"
};
