/* XPM */
static char *exit7[] = {
/* columns rows colors chars-per-pixel */
"64 64 60 1 ",
"  c #1A1625",
". c #1C1729",
"X c #211930",
"o c #221A33",
"O c #261B39",
"+ c #271C3B",
"@ c #281C3D",
"# c #2B1D41",
"$ c #2D1E45",
"% c #2E1F48",
"& c #30204B",
"* c #32204D",
"= c #32214E",
"- c #332150",
"; c #342252",
": c #352253",
"> c #362255",
", c #382358",
"< c #3A245B",
"1 c #412561",
"2 c #492564",
"3 c #4B2465",
"4 c #502467",
"5 c #552469",
"6 c #5C246C",
"7 c #60246E",
"8 c #642470",
"9 c #692372",
"0 c #6D2374",
"q c #702375",
"w c #772378",
"e c #7A257C",
"r c #7D267F",
"t c #7E2781",
"y c #802883",
"u c #822985",
"i c #872C8C",
"p c #8D2F94",
"a c #8E2F95",
"s c #903097",
"d c #93329C",
"f c #96339F",
"g c #9835A2",
"h c #9C36A6",
"j c #9E38A9",
"k c #A23AAE",
"l c #A43BB1",
"z c #A73DB3",
"x c #B248AF",
"c c #B54BAF",
"v c #B84EAE",
"b c #BD53AD",
"n c #AC42B1",
"m c #C056AC",
"M c #C55BAA",
"N c #40B088",
"B c #6FC79F",
"V c #70C8A0",
"C c #88D8B8",
"Z c #A0E0C0",
/* pixels */
"VVVVVVVVVVVVVVVVVVVVVVVVVVVVVVVVVVVVVVVVVVVVVVVVVVVVVVVVVVVVVVVV",
"VVVVVVVVVVVVVVVVVVVVVVVVVVVVVVVVVVVVVVVVVVVVVVVVVVVVVVVVVVVVVVVV",
"VVVVVVVVVVVVVVVVVVVVVVVVVVVVVVVVVVVVVVVVVVVVVVVVVVVVVVVVVVVVVVVV",
"VVVVVVVVVVVVVVVVVVVVVVVVVVVVVVVVVVVVVVVVVVVVVVVVVVVVVVVVVVVVVVVV",
"VVVVVVVVVVVVVVVVVVVVVVVVVVVVVVVVVVVVVVVVVVVVVVVVVVVVVVVVVVVVVVVV",
"VVVVVVVVVVZZVVVVVVVVVVVVVVVVVVVVVVVVVVVVVVVVVVVVVVVVVVVVVVVVVVVV",
"VVVVVVVVVVZZVVVVVVVVVVVVVVVVVVVVVVVVVVVVVVVVVVVVVVVVVVVVVVVVVVVV",
"VVVVZZVVVVZZVVVVZZVVVVVVVVVVVVVVVVVVVVVVVVVVVVVVVVVVVVVVVVVVVVVV",
"VVVVZZVVVVZZVVVVZZVVVVVVVVVVVVVVVVVVVBBVVVVVVVVVVVVVVVVVVVVVVVVV",
"VVVVVVZZVVVVVVZZVVVVVVVVzzzzzVVBVVVVVBBVVVVVVVVVVVVVVVVVVVVVVVVV",
"VVVVVVZZVVVVVVZZVVVzzzzzzzzzzzzzzzVVVVVVVVVVVVVVVVVVVVVVVVVVVVVV",
"VVVVVVVVVVVVVVVVVzzzzzzzzzzzzzzzzzzVVVVVVVVVVVVVVVVVVVVVVVVVVVVV",
"VVVVVVVVVVVVVVVVzzzzzzzlllllzzzzzzzzVVVVVVVVVVVVVVVVVVVVVVVVVVVV",
"VVVVVVVVVVVVVVzzzzzzkkkhhhhhjklzzzzzzVVVVVVVVVVVVVVVVVVVVVVVVVVV",
"VVVVVVVVVVVVVVzzzzljhhhhhVVVhhhjkzzzzzVVVVVVVVVVVVVVVVVVVVVVVVVV",
"VVVVVVVVVVVVVzzzzjjhhVVVVVVVVVhhhjzzzzzVVVVVVVVVVVVVVVVVVVVVVVVV",
"VVVVVVVVVVVVzzzlhhhVVVVVVVVVVVVVhhjlzzzzVVVVVVVVVVVVVVVVVVVVVVVV",
"VVVVVVVVVVVzzzjjhhVVVVVVVVVVVVVVVVhhlzzzVVVVVVVVVVVVVVVVVVVVVVVV",
"VVVVVVVVVVzzzhghVVVVVVVNNkkkkkkkVVVhhlzzzVVVVVVVVVVVVVVVVVVVVVVV",
"VVVVVVVVBzzzkghVVVVVVVVkkkkkyhkknVVVhjzzzVVVVVVVVVVVVVVVVVVVVVVV",
"VVVVVVVVVzzlfhVVVNNVVVkkkiVVVNNnkbVVVhjzzVVVVVVVVVVVVVVVVVVVVVVV",
"VVVVVVVVVzlghVVVVNNVVkgkNVVVVNNVVcMVVVhlzzVVVVVVVVVVVVVVVVVVVVVV",
"VVVVVVVVzzkhBVVVVVVNkkBVVVVNNVVVVeMMVVhjzzVVVVVVVVVVVVVVVNNVVVVV",
"VVVVVVVzzlf0VVVVVVVkkVVVVVVNNVVVV rMMVVpzzVVVVVVVVVVVVVVVNNVVVVV",
"NVVVVVVzzfsVVVVVVVVkkVVVVVVVVVVVVV6MmVV>jlVVVVVVVVVNNVVVVNNVVVVN",
"NVVVVVVzlduVVVVVVVkkVVVVVVVVVVVVVV xbVB:3kzVVVVVVVVNNVVVVNNVVVVN",
"VVVVVVVzkpVVVVVVVVkVVVVVVVVVVVVVVVVvMVB=$gzVVVVVVVVVVNNVVVVVVNNV",
"VVVVVVVzs7VVVVVVVVkVVVVVVVB:X. 6VVVeMVB:%g5VVVVVVVVVVNNVVVVVVNNV",
"VVVVVVVkpVVVVVVVVkVBBVVVVVXqe= 66=VsgVV=%pVtVVVVVVVVVVVVVVVVVVVV",
"VVVVVVVppVVVVVVVVVVBBVVV$O7t5  5==@ &VB:8@VtVhVVVVVVVVVVVVVVVVVV",
"VVVVVVVdsVVVVVVVVVVVVVVV==ut@ BV=#X@&wV=fOtVVhVVVVVVVVVVVVVVVVVV",
"VVVVVVVspVVVVVVVVVVVVVV==$:<:rrV#X $3tB:f8qVVVVVVVVVVVVVVVVVVVVV",
"VVVVVVVpsVVVVVVVVVVVVVV==<66>Z:-   #ttV#=$=VfzVVVVVVVVVVVVVVVVVV",
"VVVVVVVpVVVVVVVVVVVVVV==O035BZZ-   qZB$361=0fzVVVVVVVVVVVVVVVVVV",
"VVVVVVVsVVVVVVVVVVVVVV=$ >#=VVVZZBVVV$,rt0VpkzVVVVVVVVVVVVVVVVVV",
"VVVVVVVpVVVVVVVVVVVVV=0mb6p>VVVZZVVVV%3ttrVfzVVVVVVVVVVVVVVVVVVV",
"VVVVVVVpVVVVVVVVVVVVV6MMM8zl4VV00VVVVtrtr6hlzVVVVVVVVVVVVVVVVVVV",
"VVVVVVVVVVVVVVVVVVVVVMMMx8VzhV00VVVVtttt5pkzVVVVVVVVVVVVVVVVVVVV",
"VVVVVVVVVVVVVVVVVVVVVbMM8iVzkj90VVVVtttBihzzVVVVVVVVVVVVVVVVVVVV",
"VVVVVVVVVVVVVVVVVVVVVvMMOVVzzzhVVVVVVVVhjzzVVVVVVVVVVVVVVVVVVVVV",
"VVVVVVVVVVVVVVVVVVVVVvMM VVVzzzjjhVVVhjlzzzVVVVVVVVVVVVVkVVVVVVV",
"VVVVVVBVVVVVVVVVVVVVVvMM9 VVVzzzljjjjjzzzzVVVVVVVVVVVVVkkVVVVVVV",
"VVVVVVVVVVVVVVVVVVVVVbMMv VVVVzzzzzzzzzzVVVVVVVVVVVVVVVkVVVVVVVV",
"VVVVVVVVVVVVVVVVVVVVVVMMv VVVVVVVzzzzVVVVVVVVVVVVVVVVVkkVVVVVVVV",
"VVVVVVVVVVVVVVVVVVVVVVMMvO VVVVVVVVVVVVVVVVVVVVVVVVVVVkkVVVVVVVV",
"VVVVVVVVVVVVVVVVVVVVVVMMM8 VVVVVVVVVVVVVVVVVVVVVVVVVVkkVVVVVVVVV",
"VVVVVVVVVVVVVVVVVVVVVVMMMx  VVVVVVVVVVVVVVVVVVVVVVVVkkkVVVVVVVVV",
"VVVVVVVVVVVVVVVVVVVVVVVMMMvVVVVVVVVVVVVVVVVVVVVVVVVkkkVVVVVVVVVV",
"VVVVVVVVVVVVVVVVVVVVVVVMMMMVVVVVVVVVVVVVVVVVVVVVVVVkkVVVVVVVVVVV",
"VVVVVVVVVVVVVVVVVVVVVVVVMMbMVVVVVVVVVVVVVVVVVVVVVVkkVVVVVVVVVVVV",
"VVVVVVVVVVVVVVVVVVVVVVVVMMlxMVVVVVVVVVVVVVVVVVVVgkkkVVVNNVVVVVVV",
"VVVVVVVVVVVVVVVVVVVVVVVVVMvknbeVVVVVVVVVVVVVVVijkkkVVVVNNVVVVVVV",
"VVVVVVVVVVVVVVVVVVVVVVVVVVbkkknsVVVVVVVVVVVVVhkkkkNVVVVNNVVVVNNV",
"VVVVVVVVVVVVVVVVVVVVVVVVVVVckkkkiiwVVVVVVVfikkkkkNNVVVVNNVVVVNNV",
"VVVVVCCVVVVVVVVVVVVVVVVVVNNVxnkkkkfssffsfjkkkkkkVVVNNVVVVVVNNVVV",
"VVVVVCCVVVVVVVVVVVVVVVVVVNNVVVkkkkkkkkkkkkkkkVVVVVVNNVVVVVVNNVVV",
"CVVVVCCVVVVCCVVVVVVNNVVVVNNVVVVNkkkkkkkkkkkkVVVVVVVVVVVVVVVVVVVC",
"CVVVVCCVVVVCCVVVVVVNNVVVVNNVVVVNNVkkkkkkkVVVVVVVVVVVVVVVVVVVVVVC",
"VCCVVVVVVCCVVVVVVVVVVNNVVVVVVNNVVVVVVVVVVVVVVVVVVVVVVVVVVVVVVVVV",
"VCCVVVVVVCCVVVVVVVVVVNNVVVVVVNNVVVVVVVVVVVVVVVVVVVVVVVVVVVVVVVVV",
"VVVVVVVVVVVVVVVVVVVVVVVVVVVVVVVVVVVVVVVVVVVVVVVVVVVBBVVVVVVVVVVV",
"VVVVVVVVVVVVVVVVVVVVVVVVVVVVVVVVVVVVVVVVVVVVVVVVVVVBBVVVVVVVVVVV",
"VVVVVVVVVVVVVVVVVVVVVVVVVVVVVVVVVVVVVVVVVVVVVVVVVVVVVVVVVVVVVVVV",
"VVVVVVVVVVVVVVVVVVVVVVVVVVVVVVVVVVVVVVVVVVVVVVVVVVVVVVVVVVVVVVVV"
};
