/* XPM */
static char *exit13[] = {
/* columns rows colors chars-per-pixel */
"64 64 71 1 ",
"  c black",
". c #1A1625",
"X c #1C1729",
"o c #1E182C",
"O c #20192F",
"+ c #201930",
"@ c #211931",
"# c #231A35",
"$ c #241B37",
"% c #261B39",
"& c #261B3A",
"* c #271C3B",
"= c #281C3D",
"- c #291C3E",
"; c #2B1D41",
": c #2B1D42",
"> c #2D1F46",
", c #2E1F47",
"< c #2E1F48",
"1 c #2F1F49",
"2 c #30204B",
"3 c #32214E",
"4 c #332150",
"5 c #342252",
"6 c #352253",
"7 c #362255",
"8 c #372356",
"9 c #382358",
"0 c #3B245D",
"q c #3B255E",
"w c #3F2560",
"e c #412561",
"r c #492564",
"t c #4D2466",
"y c #5C246C",
"u c #5E246D",
"i c #60246E",
"p c #642470",
"a c #692372",
"s c #6D2374",
"d c #702375",
"f c #7A257C",
"g c #7B257D",
"h c #7C257E",
"j c #8B2E92",
"k c #8D2F94",
"l c #9E38A9",
"z c #A73DB3",
"x c #B248AF",
"c c #B54BAF",
"v c #B84EAE",
"b c #BD53AD",
"n c #AC42B1",
"m c #B147B0",
"M c #C056AC",
"N c #C55BAA",
"B c #CB61A9",
"V c #CF65A8",
"C c #D167A7",
"Z c #D269A6",
"A c #D76DA5",
"S c #40B088",
"D c #6FC79F",
"F c #70C8A0",
"G c #DF86B4",
"H c #E18CB8",
"J c #E290BA",
"K c #88D8B8",
"L c #E59AC0",
"P c #E8A3C6",
"I c #A0E0C0",
/* pixels */
"FFFFFFFFFFFFFFFFFFFFFFFFFFFFFFFFFFFFFFFFFFFFFFFFFFFFFFFFFFFFFFFF",
"FFFFFFFFFFFFFFFFFFFFFFFFFFFFFFFFFFFFFFFFFFFFFFFFFFFFFFFFFFFFFFFF",
"FFFFFFFFFFFFFFFFFFFFFFFFFFFFFFFFFFFFFFFFFFFFFFFFFFFFFFFFFFFFFFFF",
"FFFFFFFFFFFFFFFFFFFFFFFFFFFFFFFFFFFFFFFFFFFFFFFFFFFFFFFFFFFFFFFF",
"FFFFFFFFFFFFFFFFFFFFFFFFFFFFFFFFFFFFFFFFFFFFFFFFFFFFFFFFFFFFFFFF",
"FFFFFFFFFFIIFFFFFFFFFFFFFFFFFFFFFFFFFFFFFFFFFFFFFFFFFFFFFFFFFFFF",
"FFFFFFFFFFIIFFFFFFFFFFFFFFFFFFFFFFFFFFFFFFFFFFFFFFFFFFFFFFFFFFFF",
"FFFFIIFFFFIIFFFFIIFFFFFFFFFFFFFFFFFFFFFFFFFFFFFFFFFFFFFFFFFFFFFF",
"FFFFIIFFFFIIFFFFIIFFFFFFFFFFFFFFFFFFFDDFFFFFFFFFFFFFFFFFFFFFFFFF",
"FFFFFFIIFFFFFFIIFFFFFFFFFFFFFFFFFFFFFDDFFFFFFFFFFFFFFFFFFFFFFFFF",
"FFFFFFIIFFFFFFIIFFFFJJJJJJJJJJJJFFFFFFFFFFFFFFFFFFFFFFFFFFFFFFFF",
"FFFFFFFFFFFFFFFFFFCGJJJJJJJJJJJJJJJFFFFFFFFFFFFFFFFFFFFFFFFFFFFF",
"FFFFFFFFFFFFFFFFFGJJJHGGGGGGGGJJJJJFFFFFFFFFFFFFFFFFFFFFFFFFFFFF",
"FFFFFFFFFFFFFFFVAHJGGbzzjjjjjlHGJJJJJFFFFFFFFFFFFFFFFFFFFFFFFFFF",
"FFFFFFFFFFFFFFVGJJBcFFFFF.....3dFJJJJJFFFFFFFFFFFFFFFFFFFFFFFFFF",
"FFFFFFFFFFFFFVAHGvnFFFFFFOFFFF...FFJJJJFFFFFFFFFFFFFFFFFFFFFFFFF",
"FFFFFFFFFFFFVZHMmFFFFFFFFFFFFFFF..@FJJJFFFFFFFFFFFFFFFFFFFFFFFFF",
"FFFFFFFFFFFVCGVnFFFFFFFFFFFFFFFFFF..FJJJFFFFFFFFFFFFFFFFFFFFFFFF",
"FFFFFFFFFFVVGxFFFFFFFFFSPPPLLLFFFF.. HJJFFFFFFFFFFFFFFFFFFFFFFFF",
"FFFFFFFFFVVGcFFFFFFFFFFPPLLLLLLLJFF..rHHJFFFFFFFFFFFFFFFFFFFFFFF",
"FFFFFFFFFVAMnFFFFSSFFPPLLLFFFSLLJFFF:.sHJFFFFFFFFFFFFFFFFFFFFFFF",
"FFFFFFFFFVHvFFFFFSSFPPLLSFFFFSSFFPFFF$.MZFFFFFFFFFFFFFFFFFFFFFFF",
"FFFFFFFFVVMnFFFFFFFSPLFFFFFSSFFFFFFFF2..:0FFFFFFFFFFFFFFFSSFFFFF",
"FFFFFFFVVvnFFFFFFFFPSFFFFFFSSFFFFFFFFF=.=0FFFFFFFFFFFFFFFSSFFFFF",
"SFFFFFFVVcFFFFFFFFFFFFFFFFFFFFFFFFFFFF;.*0eFFFFFFFFSSFFFFSSFFFFS",
"SFFFFFFVNnFFFFFFFFFFFFFFFFFFFFFFFFFFFF,O#0eFFFFFFFFSSFFFFSSFFFFS",
"FFFFFFFVvFFFFFFFFFFFFFFFFFFF.X==8FFFD,2*.=wFFFFFFFFFFSSFFFFFFSSF",
"FFFFFFFVnFFFFFFFFFFFFFFFFooop93u*O5FF,2,..wFFFFFFFFFFSSFFFFFFSSF",
"FFFFFFFnnFFFFFFFFFFDDFFFF#%O008su*=FF,2,..wFFFFFFFFFFFFFFFFFFFFF",
"FFFFFFFnFFFFFFFFFFFDDFFF@0w$08tg09:2F3,,..wFFFFFFFFFFFFFFFFFFFFF",
"FFFFFFFnFFFFFFFFFFFFFFFF9e=o:4FFF039072*..FFFFFFFFFFFFFFFFFFFFFF",
"FFFFFFFFFFFFFFFFFFFFFFF0eF.=$FFFFe30:D2X..FFFFFFFFFFFFFFFFFFFFFF",
"FFFFFFFFFFFFFFFFFFFFFFFqFF.;298Fhg,=7F2+..IFFNFFFFFFFFFFFFFFFFFF",
"FFFFFFFFFFFFFFFFFFFFFFFFFF.=,7=,aao=5o=X..IFcCFDFFFFFFFFFFFFFFFF",
"FFFFFFFFFFFFFFFFFFFFFFFFFF2:,DFI7727*.....DDcCDDFFFFFFFFFFFFFFFF",
"FFFFFFFFFFFFFFFFFFFFFFFFFF8X,0FII57=*7XX.FDnHDDDFFFFFFFFFFFFFFFF",
"FFFFFFFFFFFFFFFFFFFFFFFFFFe*OqFFF3,57qXX.FFcZFFFFFFFFFFFFFFFFFFF",
"FFFFFFFFFFFFFFFFFFFFFFFFFFF:.=gg.*,qqq*.DDABFFFFFFFFFFFFFFFFFFFF",
"FFFFFFFFFFFFFFFFFFFFFFFFFFFZZiyh.50wqwFFDzHVFFFFFFFFFFFFFFFFFFFF",
"FFFFFFFFFFFFFFFFFFFFFFFFFFFFHD;s.5wqFFFFvHCFFFFFFFFFFFFFFFFFFFFF",
"FFFFFFFFFFFFFFFFFFFFFFFFFFFFHHHa..s3tFFbJAFFFFFFFFFFFFFFFFFFFFFF",
"FFFFFFFFFFFFFFFFFFFFFFFFFFFFFFJJZZkkBBZJJFFFFFFFFFFFFFFFFFFFFFFF",
"FFFFFFFFFFFFFFFFFFFFFFFFFFFFFFFJJJJJJJJFFFFFFFFFFFFFFFFFFFFFFFFF",
"FFFFFFFFFFFFFFFFFFFFFFFFFFFFFFFFFFJFFFFFFFFFFFFFFFFFFFFFFFFFFFFF",
"FFFFFFFFFFFFFFFFFFFFFFFFFFFFFFFFFFFFFFFFFFFFFFFFFFFFFFFFFFFFFFFF",
"FFFFFFFFFFFFFFFFFFFFFFFFLFFFFFFFFFFFFFFFFFFFFFFFFFFFFFFFFFFFFFFF",
"FFFFFFFFFFFFFFFFFFFFFFFFFLFFFFFFFFFFFFFFFFFFFFFFFFFFFFPPFFFFFFFF",
"FFFFFFFFFFFFFFFFFFFFFFFFFLLFFFFFFFFFFFFFFFFFFFFFFFFFFPPFFFFFFFFF",
"FFFFFFFFFFFFFFFFFFFFFFFFFLLFFFFFFFFFFFFFFFFFFFFFFFFFPPFFFFFFFFFF",
"FFFFFFFFFFFFFFFFFFFFFFFFFFLLFFFFFFFFFFFFFFFFFFFFFFLPPFFFFFFFFFFF",
"FFFFFFFFFFFFFFFFFFFFFFFFFFLLLLFFFFFFFFFFFFFFFFFFFLPPPFFSSFFFFFFF",
"FFFFFFFFFFFFFFFFFFFFFFFFFFFLLLLFFFFFFFFFFFFFFFFLLPPPFFFSSFFFFFFF",
"FFFFFFFFFFFFFFFFFFFFFFFFFFFLLLLLLFFFFFFFFFFFFLLLPPPFFFFSSFFFFSSF",
"FFFFFFFFFFFFFFFFFFFFFFFFFFFFLLLLLLLLFFFFFLLLLLPPPPSFFFFSSFFFFSSF",
"FFFFFKKFFFFFFFFFFFFFFFFFFSSFFFLLLLLLLLLLLLLLPPPPFFFSSFFFFFFSSFFF",
"FFFFFKKFFFFFFFFFFFFFFFFFFSSFFFFFLLLLLLLLLPPPPPPFFFFSSFFFFFFSSFFF",
"KFFFFKKFFFFKKFFFFFFSSFFFFSSFFFFSSFFLPPPPPPPPPFFFFFFFFFFFFFFFFFFK",
"KFFFFKKFFFFKKFFFFFFSSFFFFSSFFFFSSFFFFPPPPPPPFFFFFFFFFFFFFFFFFFFK",
"FKKFFFFFFKKFFFFFFFFFFSSFFFFFFSSFFFFFFFFFFFFFFFFFFFFFFFFFFFFFFFFF",
"FKKFFFFFFKKFFFFFFFFFFSSFFFFFFSSFFFFFFFFFFFFFFFFFFFFFFFFFFFFFFFFF",
"FFFFFFFFFFFFFFFFFFFFFFFFFFFFFFFFFFFFFFFFFFFFFFFFFFFFFFFFFFFFFFFF",
"FFFFFFFFFFFFFFFFFFFFFFFFFFFFFFFFFFFFFFFFFFFFFFFFFFFFFFFFFFFFFFFF",
"FFFFFFFFFFFFFFFFFFFFFFFFFFFFFFFFFFFFFFFFFFFFFFFFFFFFFFFFFFFFFFFF",
"FFFFFFFFFFFFFFFFFFFFFFFFFFFFFFFFFFFFFFFFFFFFFFFFFFFFFFFFFFFFFFFF"
};
