/* XPM */
static char *exit6[] = {
/* columns rows colors chars-per-pixel */
"64 64 67 1 ",
"  c black",
". c #1A1625",
"X c #1C1729",
"o c #1E182C",
"O c #221A33",
"+ c #231A35",
"@ c #241B37",
"# c #261B39",
"$ c #291C3E",
"% c #2D1E45",
"& c #2E1F48",
"* c #2F1F49",
"= c #30204B",
"- c #32204D",
"; c #332150",
": c #352253",
"> c #352254",
", c #372356",
"< c #382358",
"1 c #3A245C",
"2 c #3B245D",
"3 c #412561",
"4 c #492564",
"5 c #4B2465",
"6 c #502467",
"7 c #552469",
"8 c #5C246C",
"9 c #60246E",
"0 c #642470",
"q c #692372",
"w c #6F2375",
"e c #702375",
"r c #742377",
"t c #7A257C",
"y c #7D267F",
"u c #7E2781",
"i c #802883",
"p c #822985",
"a c #872C8C",
"s c #8B2E92",
"d c #8C2E93",
"f c #8D2F94",
"g c #8E2F95",
"h c #903097",
"j c #93329C",
"k c #96339F",
"l c #9835A2",
"z c #9C36A6",
"x c #A23AAE",
"c c #A63CB3",
"v c #B248AF",
"b c #B54BAF",
"n c #B84EAE",
"m c #BD53AD",
"M c #AC42B1",
"N c #B147B0",
"B c #C056AC",
"V c #C55BAA",
"C c #CC62A8",
"Z c #D167A7",
"A c #D269A6",
"S c #D76DA5",
"D c #40B088",
"F c #6FC79F",
"G c #70C8A0",
"H c #88D8B8",
"J c #A0E0C0",
/* pixels */
"GGGGGGGGGGGGGGGGGGGGGGGGGGGGGGGGGGGGGGGGGGGGGGGGGGGGGGGGGGGGGGGG",
"GGGGGGGGGGGGGGGGGGGGGGGGGGGGGGGGGGGGGGGGGGGGGGGGGGGGGGGGGGGGGGGG",
"GGGGGGGGGGGGGGGGGGGGGGGGGGGGGGGGGGGGGGGGGGGGGGGGGGGGGGGGGGGGGGGG",
"GGGGGGGGGGGGGGGGGGGGGGGGGGGGGGGGGGGGGGGGGGGGGGGGGGGGGGGGGGGGGGGG",
"GGGGGGGGGGGGGGGGGGGGGGGGGGGGGGGGGGGGGGGGGGGGGGGGGGGGGGGGGGGGGGGG",
"GGGGGGGGGGJJGGGGGGGGGGGGGGGGGGGGGGGGGGGGGGGGGGGGGGGGGGGGGGGGGGGG",
"GGGGGGGGGGJJGGGGGGGGGGGGGGGGGGGGGGGGGGGGGGGGGGGGGGGGGGGGGGGGGGGG",
"GGGGJJGGGGJJGGGGJJGGGGGGGGGGGGGGGGGGGGGGGGGGGGGGGGGGGGGGGGGGGGGG",
"GGGGJJGGGGJJGGGGJJGGGGGGGGGGGGGFGGGGGFFGGGGGGGGGGGGGGGGGGGGGGGGG",
"GGGGGGJJGGGGGGJJGGGGGGGGmmGGGGGFGGGGGGFGGGGGGGGGGGGGGGGGGGGGGGGG",
"GGGGGGJJGGGGGGJJGGGmmmmmmmmmmmmmGGGGGGGGGGGGGGGGGGGGGGGGGGGGGGGG",
"GGGGGGGGGGGGGGGGGmmmmmmmmmmmmmmmmmGGGGGGGGGGGGGGGGGGGGGGGGGGGGGG",
"GGGGGGGGGGGGGGGGmmmmmmmmmmmmnvmmmmmGGGGGGGGGGGGGGGGGGGGGGGGGGGGG",
"GGGGGGGGGGGGGGmmmmmmnnmvNNvNxtnjmmmmGGGGGGGGGGGGGGGGGGGGGGGGGGGG",
"GGGGGGGGGGGGGGmmmmmnNNvGGGGGGGlpvvmmmGGGGGGGGGGGGGGGGGGGGGGGGGGG",
"GGGGGGGGGGGGGmmmmvNvvFGGGGGGGGGN5lummGGGGGGGGGGGGGGGGGGGGGGGGGGG",
"GGGGGGGGGGGGmmmmvvvGGGGGGGGGGGGGF,-,NmGGGGGGGGGGGGGGGGGGGGGGGGGG",
"GGGGGGGGGGGmmmnbvvGGGGGGGGGGGGGGFG==%aGGGGGGGGGGGGGGGGGGGGGGGGGG",
"GGGGGGGGGGmmmnvvGGGGGGGDDnnBCSSSGGGG&&GGsGGGGGGGGGGGGGGGGGGGGGGG",
"GGGGGGGGGmmmmvvGGGGGGGGnnnAAvSSSSGGGG-&GGsGGGGGGGGGGGGGGGGGGGGGG",
"GGGGGGGGGmmmvvGGGDDGGGnbvhGGF$DCASGGG1<GGssGGGGGGGGGGGGGGGGGGGGG",
"GGGGGGGGmmmbvGGGGDDGGnvlDGGGGDD 5ASGGG1;GssGGGGGGGGGGGGGGGGGGGGG",
"GGGGGGGGmmnvGGGGGGGDnxGGGGGDDGGG.rSSGG1<GssGGGGGGGGGGGGGGDDGGGGG",
"GGGGGGGmmmvvGGGGGGGnvGGGGGGDDGGGG.pSSGG<&ssGGGGGGGGGGGGGGDDGGGGG",
"DGGGGGGmmbvGGGGGGGGnnGGGGGGGGGGGGG9AAGG<-fsGGGGGGGGDDGGGGDDGGGGD",
"DGGGGGGmmbvGGGGGGGnnGGGGGGGGGGGGGG.VCGG11GsFGGGGGGGDDGGGGDDGGGGD",
"GGGGGGGmnvGGGGGGGGnGGGGGGGGG55G=GGGVSGG11tssGGGGGGGGGDDGGGGGGDDG",
"GGGGGGGmvvGGGGGGGnnGGGGGGGGG<<<>tGG6VGG11ussGGGGGGGGGDDGGGGGGDDG",
"GGGGGGGnvGGGGGGGGnhFFGGGGGG%>wr5:GGm3FG8<pssGGGGGGGGGGGGGGGGGGGG",
"GGGGGGGMvGGGGGGGGGGFFGGG...u=8%-,90,,rsr0assGnGGGGGGGGGGGGGGGGGG",
"GGGGGGGbvGGGGGGGGGGGGGGG..eaO+GGF&4,3asfsssGGnGGGGGGGGGGGGGGGGGG",
"GGGGGGGNvGGGGGGGGGGGGGG...ss-y=G&&X.4ssssssGGGGGGGGGGGGGGGGGGGGG",
"GGGGGGGNvGGGGGGGGGGGGGG+.%sfa7>GOo@-utsssssGbmGGGGGGGGGGGGGGGGGG",
"GGGGGGGvGGGGGGGGGGGGGG,<.uatqJJ8:64gq&ssssJGbmGGGGGGGGGGGGGGGGGG",
"GGGGGGGvGGGGGGGGGGGGGG,>.up<GGGJJGGG-GFsssGvnmGGGGGGGGGGGGGGGGGG",
"GGGGGGGMGGGGGGGGGGGGG<:Bmtp<GGGJJFGGGGGssGGvmGGGGGGGGGGGGGGGGGGG",
"GGGGGGGMGGGGGGGGGGGGG,3CSrf:-GGGGGGyGGs8sGvmmGGGGGGGGGGGGGGGGGGG",
"GGGGGGGGGGGGGGGGGGGGG:tSm8s81G>,yyyyGGffGNnmGGGGGGGGGGGGGGGGGGGG",
"GGGGGGGGGGGGGGGGGGGGGlVS.@GG,-,>yyyyFFFFNnmmGGGGGGGGGGGGGGGGGGGG",
"GGGGGGGGGGGGGGGGGGGGGVSS.GGuG,;GGGGGGFwbnmmGGGGGGGGGGGGfnGGGGGGG",
"GGGGGGFcGGGGGGGGGGGGGVSS.GGGGmN7qu888GNnmmmGGGGGGGGGGGGbnGGGGGGG",
"GGGGGGFcGGGGGGGGGGGGGVSS..GGGGmmgmnnnbmmmmGGGGGGGGGGGGGvnGGGGGGG",
"GGGGGGGGGGGGGGGGGGGGGASSa.GGGGGGmmmmmmmmGGGGGGGGGGGGGGznnGGGGGGG",
"GGGGGGGGGGGGGGGGGGGGGGSSV.GGGGGGGGmGGGGGGGGGGGGGGGGGGGbnGGGGGGGG",
"GGGGGGGGGGGGGGGGGGGGGGSSC#.GGGGGGGGGGGGGGGGGGGGGGGGGGnnnGGGGGGGG",
"GGGGGGGGGGGGGGGGGGGGGGSSSq.GGGGGGGGGGGGGGGGGGGGGGGGGlvnGGGGGGGGG",
"GGGGGGGGGGGGGGGGGGGGGGSSSV..GGGGGGGGGGGGGGGGGGGGGGGGNnnGGGGGGGGG",
"GGGGGGGGGGGGGGGGGGGGGGGSSSm.GGGGGGGGGGGGGGGGGGGGGGGMnnGGGGGGGGGG",
"GGGGGGGGGGGGGGGGGGGGGGGSSSC#.GGGGGGGGGGGGGGGGGGGGGznnGGGGGGGGGGG",
"GGGGGGGGGGGGGGGGGGGGGGGGSSSh..GGGGGGGGGGGGGGGGGGGznnGGGGGGGGGGGG",
"GGGGGGGGGGGGGGGGGGGGGGGGSSSSm6..GGGGGGGGGGGGGGGGkbnnGGGDDGGGGGGG",
"GGGGGGGGGGGGGGGGGGGGGGGGGSSSSAGo..GGGGGGGGGGGGgvbnnGGGGDDGGGGGGG",
"GGGGGGGGGGGGGGGGGGGGGGGGGGSSSSSGG$.GGGGGGGGGGknnnnDGGGGDDGGGGDDG",
"GGGGGGGGGGGGGGGGGGGGGGGGGGGSSSSSSSGGGFGGGGlzxnnnnDDGGGGDDGGGGDDG",
"GGGGGHHGGGGGGGGGGGGGGGGGGDDGSSSSSSSCVVVvMMvnnnnnGGGDDGGGGGGDDGGG",
"GGGGGHHGGGGGGGGGGGGGGGGGGDDGGGSSSSAmmmmnnnnnnGGGGGGDDGGGGGGDDGGG",
"HGGGGHHGGGGHHGGGGGGDDGGGGDDGGGGDSSSSmnnnnnnnGGGGGGGGGGGGGGGGGGGH",
"HGGGGHHGGGGHHGGGGGGDDGGGGDDGGGGDDFSSAnnnnGGGGGGGGGGGGGGGGGGGGGGH",
"GHHGGGGGGHHGGGGGGGGGGDDGGGGGGDDGGGGGGGGGGGGGGGGGGGGGGGGGGGGGGGGG",
"GHHGGGGGGHHGGGGGGGGGGDDGGGGGGDDGGGGGGGGGGGGGGGGGGGGGGGGGGGGGGGGG",
"GGGGGGGGGGGGGGGGGGGGGGGGGGGGGGGGGGGGGGGGGGGGGGGGGGGFFGGGGGGGGGGG",
"GGGGGGGGGGGGGGGGGGGGGGGGGGGGGGGGGGGGGGGGGGGGGGGGGGGFFGGGGGGGGGGG",
"GGGGGGGGGGGGGGGGGGGGGGGGGGGGGGGGGGGGGGGGGGGGGGGGGGGGGGGGGGGGGGGG",
"GGGGGGGGGGGGGGGGGGGGGGGGGGGGGGGGGGGGGGGGGGGGGGGGGGGGGGGGGGGGGGGG"
};
