/* XPM */
static char *exit10[] = {
/* columns rows colors chars-per-pixel */
"64 64 67 1 ",
"  c #1A1625",
". c #1C1729",
"X c #1E182C",
"o c #20192F",
"O c #211930",
"+ c #211931",
"@ c #231A34",
"# c #231A35",
"$ c #291C3E",
"% c #2B1D41",
"& c #2D1E45",
"* c #2F1F49",
"= c #30204A",
"- c #32204D",
"; c #352253",
": c #362255",
"> c #382358",
", c #3A245B",
"< c #3B245D",
"1 c #3F2560",
"2 c #412561",
"3 c #492564",
"4 c #4A2465",
"5 c #4D2466",
"6 c #4E2467",
"7 c #502467",
"8 c #512468",
"9 c #552469",
"0 c #5C246C",
"q c #5E246D",
"w c #60246E",
"e c #642470",
"r c #692372",
"t c #6D2374",
"y c #6F2375",
"u c #702375",
"i c #742377",
"p c #7A257C",
"a c #7E2781",
"s c #802883",
"d c #872C8C",
"f c #8B2E92",
"g c #8D2F94",
"h c #903097",
"j c #93329C",
"k c #96339F",
"l c #9835A2",
"z c #B84EAE",
"x c #C55BAA",
"c c #CC62A8",
"v c #40B088",
"b c #6FC79F",
"n c #70C8A0",
"m c #DF86B4",
"M c #E393BC",
"N c #E497BE",
"B c #88D8B8",
"V c #E59AC0",
"C c #E8A3C6",
"Z c #E9A9C9",
"A c #ECB2CF",
"S c #F0BDD6",
"D c #A0E0C0",
"F c #F1C3DA",
"G c #F5CFE1",
"H c #F6D4E4",
"J c #F8D9E7",
/* pixels */
"nnnnnnnnnnnnnnnnnnnnnnnnnnnnnnnnnnnnnnnnnnnnnnnnnnnnnnnnnnnnnnnn",
"nnnnnnnnnnnnnnnnnnnnnnnnnnnnnnnnnnnnnnnnnnnnnnnnnnnnnnnnnnnnnnnn",
"nnnnnnnnnnnnnnnnnnnnnnnnnnnnnnnnnnnnnnnnnnnnnnnnnnnnnnnnnnnnnnnn",
"nnnnnnnnnnnnnnnnnnnnnnnnnnnnnnnnnnnnnnnnnnnnnnnnnnnnnnnnnnnnnnnn",
"nnnnnnnnnnnnnnnnnnnnnnnnnnnnnnnnnnnnnnnnnnnnnnnnnnnnnnnnnnnnnnnn",
"nnnnnnnnnnDDnnnnnnnnnnnnnnnnnnnnnnnnnnnnnnnnnnnnnnnnnnnnnnnnnnnn",
"nnnnnnnnnnDDnnnnnnnnnnnnnnnnnnnnnnnnnnnnnnnnnnnnnnnnnnnnnnnnnnnn",
"nnnnDDnnnnDDnnnnDDnnnnnnnnnnnnnnnnnnnnnnnnnnnnnnnnnnnnnnnnnnnnnn",
"nnnnDDnnnnDDnnnnDDnnnnnnnnnnnnnnnnnnnbbnnnnnnnnnnnnnnnnnnnnnnnnn",
"nnnnnnDDnnnnnnDDnnnnnnnnnnnnnnnnnnnnnnbnnnnnnnnnnnnnnnnnnnnnnnnn",
"nnnnnnDDnnnnnnDDnnnnnnnnnnnnnnnnnnnnnnnnnnnnnnnnnnnnnnnnnnnnnnnn",
"nnnnnnnnnnnnnnnnnnnnnnnnnnnnnnnbnnnnnnnnnnnnnnnnnnnnnnnnnnnnnnnn",
"nnnnnnnnnnnnnnnnnnnnnnnbn%$$$$OOnnnnnnnnnnnnnnnnnnnnnnnnnnnnnnnn",
"nnnnnnnnnnnnnnnnnnnnn556666666--Xnnnnnnnnnnnnnnnnnnnnnnnnnnnnnnn",
"nnnnnnnnnnnnnnnnbn655566-----366<$Onnnnnnnnnnnnnnnnnnnnnnnnnnnnn",
"nnnnnnnnnnnnnnnnb6635nnnnnbbb%-653<Onyynnnnnnnnnnnnnnnnnnnnnnnnn",
"nnnnnnnnnnnnnFS4663*nnnnnnnnnnnnq753$nuunnnnnnnnnnnnnnnnnnnnnnnn",
"nnnnnnnnnnnnFFZ444nnnnnnnnnnnnnnbn753$uunnnnnnnnnnnnnnnnnnnnnnnn",
"nnnnnnnnnnJGFFx3nbnnnnnvvnnnnnnnnnqq5&9uunnnnnnnnnnnnnnnnnnnnnnn",
"nnnnnnnnnJHFFx1bbbnnnnnvvnnnnnnnnnnwq&#euunnnnnnnnnnnnnnnnnnnnnn",
"nnnnnnnnnJFFN3@nnvvnnnnvvnnnnvvnnnnnw:owuunnnnnnnnnnnnnnnnnnnnnn",
"nnnnnnnnJHFC2%nnnvvnnnnvvnnnnvvnnnnnnwX3uunnnnnnnnnnnnnnnnnnnnnn",
"nnnnnnnnHFAe*nnnnnnvvnnnnnnvvnnnnnnnnw<Xuuunnnnnnnnnnnnnnvvnnnnn",
"nnnnnnnJHFC3nnnnnnnvHnnnnnnvvnnnnnnrrqq=ewunnnnnnnnnnnnnnvvnnnnn",
"vnnnnnnJFF9nnnnnnnnnHnnnnnnnnnnnnnnrrwwru3unnnnnnnnvvnnnnvvnnnnv",
"vnnnnnnHFC;nnnnnnnHnnnnnnnnnnnnnnnnrrwwyuuunnnnnnnnvvnnnnvvnnnnv",
"nnnnnnnFFznnnnnnnnHnnnnnnnnn@@nbnnnwrwwyuuunnnnnnnnnnvvnnnnnnvvn",
"nnnnnnnFZ2nnnnnnnHHnnnnnn6n@@@=87nn3rqqyuuunnnnnnnnnnvvnnnnnnvvn",
"nnnnnnnFZnnnnnnnnHHbbnnn332-OO@13nueeqeuuuunnnnnnnnnnnnnnnnnnnnn",
"nnnnnnnFMnnnnnnnnHHbbnnnegjpo.. 8lhrwwuuuuunnnnnnnnnnnnnnnnnnnnn",
"nnnnnnnFnnnnnnnnnnnnnnnnlkaybnnnbnbdsruuuuynnVnnnnnnnnnnnnnnnnnn",
"nnnnnnnnnnnnnnnnnHnnnnndkkyyunnnnnblguuuuuunnnnnnnnnnnnnnnnnnnnn",
"nnnnnnnnnnnnnnnnnHnnnn3kkjuuuDDnn.g9yuuuuuuncHnnnnnnnnnnnnnnnnnn",
"nnnnnnnnnnnnnnnnnnnnn2qrdiuue2DnO@.3DuwuuuDnFHnnnnnnnnnnnnnnnnnn",
"nnnnnnnnnnnnnnnnnnnnnOarqquuq2nDDnnnnn-uuub<FHbnnnnnnnnnnnnnnnnn",
"nnnnnnnnnnnnnnnnnnnnn6rrrnyyqfnDObnnnX:uunnNFnbbnnnnnnnnnnnnnnnn",
"nnnnnnnnnnnnnnnnnnnnn9rrrruuqfbnOnnnOOyunnqZJnnnnnnnnnnnHnnnnnnn",
"nnnnnnnnnnnnnnnnnnnnnrrrqruu$978nnnOOOunn3mFnnnnnnnnnnnnHnnnnnnn",
"nnnnnnnnnnnnnnnnnnnnnrrr>5nu63q89nnOOOnn33FnnnnnnnnnnnnHHnnnnnnn",
"nnnnnnnnnnnnnnnnnnnnnrrr>nnuw2686nnnnnn55nnnnnnnnnnnnnnHHnnnnnnn",
"nnnnnbbnnnnnnnnnnnnnnrrr>bbnun&3q-n%$255nnnnnnnnnnnnnnnHHHnnnnnn",
"nnnnnbbnnnnnnnnnnnnnnrrrnnnnnuno3>><<5nnnnnnnnnnnnnnnnHHHHnnnnnn",
"nnnnnnnnnnnnnnnnnnnnnrrrnnnnnnnnnnnnnnnnnnnnnnnnnnnnnnHHHnnnnnnn",
"nnnnnnnnnnnnnnnnnnnnnnrrnnnnnnnnnnnnnnnnnnnnnnnnnnnnnHHHHnnnnnnn",
"nnnnnnnnnnnnnnnnnnnnnnrrnnnnnnnnnnnnnnnnnnnnnnnnnnnnnHHHHnnnnnnn",
"nnnnnnnnnnnnnnnnnnnnnnrrnnnnnnnnnnnnnnnnnnnnnnnnnnnnnnHHnnnnnnnn",
"nnnnnnnnnnnnnnnnnnnnnnnnnnnnnnnnnnnnnnnnnnnnnnnnnnnnnnHnnnnnnnnn",
"nnnnnnnnnnnnnnnnnnnnnnnnnnnnnnnnnnnnnnnnnnnnnnnnnnnHnHHnnnnnnnnn",
"nnnnnnnnnnnnnnnnnnnnnnnnnnnnnnnnnnnnnnnnnnnnnnnnnnHnnHnnnnnnnnnn",
"nnnnnnnnnnnnnnnnnnnnnnnnnnnnnnnnnnnnnnnnnnnnnnnnnnnnnnnnnnnnnnnn",
"nnnnnnnnnnnnnnnnnnnnnnnnnnnnnnnnnnnnnnnnnnnnnnnnnnnnnnnvvnnnnnnn",
"nnnnnnnnnnnnnnnnnnnnnnnnnnnnnnnnnnnnnnnnnnnnnnnnnnnnnnnvvnnnnnnn",
"nnnnnnnnnnnnnnnnnnnnnnnnnnnnnnnnnnnnnnnnnnnnnnnnnvvnnnnvvnnnnvvn",
"nnnnnnnnnnnnnnnnnnnnnnnnnnnnnnnnnnnnnnnnnnnnnnnnnvvnnnnvvnnnnvvn",
"nnnnnBBnnnnnnnnnnnnnnnnnnvvnnnnnnnnnnnnnnnnnnnnnnnnvvnnnnnnvvnnn",
"nnnnnBBnnnnnnnnnnnnnnnnnnvvnnnnnnnnnnnnnnnnnnnnnnnnvvnnnnnnvvnnn",
"BnnnnBBnnnnBBnnnnnnvvnnnnvvnnnnvvnnnnnnnnnnnnnnnnnnnnnnnnnnnnnnB",
"BnnnnBBnnnnBBnnnnnnvvnnnnvvnnnnvvnnnnnnnnnnnnnnnnnnnnnnnnnnnnnnB",
"nBBnnnnnnBBnnnnnnnnnnvvnnnnnnvvnnnnnnnnnnnnnnnnnnnnnnnnnnnnnnnnn",
"nBBnnnnnnBBnnnnnnnnnnvvnnnnnnvvnnnnnnnnnnnnnnnnnnnnnnnnnnnnnnnnn",
"nnnnnnnnnnnnnnnnnnnnnnnnnnnnnnnnnnnnnnnnnnnnnnnnnnnbbnnnnnnnnnnn",
"nnnnnnnnnnnnnnnnnnnnnnnnnnnnnnnnnnnnnnnnnnnnnnnnnnnbbnnnnnnnnnnn",
"nnnnnnnnnnnnnnnnnnnnnnnnnnnnnnnnnnnnnnnnnnnnnnnnnnnnnnnnnnnnnnnn",
"nnnnnnnnnnnnnnnnnnnnnnnnnnnnnnnnnnnnnnnnnnnnnnnnnnnnnnnnnnnnnnnn"
};
