/* XPM */
static char *exit8[] = {
/* columns rows colors chars-per-pixel */
"64 64 52 1 ",
"  c #1A1625",
". c #1C1729",
"X c #1E182C",
"o c #201930",
"O c #221A33",
"+ c #241B37",
"@ c #261B39",
"# c #281C3D",
"$ c #291C3E",
"% c #2B1D42",
"& c #2D1E45",
"* c #2F1F49",
"= c #32204D",
"- c #352253",
"; c #372356",
": c #412561",
"> c #492564",
", c #502467",
"< c #552469",
"1 c #5C246C",
"2 c #5E246D",
"3 c #60246E",
"4 c #672371",
"5 c #642470",
"6 c #692372",
"7 c #6D2374",
"8 c #702375",
"9 c #742377",
"0 c #7A257C",
"q c #7B257D",
"w c #7E2781",
"e c #802883",
"r c #822985",
"t c #872C8C",
"y c #8B2E92",
"u c #8C2E93",
"i c #8D2F94",
"p c #8E2F95",
"a c #903097",
"s c #93329C",
"d c #96339F",
"f c #9835A2",
"g c #9C36A6",
"h c #9E38A9",
"j c #B248AF",
"k c #B54BAF",
"l c #AC42B1",
"z c #40B088",
"x c #6FC79F",
"c c #70C8A0",
"v c #88D8B8",
"b c #A0E0C0",
/* pixels */
"cccccccccccccccccccccccccccccccccccccccccccccccccccccccccccccccc",
"cccccccccccccccccccccccccccccccccccccccccccccccccccccccccccccccc",
"cccccccccccccccccccccccccccccccccccccccccccccccccccccccccccccccc",
"cccccccccccccccccccccccccccccccccccccccccccccccccccccccccccccccc",
"cccccccccccccccccccccccccccccccccccccccccccccccccccccccccccccccc",
"ccccccccccbbcccccccccccccccccccccccccccccccccccccccccccccccccccc",
"ccccccccccbbcccccccccccccccccccccccccccccccccccccccccccccccccccc",
"ccccbbccccbbccccbbcccccccccccccccccccccccccccccccccccccccccccccc",
"ccccbbccccbbccccbbcccccccccccccccccccxxccccccccccccccccccccccccc",
"ccccccbbccccccbbcccccccccccccccccccccxxccccccccccccccccccccccccc",
"ccccccbbccccccbbccccsssssssssssscccccccccccccccccccccccccccccccc",
"ccccccccccccccccccsssssssssssssssssccccccccccccccccccccccccccccc",
"cccccccccccccccccsssssssssssdssssssccccccccccccccccccccccccccccc",
"cccccccccccccccsssssyiaaaaaaaasssssssccccccccccccccccccccccccccc",
"ccccccccccccccssssarrttttttttuuusssssscccccccccccccccccccccccccc",
"cccccccccccccssssrettccccccccttttasssssccccccccccccccccccccccccc",
"cccccccccccccsaa0wtcccccccccccccttyssssscccccccccccccccccccccccc",
"ccccccccccccssuwrtccccccccccccccccttassscccccccccccccccccccccccc",
"cccccccccccsst0rccccccczziiiiiiicccttssssccccccccccccccccccccccc",
"ccccccccccssp07ccccccccpiiii4tiiiccctadasccccccccccccccccccccccc",
"ccccccccccsa09$cczzcccppi1ccczzryyccttsdsscccccccccccccccccccccc",
"cccccccccssw0;ccczzccpuzzcccczzccticctpasscccccccccccccccccccccc",
"cccccccccsr0ccccccczupccccczzcccx9wicctsssccccccccccccccczzccccc",
"cccccccccs00cccccccizcccccczzccccxwfcc0tssscccccccccccccczzccccc",
"zcccccccc00cccccccciccccccccccccccchyc$tssscccccccczzcccczzccccz",
"zcccccccc00ccccccccccccccccccccccccksc$5ssscccccccczzcccczzccccz",
"cccccccc00ccccccccccccccccccccxxccckkcc@ss1cccccccccczzcccccczzc",
"cccccccc00cccccccccccccccccc=7  ccckkcc$ss&cccccccccczzcccccczzc",
"ccccccc00ccccccccccxxccccc@15=  ,cjjh-c+saaccccccccccccccccccccc",
"ccccccc00ccccccccccxxccc&&;;O   >@iljcc4s>ccc0cccccccccccccccccc",
"ccccccc00ccccccccccccccc$%<%X cO===lkccsy=c@c0cccccccccccccccccc",
"ccccccc00cccccccccccccc=l1*wcccc;4 ><ccar@cccccccccccccccccccccc",
"ccccccc0qcccccccccccccchk3>scb&x.X.$bcc<%@bcqccccccccccccccccccc",
"ccccccc0ccccccccccccccukka,tcb$   $bbcq:$@bcqccccccccccccccccccc",
"ccccccc0ccccccccccccc&kklq<>ccxbbccccc@$=ccqqccccccccccccccccccc",
"ccccccc0ccccccccccccc&kkkci<=22bbcccc@+$4ccqaccccccccccccccccccc",
"cccccccqccccccccccccc<kgkkss:32cccccc@$17c0isccccccccccccccccccc",
"ccccccccccccccccccccckkkkkssp8xxcccc1><7crtscccccccccccccccccccc",
"ccccccccccccccccccccclkkkkcsstccccx77997rtsccccccccccccccccccccc",
"cccccccccccccccccccccfkkkccssstccc797cctrssccccccccccccccccccccc",
"cccccccccccccccccccccfkkkcccssspttcttttisscccccccccccccccccccccc",
"cccccccccccccccccccccfljkccccsssssiisssssccccccccccccccccccccccc",
"cccccccccccccccccccccjulkccccccssssssssccccccccccccccccccccccccc",
"ccccccccccccccccccccccul9cccccccccsccccccccccccccccccccccccccccc",
"ccccccccccccccccccccccul7ccccccccccccccccccccccccccccccccccccccc",
"cccccccccccccccccccccccuf3cccccccccccccccccccccccccccccccccccccc",
"cccccccccccccccccccccccpu3cccccccccccccccccccccccccccicccccccccc",
"cccccccccccccccccccccccuiu2cccccccccccccccccccccccccaccccccccccc",
"cccccccccccccccccccccccciitcccccccccccccccccccccccciiccccccccccc",
"cccccccccccccccccccccccciit4cccccccccccccccccccccciicccccccccccc",
"cccccccccccccccccccccccciiit22ccccccccccccccccccciiiccczzccccccc",
"ccccccccccccccccccccccccciiit73cccccccccccccccciiiicccczzccccccc",
"cccccccccccccccccccccccccciiiut4cccccccccccccciiiizcccczzcccczzc",
"ccccccccccccccccccccccccccciiiii991ccccccccciiiiizzcccczzcccczzc",
"cccccvvcccccccccccccccccczzciiiiiirrrrrrrtiiiiiiccczzcccccczzccc",
"cccccvvcccccccccccccccccczzccciiiiiiiiiiiiiiicccccczzcccccczzccc",
"vccccvvccccvvcccccczzcccczzcccciiiiiiiiiiiiicccccccccccccccccccv",
"vccccvvccccvvcccccczzcccczzcccczzciiiiiiuucccccccccccccccccccccv",
"cvvccccccvvcccccccccczzcccccczzccccccccccccccccccccccccccccccccc",
"cvvccccccvvcccccccccczzcccccczzccccccccccccccccccccccccccccccccc",
"cccccccccccccccccccccccccccccccccccccccccccccccccccccccccccccccc",
"cccccccccccccccccccccccccccccccccccccccccccccccccccccccccccccccc",
"cccccccccccccccccccccccccccccccccccccccccccccccccccccccccccccccc",
"cccccccccccccccccccccccccccccccccccccccccccccccccccccccccccccccc"
};
