/* XPM */
static char *exit11[] = {
/* columns rows colors chars-per-pixel */
"64 64 61 1 ",
"  c #1C1729",
". c #1E182C",
"X c #20192F",
"o c #211930",
"O c #231A34",
"+ c #241B37",
"@ c #261B39",
"# c #291C3E",
"$ c #2B1D42",
"% c #2D1E45",
"& c #2D1F46",
"* c #2E1F48",
"= c #30204A",
"- c #32204D",
"; c #332150",
": c #342252",
"> c #352253",
", c #352254",
"< c #372356",
"1 c #382358",
"2 c #3A245B",
"3 c #3B245D",
"4 c #3F2560",
"5 c #412561",
"6 c #492564",
"7 c #4C2466",
"8 c #4E2467",
"9 c #502467",
"0 c #512468",
"q c #552469",
"w c #5C246C",
"e c #5D246D",
"r c #5E246D",
"t c #60246E",
"y c #642470",
"u c #6D2374",
"i c #7A257C",
"p c #7E2781",
"a c #802883",
"s c #822985",
"d c #872C8C",
"f c #B84EAE",
"g c #BF55AC",
"h c #D76DA5",
"j c #40B088",
"k c #6FC79F",
"l c #70C8A0",
"z c #DF86B4",
"x c #E393BC",
"c c #E497BE",
"v c #88D8B8",
"b c #E59AC0",
"n c #E8A3C6",
"m c #E9A9C9",
"M c #EAACCB",
"N c #EBAFCD",
"B c #ECB2CF",
"V c #EEB7D2",
"C c #F0BDD6",
"Z c #A0E0C0",
"A c #F0C0D8",
/* pixels */
"llllllllllllllllllllllllllllllllllllllllllllllllllllllllllllllll",
"llllllllllllllllllllllllllllllllllllllllllllllllllllllllllllllll",
"llllllllllllllllllllllllllllllllllllllllllllllllllllllllllllllll",
"llllllllllllllllllllllllllllllllllllllllllllllllllllllllllllllll",
"llllllllllllllllllllllllllllllllllllllllllllllllllllllllllllllll",
"llllllllllZZllllllllllllllllllllllllllllllllllllllllllllllllllll",
"llllllllllZZllllllllllllllllllllllllllllllllllllllllllllllllllll",
"llllZZllllZZllllZZllllllllllllllllllllllllllllllllllllllllllllll",
"llllZZllllZZllllZZlllllllllllllllllllkklllllllllllllllllllllllll",
"llllllZZllllllZZlllllllllllllllllllllkklllllllllllllllllllllllll",
"llllllZZllllllZZllllAAAAAAAAllllllllllllllllllllllllllllllllllll",
"llllllllllllllllllAAAAVbnnnnclllllllllllllllllllllllllllllllllll",
"lllllllllllllllllAAVBcxzzlllllllllllllllllllllllllllllllllllllll",
"lllllllllllllllAAVMcchg<13333lllllllllllllllllllllllllllllllllll",
"llllllllllllllAAmbck-<23%%$$33333lllllllllllllllllllllllllllllll",
"lllllllllllllAAmcll33kllllllll33333lllllllllllllllllllllllllllll",
"llllllllllllAABcllllllllllllllll3333llllllllllllllllllllllllllll",
"lllllllllllAAVclllllllllllllllllll:33lllllllllllllllllllllllllll",
"llllllllllAACbllllllllljjlllllllll+13lllllllllllllllllllllllllll",
"lllllllllAAAblllllllllljjVVlVllllll+33llllllllllllllllllllllllll",
"lllllllllAAnclllljjllClVVVllljjlllll333lllllllllllllllllllllllll",
"lllllllllACbllllljjlCVVVjlllOjjllllll33*llllllllllllllllllllllll",
"llllllllAAncllllllljCVllllljjllllllll$3:.lllllllllllllllljjlllll",
"lllllllNAmcllllllllCVlllllljjlllllllll33.lllllllllllllllljjlllll",
"jllllllBAnlllllllllVVllllllllllllllll863..llllllllljjlllljjllllj",
"jllllllCVcllllllllCVlllllllllllllllll663...lllllllljjlllljjllllj",
"lllllllCnllllllllCCVllllllll.oollllll663%..lllllllllljjlllllljjl",
"lllllllAcllllllllCVllllllo@@u oo3lll8664<..lllllllllljjlllllljjl",
"lllllllbcllllllllCVkkllll<ds%o%odqql06q6<@#lllllllllllllllllllll",
"lllllllclllllllllVVkklll-idyr%i.dylqqqe560rkllllllllllllllllllll",
"lllllllcllllllllllllllll#9ur7lllllq8qe00rrrlllllllllllllllllllll",
"lllllllllllllllllVlllllO92rr0lllllqt<e0errrlllllllllllllllllllll",
"lllllllllllllllllVlllll6q<rrqrtlldddee0errrllVllllllllllllllllll",
"llllllllllllllllllllllqqq<w5q9ZX-udZZ8qerrZlnCllllllllllllllllll",
"llllllllllllllllllllllqqqk=>76lZZlllkqterrllnVllllllllllllllllll",
"lllllllllllllllllllll5qqqk <5pdZZlllo0tetllcClllllllllllllllllll",
"lllllllllllllllllllll5qqkl@X3adllll $qettllcAlllllllllllVlllllll",
"lllllllllllllllllllll5qlkql.<tiklkXXteeellcCllllllllllllVlllllll",
"lllllllllllllllllllll5lllllll2>llXX >7klllVAlllllllllllVVlllllll",
"lllllllllllllllllllll5lllllll325lklXlll6lBAllllllllllllVVlllllll",
"lllllkkllllllllllllllllllllllll323l@@<acmAlllllllllllllVVCllllll",
"llllllklllllllllllllllllllllllll233>tfmVAlllllllllllllVVCCllllll",
"llllllllllllllllllllllllllllllllllllCBAlllllllllllllllVVClllllll",
"lllllllllllllllllllllllllllllllllllllllllllllllllllllVVCClllllll",
"lllllllllllllllllllllllllllllllllllllllllllllllllllllVVCClllllll",
"llllllllllllllllllllllllllllllllllllllllllllllllllllVVCCllllllll",
"llllllllllllllllllllllllllllllllllllllllllllllllllllVVCCllllllll",
"lllllllllllllllllllllllllllllllllllllllllllllllllllVVCClllllllll",
"llllllllllllllllllllllllllllllllllllllllllllllllllVVCCllllllllll",
"llllllllllllllllllllllllllllllllllllllllllllllllVVVCClllllllllll",
"lllllllllllllllllllllllllllllllllllllllllllllllVVVCCClljjlllllll",
"lllllllllllllllllllllllllllllllllX++XllllllllVVVVCCCllljjlllllll",
"llllllllllllllllllllllllllllllllllllllllllllVVVVVCClllljjlllljjl",
"llllllllllllllllllllllllllllllllllllllllllVVVVVVCCjlllljjlllljjl",
"lllllvvlllllllllllllllllljjlllllllllllVVVVVVlllCllljjlllllljjlll",
"lllllvvlllllllllllllllllljjllllllllVVVVVVlllllllllljjlllllljjlll",
"vllllvvllllvvlllllljjlllljjlllljjllllllllllllllllllllllllllllllv",
"vllllvvllllvvlllllljjlllljjlllljjlllllCCCllllllllllllllllllllllv",
"lvvllllllvvlllllllllljjlllllljjlllllllllllllllllllllllllllllllll",
"lvvllllllvvlllllllllljjlllllljjlllllllllllllllllllllllllllllllll",
"lllllllllllllllllllllllllllllllllllllllllllllllllllkklllllllllll",
"lllllllllllllllllllllllllllllllllllllllllllllllllllkllllllllllll",
"llllllllllllllllllllllllllllllllllllllllllllllllllllllllllllllll",
"llllllllllllllllllllllllllllllllllllllllllllllllllllllllllllllll"
};
