/* XPM */
static char *exit1[] = {
/* columns rows colors chars-per-pixel */
"64 64 52 1 ",
"  c #1A1625",
". c #1C1729",
"X c #201930",
"o c #221A33",
"O c #231A34",
"+ c #241B37",
"@ c #251B38",
"# c #261B39",
"$ c #281C3D",
"% c #291C3E",
"& c #2B1D41",
"* c #2B1D42",
"= c #2D1E45",
"- c #2F1F49",
"; c #32204D",
": c #342252",
"> c #362255",
", c #382358",
"< c #3A245B",
"1 c #3B245D",
"2 c #412561",
"3 c #492564",
"4 c #502467",
"5 c #552469",
"6 c #5C246C",
"7 c #5E246D",
"8 c #60246E",
"9 c #672371",
"0 c #642470",
"q c #692372",
"w c #6D2374",
"e c #702375",
"r c #742377",
"t c #772378",
"y c #7A257C",
"u c #7B257D",
"i c #7C257E",
"p c #7D267F",
"a c #7E2781",
"s c #802883",
"d c #822985",
"f c #872C8C",
"g c #C55BAA",
"h c #40B088",
"j c #6FC79F",
"k c #70C8A0",
"l c #DF86B4",
"z c #E497BE",
"x c #88D8B8",
"c c #E59AC0",
"v c #E8A3C6",
"b c #A0E0C0",
/* pixels */
"kkkkkkkkkkkkkkkkkkkkkkkkkkkkkkkkkkkkkkkkkkkkkkkkkkkkkkkkkkkkkkkk",
"kkkkkkkkkkkkkkkkkkkkkkkkkkkkkkkkkkkkkkkkkkkkkkkkkkkkkkkkkkkkkkkk",
"kkkkkkkkkkkkkkkkkkkkkkkkkkkkkkkkkkkkkkkkkkkkkkkkkkkkkkkkkkkkkkkk",
"kkkkkkkkkkkkkkkkkkkkkkkkkkkkkkkkkkkkkkkkkkkkkkkkkkkkkkkkkkkkkkkk",
"kkkkkkkkkkkkkkkkkkkkkkkkkkkkkkkkkkkkkkkkkkkkkkkkkkkkkkkkkkkkkkkk",
"kkkkkkkkkkbbkkkkkkkkkkkkkkkkkkkkkkkkkkkkkkkkkkkkkkkkkkkkkkkkkkkk",
"kkkkkkkkkkbbkkkkkkkkkkkkkkkkkkkkkkkkkkkkkkkkkkkkkkkkkkkkkkkkkkkk",
"kkkkbbkkkkbbkkkkbbkkkkkkkkkkkkkkkkkkkkkkkkkkkkkkkkkkkkkkkkkkkkkk",
"kkkkbbkkkkbbkkkkbbkkkkkkkkkkkkkkkkkkkjjkkkkkkkkkkkkkkkkkkkkkkkkk",
"kkkkkkbbkkkkkkbbkkkkkkvvvvkkkkkkkkkkkkjkkkkkkkkkkkkkkkkkkkkkkkkk",
"kkkkkkbbkkkkkkbbkkkvvvvvvvvvckkkkkkkkkkkkkkkkkkkkkkkkkkkkkkkkkkk",
"kkkkkkkkkkkkkkkkkvvvvvvccccccccckkkkkkkkkkkkkkkkkkkkkkkkkkkkkkkk",
"kkkkkkkkkkkkkkkkvvvvvccccccccccccckkkkkkkkkkkkkkkkkkkkkkkkkkkkkk",
"kkkkkkkkkkkkkkvvvvccccccccccccccccckkkkkkkkkkkkkkkkkkkkkkkkkkkkk",
"kkkkkkkkkkkkkvvvcckkkkkkkkkkkkkccccckkkkkkkkkkkkkkkkkkkkkkkkkkkk",
"kkkkkkkkkkkkvvvckkkkkkkkkkkkkkkkkcccckkkkkkkkkkkkkkkkkkkkkkkkkkk",
"kkkkkkkkkkkvvvckkkkkkkkkkkkkkkkkkkcccckkkkkkkkkkkkkkkkkkkkkkkkkk",
"kkkkkkkkkkkvvkkkkkkkkkkkkkkkkkkkkkkkcckkkkkkkkkkkkkkkkkkkkkkkkkk",
"kkkkkkkkkkvvkkkkkkkkkkkhhdddddddkkkkccckkkkkkkkkkkkkkkkkkkkkkkkk",
"kkkkkkkkkvvkkkkkkkkkkkkdddddwdddddkkkcckkkkkkkkkkkkkkkkkkkkkkkkk",
"kkkkkkkkkvkkkkkkkhhkkkdsyq70qrwisddkkkckkkkkkkkkkkkkkkkkkkkkkkkk",
"kkkkkkkkvvkkkkkkkhhkkdyq4wXkkht4tdddkkkkkkkkkkkkkkkkkkkkkkkkkkkk",
"kkkkkkkkvkkkkkkkkkkhhr0kkkkhhkkkryddkkkkkkkkkkkkkkkkkkkkkhhkkkkk",
"kkkkkkkvkkkkkkkkkkkh99kkkkkhhkkkkryddkkkkkkkkkkkkkkkkkkkkhhkkkkk",
"hkkkkkkkkkkkkkkkkkkk8kkkkkkkkkkkkktddkkkkkkkkkkkkkkhhkkkkhhkkkkh",
"hkkkkkkkkkkkkkkkkkk03kkkkkkkkkkkkkradkkkkkkkkkkkkkkhhkkkkhhkkkkh",
"kkkkkkkkkkkkkkkkkkk0kkkkkkkk774kkkksdkkkkkkkkkkkkkkkkhhkkkkkkhhk",
"kkkkkkkkkkkkkkkkkkkkkkkkkkk79t8;Okkydkkkkkkkkkkkkkkkkhhkkkkkkhhk",
"kkkkkkkkkkkkkkkkkk0jjkkkkk5;@wtqw;dddkkkkkkkkkkkkkkkkkkkkkkkkkkk",
"kkkkkkkkkkkkkkkkkk0jjkkkkk+:1w88yikdqkkkkkkkkkkkkkkkkkkkkkkkkkkk",
"kkkkkkkkkkkkkkkkkk0kkkkkOO=*kkkkkk35Xkkkkkkkkkkkkkkkkkkkkkkkkkkk",
"kkkkkkkkkkkkkkkkk0kkkkkOOO@kkk3kkk*Xbkkkkkkkkkkkkkkkkkkkkkkkkkkk",
"kkkkkkkkkkkkkkkkk8kkjjkooo#kj%3kkk=bbkkkkbbkkkkkkkkkkkkk0kkkkkkk",
"kkkkkkkkkkkkkkkkkkkkjk;555kkkbbu888bbkkkkbbkkkkkkkkkkkkk0kkkkkkk",
"kkkkkkkkkkkkkkkkkkkkkkedddkkkkkbbkkkkkkbbkkkkkkkkkkkkkkk0kkkkkkk",
"kkkkkkkkkkkkkkkkkkkkkkddddskkkkbbkkkk<k22kkkkkkkkkkkkkkk0kkkkkkk",
"kkkkkkkkkkkkkkkkkkkkkkddddskkkkkkkki-221Xkkkvkkkkkkkkkk00kkkkkkk",
"kkkkkkkkkkkkkkkkkkkkkdddad0@g ;6yiyy>21+kkkvvkkkkkkkkkk00kkkkkkk",
"kkkkkkkkkkkkkkkkkkkkkdddrpkkl7.5eiii-=%<kkcvkkkkkkkkkkk00kkkkkkk",
"kkkkkkkkkkkkkkkkkkkkkdddrrkkkz&&88wy=5.kkvvkkkkkkkkkkk89kkkkkkkk",
"kkkkkkkkkkkkkkkkkkkkkdddrrkkkzzk8ds8fkkccvvkkkkkkkkkkk00kkkkkkkk",
"kkkkkkjkkkkkkkkkkkkkkdddyrkkkkzzzczkcccvvvkkkkkkkkkkk80kkkkkkkkk",
"kkkkkkkkkkkkkkkkkkkkkdddsrkkkkkkccccvvvvkkkkkkkkkkkkk80kkkkkkkkk",
"kkkkkkkkkkkkkkkkkkkkkdddsrrkkkkkkkkkkvkkkkkkkkkkkkkk080kkkkkkkkk",
"kkkkkkkkkkkkkkkkkkkkkdddsrrkkkkkkkkkkkkkkkkkkkkkkkk;00kkkkkkkkkk",
"kkkkkkkkkkkkkkkkkkkkkkdddirkkkkkkkkkkkkkkkkkkkkkkk*70kkkkkkkkkkk",
"kkkkkkkkkkkkkkkkkkkkkkdddsrrkkkkkkkkkkkkkkkkkkkkkk570kkkkkkkkkkk",
"kkkkkkkkkkkkkkkkkkkkkkkdddirrkkkkkkkkkkkkkkkkkkkk589kkkkkkkkkkkk",
"kkkkkkkkkkkkkkkkkkkkkkkdddr8rkkkkkkkkkkkkkkkkkkj,88kkkkkkkkkkkkk",
"kkkkkkkkkkkkkkkkkkkkkkkdddd88rrkkkkkkkkkkkkkkkkq8rkkkkkkkkkkkkkk",
"kkkkkkkkkkkkkkkkkkkkkkkkdddde5rrkkkkkkkkkkkkk558qdkkkkkhhkkkkkkk",
"kkkkkkkkkkkkkkkkkkkkkkkkkddddiqerrrkkk#kkkk5888yskkkkkkhhkkkkkkk",
"kkkkkkkkkkkkkkkkkkkkkkkkkddddddeereerre;rq8q8wdddhhkkkkhhkkkkhhk",
"kkkkkkkkkkkkkkkkkkkkkkkkkkdddddddie0888880qridddjhhkkkkhhkkkkhhk",
"kkkkkxxkkkkkkkkkkkkkkkkkkhhkddddddsiyyyiyiiddddkkkkhhkkkkkkhhkkk",
"kkkkkxxkkkkkkkkkkkkkkkkkkhhkkdddddddddddsddddkkkkkkhhkkkkkkhhkkk",
"xkkkkxxkkkkxxkkkkkkhhkkkkhhkkkkdddddddddddddkkkkkkkkkkkkkkkkkkkx",
"xkkkkxxkkkkxxkkkkkkhhkkkkhhkkkkhhdddddddskkkkkkkkkkkkkkkkkkkkkkx",
"kxxkkkkkkxxkkkkkkkkkkhhkkkkkkhhkkkkkkkkkkkkkkkkkkkkkkkkkkkkkkkkk",
"kxxkkkkkkxxkkkkkkkkkkhhkkkkkkhhkkkkkkkkkkkkkkkkkkkkkkkkkkkkkkkkk",
"kkkkkkkkkkkkkkkkkkkkkkkkkkkkkkkkkkkkkkkkkkkkkkkkkkkkkkkkkkkkkkkk",
"kkkkkkkkkkkkkkkkkkkkkkkkkkkkkkkkkkkkkkkkkkkkkkkkkkkkkkkkkkkkkkkk",
"kkkkkkkkkkkkkkkkkkkkkkkkkkkkkkkkkkkkkkkkkkkkkkkkkkkkkkkkkkkkkkkk",
"kkkkkkkkkkkkkkkkkkkkkkkkkkkkkkkkkkkkkkkkkkkkkkkkkkkkkkkkkkkkkkkk"
};
