/* XPM */
static char *exit4[] = {
/* columns rows colors chars-per-pixel */
"64 64 76 1 ",
"  c black",
". c #1A1625",
"X c #1C1729",
"o c #1E182C",
"O c #20192F",
"+ c #201930",
"@ c #211930",
"# c #221A33",
"$ c #231A35",
"% c #241B37",
"& c #251B38",
"* c #261B39",
"= c #281C3D",
"- c #2B1D41",
"; c #2D1E45",
": c #2E1F48",
"> c #30204A",
", c #32204D",
"< c #332150",
"1 c #342252",
"2 c #352253",
"3 c #352254",
"4 c #372356",
"5 c #382358",
"6 c #39245B",
"7 c #3B245D",
"8 c #3B255E",
"9 c #412561",
"0 c #492564",
"q c #4D2466",
"w c #502467",
"e c #512468",
"r c #552469",
"t c #5C246C",
"y c #5D246D",
"u c #642470",
"i c #692372",
"p c #6D2374",
"a c #6F2375",
"s c #702375",
"d c #7A257C",
"f c #822985",
"g c #8B2E92",
"h c #8D2F94",
"j c #93329C",
"k c #9835A2",
"l c #9C36A6",
"z c #9E38A9",
"x c #A23AAE",
"c c #A43BB1",
"v c #A73DB3",
"b c #B54BAF",
"n c #B84EAE",
"m c #BF55AC",
"M c #AC42B1",
"N c #B147B0",
"B c #C55BAA",
"V c #CB61A9",
"C c #CC62A8",
"Z c #CF65A8",
"A c #D269A6",
"S c #D76DA5",
"D c #40B088",
"F c #6FC79F",
"G c #70C8A0",
"H c #DF86B4",
"J c #E18CB8",
"K c #E290BA",
"L c #E393BC",
"P c #E497BE",
"I c #88D8B8",
"U c #E59AC0",
"Y c #E8A3C6",
"T c #E9A9C9",
"R c #EAACCB",
"E c #A0E0C0",
/* pixels */
"GGGGGGGGGGGGGGGGGGGGGGGGGGGGGGGGGGGGGGGGGGGGGGGGGGGGGGGGGGGGGGGG",
"GGGGGGGGGGGGGGGGGGGGGGGGGGGGGGGGGGGGGGGGGGGGGGGGGGGGGGGGGGGGGGGG",
"GGGGGGGGGGGGGGGGGGGGGGGGGGGGGGGGGGGGGGGGGGGGGGGGGGGGGGGGGGGGGGGG",
"GGGGGGGGGGGGGGGGGGGGGGGGGGGGGGGGGGGGGGGGGGGGGGGGGGGGGGGGGGGGGGGG",
"GGGGGGGGGGGGGGGGGGGGGGGGGGGGGGGGGGGGGGGGGGGGGGGGGGGGGGGGGGGGGGGG",
"GGGGGGGGGGEEGGGGGGGGGGGGGGGGGGGGGGGGGGGGGGGGGGGGGGGGGGGGGGGGGGGG",
"GGGGGGGGGGEEGGGGGGGGGGGGGGGGGGGGGGGGGGGGGGGGGGGGGGGGGGGGGGGGGGGG",
"GGGGEEGGGGEEGGGGEEGGGGGGGGGGGGGGGGGGGGGGGGGGGGGGGGGGGGGGGGGGGGGG",
"GGGGEEGGGGEEGGGGEEGGGGGGGGGGGGGGGGGGGFFGGGGGGGGGGGGGGGGGGGGGGGGG",
"GGGGGGEEGGGGGGEEGGGGGGGGVVVbMMMGGGGGGFFGGGGGGGGGGGGGGGGGGGGGGGGG",
"GGGGGGEEGGGGGGEEGGGLJHLLLLLHMMMMMMGGGGGGGGGGGGGGGGGGGGGGGGGGGGGG",
"GGGGGGGGGGGGGGGGGNLLLLLLLLLLJJMMMMMMGGGGGGGGGGGGGGGGGGGGGGGGGGGG",
"GGGGGGGGGGGGGGGGLLLLLHHKKGGGGGGGMMMMMGGGGGGGGGGGGGGGGGGGGGGGGGGG",
"GGGGGGGGGGGGGGLLLLLSKBBHCCCCmrGGGMMMMMGGGGGGGGGGGGGGGGGGGGGGGGGG",
"GGGGGGGGGGGGGGLLLLCAHBnGGGGGGGGwGGGMMMMGGGGGGGGGGGGGGGGGGGGGGGGG",
"GGGGGGGGGGGGGLLKHSHHGGGGGGGGGGGGGGGGMMMMGGGGGGGGGGGGGGGGGGGGGGGG",
"GGGGGGGGGGGGLLKnHHHGGGGGGGGGGGGGGGGGGMMMMGGGGGGGGGGGGGGGGGGGGGGG",
"GGGGGGGGGGGLLLHSHHGGGGGGGGGmmuj:GGGGGGMMMGGGGGGGGGGGGGGGGGGGGGGG",
"GGGGGGGGGGLLLJHHGGGGGGGDDTTTRRTRGGGGGGMMMMGGGGGGGGGGGGGGGGGGGGGG",
"GGGGGGGGGLLLKHHGGGGGGGGTTTGGsGGTTGGGGGGMMMGGGGGGGGGGGGGGGGGGGGGG",
"GGGGGGGGGLLLHHGGGDDGGGTYJuXXXX@GGmGGGGGMMMMGGGGGGGGGGGGGGGGGGGGG",
"GGGGGGGGLLLHHGGGGDDGTTPB..GGGDXX$HGGGGGGMMMGGGGGGGGGGGGGGGGGGGGG",
"GGGGGGGGLLKHGGGGGGGDTJGGGGGDDGGG2XGGGGGGMMMGGGGGGGGGGGGGGDDGGGGG",
"GGGGGGGLLLHHGGGGGGGYAGGGGGGDDGGGG,oGGGGGGMMGGGGGGGGGGGGGGDDGGGGG",
"DGGGGGGLLLHGGGGGGGGUCGGGGGGGGGGGGG>oGGGGGMMGGGGGGGGDDGGGGDDGGGGD",
"DGGGGGGLLHHGGGGGGGPSGGGGGGGGGGGGGG3*XGGGGMMGGGGGGGGDDGGGGDDGGGGD",
"GGGGGGGLKHGGGGGGGGHSGGGGGGGGGGGGG88$XGGGGMMGGGGGGGGGGDDGGGGGGDDG",
"GGGGGGGLKHGGGGGGGJYGGGGGGGGGXGGG.32,oGGGGMMGGGGGGGGGGDDGGGGGGDDG",
"GGGGGGGLHHGGGGGGGKZFFGGGGGG05*XXG89=qGGGGMMGGGGGGGGGGGGGGGGGGGGG",
"GGGGGGGLHGGGGGGGGLCFFGGG000pl9XX999*9gGGGMMGGJGGGGGGGGGGGGGGGGGG",
"GGGGGGGJHGGGGGGGGGGGGGGG000jj.GGG-85yGMMMMMGHJGGGGGGGGGGGGGGGGGG",
"GGGGGGGJHGGGGGGGGCGGGGG000pMM3GGGX>0eGMMMMGGHGGGGGGGGGGGGGGGGGGG",
"GGGGGGGHHGGGGGGGGCGGGGG00yfMz9EGGX00EGMMMEEGJJGGGGGGGGGGGGGGGGGG",
"GGGGGGGHGGGGGGGGGGGGGG204kchydEGXXGEEMMvMEEGJLGGGGGGGGGGGGGGGGGG",
"GGGGGGGHGGGGGGGGGGGGGG03.kk@0FGEEGGGrxxzEGFHLLGGGGGGGGGGGGGGGGGG",
"GGGGGGGHGGGGGGGGGGGGGG8o%el9000EEGG,yzzEEGFJLGGGGGGGGGGGGGGGGGGG",
"GGGGGGGHGGGGGGGGGGGGGGoX%8Mp990GGGGGzzzGGGHJLGGGGGGGGGGGCGGGGGGG",
"GGGGGGGGGGGGGGGGGGGGGXXX18kh.#GGGGGGzzGGGHJLGGGGGGGGGGGGCGGGGGGG",
"GGGGGGGGGGGGGGGGGGGGGXXX<2uMh.GGGGGGFFGGHmLLGGGGGGGGGGGCVGGGGGGG",
"GGGGGGGGGGGGGGGGGGGGGGX.22iMMG.G775GGFFJHHLGGGGGGGGGGGGCYGGGGGGG",
"GGGGGFFGGGGGGGGGGGGGGXXX<48kMMGGFGGGGGHnLLLGGGGGGGGGGGGAYGGGGGGG",
"GGGGGGFGGGGGGGGGGGGGGXXX>28FMMMGG3,2HJVLLLGGGGGGGGGGGGVUJGGGGGGG",
"GGGGGGGGGGGGGGGGGGGGGGXX%<8GFGMMMMHHLLJHGGGGGGGGGGGGGGAPJGGGGGGG",
"GGGGGGGGGGGGGGGGGGGGGGGX%3GGFGGMMMnnmGGGGGGGGGGGGGGGGVHLJGGGGGGG",
"GGGGGGGGGGGGGGGGGGGGGGGXX;<GGGGGGGGGGGGGGGGGGGGGGGGGGAUJGGGGGGGG",
"GGGGGGGGGGGGGGGGGGGGGGGGXX2GGGGGGGGGGGGGGGGGGGGGGGGGAYJGGGGGGGGG",
"GGGGGGGGGGGGGGGGGGGGGGGGGX-<GGGGGGGGGGGGGGGGGGGGGGGGSTJGGGGGGGGG",
"GGGGGGGGGGGGGGGGGGGGGGGGGG%4<GGGGGGGGGGGGGGGGGGGGGGZYPJGGGGGGGGG",
"GGGGGGGGGGGGGGGGGGGGGGGGGGG;2GGGGGGGGGGGGGGGGGGGGGZPYJGGGGGGGGGG",
"GGGGGGGGGGGGGGGGGGGGGGGGGGG.;,XGGGGGGGGGGGGGGGGGGHJTUGGGGGGGGGGG",
"GGGGGGGGGGGGGGGGGGGGGGGGGmRGX$X<GGGGGGGGGGGGGGFGAYTUGGGDDGGGGGGG",
"GGGGGGGGGGGGGGGGGGGGGGGGGGmTGXX@$*XGGGGGGGFX@GZPYTYGGGGDDGGGGGGG",
"GGGGGGGGGGGGGGGGGGGGGGGGGGGTTGGXXXXXXXXXXX=rGATTTTTGGGGDDGGGGDDG",
"GGGGGGGGGGGGGGGGGGGGGGGGGGGGTTGGFGXXXXX. ikJJTTTTDDGGGGDDGGGGDDG",
"GGGGGIIGGGGGGGGGGGGGGGGGGDDGGTTTGGGGGGGAJJPTTTTTGGGDDGGGGGGDDGGG",
"GGGGGIIGGGGGGGGGGGGGGGGGGDDGGGTTTTTTTTTTYTTTTTGGGGGDDGGGGGGDDGGG",
"IGGGGIIGGGGIIGGGGGGDDGGGGDDGGGGTTTTTTTTTTTTTGGGGGGGGGGGGGGGGGGGI",
"IGGGGIIGGGGIIGGGGGGDDGGGGDDGGGGDDGTTTTTTTTGGGGGGGGGGGGGGGGGGGGGI",
"GIIGGGGGGIIGGGGGGGGGGDDGGGGGGDDGGGGGGGGGGGGGGGGGGGGGGGGGGGGGGGGG",
"GIIGGGGGGIIGGGGGGGGGGDDGGGGGGDDGGGGGGGGGGGGGGGGGGGGGGGGGGGGGGGGG",
"GGGGGGGGGGGGGGGGGGGGGGGGGGGGGGGGGGGGGGGGGGGGGGGGGGGFFGGGGGGGGGGG",
"GGGGGGGGGGGGGGGGGGGGGGGGGGGGGGGGGGGGGGGGGGGGGGGGGGGFGGGGGGGGGGGG",
"GGGGGGGGGGGGGGGGGGGGGGGGGGGGGGGGGGGGGGGGGGGGGGGGGGGGGGGGGGGGGGGG",
"GGGGGGGGGGGGGGGGGGGGGGGGGGGGGGGGGGGGGGGGGGGGGGGGGGGGGGGGGGGGGGGG"
};
