/* XPM */
static char *exit2[] = {
/* columns rows colors chars-per-pixel */
"64 64 79 1 ",
"  c #1A1625",
". c #1E182C",
"X c #20192F",
"o c #211930",
"O c #211931",
"+ c #231A34",
"@ c #231A35",
"# c #261B39",
"$ c #271C3B",
"% c #291C3E",
"& c #2B1D41",
"* c #2D1E45",
"= c #2E1F47",
"- c #2F1F49",
"; c #30204B",
": c #32204D",
"> c #332150",
", c #372356",
"< c #382358",
"1 c #3A245B",
"2 c #3F2560",
"3 c #412561",
"4 c #492564",
"5 c #4B2465",
"6 c #4C2466",
"7 c #4D2466",
"8 c #4E2467",
"9 c #502467",
"0 c #512468",
"q c #552469",
"w c #5C246C",
"e c #5E246D",
"r c #60246E",
"t c #642470",
"y c #692372",
"u c #6D2374",
"i c #6F2375",
"p c #702375",
"a c #742377",
"s c #7D267F",
"d c #802883",
"f c #872C8C",
"g c #8D2F94",
"h c #93329C",
"j c #96339F",
"k c #9835A2",
"l c #9E38A9",
"z c #B248AF",
"x c #B84EAE",
"c c #BD53AD",
"v c #BF55AC",
"b c #AC42B1",
"n c #C056AC",
"m c #C55BAA",
"M c #CB61A9",
"N c #CC62A8",
"B c #CF65A8",
"V c #D167A7",
"C c #40B088",
"Z c #6FC79F",
"A c #70C8A0",
"S c #DF86B4",
"D c #E18CB8",
"F c #E290BA",
"G c #E497BE",
"H c #88D8B8",
"J c #E59AC0",
"K c #E8A3C6",
"L c #E9A9C9",
"P c #EBAFCD",
"I c #ECB2CF",
"U c #EEB7D2",
"Y c #F0BDD6",
"T c #A0E0C0",
"R c #F1C3DA",
"E c #F5CFE1",
"W c #F6D1E2",
"Q c #F6D4E4",
"! c #F8D9E7",
/* pixels */
"AAAAAAAAAAAAAAAAAAAAAAAAAAAAAAAAAAAAAAAAAAAAAAAAAAAAAAAAAAAAAAAA",
"AAAAAAAAAAAAAAAAAAAAAAAAAAAAAAAAAAAAAAAAAAAAAAAAAAAAAAAAAAAAAAAA",
"AAAAAAAAAAAAAAAAAAAAAAAAAAAAAAAAAAAAAAAAAAAAAAAAAAAAAAAAAAAAAAAA",
"AAAAAAAAAAAAAAAAAAAAAAAAAAAAAAAAAAAAAAAAAAAAAAAAAAAAAAAAAAAAAAAA",
"AAAAAAAAAAAAAAAAAAAAAAAAAAAAAAAAAAAAAAAAAAAAAAAAAAAAAAAAAAAAAAAA",
"AAAAAAAAAATTAAAAAAAAAAAAAAAAAAAAAAAAAAAAAAAAAAAAAAAAAAAAAAAAAAAA",
"AAAAAAAAAATTAAAAAAAAAAAAAAAAAAAAAAAAAAAAAAAAAAAAAAAAAAAAAAAAAAAA",
"AAAATTAAAATTAAAATTAAAAAAAAAAAAAAAAAAAAAAAAAAAAAAAAAAAAAAAAAAAAAA",
"AAAATTAAAATTAAAATTAAAAAAAAAAAAAAAAAAAZZAAAAAAAAAAAAAAAAAAAAAAAAA",
"AAAAAATTAAAAAATTAAAAAAVVVVVVVVAAAAAAAZZAAAAAAAAAAAAAAAAAAAAAAAAA",
"AAAAAATTAAAAAATTAAAVVVVVVVVVVVVVVVAAAAAAAAAAAAAAAAAAAAAAAAAAAAAA",
"AAAAAAAAAAAAAAAAAVVVVVVVVVVVVVVVVVVAAAAAAAAAAAAAAAAAAAAAAAAAAAAA",
"AAAAAAAAAAAAAAAAVVVVVVVVVAAAAAAAVVVVAAAAAAAAAAAAAAAAAAAAAAAAAAAA",
"AAAAAAAAAAAAAAVVVVVVVAAAAAAAAAAAAVVVVVAAAAAAAAAAAAAAAAAAAAAAAAAA",
"AAAAAAAAAAAAAVVVVVAAAAAAAAAAAAAAAAAVVVAAAAAAAAAAAAAAAAAAAAAAAAAA",
"AAAAAAAAAAAAVVVVVAAAAAAAAAAAAAAAAAAAVVVAAAAAAAAAAAAAAAAAAAAAAAAA",
"AAAAAAAAAAAVVVVAAAAAAAAAAAAAAAAAAAAAAVVAAAAAAAAAAAAAAAAAAAAAAAAA",
"AAAAAAAAAAAVMvKAAAAAAAAAAAAAAAAAAAAAAAVVAAAAAAAAAAAAAAAAAAAAAAAA",
"AAAAAAAAAAVVbFEAAAAAAAACCAAZAAAAAAAAAAVVAAAAAAAAAAAAAAAAAAAAAAAA",
"AAAAAAAAAVVzMWAAAAAAAAACCA@@6=+AAAAAAAAVVAAAAAAAAAAAAAAAAAAAAAAA",
"AAAAAAAAAVnxEAAAACCAAAACC646774:&ppAAmmVVAAAAAAAAAAAAAAAAAAAAAAA",
"AAAAAAAAVVzYEAAAACCAAAA784AAACC76>pAAAmmBVAAAAAAAAAAAAAAAAAAAAAA",
"AAAAAAAAVnMWAAAAAAACCA42AAACCAAAq-qpAAmmfAAAAAAAAAAAAAAAACCAAAAA",
"AAAAAAAWmlRAAAAAAAACRh%AAAACCAAAAq#tpAAmnAAAAAAAAAAAAAAAACCAAAAA",
"CAAAAAARvIEZAAAAAAARGAAAAAAAAAAAAAqrpAAmmAAAAAAAAAACCAAAACCAAAAC",
"CAAAAAQDzRAZAAAAAAQK:AAAAAAAAAAAAArupAAmmmVAAAAAAAACCAAAACCAAAAC",
"AAAAAARmMWAAAAAAAAEkAAAAAA$:>><0AArupAAmmgAAAAAAAAAAACCAAAAAACCA",
"AAAAAAAkRAAAAAAAA!LAAAAAAAAAAo>&9AtppAAmmnAAAAAAAAAAACCAAAAAACCA",
"AAAAAAAcEAAAAAAAAQKZZAAAAAA-XA@@44ppppAmmmAAAAAAAAAAAAAAAAAAAAAA",
"AAAAAAAWEAAAAAAAARPAZAAAAA%%oAAA 6pupAmmmm0AAGAAAAAAAAAAAAAAAAAA",
"AAAAAAAYEAAAAAAAAAMAAAAApp. AAAAZAeypAAmmm0AAGAAAAAAAAAAAAAAAAAA",
"AAAAAAAEEAAAAAAAARAAAAApp4enAAAAAA.rTAAmmA0AAAAAAAAAAAAAAAAAAAAA",
"AAAAAAAEEAAAAAAAARAAAAApu:smATTAAoXTTAAmmT0AUmWAAAAAAAAAAAAAAAAA",
"AAAAAAAEAAAAAAAAAAAAAApppqmmATT0AA=TTZAmAT7APDAAAAAAAAAAAAAAAAAA",
"AAAAAAAEAAAAAAAAAAAAAAppppkm  ATTAAAAAATTAAEDGZAAAAAAAAAAAAAAAAA",
"AAAAAAAEAAAAAAAAAAAAApppppmmj ATTAAAAAATTAAEzZAAAAAAAAAAAAAAAAAA",
"AAAAAAAEAAAAAAAAAAAAApppppmnxq&ZoAAAAAAAAAABVAAAAAAAAAAARAAAAAAA",
"AAAAAAAAAAAAAAAAAAAAAppppptante%&AAAAAAAAAJNVAAAAAAAAAAmRAAAAAAA",
"AAAAAAAAAAAAAAAAAAAAAppppyemmt9 >+AAAAA0AAVVAAAAAAAAAAAURAAAAAAA",
"AAAAAAAAAAAAAAAAAAAAApppurrANZe&>;-AAA0AAVVAAAAAAAAAAA-LRAAAAAAA",
"AAAAAZZAAAAAAAAAAAAAApppurrAVVAAAAAAAAAAVVVAAAAAAAAAAAkRRAAAAAAA",
"AAAAAZZAAAAAAAAAAAAAApppurrAAVVAAAAAAAVVVVAAAAAAAAAAA*FRRAAAAAAA",
"AAAAAAAAAAAAAAAAAAAAApppurrAAAVVVVBVVVVVAAAAAAAAAAAAA3RR!AAAAAAA",
"AAAAAAAAAAAAAAAAAAAAAppp<rrAAAAAAVVVVVAAAAAAAAAAAAAA7GRW!AAAAAAA",
"AAAAAAAAAAAAAAAAAAAAApppo7rAAAAAAAAAAAAAAAAAAAAAAAA$rKR!!AAAAAAA",
"AAAAAAAAAAAAAAAAAAAAAApp:XrAAAAAAAAAAAAAAAAAAAAAAA%3FRR!AAAAAAAA",
"AAAAAAAAAAAAAAAAAAAAAApprX4rAAAAAAAAAAAAAAAAAAAAAA<VRR!AAAAAAAAA",
"AAAAAAAAAAAAAAAAAAAAAApprX=rrAAAAAAAAAAAAAAAAAAAA1kYR!!AAAAAAAAA",
"AAAAAAAAAAAAAAAAAAAAAAAup3=6eZZAAAAAAAAAAAAAAAAA9dRRR!AAAAAAAAAA",
"AAAAAAAAAAAAAAAAAAAAAAAApp&46qAAAAAAAAAAAAAAAA244LRRAAAAAAAAAAAA",
"AAAAAAAAAAAAAAAAAAAAAAAAppA-66qrAAAAAAAAAAAA&2777URZAAACCAAAAAAA",
"AAAAAAAAAAAAAAAAAAAAAAAAAppA%3467;+AAAAAAAA7477AZAAAAAACCAAAAAAA",
"AAAAAAAAAAAAAAAAAAAAAAAAAppAA+=4743%%%%%777777AAACCAAAACCAAAACCA",
"AAAAAAAAAAAAAAAAAAAAAAAAAAAAAAXo,<9979797777AAAAACCAAAACCAAAACCA",
"AAAAAHHAAAAAAAAAAAAAAAAAACCAAAAAoo:::::2AAAAAAAAAAACCAAAAAACCAAA",
"AAAAAHHAAAAAAAAAAAAAAAAAACCAAAAAZAAZAAAAAAAAAAAAAAACCAAAAAACCAAA",
"HAAAAHHAAAAHHAAAAAACCAAAACCAAAACCAAAAAAAAAAAAAAAAAAAAAAAAAAAAAAH",
"HAAAAHHAAAAHHAAAAAACCAAAACCAAAACCAAAAAAAAAAAAAAAAAAAAAAAAAAAAAAH",
"AHHAAAAAAHHAAAAAAAAAACCAAAAAACCAAAAAAAAAAAAAAAAAAAAAAAAAAAAAAAAA",
"AHHAAAAAAHHAAAAAAAAAACCAAAAAACCAAAAAAAAAAAAAAAAAAAAAAAAAAAAAAAAA",
"AAAAAAAAAAAAAAAAAAAAAAAAAAAAAAAAAAAAAAAAAAAAAAAAAAAZZAAAAAAAAAAA",
"AAAAAAAAAAAAAAAAAAAAAAAAAAAAAAAAAAAAAAAAAAAAAAAAAAAZZAAAAAAAAAAA",
"AAAAAAAAAAAAAAAAAAAAAAAAAAAAAAAAAAAAAAAAAAAAAAAAAAAAAAAAAAAAAAAA",
"AAAAAAAAAAAAAAAAAAAAAAAAAAAAAAAAAAAAAAAAAAAAAAAAAAAAAAAAAAAAAAAA"
};
