/* XPM */
static char *exit14[] = {
/* columns rows colors chars-per-pixel */
"64 64 74 1 ",
"  c black",
". c #1A1625",
"X c #1C1729",
"o c #1E182C",
"O c #20192F",
"+ c #211931",
"@ c #231A34",
"# c #251B38",
"$ c #261B39",
"% c #271C3B",
"& c #281C3D",
"* c #291C3E",
"= c #2B1D41",
"- c #2D1E45",
"; c #2E1F47",
": c #2E1F48",
"> c #30204A",
", c #32204D",
"< c #332150",
"1 c #352253",
"2 c #362255",
"3 c #372356",
"4 c #382358",
"5 c #3A245B",
"6 c #3F2560",
"7 c #492564",
"8 c #4B2465",
"9 c #502467",
"0 c #552469",
"q c #5C246C",
"w c #642470",
"e c #692372",
"r c #702375",
"t c #742377",
"y c #7A257C",
"u c #7D267F",
"i c #7E2781",
"p c #822985",
"a c #8D2F94",
"s c #8E2F95",
"d c #903097",
"f c #96339F",
"g c #9835A2",
"h c #9C36A6",
"j c #9E38A9",
"k c #A23AAE",
"l c #B248AF",
"z c #B54BAF",
"x c #B84EAE",
"c c #BD53AD",
"v c #BF55AC",
"b c #AC42B1",
"n c #C056AC",
"m c #C55BAA",
"M c #CB61A9",
"N c #CC62A8",
"B c #CF65A8",
"V c #D167A7",
"C c #D269A6",
"Z c #D76DA5",
"A c #40B088",
"S c #6FC79F",
"D c #70C8A0",
"F c #E18CB8",
"G c #88D8B8",
"H c #E59AC0",
"J c #E9A9C9",
"K c #EEB7D2",
"L c #F0BDD6",
"P c #A0E0C0",
"I c #F0C0D8",
"U c #F1C3DA",
"Y c #F5CFE1",
"T c #F6D1E2",
/* pixels */
"DDDDDDDDDDDDDDDDDDDDDDDDDDDDDDDDDDDDDDDDDDDDDDDDDDDDDDDDDDDDDDDD",
"DDDDDDDDDDDDDDDDDDDDDDDDDDDDDDDDDDDDDDDDDDDDDDDDDDDDDDDDDDDDDDDD",
"DDDDDDDDDDDDDDDDDDDDDDDDDDDDDDDDDDDDDDDDDDDDDDDDDDDDDDDDDDDDDDDD",
"DDDDDDDDDDDDDDDDDDDDDDDDDDDDDDDDDDDDDDDDDDDDDDDDDDDDDDDDDDDDDDDD",
"DDDDDDDDDDDDDDDDDDDDDDDDDDDDDDDDDDDDDDDDDDDDDDDDDDDDDDDDDDDDDDDD",
"DDDDDDDDDDPPDDDDDDDDDDDDDDDDDDDDDDDDDDDDDDDDDDDDDDDDDDDDDDDDDDDD",
"DDDDDDDDDDPPDDDDDDDDDDDDDDDDDDDDDDDDDDDDDDDDDDDDDDDDDDDDDDDDDDDD",
"DDDDPPDDDDPPDDDDPPDDDDDDDDDDDDDDDDDDDDDDDDDDDDDDDDDDDDDDDDDDDDDD",
"DDDDPPDDDDPPDDDDPPDDDDDDDDDDDDDDDDDDDSSDDDDDDDDDDDDDDDDDDDDDDDDD",
"DDDDDDPPDDDDDDPPDDDDDDDDDDDDDDDDDDDDDSSDDDDDDDDDDDDDDDDDDDDDDDDD",
"DDDDDDPPDDDDDDPPDDDDxxxxxxxnZZZZDDDDDDDDDDDDDDDDDDDDDDDDDDDDDDDD",
"DDDDDDDDDDDDDDDDDDDxxxxxxxxxvVZZZZDDDDDDDDDDDDDDDDDDDDDDDDDDDDDD",
"DDDDDDDDDDDDDDDDDxxxxlllvBBBVZZZZZZDDDDDDDDDDDDDDDDDDDDDDDDDDDDD",
"DDDDDDDDDDDDDDDDxxxlbgssssssjZZZZZZZZDDDDDDDDDDDDDDDDDDDDDDDDDDD",
"DDDDDDDDDDDDDDxxxxhfDDDDDDDDD 7mZZZZZZDDDDDDDDDDDDDDDDDDDDDDDDDD",
"DDDDDDDDDDDDDxxxlfDDDDDDDDDDDD..=DZZZZZDDDDDDDDDDDDDDDDDDDDDDDDD",
"DDDDDDDDDDDDDxxgdDDDDDDDDDDDDDDD..wNZZZDDDDDDDDDDDDDDDDDDDDDDDDD",
"DDDDDDDDDDDDxxjdDDDDDDDDDDDDDDDDDD..mZZZDDDDDDDDDDDDDDDDDDDDDDDD",
"DDDDDDDDDDDxxkDDDDDDDDDAVVVVVVVVDDD.,NZZDDDDDDDDDDDDDDDDDDDDDDDD",
"DDDDDDDDDDxxlDDDDDDDDDDVVVDDDDDVVVDD.mZZZDDDDDDDDDDDDDDDDDDDDDDD",
"DDDDDDDDDxxzdDDDDAADDVVVVDDDDAADDVDD.@CZZDDDDDDDDDDDDDDDDDDDDDDD",
"DDDDDDDDDxzfDDDDDAADVVVAADDDDAADDDVDD.eZZZDDDDDDDDDDDDDDDDDDDDDD",
"DDDDDDDDxxzDDDDDDDDAVVDDDDDAADDDDDNVD.,NZZDDDDDDDDDDDDDDDAADDDDD",
"DDDDDDDDxxDDDDDDDDDVMDDDDDDAADDDDDmDDDXmZZDDDDDDDDDDDDDDDAADDDDD",
"ADDDDDDxxhDDDDDDDDDbvDDDDDDDDDDDDDDmDD.nZZCDDDDDDDDAADDDDAADDDDA",
"ADDDDDDxzDDDDDDDDDmBDDDDDDDDDDDDDDDmmD..ZZmDDDDDDDDAADDDDAADDDDA",
"DDDDDDDxzDDDDDDDDBmHDDDDDDD<2,D>>DDmxDD.ZZmDDDDDDDDDDAADDDDDDAAD",
"DDDDDDDxfDDDDDDDDIBDDDDD,2DD<221;qDmxDD.ZZeDDDDDDDDDDAADDDDDDAAD",
"DDDDDDDDDDDDDDDDDCYSSDDDDDDD.><2.99xmD#.ZCvDDDDDDDDDDDDDDDDDDDDD",
"DDDDDDDDDDDDDDDDDnYSSDDDDDD.X;%:@05xDD7pZy1DDDDDDDDDDDDDDDDDDDDD",
"DDDDDDDDDDDDDDDDDDYDDDDDDD..o;SOD22rPDtZN04DDDDDDDDDDDDDYDDDDDDD",
"DDDDDDDDDDDDDDDDDYYDDDDDDD2%%OoDDD+X.&;mm24DDDDDDDDDDDDDYDDDDDDD",
"DDDDDDDDDDDDDDDDDTDDDDDDDDup&O8SDD..O&9+635DDxDDDDDDDDDDYDDDDDDD",
"DDDDDDDDDDDDDDDDDDIDDDDDDDum&G;:,DS%;#s.53PDhxDDDDDDDDDDYDDDDDDD",
"DDDDDDDDDDDDDDDDDDDDDDDmmpieDDDP,2,;&X..&,DDlDDDDDDDDDDDYDDDDDDD",
"DDDDDDDDDDDDDDDDDDDDDDDmmDZr+DDPP>;&%....DDdxDDDDDDDDDDYYDDDDDDD",
"DDDDDDDDDDDDDDDDDDDDDDmmmDZZ.DDDDDD.X....DDxxDDDDDDDDDDYKDDDDDDD",
"DDDDDDDDDDDDDDDDDDDDDDmmmmDZr.DD>#;;....DDxxDDDDDDDDDDDYYDDDDDDD",
"DDDDDDDDDDDDDDDDDDDDDDmmmmDZV9D22222..DDDDxDDDDDDDDDDDDYFDDDDDDD",
"DDDDDDDDDDDDDDDDDDDDDDmmmDDDZZ&D2131DDDDDxxDDDDDDDDDDDDYgDDDDDDD",
"DDDDDDDDDDDDDDDDDDDDDDmmmDDDZZZp7.,183DfxDDDDDDDDDDDDDTNxLDDDDDD",
"DDDDDDDDDDDDDDDDDDDDDZmmmDDDDDZZZDDDlkkxxDDDDDDDDDDDDDIcFTDDDDDD",
"DDDDDDDDDDDDDDDDDDDDDDmmmDDDDDDDZZZmnxDDDDDDDDDDDDDDDTKzLDDDDDDD",
"DDDDDDDDDDDDDDDDDDDDDDDmmDDDDDDDDDZDDDDDDDDDDDDDDDDDDTxmTDDDDDDD",
"DDDDDDDDDDDDDDDDDDDDDDDmmDDDDDDDDDDDDDDDDDDDDDDDDDDDTVlVTDDDDDDD",
"DDDDDDDDDDDDDDDDDDDDDDDNmmDDDDDDDDDDDDDDDDDDDDDDDDDYIcVVDDDDDDDD",
"DDDDDDDDDDDDDDDDDDDDDDVVNmDDDDDDDDDDDDDDDDDDDDDDDDDTNxVVDDDDDDDD",
"DDDDDDDDDDDDDDDDDDDDDDDVVDDDDDDDDDDDDDDDDDDDDDDDDDIFbVVDDDDDDDDD",
"DDDDDDDDDDDDDDDDDDDDDDDVVDDDDDDDDDDDDDDDDDDDDDDDDTJjVVDDDDDDDDDD",
"DDDDDDDDDDDDDDDDDDDDDDDDVVDDDDDDDDDDDDDDDDDDDDDDDLlNVDDDDDDDDDDD",
"DDDDDDDDDDDDDDDDDDDDDDDDVVVDDDDDDDDDDDDDDDDDDDDDDVCVVDDAADDDDDDD",
"DDDDDDDDDDDDDDDDDDDDDDDDDVVVDDDDDDDDDDDDDDDDDDDVVVVVDDDAADDDDDDD",
"DDDDDDDDDDDDDDDDDDDDDDDDDDVVVDDDDDDDDDDDDDDDDDVVVVVDDDDAADDDDAAD",
"DDDDDDDDDDDDDDDDDDDDDDDDDDVVVVDDDDDDDDDDDDDDVVVVVVADDDDAADDDDAAD",
"DDDDDGGDDDDDDDDDDDDDDDDDDAADVVVVDDDDDDDDVVVVVVVVDDDAADDDDDDAADDD",
"DDDDDGGDDDDDDDDDDDDDDDDDDAADDVVVVVVVVVVVVVVVVVVDDDDAADDDDDDAADDD",
"GDDDDGGDDDDGGDDDDDDAADDDDAADDDVVVVVVVVVVVVVVVDDDDDDDDDDDDDDDDDDG",
"GDDDDGGDDDDGGDDDDDDAADDDDAADDDDAVVVVVVVVVVVVDDDDDDDDDDDDDDDDDDDG",
"DGGDDDDDDGGDDDDDDDDDDAADDDDDDAADDDDDDDDDDDDDDDDDDDDDDDDDDDDDDDDD",
"DGGDDDDDDGGDDDDDDDDDDAADDDDDDAADDDDDDDDDDDDDDDDDDDDDDDDDDDDDDDDD",
"DDDDDDDDDDDDDDDDDDDDDDDDDDDDDDDDDDDDDDDDDDDDDDDDDDDSSDDDDDDDDDDD",
"DDDDDDDDDDDDDDDDDDDDDDDDDDDDDDDDDDDDDDDDDDDDDDDDDDDSDDDDDDDDDDDD",
"DDDDDDDDDDDDDDDDDDDDDDDDDDDDDDDDDDDDDDDDDDDDDDDDDDDDDDDDDDDDDDDD",
"DDDDDDDDDDDDDDDDDDDDDDDDDDDDDDDDDDDDDDDDDDDDDDDDDDDDDDDDDDDDDDDD"
};
