/* XPM */
static char *exit9[] = {
/* columns rows colors chars-per-pixel */
"64 64 51 1 ",
"  c #1A1625",
". c #1C1729",
"X c #201930",
"o c #231A34",
"O c #231A35",
"+ c #261B39",
"@ c #271C3B",
"# c #291C3E",
"$ c #2B1D41",
"% c #2D1E45",
"& c #30204A",
"* c #32204D",
"= c #332150",
"- c #352253",
"; c #372356",
": c #382358",
"> c #3A245B",
", c #412561",
"< c #4A2465",
"1 c #4C2466",
"2 c #502467",
"3 c #552469",
"4 c #5C246C",
"5 c #5E246D",
"6 c #60246E",
"7 c #672371",
"8 c #642470",
"9 c #692372",
"0 c #6D2374",
"q c #702375",
"w c #742377",
"e c #772378",
"r c #7A257C",
"t c #7B257D",
"y c #7C257E",
"u c #7D267F",
"i c #7E2781",
"p c #802883",
"a c #822985",
"s c #872C8C",
"d c #8D2F94",
"f c #903097",
"g c #93329C",
"h c #9C36A6",
"j c #9E38A9",
"k c #A43BB1",
"l c #40B088",
"z c #6FC79F",
"x c #70C8A0",
"c c #88D8B8",
"v c #A0E0C0",
/* pixels */
"xxxxxxxxxxxxxxxxxxxxxxxxxxxxxxxxxxxxxxxxxxxxxxxxxxxxxxxxxxxxxxxx",
"xxxxxxxxxxxxxxxxxxxxxxxxxxxxxxxxxxxxxxxxxxxxxxxxxxxxxxxxxxxxxxxx",
"xxxxxxxxxxxxxxxxxxxxxxxxxxxxxxxxxxxxxxxxxxxxxxxxxxxxxxxxxxxxxxxx",
"xxxxxxxxxxxxxxxxxxxxxxxxxxxxxxxxxxxxxxxxxxxxxxxxxxxxxxxxxxxxxxxx",
"xxxxxxxxxxxxxxxxxxxxxxxxxxxxxxxxxxxxxxxxxxxxxxxxxxxxxxxxxxxxxxxx",
"xxxxxxxxxxvvxxxxxxxxxxxxxxxxxxxxxxxxxxxxxxxxxxxxxxxxxxxxxxxxxxxx",
"xxxxxxxxxxvvxxxxxxxxxxxxxxxxxxxxxxxxxxxxxxxxxxxxxxxxxxxxxxxxxxxx",
"xxxxvvxxxxvvxxxxvvxxxxxxxxxxxxxxxxxxxxxxxxxxxxxxxxxxxxxxxxxxxxxx",
"xxxxvvxxxxvvxxxxvvxxxxxxxxxxxxxxxxxxxxzxxxxxxxxxxxxxxxxxxxxxxxxx",
"xxxxxxvvxxxxxxvvxxxxxxxxxxxxxxxxxxxxxxzxxxxxxxxxxxxxxxxxxxxxxxxx",
"xxxxxxvvxxxxxxvvxxxxaaaaaaaaaaaaaxxxxxxxxxxxxxxxxxxxxxxxxxxxxxxx",
"xxxxxxxxxxxxxxxxxxxaaaaaaaaaaaaaaaaxxxxxxxxxxxxxxxxxxxxxxxxxxxxx",
"xxxxxxxxxxxxxxxxxaaaaappipiipaaaaaaaxxxxxxxxxxxxxxxxxxxxxxxxxxxx",
"xxxxxxxxxxxxxxxxxaair96668769yyaaaaaaxxxxxxxxxxxxxxxxxxxxxxxxxxx",
"xxxxxxxxxxxxxxxxaaw9669q,00000qwraaaaaxxxxxxxxxxxxxxxxxxxxxxxxxx",
"xxxxxxxxxxxxxxxay0693xxxxxxxxwwqq9aaaaaxxxxxxxxxxxxxxxxxxxxxxxxx",
"xxxxxxxxxxxxxxx0843xxxxxxxxxxxxwqe2yaaaaxxxxxxxxxxxxxxxxxxxxxxxx",
"xxxxxxxxxxxxxxw88*xxxxxxxxxxxxxxxqe3qaaaaxxxxxxxxxxxxxxxxxxxxxxx",
"xxxxxxxxxxxxx881xxxxxxxllxxxxxyyxxeq3taaaxxxxxxxxxxxxxxxxxxxxxxx",
"xxxxxxxxxxxx883xxxxxxxxllxxxxxxyyxxeqyaaaxxxxxxxxxxxxxxxxxxxxxxx",
"xxxxxxxxxxx884+xxllxxxxllxxxxllxxyyxwwpaaaxxxxxxxxxxxxxxxxxxxxxx",
"xxxxxxxxxxx86&xxxllxxxxllxxxxllxxyyxxwtaaaxxxxxxxxxxxxxxxxxxxxxx",
"xxxxxxxxxx88-xxxxxxllxxxxxxllxxxxxyyxwwpaaxxxxxxxxxxxxxxxllxxxxx",
"xxxxxxxxx888xxxxxxxllxxxxxxllxxxxxxyywwpaaaxxxxxxxxxxxxxxllxxxxx",
"lxxxxxxxx86xxxxxxxxxxxxxxxxxxxxxxxxryxeyaaaxxxxxxxxllxxxxllxxxxl",
"lxxxxxxxx84xxxxxxxxxxxxxxxxxxxxxxxxeyxqyaaaxxxxxxxxllxxxxllxxxxl",
"xxxxxxxx88xxxxxxxxxxxxxxxxx666xxxxxyyxeeaaaxxxxxxxxxxllxxxxxxllx",
"xxxxxxxx88xxxxxxxxxxxxxxxx4:>66%xxxqsxeqaaaxxxxxxxxxxllxxxxxxllx",
"xxxxxxx88xxxxxxxxxxzzxxx3+#@333$.xkptxrwayaxxxxxxxxxxxxxxxxxxxxx",
"xxxxxxx88xxxxxxxxxxxzxxx-q@OX   :gxkhsaya,axx6xxxxxxxxxxxxxxxxxx",
"xxxxxxx88xxxxxxxxxxxxxxxgkOXOxxx5xxkjyaaa,xxx6xxxxxxxxxxxxxxxxxx",
"xxxxxxx8xxxxxxxxxxxxxxxdkk>yxxxxxx#g<aaaapxxxxxxxxxxxxxxxxxxxxxx",
"xxxxxxx8xxxxxxxxxxxxxx5kkktapvvxx.#$vaaaapvx6xxxxxxxxxxxxxxxxxxx",
"xxxxxxx8xxxxxxxxxxxxxxpkkx,pevvx.*-#vz989*vx7xxxxxxxxxxxxxxxxxxx",
"xxxxxxx6xxxxxxxxxxxxx@kkkfqt71xvvxxxx@XXXXx66xxxxxxxxxxxxxxxxxxx",
"xxxxxxxxxxxxxxxxxxxxx@kfdxpt7<xvvxxxxOOOoxx6xxxxxxxxxxxxxxxxxxxx",
"xxxxxxxxxxxxxxxxxxxxx1hyyxaaexxxxxxxoOooxx66xxxxxxxxxxxxxxxxxxxx",
"xxxxxxxxxxxxxxxxxxxxxjhyrhaayqxxxxxxXXoxx:qxxxxxxxxxxxxxxxxxxxxx",
"xxxxxxxxxxxxxxxxxxxxxssy0kxaaexx666212xx69xxxxxxxxxxxxxxxxxxxxxx",
"xxxxxxxxxxxxxxxxxxxxxyyy1xxaaiee66666xx60pxxxxxxxxxxxxxxxxxxxxxx",
"xxxxxxxxxxxxxxxxxxxxxyyy,xxxppayeq606689axxxxxxxxxxxxxxxxxxxxxxx",
"xxxxxxxxxxxxxxxxxxxxxyyy6xxxxaaaiqqqqqyaaxxxxxxxxxxxxxxxxxxxxxxx",
"xxxxxxxxxxxxxxxxxxxxxyyy5xxxxxaaaaaaaaxxxxxxxxxxxxxxxxxxxxxxxxxx",
"xxxxxxxxxxxxxxxxxxxxxxyyxxxxxxxxxaaxxxxxxxxxxxxxxxxxxxxxxxxxxxxx",
"xxxxxxxxxxxxxxxxxxxxxxyyxxxxxxxxxxxxxxxxxxxxxxxxxxxxxxxxxxxxxxxx",
"xxxxxxxxxxxxxxxxxxxxxxyyyxxxxxxxxxxxxxxxxxxxxxxxxxxxxxxxxxxxxxxx",
"xxxxxxxxxxxxxxxxxxxxxxyyyxxxxxxxxxxxxxxxxxxxxxxxxxxxxxxxxxxxxxxx",
"xxxxxxxxxxxxxxxxxxxxxxxyyyxxxxxxxxxxxxxxxxxxxxxxxxxxxxxxxxxxxxxx",
"xxxxxxxxxxxxxxxxxxxxxxxyyyyxxxxxxxxxxxxxxxxxxxxxxxxxxxxxxxxxxxxx",
"xxxxxxxxxxxxxxxxxxxxxxxxyyyxxxxxxxxxxxxxxxxxxxxxxxxxxxxxxxxxxxxx",
"xxxxxxxxxxxxxxxxxxxxxxxxyyyxxxxxxxxxxxxxxxxxxxxxxxxxxxxllxxxxxxx",
"xxxxxxxxxxxxxxxxxxxxxxxxxyyyxxxxxxxxxxxxxxxxxxxxxxxxxxxllxxxxxxx",
"xxxxxxxxxxxxxxxxxxxxxxxxxyyyyxxxxxxxxxxxxxxxxxxxxllxxxxllxxxxllx",
"xxxxxxxxxxxxxxxxxxxxxxxxxxxyyyxxxxxxxxxxxxxxxxxxxllxxxxllxxxxllx",
"xxxxxccxxxxxxxxxxxxxxxxxxllxyyyyxxxxxxxxxxxxxxxxxxxllxxxxxxllxxx",
"xxxxxccxxxxxxxxxxxxxxxxxxllxxxyyytxxxxxxxxxxxxxxxxxllxxxxxxllxxx",
"cxxxxccxxxxccxxxxxxllxxxxllxxxxlyyyyxxxxxxxxxxxxxxxxxxxxxxxxxxxc",
"cxxxxccxxxxccxxxxxxllxxxxllxxxxllxyyxxxxxxxxxxxxxxxxxxxxxxxxxxxc",
"xccxxxxxxccxxxxxxxxxxllxxxxxxllxxxxxxxxxxxxxxxxxxxxxxxxxxxxxxxxx",
"xccxxxxxxccxxxxxxxxxxllxxxxxxllxxxxxxxxxxxxxxxxxxxxxxxxxxxxxxxxx",
"xxxxxxxxxxxxxxxxxxxxxxxxxxxxxxxxxxxxxxxxxxxxxxxxxxxxxxxxxxxxxxxx",
"xxxxxxxxxxxxxxxxxxxxxxxxxxxxxxxxxxxxxxxxxxxxxxxxxxxxxxxxxxxxxxxx",
"xxxxxxxxxxxxxxxxxxxxxxxxxxxxxxxxxxxxxxxxxxxxxxxxxxxxxxxxxxxxxxxx",
"xxxxxxxxxxxxxxxxxxxxxxxxxxxxxxxxxxxxxxxxxxxxxxxxxxxxxxxxxxxxxxxx"
};
