/* XPM */
static char *exit19[] = {
/* columns rows colors chars-per-pixel */
"64 64 56 1 ",
"  c #1E182C",
". c #201930",
"X c #211930",
"o c #221A33",
"O c #251B38",
"+ c #261B39",
"@ c #261B3A",
"# c #291C3E",
"$ c #291D3F",
"% c #2B1D42",
"& c #2D1E45",
"* c #2F1F49",
"= c #30204A",
"- c #32204D",
"; c #332150",
": c #352253",
"> c #362255",
", c #3A245B",
"< c #412561",
"1 c #492564",
"2 c #4B2465",
"3 c #502467",
"4 c #552469",
"5 c #5C246C",
"6 c #60246E",
"7 c #692372",
"8 c #6D2374",
"9 c #6F2375",
"0 c #702375",
"q c #742377",
"w c #772378",
"e c #7A257C",
"r c #7D267F",
"t c #7E2781",
"y c #802883",
"u c #822985",
"i c #872C8C",
"p c #8D2F94",
"a c #8E2F95",
"s c #903097",
"d c #93329C",
"f c #96339F",
"g c #9835A2",
"h c #9C36A6",
"j c #9E38A9",
"k c #A23AAE",
"l c #A43BB1",
"z c #A63CB3",
"x c #A73DB3",
"c c #40B088",
"v c #6FC79F",
"b c #70C8A0",
"n c #88D8B8",
"m c #EEB7D2",
"M c #F0BDD6",
"N c #A0E0C0",
/* pixels */
"bbbbbbbbbbbbbbbbbbbbbbbbbbbbbbbbbbbbbbbbbbbbbbbbbbbbbbbbbbbbbbbb",
"bbbbbbbbbbbbbbbbbbbbbbbbbbbbbbbbbbbbbbbbbbbbbbbbbbbbbbbbbbbbbbbb",
"bbbbbbbbbbbbbbbbbbbbbbbbbbbbbbbbbbbbbbbbbbbbbbbbbbbbbbbbbbbbbbbb",
"bbbbbbbbbbbbbbbbbbbbbbbbbbbbbbbbbbbbbbbbbbbbbbbbbbbbbbbbbbbbbbbb",
"bbbbbbbbbbbbbbbbbbbbbbbbbbbbbbbbbbbbbbbbbbbbbbbbbbbbbbbbbbbbbbbb",
"bbbbbbbbbbNNbbbbbbbbbbbbbbbbbbbbbbbbbbbbbbbbbbbbbbbbbbbbbbbbbbbb",
"bbbbbbbbbbNNbbbbbbbbbbbbbbbbbbbbbbbbbbbbbbbbbbbbbbbbbbbbbbbbbbbb",
"bbbbNNbbbbNNbbbbNNbbbbbbbbbbbbbbbbbbbbbbbbbbbbbbbbbbbbbbbbbbbbbb",
"bbbbNNbbbbNNbbbbNNbbbbbbbbbbbbbbbbbbbvvbbbbbbbbbbbbbbbbbbbbbbbbb",
"bbbbbbNNbbbbbbNNbbbbbbbbbbbbbbbbbbbbbvvbbbbbbbbbbbbbbbbbbbbbbbbb",
"bbbbbbNNbbbbbbNNbbbbbbbbbbbbbbbbbbbbbbbbbbbbbbbbbbbbbbbbbbbbbbbb",
"bbbbbbbbbbbbbbbbbbbbbbbmmmmmmbbbbbbbbbbbbbbbbbbbbbbbbbbbbbbbbbbb",
"bbbbbbbbbbbbbbbbMbbbbmmmmbbbbbbbbbbbbbbbbbbbbbbbbbbbbbbbbbbbbbbb",
"bbbbbbbbbbbbbbMMMmmmmmmmmmmmmbbbbbbbbbbbbbbbbbbbbbbbbbbbbbbbbbbb",
"bbbbbbbbbbbbbMMmmmmmbbbbbbbbbbbbbbbbbbbbbbbbbbbbbbbbbbbbbbbbbbbb",
"bbbbbbbbbbbbMMMmmmmbbbbbbbbbbbbbbbbbbbbbbbbbbbbbbbbbbbbbbbbbbbbb",
"bbbbbbbbbbbMMMmmmbbbbbbbbbbbbbbbbbbbbbbbbbbbbbbbbbbbbbbbbbbbbbbb",
"bbbbbbbbbbbMMmmmbbbbbbbbbbbbbbbbbbbbbbbbbbbbbbbbbbbbbbbbbbbbbbbb",
"bbbbbbbbbbMMmmbbbbbbbbbcxxxxxxxxbbbbbbbbbbbbbbbbbbbbbbbbbbbbbbbb",
"bbbbbbbbbMMmmbbbbbbbbbbxxxxxjxxxxxbbbbbbbbbbbbbbbbbbbbbbbbbbbbbb",
"bbbbbbbbbMMmmbbbbccbbxxxljhhhhjxxxxvbbbbbbbbbbbbbbbbbbbbbbbbbbbb",
"bbbbbbbbMMmmbbbbbccbxxkkhhbbvcchjxxbbbbbbbbbbbbbbbbbbbbbbbbbbbbb",
"bbbbbbbbMmmmbbbbbbbcxxhbbbbccvbbhjklbbbbbbbbbbbbbbbbbbbbbccbbbbb",
"bbbbbbbMMmmbbbbbbbbxkhbbbbbccbbbbbjzxbbbbbbbbbbbbbbbbbbbbccbbbbb",
"cbbbbbbMMmbbbbbbbbbxkbbbbbbbbbbbbbggxbbbbbbbbbbbbbbccbbbbccbbbbc",
"cbbbbbMMmmbbbbbbbbxlbbbbbbbbbbbbbbb$xbbbbbbbbbbbbbbccbbbbccbbbbc",
"bbbbbbMmmbbbbbbbbbxubbbbbbbbbbbbbbb=tibbbbbbbbbbbbbbbccbbbbbbccb",
"bbbbbbbmmbbbbbbbbxkbbbbbbbbbbiO.Obb>%bbbbbbbbbbbbbbbbccbbbbbbccb",
"bbbbbbbmmbbbbbbbbxuvvbbbbtr<iiw 9bb-2tbbbbbbbbbbbbbbbbbbbbbbbbbb",
"bbbbbbbmbbbbbbbbbxivvbbbtt9,eibvttu:5w4bbbbbbbbbbbbbbbbbbbbbbbbb",
"bbbbbbbmbbbbbbbbbbabbbbttt2:bbb9qyi0t6bb44bbbbbbbbbbbbbbabbbbbbb",
"bbbbbbbbbbbbbbbbbaabbbtttb3-bbbbbi4te4b444bbbbbbbbbbbbbbabbbbbbb",
"bbbbbbbbbbbbbbbbbabbvvttrb4bv>iqbbbtN4b444NbbMMbbbbbbbbbabbbbbbb",
"bbbbbbbbbbbbbbbbbbabbtt05b3b75N8bbtNNbv244NbmMbbbbbbbbbbabbbbbbb",
"bbbbbbbbbbbbbbbbbbbbbyq*$btttttNNbbbbv=-3bbbmMbbbbbbbbbbabbbbbbb",
"bbbbbbbbbbbbbbbbbbbbvt8a-bttttyNNbbbb--2#bbmmbbbbbbbbbbaabbbbbbb",
"bbbbbbbbbbbbbbbbbbbbbt%g:btbbutbbbbbii:O.bbmMbbbbbbbbbbadbbbbbbb",
"bbbbbbbbbbbbbbbbbbbbtbOu-bbbbbvvbbiiii7&bbmMMbbbbbbbbbbaabbbbbbb",
"bbbbbbbbbbbbbbbbbbbbyby*:bbbbb.. eiiii5bbmmMbbbbbbbbbbbajvbbbbbb",
"bbbbbbbbbbbbbbbbbbbbbbd*-bbbbbb..=4i--ObmmMbbbbbbbbbbb5sxbbbbbbb",
"bbbbbvvbbbbbbbbbbbbbbxd=-bbbbbbbb.oOvvvmmMMbbbbbbbbbvvpkxbbbbbbb",
"bbbbbbvbbbbbbbbbbbbbbxh>:bbbbbbbbbbbmMmvbbbbbbbbbbbbb7alxbbbbbbb",
"bbbbbbbbbbbbbbbbbbbbbbxd-bbbbbbbbbbbbMbbbbbbbbbbbbbbbddxxbbbbbbb",
"bbbbbbbbbbbbbbbbbbbbbbxxibbbbbbbbbbbbbbbbbbbbbbbbbbb6dlxxbbbbbbb",
"bbbbbbbbbbbbbbbbbbbbbbxxhhbbbbbbbbbbbbbbbbbbbbbbbbbbhkxxbbbbbbbb",
"bbbbbbbbbbbbbbbbbbbbbbxxlhbbbbbbbbbbbbbbbbbbbbbbbbbhdkxvbbbbbbbb",
"bbbbbbbbbbbbbbbbbbbbbbxxxjhbbbbbbbbbbbbbbbbbbbbbbvhdjxxbbbbbbbbb",
"bbbbbbbbbbbbbbbbbbbbbbbxxlhhbbbbbbbbbbbbbbbbbbbbbhgkxxxbbbbbbbbb",
"bbbbbbbbbbbbbbbbbbbbbbbxxxlhhbbbbbbbbbbbbbbbbbbvhggxxxbbbbbbbbbb",
"bbbbbbbbbbbbbbbbbbbbbbbbxxxkhhbbbbbbbbbbbbbbbbbhhhxxxbbbbbbbbbbb",
"bbbbbbbbbbbbbbbbbbbbbbbbxxxxkjhhbbbbbbbbbbbbbhghkxxxbbbccbbbbbbb",
"bbbbbbbbbbbbbbbbbbbbbbbbbxxxxxhhhhbbbbbbbbbhhhkkxxxbbbbccbbbbbbb",
"bbbbbbbbbbbbbbbbbbbbbbbbbxxxxxxjjhhhvbbhhhhhkkxxxxxbbbbccbbbbccb",
"bbbbbbbbbbbbbbbbbbbbbbbbbbxxxxxxxkjhhhhhhkjhxxxxxxcbbbbccbbbbccb",
"bbbbbnnbbbbbbbbbbbbbbbbbbccbxxxxxxxlkkkkkxxxxxxxbbbccbbbbbbccbbb",
"bbbbbnnbbbbbbbbbbbbbbbbbbccbbxxxxxxxxxxxxxxxxxxbbbbccbbbbbbccbbb",
"nbbbbnnbbbbnnbbbbbbccbbbbccbbbxxxxxxxxxxxxxxxbbbbbbbbbbbbbbbbbbn",
"nbbbbnnbbbbnnbbbbbbccbbbbccbbbbcxxxxxxxxxxxbbbbbbbbbbbbbbbbbbbbn",
"bnnbbbbbbnnbbbbbbbbbbccbbbbbbccbbbbbbbbbbbbbbbbbbbbbbbbbbbbbbbbb",
"bnnbbbbbbnnbbbbbbbbbbccbbbbbbccbbbbbbbbbbbbbbbbbbbbbbbbbbbbbbbbb",
"bbbbbbbbbbbbbbbbbbbbbbbbbbbbbbbbbbbbbbbbbbbbbbbbbbbvvbbbbbbbbbbb",
"bbbbbbbbbbbbbbbbbbbbbbbbbbbbbbbbbbbbbbbbbbbbbbbbbbbvbbbbbbbbbbbb",
"bbbbbbbbbbbbbbbbbbbbbbbbbbbbbbbbbbbbbbbbbbbbbbbbbbbbbbbbbbbbbbbb",
"bbbbbbbbbbbbbbbbbbbbbbbbbbbbbbbbbbbbbbbbbbbbbbbbbbbbbbbbbbbbbbbb"
};
