/* XPM */
static char *exit17[] = {
/* columns rows colors chars-per-pixel */
"64 64 62 1 ",
"  c #1A1625",
". c #1C1729",
"X c #1E182C",
"o c #201930",
"O c #221A33",
"+ c #231A35",
"@ c #261B3A",
"# c #271C3B",
"$ c #2B1D42",
"% c #2D1E45",
"& c #2E1F47",
"* c #332150",
"= c #342252",
"- c #382358",
"; c #3A245B",
": c #3F2560",
"> c #412561",
", c #492564",
"< c #4B2465",
"1 c #502467",
"2 c #552469",
"3 c #5C246C",
"4 c #692372",
"5 c #6D2374",
"6 c #6F2375",
"7 c #742377",
"8 c #7B257D",
"9 c #7C257E",
"0 c #7E2781",
"q c #802883",
"w c #822985",
"e c #872C8C",
"r c #8B2E92",
"t c #8C2E93",
"y c #8D2F94",
"u c #903097",
"i c #93329C",
"p c #96339F",
"a c #9835A2",
"s c #9C36A6",
"d c #9E38A9",
"f c #A23AAE",
"g c #A43BB1",
"h c #A63CB3",
"j c #B248AF",
"k c #B54BAF",
"l c #B84EAE",
"z c #BD53AD",
"x c #BF55AC",
"c c #AC42B1",
"v c #C056AC",
"b c #C55BAA",
"n c #CB61A9",
"m c #CC62A8",
"M c #CF65A8",
"N c #D167A7",
"B c #D269A6",
"V c #40B088",
"C c #6FC79F",
"Z c #70C8A0",
"A c #88D8B8",
"S c #A0E0C0",
/* pixels */
"ZZZZZZZZZZZZZZZZZZZZZZZZZZZZZZZZZZZZZZZZZZZZZZZZZZZZZZZZZZZZZZZZ",
"ZZZZZZZZZZZZZZZZZZZZZZZZZZZZZZZZZZZZZZZZZZZZZZZZZZZZZZZZZZZZZZZZ",
"ZZZZZZZZZZZZZZZZZZZZZZZZZZZZZZZZZZZZZZZZZZZZZZZZZZZZZZZZZZZZZZZZ",
"ZZZZZZZZZZZZZZZZZZZZZZZZZZZZZZZZZZZZZZZZZZZZZZZZZZZZZZZZZZZZZZZZ",
"ZZZZZZZZZZZZZZZZZZZZZZZZZZZZZZZZZZZZZZZZZZZZZZZZZZZZZZZZZZZZZZZZ",
"ZZZZZZZZZZSSZZZZZZZZZZZZZZZZZZZZZZZZZZZZZZZZZZZZZZZZZZZZZZZZZZZZ",
"ZZZZZZZZZZSSZZZZZZZZZZZZZZZZZZZZZZZZZZZZZZZZZZZZZZZZZZZZZZZZZZZZ",
"ZZZZSSZZZZSSZZZZSSZZZZZZZZZZZZZZZZZZZZZZZZZZZZZZZZZZZZZZZZZZZZZZ",
"ZZZZSSZZZZSSZZZZSSZZZZZZZZZZZZZZZZZZZCCZZZZZZZZZZZZZZZZZZZZZZZZZ",
"ZZZZZZSSZZZZZZSSZZZZZZZZZZZZZZZZZZZZZCCZZZZZZZZZZZZZZZZZZZZZZZZZ",
"ZZZZZZSSZZZZZZSSZZZZZZZZZZZZ9999ZZZZZZZZZZZZZZZZZZZZZZZZZZZZZZZZ",
"ZZZZZZZZZZZZZZZZZZZZZZZZZZZZZZ9999ZZZZZZZZZZZZZZZZZZZZZZZZZZZZZZ",
"ZZZZZZZZZZZZZZZZZZZZZZZZZZZZZZZZ999ZZZZZZZZZZZZZZZZZZZZZZZZZZZZZ",
"ZZZZZZZZZZZZZZZZZZZZZZZZZZZZZZZZZ9999ZZZZZZZZZZZZZZZZZZZZZZZZZZZ",
"ZZZZZZZZZZZZZZZZZZZZZZZZZZZZZZZZZZZ999ZZZZZZZZZZZZZZZZZZZZZZZZZZ",
"ZZZZZZZZZZZZZZZZZZZZZZZZZZZZZZZZZZZZ999ZZZZZZZZZZZZZZZZZZZZZZZZZ",
"ZZZZZZZZZZZZZZZZZZZZZZZZZZZZZZZZZZZZZ999ZZZZZZZZZZZZZZZZZZZZZZZZ",
"ZZZZZZZZZZZZZZZZZZZZZZZZZZZZZZZZZZZZZ999ZZZZZZZZZZZZZZZZZZZZZZZZ",
"ZZZZZZZZZZZZZZZZZZZZZZZVBBBBBBMmZZZZZ9999ZZZZZZZZZZZZZZZZZZZZZZZ",
"ZZZZZZZZZZZZZZZZZZZZZZZBBBBBxbNBbsZZZZ999ZZZZZZZZZZZZZZZZZZZZZZZ",
"ZZZZZZZZZZZZZZZZZVVZZBBBNmnnn;xvmjsZZZZ99ZZZZZZZZZZZZZZZZZZZZZZZ",
"ZZZZZZZZZZZZZZZZZVVZBBMMnZZZZVVZ*bssZZZ999ZZZZZZZZZZZZZZZZZZZZZZ",
"ZZZZZZZZZZZZZZZZZZZVBBnZZZZVVZZZZZssZZZZ99ZZZZZZZZZZZZZZZVVZZZZZ",
"ZZZZZZZZZZZZZZZZZZZBBMZZZZZVVZZZZZZssZZZ99ZZZZZZZZZZZZZZZVVZZZZZ",
"VZZZZZZZZZZZZZZZZZZBNZZZZZZZZZZZZZZusZZ,999ZZZZZZZZVVZZZZVVZZZZV",
"VZZZZZZZZZZZZZZZZZBNZZZZZZZZZZZZZZZssZC7999ZZZZZZZZVVZZZvVVZZZZV",
"ZZZZZZZZZZZZZZZZZZBmZZZZZZZZZZZZZZZssZC:999ZZZZZZZZZZVVZvZZZZVVZ",
"ZZZZZZZZZZZZZZZZZBNZZZZZZZZZZ@+ ZZZZsZZ>999ZZZZZZZZZZVVZZZZZZVVZ",
"ZZZZZZZZZZZZZZZZZBMCCZZZZZZ,#X% ZZssssZ69wwZZZZZZZZZZZZZZZZZZZZZ",
"ZZZZZZZZZZZZZZZZZBnCCZZZZZZa+,ZZZZsssff78shZZZZZZZZZZZZZZZZZZZZZ",
"ZZZZZZZZZZZZZZZZZZnZZZZZZZgg46ZZZZi60gi88s6ZZZZZZZZZZZZZnZZZZZZZ",
"ZZZZZZZZZZZZZZZZZBnZZZZZZZggZ$ZZZZr %aZeeg@ZZZZZZZZZZZZZnZZZZZZZ",
"ZZZZZZZZZZZZZZZZZBZZZZZZZZspZ%SZZryo-iZggg#ZZZZZZZZZZZZZnZZZZZZZ",
"ZZZZZZZZZZZZZZZZZZmZZZssZss6r2SZZtZS-ZZggiSZZZZZZZZZZZZZnZZZZZZZ",
"ZZZZZZZZZZZZZZZZZZZZZZsssse2ZZZSSZZZ# ggh3ZZZZZZZZZZZZZZMZZZZZZZ",
"ZZZZZZZZZZZZZZZZZZZZZsssss92ZZZSSZZZ +ggiZZZZZZZZZZZZZZnnCZZZZZZ",
"ZZZZZZZZZZZZZZZZZZZZZsssss094ZZZZCC ##gs&ZZZZZZZZZZZZZZnMZZZZZZZ",
"ZZZZZZZZZZZZZZZZZZZZZsssssi9yZZZZC X##r,ZZZZZZZZZZZZZZZnBZZZZZZZ",
"ZZZZZZZZZZZZZZZZZZZZZsssZZZ98Z8$  .###+CZZZZZZZZZZZZZZZnBZZZZZZZ",
"ZZZZZZZZZZZZZZZZZZZZZsssZZZ99ZCZ +###ZZCZZZZZZZZZZZZZZnMBZZZZZZZ",
"ZZZZZZCZZZZZZZZZZZZZZsssZZZZ89ZZCZZZZZZZZZZZZZZZZZZZZZnNBZZZZZZZ",
"ZZZZZZCZZZZZZZZZZZZZZsssZZZZZ99ZZZZZZZZZZZZZZZZZZZZZZnnBBZZZZZZZ",
"ZZZZZZZZZZZZZZZZZZZZZsss7CZZZZZZ98ZZZZZZZZZZZZZZZZZZZnNBBZZZZZZZ",
"ZZZZZZZZZZZZZZZZZZZZZsss=ZZZZZZZZZ8ZZZZZZZZZZZZZZZZZnnBBBZZZZZZZ",
"ZZZZZZZZZZZZZZZZZZZZZsss1ZZZZZZZZZZZZZZZZZZZZZZZZZZZnBBBBZZZZZZZ",
"ZZZZZZZZZZZZZZZZZZZZZsssiZZZZZZZZZZZZZZZZZZZZZZZZZZnMBBBZZZZZZZZ",
"ZZZZZZZZZZZZZZZZZZZZZssssZZZZZZZZZZZZZZZZZZZZZZZZZnMBBBZZZZZZZZZ",
"ZZZZZZZZZZZZZZZZZZZZZZsssZZZZZZZZZZZZZZZZZZZZZZZZnnBBBBZZZZZZZZZ",
"ZZZZZZZZZZZZZZZZZZZZZZsssZZZZZZZZZZZZZZZZZZZZZZZnnBBBBZZZZZZZZZZ",
"ZZZZZZZZZZZZZZZZZZZZZZZsssZ;ZZZZZZZZZZZZZZZZZZZnnBBBBZZZZZZZZZZZ",
"ZZZZZZZZZZZZZZZZZZZZZZZZssBx;;ZZZZZZZZZZZZZZZnnnBBBBZZZVVZZZZZZZ",
"ZZZZZZZZZZZZZZZZZZZZZZZZZslBn0b8nZZZZZZZZZZnnnnNBBBCZZZVVZZZZZZZ",
"ZZZZZZZZZZZZZZZZZZZZZZZZZscNBNbxjzZZZZZZZnnnmBBBBBBZZZZVVZZZZVVZ",
"ZZZZZZZZZZZZZZZZZZZZZZZZZZsxBBBBrbjbnnnnnmMMBBBBBBVZZZZVVZZZZVVZ",
"ZZZZZAAZZZZZZZZZZZZZZZZZZVVskmBBBBlnMMMMMBBBBBBBCZZVVZZZZZZVVZZZ",
"ZZZZZAAZZZZZZZZZZZZZZZZZZVVZZfNBBBBBBBBBBBBBBBBZZZZVVZZZZZZVVZZZ",
"AZZZZAAZZZZAAZZZZZZVVZZZZVVZZZdBmBBBBBBBBBBBBZZZZZZZZZZZZZZZZZZA",
"AZZZZAAZZZZAAZZZZZZVVZZZZVVZZZZVVZBBBBBBBBBZZZZZZZZZZZZZZZZZZZZA",
"ZAAZZZZZZAAZZZZZZZZZZVVZZZZZZVVZZZZZZZZZZZZZZZZZZZZZZZZZZZZZZZZZ",
"ZAAZZZZZZAAZZZZZZZZZZVVZZZZZZVVZZZZZZZZZZZZZZZZZZZZZZZZZZZZZZZZZ",
"ZZZZZZZZZZZZZZZZZZZZZZZZZZZZZZZZZZZZZZZZZZZZZZZZZZZCCZZZZZZZZZZZ",
"ZZZZZZZZZZZZZZZZZZZZZZZZZZZZZZZZZZZZZZZZZZZZZZZZZZZCCZZZZZZZZZZZ",
"ZZZZZZZZZZZZZZZZZZZZZZZZZZZZZZZZZZZZZZZZZZZZZZZZZZZZZZZZZZZZZZZZ",
"ZZZZZZZZZZZZZZZZZZZZZZZZZZZZZZZZZZZZZZZZZZZZZZZZZZZZZZZZZZZZZZZZ"
};
