/* XPM */
static char *ananas[] = {
/* columns rows colors chars-per-pixel */
"64 64 230 2 ",
"   c #1D1D1F",
".  c #281A1D",
"X  c #331D1D",
"o  c #3E1B1E",
"O  c #3D2B0D",
"+  c #2B251D",
"@  c #2A261B",
"#  c #32231B",
"$  c #3B241A",
"%  c #332B1B",
"&  c #3C2C1B",
"*  c #3A2614",
"=  c #3B341C",
"-  c #3A391D",
";  c #0C0126",
":  c #01052B",
">  c #010C2B",
",  c #0C0528",
"<  c #150525",
"1  c #180624",
"2  c #1A0B24",
"3  c #1B0C2A",
"4  c #120828",
"5  c #051229",
"6  c #0A1529",
"7  c #131525",
"8  c #141B25",
"9  c #1A1D24",
"0  c #181824",
"q  c #230C23",
"w  c #2D0D23",
"e  c #210D28",
"r  c #310E22",
"t  c #251221",
"y  c #2B1322",
"u  c #2D1A20",
"i  c #241A21",
"p  c #321222",
"a  c #351823",
"s  c #3C1323",
"d  c #1C2324",
"f  c #1C2526",
"g  c #252320",
"h  c #222B25",
"j  c #2B2D20",
"k  c #2A2220",
"l  c #2D3021",
"z  c #373C22",
"x  c #541A1F",
"c  c #5B1C1E",
"v  c #57161E",
"b  c #4D1B1F",
"n  c #641E1E",
"m  c #452B07",
"M  c #4D3104",
"N  c #4C330C",
"B  c #533302",
"V  c #5A3A03",
"C  c #553B0C",
"Z  c #57370A",
"A  c #412B13",
"S  c #4B2D13",
"D  c #432C17",
"F  c #53231F",
"G  c #5D241E",
"H  c #552A1A",
"J  c #453113",
"K  c #4B3413",
"L  c #44331B",
"P  c #4A3319",
"I  c #423C1A",
"U  c #4C3B16",
"Y  c #523C11",
"T  c #503B19",
"R  c #553912",
"E  c #532F08",
"W  c #663C07",
"Q  c #733B08",
"!  c #62241D",
"~  c #75221D",
"^  c #752A1B",
"/  c #7B3B1C",
"(  c #6A321A",
")  c #420F21",
"_  c #421221",
"`  c #4E1620",
"'  c #481D20",
"]  c #531820",
"[  c #442222",
"{  c #552B22",
"}  c #5F3220",
"|  c #643621",
" . c #612E21",
".. c #46431B",
"X. c #4A4319",
"o. c #4C4C1E",
"O. c #554214",
"+. c #5C4514",
"@. c #5C4C14",
"#. c #524A19",
"$. c #57551B",
"%. c #584612",
"&. c #644204",
"*. c #6B4405",
"=. c #6D4A04",
"-. c #65440B",
";. c #6D4C0A",
":. c #68470A",
">. c #734C05",
",. c #714F09",
"<. c #6C580E",
"1. c #73530A",
"2. c #785809",
"3. c #634C13",
"4. c #624210",
"5. c #625314",
"6. c #685511",
"7. c #6A5A12",
"8. c #745C12",
"9. c #7C630C",
"0. c #7C6306",
"q. c #6A6518",
"w. c #736513",
"e. c #7A6711",
"r. c #7E7515",
"t. c #484B21",
"y. c #7B4520",
"u. c #832A1B",
"i. c #8B2E1A",
"p. c #80271C",
"a. c #982E1A",
"s. c #8D311A",
"d. c #89371A",
"f. c #993E17",
"g. c #943918",
"h. c #8C3D0B",
"j. c #AB3917",
"k. c #B13917",
"l. c #B33F19",
"z. c #835B04",
"x. c #815B06",
"c. c #8C4619",
"v. c #9C591F",
"b. c #96541E",
"n. c #914411",
"m. c #A8480D",
"M. c #A94418",
"N. c #BB4115",
"B. c #B94D15",
"V. c #B54516",
"C. c #A8591A",
"Z. c #BA5818",
"A. c #8C6B06",
"S. c #856B0A",
"D. c #8A6D09",
"F. c #876405",
"G. c #8E780D",
"H. c #967405",
"J. c #9D7B05",
"K. c #93770A",
"L. c #847D16",
"P. c #8A6B0A",
"I. c #AC6D13",
"U. c #CC4514",
"Y. c #CC4B16",
"T. c #C54913",
"R. c #D44C13",
"E. c #DB4E12",
"W. c #CC5213",
"Q. c #C85817",
"!. c #D45314",
"~. c #DD5412",
"^. c #D75C16",
"/. c #DB5B16",
"(. c #D45A18",
"). c #E25410",
"_. c #E35B11",
"`. c #C86816",
"'. c #DA6013",
"]. c #DA6418",
"[. c #DA6A17",
"{. c #C97318",
"}. c #C67719",
"|. c #D37217",
" X c #D27B19",
".X c #DD7C1A",
"XX c #D87719",
"oX c #E46F18",
"OX c #E36717",
"+X c #E47419",
"@X c #E97318",
"#X c #E27C18",
"$X c #EB7E19",
"%X c #E07017",
"&X c #9D8409",
"*X c #898215",
"=X c #A48706",
"-X c #AC9306",
";X c #B69906",
":X c #A79B11",
">X c #B08E03",
",X c #BDA407",
"<X c #DD8419",
"1X c #D48A1C",
"2X c #D88719",
"3X c #D4931A",
"4X c #DC9A1A",
"5X c #DA961B",
"6X c #EC8319",
"7X c #E38B1A",
"8X c #EA8B19",
"9X c #E28219",
"0X c #E89718",
"qX c #C4AB06",
"wX c #DCA31A",
"eX c #C9B108",
"rX c #E3A61D",
"tX c #E4AE1D",
"yX c #E9A519",
"uX c #E4B41C",
"iX c #E6B81C",
"pX c #E49721",
"aX c #E3A420",
"sX c #E9AA22",
"dX c #ECB222",
"fX c #F0B824",
"gX c #EAC31C",
"hX c #EDCB1D",
"jX c #F1D41F",
"kX c None",
/* pixels */
"kXkXkXkXkXkXkXkXkXkXkXkX; ; ; ; kXkXkXkX> 5 > 5 kXkXkXkX; , ; ; ; < < ; kXkXkXkX> > > > kXkXkXkXkXkXkXkXkXkXkXkXkXkXkXkXkXkXkXkX",
"kXkXkXkXkXkXkXkXkXkXkXkX1 1 1 1 kXkXkXkX5 5 5 5 kXkXkXkX1 1 1 1 1 1 1 1 kXkXkXkX5 5 5 5 kXkXkXkXkXkXkXkXkXkXkXkXkXkXkXkXkXkXkXkX",
"kXkXkXkXkXkXkXkXkXkXkXkXu a u u kXkXkXkX6 7 7 8 kXkXkXkXu u u y y q q q kXkXkXkXh h h h kXkXkXkXkXkXkXkXkXkXkXkXkXkXkXkXkXkXkXkX",
"kXkXkXkXkXkXkXkXkXkXkX% I T T P & kXkX2 . @ @ 9 0 kXkX$ L T T { P D $ X t kXkXz t.$.$.t.z kXkXkXkXkXkXkXkXkXkXkXkXkXkXkXkXkXkXkX",
"kXkXkXkXkXkXkXkXkX5 g z 5.8.8.6.L y 2 . # A A X . 1 t L 3.8.e.8.;.4.Y D i 7 h t.q.*XL.q.o.h 5 kXkXkXkXkXkXkXkXkXkXkXkXkXkXkXkXkX",
"kXkXkXkXkXkXkXkX> 5 f ..w.G.K.8.T a t X A Z E A X q u T 8.G.J.J.A.2.-.J + 8 h o.*X:X:XL.$.h 5 : kXkXkXkXkXkXkXkXkXkXkXkXkXkXkXkX",
"kXkXkXkXkXkXkXkX> 5 f ..q.G.G.e.O.$ X o S E Z S $ X D +.S.&X=XJ.D.2.3.K % j z $.*X:X:Xr.t.f 5 > kXkXkXkXkXkXkXkXkXkXkXkXkXkXkXkX",
"kXkXkXkXkXkXkXkXkX5 f t.5.q.w.8.@.U P S S S S S K K +.8.G.J.&XK.2.3.O.U ....#.q.r.*Xr.q.z f 5 > kXkXkXkXkXkXkXkXkXkXkXkXkXkXkXkX",
"kXkXkXkXkXkXkXkXkXkXkXl z ..#.$.5.6.3.R P D D K 4.8.S.A.H.H.D.2.+.I = U @.7.w.w.q.$.o.z h d 5 > kXkXkXkXkXkXkXkXkXkXkXkXkXkXkXkX",
"kXkXkXkXkXkXkXkXkXkXkXkXd f j X.6.S.8.;.D a X T 8.K.J.J.J.A.2.+.= g j ..w.*X*Xr.$.- h 8 6 5 5 5 kXkXkXkXkXkXkXkXkXkXkXkXkXkXkXkX",
"kXkXkXkXkXkXkXkXkXkXkXkX: 6 g - 6.S.A.1.K X X R S.=X>X>XJ.z.1.Y % k j #.e.&X&Xe.X.d 5 5 > 5 5 5 kXkXkXkXkXkXkXkXkXkXkXkXkXkXkXkX",
"kXkXkXkXkXkXkXkXkXkXkXkX: > 0 L 6.S.A.1.K $ A 3.G.,XqXqXJ.z.=.C & = I 5.G.-X&Xe...9 5 > > > 5 kXkXkXkXkXkXkXkXkXkXkXkXkXkXkXkXkX",
"kXkXkXkXkXkXkXkXkXkXkXkX: , 0 D 4.F.F.>.Z A N <.&X,XqX;XJ.z.*.W C O.+.9.H.=X&Xw...d 5 : > kXkXkXkXkXkXkXkXkXkXkXkXkXkXkXkXkXkXkX",
"kXkXkXkXkXkXkXkXkXkXkXkX< < t $ +.1.2.>.V B V 0.:XqXeX;XJ.2.*.Q *.>.2.F.H.J.D.7.- d 5 > kXkXkXkXkXkXkXkXkXkXkXkXkXkXkXkXkXkXkXkX",
"kXkXkXkXkXkXkXkXkXkXkXkX< < t $ Y -.;.&.V B &.S.=XeXeX;XD.;.V &.>.2.F.A.D.D.9.$.- d 5 > kXkXkXkXkXkXkXkXkXkXkXkXkXkXkXkXkXkXkXkX",
"kXkXkXkXkXkXkXkXkXkXkXkXkX< t X D K K C B V =.D.-XqXqX&Xw.O.Y &.1.F.A.F.9.6.@...j 8 5 kXkXkXkXkXkXkXkXkXkXkXkXkXkXkXkXkXkXkXkXkX",
"kXkXkXkXkXkXkXkXkXkXkXkXkXkXkXi k + % O N V =.A.=X;X,X*X6.= % X.<.S.A.0.@.I l j f kXkXkXkXkXkXkXkXkXkXkXkXkXkXkXkXkXkXkXkXkXkXkX",
"kXkXkXkXkXkXkXkXkXkXkXkXkXkXkXkX8 8   # A V >.A.=X;X-Xe.o.% @ I 6.D.D.w.X.l d 8 kXkXkXkXkXkXkXkXkXkXkXkXkXkXkXkXkXkXkXkXkXkXkXkX",
"kXkXkXkXkXkXkXkXkXkXkXkXkXkXkXkX8 9 g % J W >.F.J.=X&Xe.X.@ @ - 6.S.D.<.X.l 9 8 kXkXkXkXkXkXkXkXkXkXkXkXkXkXkXkXkXkXkXkXkXkXkXkX",
"kXkXkXkXkXkXkXkXkXkXkXkXkXkXkXi k + % J Z *.>.z.H.J.H.<.X.@ @ N <.F.D.9.5.X.- % k kXkXkXkXkXkXkXkXkXkXkXkXkXkXkXkXkXkXkXkXkXkXkX",
"kXkXkXkXkXkXkXkXkXkXkXkXkX< t X L Y C 4.&.*.>.2.F.H.F.,.C O O Z =.F.F.S.9.7.5.X.& y 4 kXkXkXkXkXkXkXkXkXkXkXkXkXkXkXkXkXkXkXkXkX",
"kXkXkXkXkXkXkXkXkXkXkXkX< < t $ K -.;.;.*.*.>.>.z.z.z.>.&.M M V =.2.F.A.D.D.9.3.L y 3 , kXkXkXkXkXkXkXkXkXkXkXkXkXkXkXkXkXkXkXkX",
"kXkXkXkXkXkXkXkXkXkXkXkX; < t $ R -.;.;.-.V W *.,.2.>.=.V M M B &.=.1.2.S.S.9.3.L t 1 ; kXkXkXkXkXkXkXkXkXkXkXkXkXkXkXkXkXkXkXkX",
"kXkXkXkXkXkXkXkXkXkXkXkXkX1 t # L Y Y Y U K N C &.=.>.*.V M M M N C %.3.5.6.@.#.& y 1 kXkXkXkXkXkXkXkXkXkXkXkXkXkXkXkXkXkXkXkXkX",
"kXkXkXkXkXkXkXkXkXkXkXkXkXkXkX. + % % + @ + % J C -.&.&.V M m O O % % = - - - = l kXkXkXkXkXkXkXkXkXkXkXkXkXkXkXkXkXkXkXkXkXkXkX",
"kXkXkXkXkXkXkXkXkXkXkXkXkXkXkXkX0 8 8 8 7 8 9 % N &.*.W V M m O @   8 8 d 8 d 9 kXkXkXkXkXkXkXkXkXkXkXkXkXkXkXkXkXkXkXkXkXkXkXkX",
"kXkXkXkXkXkXkXkXkXkXkXkXkXkXkXkX5 5 5 5 5 5 7 # S W Q *.W W E O . 7 > 5 5 5 5 5 kXkXkXkXkXkXkXkXkXkXkXkXkXkXkXkXkXkXkXkXkXkXkXkX",
"kXkXkXkXkXkXkXkXkXkXkXkXkXkXkXkXkX> > > : > 2 X H Q h.h.h.h.W S . 7 : : > : > kXkXkXkXkXkXkXkXkXkXkXkXkXkXkXkXkXkXkXkXkXkXkXkXkX",
"kXkXkXkXkXkXkXkXkXkXkXkXkXkXkXkXkXkXkX: : , 2 o ! h.f.m.m.m.n.( $ 2 : : : kXkXkXkXkXkXkXkXkXkXkXkXkXkXkXkXkXkXkXkXkXkXkXkXkXkXkX",
"kXkXkXkXkXkXkXkXkXkXkXkXkXkXkXkXkXkXkXkX, 4 w ` ~ a.N.T.W.W.m.d.{ y 1 , kXkXkXkXkXkXkXkXkXkXkXkXkXkXkXkXkXkXkXkXkXkXkXkXkXkXkXkX",
"kXkXkXkXkXkXkXkXkXkXkXkXkXkXkXkXkXkXkXkXq w s ! a.l.Y.!.^.W.Z.n.( ' a y kXkXkXkXkXkXkXkXkXkXkXkXkXkXkXkXkXkXkXkXkXkXkXkXkXkXkXkX",
"kXkXkXkXkXkXkXkXkXkXkXkXkXkXkXkXkXkXkXr ) x ! i.M.W././.'.Q.Q.C.c./ | { [ kXkXkXkXkXkXkXkXkXkXkXkXkXkXkXkXkXkXkXkXkXkXkXkXkXkXkX",
"kXkXkXkXkXkXkXkXkXkXkXkXkXkXkXkXkX; e ) ] ~ a.M.Q.[.@X%X].`.`.Z.Z.C.v.y.{ y , kXkXkXkXkXkXkXkXkXkXkXkXkXkXkXkXkXkXkXkXkXkXkXkXkX",
"kXkXkXkXkXkXkXkXkXkXkXkXkXkXkXkX; 1 w ` ~ a.l.Q.%X#X6X<X{.`.Z.`. X<X}.v.| a 1 , kXkXkXkXkXkXkXkXkXkXkXkXkXkXkXkXkXkXkXkXkXkXkXkX",
"kXkXkXkXkXkXkXkXkXkXkXkXkXkXkXkXq r _ n a.l.Y.].@X8X8X7X X{.}.2X7X8X9XC.y.{ a w kXkXkXkXkXkXkXkXkXkXkXkXkXkXkXkXkXkXkXkXkXkXkXkX",
"kXkXkXkXkXkXkXkXkXkXkXkXkXkXkXr _ ` n d.M.Y.OX@X#X#X<X2X3X3X3X4XpX0X7X}.v.y.| { [ kXkXkXkXkXkXkXkXkXkXkXkXkXkXkXkXkXkXkXkXkXkXkX",
"kXkXkXkXkXkXkXkXkXkXkXkXkX1 w _ n ~ i.M.Q.[.@X#XXXXX X3XwXuXiXuXyX0X2X2X}.C.v.y.{ a < kXkXkXkXkXkXkXkXkXkXkXkXkXkXkXkXkXkXkXkXkX",
"kXkXkXkXkXkXkXkXkXkXkXkX; 1 w ` ~ a.l.Y.[.$X6X#X|.`.{.3XuXhXjXgXtX4X2X2X1X X}.v.} a < ; kXkXkXkXkXkXkXkXkXkXkXkXkXkXkXkXkXkXkXkX",
"kXkXkXkXkXkXkXkXkXkXkXkX; 1 r ] p.k.Y./.oX$X6X#X{.{.2X3XiXjXjXhXiXwX0X0XpX8X Xv.| a < ; kXkXkXkXkXkXkXkXkXkXkXkXkXkXkXkXkXkXkXkX",
"kXkXkXkXkXkXkXkXkXkXkXkX; 1 r ] i.l.(./.OXoX#X.X X1X3XwXiXgXhXhXgXiXyXsX0X7X{.b.| a 1 ; kXkXkXkXkXkXkXkXkXkXkXkXkXkXkXkXkXkXkXkX",
"kXkXkXkXkXkXkXkXkXkXkXkX; 1 r G s.V.Y./.(.(.].+X7XpXsXsXtXuXuXgXhXhXgXiX0X2XI.c.H p < ; kXkXkXkXkXkXkXkXkXkXkXkXkXkXkXkXkXkXkXkX",
"kXkXkXkXkXkXkXkXkXkXkXkX; 1 r { d.B.(.!.R.Y.(.XXpXsXfXdXaXwXwXuXhXjXjXiX4X{.C.d.{ y 1 ; kXkXkXkXkXkXkXkXkXkXkXkXkXkXkXkXkXkXkXkX",
"kXkXkXkXkXkXkXkXkXkXkXkX; 1 p ] d.Z.Y.!.Y.Y.(.[.pXsXfXdXaX4XwXuXgXjXhXiX4X}.C./ F y 1 ; kXkXkXkXkXkXkXkXkXkXkXkXkXkXkXkXkXkXkXkX",
"kXkXkXkXkXkXkXkXkXkXkXkX; 1 r { d.B.(.(.(.(.].XX7XpXaXsXaXaXwXuXiXiXuXyX5X XI.c.{ p 1 ; kXkXkXkXkXkXkXkXkXkXkXkXkXkXkXkXkXkXkXkX",
"kXkXkXkXkXkXkXkXkXkXkXkX; 4 r ] p.l.Y./.].oX$X.X<X1X1X4XsXdXdXtXwX3X3X3X7X<X{.b.H a < ; kXkXkXkXkXkXkXkXkXkXkXkXkXkXkXkXkXkXkXkX",
"kXkXkXkXkXkXkXkXkXkXkXkX; 3 r ] p.l.Y./.@X$X6X.XXX}.}.1XaXfXfXrX3X1X{.2X8X8X Xv.| a < ; kXkXkXkXkXkXkXkXkXkXkXkXkXkXkXkXkXkXkXkX",
"kXkXkXkXkXkXkXkXkXkXkXkX; 1 r ] p.l.Y./.@X6X6X9X|.`.{.1XrXdXtXrX1X}.`.|.9X8X|.C.| a 1 ; kXkXkXkXkXkXkXkXkXkXkXkXkXkXkXkXkXkXkXkX",
"kXkXkXkXkXkXkXkXkXkXkXkX; 1 r ] i.l.R.OXOXoX+X.XXX|. X1X4XpXrX4X1X{.|.XX+X+X`.b.| a 1 ; kXkXkXkXkXkXkXkXkXkXkXkXkXkXkXkXkXkXkXkX",
"kXkXkXkXkXkXkXkXkXkXkXkX; 1 p G g.Y.~._._./.].[..X#X9X<X2X1X1X2X<X9X#X@XoX].B.d.G p 1 ; kXkXkXkXkXkXkXkXkXkXkXkXkXkXkXkXkXkXkXkX",
"kXkXkXkXkXkXkXkXkXkXkXkX; 1 p ! n.W._._.!.Y.Y.^.+X6X8X7X X}.{.}.<X6X6X@X].Y.V.i.x r 1 ; kXkXkXkXkXkXkXkXkXkXkXkXkXkXkXkXkXkXkXkX",
"kXkXkXkXkXkXkXkXkXkXkXkX; 1 p ! f.W._.).R.U.R./.oX$X6X.X|.`.`.|..X6X$X@X_.Y.k.u.x w 1 , kXkXkXkXkXkXkXkXkXkXkXkXkXkXkXkXkXkXkXkX",
"kXkXkXkXkXkXkXkXkXkXkXkX; 1 p ! g.Y.).).E.E.R./.OX+X+X[.'.`.W.|.[.oX@XOX_.!.l.i.c w 1 , kXkXkXkXkXkXkXkXkXkXkXkXkXkXkXkXkXkXkXkX",
"kXkXkXkXkXkXkXkXkXkXkXkX; 1 r c a.N.E.).).).~.~././.^./.].'.'.'.^.^./._._.).Y.g.! p < ; kXkXkXkXkXkXkXkXkXkXkXkXkXkXkXkXkXkXkXkX",
"kXkXkXkXkXkXkXkXkXkXkXkX; 1 w x u.k.U.E.)._._.~.R.Y.Y.E./._._.~.!.Y.Y.!._._.W.f.! p < ; kXkXkXkXkXkXkXkXkXkXkXkXkXkXkXkXkXkXkXkX",
"kXkXkXkXkXkXkXkXkXkXkXkX, 1 w ` ~ a.k.T.!._._.~.R.U.U.R.~._._.~.R.U.U.R.!.W.B.g.G X 1 ; kXkXkXkXkXkXkXkXkXkXkXkXkXkXkXkXkXkXkXkX",
"kXkXkXkXkXkXkXkXkXkXkXkXkX< w _ ] ~ i.j.T.E.).).E.R.E.E.).).).).E.R.Y.T.V.M.n.^ x p < kXkXkXkXkXkXkXkXkXkXkXkXkXkXkXkXkXkXkXkXkX",
"kXkXkXkXkXkXkXkXkXkXkXkXkXkXkXr ) ] n u.j.U.E.).).).).).E.E.E.).).).W.V.g.^ ! H _ kXkXkXkXkXkXkXkXkXkXkXkXkXkXkXkXkXkXkXkXkXkXkX",
"kXkXkXkXkXkXkXkXkXkXkXkXkXkXkXkXe w ) n i.k.U.R.)._._.E.R.U.U.R.)._.W.M.^ b r . kXkXkXkXkXkXkXkXkXkXkXkXkXkXkXkXkXkXkXkXkXkXkXkX",
"kXkXkXkXkXkXkXkXkXkXkXkXkXkXkXkX; 1 w ` ~ a.k.T.T.W.W.T.l.k.k.N.Y.Y.B.g.G p < ; kXkXkXkXkXkXkXkXkXkXkXkXkXkXkXkXkXkXkXkXkXkXkXkX",
"kXkXkXkXkXkXkXkXkXkXkXkXkXkXkXkX, 4 e s ] ~ p.i.g.f.f.g.i.u.u.s.g.f.g.( ' q < : kXkXkXkXkXkXkXkXkXkXkXkXkXkXkXkXkXkXkXkXkXkXkXkX",
"kXkXkXkXkXkXkXkXkXkXkXkXkXkXkXkXkX4 3 r o ` x c G ! ! G c x x c ! ! { ' s e 4 kXkXkXkXkXkXkXkXkXkXkXkXkXkXkXkXkXkXkXkXkXkXkXkXkX",
"kXkXkXkXkXkXkXkXkXkXkXkXkXkXkXkXkXkX3 e q w w r X r X r p w w w r r s w y 3 kXkXkXkXkXkXkXkXkXkXkXkXkXkXkXkXkXkXkXkXkXkXkXkXkXkX",
"kXkXkXkXkXkXkXkXkXkXkXkXkXkXkXkXkXkX3 3 1 1 < 1 1 1 1 1 1 1 1 < 1 1 < 3 3 3 kXkXkXkXkXkXkXkXkXkXkXkXkXkXkXkXkXkXkXkXkXkXkXkXkXkX",
"kXkXkXkXkXkXkXkXkXkXkXkXkXkXkXkXkXkXkX4 ; < ; ; ; ; ; ; ; ; ; ; ; ; , , 4 kXkXkXkXkXkXkXkXkXkXkXkXkXkXkXkXkXkXkXkXkXkXkXkXkXkXkX"
};
