/* XPM */
static char *exit[] = {
/* columns rows colors chars-per-pixel */
"64 64 82 1 ",
"  c #1A1625",
". c #1E182C",
"X c #20192F",
"o c #211930",
"O c #211931",
"+ c #221A33",
"@ c #231A34",
"# c #231A35",
"$ c #261B39",
"% c #271C3B",
"& c #291C3E",
"* c #2B1D41",
"= c #2D1E45",
"- c #2E1F47",
"; c #2F1F49",
": c #30204B",
"> c #32204D",
", c #332150",
"< c #352253",
"1 c #372356",
"2 c #382358",
"3 c #3A245B",
"4 c #3F2560",
"5 c #412561",
"6 c #492564",
"7 c #4A2465",
"8 c #4B2465",
"9 c #4C2466",
"0 c #4D2466",
"q c #4E2467",
"w c #502467",
"e c #512468",
"r c #552469",
"t c #5C246C",
"y c #5D246D",
"u c #5E246D",
"i c #60246E",
"p c #672371",
"a c #642470",
"s c #692372",
"d c #6D2374",
"f c #6F2375",
"g c #702375",
"h c #742377",
"j c #7D267F",
"k c #802883",
"l c #872C8C",
"z c #8D2F94",
"x c #93329C",
"c c #96339F",
"v c #9835A2",
"b c #9E38A9",
"n c #B248AF",
"m c #B84EAE",
"M c #BD53AD",
"N c #BF55AC",
"B c #AC42B1",
"V c #C056AC",
"C c #C55BAA",
"Z c #CB61A9",
"A c #CC62A8",
"S c #CF65A8",
"D c #D167A7",
"F c #D269A6",
"G c #DF86B4",
"H c #E18CB8",
"J c #E290BA",
"K c #E497BE",
"L c #E59AC0",
"P c #E8A3C6",
"I c #E9A9C9",
"U c #EBAFCD",
"Y c #ECB2CF",
"T c #EEB7D2",
"R c #F0BDD6",
"E c #F0C0D8",
"W c #F1C3DA",
"Q c #F5CFE1",
"! c #F6D1E2",
"~ c #F6D4E4",
"^ c #F8D9E7",
"/ c None",
/* pixels */
"////////////////////////////////////////////////////////////////",
"////////////////////////////////////////////////////////////////",
"////////////////////////////////////////////////////////////////",
"////////////////////////////////////////////////////////////////",
"////////////////////////////////////////////////////////////////",
"////////////////////////////////////////////////////////////////",
"////////////////////////////////////////////////////////////////",
"////////////////////////////////////////////////////////////////",
"////////////////////////////////////////////////////////////////",
"//////////////////////DDDDDDDD//////////////////////////////////",
"///////////////////DDDDDDDDDDDDDDD//////////////////////////////",
"/////////////////DDDDDDDDDDDDDDDDDD/////////////////////////////",
"////////////////DDDDDDDDD///////DDDD////////////////////////////",
"//////////////DDDDDDD////////////DDDDD//////////////////////////",
"/////////////DDDDD/////////////////DDD//////////////////////////",
"////////////DDDDD///////////////////DDD/////////////////////////",
"///////////DDDD//////////////////////DD/////////////////////////",
"///////////DANP///////////////////////DD////////////////////////",
"//////////DDBJQ///////////////////////DD////////////////////////",
"/////////DDnZQ////////////##0-#////////DD///////////////////////",
"/////////DVmQ////////////060606>*fg//CCDD///////////////////////",
"////////DDnWQ//////////000/////q0,g///CCSD//////////////////////",
"////////DNZ!//////////64////////r;rg//CCl///////////////////////",
"///////!CbW/////////Wx&//////////r$ag//CN///////////////////////",
"///////WNYQ////////WK/////////////rig//CC///////////////////////",
"//////~HnW////////~P>/////////////udg//CCCD/////////////////////",
"//////WCZ!////////Qv//////%,,,2e//ifg//CCz//////////////////////",
"///////vW////////^I//////////o,*w/agg//CCN//////////////////////",
"///////MQ////////~P////////-o/##66gggg/CCC//////////////////////",
"///////!Q////////WU///////&&o/// 6ggg/CCCCe//K//////////////////",
"///////RQ/////////A/////gg. //////upg//CCCe//K//////////////////",
"///////QQ////////W/////gg6uN//////.i///CC/e/////////////////////",
"///////QQ////////W/////gg>jC/////oo////CC/e/TC!/////////////////",
"///////Q//////////////gggrCC///e//-////C//q/UG//////////////////",
"///////Q//////////////ggggvC  /////////////QGP//////////////////",
"///////Q/////////////gggggCCc /////////////Qn///////////////////",
"///////Q/////////////gggggCMmr*/o//////////SD///////////W///////",
"/////////////////////gggggphNau&*/////////LAD//////////AW///////",
"/////////////////////ggfgsuCCae ,#/////e//DD///////////UW///////",
"/////////////////////ggffii/A/t*>:;///e//DD///////////;IW///////",
"/////////////////////gggfuu/DD//////////DDD///////////vWW///////",
"/////////////////////gggfii//DD///////DDDD///////////;GWQ///////",
"/////////////////////gggfui///DDDDDDDDDD/////////////5WW^///////",
"/////////////////////ggg1ii//////DDDDD//////////////6KW!^///////",
"/////////////////////gggo0i////////////////////////&uIW~^///////",
"//////////////////////gg,Xi///////////////////////&5GWQ^////////",
"//////////////////////ggiX6u//////////////////////2FWW^/////////",
"//////////////////////ggiX-ui////////////////////2vWW!^/////////",
"///////////////////////gg5-0t///////////////////0kRWW^//////////",
"////////////////////////gg*6qr////////////////466IWW////////////",
"////////////////////////gg/;qqru////////////-4009TW/////////////",
"/////////////////////////gg/&5600-#////////0600/////////////////",
"/////////////////////////gg//o-6005&&&&&0000qq//////////////////",
"//////////////////////////////oo2200q0qq0000////////////////////",
"////////////////////////////////Xo>>>>>4////////////////////////",
"////////////////////////////////////////////////////////////////",
"////////////////////////////////////////////////////////////////",
"////////////////////////////////////////////////////////////////",
"////////////////////////////////////////////////////////////////",
"////////////////////////////////////////////////////////////////",
"////////////////////////////////////////////////////////////////",
"////////////////////////////////////////////////////////////////",
"////////////////////////////////////////////////////////////////",
"////////////////////////////////////////////////////////////////"
};
