/* XPM */
static char * floor_xpm[] = {
"64 64 33 1",
" 	c #47352C",
".	c #47342C",
"+	c #46342B",
"@	c #48362D",
"#	c #48372D",
"$	c #49372D",
"%	c #4B3A2F",
"&	c #4E3C31",
"*	c #4F3E32",
"=	c #514033",
"-	c #564537",
";	c #5A4939",
">	c #5E4E3D",
",	c #635340",
"'	c #695944",
")	c #46342C",
"!	c #49372E",
"~	c #4B392F",
"{	c #503F32",
"]	c #524034",
"^	c #503F33",
"/	c #5A4A3A",
"(	c #5D4C3C",
"_	c #564536",
":	c #5E4D3C",
"<	c #645441",
"[	c #685743",
"}	c #6A5945",
"|	c #594839",
"1	c #635240",
"2	c #6A5A45",
"3	c #6F5E48",
"4	c #71604A",
"                                                                ",
"                                                                ",
"                                                                ",
"                                                                ",
"                                                                ",
"                                                                ",
"                                                                ",
"                               .++++.                           ",
"                                ++++                            ",
"                               @#$$#@                           ",
"                              $%&**&%$                          ",
"                           . @%=-;;-=%@ .                       ",
"                           ++#&->,,>-&#++                       ",
"                           ++$*;,'',;*$++                       ",
"                           ++$*;,'',;*$++                       ",
"                           ++#&->,,>-&#++                       ",
"                           . @%=-;;-=%@ .                       ",
"                              $%&**&%$                          ",
"                               @#$$#@                           ",
"                                ++++                            ",
"                               .++++.                           ",
"                                                                ",
"                                                                ",
"                                       .++++++++.               ",
"                                        )++++++)                ",
"                                       @@$$!!$$@@               ",
"                                      $~&{=]]={&~$              ",
"                                   . @%^-/(>>(/-^%@ .           ",
"                                   ++#&_:<[}}[<:_&#++           ",
"                                   ++$*|12344321|*$++           ",
"                                   ++$*|12344321|*$++           ",
"                                   ++#&_:<[}}[<:_&#++           ",
"                                   . @%^-/(>>(/-^%@ .           ",
"                                      $~&{=]]={&~$              ",
"                                       @@$$!!$$@@               ",
"                                        )++++++)                ",
"                                       .++++++++.               ",
"                                                                ",
"                                                                ",
"       .++++++++.                                               ",
"        )++++++)                                                ",
"       @@$$!!$$@@                                               ",
"      $~&{=]]={&~$                                              ",
"   . @%^-/(>>(/-^%@ .                                           ",
"   ++#&_:<[}}[<:_&#++                                           ",
"   ++$*|12344321|*$++                                           ",
"   ++$*|12344321|*$++                                           ",
"   ++#&_:<[}}[<:_&#++                                           ",
"   . @%^-/(>>(/-^%@ .                                           ",
"      $~&{=]]={&~$                                              ",
"       @@$$!!$$@@                                               ",
"        )++++++)                                   .++++.       ",
"       .++++++++.                                   ++++        ",
"                                                   @#$$#@       ",
"                                                  $%&**&%$      ",
"                                               . @%=-;;-=%@ .   ",
"                                               ++#&->,,>-&#++   ",
"                                               ++$*;,'',;*$++   ",
"                                               ++$*;,'',;*$++   ",
"                                               ++#&->,,>-&#++   ",
"                                               . @%=-;;-=%@ .   ",
"                                                  $%&**&%$      ",
"                                                   @#$$#@       ",
"                                                    ++++        "};
