/* XPM */
static char *player[] = {
/* columns rows colors chars-per-pixel */
"64 64 200 2 ",
"   c #19282E",
".  c #122530",
"X  c #1E2F3D",
"o  c #1F303E",
"O  c #1F3B3D",
"+  c #222E2C",
"@  c #242E25",
"#  c #222733",
"$  c #212E35",
"%  c #202F3B",
"&  c #213335",
"*  c #21313B",
"=  c #203B3A",
"-  c #1A2D45",
";  c #1F3143",
":  c #1D324B",
">  c #1C2F58",
",  c #1C3353",
"<  c #1A335C",
"1  c #243A58",
"2  c #193365",
"3  c #14346D",
"4  c #18376A",
"5  c #19396C",
"6  c #17386F",
"7  c #132F72",
"8  c #143473",
"9  c #163974",
"0  c #13347B",
"q  c #163A7B",
"w  c #213E6F",
"e  c #1D4B44",
"r  c #1E4745",
"t  c #1B5B4D",
"y  c #1C534A",
"u  c #1A5A54",
"i  c #3C484C",
"p  c #3A4854",
"a  c #1A6455",
"s  c #18735B",
"d  c #154472",
"f  c #3B4C67",
"g  c #24406E",
"h  c #13696F",
"j  c #575B5D",
"k  c #4B515B",
"l  c #626158",
"z  c #626257",
"x  c #79705B",
"c  c #4C5767",
"v  c #5F6A72",
"b  c #636C6A",
"n  c #6A6969",
"m  c #867D6F",
"M  c #168264",
"N  c #158768",
"B  c #14936E",
"V  c #139772",
"C  c #10AA7D",
"Z  c #9F8E79",
"A  c #B49C7A",
"S  c #BAA17D",
"D  c #0B298B",
"F  c #143384",
"G  c #143B83",
"H  c #133D8B",
"J  c #12328C",
"K  c #0E3A99",
"L  c #123895",
"P  c #0B308C",
"I  c #213E8E",
"U  c #0B2EA3",
"Y  c #0D34A4",
"T  c #0B3CAC",
"R  c #0936A9",
"E  c #0B37B6",
"W  c #1234A9",
"Q  c #11409C",
"!  c #0E4880",
"~  c #284685",
"^  c #344D95",
"/  c #0E41A5",
"(  c #0D41AB",
")  c #0C43B2",
"_  c #0A44BD",
"`  c #164AB5",
"'  c #2553B7",
"]  c #445D9C",
"[  c #536687",
"{  c #5E6F91",
"}  c #6B7696",
"|  c #576FAB",
" . c #6079BD",
".. c #0433C3",
"X. c #0837CB",
"o. c #0738C6",
"O. c #123EC6",
"+. c #053AD7",
"@. c #0335D9",
"#. c #0539DA",
"$. c #043AEC",
"%. c #053AE9",
"&. c #023BF2",
"*. c #0035FF",
"=. c #003AFF",
"-. c #093EF4",
";. c #0542C3",
":. c #0A45C2",
">. c #0847CC",
",. c #0645CA",
"<. c #0748D4",
"1. c #0649DB",
"2. c #1C49D9",
"3. c #1A52CD",
"4. c #2851D5",
"5. c #3156C5",
"6. c #044AE3",
"7. c #034CED",
"8. c #0244E5",
"9. c #1445EF",
"0. c #014DF5",
"q. c #0043FF",
"w. c #0D43FB",
"e. c #004EFE",
"r. c #054AF4",
"t. c #1244F2",
"y. c #164CFE",
"u. c #1146FA",
"i. c #0050FF",
"p. c #1254F3",
"a. c #175AF7",
"s. c #175CFA",
"d. c #1859ED",
"f. c #2758FC",
"g. c #2C56F1",
"h. c #3C69E8",
"j. c #3060FF",
"k. c #3C67F8",
"l. c #2562F7",
"z. c #4A65DC",
"x. c #576CD3",
"c. c #5D70D3",
"v. c #5472D7",
"b. c #6274CE",
"n. c #436CF5",
"m. c #5078ED",
"M. c #10B282",
"N. c #7D8689",
"B. c #6D8ADA",
"V. c #6980D3",
"C. c #7C8FCD",
"Z. c #7493FF",
"A. c #6D8CF0",
"S. c #818883",
"D. c #948C90",
"F. c #AC9A85",
"G. c #B8A483",
"H. c #BEA68D",
"J. c #B3A49D",
"K. c #8F8EB2",
"L. c #AF9FA5",
"P. c #9EA6B3",
"I. c #B4A2A3",
"U. c #DDBC93",
"Y. c #CDB198",
"T. c #E2BF92",
"R. c #CFBDB8",
"E. c #C8B8B8",
"W. c #D0BEB8",
"Q. c #C3B1A9",
"!. c #BFC2BD",
"~. c #E6C191",
"^. c #EAC598",
"/. c #F5CD9A",
"(. c #F8D19A",
"). c #E7C28E",
"_. c #D5C3BD",
"`. c #E3C6A8",
"'. c #FBD5A5",
"]. c #FFDAA6",
"[. c #FED6A8",
"{. c #FFDAA9",
"}. c #F7D3A9",
"|. c #F1CCA0",
" X c #FFE1AA",
".X c #8599D4",
"XX c #969DC4",
"oX c #9BAACE",
"OX c #BABEC0",
"+X c #93ADFF",
"@X c #97B1FF",
"#X c #9DB3F8",
"$X c #95A9E4",
"%X c #D7D9D7",
"&X c #D1D4D7",
"*X c #CDD8FE",
"=X c #D2DCFF",
"-X c #DBE2F9",
";X c #E1E7F9",
":X c None",
/* pixels */
":X:X:X:X:X:X:X:X:X:X:X:X:X:X:X:X:X:X:X:X:X:X:X:X:X:X:X:X:X:X:X:X:X:X:X:X:X:X:X:X:X:X:X:X:X:X:X:X:X:X:X:X:X:X:X:X:X:X:X:X:X:X:X:X",
":X:X:X:X:X:X:X:X:X:X:X:X:X:X:X:X:X:X:X:X:X:X:X:X:X:X:X:X:X:X:X:X:X:X:X:X:X:X:X:X:X:X:X:X:X:X:X:X:X:X:X:X:X:X:X:X:X:X:X:X:X:X:X:X",
":X:X:X:X:X:X:X:X:X:X:X:X:X:X:X:X:X:X:X:X:X:X:X:X:X:X:X:X:X:X:X:X:X:X:X:X:X:X:X:X:X:X:X:X:X:X:X:X:X:X:X:X:X:X:X:X:X:X:X:X:X:X:X:X",
":X:X:X:X:X:X:X:X:X:X:X:X:X:X:X:X:X:X:X:X:X:X:X:X:X:X:X:X:X:X:X:X:X:X:X:X:X:X:X:X:X:X:X:X:X:X:X:X:X:X:X:X:X:X:X:X:X:X:X:X:X:X:X:X",
":X:X:X:X:X:X:X:X:X:X:X:X:X:X:X:X:X:X:X:X:X:X:X:X:X:X:X:X:X:X:X:X:X:X:X:X:X:X:X:X:X:X:X:X:X:X:X:X:X:X:X:X:X:X:X:X:X:X:X:X:X:X:X:X",
":X:X:X:X:X:X:X:X:X:X:X:X:X:X:X:X:X:X:X:X:X:X:X:X:X:X:X:X:X:X:X:X:X:X:X:X:X:X:X:X:X:X:X:X:X:X:X:X:X:X:X:X:X:X:X:X:X:X:X:X:X:X:X:X",
":X:X:X:X:X:X:X:X:X:X:X:X:X:X:X:X:X:X:X:X:X:X:X:X:X:X:X:X:X:X:X:X:X:X:X:X:X:X:X:X:X:X:X:X:X:X:X:X:X:X:X:X:X:X:X:X:X:X:X:X:X:X:X:X",
":X:X:X:X:X:X:X:X:X:X:X:X:X:X:X:X:X:X:X:X:X:X:X:X:X:X:X:X:X:X:X:X:X:X:X:X:X:X:X:X:X:X:X:X:X:X:X:X:X:X:X:X:X:X:X:X:X:X:X:X:X:X:X:X",
":X:X:X:X:X:X:X:X:X:X:X:X:X:X:X:X:X:X:X:X:X:X:X:X:X:X:X:X:X:X:X:X:X:X:X:X:X:X:X:X:X:X:X:X:X:X:X:X:X:X:X:X:X:X:X:X:X:X:X:X:X:X:X:X",
":X:X:X:X:X:X:X:X:X:X:X:X:X:X:X:X:X:X:X:X:X:X:X:X:X:X:X:X:X:X:X:X:X:X:X:X:X:X:X:X:X:X:X:X:X:X:X:X:X:X:X:X:X:X:X:X:X:X:X:X:X:X:X:X",
":X:X:X:X:X:X:X:X:X:X:X:X:X:X:X:X:X:X:X:X:X:X:X:X:X:X:X:X:X:X:X:X:X:X:X:X:X:X:X:X:X:X:X:X:X:X:X:X:X:X:X:X:X:X:X:X:X:X:X:X:X:X:X:X",
":X:X:X:X:X:X:X:X:X:X:X:X:X:X:X:X& % $ $ $ $ & $ $ $ $ % & & X X $ & $ $ $ & & & $ & $ $ $ :X:X:X:X:X:X:X:X:X:X:X:X:X:X:X:X:X:X:X",
":X:X:X:X:X:X:X:X:X:X:X:X:X:X:X:X& X ; < > 2 > > < > : ; o : , < < < < < < < < < < < < < < , :X:X:X:X:X:X:X:X:X:X:X:X:X:X:X:X:X:X",
":X:X:X:X:X:X:X:X:X:X:X:X:X:X# # # ; 2 J R R U U R Y 7 - - 9 Q ( ( / / / / / / / / / / / Q 6 o :X:X:X:X:X:X:X:X:X:X:X:X:X:X:X:X:X",
":X:X:X:X:X:X:X:X:X:X:X:X:Xo = & $ : F X.$.&.-.-.&.@.L > 1 Q 1.7.7.7.7.7.7.7.7.7.7.7.0.7.>.! 1 $ :X:X:X:X:X:X:X:X:X:X:X:X:X:X:X:X",
":X:X:X:X:X:X:X:X:X:X:X:X:Xy y e O : J #.w.f.n.k.2.O.^ [ { ' r.q.e.i.i.i.i.i.i.i.i.i.i.i.6.( F 4 , :X:X:X:X:X:X:X:X:X:X:X:X:X:X:X",
":X:X:X:X:X:X:X:X:X:X:X$ r s N s r : D #.f.Z.@X.X] ~ { P.oXm.y.q.q.i.i.i.i.i.i.e.e.i.i.e.0.6.:./ 5 o :X:X:X:X:X:X:X:X:X:X:X:X:X:X",
":X:X:X:X:X:X:X:X:X:X:X$ y s C B t : D @.f.@X;XP.v p S.&X*XZ.y.=.q.e.0.7.7.0.e.e.i.e.e.i.i.0.6.) 6 o + :X:X:X:X:X:X:X:X:X:X:X:X:X",
":X:X:X:X:X:X:X:X:X:X:X$ y N M.V t : D @.j.@X;X&Xb i S.%X=XZ.y.=.q.0.<.) ) <.0.i.e.e.i.e.0.<.( G , * $ :X:X:X:X:X:X:X:X:X:X:X:X:X",
":X:X:X:X:X:X:X:X:X:X:X$ r N M.B t : P @.j.#X-X!.b i S.%X=XZ.y.*.q.7.) q 9 ) 0.e.e.i.e.i.1./ 4 : ; * $ :X:X:X:X:X:X:X:X:X:X:X:X:X",
":X:X:X:X:X:X:X:X:X:X:X% r s B M y : D @.j.@X-X_.b p S.%X=XZ.y.=.q.7.) d q ) 7.e.i.e.e.i.6./ 4 : o X $ :X:X:X:X:X:X:X:X:X:X:X:X:X",
":X:X:X:X:X:X:X:X:X:X:X$ O y a t = - D @.j.@X-X!.b i S.%X=XZ.y.=.q.0.1.) ) <.0.i.e.i.i.e.7.>./ q , * $ :X:X:X:X:X:X:X:X:X:X:X:X:X",
":X:X:X:X:X:X:X:X:X:X:X$ = * ; = & : P +.l.@X-X!.v p N.&X*XZ.y.=.q.e.0.0.7.0.e.e.i.e.e.i.e.e.7.) 4 o + :X:X:X:X:X:X:X:X:X:X:X:X:X",
":X:X:X:X:X:X:X:X:X:X:X% % $ $ O e u ! ( 4.A.#XC.] ~ | $X+Xm.y.=.q.e.i.i.e.i.e.e.e.e.e.e.0.i.i._ 9 * + :X:X:X:X:X:X:X:X:X:X:X:X:X",
":X:X:X:X:X:X:X:X:X:X:X:X:X# o e s N h d I 5.n.k.2.O.4.n.n.f.=.=.q.i.i.e.i.i.e.e.e.e.e.e.e.i.0.:.9 % + :X:X:X:X:X:X:X:X:X:X:X:X:X",
":X:X:X:X:X:X:X:X:X:X:X:X:X# & t B C N r > W -.-.*.-.=.*.=.=.=.q.q.i.i.e.e.e.e.i.i.e.e.i.e.i.i.:.9 * + :X:X:X:X:X:X:X:X:X:X:X:X:X",
":X:X:X:X:X:X:X:X:X:X:X:X:X# O u C C N e > U $.*.*.=.*.*.*.*.*.q.e.i.i.e.e.e.e.i.e.i.i.e.i.i.0.:.9 * + :X:X:X:X:X:X:X:X:X:X:X:X:X",
":X:X:X:X:X:X:X:X:X:X:X:X:X# & u B C M e > U $.=.=.=.=.*.*.=.=.q.q.i.i.i.i.i.e.i.i.e.e.e.i.i.0.:.9 % + :X:X:X:X:X:X:X:X:X:X:X:X:X",
":X:X:X:X:X:X:X:X:X:X:X:X:X# & y M B s O < Y $.*.=.=.=.=.*.=.=.=.q.e.e.e.0.6.1.<.<.1.1.<.1.6.<./ 4 % + :X:X:X:X:X:X:X:X:X:X:X:X:X",
":X:X:X:X:X:X:X:X:X:X:X:X:X$ % r y a y O < W $.=.=.=.=.=.=.=.=.=.q.q.q.e.7._ L G H H H H H H G 9 , * $ :X:X:X:X:X:X:X:X:X:X:X:X:X",
":X:X:X:X:X:X:X:X:X:X:X:X:X& % * O O & & < Y $.=.=.=.=.=.=.=.=.=.=.=.q.i.1.Q 2 : : : ; : : : : ; % % $ :X:X:X:X:X:X:X:X:X:X:X:X:X",
":X:X:X:X:X:X:X:X:X:X:X:X:X:X$ $ $ $ # & : F E @.$.*.*.*.*.=.=.=.=.=.q.q.6.) q , ; & + $ + + + $ $ & :X:X:X:X:X:X:X:X:X:X:X:X:X:X",
":X:X:X:X:X:X:X:X:X:X:X:X:X:X:X:X:X:X$ $ ; , 8 Y +.=.=.*.*.=.q.q.q.q.0.q.0.8.;.H < $ + :X:X:X:X:X:X:X:X:X:X:X:X:X:X:X:X:X:X:X:X:X",
":X:X:X:X:X:X:X:X:X:X:X:X:X:X:X:X:X:X:X$ $ $ ; 7 ..-.=.u.9.p.a.a.s.s.a.a.a.s.d.` w * + :X:X:X:X:X:X:X:X:X:X:X:X:X:X:X:X:X:X:X:X:X",
":X:X:X:X:X:X:X:X:X:X:X:X:X:X:X:X:X:X:X:X$ @ $ 8 E -.f.z.b.V.B.B.B.B.B.B.B.A.B.| f ; + :X:X:X:X:X:X:X:X:X:X:X:X:X:X:X:X:X:X:X:X:X",
":X:X:X:X:X:X:X:X:X:X:X:X:X:X:X:X:X:X:X:X:X+ % 7 o.-.z.K.I.Q.R._._.R.R.R._._.E.D.j * . :X:X:X:X:X:X:X:X:X:X:X:X:X:X:X:X:X:X:X:X:X",
":X:X:X:X:X:X:X:X:X:X:X:X:X:X:X:X:X:X:X:X:X+ % 8 ..9.c.L.~./.'.[.].[.[.[.]. X(.G.l * # :X:X:X:X:X:X:X:X:X:X:X:X:X:X:X:X:X:X:X:X:X",
":X:X:X:X:X:X:X:X:X:X:X:X:X:X:X:X:X$ $ + + @ $ 7 ..9.c.I.).(.(. X].].].].]. X'.G.l = . :X:X:X:X:X:X:X:X:X:X:X:X:X:X:X:X:X:X:X:X:X",
":X:X:X:X:X:X:X:X:X:X:X:X:X:X:X:X$ * * * * & ; 0 ..9.c.L.T./.'.[.[.[.].[.].{.'.G.z * . :X:X:X:X:X:X:X:X:X:X:X:X:X:X:X:X:X:X:X:X:X",
":X:X:X:X:X:X:X:X:X:X:X:X:X:X:X:X$ * , 4 8 9 8 Y @.9.c.I.~./.[.[.].[.[.].{. X}.G.z * . :X:X:X:X:X:X:X:X:X:X:X:X:X:X:X:X:X:X:X:X:X",
":X:X:X:X:X:X:X:X:X:X:X:X:X:X:X:X$ ; 9 ( :.>.:.1.&.9.b.I.).(.'.[.{.[.[.[. X X}.H.z *   :X:X:X:X:X:X:X:X:X:X:X:X:X:X:X:X:X:X:X:X:X",
":X:X:X:X:X:X:X:X:X:X:X:X:X:X:X:X+ : q :.7.0.q.q.=.u.x.K.Y.T.T./.'.'.'.'. X X_.F.j =   :X:X:X:X:X:X:X:X:X:X:X:X:X:X:X:X:X:X:X:X:X",
":X:X:X:X:X:X:X:X:X:X:X:X:X:X:X:X& ; 4 Q :.6.r.q.=.-.h.b.K.D.Z A U./.(./.|.I.XX} c *   :X:X:X:X:X:X:X:X:X:X:X:X:X:X:X:X:X:X:X:X:X",
":X:X:X:X:X:X:X:X:X:X:X:X:X:X:X:X$ % ; , 0 E $.=.*.=.-.9.4.~ k m A T.^.~.I.C.h.' 5 * $ :X:X:X:X:X:X:X:X:X:X:X:X:X:X:X:X:X:X:X:X:X",
":X:X:X:X:X:X:X:X:X:X:X:X:X:X:X:X* $ + & , J X.$.&.*.=.=.#.K 4 c m F.G.J.K.m.p.:.8 ; + :X:X:X:X:X:X:X:X:X:X:X:X:X:X:X:X:X:X:X:X:X",
":X:X:X:X:X:X:X:X:X:X:X:X:X:X:X:X:X:X$ $ ; < F E #.*.=.q.r.+.T ~ c n }  .v.l.0._ 8 * + :X:X:X:X:X:X:X:X:X:X:X:X:X:X:X:X:X:X:X:X:X",
":X:X:X:X:X:X:X:X:X:X:X:X:X:X:X:X:X:X:X$ $ * : F o.-.q.q.q.0.6.` w 1 ~ 3.p.i.0._ 9 ; + :X:X:X:X:X:X:X:X:X:X:X:X:X:X:X:X:X:X:X:X:X",
":X:X:X:X:X:X:X:X:X:X:X:X:X:X:X:X:X:X:X* $ + # 2 K o.#.r.e.e.i._ 6 - 4 T ,.,._ Q 4 * :X:X:X:X:X:X:X:X:X:X:X:X:X:X:X:X:X:X:X:X:X:X",
":X:X:X:X:X:X:X:X:X:X:X:X:X:X:X:X:X:X:X:X:X:X:X: 2 0 W %.q.q.i.:.3 o - 2 q 8 9 4 < :X:X:X:X:X:X:X:X:X:X:X:X:X:X:X:X:X:X:X:X:X:X:X",
":X:X:X:X:X:X:X:X:X:X:X:X:X:X:X:X:X:X:X:X:X:X:X:X$ , J X.&.0.6.) 6 o X o o o * * :X:X:X:X:X:X:X:X:X:X:X:X:X:X:X:X:X:X:X:X:X:X:X:X",
":X:X:X:X:X:X:X:X:X:X:X:X:X:X:X:X:X:X:X:X:X:X:X:X:Xo 8 L Y T / G < O $ + + $ + :X:X:X:X:X:X:X:X:X:X:X:X:X:X:X:X:X:X:X:X:X:X:X:X:X",
":X:X:X:X:X:X:X:X:X:X:X:X:X:X:X:X:X:X:X:X:X:X:X:X:X:X, > < < < , o X $ $ $ $ :X:X:X:X:X:X:X:X:X:X:X:X:X:X:X:X:X:X:X:X:X:X:X:X:X:X",
":X:X:X:X:X:X:X:X:X:X:X:X:X:X:X:X:X:X:X:X:X:X:X:X:X:X:X$ $ & $ $ $ $ * X * :X:X:X:X:X:X:X:X:X:X:X:X:X:X:X:X:X:X:X:X:X:X:X:X:X:X:X",
":X:X:X:X:X:X:X:X:X:X:X:X:X:X:X:X:X:X:X:X:X:X:X:X:X:X:X:X:X:X:X:X:X:X:X:X:X:X:X:X:X:X:X:X:X:X:X:X:X:X:X:X:X:X:X:X:X:X:X:X:X:X:X:X",
":X:X:X:X:X:X:X:X:X:X:X:X:X:X:X:X:X:X:X:X:X:X:X:X:X:X:X:X:X:X:X:X:X:X:X:X:X:X:X:X:X:X:X:X:X:X:X:X:X:X:X:X:X:X:X:X:X:X:X:X:X:X:X:X",
":X:X:X:X:X:X:X:X:X:X:X:X:X:X:X:X:X:X:X:X:X:X:X:X:X:X:X:X:X:X:X:X:X:X:X:X:X:X:X:X:X:X:X:X:X:X:X:X:X:X:X:X:X:X:X:X:X:X:X:X:X:X:X:X",
":X:X:X:X:X:X:X:X:X:X:X:X:X:X:X:X:X:X:X:X:X:X:X:X:X:X:X:X:X:X:X:X:X:X:X:X:X:X:X:X:X:X:X:X:X:X:X:X:X:X:X:X:X:X:X:X:X:X:X:X:X:X:X:X",
":X:X:X:X:X:X:X:X:X:X:X:X:X:X:X:X:X:X:X:X:X:X:X:X:X:X:X:X:X:X:X:X:X:X:X:X:X:X:X:X:X:X:X:X:X:X:X:X:X:X:X:X:X:X:X:X:X:X:X:X:X:X:X:X",
":X:X:X:X:X:X:X:X:X:X:X:X:X:X:X:X:X:X:X:X:X:X:X:X:X:X:X:X:X:X:X:X:X:X:X:X:X:X:X:X:X:X:X:X:X:X:X:X:X:X:X:X:X:X:X:X:X:X:X:X:X:X:X:X",
":X:X:X:X:X:X:X:X:X:X:X:X:X:X:X:X:X:X:X:X:X:X:X:X:X:X:X:X:X:X:X:X:X:X:X:X:X:X:X:X:X:X:X:X:X:X:X:X:X:X:X:X:X:X:X:X:X:X:X:X:X:X:X:X",
":X:X:X:X:X:X:X:X:X:X:X:X:X:X:X:X:X:X:X:X:X:X:X:X:X:X:X:X:X:X:X:X:X:X:X:X:X:X:X:X:X:X:X:X:X:X:X:X:X:X:X:X:X:X:X:X:X:X:X:X:X:X:X:X",
":X:X:X:X:X:X:X:X:X:X:X:X:X:X:X:X:X:X:X:X:X:X:X:X:X:X:X:X:X:X:X:X:X:X:X:X:X:X:X:X:X:X:X:X:X:X:X:X:X:X:X:X:X:X:X:X:X:X:X:X:X:X:X:X",
":X:X:X:X:X:X:X:X:X:X:X:X:X:X:X:X:X:X:X:X:X:X:X:X:X:X:X:X:X:X:X:X:X:X:X:X:X:X:X:X:X:X:X:X:X:X:X:X:X:X:X:X:X:X:X:X:X:X:X:X:X:X:X:X",
":X:X:X:X:X:X:X:X:X:X:X:X:X:X:X:X:X:X:X:X:X:X:X:X:X:X:X:X:X:X:X:X:X:X:X:X:X:X:X:X:X:X:X:X:X:X:X:X:X:X:X:X:X:X:X:X:X:X:X:X:X:X:X:X"
};
